<?xml version="1.0" standalone="no"?>
<!DOCTYPE svg PUBLIC "-//W3C//DTD SVG 20010904//EN"
 "http://www.w3.org/TR/2001/REC-SVG-20010904/DTD/svg10.dtd">
<svg version="1.0" xmlns="http://www.w3.org/2000/svg"
 width="720.000000pt" height="720.000000pt" viewBox="0 0 720.000000 720.000000"
 preserveAspectRatio="xMidYMid meet">

<g transform="translate(0.000000,720.000000) scale(0.100000,-0.100000)"
fill="#B77B4D" stroke="none">
<path d="M790 5381 c-5 -11 -21 -52 -35 -93 -15 -40 -30 -82 -35 -93 -5 -11
-23 -60 -40 -110 -28 -80 -65 -180 -105 -285 -8 -19 -32 -87 -55 -150 -23 -63
-54 -149 -70 -190 -16 -41 -54 -145 -85 -230 -31 -85 -68 -184 -82 -220 -14
-36 -33 -90 -43 -120 -17 -53 -43 -124 -60 -165 -5 -11 -29 -78 -55 -150 -60
-169 -104 -286 -116 -307 -5 -10 -9 -90 -9 -178 l0 -160 191 2 192 3 38 110
c22 61 43 119 48 130 5 11 24 61 42 110 17 50 36 96 42 103 7 9 99 12 421 10
l411 -3 17 -35 c16 -33 46 -111 101 -265 14 -38 33 -91 42 -117 l18 -48 243 0
c228 0 244 1 244 18 0 10 -4 22 -8 28 -5 5 -19 38 -31 74 -12 36 -29 79 -37
97 -8 17 -14 34 -14 39 0 4 -23 68 -51 143 -28 75 -59 159 -69 186 -10 28 -37
100 -59 160 -22 61 -63 173 -92 250 -28 77 -62 172 -76 210 -13 39 -37 104
-53 145 -15 41 -40 109 -55 150 -15 41 -30 84 -35 95 -4 11 -17 46 -29 78 -12
31 -30 83 -42 115 -12 31 -25 66 -29 77 -5 11 -20 52 -33 90 -14 39 -37 102
-52 140 -14 39 -35 97 -47 130 -11 33 -26 74 -33 90 -7 17 -21 53 -31 80 -9
28 -22 56 -27 63 -7 9 -55 12 -178 12 -156 0 -169 -1 -179 -19z m239 -996 c23
-66 55 -155 72 -197 128 -338 149 -399 143 -409 -6 -10 -537 -13 -546 -3 -3 3
4 33 17 67 13 34 49 132 80 217 99 268 137 374 142 398 3 12 9 25 14 28 5 3 9
15 9 27 0 42 26 -5 69 -128z"/>
<path d="M4055 5388 c-45 -16 -111 -64 -140 -102 -35 -46 -65 -131 -65 -183 0
-101 80 -223 176 -269 59 -29 195 -26 251 4 110 58 166 149 166 268 -1 167
-129 295 -293 293 -36 0 -78 -5 -95 -11z"/>
<path d="M5003 5072 c-9 -6 -13 -68 -15 -232 l-3 -225 -177 -3 -178 -2 0 -185
0 -185 178 -2 177 -3 6 -435 c5 -371 8 -444 23 -495 47 -162 137 -276 269
-339 41 -20 83 -36 94 -36 11 0 23 -3 27 -7 12 -12 162 -32 240 -33 98 0 225
22 316 55 34 13 35 15 32 62 -1 26 -9 93 -18 148 -8 55 -17 115 -20 133 l-5
32 -57 -7 c-31 -5 -102 -7 -157 -7 -111 2 -152 14 -210 65 -70 62 -70 60 -70
484 l0 380 270 5 270 5 3 182 2 183 -272 2 -273 3 -3 225 c-2 164 -6 226 -15
232 -6 4 -104 8 -217 8 -113 0 -211 -4 -217 -8z"/>
<path d="M6845 4631 c-176 -44 -330 -135 -451 -265 -164 -176 -233 -352 -234
-593 -1 -193 35 -319 135 -473 166 -257 451 -410 763 -410 157 0 142 -24 142
227 l0 216 -32 -7 c-77 -16 -131 -18 -190 -6 -186 36 -325 166 -372 347 -19
73 -20 120 -2 193 39 162 147 278 311 336 54 19 182 25 248 11 l37 -8 0 226 0
225 -142 -1 c-101 0 -164 -6 -213 -18z"/>
<path d="M1910 4603 c0 -5 14 -44 31 -88 17 -44 40 -105 51 -135 11 -30 24
-64 28 -75 5 -11 16 -40 24 -65 8 -25 25 -74 39 -110 14 -36 51 -135 82 -220
31 -85 69 -189 85 -230 16 -41 43 -115 61 -165 17 -49 38 -108 46 -130 8 -22
37 -101 64 -175 28 -74 59 -160 71 -190 11 -30 23 -62 27 -70 7 -13 51 -15
301 -15 l294 0 16 45 c9 25 20 54 24 65 4 11 12 31 16 45 5 14 39 106 75 205
69 186 91 246 125 340 11 30 29 80 40 110 35 95 57 157 94 255 19 52 53 147
76 210 23 63 45 124 50 135 4 11 17 45 28 75 11 30 31 85 45 123 l25 67 -232
0 -232 0 -36 -102 c-20 -57 -51 -141 -68 -188 -17 -47 -49 -132 -70 -190 -21
-58 -50 -136 -64 -175 -15 -38 -40 -106 -56 -150 -15 -44 -43 -118 -60 -165
-18 -47 -43 -118 -57 -157 -14 -40 -30 -73 -37 -73 -7 0 -18 22 -25 50 -7 27
-17 52 -22 56 -5 3 -9 16 -9 29 0 13 -4 27 -10 30 -5 3 -10 13 -10 21 0 8 -9
34 -20 56 -11 23 -20 48 -20 55 0 7 -4 21 -9 31 -9 17 -23 54 -74 197 -14 39
-58 158 -97 265 -39 107 -80 219 -91 248 -10 28 -28 77 -40 107 l-20 55 -230
0 c-126 0 -229 -3 -229 -7z"/>
<path d="M3920 3770 l0 -840 230 0 230 0 0 840 0 840 -230 0 -230 0 0 -840z"/>
</g>
</svg>
