<?xml version="1.0" standalone="no"?>
<!DOCTYPE svg PUBLIC "-//W3C//DTD SVG 20010904//EN"
 "http://www.w3.org/TR/2001/REC-SVG-20010904/DTD/svg10.dtd">
<svg version="1.0" xmlns="http://www.w3.org/2000/svg"
 width="320.000000pt" height="320.000000pt" viewBox="0 0 320.000000 320.000000"
 preserveAspectRatio="xMidYMid meet">

<g transform="translate(0.000000,320.000000) scale(0.100000,-0.100000)"
fill="#B37A54" stroke="none">
<path d="M1419 3185 c-489 -82 -861 -439 -965 -927 -28 -132 -25 -327 8 -453
86 -326 288 -735 581 -1175 177 -266 351 -484 460 -578 84 -73 117 -70 213 21
112 104 263 296 431 547 298 446 505 860 589 1180 48 184 37 410 -30 608 -139
407 -498 707 -929 777 -109 18 -253 18 -358 0z m286 -256 c395 -48 719 -345
799 -731 21 -99 21 -277 0 -375 -76 -371 -383 -663 -758 -724 -114 -18 -291
-7 -399 25 -315 94 -548 328 -640 645 -19 65 -22 101 -22 241 0 142 3 176 23
243 115 399 460 669 877 686 17 0 71 -4 120 -10z"/>
<path d="M1194 2619 c-49 -14 -86 -61 -131 -165 -45 -107 -46 -108 -119 -90
-50 11 -79 -19 -79 -84 0 -44 4 -55 28 -76 15 -13 34 -24 42 -24 10 0 8 -14
-8 -62 -18 -55 -21 -94 -25 -305 l-4 -243 30 -30 c28 -27 36 -30 97 -30 69 0
118 17 129 45 3 9 6 41 6 71 l0 54 440 0 440 0 0 -59 c0 -89 17 -105 119 -109
79 -4 81 -3 112 27 l31 31 -5 238 c-4 227 -10 280 -42 355 -5 12 -3 17 8 17 9
0 29 11 44 24 24 21 28 32 28 76 0 65 -29 95 -79 84 -74 -18 -76 -17 -118 86
-44 105 -84 155 -138 170 -44 12 -763 12 -806 -1z m761 -63 c39 -17 44 -25
119 -209 35 -86 54 -146 51 -158 -6 -19 -21 -19 -528 -17 -489 3 -522 4 -525
21 -4 17 111 310 132 336 29 37 64 40 394 41 257 0 330 -3 357 -14z m-627
-635 c2 -53 -1 -77 -10 -82 -21 -14 -242 -11 -256 3 -13 13 -17 140 -5 152 4
3 66 5 137 4 l131 -3 3 -74z m810 67 c16 -16 16 -130 0 -146 -17 -17 -249 -17
-266 0 -7 7 -12 39 -12 73 0 34 5 66 12 73 8 8 52 12 133 12 81 0 125 -4 133
-12z"/>
</g>
</svg>
