<?xml version="1.0" encoding="UTF-8"?>
<svg version="1.1" xmlns="http://www.w3.org/2000/svg" width="208" height="178">
<path d="M0 0 C1.09979187 -0.0033284 2.19958374 -0.0066568 3.33270264 -0.01008606 C5.65587955 -0.01513895 7.97906369 -0.01749489 10.30224609 -0.01733398 C13.83313141 -0.01951504 17.36370136 -0.03767356 20.89453125 -0.05664062 C23.15885311 -0.05957607 25.42317644 -0.06155986 27.6875 -0.0625 C28.73262756 -0.06968552 29.77775513 -0.07687103 30.85455322 -0.08427429 C40.47307996 -0.05470935 48.83962631 1.24133724 57.359375 5.79296875 C58.03621338 6.14343262 58.71305176 6.49389648 59.41040039 6.85498047 C76.71869069 15.90171599 76.71869069 15.90171599 81.54541016 19.68579102 C88.08842092 24.65790933 94.04393766 25.30978735 102.109375 25.85546875 C120.78614544 27.30399715 120.78614544 27.30399715 126.7734375 31.7890625 C128.45361711 33.87805587 130.06599975 35.97475129 131.609375 38.16796875 C132.26550781 39.08191406 132.92164063 39.99585938 133.59765625 40.9375 C138.39070058 48.26634334 139.49011877 53.54537848 138.609375 62.16796875 C138.41949841 64.50110989 138.23199251 66.83444519 138.046875 69.16796875 C137.94246094 70.21984375 137.83804688 71.27171875 137.73046875 72.35546875 C137.46651962 75.0838752 137.46651962 75.0838752 138.20703125 77.29296875 C138.609375 79.16796875 138.609375 79.16796875 137.94140625 81.26953125 C131.22885286 90.8363962 108.16152611 93.71886296 97.26342773 95.65258789 C79.60491127 98.37833051 61.42224754 97.4304374 43.609375 97.16796875 C43.279375 96.17796875 42.949375 95.18796875 42.609375 94.16796875 C42.031875 95.11671875 41.454375 96.06546875 40.859375 97.04296875 C38.65494559 100.10467626 37.96317784 100.88830799 34.609375 102.16796875 C28.47452973 102.9592302 22.92272339 102.50183441 17.609375 99.16796875 C14.23851637 95.25520096 12.67271081 91.57689883 11.796875 86.54296875 C10.71217808 83.0695677 9.88254224 82.31218969 6.60546875 80.58203125 C3.16366147 79.24749911 -0.35935115 78.16260467 -3.87402344 77.03808594 C-8.65276547 75.38583171 -13.25958619 73.31584809 -17.890625 71.29296875 C-18.82890137 70.88691406 -19.76717773 70.48085937 -20.73388672 70.0625 C-22.95434176 69.10114249 -25.17320877 68.1363095 -27.390625 67.16796875 C-27.67550781 68.11800781 -27.96039062 69.06804687 -28.25390625 70.046875 C-29.390625 73.16796875 -29.390625 73.16796875 -31.578125 75.10546875 C-35.28410155 76.50550434 -37.58472786 76.15468282 -41.390625 75.16796875 C-44.32032667 73.45055743 -44.49061475 71.84577955 -45.515625 68.54296875 C-48.29189066 55.70274008 -49.57965702 38.85362232 -45.390625 26.16796875 C-44.04490094 24.13355061 -42.61951669 22.52061474 -40.88671875 20.80859375 C-39.24491077 19.00817769 -38.50627876 17.40922483 -37.578125 15.16796875 C-34.84436067 9.35024714 -29.79482495 5.69649932 -24.015625 3.1015625 C-16.06734006 0.322348 -8.34854846 0.00882097 0 0 Z M-8.390625 4.16796875 C-11.14328676 11.04962314 -13.390625 17.69776317 -13.390625 25.16796875 C-11.410625 25.16796875 -9.430625 25.16796875 -7.390625 25.16796875 C-6.730625 23.51796875 -6.070625 21.86796875 -5.390625 20.16796875 C-1.47632052 19.30682176 0.97625497 18.94451462 4.796875 20.29296875 C7.76501395 22.27172805 9.56767116 24.26246714 11.609375 27.16796875 C12.49196911 24.46079443 12.49196911 24.46079443 12.609375 21.16796875 C10.96349412 17.98565608 10.96349412 17.98565608 8.484375 15.04296875 C7.69804688 14.02976562 6.91171875 13.0165625 6.1015625 11.97265625 C1.53519416 6.83370254 -1.44863395 4.71243864 -8.390625 4.16796875 Z M6.609375 6.16796875 C7.11726563 6.84601562 7.62515625 7.5240625 8.1484375 8.22265625 C9.18097656 9.61871094 9.18097656 9.61871094 10.234375 11.04296875 C10.97816406 12.03683594 11.72195312 13.03070313 12.48828125 14.0546875 C14.44901311 16.93259411 15.75526358 19.6918541 17.171875 22.85546875 C18.50372668 25.2520794 18.50372668 25.2520794 20.609375 27.16796875 C23.4999824 27.73417124 23.4999824 27.73417124 26.859375 27.5 C27.5036293 27.48239624 28.14788361 27.46479248 28.81166077 27.44665527 C31.07899285 27.37715146 33.34340867 27.27274428 35.609375 27.16796875 C37.42370623 27.09878267 39.23808068 27.03072361 41.05249023 26.96362305 C47.05223135 26.7311783 53.04935928 26.45132344 59.046875 26.16796875 C61.14646998 26.07130142 63.2460793 25.97494505 65.34570312 25.87890625 C70.43376594 25.64550629 75.52161702 25.4079182 80.609375 25.16796875 C76.94410558 21.40346972 73.30835496 18.46214017 68.796875 15.79296875 C68.23806641 15.44492187 67.67925781 15.096875 67.10351562 14.73828125 C64.97652196 13.46435991 62.80901947 12.31267743 60.609375 11.16796875 C59.48208984 10.5644458 58.35480469 9.96092285 57.19335938 9.33911133 C47.42882629 4.40887343 39.00052606 3.18666258 28.13134766 3.5300293 C25.68711357 3.6069562 23.24610442 3.63268495 20.80078125 3.65039062 C19.23953953 3.67292745 17.67833442 3.69820911 16.1171875 3.7265625 C15.39024689 3.73819931 14.66330627 3.74983612 13.91433716 3.76182556 C9.81017193 3.79235713 9.81017193 3.79235713 6.609375 6.16796875 Z M-24.390625 7.16796875 C-27.22765712 11.49978123 -29.2949511 16.10194963 -30.390625 21.16796875 C-29.359375 21.49796875 -28.328125 21.82796875 -27.265625 22.16796875 C-26.68554688 22.35359375 -26.10546875 22.53921875 -25.5078125 22.73046875 C-22.77742187 23.29468231 -20.17028493 23.23096388 -17.390625 23.16796875 C-16.55383223 20.54402569 -15.72105558 17.91892491 -14.890625 15.29296875 C-14.53291016 14.17341797 -14.53291016 14.17341797 -14.16796875 13.03125 C-12.86292085 9.17554808 -12.86292085 9.17554808 -12.390625 5.16796875 C-16.88676657 4.95386677 -20.41162292 4.96681866 -24.390625 7.16796875 Z M-29.390625 9.16796875 C-33.57211882 13.55255463 -33.57211882 13.55255463 -35.390625 19.16796875 C-34.070625 19.49796875 -32.750625 19.82796875 -31.390625 20.16796875 C-30.400625 16.53796875 -29.410625 12.90796875 -28.390625 9.16796875 C-28.720625 9.16796875 -29.050625 9.16796875 -29.390625 9.16796875 Z M43.609375 36.16796875 C45.06717153 41.8666279 47.39427156 45.01213373 52.29296875 48.296875 C63.55469202 54.64183759 77.13288328 53.40288177 89.609375 53.16796875 C81.14115471 42.1151929 64.41768728 38.62696851 51.01171875 36.6328125 C48.53914502 36.40629284 46.09099962 36.22809622 43.609375 36.16796875 Z M126.765625 43.60546875 C119.53538661 44.71781312 112.49229044 45.36157928 105.171875 45.35546875 C104.07359375 45.35643555 104.07359375 45.35643555 102.953125 45.35742188 C98.10177775 45.30899645 93.41325123 44.84495244 88.609375 44.16796875 C92.0680091 52.34292209 98.87161113 57.29908681 106.609375 61.16796875 C114.96910326 61.94701153 124.02253235 60.96139008 131.609375 57.16796875 C131.609375 52.54796875 131.609375 47.92796875 131.609375 43.16796875 C129.45929773 43.11728302 129.45929773 43.11728302 126.765625 43.60546875 Z M20.609375 50.16796875 C21.609375 52.16796875 21.609375 52.16796875 21.609375 52.16796875 Z M25.609375 57.16796875 C25.939375 59.80796875 26.269375 62.44796875 26.609375 65.16796875 C26.939375 65.16796875 27.269375 65.16796875 27.609375 65.16796875 C27.279375 62.52796875 26.949375 59.88796875 26.609375 57.16796875 C26.279375 57.16796875 25.949375 57.16796875 25.609375 57.16796875 Z M27.609375 65.16796875 C27.609375 71.76796875 27.609375 78.36796875 27.609375 85.16796875 C27.939375 85.16796875 28.269375 85.16796875 28.609375 85.16796875 C28.609375 78.56796875 28.609375 71.96796875 28.609375 65.16796875 C28.279375 65.16796875 27.949375 65.16796875 27.609375 65.16796875 Z M64.609375 65.16796875 C64.815625 66.09609375 65.021875 67.02421875 65.234375 67.98046875 C65.609375 71.16796875 65.609375 71.16796875 63.609375 74.16796875 C69.879375 74.16796875 76.149375 74.16796875 82.609375 74.16796875 C80.10418534 69.15758943 77.72725584 68.03144801 72.609375 66.16796875 C69.90961452 65.61428906 67.3684345 65.36504443 64.609375 65.16796875 Z M126.109375 69.98046875 C117.38807502 72.40082704 108.54874885 73.81631085 99.609375 75.16796875 C100.269375 78.13796875 100.929375 81.10796875 101.609375 84.16796875 C112.26211096 83.58425719 124.39503822 81.92865606 133.609375 76.16796875 C134.53312799 74.15802538 134.53312799 74.15802538 134.484375 71.98046875 C134.525625 70.72234375 134.566875 69.46421875 134.609375 68.16796875 C131.61523459 68.16796875 128.98623909 69.15982483 126.109375 69.98046875 Z M50.609375 74.16796875 C50.939375 79.11796875 51.269375 84.06796875 51.609375 89.16796875 C55.67511005 89.84559126 58.92990828 90.29564177 62.9453125 90.30078125 C63.92757812 90.30207031 64.90984375 90.30335938 65.921875 90.3046875 C66.9325 90.30082031 67.943125 90.29695313 68.984375 90.29296875 C69.98726562 90.29683594 70.99015625 90.30070312 72.0234375 90.3046875 C77.64692325 90.29732692 83.04760203 90.00422578 88.609375 89.16796875 C88.609375 88.83796875 88.609375 88.50796875 88.609375 88.16796875 C77.059375 87.83796875 65.509375 87.50796875 53.609375 87.16796875 C52.949375 82.87796875 52.289375 78.58796875 51.609375 74.16796875 C51.279375 74.16796875 50.949375 74.16796875 50.609375 74.16796875 Z M26.609375 85.16796875 C25.949375 87.47796875 25.289375 89.78796875 24.609375 92.16796875 C26.25493199 90.93987784 26.25493199 90.93987784 27.609375 89.16796875 C27.38179769 87.00497664 27.38179769 87.00497664 26.609375 85.16796875 Z " fill="#B37A54" transform="translate(59.390625,45.83203125)"/>
<path d="M0 0 C0.99 0 1.98 0 3 0 C9.50725884 7.61825426 10.3491333 15.34002341 10.3125 25.0625 C10.32861328 25.92166016 10.34472656 26.78082031 10.36132812 27.66601562 C10.36556704 33.21475332 9.54128376 37.0582424 7 42 C4.75 42.375 4.75 42.375 2 42 C-4.03363465 35.10441754 -4.34535779 26.65795837 -4.3125 17.9375 C-4.32861328 17.07833984 -4.34472656 16.21917969 -4.36132812 15.33398438 C-4.36556694 9.7853701 -3.58393266 5.92582607 -1 1 C-0.67 0.67 -0.34 0.34 0 0 Z " fill="#B37A54" transform="translate(77,96)"/>
<path d="M0 0 C-0.99 0.33 -1.98 0.66 -3 1 C-0.69 1.66 1.62 2.32 4 3 C3.68806536 4.72926874 3.37542638 6.45841044 3.0625 8.1875 C2.80146484 9.63189453 2.80146484 9.63189453 2.53515625 11.10546875 C2.0476265 13.74239972 1.53328895 16.3719905 1 19 C0.34 18.01 -0.32 17.02 -1 16 C-1.66 16.99 -2.32 17.98 -3 19 C-2.47606294 13.13190493 -1.23891142 8.45126259 1 3 C-0.96143041 3.20094165 -2.91931791 3.43671253 -4.875 3.6875 C-5.96554688 3.81511719 -7.05609375 3.94273438 -8.1796875 4.07421875 C-11.17887753 4.70467513 -11.17887753 4.70467513 -12.28125 7.3125 C-12.5184375 8.199375 -12.755625 9.08625 -13 10 C-13.28101563 10.73863281 -13.56203125 11.47726563 -13.8515625 12.23828125 C-14.10679688 12.92277344 -14.36203125 13.60726562 -14.625 14.3125 C-15.07875 15.529375 -15.5325 16.74625 -16 18 C-16.66 17.67 -17.32 17.34 -18 17 C-17.34 14.03 -16.68 11.06 -16 8 C-17.93560905 10.40282503 -19.8505552 12.78732855 -21.625 15.3125 C-22.07875 15.869375 -22.5325 16.42625 -23 17 C-23.66 17 -24.32 17 -25 17 C-24.57902546 12.2289552 -22.4890705 9.13438958 -19 6 C-6.38565865 -2.45602256 -6.38565865 -2.45602256 0 0 Z " fill="#B37A54" transform="translate(46,48)"/>
<path d="M0 0 C0.99 0 1.98 0 3 0 C5.04898287 4.21896866 5.21207997 7.65372146 5.125 12.3125 C5.10695313 13.56675781 5.08890625 14.82101563 5.0703125 16.11328125 C5.04710937 17.06589844 5.02390625 18.01851562 5 19 C3.68 19.33 2.36 19.66 1 20 C-0.91233914 15.97123809 -1.24319212 12.7526811 -1.1875 8.3125 C-1.18105469 7.17425781 -1.17460937 6.03601563 -1.16796875 4.86328125 C-1 2 -1 2 0 0 Z " fill="#B37A54" transform="translate(17,96)"/>
<path d="M0 0 C0.9478014 2.84340419 1.08598489 4.39222614 0.9921875 7.31640625 C0.42630692 22.3469062 0.42630692 22.3469062 6 36 C8.05003955 37.19232613 8.05003955 37.19232613 10 38 C8.02 38.495 8.02 38.495 6 39 C2.30250259 34.92000285 0.7410336 31.13604912 -1 26 C-1.66 26.99 -2.32 27.98 -3 29 C-3.33 26.36 -3.66 23.72 -4 21 C-3.34 21 -2.68 21 -2 21 C-2.02320312 19.90300781 -2.04640625 18.80601563 -2.0703125 17.67578125 C-2.08907921 16.221361 -2.10727844 14.76693336 -2.125 13.3125 C-2.14175781 12.59126953 -2.15851563 11.87003906 -2.17578125 11.12695312 C-2.21391569 6.95123219 -1.8789919 3.7505862 0 0 Z " fill="#B37A54" transform="translate(73,101)"/>
<path d="M0 0 C-0.99 0.33 -1.98 0.66 -3 1 C-0.69 1.66 1.62 2.32 4 3 C3.68806536 4.72926874 3.37542638 6.45841044 3.0625 8.1875 C2.88847656 9.15042969 2.71445312 10.11335938 2.53515625 11.10546875 C2.0476265 13.74239972 1.53328895 16.3719905 1 19 C0.34 18.01 -0.32 17.02 -1 16 C-1.66 16.99 -2.32 17.98 -3 19 C-2.47606294 13.13190493 -1.23891142 8.45126259 1 3 C-0.98 3 -2.96 3 -5 3 C-5 2.34 -5 1.68 -5 1 C-5.99 0.67 -6.98 0.34 -8 0 C-4.94736336 -0.98120464 -3.05263664 -0.98120464 0 0 Z " fill="#B37A54" transform="translate(46,48)"/>
<path d="M0 0 C5.54050113 0.56825653 10.03715966 2.62886517 15 5 C14.01 5.495 14.01 5.495 13 6 C13 6.66 13 7.32 13 8 C9 6.66666667 5 5.33333333 1 4 C0.3125 1.9375 0.3125 1.9375 0 0 Z " fill="#B37A54" transform="translate(103,47)"/>
<path d="M0 0 C1.79288798 3.58577596 1.00943183 7.79551793 0.9375 11.73828125 C0.99327113 14.64883733 1.32249904 17.17884366 2 20 C0.68 19.67 -0.64 19.34 -2 19 C-2.16777183 17.20843648 -2.33418294 15.4167455 -2.5 13.625 C-2.5928125 12.62726563 -2.685625 11.62953125 -2.78125 10.6015625 C-3 8 -3 8 -3 6 C-2.34 6 -1.68 6 -1 6 C-1.0309375 4.7934375 -1.0309375 4.7934375 -1.0625 3.5625 C-1 1 -1 1 0 0 Z " fill="#B37A54" transform="translate(16,96)"/>
<path d="M0 0 C0.66 0.33 1.32 0.66 2 1 C1.44894091 4.9492568 0.61064629 8.34920174 -1 12 C-1.66 11.67 -2.32 11.34 -3 11 C-2.01 7.37 -1.02 3.74 0 0 Z " fill="#B37A54" transform="translate(31,54)"/>
<path d="M0 0 C0.66 0.33 1.32 0.66 2 1 C1.67 6.28 1.34 11.56 1 17 C0.67 17 0.34 17 0 17 C-0.19436491 14.54203147 -0.3807742 12.08390706 -0.5625 9.625 C-0.61857422 8.92632812 -0.67464844 8.22765625 -0.73242188 7.5078125 C-1.11328125 2.2265625 -1.11328125 2.2265625 0 0 Z " fill="#B37A54" transform="translate(191,86)"/>
<path d="M0 0 C1.64826111 2.96687001 2.44271087 5.65626525 3 9 C1.68 8.67 0.36 8.34 -1 8 C-1.04241723 5.66705225 -1.04092937 3.33297433 -1 1 C-0.67 0.67 -0.34 0.34 0 0 Z " fill="#B37A54" transform="translate(15,107)"/>
</svg>
