<?xml version="1.0" encoding="UTF-8"?>
<svg version="1.1" xmlns="http://www.w3.org/2000/svg" width="256" height="256">
<path d="M0 0 C3.02732754 1.94818554 5.72919954 4.14690676 8.4140625 6.53125 C13.00724579 10.51798544 17.66807578 14.36947069 22.4765625 18.09375 C27.0680145 21.66022805 31.56082356 25.31190387 35.9765625 29.09375 C41.08862095 33.47192626 46.31583787 37.67603702 51.6328125 41.80273438 C52.17808594 42.22619141 52.72335938 42.64964844 53.28515625 43.0859375 C53.75751709 43.45058105 54.22987793 43.81522461 54.71655273 44.19091797 C55.29735596 44.65385254 55.87815918 45.11678711 56.4765625 45.59375 C57.48881393 46.27125809 58.50106537 46.94876617 59.54399109 47.64680481 C62.36974248 50.02558787 62.47069245 50.56198758 63.1980896 54.49787903 C63.21539032 56.04778292 63.19972892 57.59827415 63.15771484 59.14770508 C63.15902908 60.42164124 63.15902908 60.42164124 63.16036987 61.72131348 C63.15620026 64.51958222 63.10958005 67.31543305 63.0625 70.11328125 C63.05130558 72.05668325 63.04276656 74.00010222 63.03677368 75.94352722 C63.01389471 81.05181858 62.95497925 86.15908186 62.8885498 91.26696777 C62.81629959 97.39917505 62.78881683 103.53172664 62.75382996 109.66423798 C62.69569956 118.97478974 62.58072156 128.283087 62.4765625 137.59375 C38.7165625 137.59375 14.9565625 137.59375 -9.5234375 137.59375 C-9.8359375 116.15625 -9.8359375 116.15625 -9.91137695 109.44360352 C-9.94370229 107.66160039 -9.97708095 105.87961593 -10.01171875 104.09765625 C-10.01796265 103.19366089 -10.02420654 102.28966553 -10.03063965 101.35827637 C-10.18874677 94.28370113 -10.83054582 87.22096139 -16.0859375 82.09375 C-20.91059963 79.12472715 -24.91160974 78.97308702 -30.5234375 79.59375 C-34.99155216 81.7871881 -37.43207106 84.08080137 -39.5234375 88.59375 C-40.87664211 93.54358297 -40.74894297 98.61256156 -40.83984375 103.70703125 C-40.86062485 104.67658249 -40.88140594 105.64613373 -40.90281677 106.64506531 C-40.96802691 109.73205707 -41.0270643 112.81913152 -41.0859375 115.90625 C-41.12914987 118.00326364 -41.17276502 120.10026903 -41.21679688 122.19726562 C-41.32443444 127.3293437 -41.42372012 132.4614875 -41.5234375 137.59375 C-49.4434375 137.59375 -57.3634375 137.59375 -65.5234375 137.59375 C-65.90916841 126.49237937 -66.22027636 115.39552903 -66.40424442 104.28894615 C-66.49259212 99.13018251 -66.61213976 93.97627829 -66.8059082 88.8203125 C-66.99211648 83.8336884 -67.09255158 78.85170046 -67.13635063 73.861866 C-67.16750977 71.96917322 -67.22837158 70.07670508 -67.32084846 68.18601608 C-67.99389206 53.84089312 -67.99389206 53.84089312 -63.90363693 48.46469879 C-59.92157176 44.43499443 -55.45502632 41.22048917 -50.74026299 38.10654068 C-47.12881674 35.64204257 -43.81488573 32.83015584 -40.4609375 30.03125 C-39.14087993 28.95771801 -37.81944744 27.88587244 -36.49609375 26.81640625 C-33.13226366 24.08967148 -29.77590946 21.35389509 -26.42138672 18.61572266 C-24.43008484 16.9945155 -22.4323689 15.38151052 -20.43359375 13.76953125 C-17.78723327 11.6330261 -15.1765782 9.46078308 -12.58203125 7.26171875 C-11.33356994 6.22627715 -10.084882 5.19110873 -8.8359375 4.15625 C-7.98974854 3.41930908 -7.98974854 3.41930908 -7.12646484 2.66748047 C-3.22726357 -0.51955946 -3.22726357 -0.51955946 0 0 Z M-11.5234375 27.59375 C-13.13773673 30.82234847 -13.11914407 34.10368653 -12.5234375 37.59375 C-10.78741645 40.61883145 -8.68763613 43.01165069 -5.5234375 44.59375 C-0.39973352 45.20103845 -0.39973352 45.20103845 4.30078125 43.546875 C8.10408994 40.41582185 9.36319617 38.72741332 9.8515625 33.84375 C9.82715025 30.49316932 9.23257604 28.74480468 7.1015625 26.15625 C3.5717039 22.71043565 1.5481973 22.19819164 -3.41796875 22.234375 C-7.13937203 22.86956814 -8.92656599 24.93354016 -11.5234375 27.59375 Z M16.4765625 84.59375 C14.07893469 90.69102866 14.24276407 96.54907799 14.3515625 103.03125 C14.3928125 106.516875 14.4340625 110.0025 14.4765625 113.59375 C23.7165625 113.59375 32.9565625 113.59375 42.4765625 113.59375 C42.5384375 108.3653125 42.5384375 108.3653125 42.6015625 103.03125 C42.62887451 101.40401001 42.62887451 101.40401001 42.65673828 99.74389648 C42.71399688 90.71409222 42.71399688 90.71409222 39.1015625 82.59765625 C35.70244573 79.58257431 33.0681284 78.14472155 28.4765625 77.84375 C23.19196718 78.19014878 19.49525956 80.21149375 16.4765625 84.59375 Z " fill="#B37A54" transform="translate(93.5234375,78.40625)"/>
<path d="M0 0 C4.43899351 1.44165477 7.50325138 3.88765068 10.9375 6.9375 C15.53068617 10.92423794 20.19154309 14.77567794 25 18.5 C30.2381264 22.56949262 35.33595307 26.77249602 40.38012695 31.0793457 C43.60997765 33.83385428 46.87077779 36.53826167 50.1875 39.1875 C50.92534037 39.78860847 51.66318073 40.38971695 52.4233799 41.00904083 C54.94534507 43.02767819 54.94534507 43.02767819 57.61755943 44.62566376 C61.61346003 47.27150248 64.49698118 49.31685326 65.90361404 54.02357483 C66.2316083 57.75990423 66.23755464 61.37741633 66.13525391 65.12695312 C66.13242925 66.54683227 66.13402417 67.96672599 66.13967896 69.38659668 C66.14253647 73.22200765 66.08395376 77.05426096 66.01393938 80.88894081 C65.95122007 84.90329385 65.94553623 88.91772772 65.9336853 92.93249512 C65.90266302 100.52610683 65.8206864 108.11827058 65.72019041 115.71124601 C65.60822811 124.35918752 65.55338749 133.00719997 65.50323606 141.65568638 C65.39884387 159.43811079 65.21553673 177.21855147 65 195 C47.84 195 30.68 195 13 195 C13 187.08 13 179.16 13 171 C9.04 171 5.08 171 1 171 C0.74421349 158.70816909 0.54921984 146.41697943 0.43006611 134.12302113 C0.37285282 128.41316501 0.2953604 122.70514015 0.17016602 116.99633789 C0.0499245 111.47833687 -0.01527375 105.96208758 -0.04364967 100.44287682 C-0.06384836 98.34607065 -0.10329363 96.24935171 -0.16303062 94.15329933 C-0.68166235 75.18712853 -0.68166235 75.18712853 6.56713867 67.1081543 C8.31920046 65.30405142 10.09991828 63.65327589 12 62 C10.12441535 57.79533776 7.30594401 55.6396794 3.6875 52.9375 C2.41374334 51.96305307 1.14164625 50.98643355 -0.12890625 50.0078125 C-0.7748877 49.51055664 -1.42086914 49.01330078 -2.08642578 48.50097656 C-5.04155005 46.18302505 -7.89802707 43.75545744 -10.75 41.3125 C-20.07799683 33.27027582 -20.07799683 33.27027582 -30 26 C-28.67661231 22.02983692 -26.09810704 20.49086239 -22.875 18.0625 C-21.60876791 17.08933107 -20.34316597 16.11534178 -19.078125 15.140625 C-18.41490234 14.63208984 -17.75167969 14.12355469 -17.06835938 13.59960938 C-13.55260461 10.88062622 -10.0901214 8.09552731 -6.625 5.3125 C-5.34636316 4.28774919 -4.06771814 3.2630086 -2.7890625 2.23828125 C-1.86867187 1.49964844 -0.94828125 0.76101562 0 0 Z M19 117 C16.60237219 123.09727866 16.76620157 128.95532799 16.875 135.4375 C16.91625 138.923125 16.9575 142.40875 17 146 C26.24 146 35.48 146 45 146 C45.061875 140.7715625 45.061875 140.7715625 45.125 135.4375 C45.15231201 133.81026001 45.15231201 133.81026001 45.18017578 132.15014648 C45.23743438 123.12034222 45.23743438 123.12034222 41.625 115.00390625 C38.22588323 111.98882431 35.5915659 110.55097155 31 110.25 C25.71540468 110.59639878 22.01869706 112.61774375 19 117 Z " fill="#B37A54" transform="translate(163,46)"/>
<path d="M0 0 C3.52067047 1.98615083 6.36140176 4.45130277 9.3671875 7.13671875 C10.62262939 8.23559697 11.87914305 9.3332519 13.13671875 10.4296875 C13.74596191 10.96255371 14.35520508 11.49541992 14.98291016 12.04443359 C17.89942926 14.56648824 20.92165902 16.94858839 23.9453125 19.33984375 C27.4201396 22.09984928 30.8625592 24.89860606 34.3046875 27.69921875 C34.98700439 28.25399902 35.66932129 28.8087793 36.37231445 29.38037109 C39.15629662 31.64432579 41.93960401 33.90910714 44.72216797 36.17480469 C54.33597148 44.00275514 63.98650705 51.78224296 73.6796875 59.51171875 C71.42345419 62.97454639 69.16098171 66.28297533 66.4296875 69.38671875 C65.64851563 70.28003906 65.64851563 70.28003906 64.8515625 71.19140625 C64.46484375 71.62710938 64.078125 72.0628125 63.6796875 72.51171875 C59.35006272 72.0201913 56.68088071 69.21835593 53.5546875 66.44921875 C52.38240548 65.43386151 51.20922167 64.41954454 50.03515625 63.40625 C49.46071777 62.90818848 48.8862793 62.41012695 48.29443359 61.89697266 C46.19127063 60.09271704 44.03842934 58.35822968 41.8671875 56.63671875 C37.57143705 53.22926565 33.30815438 49.78417402 29.0546875 46.32421875 C28.37970215 45.77531982 27.7047168 45.2264209 27.00927734 44.66088867 C25.61432552 43.52632129 24.21947025 42.39163518 22.82470703 41.25683594 C19.21474186 38.31988726 15.60355187 35.38444662 11.9921875 32.44921875 C11.33331543 31.91337158 10.67444336 31.37752441 9.99560547 30.82543945 C6.56840483 28.03967691 3.13300239 25.2651266 -0.3203125 22.51171875 C-3.05079712 23.78954091 -5.32436496 25.17765547 -7.6484375 27.09375 C-8.27492188 27.60679688 -8.90140625 28.11984375 -9.546875 28.6484375 C-10.21460937 29.20144531 -10.88234375 29.75445312 -11.5703125 30.32421875 C-13.01293898 31.50791227 -14.45564964 32.6915032 -15.8984375 33.875 C-16.63384766 34.48037598 -17.36925781 35.08575195 -18.12695312 35.70947266 C-21.51282361 38.49158484 -24.9168804 41.25114312 -28.3203125 44.01171875 C-29.64723013 45.08972718 -30.97405265 46.16785269 -32.30078125 47.24609375 C-35.03213372 49.46535936 -37.76396146 51.68403825 -40.49609375 53.90234375 C-41.1828418 54.46034668 -41.86958984 55.01834961 -42.57714844 55.59326172 C-43.93194912 56.69287073 -45.28804012 57.79089215 -46.64550781 58.88720703 C-49.67682306 61.33929488 -52.68395535 63.80782674 -55.62890625 66.36328125 C-56.59957031 67.19601563 -57.57023437 68.02875 -58.5703125 68.88671875 C-59.40046875 69.61632812 -60.230625 70.3459375 -61.0859375 71.09765625 C-63.3203125 72.51171875 -63.3203125 72.51171875 -65.3203125 72.5859375 C-68.33537772 70.96651771 -69.97526298 68.62964975 -72.0703125 65.94921875 C-72.86953125 64.93730469 -73.66875 63.92539063 -74.4921875 62.8828125 C-75.09546875 62.10035156 -75.69875 61.31789062 -76.3203125 60.51171875 C-72.8295728 56.93771369 -69.2093473 53.60117262 -65.3828125 50.38671875 C-64.53638184 49.67286011 -64.53638184 49.67286011 -63.67285156 48.94458008 C-59.13611011 45.14290084 -54.50053168 41.47960253 -49.82983398 37.84472656 C-45.13882807 34.18339098 -40.53165971 30.428113 -35.9453125 26.63671875 C-35.23600586 26.05035645 -34.52669922 25.46399414 -33.79589844 24.85986328 C-33.0846582 24.27188965 -32.37341797 23.68391602 -31.640625 23.078125 C-26.07658864 18.4791759 -20.48618249 13.91350475 -14.86328125 9.38671875 C-12.70570204 7.64830349 -10.59479626 5.88554705 -8.49609375 4.07421875 C-7.71621094 3.41421875 -6.93632813 2.75421875 -6.1328125 2.07421875 C-5.49988281 1.51863281 -4.86695312 0.96304688 -4.21484375 0.390625 C-2.3203125 -0.48828125 -2.3203125 -0.48828125 0 0 Z " fill="#B37A54" transform="translate(93.3203125,47.48828125)"/>
<path d="M0 0 C3.52067047 1.98615083 6.36140176 4.45130277 9.3671875 7.13671875 C10.62262939 8.23559697 11.87914305 9.3332519 13.13671875 10.4296875 C13.74596191 10.96255371 14.35520508 11.49541992 14.98291016 12.04443359 C17.89942926 14.56648824 20.92165902 16.94858839 23.9453125 19.33984375 C27.4201396 22.09984928 30.8625592 24.89860606 34.3046875 27.69921875 C34.98700439 28.25399902 35.66932129 28.8087793 36.37231445 29.38037109 C39.15629662 31.64432579 41.93960401 33.90910714 44.72216797 36.17480469 C54.33597148 44.00275514 63.98650705 51.78224296 73.6796875 59.51171875 C71.42345419 62.97454639 69.16098171 66.28297533 66.4296875 69.38671875 C65.64851563 70.28003906 65.64851563 70.28003906 64.8515625 71.19140625 C64.46484375 71.62710938 64.078125 72.0628125 63.6796875 72.51171875 C59.35006272 72.0201913 56.68088071 69.21835593 53.5546875 66.44921875 C52.38240548 65.43386151 51.20922167 64.41954454 50.03515625 63.40625 C49.46071777 62.90818848 48.8862793 62.41012695 48.29443359 61.89697266 C46.19127063 60.09271704 44.03842934 58.35822968 41.8671875 56.63671875 C37.57143705 53.22926565 33.30815438 49.78417402 29.0546875 46.32421875 C28.37970215 45.77531982 27.7047168 45.2264209 27.00927734 44.66088867 C25.61432552 43.52632129 24.21947025 42.39163518 22.82470703 41.25683594 C19.21474186 38.31988726 15.60355187 35.38444662 11.9921875 32.44921875 C11.33331543 31.91337158 10.67444336 31.37752441 9.99560547 30.82543945 C6.56840483 28.03967691 3.13300239 25.2651266 -0.3203125 22.51171875 C-3.05079712 23.78954091 -5.32436496 25.17765547 -7.6484375 27.09375 C-8.27588867 27.6079248 -8.90333984 28.12209961 -9.54980469 28.65185547 C-10.21657227 29.20373535 -10.88333984 29.75561523 -11.5703125 30.32421875 C-12.26543945 30.89156738 -12.96056641 31.45891602 -13.67675781 32.04345703 C-17.41043021 35.09393611 -21.11300214 38.17723063 -24.7890625 41.296875 C-25.50674805 41.89846436 -26.22443359 42.50005371 -26.96386719 43.11987305 C-28.3485048 44.28128037 -29.7244993 45.45308516 -31.09082031 46.63598633 C-31.71827148 47.1595874 -32.34572266 47.68318848 -32.9921875 48.22265625 C-33.5397168 48.68978027 -34.08724609 49.1569043 -34.65136719 49.63818359 C-36.3203125 50.51171875 -36.3203125 50.51171875 -38.35351562 50.28393555 C-41.40344886 49.08645059 -43.58020808 47.05394987 -46.0703125 44.94921875 C-47.05515625 44.12292969 -48.04 43.29664063 -49.0546875 42.4453125 C-50.17617187 41.48818359 -50.17617187 41.48818359 -51.3203125 40.51171875 C-44.68377351 33.80568721 -37.65586149 27.69673873 -30.2578125 21.84765625 C-27.27629142 19.47671262 -24.32015349 17.07705934 -21.36865234 14.66894531 C-19.28677879 12.97281793 -17.19838019 11.28498711 -15.109375 9.59765625 C-12.86278434 7.77972797 -10.65745397 5.93966276 -8.46875 4.05078125 C-7.69789063 3.39851563 -6.92703125 2.74625 -6.1328125 2.07421875 C-5.49988281 1.51863281 -4.86695313 0.96304687 -4.21484375 0.390625 C-2.3203125 -0.48828125 -2.3203125 -0.48828125 0 0 Z " fill="#B37A54" transform="translate(165.3203125,15.48828125)"/>
<path d="M0 0 C50.16 0 100.32 0 152 0 C152 5.28 152 10.56 152 16 C101.84 16 51.68 16 0 16 C0 10.72 0 5.44 0 0 Z " fill="#B37A54" transform="translate(16,224)"/>
</svg>
