<?xml version="1.0" standalone="no"?>
<!DOCTYPE svg PUBLIC "-//W3C//DTD SVG 20010904//EN"
 "http://www.w3.org/TR/2001/REC-SVG-20010904/DTD/svg10.dtd">
<svg version="1.0" xmlns="http://www.w3.org/2000/svg"
 width="512.000000pt" height="512.000000pt" viewBox="0 0 512.000000 512.000000"
 preserveAspectRatio="xMidYMid meet">

<g transform="translate(0.000000,512.000000) scale(0.100000,-0.100000)"
fill="#B37A54" stroke="none">
<path d="M1933 4568 c-343 -233 -752 -511 -910 -618 -158 -107 -401 -272 -539
-366 l-253 -170 87 -132 c48 -72 92 -130 97 -128 6 2 488 328 1073 725 584
396 1067 721 1072 721 6 0 108 -66 228 -147 304 -207 705 -479 1052 -715 621
-422 871 -590 874 -587 2 2 42 62 89 133 77 116 84 131 69 141 -920 626 -2296
1557 -2305 1561 -7 2 -292 -186 -634 -418z"/>
<path d="M2243 4232 c-270 -185 -714 -486 -1380 -937 l-222 -150 -1 -426 0
-426 41 -7 c56 -9 131 -49 163 -87 46 -55 75 -122 192 -442 68 -187 117 -353
145 -487 50 -244 -10 -469 -167 -627 -75 -76 -176 -134 -257 -149 l-37 -6 0
80 0 80 37 12 c161 50 282 243 283 448 0 126 -76 392 -217 762 -88 230 -106
255 -183 255 -77 0 -95 -25 -183 -255 -141 -370 -217 -636 -217 -762 1 -116
44 -245 113 -330 36 -45 117 -102 169 -118 l38 -12 0 -204 0 -204 -200 0 -200
0 0 -80 0 -80 2400 0 2400 0 0 80 0 80 -240 0 -240 0 0 1453 -1 1452 -950 645
c-523 355 -958 646 -967 647 -10 1 -153 -91 -319 -205z m237 -992 l0 -200
-200 0 -200 0 0 98 c0 129 17 178 80 235 62 56 92 65 218 66 l102 1 0 -200z
m403 184 c57 -19 128 -93 145 -152 7 -21 12 -83 12 -136 l0 -96 -200 0 -200 0
0 200 0 200 98 0 c64 0 115 -6 145 -16z m-403 -744 l0 -200 -96 0 c-128 0
-168 13 -229 75 -62 61 -75 101 -75 229 l0 96 200 0 200 0 0 -200z m560 104
c0 -128 -13 -168 -75 -229 -61 -62 -101 -75 -229 -75 l-96 0 0 200 0 200 200
0 200 0 0 -96z m-800 -1784 l0 -760 -440 0 -440 0 0 760 0 760 440 0 440 0 0
-760z m723 395 l77 -115 0 -120 0 -120 160 0 160 0 0 120 0 120 77 115 c42 63
79 115 83 115 4 0 41 -52 83 -115 l77 -115 0 -120 0 -120 160 0 160 0 0 120 0
120 77 115 c42 63 79 115 83 115 4 0 41 -52 83 -115 l77 -115 0 -520 0 -520
-160 0 -160 0 0 240 0 240 -160 0 -160 0 0 -240 0 -240 -160 0 -160 0 0 240 0
240 -160 0 -160 0 0 -240 0 -240 -160 0 -160 0 0 520 0 520 77 115 c42 63 79
115 83 115 4 0 41 -52 83 -115z"/>
<path d="M1840 960 l0 -80 80 0 80 0 0 80 0 80 -80 0 -80 0 0 -80z"/>
</g>
</svg>
