<?xml version="1.0" standalone="no"?>
<!DOCTYPE svg PUBLIC "-//W3C//DTD SVG 20010904//EN"
 "http://www.w3.org/TR/2001/REC-SVG-20010904/DTD/svg10.dtd">
<svg version="1.0" xmlns="http://www.w3.org/2000/svg"
 width="1280.000000pt" height="909.000000pt" viewBox="0 0 1280.000000 909.000000"
 preserveAspectRatio="xMidYMid meet">
<metadata>
Created by potrace 1.15, written by Peter Selinger 2001-2017
</metadata>
<g transform="translate(0.000000,909.000000) scale(0.100000,-0.100000)"
fill="#B37A54" stroke="none">
<path d="M7528 9072 c-15 -9 -65 -60 -111 -112 -46 -52 -109 -114 -139 -138
-50 -38 -58 -41 -81 -31 -40 18 -70 4 -134 -64 -125 -134 -347 -467 -325 -489
14 -14 29 -3 37 29 22 88 248 403 334 464 42 31 44 31 76 16 78 -37 201 -250
270 -467 44 -141 87 -243 100 -241 19 3 4 106 -31 211 -42 126 -125 300 -188
394 -25 38 -46 71 -46 74 0 2 26 41 58 85 63 89 201 217 233 217 67 0 159
-100 258 -282 23 -42 53 -83 66 -92 24 -16 25 -15 31 11 9 35 -24 100 -117
223 -147 197 -215 242 -291 192z"/>
<path d="M6295 8990 c-35 -13 -90 -83 -112 -140 -12 -30 -48 -125 -79 -210
-31 -85 -58 -157 -61 -159 -2 -3 -34 25 -71 61 -84 83 -252 188 -300 188 -29
0 -33 -3 -30 -22 2 -17 22 -32 76 -60 99 -50 170 -106 237 -190 l56 -70 -22
-57 c-12 -31 -47 -110 -77 -176 -30 -66 -54 -131 -54 -145 0 -20 -10 -32 -50
-55 -106 -63 -161 -168 -189 -356 l-11 -76 -55 58 c-57 59 -138 109 -180 109
-12 0 -37 -13 -55 -29 l-33 -29 1 -104 c1 -56 5 -223 9 -370 4 -146 5 -274 1
-284 -5 -13 -22 14 -62 101 -78 169 -126 285 -122 297 2 6 12 -10 22 -35 10
-26 22 -47 27 -47 14 0 12 6 -40 129 -41 97 -54 144 -80 291 -46 261 -56 370
-43 503 13 140 23 167 57 167 38 0 151 -61 242 -129 95 -71 171 -151 265 -278
37 -51 73 -95 78 -98 46 -29 -83 154 -189 268 -33 35 -105 99 -160 141 l-99
77 27 72 c15 40 51 110 80 156 48 77 57 102 33 87 -6 -3 -38 -50 -71 -104 -34
-53 -77 -114 -96 -134 l-35 -37 -41 18 c-47 22 -69 18 -100 -15 -17 -18 -23
-39 -27 -96 -7 -109 15 -362 47 -543 23 -131 26 -155 12 -135 -104 160 -333
418 -489 552 -59 51 -105 97 -103 103 2 5 8 35 12 65 39 255 51 280 144 280
50 0 135 -58 232 -158 51 -53 96 -93 100 -89 25 25 -164 209 -270 262 -72 36
-139 46 -178 25 -35 -19 -56 -81 -74 -222 l-17 -137 -39 19 c-21 11 -56 20
-78 20 -62 0 -96 -36 -125 -137 -23 -76 -24 -90 -15 -180 15 -151 57 -411 78
-483 10 -36 56 -173 100 -305 72 -210 100 -276 226 -530 80 -160 145 -294 145
-298 0 -9 -194 61 -310 113 -103 46 -144 50 -175 20 -16 -17 -18 -24 -8 -47
39 -93 164 -375 183 -413 41 -80 226 -352 317 -465 175 -219 352 -385 523
-492 110 -68 311 -161 508 -234 137 -50 168 -65 150 -71 -30 -9 -360 -35 -603
-48 -353 -18 -628 -10 -935 30 -679 89 -1186 282 -1682 640 -176 127 -247 194
-254 241 l-6 36 73 12 c132 22 250 24 449 7 330 -27 477 -55 850 -163 124 -35
281 -78 350 -94 69 -16 146 -36 173 -45 74 -25 79 -9 6 24 -135 61 -250 103
-479 172 -349 106 -441 126 -705 159 -321 40 -464 51 -660 51 -157 0 -165 -1
-186 -22 -45 -48 -50 -101 -19 -201 36 -116 116 -185 377 -327 272 -147 530
-256 863 -365 400 -130 750 -202 1150 -234 256 -21 982 -35 1185 -22 105 6
204 14 220 17 17 2 1 -7 -35 -21 -108 -43 -319 -151 -429 -219 -118 -74 -166
-117 -221 -196 -110 -162 -152 -311 -260 -920 -58 -328 -112 -546 -171 -686
-22 -55 -48 -116 -56 -137 -9 -20 -19 -37 -24 -37 -4 0 -38 14 -76 31 -260
119 -671 269 -1063 388 -551 167 -1109 266 -1745 310 -710 50 -1118 -5 -1531
-204 -115 -56 -138 -71 -188 -126 -76 -84 -99 -148 -94 -254 7 -140 80 -265
271 -461 59 -62 104 -115 100 -117 -5 -3 -44 -20 -88 -37 -134 -53 -293 -140
-330 -181 -59 -66 -79 -115 -80 -194 0 -55 6 -81 25 -120 38 -75 151 -188 265
-264 345 -231 721 -379 1345 -530 682 -165 1220 -232 1995 -250 602 -13 1031
10 1700 89 222 27 225 28 225 51 0 24 1 24 -190 -1 -191 -25 -587 -65 -815
-82 -220 -17 -1063 -17 -1320 0 -622 41 -984 94 -1530 223 -539 128 -874 244
-1174 407 -110 60 -133 77 -220 167 -113 118 -160 198 -168 285 -3 32 -3 74 1
93 10 52 59 118 128 173 62 48 238 144 266 144 8 0 62 -35 121 -78 338 -249
775 -460 1386 -668 499 -171 942 -244 1476 -244 194 0 237 3 305 20 232 60
323 218 246 432 -23 66 -34 82 -82 123 -134 113 -343 232 -543 306 -630 236
-1311 331 -2077 289 -288 -16 -512 -49 -707 -106 -109 -31 -111 -30 -212 92
-137 166 -192 279 -199 412 -9 163 43 269 178 359 164 110 361 170 670 205
170 19 741 16 970 -5 602 -55 1064 -140 1564 -288 407 -121 833 -275 1104
-400 l82 -38 -35 -66 c-50 -95 -46 -139 17 -171 45 -23 84 -13 192 50 l94 56
105 -59 c141 -78 404 -249 535 -345 221 -163 364 -300 485 -461 88 -117 200
-358 227 -488 12 -60 52 -107 91 -107 13 0 24 -10 31 -30 20 -58 38 -56 127
11 45 34 83 60 85 58 2 -2 8 -38 12 -79 8 -70 20 -89 36 -58 3 7 12 52 18 100
12 84 13 88 47 108 95 56 555 292 697 358 322 149 843 355 1228 487 841 288
1952 483 2638 462 268 -8 444 -45 625 -131 90 -43 155 -101 155 -139 0 -26
-171 -161 -308 -242 -167 -99 -232 -155 -232 -198 1 -73 50 -160 114 -201 47
-31 102 -47 266 -81 220 -44 352 -132 429 -285 36 -73 38 -82 29 -122 -21 -94
-113 -192 -294 -313 -175 -116 -382 -206 -659 -286 -240 -69 -380 -88 -710
-100 -327 -12 -550 -7 -935 22 -320 23 -428 33 -1345 119 -770 72 -1375 109
-1815 110 -186 1 -407 18 -618 50 l-142 21 -29 -20 c-46 -33 -91 -90 -91 -114
0 -35 57 -83 130 -110 96 -36 281 -65 495 -76 182 -10 286 -15 990 -43 440
-18 3321 -18 3565 0 378 27 530 52 846 137 180 49 381 119 484 169 169 82 308
203 363 315 28 58 32 75 32 151 0 77 -3 90 -33 146 -72 132 -207 260 -364 346
-77 41 -253 151 -272 169 -11 10 11 30 116 105 172 123 258 269 234 397 -13
70 -107 148 -211 176 -94 25 -491 58 -808 67 -561 16 -1242 -74 -2012 -267
-740 -185 -1810 -608 -2399 -949 -88 -50 -165 -94 -173 -97 -11 -4 -12 10 -8
78 3 46 10 305 15 574 11 517 18 671 51 1140 21 312 34 438 75 750 l26 200
-20 197 c-12 113 -27 210 -36 225 -13 25 -12 32 10 75 13 26 24 54 24 62 0 21
-59 30 -106 17 -46 -13 -97 -14 -90 -3 8 13 113 34 135 27 27 -8 44 19 39 63
l-5 37 151 -14 151 -14 61 -53 c34 -30 165 -179 292 -332 127 -153 259 -305
294 -336 121 -110 235 -174 388 -218 66 -18 386 -15 540 6 355 48 632 122
1173 312 131 46 322 109 425 140 113 34 206 68 234 86 42 26 48 35 59 83 6 29
9 59 7 67 -8 18 -103 51 -134 45 -24 -4 -24 -3 -9 19 37 56 10 149 -64 222
-45 44 -89 71 -241 146 -358 178 -864 381 -1123 450 -51 14 -127 28 -170 32
-43 4 -75 10 -70 14 9 8 154 62 468 173 261 93 394 146 704 282 450 196 664
317 853 479 65 56 84 80 118 149 35 68 41 89 36 122 -7 58 -48 91 -122 100
-101 11 -1408 -165 -1437 -194 -23 -23 34 -19 295 23 358 58 485 74 678 87
252 18 440 -1 448 -45 8 -41 -131 -187 -292 -306 -136 -101 -389 -270 -496
-333 -170 -99 -558 -257 -920 -375 -264 -86 -447 -122 -640 -127 -155 -5 -294
-17 -307 -27 -15 -12 -17 -66 -3 -88 7 -11 30 -15 94 -16 69 0 89 -4 106 -19
19 -17 26 -18 66 -7 90 24 273 7 469 -43 220 -57 287 -82 650 -242 122 -54
313 -161 380 -212 109 -83 214 -172 235 -199 l20 -27 -2 39 c-2 24 2 41 9 43
13 5 23 -15 45 -86 12 -41 17 -45 63 -59 l49 -14 -39 -24 c-66 -40 -432 -219
-550 -269 -391 -166 -814 -255 -1215 -255 -408 0 -589 84 -915 425 -102 107
-206 205 -260 246 -49 37 -101 78 -114 92 l-24 26 29 6 c85 17 153 44 289 112
209 105 362 208 419 281 114 149 94 347 -35 347 -21 0 -39 1 -39 2 0 2 56 66
124 142 135 151 220 261 348 452 114 170 178 299 232 463 49 148 51 156 37
156 -4 0 -19 -28 -31 -62 -33 -93 -81 -183 -198 -378 -165 -275 -246 -384
-416 -558 -115 -118 -188 -179 -268 -225 -30 -18 -48 -35 -50 -50 -2 -18 -19
-28 -95 -54 -51 -18 -93 -29 -93 -24 0 4 12 18 26 32 88 82 233 363 339 654
50 138 171 535 200 655 17 69 34 98 230 390 117 173 254 380 304 460 100 157
160 228 173 207 12 -18 10 -202 -3 -253 -10 -37 -9 -48 6 -70 l17 -26 20 20
c24 23 36 120 37 280 1 86 -1 95 -24 117 -29 30 -32 30 -70 7 -20 -13 -53 -59
-99 -143 -62 -110 -545 -844 -551 -837 -2 2 2 30 8 63 5 33 10 148 10 255 0
171 -3 209 -25 312 -32 144 -69 222 -123 260 -68 47 -106 36 -197 -59 -84 -89
-138 -179 -278 -467 -149 -305 -246 -542 -324 -786 -150 -475 -188 -656 -186
-895 0 -71 5 -134 10 -139 7 -7 10 18 10 71 0 44 9 149 20 234 61 456 217 945
452 1421 117 238 182 340 271 425 54 53 114 92 122 81 1 -2 13 -19 27 -38 33
-44 74 -174 94 -298 31 -187 -8 -619 -66 -732 -11 -21 -16 -41 -11 -44 11 -7
10 -12 -40 -188 -115 -403 -243 -663 -404 -817 -69 -67 -123 -95 -198 -106
-60 -9 -91 -44 -84 -92 5 -26 2 -33 -11 -33 -44 0 -222 -53 -300 -89 -85 -38
-106 -43 -352 -80 -33 -5 -46 -11 -48 -25 -4 -18 1 -19 74 -12 44 3 117 13
164 22 47 9 129 18 182 21 54 2 121 10 150 18 29 8 121 31 203 50 83 20 248
60 368 90 119 30 226 55 237 55 30 0 25 -33 -13 -93 -60 -93 -184 -188 -342
-263 -157 -75 -220 -87 -440 -88 -176 0 -201 2 -340 32 -82 17 -172 38 -200
47 -27 8 -71 15 -97 15 -40 0 -50 -4 -64 -25 -15 -23 -15 -27 0 -50 28 -43 60
-56 226 -89 88 -18 163 -35 165 -38 3 -2 -32 -17 -78 -33 -124 -43 -137 -51
-137 -86 0 -40 32 -51 143 -47 l89 3 -5 -33 c-3 -18 -18 -57 -32 -87 -16 -31
-33 -91 -40 -142 -8 -48 -26 -137 -40 -197 l-27 -108 13 -422 c13 -447 7
-1290 -11 -1676 -5 -119 -11 -318 -12 -443 l-3 -227 -44 -15 c-60 -20 -69 -19
-64 8 6 29 -33 126 -79 198 -132 206 -484 549 -822 802 -158 118 -387 270
-517 343 -57 32 -106 59 -109 61 -5 4 122 127 235 228 39 34 151 115 250 180
160 105 195 134 315 254 274 275 410 461 566 772 78 156 111 253 125 362 l11
82 -40 105 c-40 106 -66 136 -76 88 -20 -97 -30 -128 -41 -138 -8 -6 -26 -48
-41 -93 -43 -129 -161 -414 -208 -502 -60 -114 -85 -150 -175 -262 -118 -147
-236 -254 -437 -393 -262 -182 -373 -269 -506 -398 l-77 -75 15 42 c45 131 90
346 144 691 94 591 142 759 264 912 74 92 222 190 362 238 140 49 339 93 424
95 113 2 108 1 130 38 40 65 16 177 -43 202 -22 9 -31 20 -32 39 -1 31 3 31
50 9 45 -21 57 -10 19 19 -68 53 -229 205 -274 259 -111 134 -233 363 -299
565 -73 222 -98 404 -81 593 13 156 54 275 117 343 l26 27 76 -41 c216 -116
503 -352 637 -523 73 -94 176 -294 224 -435 30 -86 32 -102 27 -180 -7 -116
-42 -212 -117 -323 -60 -88 -71 -122 -48 -145 19 -19 63 -14 91 12 40 37 143
180 171 239 15 29 34 92 43 139 15 79 15 93 1 165 -29 149 -152 402 -276 568
-70 94 -235 266 -387 403 l-89 81 16 35 c22 44 80 110 121 135 71 43 231 45
310 4 40 -20 137 -102 137 -115 0 -5 -37 -61 -82 -123 -106 -146 -131 -192
-117 -216 11 -22 67 -26 74 -6 2 6 11 37 19 68 19 67 134 263 222 375 155 199
264 250 396 185 56 -27 169 -124 210 -180 48 -66 46 -32 -4 51 -81 137 -192
221 -293 221 -103 0 -192 -65 -315 -231 l-75 -101 -25 23 c-41 38 -127 93
-167 108 -23 8 -82 13 -145 13 l-107 0 2 154 c2 137 0 155 -15 165 -25 16 -52
-4 -56 -40 -4 -33 13 -153 34 -234 9 -33 10 -56 5 -58 -38 -13 -128 -108 -158
-167 -9 -16 -17 -32 -19 -34 -1 -2 -29 17 -61 42 -66 52 -156 97 -194 97 -46
0 -123 -73 -168 -160 -106 -203 -126 -447 -62 -754 39 -189 85 -326 165 -491
98 -205 163 -290 335 -440 l45 -38 -110 6 c-328 20 -639 119 -914 290 -150 94
-275 205 -428 382 -273 314 -406 554 -461 829 -10 50 -17 93 -16 94 6 6 324
-78 399 -105 150 -54 339 -162 515 -296 133 -101 339 -273 412 -344 32 -31 62
-54 68 -52 13 5 -83 126 -166 212 -45 45 -52 57 -36 57 11 0 28 9 38 20 17 19
15 24 -43 147 -70 150 -83 188 -117 348 -31 142 -41 311 -26 416 14 101 56
232 85 266 23 26 25 27 67 14 34 -10 65 -35 139 -110 53 -53 120 -131 150
-173 49 -71 81 -101 66 -62 -22 57 -268 343 -332 385 -75 49 -142 2 -164 -117
-13 -65 -14 -67 -23 -39 -5 17 -12 175 -14 352 l-5 322 26 26 c31 31 64 28
133 -11 51 -30 135 -123 128 -144 -6 -18 4 -34 27 -43 21 -7 158 -277 218
-429 24 -60 47 -108 51 -108 5 0 9 3 9 6 0 25 -68 185 -145 342 l-92 188 1
125 c2 146 27 233 84 299 42 49 156 110 207 110 78 0 186 -88 238 -193 15 -31
32 -57 38 -57 25 0 -48 151 -99 203 -46 47 -119 97 -144 97 -16 0 -17 7 -11
63 10 105 40 202 124 406 85 205 155 348 194 397 l23 29 39 -20 c21 -11 88
-69 150 -130 110 -109 112 -111 184 -260 43 -88 75 -143 77 -132 5 25 -123
282 -197 395 -72 109 -151 196 -203 223 -40 21 -52 22 -83 9z m-1918 -881 c34
-17 90 -51 125 -77 76 -56 343 -324 405 -406 87 -116 151 -237 177 -331 13
-49 44 -151 69 -225 25 -74 53 -161 63 -192 9 -32 23 -63 30 -69 19 -15 44 -4
44 19 0 15 6 18 23 15 l23 -5 -14 -86 c-21 -129 -4 -290 63 -592 29 -135 56
-260 60 -278 l7 -33 -99 73 c-154 116 -436 289 -542 334 -27 11 -32 17 -23 26
20 20 14 55 -33 173 -25 63 -54 150 -65 193 -27 108 -67 347 -80 471 -12 127
-12 141 0 141 20 0 141 -125 213 -218 204 -267 319 -474 386 -692 77 -248 121
-355 121 -291 0 95 -88 367 -171 534 -38 74 -210 341 -290 449 -100 135 -242
299 -271 314 -32 17 -60 7 -78 -26 -12 -23 10 -173 70 -475 70 -355 80 -412
63 -390 -31 42 -117 192 -172 304 -82 163 -158 399 -228 706 -25 112 -27 136
-27 360 -1 206 1 245 16 278 15 34 20 37 45 31 15 -3 56 -19 90 -35z m1791
-3468 c10 -6 8 -10 -10 -13 -12 -3 -32 -9 -43 -13 -16 -5 -15 -3 5 14 28 23
30 24 48 12z m-3913 -2600 c286 -32 461 -62 678 -116 456 -115 706 -241 858
-431 73 -93 101 -155 102 -229 1 -111 -63 -183 -215 -244 -163 -66 -566 -59
-943 15 -656 129 -1521 470 -1955 772 -120 83 -171 125 -163 133 14 14 234 56
436 84 117 16 266 29 390 33 234 8 667 -1 812 -17z m4785 -1781 c577 -20 875
-41 1710 -120 234 -22 531 -49 660 -60 129 -11 258 -24 285 -28 75 -11 -1643
-4 -2002 8 -423 14 -637 33 -903 81 -197 35 -450 102 -450 120 0 12 352 11
700 -1z"/>
<path d="M8071 8792 c-25 -26 -89 -119 -141 -206 -52 -87 -125 -203 -162 -259
-37 -55 -65 -105 -62 -109 13 -21 36 -3 64 52 43 86 226 385 273 448 40 53 80
82 113 82 27 0 99 -82 133 -152 51 -105 91 -336 91 -534 l0 -102 -36 -32 c-35
-30 -36 -33 -19 -48 16 -16 18 -16 28 2 7 11 20 28 30 38 9 10 17 22 17 27 0
10 132 136 157 149 16 9 18 5 19 -27 1 -20 9 -76 18 -125 9 -49 16 -140 16
-205 0 -121 -23 -355 -41 -425 -20 -78 -81 -262 -120 -363 -21 -56 -44 -136
-50 -178 -6 -43 -14 -88 -19 -101 -17 -45 9 -35 35 13 14 26 39 68 55 93 37
56 159 408 194 556 37 162 50 280 49 466 -1 172 -11 244 -44 310 -22 43 -45
58 -87 58 -31 0 -78 -43 -137 -127 -17 -24 -34 -43 -38 -43 -5 0 -6 4 -3 9 9
14 -12 276 -29 366 -26 133 -64 267 -90 311 -37 63 -89 104 -132 104 -31 0
-44 -8 -82 -48z"/>
<path d="M9630 8130 c-50 -23 -64 -38 -147 -155 -31 -44 -90 -124 -130 -178
-40 -54 -73 -103 -73 -108 0 -22 19 -4 70 67 71 99 152 172 237 214 89 43 111
37 131 -40 44 -175 -112 -837 -278 -1176 -94 -191 -304 -500 -559 -824 -59
-74 -146 -189 -194 -255 -48 -66 -123 -160 -167 -209 -44 -49 -83 -99 -86
-112 -15 -59 21 -81 70 -43 15 12 64 76 108 143 45 66 120 171 168 231 262
331 425 570 571 837 226 415 278 543 401 998 80 295 83 309 83 416 0 106 -1
112 -28 147 -49 64 -106 79 -177 47z"/>
<path d="M7634 8052 c-103 -57 -421 -402 -583 -632 l-50 -71 -11 43 c-30 117
-152 388 -219 487 -83 120 -182 182 -265 167 -77 -15 -151 -97 -195 -216 -51
-139 -123 -514 -107 -556 6 -15 36 -20 36 -5 0 186 19 312 71 468 53 162 131
255 214 257 78 2 176 -97 268 -273 70 -133 186 -409 180 -430 -3 -11 5 -29 21
-46 l25 -27 25 24 c13 12 48 70 78 128 99 195 273 399 461 540 79 59 100 71
108 59 24 -37 41 -128 50 -279 6 -91 14 -172 17 -180 12 -28 13 115 2 250 -13
161 -35 265 -61 291 -23 23 -25 23 -65 1z"/>
<path d="M7993 7668 c-17 -18 -38 -47 -46 -64 -29 -56 -57 -190 -57 -268 0
-67 2 -76 18 -76 16 0 22 18 40 113 23 115 72 237 96 237 37 0 95 -91 136
-213 25 -73 48 -103 37 -47 -8 39 -83 240 -109 292 -32 65 -69 74 -115 26z"/>
<path d="M7675 7413 c-4 -10 -14 -97 -23 -195 l-16 -176 -34 26 c-37 29 -143
44 -156 23 -4 -6 0 -11 10 -11 31 0 109 -50 132 -85 12 -19 27 -35 32 -35 6 0
10 -32 10 -75 0 -43 4 -75 10 -75 6 0 10 33 10 78 0 92 16 277 30 347 6 28 22
74 37 104 19 40 23 58 16 70 -15 23 -49 26 -58 4z"/>
<path d="M7768 7385 c-7 -7 24 -75 34 -75 4 0 8 18 8 40 0 32 -4 40 -18 40
-10 0 -21 -2 -24 -5z"/>
<path d="M6501 7244 c-22 -28 -22 -42 -5 -223 6 -74 34 -191 44 -191 27 0 100
333 84 385 -18 60 -86 76 -123 29z"/>
<path d="M6890 7160 c-13 -8 -15 -44 -15 -225 0 -118 3 -215 6 -215 7 0 116
329 125 376 5 24 1 37 -15 53 -22 22 -74 28 -101 11z"/>
<path d="M7339 7080 c-35 -26 -109 -123 -109 -142 0 -17 26 -32 40 -23 5 3 11
19 15 35 4 17 27 54 51 82 58 68 59 90 3 48z"/>
<path d="M6723 7018 c-4 -7 -10 -71 -12 -142 -2 -105 -1 -128 10 -124 15 5 61
206 56 248 -2 28 -39 40 -54 18z"/>
<path d="M6113 6958 c-6 -7 -14 -23 -17 -35 -10 -32 13 -152 40 -206 13 -27
24 -55 24 -63 0 -31 18 -11 26 29 15 77 8 213 -13 250 -21 35 -44 45 -60 25z"/>
</g>
</svg>
