<svg xmlns="http://www.w3.org/2000/svg" width="1254" height="1254"><path fill="#8E5F44" d="M617.66 79.871c71.74-1.17 142.387 20.668 201.965 60.254l1.872 1.241C848.261 159.186 874.56 181.099 895 206l1.332 1.593c20.923 25.04 38.417 51.981 52.657 81.332 1.051 2.158 2.121 4.306 3.19 6.454 25.563 51.947 38.11 111.552 38.009 169.308l-.003 2.139c-.228 80.388-23.934 156.255-61.827 226.649-1.467 2.728-2.924 5.463-4.381 8.197-6.54 12.22-13.346 24.254-20.38 36.195q-3.685 6.266-7.288 12.578a990 990 0 0 1-22.61 37.664c-3.721 5.9-7.34 11.86-10.949 17.828a813 813 0 0 1-14.828 23.575 945 945 0 0 0-6.281 9.758c-10.654 16.752-21.55 33.34-32.484 49.91-4.119 6.242-8.227 12.49-12.333 18.742a5205 5205 0 0 1-43.797 65.616q-4.662 6.872-9.308 13.755l-7.492 11.09a3596 3596 0 0 1-18.924 27.725q-3.404 4.945-6.803 9.892l-2.754 4.004a4609 4609 0 0 0-5.46 7.96 1969 1969 0 0 1-17.587 25.22 1182 1182 0 0 0-6.136 8.754c-3.795 5.432-7.69 10.794-11.576 16.16a1336 1336 0 0 0-7.874 10.965l-1.344 1.895q-1.778 2.511-3.55 5.026c-8.05 10.942-16.723 17.193-30.219 20.016-10.207 1.491-20.337-1.833-28.75-7.562-9.734-7.67-16.335-18.26-23.352-28.32a302 302 0 0 0-7.273-9.93c-5.863-7.74-11.35-15.747-16.898-23.714-2.518-3.607-5.06-7.197-7.602-10.786a3081 3081 0 0 1-15.95-22.804 1777 1777 0 0 0-9.734-13.92c-12.453-17.646-24.22-35.747-36.068-53.803a3187 3187 0 0 0-14.654-22.082 1250 1250 0 0 1-12.762-19.47l-1.415-2.205c-.51-.793-1.018-1.587-1.542-2.404l-1.772-2.764q-6.074-9.48-12.139-18.969l-6.179-9.654a10853 10853 0 0 1-20.624-32.31q-4.579-7.204-9.188-14.389a3281 3281 0 0 1-23.59-37.297c-2.63-4.22-5.285-8.426-7.956-12.622-18.649-29.334-36.06-59.38-52.742-89.87a1692 1692 0 0 0-6.1-11.04C279.21 638.76 260.557 584.014 252 526l-.543-3.674C240.877 446.318 252.714 363.8 287 295l1.555-3.144C295.598 277.712 303.227 264.141 312 251l1.414-2.135C331.584 221.516 353.778 195.12 379 174l2.809-2.437C417.585 140.609 458.699 117.303 503 101l2.463-.924c35.799-13.324 74.206-18.867 112.197-20.205M582 113l-2.826.39C545.998 118.103 513.346 127.76 483 142l-2.8 1.302c-22 10.333-43.011 22.75-62.2 37.698l-3.484 2.66c-12.874 9.89-24.872 20.522-36.391 31.965l-2.63 2.601c-5.92 5.95-11.261 12.217-16.495 18.774a938 938 0 0 1-3.336 4.012C338.246 261.998 323.592 285.309 312 310l-1.715 3.46C304.68 324.977 300.303 336.95 296 349l-.855 2.355C285.806 377.38 281.005 405.6 278 433l-.258 2.228c-.674 6.15-.916 12.228-.945 18.413l-.022 3.006c-.23 41.855 3.95 81.947 15.225 122.353l.784 2.814c9.604 33.957 23.472 65.87 40.757 96.574a598 598 0 0 1 4.38 8.01c6.79 12.604 13.893 24.999 21.16 37.333 2.03 3.457 4.046 6.923 6.06 10.39 9 15.48 18.273 30.752 27.859 45.879l3.18 5.043q2.966 4.706 5.941 9.406 2.868 4.533 5.727 9.07a4514 4514 0 0 0 31.936 49.961 4005 4005 0 0 1 12.029 18.707l2.078 3.247a2986 2986 0 0 1 9.613 15.109 1413 1413 0 0 0 20.754 31.858 3329 3329 0 0 1 14.953 22.54l1.922 2.921q3.84 5.833 7.671 11.669C516.408 971.11 524.088 982.627 532 994l2.111 3.039a6389 6389 0 0 0 5.639 8.086 2336 2336 0 0 1 15.875 23.063 2109 2109 0 0 0 19.731 28.478q2.368 3.362 4.73 6.729c6.765 9.623 13.59 19.203 20.526 28.704 1.189 1.628 2.37 3.26 3.552 4.893 5.105 6.93 5.105 6.93 12.777 10.38 5.222.326 7.851-1.143 12.059-4.372 2.557-2.807 2.557-2.807 4.875-6l1.307-1.741c3.369-4.532 6.495-9.209 9.584-13.935 2.643-3.988 5.477-7.835 8.297-11.699 5.582-7.666 10.958-15.457 16.277-23.308a1231 1231 0 0 1 12.722-18.38c5.431-7.713 10.701-15.523 15.915-23.385 3.32-5.005 6.669-9.987 10.086-14.927 8.01-11.595 15.887-23.282 23.78-34.958q3.288-4.86 6.579-9.721c15.968-23.586 31.806-47.248 47.374-71.1q1.73-2.65 3.46-5.298Q795.643 858.783 802 849l1.463-2.25c6.714-10.324 13.343-20.7 19.943-31.098q3.486-5.49 7-10.96c8.823-13.757 17.341-27.685 25.778-41.68q2.23-3.697 4.472-7.387c5.783-9.538 11.294-19.228 16.804-28.925q2.23-3.905 4.481-7.798C889.914 705.087 897.52 691.087 905 677l1.643-3.09C926.697 636.104 943.097 597.002 952 555l.667-3.056c2.913-13.484 4.981-27.002 6.583-40.694l.252-2.15c11.068-95.765-15.652-194.438-75.56-270.273-3.412-4.252-6.977-8.345-10.676-12.35a260 260 0 0 1-5.391-6.114c-4.493-5.146-9.297-9.97-14.125-14.8l-2.66-2.698C845.04 196.803 838.7 191.325 832 186a967 967 0 0 1-3.723-3.082C813.267 170.579 796.975 160.404 780 151c-.785-.436-1.57-.872-2.38-1.32C741.028 129.52 699.55 116.332 658 112l-2.582-.288c-9.91-.98-19.844-.911-29.793-.9l-2.84.002c-13.685.024-27.215.246-40.785 2.186"/><path fill="#8E5F44" d="m620.5 177.813 2.277.002c36.47.099 72.825 7.313 106.223 22.185l2.772 1.234c37.7 17 72.533 41.941 99.228 73.766l1.379 1.64c17.12 20.454 31.258 42.295 42.699 66.42q.915 1.926 1.856 3.84c18.04 36.807 28.072 79.852 28.27 120.76l.02 2.969q.025 4.716.026 9.433l.002 3.262c-.016 16.126-.612 31.741-3.252 47.676l-.996 6.684c-10.661 68.084-43.742 130.99-92.129 179.691l-2.746 2.774c-8.207 8.169-17.011 15.49-26.379 22.289l-1.916 1.39A974 974 0 0 1 772 748l-1.78 1.27C714.81 788.46 644.956 804.843 578 794c-24.805-4.374-48.39-11.926-71-23l-2.564-1.245c-30.781-15.09-62.557-37.178-84.721-63.732-2.034-2.4-4.188-4.667-6.34-6.96C397.729 681.85 385.48 662.14 374 642l-1.033-1.784C357.025 612.556 346.75 581.086 340 550l-.589-2.711c-5.174-24.667-7.564-51.11-6.411-76.289l.129-3.007C335.257 423.182 346.313 380.243 366 340l1.356-2.774c11.635-23.543 26.19-45.531 44.23-64.663a175 175 0 0 0 5.914-6.625c7.75-8.895 16.267-16.621 25.5-23.938q1.717-1.417 3.43-2.84c48.308-39.874 111.69-61.448 174.07-61.347M576 206l-2.771.504C550.766 210.638 529.495 217.97 509 228l-2.368 1.147c-21.87 10.7-42.187 24.671-59.929 41.337a171 171 0 0 1-6.765 5.954C430.039 285.068 421.875 295.55 414 306l-1.26 1.662C382.075 348.368 363.79 397.534 358 448l-.304 2.422C349.092 528.43 372.92 607.86 420 670c3.16-1.482 5.932-3.285 8.813-5.25 30.726-19.564 74.143-21.677 109.375-18.875l3.326.238c17.12 1.326 17.12 1.326 22.611 4.95 2.573 4.03 2.803 7.278 1.875 11.937-2.114 3.499-3.117 4.706-7 6a192 192 0 0 1-7.86-.422c-10.464-.668-20.906-.821-31.39-.828l-2.863-.002c-13.834.016-27.305.38-40.887 3.252l-2.72.552c-19.696 3.853-19.696 3.853-36.28 14.448.46 4.698 2.198 6.66 5.563 9.875l2.753 2.645c2.845 2.629 5.712 5.215 8.66 7.726a128 128 0 0 1 4.11 3.727c47.214 44.394 112.119 64.093 175.839 62.191 56.716-2.065 110.316-28.232 151.731-66.043 2.143-1.94 4.327-3.814 6.532-5.683 4.005-3.476 7.427-7.366 10.812-11.438-11.793-15.621-35.856-18.356-54-21-8.596-1.123-17.196-1.155-25.85-1.13-2.25.005-4.5 0-6.752-.007-6.045 0-12.061.002-18.092.474l-2.313.176q-2.167.176-4.33.401c-4.744.393-7.64-.395-11.663-2.914-2.631-3.349-2.361-6.88-2-11 1.709-3.845 3.12-5.49 7-7 2.71-.46 5.35-.825 8.078-1.105l2.403-.255c8.754-.858 17.48-.994 26.269-.952l2.507.006c13.109.055 25.875.608 38.743 3.306l2.973.618C785.829 652.886 802.12 659.706 819 671c35.62-46.91 56.073-101.394 62-160l.286-2.745C886.626 451.754 875.7 393.121 849 343l-1.148-2.179C836.607 319.584 822.676 300.314 806 283l-1.916-1.998c-8.664-8.99-17.442-17.4-27.495-24.818a218 218 0 0 1-4.491-3.465C763.533 246.046 754.38 240.445 745 235l-2.065-1.204c-37.12-21.347-79.487-31.28-122.06-31.108l-2.867.005c-14.207.046-28.03.586-42.008 3.307"/><path fill="#8E5F44" d="M627.313 273.375c5.372 3.86 9.483 8.554 13.687 13.625l1.387 1.646C658.062 307.292 687 343.833 687 369l1.367-1.035C732.959 334.43 732.959 334.43 755 337c3.443 1.39 5.281 2.687 7.082 5.977C771.427 366.433 772.338 391.14 772 416l3.227-.805 4.398-1.07 2.102-.527c12.197-2.94 24.247-3.942 36.773-3.91l3.992-.05 3.852-.001 3.443-.01c4.502.522 7.914 1.984 11.025 5.31 6.296 10.934.785 28.281-2.253 39.637-5.61 19.821-14.287 37.648-24.559 55.426q-1.148 2.005-2.293 4.012L810 517l1.81.576c10.884 3.507 21.502 7.188 31.628 12.549l2.268 1.197c6.209 3.401 12.546 6.953 16.419 12.99 1.157 4.875.89 8.1-1.125 12.688-2.374 3.607-5.126 6.783-8 10l-2.07 2.434c-31.594 36.431-78.433 58.382-126.198 62.38-25.842 1.753-51.052-2.027-75.232-11.251l-2.1-.8c-6.068-2.424-11.714-5.56-17.4-8.763 1.225 25.855 1.225 25.855 7 51 .506 3.797.84 7.434-1.012 10.887-2.145 2.66-3.728 4.026-6.988 5.113-3.875.366-6.53.175-10.187-1.187C605.353 663.353 607.277 629.65 607 612l-1.69.839c-44.396 21.913-91.87 26.231-139.16 10.717-9.813-3.374-19.08-7.525-28.15-12.556l-1.933-1.07c-22.7-12.743-47.319-32.146-59.067-55.93-1.23-4.754-.74-7.52 1.438-11.875 3.082-4.386 7.768-6.601 12.375-9.125l2.836-1.586A152.7 152.7 0 0 1 417 521l2.777-1.02C423.39 518.7 426.132 518 430 518l-2.125-3.375C411.947 489.101 391.375 452.486 396 421c1.667-4.738 3.854-7.201 8-10 18.166-6.055 45.05-.558 63 5l-.048-1.762c-.53-22.88-.098-52.995 12.048-73.238 4.18-3.783 7.178-4.345 12.556-4.236 4.07.393 7.654 1.69 11.444 3.173.82.315 1.64.63 2.486.953 17.122 6.752 32.28 16.496 46.514 28.11l.375-1.555C561.083 335.12 581.985 303.887 605 280l2.066-2.223c6.02-6.332 12.145-9.39 20.246-4.402m-9.958 27.215c-39.363 42.625-62.712 108.322-60.473 166.157.248 4.737.6 9.463.993 14.19l.237 2.967.255 2.748.222 2.469L559 491l2 1 .629-3.672c4.805-26.7 15.293-51.412 31.371-73.328l1.278-1.745C609.943 392.058 609.943 392.058 617 390c6.578-.212 9.218 1.674 13.97 5.994 3.104 3.068 5.743 6.383 8.342 9.881l1.673 2.224c16.562 22.294 28.987 45.653 35.494 72.734.816 3.395 1.671 6.78 2.521 10.167h1c1.865-9.923 2.402-19.628 2.375-29.687l-.002-2.31c-.046-14.277-1.405-28.015-4.373-42.003l-.65-3.062C668.127 371.828 649.118 331.117 620 299c-1.261-.116-1.261-.116-2.645 1.59M496 363c-5.59 15.423-6.563 31.935-6.437 48.188l.009 2.558c.074 14.05 1.075 27.56 4.428 41.254l.682 2.785C504.725 497.523 526.28 534.013 560 558c0-3.455-.81-4.936-2.379-7.988-23.376-46.428-26.778-95.946-15.16-146.35l.648-2.865.593-2.52c.32-2.444.128-3.97-.702-6.277-8.434-9.804-21.402-16.647-32.5-23l-1.957-1.133c-4.104-2.294-7.977-3.737-12.543-4.867m201 28-1 1c.144 7.539 1.92 14.962 3.438 22.313 9.068 45.769 5.296 92.811-16.774 134.472A74 74 0 0 0 679 557c37.596-26.751 60.961-69.418 68.875-114.375 3.766-23.027 6.991-57.893-3.875-79.625-16.059 0-35.196 18.419-47 28m-78 27c-25.563 25.706-38.26 65.199-38.249 100.659.201 21.49 6.562 42.06 21.593 57.884 5.375 4.972 11.17 9.052 18.656 9.457 13.813-5.056 22.554-15.126 29-28 13.665-30.197 10.016-62.082-.915-92.55C643.7 451.448 633.06 425.03 619 418m-199 15c.166 36.154 26.088 72.703 50.433 97.465 3.928 3.848 8.196 7.211 12.567 10.535l2.754 2.195C500.86 554.993 519.334 566.088 538 571l2-1q-2.841-2.628-5.687-5.25l-1.608-1.488c-2.333-2.147-4.632-4.206-7.162-6.121C492.82 529.595 476.147 481.527 469 441c-15.812-5.417-32.27-8.314-49-8m350 8c-1.064 2.206-1.064 2.206-1.406 4.883l-.556 3.013-.538 3.229q-.622 3.31-1.262 6.617l-.626 3.265c-1.33 6.505-3.343 12.758-5.612 18.993l-.839 2.31C750.474 506.82 738.52 528.081 722 547l-1.362 1.565c-6.97 7.952-14.318 14.9-22.638 21.435 4.13 1.377 6.682-.183 10.5-1.812l2.268-.959C730.544 558.687 748.306 547.825 764 533a750 750 0 0 1 3.938-3.312C793.165 507.55 813.36 473.19 819 440c.038-2.333.046-4.667 0-7-15.015 0-35.47.84-49 8m-336.687 98.5-2.802.792c-8.975 2.652-17.213 6.423-25.511 10.708 0 4.83.848 5.405 4.063 8.813l2.519 2.675L414 565c.56.612 1.121 1.225 1.7 1.855 23.424 24.841 61.343 40.63 95.116 42.338 4.374.089 8.747.157 13.122.182l2.408.015c14.408.036 27.68-1.736 41.654-5.39q2.335-.585 4.672-1.164L576 602v-1l-2.038-.272c-44.867-6.116-86.85-22.505-118.888-55.74l-1.49-1.535a519 519 0 0 1-4.139-4.363c-4.735-4.047-10.69-1.13-16.132.41m355.937.027a507 507 0 0 0-3.25 3.41c-33.343 34.209-75.762 50.726-122 58.063 3.12 1.737 6.014 2.555 9.508 3.254l3.242.65 3.375.659 3.305.67c41.86 8.286 84.893-1.846 120.32-25.17C815.36 573.209 825.258 564.02 835 554c-1.351-3.295-2.41-4.574-5.684-5.965l-2.285-.978c-.814-.328-1.63-.656-2.468-.995l-2.536-1.044c-16.894-7.466-16.894-7.466-32.777-5.49M682 688c3.11 2.646 4.61 4.223 5.48 8.188.268 4.277-.076 6.176-2.445 9.902-3.397 3.793-7.408 4.76-12.222 5.972l-2.77.74c-29.59 7.655-60.002 11.436-90.543 11.385l-2.244-.002c-68.21-.186-68.21-.186-87.068-13.435-2.756-3.464-4.07-6.302-4.188-10.75 1.096-3.931 2.108-6.187 5.125-8.937 7.208-2.664 14.576-.658 21.75 1.25 7.029 1.768 14.025 3.318 21.188 4.437l2.192.349c10.072 1.51 20.167 2.059 30.343 2.104l3.225.022c34.577.178 68.505-1.445 101.899-11.326 3.971-1.09 6.326-1.07 10.278.101M745 704c2.976 2.07 4.6 3.634 5.633 7.156.578 3.692.642 6.157-.758 9.657-4.2 4.9-8.877 7.305-14.75 9.625l-2.274.91c-10.229 4.05-20.503 7.484-31.226 9.965l-2.197.52c-6.116 1.338-12.758 2.7-18.365-.52-3.026-3.393-4.098-5.68-4-10.25 1.236-4.039 2.45-6.675 5.937-9.063 4.17-1.483 8.436-2.456 12.74-3.455C709.68 715.184 731.75 700.856 745 704M725.5 1074.5l2.846.3c85.391 9.584 85.391 9.584 106.33 33.325 4.796 6.79 8.034 13.675 7.066 22.125-1.832 9.863-6.786 15.91-14.742 21.75-55.598 35.61-145.269 33.248-208.437 33.188l-3.311-.001c-168.321-.19-168.321-.19-210.115-37.867-5.255-5.659-8.312-12.072-8.637-19.82.405-9.367 4.81-16.175 11.5-22.5 22.863-20.194 60.989-24.012 89.75-28.312l3.385-.52c20.239-2.884 20.239-2.884 26.653.151 3.253 2.472 4.065 4.793 5.212 8.681.196 4.135-.575 7.301-2.75 10.875-4.207 3.973-8.875 4.503-14.48 5.238l-4.334.586-2.285.302c-46.129 4.005-46.129 4.005-86.151 23.999-.045 2.025-.045 2.025 1 4 49.172 36.332 150.307 28.914 208 28l3.561-.054c94.078.914 94.078.914 179.439-28.946l1-2c-3.575-3.953-7.072-6.386-11.937-8.437l-2.097-.893c-20.253-8.275-42.515-11.968-64.107-14.764l-2.056-.266a790 790 0 0 0-9.893-1.209c-13.857-1.683-13.857-1.683-18.785-6.119-2.038-4.19-2.742-8.02-1.535-12.503 1.661-3.873 2.702-5.401 6.472-7.57 4.551-1.757 8.673-1.294 13.438-.739"/></svg>