<?xml version="1.0" encoding="UTF-8"?>
<svg version="1.1" xmlns="http://www.w3.org/2000/svg" width="1254" height="1254">
<path d="M0 0 C71.73901588 -1.17093062 142.38694851 20.66744687 201.96484375 60.25390625 C202.58269745 60.66343536 203.20055115 61.07296448 203.83712769 61.49490356 C230.60048566 79.31493518 256.89926016 101.22777158 277.33984375 126.12890625 C277.77941406 126.65468262 278.21898437 127.18045898 278.671875 127.72216797 C299.5949957 152.76098005 317.08930769 179.70322109 331.32910156 209.05419922 C332.38018623 211.21171552 333.44984313 213.35946713 334.51953125 215.5078125 C360.08202832 267.45507344 372.62852884 327.05960867 372.52734375 384.81640625 C372.52640717 385.52200684 372.52547058 386.22760742 372.52450562 386.95458984 C372.29669104 467.3428327 348.59119284 543.21040367 310.69824219 613.60351562 C309.23050746 616.3321727 307.77364464 619.06650556 306.31640625 621.80078125 C299.77735154 634.0204394 292.97060541 646.05463843 285.9375 657.99609375 C283.47869788 662.17263397 281.05144016 666.36532701 278.6484375 670.57421875 C271.37670927 683.30710898 263.86748948 695.84011125 256.0390625 708.23828125 C252.3177756 714.13824099 248.69838463 720.09704518 245.08984375 726.06640625 C240.27517116 734.0127788 235.34525871 741.86409468 230.26171875 749.640625 C228.14572688 752.87937321 226.05653761 756.1339538 223.98046875 759.3984375 C213.32642983 776.1506332 202.43072056 792.7382431 191.496521 809.30844116 C187.37797994 815.55082943 183.26948614 821.79976033 179.1640625 828.05078125 C164.7221801 850.03088194 150.14045895 871.90783385 135.3671875 893.66650391 C132.25793009 898.24731345 129.15750961 902.83406526 126.05859375 907.421875 C125.02458369 908.95231584 123.99056685 910.48275209 122.95654297 912.01318359 C121.49302447 914.17935578 120.02956688 916.34556878 118.56646729 918.51202393 C112.3030547 927.78456036 105.99269378 937.02350739 99.64299011 946.23716736 C97.37281082 949.53271926 95.10663947 952.83102659 92.83984375 956.12890625 C91.921875 957.46354167 91.00390625 958.79817708 90.0859375 960.1328125 C88.26271645 962.78447621 86.44266285 965.43827352 84.625 968.09375 C78.83236077 976.54983892 72.96302446 984.94789661 67.0390625 993.3125 C64.97942424 996.22084761 62.93559554 999.13952774 60.90234375 1002.06640625 C57.10765191 1007.49929432 53.21360865 1012.86043602 49.32641602 1018.22729492 C46.68755761 1021.87193992 44.05503105 1025.52026102 41.453125 1029.19140625 C41.0094458 1029.81692383 40.5657666 1030.44244141 40.10864258 1031.08691406 C38.9233359 1032.76098583 37.74085697 1034.43705874 36.55859375 1036.11328125 C28.50813722 1047.05509893 19.83597554 1053.3060767 6.33984375 1056.12890625 C-3.86763339 1057.62005878 -13.99753549 1054.29640109 -22.41015625 1048.56640625 C-32.14368188 1040.89756788 -38.74522534 1030.30718647 -45.76171875 1020.24609375 C-48.11637871 1016.88032412 -50.54516852 1013.58393661 -53.03515625 1010.31640625 C-58.89864128 1002.57618189 -64.38514713 994.57014436 -69.93310547 986.60253906 C-72.45122289 982.99587159 -74.99282001 979.4060203 -77.53515625 975.81640625 C-82.8915572 968.24294299 -88.19733059 960.6346998 -93.48510742 953.01318359 C-96.71278073 948.36119221 -99.94675484 943.7147016 -103.21875 939.09375 C-115.6725107 921.44724315 -127.43950693 903.345582 -139.28746033 885.28996277 C-144.1376626 877.90617528 -149.02989467 870.55092397 -153.9413147 863.20773315 C-158.25440088 856.75591592 -162.51089974 850.26932692 -166.703125 843.73828125 C-167.17024902 843.01060547 -167.63737305 842.28292969 -168.11865234 841.53320312 C-168.62734863 840.73978516 -169.13604492 839.94636719 -169.66015625 839.12890625 C-170.53728271 837.76088867 -170.53728271 837.76088867 -171.43212891 836.36523438 C-175.48260469 830.04487155 -179.52737039 823.72086773 -183.57080078 817.39599609 C-185.62924903 814.17723535 -187.68930994 810.95951338 -189.75 807.7421875 C-196.64105282 796.98266315 -203.52076964 786.21617296 -210.3737793 775.43237305 C-213.42722376 770.62978857 -216.48883582 765.83264214 -219.5625 761.04296875 C-227.50817969 748.66091904 -235.37389081 736.23388038 -243.15234375 723.74609375 C-245.78309203 719.52519159 -248.43752869 715.32032703 -251.10766602 711.12426758 C-269.75710349 681.78975817 -287.16798576 651.74430922 -303.85021973 621.25337219 C-305.86867763 617.5656496 -307.90334026 613.88741461 -309.94921875 610.21484375 C-338.44959396 558.88880652 -357.10437549 504.14174952 -365.66015625 446.12890625 C-365.83949707 444.91638184 -366.01883789 443.70385742 -366.20361328 442.45458984 C-376.78268647 366.44704813 -364.94607939 283.92924918 -330.66015625 215.12890625 C-330.14694824 214.0915332 -329.63374023 213.05416016 -329.10498047 211.98535156 C-322.0625915 197.8405837 -314.43355014 184.26967243 -305.66015625 171.12890625 C-304.96043701 170.07219727 -304.96043701 170.07219727 -304.24658203 168.99414062 C-286.07554467 141.64536196 -263.88198953 115.24924515 -238.66015625 94.12890625 C-237.73332031 93.32453125 -236.80648437 92.52015625 -235.8515625 91.69140625 C-200.07562312 60.73792892 -158.96031796 37.43204862 -114.66015625 21.12890625 C-113.84740234 20.82404297 -113.03464844 20.51917969 -112.19726562 20.20507812 C-76.39852209 6.8808821 -37.99160685 1.33801817 0 0 Z M-35.66015625 33.12890625 C-36.59279297 33.2578125 -37.52542969 33.38671875 -38.48632812 33.51953125 C-71.66181692 38.23084327 -104.31371221 47.88744829 -134.66015625 62.12890625 C-136.04581787 62.77351807 -136.04581787 62.77351807 -137.45947266 63.43115234 C-159.45930218 73.76423768 -180.47139296 86.18097319 -199.66015625 101.12890625 C-200.82123849 102.0161174 -201.98270265 102.90282895 -203.14453125 103.7890625 C-216.01841694 113.6792548 -228.01646744 124.31109813 -239.53515625 135.75390625 C-240.40277588 136.61226074 -241.27039551 137.47061523 -242.16430664 138.35498047 C-248.08564544 144.30522597 -253.42625627 150.57185036 -258.66015625 157.12890625 C-259.76859395 158.46908282 -260.88021487 159.80663786 -261.99609375 161.140625 C-279.41403223 182.12680224 -294.06772393 205.4378323 -305.66015625 230.12890625 C-306.22605469 231.27101563 -306.79195313 232.413125 -307.375 233.58984375 C-312.97988279 245.10463696 -317.35727089 257.07753002 -321.66015625 269.12890625 C-321.94246094 269.90621094 -322.22476563 270.68351563 -322.515625 271.484375 C-331.85402427 297.50864505 -336.65543827 325.72770309 -339.66015625 353.12890625 C-339.74530487 353.86411499 -339.83045349 354.59932373 -339.91818237 355.35681152 C-340.59246599 361.50714803 -340.83385453 367.58480166 -340.86328125 373.76953125 C-340.87034088 374.7616864 -340.87740051 375.75384155 -340.88467407 376.77606201 C-341.11441445 418.63124946 -336.93551229 458.7226053 -325.66015625 499.12890625 C-325.40153809 500.05751465 -325.14291992 500.98612305 -324.87646484 501.94287109 C-315.27257433 535.90011332 -301.40405425 567.81222563 -284.11914062 598.51660156 C-282.63474499 601.17440499 -281.18194517 603.84721733 -279.73828125 606.52734375 C-272.94911315 619.1309695 -265.84572928 631.52555548 -258.58007812 643.85986328 C-256.54951896 647.3172879 -254.53324974 650.78275535 -252.51953125 654.25 C-243.51917567 669.72952334 -234.24572059 685.00228492 -224.66015625 700.12890625 C-223.59978009 701.80959288 -222.53986598 703.49057114 -221.48046875 705.171875 C-219.50285588 708.30910693 -217.5224491 711.44454014 -215.5390625 714.578125 C-213.62676846 717.5994074 -211.71794621 720.62283175 -209.8125 723.6484375 C-199.27673611 740.37195713 -188.63052356 757.02545582 -177.87597656 773.60913086 C-173.84478114 779.83096667 -169.84423207 786.07228862 -165.84765625 792.31640625 C-165.16171387 793.38777832 -164.47577148 794.45915039 -163.76904297 795.56298828 C-160.55229581 800.59147531 -157.34278375 805.62417995 -154.15625 810.671875 C-147.38407086 821.39187774 -140.46061332 831.99597933 -133.40258789 842.5300293 C-128.3852652 850.02198891 -123.40552127 857.53782464 -118.44921875 865.0703125 C-117.81486404 866.03422913 -117.18050934 866.99814575 -116.52693176 867.99127197 C-113.96852965 871.87975778 -111.41064664 875.76857875 -108.85592651 879.65948486 C-101.25191371 891.24035923 -93.57220238 902.75596459 -85.66015625 914.12890625 C-84.96349854 915.13171631 -84.26684082 916.13452637 -83.54907227 917.16772461 C-81.67196653 919.86489521 -79.79142142 922.55963575 -77.91015625 925.25390625 C-72.5724003 932.91056527 -67.28074836 940.59633605 -62.03515625 948.31640625 C-55.541907 957.86870493 -48.95290561 967.3501216 -42.30371094 976.79443359 C-40.72543253 979.03618911 -39.14965323 981.27968287 -37.57421875 983.5234375 C-30.80899779 993.14662815 -23.98387543 1002.72656203 -17.04785156 1012.22753906 C-15.85963108 1013.85559345 -14.67726694 1015.48791927 -13.49609375 1017.12109375 C-8.39120751 1024.05063547 -8.39120751 1024.05063547 -0.71875 1027.5 C4.50236841 1027.8269391 7.13185621 1026.35754119 11.33984375 1023.12890625 C13.89692711 1020.32161013 13.89692711 1020.32161013 16.21484375 1017.12890625 C16.64627686 1016.55422607 17.07770996 1015.9795459 17.5222168 1015.38745117 C20.89048724 1010.85556245 24.01652458 1006.17920957 27.10546875 1001.453125 C29.74869339 997.46516591 32.58255584 993.61795084 35.40234375 989.75390625 C40.98530212 982.0881566 46.36077705 974.29676221 51.6796875 966.44604492 C55.86260806 960.2774181 60.10819452 954.15802221 64.40234375 948.06640625 C69.8328194 940.35255801 75.10310518 932.54283371 80.31640625 924.6809082 C83.63694745 919.67554442 86.98548321 914.69398593 90.40234375 909.75390625 C98.41338307 898.15870421 106.29026606 886.47185892 114.18359375 874.79638672 C116.3750743 871.55499436 118.5679587 868.31455705 120.76171875 865.07470703 C136.73025432 841.4890075 152.56816277 817.82666765 168.13537598 793.97399902 C169.28837586 792.20774857 170.44230722 790.44211141 171.59667969 788.67675781 C175.85337937 782.1666271 180.10111082 775.65074776 184.33984375 769.12890625 C184.82275879 768.38656738 185.30567383 767.64422852 185.80322266 766.87939453 C192.5167054 756.55510245 199.14572315 746.17817524 205.74609375 735.78125 C208.07005536 732.1215124 210.40317186 728.46793887 212.74609375 724.8203125 C221.5688667 711.06388548 230.08721472 697.13597724 238.5234375 683.140625 C240.01004204 680.67573876 241.50110606 678.21371028 242.99609375 675.75390625 C248.7792693 666.21596354 254.28950602 656.52559502 259.80029297 646.82861328 C261.28536372 644.2244407 262.78111542 641.62676871 264.28125 639.03125 C272.25418818 625.21592359 279.8592037 611.21626982 287.33984375 597.12890625 C287.88205566 596.10909668 288.42426758 595.08928711 288.98291016 594.03857422 C309.03683438 556.23259954 325.43693852 517.13046144 334.33984375 475.12890625 C334.55979004 474.12037598 334.77973633 473.1118457 335.00634766 472.07275391 C337.91939118 458.58897432 339.98817957 445.07131879 341.58984375 431.37890625 C341.67292786 430.66928741 341.75601196 429.95966858 341.84161377 429.22854614 C352.9094259 333.46373846 326.18997307 234.79112256 266.28125 158.95581055 C262.8694709 154.70410399 259.30483803 150.61069139 255.60546875 146.60546875 C253.76720546 144.59605681 251.9887727 142.55751787 250.21484375 140.4921875 C245.72147927 135.34559205 240.9174889 130.52253455 236.08984375 125.69140625 C235.21199219 124.80130859 234.33414063 123.91121094 233.4296875 122.99414062 C227.38092874 116.93209762 221.04043566 111.45456643 214.33984375 106.12890625 C213.09655523 105.10447204 211.85533988 104.07751096 210.6171875 103.046875 C195.60691041 90.70818015 179.31471179 80.53319806 162.33984375 71.12890625 C161.55464355 70.69304199 160.76944336 70.25717773 159.96044922 69.80810547 C123.3671715 49.64906969 81.88949147 36.46179343 40.33984375 32.12890625 C39.48793457 32.03391846 38.63602539 31.93893066 37.75830078 31.84106445 C27.8469476 30.86107919 17.91416203 30.92959905 7.96484375 30.94140625 C7.02787659 30.9420105 6.09090942 30.94261475 5.12554932 30.9432373 C-8.56063322 30.96722506 -22.08981519 31.18877979 -35.66015625 33.12890625 Z " fill="#8E5F44" transform="translate(617.66015625,79.87109375)"/>
<path d="M0 0 C1.12716431 0.00140488 1.12716431 0.00140488 2.27709961 0.00283813 C38.74700603 0.10110976 75.10155735 7.31545234 108.5 22.1875 C109.87236816 22.79851562 109.87236816 22.79851562 111.27246094 23.421875 C148.97187866 40.42181617 183.80506868 65.36275911 210.5 97.1875 C210.95503906 97.72874512 211.41007812 98.26999023 211.87890625 98.82763672 C228.99959112 119.28160071 243.13682628 141.1227284 254.57763672 165.24804688 C255.18822846 166.53193804 255.80695282 167.81199574 256.43408203 169.08789062 C274.47391634 205.89474636 284.50565522 248.93974516 284.703125 289.84765625 C284.71013931 290.82731857 284.71715363 291.8069809 284.72438049 292.81632996 C284.74178476 295.96093401 284.74823321 299.10534954 284.75 302.25 C284.75101212 303.86461121 284.75101212 303.86461121 284.75204468 305.51184082 C284.73598185 321.63772023 284.13958823 337.25298474 281.5 353.1875 C281.16757607 355.41530602 280.83556152 357.64317317 280.50390625 359.87109375 C269.84278661 427.95514362 236.761842 490.86064749 188.375 539.5625 C187.4689502 540.47789551 186.56290039 541.39329102 185.62939453 542.33642578 C177.42179243 550.50543182 168.61804323 557.82606559 159.25 564.625 C158.61779541 565.08398682 157.98559082 565.54297363 157.33422852 566.01586914 C155.39513414 567.41452473 153.44933865 568.80316536 151.5 570.1875 C150.9126709 570.60644531 150.3253418 571.02539062 149.72021484 571.45703125 C94.31014532 610.64686431 24.45580394 627.03019021 -42.5 616.1875 C-67.30485411 611.81392856 -90.88939031 604.26117527 -113.5 593.1875 C-114.34626953 592.77661133 -115.19253906 592.36572266 -116.06445312 591.94238281 C-146.84545253 576.85162318 -178.62131543 554.76419423 -200.78515625 528.2109375 C-202.81874837 525.81139145 -204.97263092 523.54356449 -207.125 521.25 C-222.77099942 504.03702643 -235.01975825 484.3273217 -246.5 464.1875 C-246.84095703 463.59888184 -247.18191406 463.01026367 -247.53320312 462.40380859 C-263.47538628 434.74269458 -273.75018769 403.27384031 -280.5 372.1875 C-280.69432617 371.29272949 -280.88865234 370.39795898 -281.08886719 369.47607422 C-286.26322623 344.80982338 -288.65318236 318.36686475 -287.5 293.1875 C-287.43619141 291.69887451 -287.43619141 291.69887451 -287.37109375 290.18017578 C-285.24275228 245.36903759 -274.18654321 202.43040951 -254.5 162.1875 C-253.82880127 160.81416504 -253.82880127 160.81416504 -253.14404297 159.41308594 C-241.50901132 135.87075864 -226.95455164 113.88227667 -208.9140625 94.75 C-206.8762812 92.58691823 -204.92497868 90.38753418 -203 88.125 C-195.24978767 79.23070871 -186.73337698 71.50428829 -177.5 64.1875 C-176.35505053 63.24296688 -175.21190863 62.2962396 -174.0703125 61.34765625 C-125.76190494 21.47394718 -62.37908273 -0.1008394 0 0 Z M-44.5 28.1875 C-45.41442871 28.35378906 -46.32885742 28.52007812 -47.27099609 28.69140625 C-69.73402419 32.82500147 -91.00540936 40.1585002 -111.5 50.1875 C-112.67224121 50.75525146 -112.67224121 50.75525146 -113.86816406 51.33447266 C-135.73737767 62.03363451 -156.0545791 76.00594505 -173.796875 92.671875 C-176.00616012 94.72791491 -178.24998383 96.68850272 -180.5625 98.625 C-190.46099244 107.25550373 -198.62536079 117.73834775 -206.5 128.1875 C-206.91604492 128.73599609 -207.33208984 129.28449219 -207.76074219 129.84960938 C-238.42374564 170.55529358 -256.71021391 219.72198207 -262.5 270.1875 C-262.60022461 270.98687988 -262.70044922 271.78625977 -262.80371094 272.60986328 C-271.40820289 350.61677874 -247.58114333 430.0467317 -200.5 492.1875 C-197.33991572 490.70552944 -194.56813957 488.90217584 -191.6875 486.9375 C-160.96076647 467.37305408 -117.54361578 465.26073768 -82.3125 468.0625 C-81.21486328 468.14113281 -80.11722656 468.21976563 -78.98632812 468.30078125 C-61.86528322 469.62641308 -61.86528322 469.62641308 -56.375 473.25 C-53.80245981 477.28031297 -53.57150702 480.52815339 -54.5 485.1875 C-56.61391877 488.68640004 -57.61736059 489.89328686 -61.5 491.1875 C-64.13382758 491.10258546 -66.73324858 490.95784583 -69.359375 490.765625 C-79.8238229 490.09709332 -90.26618679 489.94431142 -100.75 489.9375 C-101.69466125 489.93682526 -102.63932251 489.93615051 -103.61260986 489.93545532 C-117.44733197 489.9511091 -130.91813071 490.3152596 -144.5 493.1875 C-145.39783203 493.36974121 -146.29566406 493.55198242 -147.22070312 493.73974609 C-166.9156303 497.59234104 -166.9156303 497.59234104 -183.5 508.1875 C-183.04020471 512.88577184 -181.30191125 514.84704742 -177.9375 518.0625 C-176.57431641 519.37154297 -176.57431641 519.37154297 -175.18359375 520.70703125 C-172.33916909 523.33615739 -169.47206811 525.92201313 -166.5234375 528.43359375 C-165.12614337 529.64476183 -163.75758194 530.88959948 -162.4140625 532.16015625 C-115.20010066 576.55417157 -50.29501144 596.25363312 13.42480469 594.3515625 C70.14107813 592.2861435 123.74090123 566.11975869 165.15625 528.30859375 C167.29924312 526.36918497 169.48344638 524.49420701 171.6875 522.625 C175.6927524 519.1499745 179.11530521 515.25971092 182.5 511.1875 C170.70714347 495.56636541 146.64368622 492.83160435 128.5 490.1875 C119.90371656 489.06415038 111.30384151 489.03294686 102.65039062 489.05712891 C100.39966948 489.06244177 98.14915224 489.05717812 95.8984375 489.05078125 C89.85252237 489.05028621 83.83654717 489.05255171 77.80566406 489.52441406 C77.0426297 489.58259308 76.27959534 489.64077209 75.49343872 489.70071411 C74.04842361 489.81841488 72.60451528 489.95108533 71.16256714 490.10177612 C66.41889949 490.49424544 63.52283588 489.7060203 59.5 487.1875 C56.86887082 483.83879014 57.13858602 480.30761936 57.5 476.1875 C59.20881359 472.34266942 60.62087302 470.69732327 64.5 469.1875 C67.20974119 468.72824322 69.84998485 468.36201882 72.578125 468.08203125 C73.37116028 467.99814651 74.16419556 467.91426178 74.98126221 467.82783508 C83.73462848 466.9694308 92.46083133 466.83337049 101.25 466.875 C102.077276 466.87715515 102.904552 466.8793103 103.75689697 466.88153076 C116.86551758 466.93609876 129.6317757 467.4897893 142.5 470.1875 C143.97146484 470.49349121 143.97146484 470.49349121 145.47265625 470.80566406 C165.32935192 475.07398381 181.61991982 481.89380739 198.5 493.1875 C234.12068952 446.2775762 254.57309908 391.7931313 260.5 333.1875 C260.64139404 331.82890869 260.64139404 331.82890869 260.78564453 330.44287109 C266.12534998 273.94133672 255.19960038 215.30801394 228.5 165.1875 C228.12117676 164.46852539 227.74235352 163.74955078 227.35205078 163.00878906 C216.10672525 141.77120172 202.1760387 122.50169028 185.5 105.1875 C184.86787598 104.52814453 184.23575195 103.86878906 183.58447266 103.18945312 C174.92028012 94.19950825 166.14191512 85.78978204 156.08935547 78.37109375 C154.57276333 77.24168689 153.08431989 76.07477162 151.59765625 74.90625 C143.03319286 68.23325246 133.87999912 62.63258343 124.5 57.1875 C123.8184082 56.79030762 123.13681641 56.39311523 122.43457031 55.98388672 C85.31564656 34.63640553 42.94837495 24.70438116 0.375 24.875 C-0.57121216 24.87682281 -1.51742432 24.87864563 -2.49230957 24.88052368 C-16.69869812 24.92655485 -30.52133373 25.46622678 -44.5 28.1875 Z " fill="#8E5F44" transform="translate(620.5,177.8125)"/>
<path d="M0 0 C5.37233693 3.85912869 9.48383155 8.55369438 13.6875 13.625 C14.14527832 14.16801758 14.60305664 14.71103516 15.07470703 15.27050781 C30.74972065 33.91701348 59.6875 70.45835032 59.6875 95.625 C60.13851074 95.28355957 60.58952148 94.94211914 61.05419922 94.59033203 C105.6463463 61.05353207 105.6463463 61.05353207 127.6875 63.625 C131.13011036 65.01528495 132.9685145 66.31161855 134.76953125 69.6015625 C144.11479387 93.05779936 145.02578409 117.76632342 144.6875 142.625 C145.75226563 142.35945312 146.81703125 142.09390625 147.9140625 141.8203125 C149.38012393 141.46319497 150.84627477 141.10644441 152.3125 140.75 C153.00601562 140.57597656 153.69953125 140.40195312 154.4140625 140.22265625 C166.61165456 137.28216531 178.66135831 136.28112189 191.1875 136.3125 C192.50492188 136.29638672 193.82234375 136.28027344 195.1796875 136.26367188 C197.08621094 136.26270508 197.08621094 136.26270508 199.03125 136.26171875 C200.16755859 136.25873779 201.30386719 136.25575684 202.47460938 136.25268555 C206.97639911 136.77435951 210.38815297 138.23604283 213.5 141.5625 C219.79530605 152.49645261 214.28446677 169.84303024 211.24609375 181.19921875 C205.63673919 201.02005784 196.95927906 218.8470927 186.6875 236.625 C185.92246599 237.96183289 185.15809994 239.29904836 184.39453125 240.63671875 C183.83121094 241.62285156 183.26789063 242.60898437 182.6875 243.625 C183.58335815 243.90996338 183.58335815 243.90996338 184.49731445 244.20068359 C195.38110169 247.70755452 205.99910703 251.38869126 216.125 256.75 C216.87370361 257.14493652 217.62240723 257.53987305 218.39379883 257.94677734 C224.6023865 261.34830198 230.93914896 264.89962927 234.8125 270.9375 C235.96924434 275.81235113 235.70301878 279.0374386 233.6875 283.625 C231.31331829 287.23237318 228.56121101 290.40823352 225.6875 293.625 C225.00429688 294.42808594 224.32109375 295.23117187 223.6171875 296.05859375 C192.02363816 332.49026965 145.18471638 354.441116 97.41992188 358.43969727 C71.57797996 360.19220208 46.36737662 356.41201567 22.1875 347.1875 C21.49430664 346.92356445 20.80111328 346.65962891 20.08691406 346.38769531 C14.01975112 343.9637124 8.37356032 340.82834932 2.6875 337.625 C3.91259421 363.48021871 3.91259421 363.48021871 9.6875 388.625 C10.19381541 392.4223656 10.52747865 396.05855334 8.67578125 399.51171875 C6.53098648 402.17177953 4.94760687 403.53829771 1.6875 404.625 C-2.18761359 404.99057675 -4.84215002 404.80022842 -8.5 403.4375 C-21.95921826 389.97828174 -20.03579149 356.27470943 -20.3125 338.625 C-21.14890015 339.04011841 -21.14890015 339.04011841 -22.00219727 339.46362305 C-66.39814761 361.37657029 -113.87223833 365.69535848 -161.16186523 350.1809082 C-170.97515111 346.80673151 -180.24207823 342.65635877 -189.3125 337.625 C-189.95026367 337.27179688 -190.58802734 336.91859375 -191.24511719 336.5546875 C-213.94608721 323.8118916 -238.56402883 304.40919103 -250.3125 280.625 C-251.54271565 275.87094632 -251.052729 273.105458 -248.875 268.75 C-245.7926958 264.36382946 -241.10638047 262.1490385 -236.5 259.625 C-235.56381836 259.10172119 -234.62763672 258.57844238 -233.66308594 258.03930664 C-226.08338204 253.87928612 -218.47199616 250.47832074 -210.3125 247.625 C-209.39597656 247.28855469 -208.47945313 246.95210937 -207.53515625 246.60546875 C-203.92351669 245.32354158 -201.1802231 244.625 -197.3125 244.625 C-198.01375 243.51125 -198.715 242.3975 -199.4375 241.25 C-215.36576866 215.72587946 -235.93727202 179.11146153 -231.3125 147.625 C-229.64532118 142.88670231 -227.45887955 140.4238062 -223.3125 137.625 C-205.14659552 131.56969851 -178.26285172 137.06715051 -160.3125 142.625 C-160.32821045 142.04347168 -160.3439209 141.46194336 -160.36010742 140.86279297 C-160.89059069 117.98262414 -160.45818182 87.86780304 -148.3125 67.625 C-144.1316007 63.84228158 -141.13425196 63.27960872 -135.75634766 63.38867188 C-131.68592891 63.78229479 -128.10200409 65.07886963 -124.3125 66.5625 C-123.49217285 66.87678955 -122.6718457 67.1910791 -121.82666016 67.51489258 C-104.70453911 74.26720874 -89.54671485 84.01142548 -75.3125 95.625 C-75.126875 94.85542969 -75.126875 94.85542969 -74.9375 94.0703125 C-66.22996397 61.74358499 -45.32669807 30.5117743 -22.3125 6.625 C-21.63058594 5.89152344 -20.94867187 5.15804688 -20.24609375 4.40234375 C-14.22562454 -1.93020162 -8.10125295 -4.98755399 0 0 Z M-9.95703125 27.21484375 C-49.32003198 69.84036346 -72.66979851 135.53672328 -70.43066406 193.37158203 C-70.18225662 198.10877355 -69.83067376 202.83530659 -69.4375 207.5625 C-69.35918945 208.54154297 -69.28087891 209.52058594 -69.20019531 210.52929688 C-69.11608398 211.43615234 -69.03197266 212.34300781 -68.9453125 213.27734375 C-68.87199707 214.09195068 -68.79868164 214.90655762 -68.72314453 215.74584961 C-68.51987549 216.67602905 -68.51987549 216.67602905 -68.3125 217.625 C-67.6525 217.955 -66.9925 218.285 -66.3125 218.625 C-66.10496094 217.41328125 -65.89742187 216.2015625 -65.68359375 214.953125 C-60.87820251 188.25291756 -50.39082085 163.54079372 -34.3125 141.625 C-33.67997314 140.76140869 -33.67997314 140.76140869 -33.03466797 139.88037109 C-17.3699363 118.68341892 -17.3699363 118.68341892 -10.3125 116.625 C-3.73411602 116.41279407 -1.09440318 118.29880189 3.65820312 122.61865234 C6.76150553 125.68685965 9.40006474 129.00193515 12 132.5 C12.55196045 133.23395996 13.1039209 133.96791992 13.67260742 134.72412109 C30.23477596 157.01761226 42.65961721 180.37694056 49.16650391 207.45751953 C49.98261574 210.85275893 50.83786993 214.23801316 51.6875 217.625 C52.0175 217.625 52.3475 217.625 52.6875 217.625 C54.55290779 207.70227558 55.08969056 197.99704599 55.0625 187.9375 C55.06195618 187.17521088 55.06141235 186.41292175 55.06085205 185.62753296 C55.01437742 171.351455 53.65580104 157.6126104 50.6875 143.625 C50.47319336 142.614375 50.25888672 141.60375 50.03808594 140.5625 C40.81326 98.45325087 21.80410861 57.74150161 -7.3125 25.625 C-8.57390258 25.50915808 -8.57390258 25.50915808 -9.95703125 27.21484375 Z M-131.3125 89.625 C-136.90283987 105.04799439 -137.87552364 121.56021549 -137.75 137.8125 C-137.74695862 138.65673523 -137.74391724 139.50097046 -137.74078369 140.37078857 C-137.66632879 154.42158726 -136.66594149 167.93178059 -133.3125 181.625 C-133.08755859 182.54394043 -132.86261719 183.46288086 -132.63085938 184.40966797 C-122.58722496 224.14842812 -101.03267255 260.6384855 -67.3125 284.625 C-67.3125 281.17024105 -68.12296838 279.68892587 -69.69140625 276.63671875 C-93.06726548 230.20883782 -96.4690956 180.69054304 -84.85083008 130.28759766 C-84.6370874 129.34190918 -84.42334473 128.3962207 -84.203125 127.421875 C-84.00750977 126.59010742 -83.81189453 125.75833984 -83.61035156 124.90136719 C-83.29066291 122.45810737 -83.48246352 120.9323149 -84.3125 118.625 C-92.7464783 108.82103538 -105.71455874 101.97800913 -116.8125 95.625 C-117.45840088 95.25125244 -118.10430176 94.87750488 -118.76977539 94.49243164 C-122.87308621 92.19782752 -126.74652041 90.75472691 -131.3125 89.625 Z M69.6875 117.625 C69.3575 117.955 69.0275 118.285 68.6875 118.625 C68.83157652 126.1636796 70.60673409 133.58699882 72.125 140.9375 C81.19381604 186.70663027 77.42145448 233.74905202 55.3515625 275.41015625 C53.95141106 278.11514366 52.7538724 280.77595453 51.6875 283.625 C89.28351214 256.87399136 112.64855604 214.20695358 120.5625 169.25 C124.32886667 146.22272024 127.55345991 111.35691983 116.6875 89.625 C100.62860135 89.625 81.49110755 108.04404038 69.6875 117.625 Z M-8.3125 144.625 C-33.87519619 170.33050454 -46.5731103 209.82380688 -46.5612793 245.28369141 C-46.36040358 266.77305813 -39.99975704 287.34466465 -24.96875 303.16796875 C-19.59355699 308.14002228 -13.79781317 312.2196241 -6.3125 312.625 C7.50076269 307.5692773 16.24190915 297.49929073 22.6875 284.625 C36.35228059 254.4276134 32.70302317 222.54333766 21.77294922 192.07568359 C16.38763113 178.07152399 5.74737718 151.65493859 -8.3125 144.625 Z M-207.3125 159.625 C-207.14665477 195.77926038 -181.22453368 232.32761024 -156.87939453 257.08984375 C-152.95167575 260.9380045 -148.68346227 264.30131276 -144.3125 267.625 C-143.40371094 268.34945312 -142.49492187 269.07390625 -141.55859375 269.8203125 C-126.45135068 281.61834994 -107.97902424 292.71275678 -89.3125 297.625 C-88.6525 297.295 -87.9925 296.965 -87.3125 296.625 C-89.20649715 294.87297712 -91.10261738 293.12335022 -93 291.375 C-93.53044922 290.88386719 -94.06089844 290.39273438 -94.60742188 289.88671875 C-96.94007715 287.74010347 -99.23905947 285.68057662 -101.76953125 283.765625 C-134.49219254 256.22028186 -151.16587522 208.15213305 -158.3125 167.625 C-174.12420597 162.20777204 -190.58292932 159.31066569 -207.3125 159.625 Z M142.6875 167.625 C141.62377257 169.83076898 141.62377257 169.83076898 141.28125 172.5078125 C141.09780029 173.50200195 140.91435059 174.49619141 140.7253418 175.52050781 C140.547854 176.58624023 140.37036621 177.65197266 140.1875 178.75 C139.77262404 180.9568078 139.35203937 183.16254994 138.92578125 185.3671875 C138.71904785 186.44452148 138.51231445 187.52185547 138.29931641 188.63183594 C136.96971792 195.13657553 134.95683631 201.38953005 132.6875 207.625 C132.41067383 208.38699707 132.13384766 209.14899414 131.84863281 209.93408203 C123.16128727 233.44626534 111.20646609 254.70724015 94.6875 273.625 C94.23793945 274.1415918 93.78837891 274.65818359 93.32519531 275.19042969 C86.3551175 283.14207567 79.00735419 290.09007907 70.6875 296.625 C74.81799324 298.00183108 77.36940282 296.44210189 81.1875 294.8125 C82.30995117 294.33816528 82.30995117 294.33816528 83.45507812 293.85424805 C103.23140467 285.31167783 120.99345494 274.45037098 136.6875 259.625 C137.9962602 258.51640313 139.30866359 257.41209026 140.625 256.3125 C165.85223502 234.17534799 186.04745051 199.814522 191.6875 166.625 C191.72574623 164.29198014 191.73324284 161.95788492 191.6875 159.625 C176.67212829 159.625 156.21762713 160.46463952 142.6875 167.625 Z M-194 266.125 C-195.38674927 266.51679443 -195.38674927 266.51679443 -196.80151367 266.91650391 C-205.77632976 269.56869636 -214.01481533 273.34021919 -222.3125 277.625 C-222.3125 282.45513372 -221.46402262 283.03031408 -218.25 286.4375 C-217.00283203 287.76201172 -217.00283203 287.76201172 -215.73046875 289.11328125 C-214.93253906 289.94214844 -214.13460937 290.77101563 -213.3125 291.625 C-212.75175781 292.23730469 -212.19101562 292.84960938 -211.61328125 293.48046875 C-188.18871554 318.32112911 -150.26964586 334.1109481 -116.49633789 335.81787109 C-112.12227162 335.90683515 -107.74988894 335.97536383 -103.375 336 C-102.18287903 336.00734161 -102.18287903 336.00734161 -100.9666748 336.01483154 C-86.55881998 336.05140338 -73.28639448 334.27893131 -59.3125 330.625 C-57.75558758 330.23546026 -56.1983296 329.8472973 -54.640625 329.4609375 C-53.54234375 329.18507813 -52.4440625 328.90921875 -51.3125 328.625 C-51.3125 328.295 -51.3125 327.965 -51.3125 327.625 C-51.98490723 327.53524902 -52.65731445 327.44549805 -53.35009766 327.35302734 C-98.21782896 321.23712372 -140.20056728 304.84807795 -172.23828125 271.61328125 C-172.72997803 271.10651855 -173.2216748 270.59975586 -173.72827148 270.07763672 C-175.11882533 268.63380584 -176.49345319 267.17468677 -177.8671875 265.71484375 C-182.60277778 261.66765398 -188.55725202 264.58550907 -194 266.125 Z M161.9375 266.15234375 C160.84870555 267.28383271 159.76572429 268.42093396 158.6875 269.5625 C125.34404243 303.77052032 82.92500671 320.28758568 36.6875 327.625 C39.80728531 329.36153635 42.70102351 330.17975604 46.1953125 330.87890625 C47.26523437 331.09353516 48.33515625 331.30816406 49.4375 331.52929688 C50.55125 331.74650391 51.665 331.96371094 52.8125 332.1875 C53.90304687 332.40857422 54.99359375 332.62964844 56.1171875 332.85742188 C97.97723065 341.14430841 141.01090061 331.01165056 176.4375 307.6875 C188.04843895 299.83418021 197.94596843 290.64530353 207.6875 280.625 C206.33616848 277.32960259 205.27826687 276.05143204 202.00390625 274.66015625 C201.24980469 274.33724609 200.49570312 274.01433594 199.71875 273.68164062 C198.9040625 273.35357422 198.089375 273.02550781 197.25 272.6875 C195.99509766 272.17026367 195.99509766 272.17026367 194.71484375 271.64257812 C177.82027678 264.17697679 177.82027678 264.17697679 161.9375 266.15234375 Z " fill="#8E5F44" transform="translate(627.3125,273.375)"/>
<path d="M0 0 C3.10940434 2.64630157 4.60970175 4.22303235 5.48046875 8.1875 C5.74782831 12.46525301 5.40434187 14.36414629 3.03515625 18.08984375 C-0.36223802 21.88275915 -4.37293614 22.85062188 -9.1875 24.0625 C-10.10168701 24.30653564 -11.01587402 24.55057129 -11.95776367 24.80200195 C-41.54663465 32.45682189 -71.95854706 36.23810542 -102.5 36.1875 C-103.24044556 36.18656342 -103.98089111 36.18562683 -104.74377441 36.18466187 C-172.95467453 35.99905771 -172.95467453 35.99905771 -191.8125 22.75 C-194.56779862 19.28619602 -195.88184737 16.44760245 -196 12 C-194.90433804 8.06850708 -193.89198926 5.81328433 -190.875 3.0625 C-183.66676305 0.39858634 -176.29926161 2.40479091 -169.125 4.3125 C-162.096075 6.08114489 -155.10026358 7.6311375 -147.9375 8.75 C-147.21385254 8.86512939 -146.49020508 8.98025879 -145.74462891 9.09887695 C-135.67302532 10.60859047 -125.57765316 11.157831 -115.40234375 11.203125 C-114.33813705 11.21022995 -113.27393036 11.2173349 -112.17747498 11.22465515 C-77.59979701 11.40310738 -43.67187853 9.78049357 -10.27832031 -0.10131836 C-6.30657574 -1.19008748 -3.95238023 -1.17107562 0 0 Z " fill="#8E5F44" transform="translate(682,688)"/>
<path d="M0 0 C2.97551265 2.06992184 4.59918728 3.63426776 5.6328125 7.15625 C6.21117042 10.84789628 6.27497441 13.31256398 4.875 16.8125 C0.67483907 21.71268775 -4.0022949 24.11836377 -9.875 26.4375 C-10.62531494 26.73825439 -11.37562988 27.03900879 -12.14868164 27.34887695 C-22.37758574 31.39752615 -32.6519669 34.83232004 -43.375 37.3125 C-44.10001709 37.48418701 -44.82503418 37.65587402 -45.57202148 37.83276367 C-51.68836125 39.17108388 -58.33026766 40.53367603 -63.9375 37.3125 C-66.96339099 33.91983435 -68.03472801 31.63221641 -67.9375 27.0625 C-66.7012253 23.02400264 -65.48647357 20.3879956 -62 18 C-57.83000965 16.51660422 -53.56417241 15.5442286 -49.25976562 14.54492188 C-35.32095478 11.18370474 -13.24936028 -3.143916 0 0 Z " fill="#8E5F44" transform="translate(745,704)"/>
<path d="M0 0 C0.93924316 0.09893555 1.87848633 0.19787109 2.84619141 0.29980469 C88.23738858 9.88383035 88.23738858 9.88383035 109.17578125 33.625 C113.97159071 40.41552667 117.21041808 47.29998769 116.2421875 55.75 C114.40960766 65.6126115 109.45556868 71.65920274 101.5 77.5 C45.90164736 113.11023323 -43.76877892 110.74761442 -106.9375 110.6875 C-108.02996033 110.68722809 -109.12242065 110.68695618 -110.24798584 110.68667603 C-278.56923013 110.4962915 -278.56923013 110.4962915 -320.36328125 72.8203125 C-325.61840327 67.16095033 -328.67536384 60.74798305 -329 53 C-328.59502041 43.63321404 -324.18987718 36.82544807 -317.5 30.5 C-294.63722889 10.30603486 -256.51146843 6.4878109 -227.75 2.1875 C-226.07454102 1.93009033 -226.07454102 1.93009033 -224.36523438 1.66748047 C-204.12625175 -1.21564258 -204.12625175 -1.21564258 -197.71191406 1.8190918 C-194.45899609 4.29109403 -193.64720222 6.61225914 -192.5 10.5 C-192.30385164 14.63480744 -193.07468925 17.8012752 -195.25 21.375 C-199.45694784 25.34822851 -204.12505842 25.87810481 -209.73046875 26.61328125 C-211.17499052 26.80834156 -212.61948825 27.00358003 -214.06396484 27.19897461 C-215.19520782 27.34857132 -215.19520782 27.34857132 -216.3493042 27.50119019 C-262.47786604 31.50572666 -262.47786604 31.50572666 -302.5 51.5 C-302.54474642 53.52482909 -302.54474642 53.52482909 -301.5 55.5 C-252.32794779 91.83215463 -151.19346229 84.41407885 -93.5 83.5 C-92.3248584 83.48211426 -91.1497168 83.46422852 -89.93896484 83.44580078 C4.13881142 84.36002004 4.13881142 84.36002004 89.5 54.5 C89.83 53.84 90.16 53.18 90.5 52.5 C86.9253353 48.54692089 83.42823792 46.11414667 78.5625 44.0625 C77.5247644 43.62091553 77.5247644 43.62091553 76.46606445 43.17041016 C56.2128941 34.89482556 33.95071204 31.20247275 12.359375 28.40625 C11.34164001 28.27423691 11.34164001 28.27423691 10.30334473 28.13955688 C7.00747788 27.71641488 3.71121484 27.31272181 0.41015625 26.93115234 C-13.44700627 25.24769436 -13.44700627 25.24769436 -18.375 20.8125 C-20.4131699 16.62292853 -21.11669644 12.79117022 -19.91015625 8.30859375 C-18.24851402 4.43618289 -17.20848112 2.90755738 -13.4375 0.73828125 C-8.8865754 -1.01783331 -4.76516062 -0.55542113 0 0 Z " fill="#8E5F44" transform="translate(725.5,1074.5)"/>
</svg>
