<?xml version="1.0" encoding="UTF-8"?>
<svg version="1.1" xmlns="http://www.w3.org/2000/svg" width="102" height="102">
<path d="M0 0 C11.69690918 9.97295901 17.67451321 21.90679466 19.34765625 37.171875 C19.78895436 51.67715213 15.10612785 64.22732511 5.8125 75.25 C-3.91155896 85.49440994 -15.59999038 90.99957752 -29.67358398 91.46899414 C-38.21146541 91.56477287 -45.30245087 90.80721926 -53.35546875 87.90234375 C-60.06665483 85.61241172 -65.83309208 87.38349378 -72.4375 89.328125 C-75.37728035 90.09892107 -77.97506995 90.31841369 -81 90 C-81.33 89.67 -81.66 89.34 -82 89 C-81.87803984 84.18726456 -81.21111777 79.4521076 -79.9375 74.8125 C-78.39058935 68.52173001 -78.8160765 64.39240623 -81 58.375 C-85.0914975 45.73519523 -85.02785564 29.96706635 -79 18 C-70.96469247 3.14263682 -60.11744686 -5.09021954 -44 -10 C-28.73864884 -13.89651519 -12.18197508 -9.64644662 0 0 Z M-46.4375 24.375 C-51.12613315 29.17799006 -53.0853049 33.60155394 -53.3125 40.25 C-53.21624677 46.11182178 -51.35756266 50.48042474 -47.3515625 54.76171875 C-41.77256353 59.7925628 -37.08208381 61.50591012 -29.55859375 61.3046875 C-24.42914279 60.69385212 -20.7161125 58.85818718 -17.20703125 55.05859375 C-11.98734084 48.32630897 -11.04488905 42.46721956 -12 34 C-14.34363566 27.96100521 -18.47952949 24.22963132 -23.875 20.8125 C-31.69981184 17.82066018 -39.84314511 19.19137775 -46.4375 24.375 Z " fill="#CB7C49" transform="translate(83,11)"/>
</svg>
