<?xml version="1.0" encoding="UTF-8"?>
<svg version="1.1" xmlns="http://www.w3.org/2000/svg" width="425" height="425">
<path d="M0 0 C1.82357998 -0.00435852 3.64715814 -0.00954541 5.47073364 -0.01548767 C10.38007645 -0.02876755 15.28934176 -0.02946865 20.198699 -0.02692437 C24.31834114 -0.02584696 28.43796809 -0.03075763 32.55760694 -0.03552979 C42.28874194 -0.04658728 52.01983833 -0.04708387 61.75097656 -0.04101562 C71.74103732 -0.03498103 81.73095705 -0.04728251 91.72099376 -0.06858569 C100.34233766 -0.0862843 108.963637 -0.09219004 117.58499837 -0.08894795 C122.71456956 -0.0871478 127.84404017 -0.08964283 132.97359467 -0.10366249 C137.80337109 -0.11637132 142.63293006 -0.11417536 147.4627037 -0.1012516 C149.21887414 -0.09891424 150.97506052 -0.10151623 152.73121262 -0.10987473 C180.2405854 -0.23120036 210.73802403 4.11945312 232.34082031 22.2746582 C233.1490625 22.93208008 233.95730469 23.58950195 234.79003906 24.2668457 C238.19026393 27.11155807 240.44674658 29.2408359 242.34082031 33.2746582 C243.48550781 34.7596582 243.48550781 34.7596582 244.65332031 36.2746582 C248.20952762 41.13550961 250.17495054 46.69659359 252.34082031 52.2746582 C252.83146973 53.41849976 252.83146973 53.41849976 253.33203125 54.58544922 C254.40376298 57.44244945 255.02441738 60.1726214 255.59472656 63.16918945 C255.80935547 64.2900293 256.02398437 65.41086914 256.24511719 66.56567383 C256.46232422 67.72776367 256.67953125 68.88985352 256.90332031 70.0871582 C257.23493164 71.81289062 257.23493164 71.81289062 257.57324219 73.57348633 C259.20591442 82.18077649 260.49213611 90.51033779 260.48126221 99.28401184 C260.48571889 100.43184341 260.48571889 100.43184341 260.49026561 101.60286349 C260.49887876 104.14557271 260.50045458 106.68823443 260.50195312 109.23095703 C260.50658675 111.0633555 260.51161214 112.89575301 260.51699829 114.72814941 C260.53007685 119.69366874 260.53655903 124.65917457 260.54100895 129.62470841 C260.54394865 132.73522193 260.54805525 135.84573183 260.55251312 138.95624352 C260.56617968 148.71179938 260.57584894 158.46734689 260.57971501 168.22291166 C260.58418574 179.43940508 260.60169133 190.65577604 260.63071561 201.87223226 C260.65243098 210.56986096 260.66242462 219.26745547 260.66375613 227.96511096 C260.66479766 233.14621526 260.6705644 238.32720433 260.68857574 243.5082798 C260.70522645 248.39294244 260.70713078 253.27740534 260.69843674 258.16208649 C260.6976752 259.93921893 260.70188982 261.71636289 260.71189499 263.49346733 C260.776485 275.69748487 259.5782227 287.27898479 257.34082031 299.2746582 C257.15441105 300.30118405 256.96800179 301.3277099 256.77594376 302.3853426 C255.06857361 311.55753967 252.79643812 320.00955448 248.34082031 328.2746582 C247.90382813 329.10739258 247.46683594 329.94012695 247.01660156 330.7980957 C238.14369417 347.26493285 223.02898689 358.70834869 205.34082031 364.2746582 C187.18955415 369.28050066 169.47194096 371.57910777 150.70336914 371.54931641 C148.87008458 371.55367381 147.03680183 371.55886035 145.20352173 371.56480408 C140.26312912 371.57809691 135.32281346 371.5787835 130.38240647 371.57624078 C126.23796126 371.57516411 122.09353117 371.58007227 117.94908923 371.5848462 C108.15900024 371.59590851 98.36894962 371.59639775 88.57885742 371.59033203 C78.52690179 371.58429913 68.47508638 371.59659348 58.42315465 371.6179021 C49.75087597 371.63560046 41.07864159 371.64150642 32.40634555 371.63826436 C27.24546056 371.63646392 22.08467554 371.63896207 16.92380714 371.6529789 C12.06367572 371.66568698 7.2037604 371.66349243 2.34363174 371.65056801 C0.57617426 371.64823036 -1.19129906 371.65083372 -2.95873833 371.65919113 C-30.50034517 371.77986801 -61.02668834 367.45481931 -82.65917969 349.2746582 C-83.87154297 348.28852539 -83.87154297 348.28852539 -85.10839844 347.2824707 C-88.50862331 344.43775834 -90.76510595 342.30848051 -92.65917969 338.2746582 C-93.42230469 337.2846582 -94.18542969 336.2946582 -94.97167969 335.2746582 C-98.52788699 330.4138068 -100.49330991 324.85272282 -102.65917969 319.2746582 C-102.9862793 318.51209717 -103.31337891 317.74953613 -103.65039062 316.96386719 C-104.72212235 314.10686695 -105.34277676 311.37669501 -105.91308594 308.38012695 C-106.2350293 306.69886719 -106.2350293 306.69886719 -106.56347656 304.98364258 C-106.78068359 303.82155273 -106.99789062 302.65946289 -107.22167969 301.4621582 C-107.44275391 300.31166992 -107.66382813 299.16118164 -107.89160156 297.97583008 C-109.52427379 289.36853992 -110.81049549 281.03897862 -110.79962158 272.26530457 C-110.8025927 271.50008352 -110.80556383 270.73486248 -110.80862498 269.94645292 C-110.81723813 267.4037437 -110.81881395 264.86108198 -110.8203125 262.31835938 C-110.82494612 260.48596091 -110.82997151 258.6535634 -110.83535767 256.82116699 C-110.84843623 251.85564767 -110.8549184 246.89014184 -110.85936832 241.92460799 C-110.86230803 238.81409448 -110.86641462 235.70358458 -110.8708725 232.59307289 C-110.88453905 222.83751703 -110.89420831 213.08196952 -110.89807439 203.32640475 C-110.90254512 192.10991133 -110.92005071 180.89354037 -110.94907498 169.67708415 C-110.97079035 160.97945544 -110.98078399 152.28186094 -110.98211551 143.58420545 C-110.98315704 138.40310114 -110.98892377 133.22211208 -111.00693512 128.04103661 C-111.02358582 123.15637397 -111.02549016 118.27191107 -111.01679611 113.38722992 C-111.01603458 111.61009747 -111.0202492 109.83295352 -111.03025436 108.05584908 C-111.09484437 95.85183154 -109.89658208 84.27033161 -107.65917969 72.2746582 C-107.47277042 71.24813235 -107.28636116 70.2216065 -107.09430313 69.16397381 C-105.38693298 59.99177673 -103.11479749 51.53976192 -98.65917969 43.2746582 C-98.2221875 42.44192383 -97.78519531 41.60918945 -97.33496094 40.7512207 C-88.45875256 24.27825741 -73.34778632 12.85158039 -55.65917969 7.2746582 C-52.01292861 6.26283895 -48.34703189 5.3713118 -44.65917969 4.5246582 C-43.79478271 4.32614258 -42.93038574 4.12762695 -42.03979492 3.9230957 C-27.96877323 0.87252432 -14.34079319 -0.02294049 0 0 Z M29.34082031 54.2746582 C28.36371094 54.6046582 27.38660156 54.9346582 26.37988281 55.2746582 C19.1360435 57.76537659 12.24928544 60.97968278 5.34082031 64.2746582 C5.34082031 64.9346582 5.34082031 65.5946582 5.34082031 66.2746582 C4.62539062 66.5427832 3.90996094 66.8109082 3.17285156 67.0871582 C0.29953092 68.29197127 -2.29255595 69.68702932 -4.97167969 71.2746582 C-5.8546875 71.7902832 -6.73769531 72.3059082 -7.64746094 72.8371582 C-8.31132812 73.3115332 -8.97519531 73.7859082 -9.65917969 74.2746582 C-9.65917969 74.9346582 -9.65917969 75.5946582 -9.65917969 76.2746582 C-10.52542969 76.42161133 -10.52542969 76.42161133 -11.40917969 76.5715332 C-17.37179132 78.43484934 -21.99424058 84.4723242 -25.65917969 89.2746582 C-28.15161976 91.83100699 -30.69883305 94.31242331 -33.28417969 96.7746582 C-35.56330117 99.17373345 -37.01862857 101.42152583 -38.65917969 104.2746582 C-39.25730469 104.9965332 -39.85542969 105.7184082 -40.47167969 106.4621582 C-49.26677984 117.77014411 -54.81226036 131.27355395 -59.47167969 144.7121582 C-59.76163818 145.52080322 -60.05159668 146.32944824 -60.3503418 147.16259766 C-64.64352497 160.03202474 -65.04651778 173.69661084 -64.97167969 187.1496582 C-64.96952454 187.85710175 -64.96736938 188.56454529 -64.96514893 189.29342651 C-64.86156042 210.72037912 -62.03692437 230.95467904 -56.37597656 251.62866211 C-55.34536204 255.43308996 -54.40805513 259.25868059 -53.47167969 263.0871582 C-52.1821293 268.2775985 -50.8038033 273.4275658 -49.27246094 278.55200195 C-48.39903919 282.42954944 -48.05347898 286.32319765 -47.65917969 290.2746582 C-47.21711848 294.50571611 -46.75423865 298.73412788 -46.28417969 302.9621582 C-46.11402344 304.61441406 -46.11402344 304.61441406 -45.94042969 306.30004883 C-44.96600327 315.65401629 -44.96600327 315.65401629 -39.59667969 323.0871582 C-29.63099707 327.11583841 -18.57091457 324.93953691 -8.79199219 321.16918945 C-2.37995784 318.08302339 3.69139581 314.14573463 9.28222656 309.74731445 C13.77856664 306.24152878 13.77856664 306.24152878 16.66113281 306.41137695 C19.99328858 307.48485571 22.53574264 309.10966887 25.46582031 311.0246582 C35.7227678 317.56765599 46.0411335 322.1992326 58.21582031 323.3996582 C59.05516113 323.483125 59.89450195 323.5665918 60.75927734 323.65258789 C81.36252476 325.56210013 101.84180479 324.41850687 121.34082031 317.2746582 C122.8296875 316.77772461 122.8296875 316.77772461 124.34863281 316.27075195 C136.72212265 312.05812507 147.55174449 305.50763316 158.34082031 298.2746582 C159.46230469 297.52635742 159.46230469 297.52635742 160.60644531 296.76293945 C164.25111479 294.25128679 167.29120555 291.47303466 170.34082031 288.2746582 C171.69408795 286.9404124 173.04832709 285.60715154 174.40332031 284.2746582 C177.27120473 281.41215443 179.85118013 278.47562415 182.34082031 275.2746582 C183.06269531 274.5940332 183.78457031 273.9134082 184.52832031 273.2121582 C186.43207006 271.17711537 186.9524609 269.99317411 187.34082031 267.2746582 C188.00082031 267.2746582 188.66082031 267.2746582 189.34082031 267.2746582 C197.08533546 256.65776419 204.39941115 243.50551624 207.69628906 230.7434082 C208.46283431 227.80730761 209.4427287 224.96543998 210.40332031 222.0871582 C220.09292202 189.93698548 215.12920293 153.03981049 200.34082031 123.2746582 C199.89480469 122.3568457 199.44878906 121.4390332 198.98925781 120.4934082 C197.24444449 116.94256004 195.53816499 113.57067522 193.34082031 110.2746582 C192.68082031 110.2746582 192.02082031 110.2746582 191.34082031 110.2746582 C191.25832031 109.5321582 191.17582031 108.7896582 191.09082031 108.0246582 C190.18387048 104.6991755 188.82222332 103.61009633 186.34082031 101.2746582 C185.90769531 100.5115332 185.47457031 99.7484082 185.02832031 98.9621582 C183.05259784 95.81563723 180.68852362 93.53368807 178.02832031 90.9621582 C176.34082031 89.2746582 176.34082031 89.2746582 174.40332031 86.7746582 C170.44834492 81.98074864 165.46148691 77.79511649 160.34082031 74.2746582 C159.68082031 74.2746582 159.02082031 74.2746582 158.34082031 74.2746582 C158.01082031 73.2846582 157.68082031 72.2946582 157.34082031 71.2746582 C136.83341429 55.66953006 110.70009492 47.85753326 85.34082031 46.2746582 C84.24664795 46.19997314 84.24664795 46.19997314 83.13037109 46.1237793 C65.00902397 45.05106618 46.32528678 48.02749812 29.34082031 54.2746582 Z " fill="#CB7C49" transform="translate(137.6591796875,26.725341796875)"/>
<path d="M0 0 C1.64838867 -0.02416992 1.64838867 -0.02416992 3.33007812 -0.04882812 C14.45677319 -0.05538481 24.24068825 2.36421234 34.1875 7.3125 C34.1875 7.9725 34.1875 8.6325 34.1875 9.3125 C34.8990625 9.38855469 35.610625 9.46460938 36.34375 9.54296875 C39.94247652 10.51679996 41.8667026 12.20434381 44.6875 14.625 C46.06421875 15.79482422 46.06421875 15.79482422 47.46875 16.98828125 C48.3659375 17.75527344 49.263125 18.52226562 50.1875 19.3125 C51.08855469 20.01503906 51.98960937 20.71757812 52.91796875 21.44140625 C55.42352089 23.50708521 56.74139817 25.42029634 58.1875 28.3125 C58.1875 28.9725 58.1875 29.6325 58.1875 30.3125 C58.8475 30.3125 59.5075 30.3125 60.1875 30.3125 C60.1875 31.3025 60.1875 32.2925 60.1875 33.3125 C60.8475 33.6425 61.5075 33.9725 62.1875 34.3125 C71.4070529 48.51420684 73.46460369 67.56168569 70.25 84 C69.90478465 85.43967588 69.55093843 86.87731612 69.1875 88.3125 C69.07277344 89.06917969 68.95804688 89.82585937 68.83984375 90.60546875 C66.27442097 101.25120518 59.14570584 112.87786034 51.1875 120.3125 C50.12789062 120.57740234 50.12789062 120.57740234 49.046875 120.84765625 C48.12648438 121.07775391 48.12648438 121.07775391 47.1875 121.3125 C46.90132813 121.90160156 46.61515625 122.49070312 46.3203125 123.09765625 C44.67565865 126.31323809 42.02678946 127.85688128 39.0625 129.75 C38.14609741 130.3387793 38.14609741 130.3387793 37.21118164 130.93945312 C30.32182681 135.14908289 22.97412463 137.36366881 15.1875 139.3125 C14.38570313 139.51359375 13.58390625 139.7146875 12.7578125 139.921875 C-2.85489308 142.29462661 -16.66989818 139.05079882 -30.78125 132.51953125 C-33.88808085 131.06586981 -33.88808085 131.06586981 -37.8125 131.3125 C-40.82699515 133.34637625 -43.66127032 135.49593014 -46.50390625 137.7578125 C-49.35961497 139.92592107 -51.41747952 141.21793151 -54.9453125 142.0625 C-58.46799688 141.14103487 -59.79067618 139.5720086 -61.70507812 136.52734375 C-63.74115073 132.45519854 -64.90774644 128.2018052 -66.0625 123.8125 C-66.31773437 122.90113281 -66.57296875 121.98976563 -66.8359375 121.05078125 C-69.04393363 112.99740591 -69.97711675 105.30072257 -70.05078125 96.96875 C-70.058853 96.08199585 -70.06692474 95.1952417 -70.07524109 94.28161621 C-70.0890155 92.40911778 -70.09976708 90.53659494 -70.10766602 88.6640625 C-70.11913541 86.77726716 -70.13950639 84.89050296 -70.16918945 83.00390625 C-70.35660349 71.05966422 -69.69962799 60.67085518 -65.8125 49.3125 C-65.41353516 48.12881836 -65.01457031 46.94513672 -64.60351562 45.72558594 C-61.07271286 35.60499289 -54.12365267 20.34163892 -43.88671875 15.37890625 C-41.58976896 14.34017053 -41.58976896 14.34017053 -39.515625 11.91796875 C-36.48015945 8.99216597 -33.35954713 7.32245793 -29.5625 5.625 C-28.94503906 5.33044922 -28.32757813 5.03589844 -27.69140625 4.73242188 C-18.61248708 0.56735071 -9.90594267 -0.02874621 0 0 Z " fill="#CB7C49" transform="translate(212.8125,140.6875)"/>
</svg>
