<svg xmlns="http://www.w3.org/2000/svg" width="1254" height="1254" style="shape-rendering:geometricPrecision;text-rendering:geometricPrecision;image-rendering:optimizeQuality;fill-rule:evenodd;clip-rule:evenodd"><path fill="none" d="M-.5-.5h114v29h28q1.294 14.148 0 28h29v57q13.951.989 28 0a258 258 0 0 1 1-27.5q13.991-.75 28-.5-.435 13.238 0 27a26.6 26.6 0 0 0 3.5 2 154 154 0 0 1 24.5-1v29h29v28q-14.655.219-29 1v28h-28q.497-14.035-1-28-11.767-1.395-24 0a18 18 0 0 1-3.5-2 580 580 0 0 0-.5-27h-28a463 463 0 0 0 0 28q13.714 1.143 27.5 0 .75 14.492.5 29h-28q.25 14.508-.5 29a1395 1395 0 0 0-28.5-1.5q.072-13.463 0-27.5h-28v-28a354 354 0 0 1-29-1v-28h-28q-.186 13.71 0 27a11 11 0 0 0 5.5 2 377 377 0 0 1 22.5 0v28q14.01-.25 28 .5-.111 13.668 1 28.5a193 193 0 0 1-1 27.5q-42.497.75-85 .5.498-14.035-1-28a130.6 130.6 0 0 0-27 0z" style="opacity:1"/><path fill="none" d="M113.5-.5h541v29q14.009-.25 28 .5 2 13.5 0 27-13.991.75-28 .5v29h-28v-29h-29v-28q-14.035-.498-28 1-.903 12.855-1 27h-28v-28h-28q.287 14.108-1 27.5-13.991.75-28 .5v29h29a474 474 0 0 0 0 28q13.853 1.294 28 0v29q14.009.25 28-.5a207.5 207.5 0 0 0 1-28.5q14.217.672 28 0v29h29a177.3 177.3 0 0 0 0 28q-14.393.252-29 0v29q-10.427.849-20-2 6.837-17.205-12-18a416.2 416.2 0 0 0-81 17q-6.508-.183-1-1 .7-12.756-1.5-25a300 300 0 0 1-26.5 1q-1.933-14.8 0-29h28v-29h-28a241 241 0 0 1-1-28h-28v-29q-14.009-.25-28 .5.162 13.61-1 28-13.991.75-28 .5v28q-12.86.373-26 1a7.25 7.25 0 0 1-2.5-2 226 226 0 0 1 .5-26 211 211 0 0 0-29-1h-28v-29h-29v-28h-28a391 391 0 0 0-1 27.5q-13.991.75-28 .5v29h-28v-29h-29q1.294-13.852 0-28h-28z" style="opacity:1"/><path fill="none" d="M654.5-.5h285v29h-29v28h-28v-28h-29v28q14.009-.25 28 .5a98.5 98.5 0 0 1 0 28q-13.991.75-28 .5v28h-28v-28a207 207 0 0 1-28.5-1q-.75 14.491-.5 29h-28v29h-28a239 239 0 0 1-1-29h-28v29h-28q.25-14.009-.5-28a207.5 207.5 0 0 0-28.5-1v-57q14.009.25 28-.5 2-13.5 0-27-13.991-.75-28-.5z" style="opacity:1"/><path fill="none" d="M939.5-.5h257c.17 9.34 0 18.673-.5 28q-14.13 1.477-28.5 1v28c9.34.166 18.67 0 28-.5-.3-8.997.03-18.164 1-27.5h28v28h-28c-.31 19-.64 38-1 57-18.73.671-37.4.504-56-.5-.98-9.083-1.32-18.25-1-27.5h-28v28c9.36-.332 18.69.002 28 1 .33.667.67 1.333 1 2-.52 8.585-.85 17.085-1 25.5-9.33.5-18.66.666-28 .5.17-9.339 0-18.673-.5-28-9.21-.126-18.54-.792-28-2-.5-8.994-.67-17.994-.5-27h-28v28c9.36-.332 18.69.002 28 1q.81 13.872 0 28h-57q.885 29.297 0 57h-28v-28q-14.225-.54-29-1v-28h-28v28a239 239 0 0 1-29 1q.442 27.873 0 56a306 306 0 0 1-28 0q-.25-28.005.5-56 13.39.046 27.5-1v-28h-28v28a250 250 0 0 1-28 0 197 197 0 0 1-1-28h-28q-.25 14.009.5 28 13.198-.087 27 1 .75 13.991.5 28h-28a163 163 0 0 1-.5 18q-2.475-3.909-4.5 0a807 807 0 0 0-50-20q-2.179-1.987 1-2.5-1.13-2.23-2.5-.5-1.687-11.866-1.5-23.5-13.996 1.247-28-.5v-28h-28v-29h28a239 239 0 0 0 1 29h28v-29h28q-.25-14.509.5-29a207 207 0 0 0 28.5 1v28h28v-28q14.009.25 28-.5a98.5 98.5 0 0 0 0-28q-13.991-.75-28-.5v-28h29v28h28v-28h29zM312.5 85.5v28h-28v29h-29v-29a154 154 0 0 0-24.5 1 26.6 26.6 0 0 1-3.5-2q-.435-13.762 0-27-14.009-.25-28 .5a258 258 0 0 0-1 27.5q-14.049.989-28 0v-28h28v-29q14.009.25 28-.5a391 391 0 0 1 1-27.5h28v28h29v29zM654.5 85.5v28a207.5 207.5 0 0 1 28.5 1q.75 13.991.5 28h28q.498 14.035-1 28-13.351.686-27 1a448 448 0 0 1-.5-28 207.5 207.5 0 0 0-28.5-1v28q-14.254.39-28 1v28h28v28q29.122 1.34 57 1v28h28q.708 14.75-1.5 29a1160 1160 0 0 0-53.5-.5q-1.827-2.157-2-5 .427-11.757 1-23.5h-29v28q14.259-.376 28 1a197 197 0 0 1 1 28h-29v-28a642 642 0 0 1-27-1q-2.284-14.361-1-28h-29v28q14.045-.246 28 .5a207.5 207.5 0 0 1 1 28.5h-29v-28q-13.509.25-27-.5l-1.5-1.5a777 777 0 0 1 .5-26.5q-14.492-.75-29-.5-.25-14.009.5-28a207.5 207.5 0 0 1 28.5-1q-1.387-7.12-1-14a177 177 0 0 1 2-9q1.343 1.509 2 0a4.46 4.46 0 0 0-2-1.5q1.374-.417 2-1.5l5-4q9.573 2.849 20 2v-29q14.607.252 29 0a177.3 177.3 0 0 1 0-28h-29v-29q-13.783.672-28 0a207.5 207.5 0 0 1-1 28.5q-13.991.75-28 .5v-29q-14.147 1.294-28 0a474 474 0 0 1 0-28h-29v-29q14.009.25 28-.5 1.287-13.392 1-27.5h28v28h28q.097-14.145 1-27a197 197 0 0 1 28-1v28h29v29z" style="opacity:1"/><path fill="none" d="M484.5 196.5a508 508 0 0 0-57 24 117 117 0 0 1-1-21q-14.035-.497-28 1-1.959 13.603 0 27h-29v-28h-28q.498-14.035-1-28a204 204 0 0 0-28-1q.793-13.926 0-28h-28v-29h28v-28a211 211 0 0 1 29 1 226 226 0 0 0-.5 26 7.25 7.25 0 0 0 2.5 2q13.14-.627 26-1v-28q14.009.25 28-.5 1.162-14.39 1-28 13.991-.75 28-.5v29h28q-.317 13.935 1 28h28v29h-28q-1.933 14.2 0 29 13.278.086 26.5-1 2.2 12.244 1.5 25-5.508.817 1 1M1196.5-.5h57v343c-9.42-.343-18.76-.51-28-.5a206 206 0 0 1-1-28.5h-28c-.17-9.339 0-18.673.5-28 8.31-.156 17.15-.489 26.5-1 1-9.31 1.33-18.643 1-28h-28v-28c9.41.068 18.58-.265 27.5-1 .5-9.327.67-18.661.5-28h-28v-28q13.575.459 27-1c1-9.31 1.33-18.643 1-28-9.36-.332-18.69.002-28 1a190 190 0 0 0-1 27q-13.575-.459-27 1c-1 9.31-1.33 18.643-1 28h-28q-.87-14.06 0-28 13.53-.916 27-1c1-9.31 1.33-18.643 1-28-9.36-.332-18.69.002-28 1-.84 8.757-1.17 17.757-1 27-9.38.376-18.72.376-28 0v29h28c-.33 9.69 0 19.356 1 29q13.08-.363 27-1c1 9.644 1.33 19.31 1 29h-29v28c-9.54.526-18.87.526-28 0v-28c-9.34.166-18.67 0-28-.5-.15-9.386-.48-18.886-1-28.5h-28v-28h-29q.885-27.703 0-57h57q.81-14.128 0-28a197 197 0 0 0-28-1v-28h28c-.17 9.006 0 18.006.5 27 9.46 1.208 18.79 1.874 28 2 .5 9.327.67 18.661.5 28 9.34.166 18.67 0 28-.5.15-8.415.48-16.915 1-25.5-.33-.667-.67-1.333-1-2a197 197 0 0 0-28-1v-28h28c-.32 9.25.02 18.417 1 27.5a624 624 0 0 0 56 .5c.36-19 .69-38 1-57h28v-28h-28c-.97 9.336-1.3 18.503-1 27.5-9.33.5-18.66.666-28 .5v-28q14.37.477 28.5-1c.5-9.327.67-18.66.5-28M255.5 199.5q-.497 14.035 1 28 13.774-.317 28 1v28h-29q.497 14.035-1 28a85 85 0 0 1-26 0 29 29 0 0 1-2-8q.44-9.829 1-20h-29a15.9 15.9 0 0 0 1 6.5 273 273 0 0 0-1.5 21.5 89 89 0 0 1-26.5 0 197 197 0 0 1-1-28h-29v-28a197 197 0 0 0-28 0q-1.111-14.832-1-28.5-13.99-.75-28-.5v-28a377 377 0 0 0-22.5 0 11 11 0 0 1-5.5-2q-.186-13.29 0-27h28v28a354 354 0 0 0 29 1v28h28q.072 14.037 0 27.5 14.52.618 28.5 1.5.75-14.492.5-29h28q.25-14.508-.5-29-13.786 1.143-27.5 0a463 463 0 0 1 0-28h28q.563 13.416.5 27a18 18 0 0 0 3.5 2q12.233-1.395 24 0a197 197 0 0 1 1 28z" style="opacity:1"/><path fill="none" d="M284.5 142.5h28q.793 14.074 0 28 14.08-.46 28 1a197 197 0 0 1 1 28h28v28h29q-1.959-13.397 0-27a197 197 0 0 1 28-1 117 117 0 0 0 1 21 597 597 0 0 0-56 34q-.926-.166-1.5-1a314 314 0 0 0-1.5-25q-13.13.125-27-1v29h-29q.497-14.035-1-28-13.969.5-26.5-1-.75-13.991-.5-28h-29v-28q14.345-.781 29-1zM1024.5 199.5h29v28c.17 9.339 0 18.673-.5 28q-14.13 1.477-28.5 1v28c-8.92-.317-17.75.016-26.5 1q-2.208-14.25-1.5-29h-29q.25 14.009-.5 28-13.15.304-27.5 0v-28h-29q-.249 9.014.5 18a82.5 82.5 0 0 1 11.5 10 20.2 20.2 0 0 0 6 1.5q-3.792 1.497 0 2.5 3.249.106 1-2a25.9 25.9 0 0 1 10-1 93.3 93.3 0 0 1-1 18q-51.922-52.952-118-86 2.025-3.909 4.5 0 .749-8.986.5-18h28q.25-14.009-.5-28-13.802-1.087-27-1-.75-13.991-.5-28h28q-.498 14.035 1 28 14.14.784 28 0v-28h28v28q-14.11 1.046-27.5 1-.75 27.995-.5 56a306 306 0 0 0 28 0q.442-28.127 0-56 14.56.382 29-1v-28h28v28q14.775.46 29 1v28zM711.5 142.5h28v28a131.4 131.4 0 0 0 28 .5q-.187 11.634 1.5 23.5 1.37-1.73 2.5.5-3.179.513-1 2.5a438.3 438.3 0 0 0-83-18q-13.187.934-11.5 14 1.608 6.11 7.5 8.5 76.204 9.32 143 46.5a345 345 0 0 0-1 36 218 218 0 0 0 27.5 1 15.3 15.3 0 0 0 1.5 4.5q-1.3 11.3-1 23.5h57a974 974 0 0 0 1 57h28q-.25 14.009.5 28 13.642-.128 27 1a32.4 32.4 0 0 0 1.5 6q-1.104 10.726-1 22h-28v-28a645 645 0 0 1-28-.5 207.5 207.5 0 0 1-1-28.5h-28q.498 14.035-1 28a204 204 0 0 1-28 1v28h29v28q13.644.186 27 0 2.896 14.366 1 29h-28v28q-14.02.123-28 0a197 197 0 0 1-1-28h-28v-28a87.4 87.4 0 0 0-22.5 0 11.53 11.53 0 0 1-5.5-1.5 193 193 0 0 1-1-27.5h-28v-28q-4.473.594-8-2-1.724 3.638-2 0a1819 1819 0 0 0 21.5-55q6.946-19.096 4-39-15.198-17.57-36.5-8.5l-20 15a13789 13789 0 0 0-104 92.5q-.925-2.876-4-3.5-10.887-.295-21.5-.5-.75-13.991-.5-28h-28v-28h28v-29h29a207.5 207.5 0 0 0-1-28.5 395 395 0 0 0-28-.5v-28h29q-1.284 13.639 1 28 12.947.764 27 1v28h29q.498-14.035-1-28-13.741-1.376-28-1v-28h29q-.573 11.743-1 23.5.173 2.843 2 5 27.106-.364 53.5.5 2.208-14.25 1.5-29h-28v-28q-27.878.34-57-1v-28h-28v-28q13.746-.61 28-1v-28a207.5 207.5 0 0 1 28.5 1q-.193 13.72.5 28a954 954 0 0 0 27-1 197 197 0 0 0 1-28" style="opacity:1"/><path fill="none" d="M1053.5 227.5h28c.52 9.614.85 19.114 1 28.5 9.33.5 18.66.666 28 .5v28a147.6 147.6 0 0 1-28 .5 206 206 0 0 1-1-28.5h-28v28c9.25-.318 18.42.015 27.5 1q.42 7.045 1.5 14a59.2 59.2 0 0 0-1 14h29v29h-29q.795 13.663 0 28h-28v-28h-29q.765 14.073 0 28h-28v-28q-10.512.25-21-.5l-7.5-9.5q-.75-9.487-.5-19a73 73 0 0 1-17-1q-3.24-4.872-9-6a6.55 6.55 0 0 1-3-3 93.3 93.3 0 0 0 1-18 25.9 25.9 0 0 0-10 1q2.249 2.106-1 2-3.792-1.003 0-2.5a20.2 20.2 0 0 1-6-1.5 82.5 82.5 0 0 0-11.5-10 163 163 0 0 1-.5-18h29v28q14.35.304 27.5 0 .75-13.991.5-28h29q-.708 14.75 1.5 29c8.75-.984 17.58-1.317 26.5-1v-28q14.37.477 28.5-1c.5-9.327.67-18.661.5-28M572.5 201.5q-.626 1.083-2 1.5a4.46 4.46 0 0 1 2 1.5q-.657 1.509-2 0a177 177 0 0 0-2 9q-.387 6.88 1 14a207.5 207.5 0 0 0-28.5 1q-.75 13.991-.5 28 14.508-.25 29 .5a777 777 0 0 0-.5 26.5l1.5 1.5q13.491.75 27 .5v28h-28q-.233 14.112-.5 28-14.175.742-28.5 1v-29h-28q-1.246 13.51 0 26-.476 1.721-2 2.5l-4.5.5a190 190 0 0 0-22-1q-.75-13.991-.5-28h-28a367 367 0 0 0-.5 28 98.5 98.5 0 0 1-28 0q-.75-13.991-.5-28-14.035-.497-28 1-2 13.5 0 27 13.965 1.498 28 1v28h-28a95.7 95.7 0 0 0 0 27 6.8 6.8 0 0 0 3 1.5q12.49.75 25 .5v28h-28q-1.725-13.914 0-27.5-4.974-1.695-10.5-1.5a940 940 0 0 0-17.5 1 211 211 0 0 1-1-29h-28v-28h28v-29q-13.509-.25-27 .5-2.028 3.441-2 7.5 1.357 10.199 1 20-13.327.651-27 1.5-1.278 2.592-3 .5 102.871-120.704 261-142M255.5 199.5h29q-.25 14.009.5 28 12.531 1.5 26.5 1a197 197 0 0 1 1 28h29v-29q13.87 1.125 27 1a314 314 0 0 1 1.5 25q.574.834 1.5 1-51.89 39.888-93 91-1.346-3.19-5-3.5-9.11.327-17.5-.5-.75-13.991-.5-28h-28q-1.447 14.331 0 27.5-1.144 1.416-3 1.5-12.896-1.406-25.5-1-.75-13.991-.5-28h-28a634 634 0 0 0 0 29h28v28h29a454 454 0 0 0 0 26q-.084 1.856-1.5 3-41.388.419-83-1-2.208 14.25-1.5 29h-28q-.25-14.009.5-28a362 362 0 0 0 27-1q.75-13.991.5-28h-28q.498-14.035-1-28a99 99 0 0 0-28 0v-29h-28a631 631 0 0 1-.5 28 34.3 34.3 0 0 1-8 1 199 199 0 0 1-20-1q-.75-13.991-.5-28h-28v-85a130.6 130.6 0 0 1 27 0 197 197 0 0 1 1 28q42.503.25 85-.5a193 193 0 0 0 1-27.5 197 197 0 0 1 28 0v28h29q-.498 14.035 1 28a89 89 0 0 0 26.5 0q.327-10.805 1.5-21.5a15.9 15.9 0 0 1-1-6.5h29q-.56 10.171-1 20a29 29 0 0 0 2 8 85 85 0 0 0 26 0 197 197 0 0 0 1-28h29v-28q-14.226-1.317-28-1a197 197 0 0 1-1-28" style="opacity:1"/><path fill="none" d="M1253.5 342.5v199h-29v-28c-8.96-.112-17.79-.112-26.5 0-.67-.667-1.33-1.333-2-2-.75-8.904-.58-17.904.5-27-.33-9.357 0-18.69 1-28q13.455-.813 27-1v-28h-28c-.17-9.672 0-19.339.5-29 9.08.985 18.25 1.318 27.5 1v-29h-28q-1.14 14.45-1.5 29c-9.28-.947-18.45-.947-27.5 0v28h-28q-1.185-13.725 0-26.5-2.235-2.919-6-2.5c-7.89 1.13-15.56 1.13-23 0v29c-9.34.166-18.67 0-28-.5a493 493 0 0 0-1-28.5c-9.49.159-18.83.159-28 0 .32-9.251-.02-18.417-1-27.5a393 393 0 0 0-28-.5q.765-13.927 0-28h29v28h28q.795-14.337 0-28h29v-29h-29a59.2 59.2 0 0 1 1-14q-1.08-6.955-1.5-14a193 193 0 0 0-27.5-1v-28h28a206 206 0 0 0 1 28.5c9.36.721 18.69.554 28-.5 9.13.526 18.46.526 28 0v-28h29c.33-9.69 0-19.356-1-29q-13.92.637-27 1c-1-9.644-1.33-19.31-1-29h-28v-29c9.28.376 18.62.376 28 0-.17-9.243.16-18.243 1-27 9.31-.998 18.64-1.332 28-1 .33 9.357 0 18.69-1 28q-13.47.084-27 1-.87 13.94 0 28h28c-.33-9.357 0-18.69 1-28q13.425-1.459 27-1c-.31-9.054.03-18.054 1-27 9.31-.998 18.64-1.332 28-1 .33 9.357 0 18.69-1 28q-13.425 1.459-27 1v28h28c.17 9.339 0 18.673-.5 28-8.92.735-18.09 1.068-27.5 1v28h28c.33 9.357 0 18.69-1 28-9.35.511-18.19.844-26.5 1-.5 9.327-.67 18.661-.5 28h28a206 206 0 0 0 1 28.5c9.24-.01 18.58.157 28 .5M-.5 313.5h28q-.25 14.009.5 28 9.792.993 20 1a34.3 34.3 0 0 0 8-1q.56-13.972.5-28h28v29a99 99 0 0 1 28 0 197 197 0 0 1 1 28h28q.25 14.009-.5 28a362 362 0 0 1-27 1q-.75 13.991-.5 28h-29v28q-13.877 1.485-27 .5a107 107 0 0 1-2-9.5 93.8 93.8 0 0 1 1-19h-29v28q13.855.054 28 1a197 197 0 0 1 1 28h28v28q14.01-.25 28 .5a207.5 207.5 0 0 1 1 28.5h-29q.25 14.009-.5 28-13.493.833-27 1-.75 13.991-.5 28a167.6 167.6 0 0 0 0 28 239 239 0 0 0-29 1v28h-28zM597.5 313.5v29h-28v28h28q-.25 14.009.5 28 10.613.205 21.5.5 3.075.624 4 3.5a343 343 0 0 1-23 21 44 44 0 0 1-2-1 133 133 0 0 1-1-23h-28v28h-29v28h-28q.455 12.583-1 25a26.2 26.2 0 0 1-9 3.5 61 61 0 0 0-19 .5q.25 14.009-.5 28a392 392 0 0 1-27.5 0q-1.321-14.21-1-28h-28q.25-14.508-.5-29a348 348 0 0 1-27.5 0 213 213 0 0 1-1-28h-28q.25 14.009-.5 28-13.433 1.067-27.5 0v29h-29v-29q14.009.25 28-.5a7.9 7.9 0 0 0 1-3.5 272 272 0 0 0-1-23.5q-13.991-.75-28-.5v-29q14.397.46 29 0a413 413 0 0 0-1-27.5q-13.991-.75-28-.5a199 199 0 0 0-1-27q1.722 2.092 3-.5 13.673-.849 27-1.5.357-9.801-1-20-.028-4.059 2-7.5 13.491-.75 27-.5v29h-28v28h28q-.498 14.534 1 29a940 940 0 0 1 17.5-1q5.526-.195 10.5 1.5-1.725 13.586 0 27.5h28v-28q-12.51.25-25-.5a6.8 6.8 0 0 1-3-1.5 95.7 95.7 0 0 1 0-27h28v-28q-14.035.498-28-1-2-13.5 0-27a197 197 0 0 1 28-1q-.25 14.009.5 28a98.5 98.5 0 0 0 28 0q-.286-13.93.5-28h28q-.25 14.009.5 28 11.143-.134 22 1l4.5-.5q1.524-.779 2-2.5-1.246-12.49 0-26h28v29q14.325-.258 28.5-1 .267-13.888.5-28z" style="opacity:1"/><path fill="none" d="M941.5 306.5q5.76 1.128 9 6a73 73 0 0 0 17 1q-.25 9.513.5 19l7.5 9.5q10.488.75 21 .5v28h28c-.17 9.339 0 18.673.5 28q14.13 1.477 28.5 1-1.02 14.047 0 28c-9.36.332-18.69-.002-28-1q-1.995-2 0-4a7.25 7.25 0 0 0-2-2.5c1.53-2.757 2.19-5.757 2-9-.26-3.848-.59-7.682-1-11.5-3.76-1.408-7.43-1.242-11 .5q.06 3.143 3 6c-.24.902-.58 1.735-1 2.5q-30.567-55.582-74-102M311.5 343.5a199 199 0 0 1 1 27q14.009-.25 28 .5.946 13.4 1 27.5-14.603.46-29 0v29q14.009-.25 28 .5a272 272 0 0 1 1 23.5 7.9 7.9 0 0 1-1 3.5q-13.991.75-28 .5v29h-28q.708-14.75-1.5-29-12.894-.293-27 1-.75 13.991-.5 28-10.013-.25-20 .5-3.135 1.004-5 3.5 26.226-80.999 81-145" style="opacity:1"/><path fill="none" d="M826.5 248.5q151.45 86.26 201.5 254c3.47 12.543 6.3 25.21 8.5 38q-.93-.166-1.5-1c-2.8 1.844-5.97 2.511-9.5 2q-.69-13.801-1.5-28-13.965-1.135-27-1l-1 57q-13.918 1.842-28.5 0 .25-28.005-.5-56-12.781-1.024-26.5-1a197 197 0 0 1-1-28h-29q1.896-14.634-1-29-13.356.186-27 0v-28h-29v-28q14.08.46 28-1a197 197 0 0 0 1-28h28a207.5 207.5 0 0 0 1 28.5 645 645 0 0 0 28 .5v28h28q-.104-11.274 1-22a32.4 32.4 0 0 1-1.5-6 289 289 0 0 0-27-1q-.75-13.991-.5-28h-28a974 974 0 0 1-1-57h-57q-.3-12.2 1-23.5a15.3 15.3 0 0 1-1.5-4.5 218 218 0 0 1-27.5-1q-.439-18.075 1-36M1024.5 370.5c9.34-.166 18.67 0 28 .5.98 9.083 1.32 18.249 1 27.5 9.17.159 18.51.159 28 0 .61 9.495.94 18.995 1 28.5 9.33.5 18.66.666 28 .5v-29c7.44 1.13 15.11 1.13 23 0q3.765-.419 6 2.5-1.185 12.775 0 26.5h28v-28c9.05-.947 18.22-.947 27.5 0q.36-14.55 1.5-29h28v29c-9.25.318-18.42-.015-27.5-1-.5 9.661-.67 19.328-.5 29h28v28q-13.545.187-27 1c-1 9.31-1.33 18.643-1 28h-29c.17 9.339 0 18.673-.5 28a14.5 14.5 0 0 1-5 1q-11.235.03-22.5-1c-1-9.31-1.33-18.643-1-28h-28c-.33 9.357 0 18.69 1 28q13.68-.11 27 1c.41 9.211.74 18.544 1 28h28c.33 9.357 0 18.69-1 28-9.38.308-18.54.641-27.5 1 .71 9.274.54 18.608-.5 28h-28c-.33-9.357 0-18.69 1-28 8.8-.597 17.64-.93 26.5-1 .5-9.327.67-18.661.5-28h-28c.17-9.339 0-18.673-.5-28-9.26-.103-18.59-.437-28-1-.5-9.327-.67-18.661-.5-28h-28c-.36-9.112-.53-18.445-.5-28-2.95-.178-6.12-.178-9.5 0a8.4 8.4 0 0 1-.5 4q-3.465-7.458-4.5 0a895 895 0 0 0-23-52c.42-.765.76-1.598 1-2.5q-2.94-2.857-3-6c3.57-1.742 7.24-1.908 11-.5.41 3.818.74 7.652 1 11.5.19 3.243-.47 6.243-2 9a7.25 7.25 0 0 1 2 2.5q-1.995 2 0 4c9.31.998 18.64 1.332 28 1q-1.02-13.953 0-28-14.37.477-28.5-1c-.5-9.327-.67-18.661-.5-28M758.5 397.5q.276 3.638 2 0 3.527 2.594 8 2v28q-10.548-.495-21 1-1.024 4.442-2.5 1-.575.834-1.5 1a757 757 0 0 1 15-33" style="opacity:1"/><path fill="#803e1a" d="M770.5 197.5a807 807 0 0 1 50 20q66.078 33.048 118 86a6.55 6.55 0 0 0 3 3q43.433 46.418 74 102a895 895 0 0 1 23 52c20.63 56.475 30.29 114.808 29 175a571 571 0 0 1-15 103c-20.37 74.261-56.366 139.594-108 196q-7 6-13 13-35.108 32.771-75 59c-46.451 27.59-96.117 46.93-149 58a211 211 0 0 1-25 2.5c-4.796-2.76-7.129-6.92-7-12.5 1.667-3.67 4.333-6.33 8-8 51.215-7.18 99.215-23.52 144-49q64.95-35.923 113-93a228.3 228.3 0 0 0 27-35c22.243-31.003 39.58-64.67 52-101a609 609 0 0 0 7-23c19.69-67.434 23.02-135.768 10-205a391 391 0 0 0-8.5-38q-50.05-167.74-201.5-254-66.796-37.18-143-46.5-5.892-2.39-7.5-8.5-1.687-13.066 11.5-14a438.3 438.3 0 0 1 83 18" style="opacity:1"/><path fill="none" d="M278.5 345.5q-136.66 190.46-69.5 416 16.319 48.127 41.5 92-1.599 1.788-2.5-1-.75 1.75-2.5 2.5-8.986.749-18 .5a193 193 0 0 1-1 27.5q-13.991.75-28 .5v-28q-13.93-.215-26.5-1-2.208 14.25-1.5 29h-29v-29a261 261 0 0 0 29 0 667 667 0 0 1 0-28h-29v-28q-14-.24-27.5-1a39 39 0 0 0-1.5-7q.465-10.938 1-21v-28a266 266 0 0 0-29-1v-28h29v-28a129.6 129.6 0 0 1 28 0v28h29q.25-14.009-.5-28-13.325-1.834-26 0a9.5 9.5 0 0 0-2.5-1.5q1.488-13.039 0-27.5h-28v-28q13.828.13 27-1a197 197 0 0 0 1-28v-28q13.95-.76 28-.5a207.5 207.5 0 0 0 1-28.5h-29v-29q14.447 1.368 29 0v-28h-29q.25-14.508-.5-29-13.294.775-27.5 0-1.32-13.64 0-28h28q-.708-14.75 1.5-29 41.612 1.419 83 1 1.416-1.144 1.5-3a454 454 0 0 1 0-26h-29v-28h-28a634 634 0 0 1 0-29h28q-.25 14.009.5 28 12.604-.406 25.5 1 1.856-.084 3-1.5-1.447-13.169 0-27.5h28q-.25 14.009.5 28 8.39.827 17.5.5 3.654.31 5 3.5" style="opacity:1"/><path fill="#7f3d19" d="M758.5 397.5a757 757 0 0 0-15 33 8742 8742 0 0 0-75 160 31.5 31.5 0 0 1-5-4.5 20.1 20.1 0 0 0-6-1.5q1.526-9.18-5.5-15-2.373-.518-4.5 0 1.711-1.388 0-2.5l3-1q-1.75-.75-2.5-2.5-1.6 2.675-4.5 1.5 2.21-1.064 2-3.5-2.976.175-5-2-1.842 2.514-4 1a5112 5112 0 0 1 97.5-213 23.7 23.7 0 0 1 2.5-6l-1-1-29 21.5a6305 6305 0 0 1-104 85 436.7 436.7 0 0 1-62 40.5 100.3 100.3 0 0 1-26 7q-12.032-.006-23-5-1.329-1.237-1-3h3q2.706.993 6 1 4.971.236 9-2 23.095-8.049 43-22.5a1045 1045 0 0 0 49-39.5 343 343 0 0 0 23-21 13789 13789 0 0 1 104-92.5l20-15q21.302-9.07 36.5 8.5 2.946 19.904-4 39a1819 1819 0 0 1-21.5 55" style="opacity:1"/><path fill="none" d="M600.5 423.5a1045 1045 0 0 1-49 39.5q-19.905 14.451-43 22.5a89.4 89.4 0 0 1-15 1h-3q-.329 1.763 1 3 10.968 4.994 23 5-.626 1.083-2 1.5l2 1q-2.394 7.355-3 15.5a3.65 3.65 0 0 0-1.5 1 82.5 82.5 0 0 0-25.5 0 197 197 0 0 0-1 28h-28v-28a295 295 0 0 0-29-1v-28h28q-.321 13.79 1 28a392 392 0 0 0 27.5 0q.75-13.991.5-28a61 61 0 0 1 19-.5 26.2 26.2 0 0 0 9-3.5 164 164 0 0 0 1-25h28v-28h29v-28h28a133 133 0 0 0 1 23q1.025.544 2 1" style="opacity:1"/><path fill="#ac866d" d="M508.5 485.5q-4.029 2.236-9 2-3.294-.007-6-1a89.4 89.4 0 0 0 15-1" style="opacity:1"/><path fill="none" d="M540.5 487.5a2.43 2.43 0 0 1 2 .5q-2.924 11.841-2 24.5 14.022.255 28 .5a207.5 207.5 0 0 1 1 28.5h-29q.25 14.009-.5 28-13.917 1.323-27.5 0 .43-13.89-1-28h-28q-.498-14.035 1-28a82.5 82.5 0 0 1 25.5 0 3.65 3.65 0 0 1 1.5-1q.606-8.145 3-15.5l-2-1q1.374-.417 2-1.5a100.3 100.3 0 0 0 26-7" style="opacity:1"/><path fill="none" d="M636.5 560.5a2097 2097 0 0 0-43 107q-1.12-4.329.5-9a21 21 0 0 1 2.5-1 3.65 3.65 0 0 0-1-1.5 113.2 113.2 0 0 0-26 .5q-.745 14.129 0 27h-29v-28h-28v-28h28v-29h-28q.498-14.035-1-28a276 276 0 0 1-27.5-1q-.75-13.991-.5-28h28a212.5 212.5 0 0 1 1 28q13.583 1.323 27.5 0 .75-13.991.5-28h29a207.5 207.5 0 0 0-1-28.5q-13.978-.245-28-.5-.924-12.659 2-24.5a2.43 2.43 0 0 0-2-.5 436.7 436.7 0 0 0 62-40.5 6305 6305 0 0 0 104-85l29-21.5 1 1a23.7 23.7 0 0 0-2.5 6 5112 5112 0 0 0-97.5 213M113.5 427.5q-1.32 14.36 0 28 14.206.775 27.5 0 .75 14.492.5 29h29v28q-14.553 1.368-29 0v29h29a207.5 207.5 0 0 1-1 28.5q-14.05-.26-28 .5v28h-28a614 614 0 0 0 0 27 328 328 0 0 1-11 2q-8.942-1.236-17.5 0-.75 13.991-.5 28h-28v-28q13.875.477 27.5-1 .75-13.991.5-28h-28q-.25-14.009.5-28a548 548 0 0 0 27-1q.75-13.991.5-28h29a207.5 207.5 0 0 0-1-28.5q-13.99-.75-28-.5v-28h-28q.498-14.035-1-28a445 445 0 0 0-28-1v-28h29a93.8 93.8 0 0 0-1 19 107 107 0 0 0 2 9.5q13.123.985 27-.5v-28z" style="opacity:1"/><path fill="none" d="M426.5 484.5v28q14.465-.215 29 1v28h28q-.25 14.009.5 28a276 276 0 0 0 27.5 1 197 197 0 0 1 1 28 263 263 0 0 0 0 27q-14.5 1.208-29 2v28h-28v-28q13.581.458 27-1a197 197 0 0 0 1-28q-14.009-.25-28 .5-1.577 13.482 0 27.5-14.355.332-29 0v-28h-28a61 61 0 0 1-1 13 228 228 0 0 1 1.5 15 193 193 0 0 0 27.5 1v28h-28q-.57 14.133 0 28 13.9.189 28 1v28h-28a822 822 0 0 1 0-28 153.6 153.6 0 0 0-28-.5 207.5 207.5 0 0 1-1-28.5h-28v-28h28v-29h-28q-.25-14.009.5-28a511 511 0 0 0 27.5-1v-28h-28q-.25-14.009.5-28a286 286 0 0 1 27.5-1v-28h-28v-29q14.067 1.067 27.5 0 .75-13.991.5-28h28a213 213 0 0 0 1 28q13.88.543 27.5 0 .75 14.492.5 29M910.5 484.5h29q-.498 14.035 1 28 13.719-.024 26.5 1 .75 27.995.5 56 14.582 1.842 28.5 0l1-57q13.035-.135 27 1 .81 14.199 1.5 28c3.53.511 6.7-.156 9.5-2q.57.834 1.5 1c13.02 69.232 9.69 137.566-10 205a4.95 4.95 0 0 0-.5-3c-.33.333-.67.667-1 1a9.3 9.3 0 0 0-1.5-2.5c-9.04-.44-17.87-.606-26.5-.5q-.75-13.991-.5-28h-29v-28q14.604-.8 28.5 0 .75-14.492.5-29-.25-14.009.5-28 13.365-1.617 27 0c.5-9.661.67-19.328.5-29h-28v28a142.6 142.6 0 0 1-28 .5 207.5 207.5 0 0 1-1-28.5h-28v-28q-15.173.243-29-1v-28h-28v-28q14.922-.663 28-1zM1196.5 484.5c-1.08 9.096-1.25 18.096-.5 27 .67.667 1.33 1.333 2 2 8.71-.112 17.54-.112 26.5 0v28h29v200c-9.41-.813-19.08-1.146-29-1v-28h-28v-28c9.1-.274 18.27-.607 27.5-1 .5-9.327.67-18.661.5-28h-28v-28h28v-29a393 393 0 0 0-28 .5 420 420 0 0 0-1.5 28.5c-9.2-.464-18.37-.464-27.5 0v28h-28c-.27-9.156-.61-18.322-1-27.5q14.37-.27 28.5-1.5c.5-9.327.67-18.661.5-28a393 393 0 0 0-28 .5 194 194 0 0 0-1 27.5c-9.64-.135-18.97.198-28 1v28c-9.36.332-18.69-.002-28-1 .02-8.816-.32-17.816-1-27h-11c.17 5.344 0 10.677-.5 16-.33-4.667-.67-9.333-1-14q-.285 3.312-1.5 6c1.29-60.192-8.37-118.525-29-175q1.035-7.458 4.5 0c.49-1.293.66-2.627.5-4 3.38-.178 6.55-.178 9.5 0-.03 9.555.14 18.888.5 28h28c-.17 9.339 0 18.673.5 28 9.41.563 18.74.897 28 1 .5 9.327.67 18.661.5 28h28c.17 9.339 0 18.673-.5 28-8.86.07-17.7.403-26.5 1-1 9.31-1.33 18.643-1 28h28c1.04-9.392 1.21-18.726.5-28 8.96-.359 18.12-.692 27.5-1 1-9.31 1.33-18.643 1-28h-28c-.26-9.456-.59-18.789-1-28q-13.32-1.11-27-1c-1-9.31-1.33-18.643-1-28h28c-.33 9.357 0 18.69 1 28q11.265 1.03 22.5 1a14.5 14.5 0 0 0 5-1c.5-9.327.67-18.661.5-28z" style="opacity:1"/><path fill="none" d="M312.5 484.5h57v28q-13.675-.165-27.5 1-.75 13.991-.5 28h28v28a511 511 0 0 1-27.5 1q-.75 13.991-.5 28h28v29h-28v28h28a207.5 207.5 0 0 0 1 28.5q14.02-1.029 28 .5a822 822 0 0 0 0 28h-29q.498 14.035-1 28-13.78 1.233-27 1v28h-29q-.32 2.466 1 4.5a288 288 0 0 0-1.5 23.5 193 193 0 0 1-27.5 1v28q-10.05.495-20-1a4.46 4.46 0 0 0-1.5-2 8.4 8.4 0 0 0-.5 4q-64.447-119.36-50.5-255a546 546 0 0 1 18.5-84q1.865-2.496 5-3.5 9.987-.75 20-.5-.25-14.009.5-28 14.106-1.293 27-1 2.208 14.25 1.5 29z" style="opacity:1"/><path fill="none" d="M341.5 541.5a2836 2836 0 0 0-.5 28q-14.352.947-28 1-.75 13.991-.5 28h-28v-28a739 739 0 0 1-29-1 193 193 0 0 1 1-27.5q13.991-.75 28-.5-.25 14.009.5 28a4.93 4.93 0 0 0 2.5 1q12.26.262 24.5-1 1.64-14.191.5-28zM939.5 598.5h28a207.5 207.5 0 0 0 1 28.5q14.052 1.128 28-.5v-28h28c.17 9.672 0 19.339-.5 29q-13.635-1.617-27 0-.75 13.991-.5 28h-29v28q-13.873.766-28 0v-28h-28q-1.462-14.206-1-28a320 320 0 0 1 28-.5 207.5 207.5 0 0 0 1-28.5M1253.5 741.5v28h-29v-28a393 393 0 0 0-28 .5q-.15 13.058 0 26.5a211 211 0 0 1-29 1v-28c-9.34.166-18.67 0-28-.5-.86-9.227-1.2-18.727-1-28.5h29v-28c-9.34.166-18.67 0-28-.5a206 206 0 0 1-1-28.5h-28v-28c9.03-.802 18.36-1.135 28-1-.32-9.251.02-18.417 1-27.5a393 393 0 0 1 28-.5c.17 9.339 0 18.673-.5 28q-14.13 1.23-28.5 1.5c.39 9.178.73 18.344 1 27.5h28v-28c9.13-.464 18.3-.464 27.5 0q.27-14.365 1.5-28.5a393 393 0 0 1 28-.5v29h-28v28h28c.17 9.339 0 18.673-.5 28-9.23.393-18.4.726-27.5 1v28h28v28c9.92-.146 19.59.187 29 1M512.5 598.5h28v29h-28v28h28v28h29q-.745-12.871 0-27a113.2 113.2 0 0 1 26-.5q.686.621 1 1.5-1.12.355-2.5 1-1.62 4.671-.5 9-2.292 10.658-7 20v-3q-8.335-1.934-16 0a197 197 0 0 0-1 28h-29q.25-14.009-.5-28-13.436-.082-27.5 0v28h-29q.498 14.035-1 28a219.5 219.5 0 0 1-27 1v28h28q.498 14.035-1 28a89 89 0 0 1-26.5 0q-1.395-14.04-1.5-27.5-13.991-.75-28-.5v-28q-14.472.259-28-1a259 259 0 0 1 0-28h28v-28q-14.1-.811-28-1-.57-13.867 0-28h28v-28a193 193 0 0 1-27.5-1 228 228 0 0 0-1.5-15 61 61 0 0 0 1-13h28v28q14.645.332 29 0-1.577-14.018 0-27.5 13.991-.75 28-.5.498 14.035-1 28a190 190 0 0 1-27 1v28h28v-28q14.5-.792 29-2a263 263 0 0 1 0-27M825.5 655.5v28q14.048-.173 27.5 1 .75 13.991.5 28v28q-13.853 1.294-28 0v57q13.806.384 27.5 1 .75 13.991.5 28h-28v-28h-29q.006 14.025 0 28h-28v-29a124.7 124.7 0 0 0 28 0v-28h-28q.708-14.75-1.5-29a241 241 0 0 1-27.5 1v28h-85v-29q14.508.25 29-.5-1.071-13.464 0-27.5h-29v-28q-11.843.122-23-1-2.446 2.338-2.5 6a12.9 12.9 0 0 1-.5-5 192 192 0 0 1 12-29h14q-.25-14.009.5-28a579 579 0 0 1 27 0l1.5-1.5a372 372 0 0 1 0-27.5h28v28a236 236 0 0 1-28 1v28h28v28q13.876-.477 27.5 1a34 34 0 0 0 1.5 7.5q.306 10.112-1 20.5h29v-28a489 489 0 0 0-28-.5 98.5 98.5 0 0 1 0-28q13.991-.75 28-.5v28q13.356.192 27 1 2.673 14.127 2 27 13.965 1.498 28 1v-28a337 337 0 0 0-29-1v-28z" style="opacity:1"/><path fill="#7f3e19" d="M668.5 590.5a2008 2008 0 0 0-28 65 192 192 0 0 0-12 29q-31.815 79.976-48 165-2.135 3.022-2 7a300 300 0 0 0-3 28 490 490 0 0 0 27-7 813 813 0 0 1 74-16l10-1a385 385 0 0 1 32-1q14.717 1.322 27.5 9 .886 1.475-1 2-14.967-4.285-30.5-2.5-33.773 4.501-66 14.5-9.478 1.334-18 5a177.5 177.5 0 0 0-25 7 233 233 0 0 0-23 8q-60.247 19.115-109 58.5-15.921 2.944-10.5-12.5 5.467-11.478 15.5-19.5 31.822-23.661 70-35.5l1-2a1237 1237 0 0 0-3-12 401 401 0 0 1 1-33 719 719 0 0 1 14-74 3311 3311 0 0 1 25-85q4.708-9.342 7-20a2097 2097 0 0 1 43-107q2.158 1.514 4-1 2.024 2.175 5 2 .21 2.436-2 3.5 2.9 1.175 4.5-1.5.75 1.75 2.5 2.5l-3 1q1.711 1.112 0 2.5 2.127-.518 4.5 0 7.026 5.82 5.5 15 3.096.28 6 1.5a31.5 31.5 0 0 0 5 4.5" style="opacity:1"/><path fill="none" d="M768.5 427.5h28a193 193 0 0 0 1 27.5 11.53 11.53 0 0 0 5.5 1.5 87.4 87.4 0 0 1 22.5 0v28h28q-.498 14.035 1 28 13.98.123 28 0v-28h28v28q-13.078.337-28 1v28h28v28q13.827 1.243 29 1v28q-14.009-.25-28 .5a193 193 0 0 0-1 27.5 193 193 0 0 0-27.5 1 85 85 0 0 1-1.5 10.5 85 85 0 0 1 1 17.5h28v28q14.304-.434 29 1v28h-29v28h-28a193 193 0 0 0-1-27.5q-13.991-.75-28-.5.25-14.009-.5-28a277 277 0 0 0-27.5-1v-28h-29v28q14.436-.127 29 1v28q-14.035.498-28-1 .673-12.873-2-27a604 604 0 0 0-27-1v-28q-14.009-.25-28 .5a98.5 98.5 0 0 0 0 28q14.206-.148 28 .5v28h-29q1.306-10.388 1-20.5a34 34 0 0 1-1.5-7.5 193 193 0 0 0-27.5-1v-28h-28v-28q14.049.331 28-1v-28h-28a372 372 0 0 0 0 27.5l-1.5 1.5a579 579 0 0 0-27 0q-.75 13.991-.5 28h-14a2008 2008 0 0 1 28-65 8742 8742 0 0 1 75-160q.925-.166 1.5-1 1.476 3.442 2.5-1a111 111 0 0 1 21-1" style="opacity:1"/><path fill="none" d="M825.5 655.5v-28q-14.08.46-28-1a197 197 0 0 1-1-28h-28v-28a4339 4339 0 0 1 27 0 211 211 0 0 0 1-29h-28q.498 14.035-1 28-2.66.88-5.5 1a98.3 98.3 0 0 0-22 0 137.8 137.8 0 0 1 .5-28.5q-14.492-.75-29-.5-.498-14.035 1-28a249 249 0 0 1 27-1 193 193 0 0 1 1-27.5q13.991-.75 28-.5-.498 14.035 1 28 13.03.255 26 1a38.8 38.8 0 0 1 2 10.5q-1.855 8.78 0 17.5h28v28a374 374 0 0 0 28 1v28h-28v28q13.81.258 27.5 1 .75 13.991.5 28zM56.5 598.5h28q.25 14.009-.5 28a193 193 0 0 1-27.5 1v28h28q-.25-14.009.5-28 8.558-1.236 17.5 0a328 328 0 0 0 11-2 614 614 0 0 1 0-27h28q.498 14.035-1 28-13.172 1.13-27 1v28h28q1.488 14.461 0 27.5 1.375.561 2.5 1.5 12.675-1.834 26 0 .75 13.991.5 28h-29v-28a129.6 129.6 0 0 0-28 0v28h-29v28q14.541-.29 29 1v28h-29q.25 14.009-.5 28a193 193 0 0 1-27.5 1v28h28q-.25 14.009.5 28 13.605-.417 27.5 1a197 197 0 0 1 1 28h-29q.498-14.035-1-28l-2-1q-12 2-24 0a211 211 0 0 0-1 29h-29q.25-14.009-.5-28a944 944 0 0 1-27.5-1v-199h28v-28a239 239 0 0 1 29-1 167.6 167.6 0 0 1 0-28M939.5 598.5a207.5 207.5 0 0 1-1 28.5 320 320 0 0 0-28 .5q-.462 13.794 1 28h28v28q14.127.766 28 0v-28h29q.25 14.508-.5 29-13.896-.8-28.5 0v28h29q-.25 14.009.5 28c8.63-.106 17.46.06 26.5.5q.945 1.125 1.5 2.5c.33-.333.67-.667 1-1 .48.948.65 1.948.5 3a609 609 0 0 1-7 23 147 147 0 0 1-23 1v29a837 837 0 0 1-28-1 197 197 0 0 1-1-28h-28q.25 14.009-.5 28-14.19 1.438-28 1 .89 14.143-.5 28h29q-.25 14.009.5 28 13.016-.448 26.5 1 1.169 7.202 1 14a228.3 228.3 0 0 1-27 35 614 614 0 0 1-1-49q-27.995-.496-57-1v-28h-29q.25-14.009-.5-28-13.694-.616-27.5-1v-57q14.147 1.294 28 0v-28q14.009-.25 28 .5a193 193 0 0 1 1 27.5h28v-28h29v-28q-14.696-1.434-29-1v-28h-28a85 85 0 0 0-1-17.5 85 85 0 0 0 1.5-10.5 193 193 0 0 1 27.5-1 193 193 0 0 1 1-27.5q13.991-.75 28-.5M654.5 769.5h-28q-1.295 13.853 0 28-14.418.201-28.5 0-.75 14.492-.5 29h29a205 205 0 0 0 0 28q-14.616.827-28.5 0a121 121 0 0 0 0 22q1.676-.247 3.5-1 1.197.686 1 2a490 490 0 0 1-27 7 300 300 0 0 1 3-28q2.135-3.022 2-7 16.185-85.024 48-165a12.9 12.9 0 0 0 .5 5q.054-3.662 2.5-6 11.157 1.122 23 1v28h29q-1.071 14.036 0 27.5-14.492.75-29 .5zM586.5 687.5a3311 3311 0 0 0-25 85q-1.356-1.063-1-3h-20q.25 14.009-.5 28a193 193 0 0 1-27.5 1v28h28q.813 13.935-.5 28a261 261 0 0 0-27.5 1 300 300 0 0 0-28-.5 207.5 207.5 0 0 1-1-28.5h-28v-28a314 314 0 0 0-29 0v28h-28q-.145-14.168 0-27.5a626 626 0 0 0-28.5-1.5q-.75-13.991-.5-28h-28v-28q13.22.233 27-1a197 197 0 0 0 1-28h29a259 259 0 0 0 0 28q13.528 1.259 28 1v28q14.009-.25 28 .5.105 13.46 1.5 27.5a89 89 0 0 0 26.5 0 197 197 0 0 0 1-28h-28v-28q13.329.34 27-1a197 197 0 0 0 1-28h29v-28q14.064-.082 27.5 0 .75 13.991.5 28h29q-.498-14.035 1-28 7.665-1.934 16 0z" style="opacity:1"/><path fill="none" d="M1019.5 768.5c-12.42 36.33-29.757 69.997-52 101q.169-6.798-1-14-13.484-1.448-26.5-1-.75-13.991-.5-28h-29a172 172 0 0 0 .5-28q13.81.438 28-1 .75-13.991.5-28h28q-.498 14.035 1 28 13.709.724 28 1v-29c7.72.267 15.39-.066 23-1M1110.5 655.5h28a206 206 0 0 0 1 28.5c9.33.5 18.66.666 28 .5v28h-29c-.2 9.773.14 19.273 1 28.5 9.33.5 18.66.666 28 .5v28c9.69.332 19.36-.002 29-1q-.15-13.442 0-26.5a393 393 0 0 1 28-.5v28h29v200c-9.37-1.301-18.53-1.301-27.5 0q-2.205-14.25-1.5-29c-9.36-.332-18.69.002-28 1q-1.995 13.5 0 27c9.31.998 18.64 1.332 28 1v28h-28c-.76 9.63-1.26 19.3-1.5 29-8.96-.58-18.12-.91-27.5-1v-28c-9.67.166-19.34 0-29-.5.67-9.223 1-18.223 1-27a393 393 0 0 1 28-.5v-29h-28c-.22-9.772-.55-19.439-1-29h-28v-28c9.34.166 18.67 0 28-.5q1.425-13.932 0-27.5c-9.26-.989-18.42-1.323-27.5-1-.5-9.327-.67-18.661-.5-28h28c-.17 9.339 0 18.673.5 28q2.865.946 6 1c7.17.171 14.34-.162 21.5-1 1-9.31 1.33-18.643 1-28h-28a563 563 0 0 0-.5-27c-1.82-1.545-3.99-2.212-6.5-2-7.11.747-14.27.747-21.5 0-.5-28.331-.67-56.665-.5-85h-29v28c-9.93.6-19.59-.067-29-2a571 571 0 0 0 15-103q1.215-2.688 1.5-6c.33 4.667.67 9.333 1 14 .5-5.323.67-10.656.5-16h11c.68 9.184 1.02 18.184 1 27 9.31.998 18.64 1.332 28 1" style="opacity:1"/><path fill="#813e1a" d="m577.5 197.5-5 4q-158.129 21.296-261 142-54.774 64.001-81 145a546 546 0 0 0-18.5 84q-13.947 135.64 50.5 255a360.8 360.8 0 0 0 51.5 76q103.353 118.328 259.5 143.5 8.045 4.365 6 13.5c-2.41 4.56-6.243 6.89-11.5 7-41.216-6.07-80.716-17.74-118.5-35a617 617 0 0 1-51-27q-36.54-23.016-68-53l-16-15q-36.075-39.051-64-84-25.181-43.873-41.5-92-67.16-225.54 69.5-416 41.11-51.112 93-91a597 597 0 0 1 56-34 508 508 0 0 1 57-24 416.2 416.2 0 0 1 81-17q18.837.795 12 18" style="opacity:1"/><path fill="none" d="M654.5 769.5h57q-.498 14.535 1 29 13.644-1.194 27 0 .366 13.843 1 28h56q.006-13.975 0-28h29v28h57v28q29.005.504 57 1a614 614 0 0 0 1 49q-48.05 57.077-113 93-2.958-13.41-2-28h-29a103.1 103.1 0 0 1 0 28h-28v-29a108 108 0 0 0 28 0v-28h-28q.708-14.75-1.5-29-10.428.072-21 0a40 40 0 0 0-6 2 545 545 0 0 1-.5 27h-28v29a193 193 0 0 1-27.5-1q-.75 14.492-.5 29h28v29h-28v20c-3.667 1.67-6.333 4.33-8 8h-21v-29c-8.973-.15-17.973.02-27 .5a207.5 207.5 0 0 1-1-28.5h-29q.25-14.009-.5-28-12.657-.08-26.5-.5a142 142 0 0 1-2-9q.332-9.26 1-18.5a197 197 0 0 1 28-1v-29h29q-.334-5.61-1-10.5a59 59 0 0 0 1.5-7.5q.621.686 1.5 1 3.128-3.21 0-5.5 1.374-.417 2-1.5 8.522-3.666 18-5 3.399-.538 5.5 2 .75 13.491.5 27 13.876-.477 27.5 1l1.5-4.5q-1.573-11.92 0-24.5h28v28h28a193 193 0 0 1 1-27.5q13.991-.75 28-.5v-28q-14.317-1.398-28-.5a207.5 207.5 0 0 1-1-28.5h-28v29q-14.073-2.157-28 1-1.577 4.509-6 1-6.955 1.482-1 4a813 813 0 0 0-74 16q.197-1.314-1-2-1.824.753-3.5 1a121 121 0 0 1 0-22q13.884.827 28.5 0a205 205 0 0 1 0-28h-29q-.25-14.508.5-29 14.082.201 28.5 0-1.295-14.147 0-28z" style="opacity:1"/><path fill="none" d="M768.5 826.5h-28a1526 1526 0 0 1-1-28q-13.356-1.194-27 0a211 211 0 0 1-1-29h28v-28q13.712.288 27.5-1 2.208 14.25 1.5 29h28v28a124.7 124.7 0 0 1-28 0zM648.5 882.5q32.227-9.999 66-14.5 15.533-1.785 30.5 2.5 1.886-.525 1-2-12.783-7.678-27.5-9-5.98-.999-12.5-1-10.097-.22-19.5 2l-10 1q-5.955-2.518 1-4 4.423 3.509 6-1 13.927-3.157 28-1v-29h28a207.5 207.5 0 0 0 1 28.5q13.683-.898 28 .5v28q-14.009-.25-28 .5a193 193 0 0 0-1 27.5h-28v-28h-28q-1.573 12.58 0 24.5l-1.5 4.5a193 193 0 0 0-27.5-1q.25-13.509-.5-27-2.101-2.538-5.5-2M1253.5 969.5v284h-58v-28h-28v-29h28c-.32-9.25.02-18.42 1-27.5 9.33-.5 18.66-.67 28-.5v-28c-9.3.09-18.63-.41-28-1.5-.82-9.17-1.16-18.33-1-27.5h-28c.33 9.36 0 18.69-1 28-1.27.55-2.61.88-4 1-8.12-.75-15.95-1.08-23.5-1-.5-9.33-.67-18.66-.5-28h-28v-29h28v-28h-28c-.04-9.33-.04-18.66 0-28-9.7-.48-19.37-.48-29 0v-29h29v-28c-9.34.166-18.67 0-28-.5a206 206 0 0 1-1-28.5h-28v29h-29v-29h-28q.25 14.009-.5 28a98.5 98.5 0 0 1-28 0q-.75-13.991-.5-28-13.01.25-26-.5 3.5-1.5 5-5a2.43 2.43 0 0 0-2-.5c51.634-56.406 87.63-121.739 108-196 9.41 1.933 19.07 2.6 29 2v-28h29c-.17 28.335 0 56.669.5 85 7.23.747 14.39.747 21.5 0 2.51-.212 4.68.455 6.5 2 .38 8.956.55 17.956.5 27h28c.33 9.357 0 18.69-1 28-7.16.838-14.33 1.171-21.5 1a20.1 20.1 0 0 1-6-1c-.5-9.327-.67-18.661-.5-28h-28c-.17 9.339 0 18.673.5 28 9.08-.323 18.24.011 27.5 1q1.425 13.568 0 27.5c-9.33.5-18.66.666-28 .5v28h28c.45 9.561.78 19.228 1 29h28v29a393 393 0 0 0-28 .5c0 8.777-.33 17.777-1 27 9.66.5 19.33.666 29 .5v28c9.38.09 18.54.42 27.5 1 .24-9.7.74-19.37 1.5-29h28v-28c-9.36.332-18.69-.002-28-1q-1.995-13.5 0-27c9.31-.998 18.64-1.332 28-1q-.705 14.75 1.5 29c8.97-1.301 18.13-1.301 27.5 0" style="opacity:1"/><path fill="#ae836a" d="M580.5 849.5q.135 3.978-2 7-.135-3.978 2-7" style="opacity:1"/><path fill="#c4a593" d="M718.5 859.5a385 385 0 0 0-32 1q9.403-2.22 19.5-2 6.52.001 12.5 1" style="opacity:1"/><path fill="#dccabd" d="M547.5 846.5a401 401 0 0 0-1 33q-.999-6.48-1-13.5-.279-10.107 2-19.5" style="opacity:1"/><path fill="none" d="M113.5 769.5q-.535 10.062-1 21a39 39 0 0 1 1.5 7q13.5.76 27.5 1v28h29a667 667 0 0 0 0 28 261 261 0 0 1-29 0v29h29q-.708-14.75 1.5-29 12.57.785 26.5 1v28q14.009.25 28-.5a193 193 0 0 0 1-27.5q9.014.249 18-.5 1.75-.75 2.5-2.5.901 2.788 2.5 1 27.925 44.949 64 84a10.5 10.5 0 0 0-3 2.5q-13.491.75-27 .5.497-14.035-1-28a95.8 95.8 0 0 0-27.5 0q-.75-14.492-.5-29h-28q-1.875 13.747 0 28h-29v29q14.534-.498 29 1-1.212 12.362 0 25-.084 1.855-1.5 3a275 275 0 0 0-27.5 0v28q14.009-.25 28 .5c.118 9.09.785 18.42 2 28 8.923.65 17.923.48 27-.5v-28h29c.332 9.36-.002 18.69-1 28-8.983.46-17.983.79-27 1a197 197 0 0 0-1 28h29v28c-9.339-.17-18.673 0-28 .5a207.5 207.5 0 0 0-1 28.5h-28v-29h-29c1.23-9.35 1.23-18.68 0-28h-28v-28c-9.643.15-19.31-.18-29-1 .073-9.34.073-18.68 0-28h-28v-28a252 252 0 0 0-28-.5 207 207 0 0 1-1-28.5h-28q-.27 14.013 0 28-14.418.535-29 0v-28h-28v-86q14.508.728 27.5 1 .75 13.991.5 28h29a211 211 0 0 1 1-29q12 2 24 0l2 1a197 197 0 0 1 1 28h29q.498-14.035-1-28a208 208 0 0 0-27.5-1q-.75-13.991-.5-28h-28v-28q13.875.477 27.5-1 .75-13.991.5-28zM341.5 769.5a311 311 0 0 1-1 28q-13.799.303-28 1v28q14.508-.25 29 .5-1.565 11.04 0 22.5.132 3.318-1.5 6-13.499-1.824-27.5 0v28h29q-.25-14.009.5-28 13.313.336 27-1 .75-13.991.5-28h29a155 155 0 0 0-.5 30q-.779-1.524-2.5-2a219 219 0 0 0-25 1 197 197 0 0 0-1 28h29q-2.325 14.098 1 28 12.87 1.134 26 0a211 211 0 0 1 1 29h29q-.498-14.535 1-29 13.385 1.646 27 0v-28h29v-28a261 261 0 0 1 27.5-1q1.313-14.065.5-28h-28v-28q13.876.477 27.5-1 .75-13.991.5-28h20q-.356 1.937 1 3a719 719 0 0 0-14 74q-2.279 9.393-2 19.5.001 7.02 1 13.5 1.482 5.8 3 12l-1 2q-38.178 11.839-70 35.5-10.033 8.022-15.5 19.5-5.421 15.444 10.5 12.5 48.753-39.385 109-58.5 12.295-2.262 23-8a177.5 177.5 0 0 1 25-7q-.626 1.083-2 1.5 3.128 2.29 0 5.5a3.65 3.65 0 0 1-1.5-1 59 59 0 0 1-1.5 7.5q.666 4.89 1 10.5h-29v29q-14.035-.498-28 1a510 510 0 0 0-1 18.5 142 142 0 0 0 2 9q13.843.42 26.5.5.75 13.991.5 28h-28c-.059 8.54-.392 16.87-1 25l1.5 3c9.083.98 18.249 1.32 27.5 1v28h-15c.308 2.42-.026 4.76-1 7-.683-.36-1.35-.7-2-1q2.045-9.135-6-13.5-156.147-25.172-259.5-143.5a360.8 360.8 0 0 1-51.5-76 8.4 8.4 0 0 1 .5-4 4.46 4.46 0 0 1 1.5 2q9.95 1.495 20 1v-28q13.876.477 27.5-1a288 288 0 0 1 1.5-23.5q-1.32-2.034-1-4.5z" style="opacity:1"/><path fill="none" d="M512.5 855.5v28h-29v28q-13.615 1.646-27 0a211 211 0 0 0-1 29h-29q.498-14.535-1-29a149.3 149.3 0 0 1-26 0q-3.325-13.902-1-28h-29q-.498-14.035 1-28a219 219 0 0 1 25-1q1.721.476 2.5 2a155 155 0 0 1 .5-30h28v-28a314 314 0 0 1 29 0v28h28a207.5 207.5 0 0 0 1 28.5 300 300 0 0 1 28 .5M341.5 769.5h28q-.25 14.009.5 28 14.23.423 28.5 1.5-.145 13.332 0 27.5h-29q.25 14.009-.5 28-13.687 1.336-27 1-.75 13.991-.5 28h-29v-28q14.001-1.824 27.5 0 1.632-2.682 1.5-6-1.565-11.46 0-22.5-14.492-.75-29-.5v-28q14.201-.697 28-1a311 311 0 0 0 1-28" style="opacity:1"/><path fill="#d3baad" d="M605.5 894.5q-10.705 5.738-23 8a233 233 0 0 1 23-8" style="opacity:1"/><path fill="none" d="M827.5 997.5c-44.785 25.48-92.785 41.82-144 49v-20h28v-29h-28q-.25-14.508.5-29a193 193 0 0 0 27.5 1v-29h28q.591-13.859.5-27a40 40 0 0 1 6-2q10.572.072 21 0 2.208 14.25 1.5 29h28v28a108 108 0 0 1-28 0v29h28a103.1 103.1 0 0 0 0-28h29q-.958 14.59 2 28M-.5 969.5h28v28h29c-.885 5.6-1.218 10.94-1 16a89.5 89.5 0 0 1 1.5 12c9.087.17 18.254.5 27.5 1v28c9.672-.17 19.339 0 29 .5-.969 9.45-.969 18.62 0 27.5q14.223.495 28 0v29c-.086 1 .248 1.83 1 2.5q-.98 12.66-2 25.5-13.491.375-27 0v29h-57c.166-9.34 0-18.67-.5-28a96 96 0 0 0-27.5 0 197 197 0 0 0-1 28h28q1.734 13.53.5 27c-9.417.99-18.917 1.32-28.5 1v29h29c-.294 9.61-.294 18.94 0 28h-57z" style="opacity:1"/><path fill="none" d="M-.5 940.5h28v28q14.582.535 29 0-.27-13.987 0-28h28a207 207 0 0 0 1 28.5 252 252 0 0 1 28 .5v28h28c.073 9.32.073 18.66 0 28 9.69.82 19.357 1.15 29 1v28h28c1.23 9.32 1.23 18.65 0 28h29v29h-29c-.214 7.25.12 14.42 1 21.5a39 39 0 0 1-2 6.5c-8.186.48-16.853.82-26 1a197 197 0 0 0-1 28h-29c-.166-9.34 0-18.67.5-28a206 206 0 0 1 28.5-1v-28h-29v-29q-13.777.495-28 0c-.969-8.88-.969-18.05 0-27.5-9.661-.5-19.328-.67-29-.5v-28c-9.246-.5-18.413-.83-27.5-1a89.5 89.5 0 0 0-1.5-12c-.218-5.06.115-10.4 1-16h-29v-28h-28zM330.5 952.5q31.46 29.984 68 53c-1.082 6.11-1.082 12.78 0 20 9.32.63 18.654.96 28 1v28h-28c.15-9.36-.183-18.69-1-28-9.152-.62-18.485-.95-28-1v-28h-28v-28a968 968 0 0 0-28.5-1 112.2 112.2 0 0 1 1.5-29 328 328 0 0 1 15.5 15 2.43 2.43 0 0 0 .5-2" style="opacity:1"/><path fill="none" d="m314.5 937.5 16 15a2.43 2.43 0 0 1-.5 2 328 328 0 0 0-15.5-15 112.2 112.2 0 0 0-1.5 29 968 968 0 0 1 28.5 1v28h28v28c9.515.05 18.848.38 28 1 .817 9.31 1.15 18.64 1 28h28v-28c-9.346-.04-18.68-.37-28-1-1.082-7.22-1.082-13.89 0-20a617 617 0 0 0 51 27 5.6 5.6 0 0 1-1 3q3.704.81 6.5 3c.499 5.32.666 10.66.5 16h28v28c9.339-.17 18.673 0 28 .5q1.477 14.13 1 28.5h-29v28q14.064.075 27.5 0a148 148 0 0 1 1.5 29h28v28h29c9.054-.31 18.054.03 27 1 .679 9.23 1.346 18.39 2 27.5 9.327.5 18.661.67 28 .5.252 9.37-.082 18.71-1 28h-171c.768-9.37 1.101-18.71 1-28 9.203.2 18.536-.13 28-1v-28q-14.127.765-28 0c-.748-9.6-.748-18.93 0-28h-29c.166-9.67 0-19.34-.5-29a89.2 89.2 0 0 1-26.5 0 15.8 15.8 0 0 1-2-4c.233-7.81.566-15.48 1-23-9.644-1-19.31-1.33-29-1v28c-8.9.56-18.066.89-27.5 1a28 28 0 0 0-1.5-5q-.432-11.955 1-24h-29v-29q-14.13.66-28 0v-28h-29c-.332-9.36.002-18.69 1-28 9.017-.21 18.017-.54 27-1 .998-9.31 1.332-18.64 1-28h-29v28c-9.077.98-18.077 1.15-27 .5-1.215-9.58-1.882-18.91-2-28q-13.991-.75-28-.5v-28a275 275 0 0 1 27.5 0q1.416-1.145 1.5-3-1.212-12.638 0-25a211 211 0 0 0-29-1v-29h29q-1.875-14.253 0-28h28q-.25 14.508.5 29a95.8 95.8 0 0 1 27.5 0 197 197 0 0 1 1 28q13.509.25 27-.5a10.5 10.5 0 0 1 3-2.5M944.5 934.5a2.43 2.43 0 0 1 2 .5q-1.5 3.5-5 5 12.99.75 26 .5-.25 14.009.5 28a98.5 98.5 0 0 0 28 0q.75-13.991.5-28h28v29h29v-29h28a206 206 0 0 0 1 28.5c9.33.5 18.66.666 28 .5v28h-29v29c9.63-.48 19.3-.48 29 0-.04 9.34-.04 18.67 0 28h28v28h-28v29h28c-.17 9.34 0 18.67.5 28 7.55-.08 15.38.25 23.5 1 1.39-.12 2.73-.45 4-1 1-9.31 1.33-18.64 1-28h28c-.16 9.17.18 18.33 1 27.5 9.37 1.09 18.7 1.59 28 1.5v28c-9.34-.17-18.67 0-28 .5-.98 9.08-1.32 18.25-1 27.5h-28v29h28v28h-85v-28a89.2 89.2 0 0 0-26 0c-1.34-.85-2.34-2.01-3-3.5-.06-8.14.27-16.47 1-25 9.39.09 18.72-.08 28-.5v-28h-29c.12-1.7.45-3.37 1-5-.77-7.64-1.27-15.3-1.5-23-9.08-.98-18.25-1.32-27.5-1v-57h28v-28h-57c1.29-9.38 1.29-18.71 0-28q-14.01-.345-27 0a211 211 0 0 1-1-29h-29q.25-14.009-.5-28-12.847-1.512-26 0a330 330 0 0 1-2.5-25l-6 5q-.43-1.05-1-2 6-7 13-13M853.5 1139.5q-13.317.27-28 0v-28c-9.357.33-18.69 0-28-1 .01-9.26-.323-18.59-1-28h-28v29h28v28h-28v29c-9.672.17-19.339 0-29-.5q.894-14.235 0-28.5h-28v-28h-28v-28c9.384-.74 18.718-1.07 28-1v-18h-4c52.883-11.07 102.549-30.41 149-58 .283.72.616 1.55 1 2.5-1.786.2-3.119 1.03-4 2.5.204 4.55.204 9.21 0 14-9.315.12-18.648.45-28 1v28h28c-.166-9.34 0-18.67.5-28 9.314.2 18.814-.13 28.5-1v-28h28v29c9.392.08 18.725-.08 28-.5q1.477 14.13 1 28.5h-29v28h-28c.166 9.34 0 18.67-.5 28a206 206 0 0 1-28.5 1z" style="opacity:1"/><path fill="none" d="M597.5 997.5h29q-.477 14.37 1 28.5c9.027-.48 18.027-.65 27-.5v29h21c-.129 5.58 2.204 9.74 7 12.5a211 211 0 0 0 25-2.5h4v18c-9.282-.07-18.616.26-28 1v28c-.314 9.55-.314 18.88 0 28q12.871.78 26.5 0c1.143 4.66 1.643 9.49 1.5 14.5-.013 4.75-.347 9.41-1 14q-13.527.255-27 1.5-.111 13.035-1 27h-28v-28h-28c.332-9.36-.002-18.69-1-28-9.28-.97-18.613-1.31-28-1v-28h-28a285 285 0 0 0-.5 27c3.667.67 7.333 1.33 11 2q8.877-1.755 17.5 0v28h-28c-.4 9.73-.4 19.07 0 28h-29v-28h-28a148 148 0 0 0-1.5-29q-13.436.075-27.5 0v-28h29q.477-14.37-1-28.5c-9.327-.5-18.661-.67-28-.5v-28h-28c.166-5.34-.001-10.68-.5-16q-2.796-2.19-6.5-3 .941-1.38 1-3c37.784 17.26 77.284 28.93 118.5 35 5.257-.11 9.09-2.44 11.5-7 .65.3 1.317.64 2 1a13.1 13.1 0 0 0 1-7h15v-28c-9.251.32-18.417-.02-27.5-1l-1.5-3c.608-8.13.941-16.46 1-25zM1110.5 1253.5h-285v-28h28c-.166-9.34 0-18.67.5-28a206 206 0 0 1 28.5-1v-28c-9.339.17-18.673 0-28-.5a207.5 207.5 0 0 1-1-28.5v-28c9.583.32 19.083-.01 28.5-1 .5-9.33.666-18.66.5-28h28v-28h29q.477-14.37-1-28.5c-9.275.42-18.608.58-28 .5v-29h-28v28c-9.686.87-19.186 1.2-28.5 1a393 393 0 0 0-.5 28h-28v-28c9.352-.55 18.685-.88 28-1 .204-4.79.204-9.45 0-14 .881-1.47 2.214-2.3 4-2.5-.384-.95-.717-1.78-1-2.5q39.892-26.229 75-59 .57.95 1 2l6-5a330 330 0 0 0 2.5 25q13.153-1.512 26 0 .75 13.991.5 28h29a211 211 0 0 0 1 29q12.99-.345 27 0c1.29 9.29 1.29 18.62 0 28h57v28h-28v57c9.25-.32 18.42.02 27.5 1 .23 7.7.73 15.36 1.5 23-.55 1.63-.88 3.3-1 5h29v28c-9.28.42-18.61.59-28 .5-.73 8.53-1.06 16.86-1 25 .66 1.49 1.66 2.65 3 3.5a89.2 89.2 0 0 1 26 0zM284.5 1082.5q13.87.66 28 0v29h29a155.5 155.5 0 0 0-1 24 28 28 0 0 1 1.5 5c9.434-.11 18.6-.44 27.5-1v-28c9.69-.33 19.356 0 29 1a828 828 0 0 0-1 23 15.8 15.8 0 0 0 2 4 89.2 89.2 0 0 0 26.5 0c.5 9.66.666 19.33.5 29h29c-.748 9.07-.748 18.4 0 28q13.873.765 28 0v28c-9.464.87-18.797 1.2-28 1 .101 9.29-.232 18.63-1 28h-256c.427-9.47.427-18.8 0-28q-14.19-.6-28 0v-29h-29c.166 9.34 0 18.67-.5 28q-13.27.135-27.5 0c.318-9.25-.015-18.42-1-27.5-9.327-.5-18.66-.67-28-.5v-28h29v-29q13.509.375 27 0 1.02-12.84 2-25.5c-.752-.67-1.086-1.5-1-2.5h29v28a206 206 0 0 0-28.5 1 393 393 0 0 0-.5 28h29c-.332-9.36.002-18.69 1-28 9.147-.18 17.814-.52 26-1a39 39 0 0 0 2-6.5c-.88-7.08-1.214-14.25-1-21.5h57q-.477-14.37 1-28.5c9.327-.5 18.661-.67 28-.5" style="opacity:1"/><path fill="none" d="M853.5 1139.5q-.477 14.37 1 28.5c9.327.5 18.661.67 28 .5v28a206 206 0 0 0-28.5 1 393 393 0 0 0-.5 28h-28v28h-29v-28c-9.054.31-18.054-.03-27-1a197 197 0 0 1-1-28h-29c.277 9.23.611 18.39 1 27.5a4.5 4.5 0 0 1-2 1.5q-13.356-.18-27 0v-29q-13.779.72-27 0c-.693 8.69-1.36 17.36-2 26q.314.885 1 1.5a147.6 147.6 0 0 1-29 1.5v28h-29c.918-9.29 1.252-18.63 1-28-9.339.17-18.673 0-28-.5-.654-9.11-1.321-18.27-2-27.5a190 190 0 0 0-27-1c-.4-8.93-.4-18.27 0-28h28v-28q-8.623-1.755-17.5 0c-3.667-.67-7.333-1.33-11-2a285 285 0 0 1 .5-27h28v28c9.387-.31 18.72.03 28 1 .998 9.31 1.332 18.64 1 28h28v28h28q.889-13.965 1-27 13.473-1.245 27-1.5c.653-4.59.987-9.25 1-14 .143-5.01-.357-9.84-1.5-14.5q-13.629.78-26.5 0c-.314-9.12-.314-18.45 0-28h28v28h28q.894 14.265 0 28.5c9.661.5 19.328.67 29 .5v-29h28v-28h-28v-29h28a384 384 0 0 1 1 28c9.31 1 18.643 1.33 28 1v28q14.683.27 28 0M84.5 1168.5v28c9.34-.17 18.673 0 28 .5.985 9.08 1.318 18.25 1 27.5q14.23.135 27.5 0c.5-9.33.666-18.66.5-28h29v29q13.81-.6 28 0c.427 9.2.427 18.53 0 28h-142c-.294-9.06-.294-18.39 0-28h-29v-29c9.583.32 19.083-.01 28.5-1q1.234-13.47-.5-27h-28c-.332-9.36.002-18.69 1-28a96 96 0 0 1 27.5 0c.5 9.33.666 18.66.5 28z" style="opacity:1"/><path fill="none" d="M796.5 1253.5h-142v-28q14.659.675 29-1.5a3.6 3.6 0 0 1-1-1.5c.64-8.64 1.307-17.31 2-26q13.221.72 27 0v29q13.644-.18 27 0a4.5 4.5 0 0 0 2-1.5c-.389-9.11-.723-18.27-1-27.5h29c-.332 9.36.002 18.69 1 28 8.946.97 17.946 1.31 27 1z" style="opacity:1"/></svg>