<?xml version="1.0" encoding="UTF-8"?>
<!DOCTYPE svg PUBLIC "-//W3C//DTD SVG 1.1//EN" "http://www.w3.org/Graphics/SVG/1.1/DTD/svg11.dtd">
<svg xmlns="http://www.w3.org/2000/svg" version="1.1" width="1254px" height="1254px" style="shape-rendering:geometricPrecision; text-rendering:geometricPrecision; image-rendering:optimizeQuality; fill-rule:evenodd; clip-rule:evenodd" xmlns:xlink="http://www.w3.org/1999/xlink">
<g><path style="opacity:1" fill="none" d="M -0.5,-0.5 C 417.5,-0.5 835.5,-0.5 1253.5,-0.5C 1253.5,417.5 1253.5,835.5 1253.5,1253.5C 835.5,1253.5 417.5,1253.5 -0.5,1253.5C -0.5,835.5 -0.5,417.5 -0.5,-0.5 Z"/></g>
<g><path style="opacity:1" fill="#dbc5b6" d="M 710.5,149.5 C 715.894,149.124 720.894,150.124 725.5,152.5C 720.35,151.623 715.35,150.623 710.5,149.5 Z"/></g>
<g><path style="opacity:1" fill="#ac7c5c" d="M 655.5,279.5 C 651.081,280.972 646.414,281.638 641.5,281.5C 645.919,280.028 650.586,279.362 655.5,279.5 Z"/></g>
<g><path style="opacity:1" fill="#854319" d="M 655.5,279.5 C 689.057,276.206 720.057,283.206 748.5,300.5C 747.141,301.007 746.141,302.007 745.5,303.5C 744.914,303.291 744.414,302.957 744,302.5C 743.481,303.516 742.647,304.182 741.5,304.5C 739.833,303.5 738.167,302.5 736.5,301.5C 735.369,302.751 734.036,303.751 732.5,304.5C 731.558,304.392 730.725,304.059 730,303.5C 727.238,306.881 723.905,309.548 720,311.5C 717.476,310.822 715.309,309.488 713.5,307.5C 712.893,307.624 712.56,307.957 712.5,308.5C 691.755,293.109 668.422,287.276 642.5,291C 618.851,295.328 597.184,304.328 577.5,318C 546.885,338.781 521.552,364.614 501.5,395.5C 500.316,394.312 500.316,393.145 501.5,392C 499.393,390.736 498.393,388.903 498.5,386.5C 497.325,386.719 496.325,386.386 495.5,385.5C 496.567,383.441 497.9,381.608 499.5,380C 495.834,379.61 495.668,378.443 499,376.5C 499.333,376.833 499.667,377.167 500,377.5C 500.219,376.062 500.719,374.729 501.5,373.5C 502.72,374.711 503.887,374.711 505,373.5C 505.915,374.328 506.581,375.328 507,376.5C 508.824,375.251 508.657,374.085 506.5,373C 508.831,370.8 508.831,368.8 506.5,367C 508.736,366.42 511.07,365.253 513.5,363.5C 512.471,363.704 511.471,363.204 510.5,362C 512.5,360 514.5,358 516.5,356C 515.906,355.536 515.239,355.369 514.5,355.5C 541.737,325.883 574.071,303.716 611.5,289C 621.225,285.569 631.225,283.069 641.5,281.5C 646.414,281.638 651.081,280.972 655.5,279.5 Z"/></g>
<g><path style="opacity:1" fill="#844218" d="M 710.5,149.5 C 715.35,150.623 720.35,151.623 725.5,152.5C 848.083,180.744 943.416,247.411 1011.5,352.5C 1009.62,352.288 1008.28,351.288 1007.5,349.5C 1005.68,350.747 1003.68,351.414 1001.5,351.5C 1001.5,352.5 1001.5,353.5 1001.5,354.5C 1000.32,354.281 999.325,354.614 998.5,355.5C 1001.07,356.279 1003.07,357.779 1004.5,360C 1004.25,362.089 1004.25,364.089 1004.5,366C 1002.9,366.273 1001.4,366.773 1000,367.5C 999.5,367 999,366.5 998.5,366C 1000.1,364.934 1001.1,363.434 1001.5,361.5C 999.331,361.205 997.664,359.705 996.5,357C 997.019,354.813 998.352,353.313 1000.5,352.5C 999.066,351.77 997.9,350.77 997,349.5C 996.573,352.493 995.406,352.993 993.5,351C 991.833,350.333 990.167,350.333 988.5,351C 989.167,351.333 989.833,351.667 990.5,352C 989.269,353.183 989.269,354.349 990.5,355.5C 991.425,354.359 992.259,354.359 993,355.5C 993.773,360.182 993.107,360.515 991,356.5C 990.601,356.728 990.435,357.062 990.5,357.5C 916.613,250.904 815.28,187.07 686.5,166C 682.213,159.993 682.546,154.326 687.5,149C 689.702,147.978 692.035,147.478 694.5,147.5C 699.841,148.168 705.175,148.835 710.5,149.5 Z"/></g>
<g><path style="opacity:1" fill="#833f15" d="M 748.5,300.5 C 754.438,304.106 759.771,308.439 764.5,313.5C 765.087,314.767 765.087,315.767 764.5,316.5C 763.967,314.776 762.801,313.109 761,311.5C 758.504,314.867 755.337,315.867 751.5,314.5C 751.579,313.07 751.246,311.736 750.5,310.5C 751.491,309.335 752.491,308.168 753.5,307C 753.387,305.72 752.72,304.887 751.5,304.5C 750.304,304.846 750.304,305.346 751.5,306C 746.997,306.332 743.663,308.499 741.5,312.5C 738.697,312.414 736.363,313.747 734.5,316.5C 731.861,314.747 729.195,314.414 726.5,315.5C 726.587,312.402 726.087,312.068 725,314.5C 724.29,313.027 723.124,312.36 721.5,312.5C 721.478,315.998 722.978,317.331 726,316.5C 726.324,318.569 727.158,318.902 728.5,317.5C 733.239,318.782 734.906,321.782 733.5,326.5C 737.301,328.046 739.301,326.713 739.5,322.5C 742.635,322.452 744.302,320.785 744.5,317.5C 744.998,318.603 745.331,319.603 745.5,320.5C 746.386,319.675 746.719,318.675 746.5,317.5C 749.387,318.62 752.387,319.62 755.5,320.5C 754.271,321.281 752.938,321.781 751.5,322C 752.77,322.9 753.77,324.066 754.5,325.5C 754.911,324.738 755.077,323.738 755,322.5C 756.269,323.905 756.769,325.571 756.5,327.5C 753.102,327.18 749.768,327.513 746.5,328.5C 745.872,330.258 744.872,331.758 743.5,333C 744.308,333.308 744.975,333.808 745.5,334.5C 743.883,334.669 742.216,335.003 740.5,335.5C 740.977,336.478 741.643,337.311 742.5,338C 742.167,338.333 741.833,338.667 741.5,339C 742.5,339.667 743.5,339.667 744.5,339C 746.664,335.881 747.997,332.714 748.5,329.5C 750.756,330.421 751.756,332.088 751.5,334.5C 753.167,334.5 754.833,334.5 756.5,334.5C 756.813,337.247 756.48,339.914 755.5,342.5C 754.808,340.768 754.308,338.768 754,336.5C 752.436,341.695 754.269,344.528 759.5,345C 758.549,345.718 758.383,346.551 759,347.5C 761.66,352.16 765.326,355.826 770,358.5C 770.483,359.448 770.649,360.448 770.5,361.5C 775.605,360.937 777.438,358.27 776,353.5C 776.71,352.027 777.876,351.36 779.5,351.5C 780.478,354.131 781.478,356.798 782.5,359.5C 782.957,360.298 783.624,360.631 784.5,360.5C 784.5,360.833 784.5,361.167 784.5,361.5C 784.162,363.854 783.662,366.187 783,368.5C 780.45,367.02 778.617,367.687 777.5,370.5C 778.764,374.153 778.764,377.82 777.5,381.5C 776.5,381 775.5,380.5 774.5,380C 775.357,379.311 776.023,378.478 776.5,377.5C 775.01,376.174 773.676,374.674 772.5,373C 773.863,370.871 773.529,370.371 771.5,371.5C 769.833,371.167 768.833,370.167 768.5,368.5C 768.598,365.89 768.765,363.223 769,360.5C 767.933,361.191 766.766,361.691 765.5,362C 767.263,365.243 767.929,368.743 767.5,372.5C 771.449,372.693 771.449,373.193 767.5,374C 769.223,376.627 771.056,379.127 773,381.5C 773.667,383.5 773.667,385.5 773,387.5C 772.577,386.044 771.744,385.544 770.5,386C 768.606,387.101 767.939,388.434 768.5,390C 767.299,390.903 766.465,392.069 766,393.5C 766.023,388.469 766.19,383.802 766.5,379.5C 765.5,376.833 764.5,376.833 763.5,379.5C 764.38,384.726 764.38,390.059 763.5,395.5C 762.709,394.934 762.709,394.101 763.5,393C 761.283,391.292 760.617,389.292 761.5,387C 760.922,385.189 760.422,383.355 760,381.5C 759.626,382.416 759.126,383.25 758.5,384C 756.094,384.306 753.927,385.139 752,386.5C 750.715,386.05 749.548,385.383 748.5,384.5C 747.343,387.784 747.176,391.118 748,394.5C 749.243,393.664 750.41,393.997 751.5,395.5C 749.806,397.554 748.639,399.888 748,402.5C 747.667,402.167 747.333,401.833 747,401.5C 745.992,406.541 745.492,406.208 745.5,400.5C 746.002,386.999 745.002,373.665 742.5,360.5C 742.59,357.848 741.924,355.515 740.5,353.5C 735.977,335.443 726.644,320.443 712.5,308.5C 712.56,307.957 712.893,307.624 713.5,307.5C 715.309,309.488 717.476,310.822 720,311.5C 723.905,309.548 727.238,306.881 730,303.5C 730.725,304.059 731.558,304.392 732.5,304.5C 734.036,303.751 735.369,302.751 736.5,301.5C 738.167,302.5 739.833,303.5 741.5,304.5C 742.647,304.182 743.481,303.516 744,302.5C 744.414,302.957 744.914,303.291 745.5,303.5C 746.141,302.007 747.141,301.007 748.5,300.5 Z"/></g>
<g><path style="opacity:1" fill="#c6a68f" d="M 740.5,353.5 C 741.924,355.515 742.59,357.848 742.5,360.5C 741.076,358.485 740.41,356.152 740.5,353.5 Z"/></g>
<g><path style="opacity:1" fill="#844016" d="M 418.5,1006.5 C 419.749,1008.14 421.416,1009.3 423.5,1010C 421.307,1009.43 419.307,1009.76 417.5,1011C 421.129,1011.96 420.796,1012.79 416.5,1013.5C 412.165,1011.99 411.498,1009.49 414.5,1006C 413.051,1004.88 411.384,1004.22 409.5,1004C 410.696,1003.35 410.696,1002.85 409.5,1002.5C 406.645,1004.84 406.978,1006.67 410.5,1008C 409.552,1008.48 408.552,1008.65 407.5,1008.5C 407.378,1013.17 405.712,1017.17 402.5,1020.5C 334.379,982.886 279.212,931.219 237,865.5C 168.959,753.933 147.959,633.933 174,505.5C 203.104,379.806 271.271,281.639 378.5,211C 432.962,176.955 492.129,155.788 556,147.5C 565.219,147.725 568.886,152.392 567,161.5C 565.5,164.333 563.333,166.5 560.5,168C 428.179,189.695 325.346,256.195 252,367.5C 191.983,466.288 171.316,572.954 190,687.5C 218.238,828.81 294.404,935.143 418.5,1006.5 Z"/></g>
<g><path style="opacity:1" fill="#874519" d="M 764.5,313.5 C 767.731,315.22 770.564,317.553 773,320.5C 798.318,350.457 809.651,385.123 807,424.5C 804.958,448.725 798.625,471.725 788,493.5C 774.094,520.877 756.927,545.877 736.5,568.5C 735.119,566.726 735.452,565.226 737.5,564C 736.351,562.396 736.351,560.73 737.5,559C 737.167,558.5 736.833,558 736.5,557.5C 735.749,558.376 735.249,559.376 735,560.5C 734.808,558.423 734.308,556.423 733.5,554.5C 732.914,554.709 732.414,555.043 732,555.5C 730.991,553.975 730.491,552.308 730.5,550.5C 732.636,551.719 734.969,552.552 737.5,553C 737.93,553.92 738.264,554.753 738.5,555.5C 743.65,553.436 744.317,550.603 740.5,547C 741.066,546.005 741.733,545.172 742.5,544.5C 742.435,544.938 742.601,545.272 743,545.5C 748.001,539.489 752.501,533.156 756.5,526.5C 781.324,493.378 795.324,456.044 798.5,414.5C 798.08,390.214 791.913,367.548 780,346.5C 779.833,347 779.667,347.5 779.5,348C 781.595,352.019 783.261,356.186 784.5,360.5C 783.624,360.631 782.957,360.298 782.5,359.5C 781.478,356.798 780.478,354.131 779.5,351.5C 777.876,351.36 776.71,352.027 776,353.5C 777.438,358.27 775.605,360.937 770.5,361.5C 770.649,360.448 770.483,359.448 770,358.5C 765.326,355.826 761.66,352.16 759,347.5C 758.383,346.551 758.549,345.718 759.5,345C 754.269,344.528 752.436,341.695 754,336.5C 754.308,338.768 754.808,340.768 755.5,342.5C 756.48,339.914 756.813,337.247 756.5,334.5C 754.833,334.5 753.167,334.5 751.5,334.5C 751.756,332.088 750.756,330.421 748.5,329.5C 747.997,332.714 746.664,335.881 744.5,339C 743.5,339.667 742.5,339.667 741.5,339C 741.833,338.667 742.167,338.333 742.5,338C 741.643,337.311 740.977,336.478 740.5,335.5C 742.216,335.003 743.883,334.669 745.5,334.5C 744.975,333.808 744.308,333.308 743.5,333C 744.872,331.758 745.872,330.258 746.5,328.5C 749.768,327.513 753.102,327.18 756.5,327.5C 756.769,325.571 756.269,323.905 755,322.5C 755.077,323.738 754.911,324.738 754.5,325.5C 753.77,324.066 752.77,322.9 751.5,322C 752.938,321.781 754.271,321.281 755.5,320.5C 752.387,319.62 749.387,318.62 746.5,317.5C 746.719,318.675 746.386,319.675 745.5,320.5C 745.331,319.603 744.998,318.603 744.5,317.5C 744.302,320.785 742.635,322.452 739.5,322.5C 739.301,326.713 737.301,328.046 733.5,326.5C 734.906,321.782 733.239,318.782 728.5,317.5C 727.158,318.902 726.324,318.569 726,316.5C 722.978,317.331 721.478,315.998 721.5,312.5C 723.124,312.36 724.29,313.027 725,314.5C 726.087,312.068 726.587,312.402 726.5,315.5C 729.195,314.414 731.861,314.747 734.5,316.5C 736.363,313.747 738.697,312.414 741.5,312.5C 743.663,308.499 746.997,306.332 751.5,306C 750.304,305.346 750.304,304.846 751.5,304.5C 752.72,304.887 753.387,305.72 753.5,307C 752.491,308.168 751.491,309.335 750.5,310.5C 751.246,311.736 751.579,313.07 751.5,314.5C 755.337,315.867 758.504,314.867 761,311.5C 762.801,313.109 763.967,314.776 764.5,316.5C 765.087,315.767 765.087,314.767 764.5,313.5 Z"/></g>
<g><path style="opacity:1" fill="#834317" d="M 784.5,361.5 C 787.895,370.421 790.061,379.754 791,389.5C 791.827,402.34 791.66,415.007 790.5,427.5C 790.665,423.818 790.499,420.152 790,416.5C 789.654,419.576 788.988,422.576 788,425.5C 787.985,423.446 787.152,421.446 785.5,419.5C 784.167,420.833 782.833,420.833 781.5,419.5C 781.167,419.833 780.833,420.167 780.5,420.5C 781.5,421.167 782.5,421.833 783.5,422.5C 783.793,425.907 785.127,428.74 787.5,431C 786.451,431.492 785.451,431.326 784.5,430.5C 783.668,426.463 781.668,425.63 778.5,428C 781.08,430.12 781.08,432.287 778.5,434.5C 777.682,431.893 777.182,429.226 777,426.5C 772.528,423.292 772.361,419.959 776.5,416.5C 773.453,413.796 771.119,414.463 769.5,418.5C 768.278,415.366 767.611,412.366 767.5,409.5C 765.724,410.315 765.057,411.482 765.5,413C 763.171,413.606 762.838,412.94 764.5,411C 761.948,406.199 760.948,401.032 761.5,395.5C 760.178,395.33 759.011,395.663 758,396.5C 757.667,395.833 757.333,395.167 757,394.5C 756.333,397.5 756.333,400.5 757,403.5C 757.718,402.549 758.551,402.383 759.5,403C 759.539,404.245 759.205,405.578 758.5,407C 759.509,408.168 760.509,409.335 761.5,410.5C 758.669,414.312 757.836,418.645 759,423.5C 759.893,422.289 760.726,422.289 761.5,423.5C 760.264,424.357 758.931,425.023 757.5,425.5C 757.317,423.258 757.317,421.091 757.5,419C 756.465,417.726 755.298,416.56 754,415.5C 754.333,417.167 754.667,418.833 755,420.5C 753.951,419.483 752.784,419.316 751.5,420C 752.428,420.388 753.095,421.055 753.5,422C 751.16,424.354 750.993,426.854 753,429.5C 753.333,428.833 753.667,428.167 754,427.5C 754.202,429.256 754.702,430.922 755.5,432.5C 756.451,431.674 757.451,431.508 758.5,432C 756.65,434.018 754.65,435.851 752.5,437.5C 747.433,431.534 745.766,432.367 747.5,440C 747,440.5 746.5,441 746,441.5C 745.751,440.376 745.251,439.376 744.5,438.5C 744.874,439.771 744.208,440.938 742.5,442C 743.357,442.689 744.023,443.522 744.5,444.5C 743.359,445.425 743.359,446.259 744.5,447C 743.833,447.667 743.167,448.333 742.5,449C 747.018,449.065 751.351,449.731 755.5,451C 754.833,451.667 754.167,452.333 753.5,453C 754.833,454 754.833,455 753.5,456C 754.449,456.617 755.282,456.451 756,455.5C 756.11,457.848 757.277,459.348 759.5,460C 758.167,461 758.167,462 759.5,463C 759,463.5 758.5,464 758,464.5C 756.732,464.384 755.398,464.051 754,463.5C 752.374,459.665 751.374,455.665 751,451.5C 750.667,454.167 750.333,456.833 750,459.5C 749.395,461.481 748.395,461.815 747,460.5C 746.667,457.833 746.333,455.167 746,452.5C 743.931,451.736 741.764,451.236 739.5,451C 740.167,450 740.833,449 741.5,448C 740.256,447.544 739.423,448.044 739,449.5C 738.316,448.216 738.483,447.049 739.5,446C 738.833,445.667 738.167,445.333 737.5,445C 742.449,443.267 742.782,440.767 738.5,437.5C 741.085,425.096 743.418,412.763 745.5,400.5C 745.492,406.208 745.992,406.541 747,401.5C 747.333,401.833 747.667,402.167 748,402.5C 748.639,399.888 749.806,397.554 751.5,395.5C 750.41,393.997 749.243,393.664 748,394.5C 747.176,391.118 747.343,387.784 748.5,384.5C 749.548,385.383 750.715,386.05 752,386.5C 753.927,385.139 756.094,384.306 758.5,384C 759.126,383.25 759.626,382.416 760,381.5C 760.422,383.355 760.922,385.189 761.5,387C 760.617,389.292 761.283,391.292 763.5,393C 762.709,394.101 762.709,394.934 763.5,395.5C 764.38,390.059 764.38,384.726 763.5,379.5C 764.5,376.833 765.5,376.833 766.5,379.5C 766.19,383.802 766.023,388.469 766,393.5C 766.465,392.069 767.299,390.903 768.5,390C 767.939,388.434 768.606,387.101 770.5,386C 771.744,385.544 772.577,386.044 773,387.5C 773.667,385.5 773.667,383.5 773,381.5C 771.056,379.127 769.223,376.627 767.5,374C 771.449,373.193 771.449,372.693 767.5,372.5C 767.929,368.743 767.263,365.243 765.5,362C 766.766,361.691 767.933,361.191 769,360.5C 768.765,363.223 768.598,365.89 768.5,368.5C 768.833,370.167 769.833,371.167 771.5,371.5C 773.529,370.371 773.863,370.871 772.5,373C 773.676,374.674 775.01,376.174 776.5,377.5C 776.023,378.478 775.357,379.311 774.5,380C 775.5,380.5 776.5,381 777.5,381.5C 778.764,377.82 778.764,374.153 777.5,370.5C 778.617,367.687 780.45,367.02 783,368.5C 783.662,366.187 784.162,363.854 784.5,361.5 Z"/></g>
<g><path style="opacity:1" fill="#834016" d="M 514.5,355.5 C 515.239,355.369 515.906,355.536 516.5,356C 514.5,358 512.5,360 510.5,362C 511.471,363.204 512.471,363.704 513.5,363.5C 511.07,365.253 508.736,366.42 506.5,367C 508.831,368.8 508.831,370.8 506.5,373C 508.657,374.085 508.824,375.251 507,376.5C 506.581,375.328 505.915,374.328 505,373.5C 503.887,374.711 502.72,374.711 501.5,373.5C 500.719,374.729 500.219,376.062 500,377.5C 499.667,377.167 499.333,376.833 499,376.5C 495.668,378.443 495.834,379.61 499.5,380C 497.9,381.608 496.567,383.441 495.5,385.5C 496.325,386.386 497.325,386.719 498.5,386.5C 498.393,388.903 499.393,390.736 501.5,392C 500.316,393.145 500.316,394.312 501.5,395.5C 493.095,409.983 486.595,425.316 482,441.5C 478.744,454.869 478.744,468.202 482,481.5C 485.532,488.349 491.198,492.016 499,492.5C 512.871,490.149 524.704,483.982 534.5,474C 536.473,473.505 538.473,473.338 540.5,473.5C 540.661,477.844 539.161,481.511 536,484.5C 523.516,497.659 508.683,507.159 491.5,513C 465.043,516.046 452.043,504.212 452.5,477.5C 456.911,444.017 469.078,413.683 489,386.5C 496.579,375.42 505.079,365.087 514.5,355.5 Z"/></g>
<g><path style="opacity:1" fill="none" d="M 756.5,526.5 C 755.833,526.5 755.5,526.167 755.5,525.5C 768.962,503.243 779.129,479.577 786,454.5C 788.151,445.596 789.651,436.596 790.5,427.5C 791.66,415.007 791.827,402.34 791,389.5C 790.061,379.754 787.895,370.421 784.5,361.5C 784.5,361.167 784.5,360.833 784.5,360.5C 783.261,356.186 781.595,352.019 779.5,348C 779.667,347.5 779.833,347 780,346.5C 791.913,367.548 798.08,390.214 798.5,414.5C 795.324,456.044 781.324,493.378 756.5,526.5 Z"/></g>
<g><path style="opacity:1" fill="#833f14" d="M 790.5,427.5 C 789.651,436.596 788.151,445.596 786,454.5C 779.129,479.577 768.962,503.243 755.5,525.5C 751.427,531.97 747.093,538.303 742.5,544.5C 741.733,545.172 741.066,546.005 740.5,547C 744.317,550.603 743.65,553.436 738.5,555.5C 738.264,554.753 737.93,553.92 737.5,553C 734.969,552.552 732.636,551.719 730.5,550.5C 728.908,551.602 728.075,550.935 728,548.5C 727.02,550.059 726.187,551.726 725.5,553.5C 723.775,552.985 722.108,552.318 720.5,551.5C 721.289,549.512 722.455,549.179 724,550.5C 726.686,548.206 729.186,545.706 731.5,543C 729.437,542.793 727.27,542.96 725,543.5C 723.189,542.576 723.355,541.743 725.5,541C 721.962,539.028 720.962,540.028 722.5,544C 721.324,545.914 720.324,545.748 719.5,543.5C 719.002,544.603 718.669,545.603 718.5,546.5C 717.252,545.96 716.085,545.293 715,544.5C 714.077,545.759 713.243,547.092 712.5,548.5C 711.252,547.96 710.085,547.293 709,546.5C 708.505,548.473 708.338,550.473 708.5,552.5C 711.421,552.854 713.754,551.854 715.5,549.5C 716.386,550.325 716.719,551.325 716.5,552.5C 717.675,552.281 718.675,552.614 719.5,553.5C 717.997,555.422 715.997,556.588 713.5,557C 717.741,557.767 718.241,559.267 715,561.5C 714.586,561.043 714.086,560.709 713.5,560.5C 712.452,561.383 711.285,562.05 710,562.5C 708.743,562.15 708.409,561.483 709,560.5C 710.399,559.773 711.899,559.273 713.5,559C 711.045,557.46 708.379,557.126 705.5,558C 705.792,561.937 707.126,565.437 709.5,568.5C 706.477,573.863 705.311,573.53 706,567.5C 705.667,567.833 705.333,568.167 705,568.5C 704.167,567 703,565.833 701.5,565C 702.167,564.667 702.833,564.333 703.5,564C 702.167,563 702.167,562 703.5,561C 702.572,560.612 701.905,559.945 701.5,559C 702.506,557.662 703.506,556.329 704.5,555C 703.167,553 703.167,551 704.5,549C 702.965,546.861 701.299,544.861 699.5,543C 701.053,541.903 702.386,540.57 703.5,539C 705.134,538.506 706.801,538.34 708.5,538.5C 708.337,540.857 708.503,543.19 709,545.5C 710.03,543.224 711.53,542.557 713.5,543.5C 714.521,541.381 716.021,539.714 718,538.5C 718.667,537.833 718.667,537.167 718,536.5C 716.89,538.037 715.39,538.703 713.5,538.5C 712.449,542.208 711.116,542.041 709.5,538C 710.627,536.943 711.127,535.777 711,534.5C 707.938,536.13 706.271,535.13 706,531.5C 705.781,532.938 705.281,534.271 704.5,535.5C 703.41,534.609 703.41,533.609 704.5,532.5C 703.5,531.833 702.5,531.167 701.5,530.5C 703.227,527.148 704.893,526.981 706.5,530C 712.72,531.727 712.886,531.227 707,528.5C 706.333,527.833 706.333,527.167 707,526.5C 709.687,527.713 712.52,528.38 715.5,528.5C 715.613,525.951 714.946,523.618 713.5,521.5C 714.325,520.614 715.325,520.281 716.5,520.5C 717.674,524.819 717.674,529.153 716.5,533.5C 717.675,533.719 718.675,533.386 719.5,532.5C 718.885,526.208 718.551,520.208 718.5,514.5C 720.179,514.715 721.179,514.048 721.5,512.5C 722.458,512.953 723.292,513.619 724,514.5C 724.048,512.456 723.548,510.456 722.5,508.5C 723.167,507.833 723.833,507.167 724.5,506.5C 724.062,505.494 723.396,505.494 722.5,506.5C 721.832,504.074 721.498,501.741 721.5,499.5C 720.833,500.833 720.167,502.167 719.5,503.5C 718.167,501.5 718.167,499.5 719.5,497.5C 722.833,498.833 723.833,497.833 722.5,494.5C 725.835,493.452 727.335,491.118 727,487.5C 727.718,488.451 728.551,488.617 729.5,488C 728.359,485.298 729.359,483.631 732.5,483C 731.833,482.667 731.167,482.333 730.5,482C 730.545,479.364 730.712,476.53 731,473.5C 731.914,472.346 732.747,472.513 733.5,474C 733.043,474.414 732.709,474.914 732.5,475.5C 733.167,476.833 733.833,476.833 734.5,475.5C 734.399,472.181 735.066,469.181 736.5,466.5C 738.973,468.098 738.973,469.598 736.5,471C 737.328,471.915 738.328,472.581 739.5,473C 738.552,473.483 737.552,473.649 736.5,473.5C 735.948,475.331 735.948,476.997 736.5,478.5C 737.893,477.137 739.559,476.304 741.5,476C 742.707,473.088 745.373,471.422 749.5,471C 745.5,469.333 745.5,467.667 749.5,466C 748.552,465.517 747.552,465.351 746.5,465.5C 746.5,464.167 746.5,462.833 746.5,461.5C 745.022,461.762 743.689,461.429 742.5,460.5C 741.636,458.803 740.303,457.637 738.5,457C 739.535,455.493 739.368,453.993 738,452.5C 737.667,452.833 737.333,453.167 737,453.5C 736.56,451.134 736.06,448.801 735.5,446.5C 736.304,443.421 737.304,440.421 738.5,437.5C 742.782,440.767 742.449,443.267 737.5,445C 738.167,445.333 738.833,445.667 739.5,446C 738.483,447.049 738.316,448.216 739,449.5C 739.423,448.044 740.256,447.544 741.5,448C 740.833,449 740.167,450 739.5,451C 741.764,451.236 743.931,451.736 746,452.5C 746.333,455.167 746.667,457.833 747,460.5C 748.395,461.815 749.395,461.481 750,459.5C 750.333,456.833 750.667,454.167 751,451.5C 751.374,455.665 752.374,459.665 754,463.5C 755.398,464.051 756.732,464.384 758,464.5C 758.5,464 759,463.5 759.5,463C 758.167,462 758.167,461 759.5,460C 757.277,459.348 756.11,457.848 756,455.5C 755.282,456.451 754.449,456.617 753.5,456C 754.833,455 754.833,454 753.5,453C 754.167,452.333 754.833,451.667 755.5,451C 751.351,449.731 747.018,449.065 742.5,449C 743.167,448.333 743.833,447.667 744.5,447C 743.359,446.259 743.359,445.425 744.5,444.5C 744.023,443.522 743.357,442.689 742.5,442C 744.208,440.938 744.874,439.771 744.5,438.5C 745.251,439.376 745.751,440.376 746,441.5C 746.5,441 747,440.5 747.5,440C 745.766,432.367 747.433,431.534 752.5,437.5C 754.65,435.851 756.65,434.018 758.5,432C 757.451,431.508 756.451,431.674 755.5,432.5C 754.702,430.922 754.202,429.256 754,427.5C 753.667,428.167 753.333,428.833 753,429.5C 750.993,426.854 751.16,424.354 753.5,422C 753.095,421.055 752.428,420.388 751.5,420C 752.784,419.316 753.951,419.483 755,420.5C 754.667,418.833 754.333,417.167 754,415.5C 755.298,416.56 756.465,417.726 757.5,419C 757.317,421.091 757.317,423.258 757.5,425.5C 758.931,425.023 760.264,424.357 761.5,423.5C 760.726,422.289 759.893,422.289 759,423.5C 757.836,418.645 758.669,414.312 761.5,410.5C 760.509,409.335 759.509,408.168 758.5,407C 759.205,405.578 759.539,404.245 759.5,403C 758.551,402.383 757.718,402.549 757,403.5C 756.333,400.5 756.333,397.5 757,394.5C 757.333,395.167 757.667,395.833 758,396.5C 759.011,395.663 760.178,395.33 761.5,395.5C 760.948,401.032 761.948,406.199 764.5,411C 762.838,412.94 763.171,413.606 765.5,413C 765.057,411.482 765.724,410.315 767.5,409.5C 767.611,412.366 768.278,415.366 769.5,418.5C 771.119,414.463 773.453,413.796 776.5,416.5C 772.361,419.959 772.528,423.292 777,426.5C 777.182,429.226 777.682,431.893 778.5,434.5C 781.08,432.287 781.08,430.12 778.5,428C 781.668,425.63 783.668,426.463 784.5,430.5C 785.451,431.326 786.451,431.492 787.5,431C 785.127,428.74 783.793,425.907 783.5,422.5C 782.5,421.833 781.5,421.167 780.5,420.5C 780.833,420.167 781.167,419.833 781.5,419.5C 782.833,420.833 784.167,420.833 785.5,419.5C 787.152,421.446 787.985,423.446 788,425.5C 788.988,422.576 789.654,419.576 790,416.5C 790.499,420.152 790.665,423.818 790.5,427.5 Z"/></g>
<g><path style="opacity:1" fill="#854419" d="M 735.5,446.5 C 736.06,448.801 736.56,451.134 737,453.5C 737.333,453.167 737.667,452.833 738,452.5C 739.368,453.993 739.535,455.493 738.5,457C 740.303,457.637 741.636,458.803 742.5,460.5C 743.689,461.429 745.022,461.762 746.5,461.5C 746.5,462.833 746.5,464.167 746.5,465.5C 747.552,465.351 748.552,465.517 749.5,466C 745.5,467.667 745.5,469.333 749.5,471C 745.373,471.422 742.707,473.088 741.5,476C 739.559,476.304 737.893,477.137 736.5,478.5C 735.948,476.997 735.948,475.331 736.5,473.5C 737.552,473.649 738.552,473.483 739.5,473C 738.328,472.581 737.328,471.915 736.5,471C 738.973,469.598 738.973,468.098 736.5,466.5C 735.066,469.181 734.399,472.181 734.5,475.5C 733.833,476.833 733.167,476.833 732.5,475.5C 732.709,474.914 733.043,474.414 733.5,474C 732.747,472.513 731.914,472.346 731,473.5C 730.712,476.53 730.545,479.364 730.5,482C 731.167,482.333 731.833,482.667 732.5,483C 729.359,483.631 728.359,485.298 729.5,488C 728.551,488.617 727.718,488.451 727,487.5C 727.335,491.118 725.835,493.452 722.5,494.5C 723.833,497.833 722.833,498.833 719.5,497.5C 718.167,499.5 718.167,501.5 719.5,503.5C 720.167,502.167 720.833,500.833 721.5,499.5C 721.498,501.741 721.832,504.074 722.5,506.5C 723.396,505.494 724.062,505.494 724.5,506.5C 723.833,507.167 723.167,507.833 722.5,508.5C 723.548,510.456 724.048,512.456 724,514.5C 723.292,513.619 722.458,512.953 721.5,512.5C 719.91,512.628 718.577,513.295 717.5,514.5C 716.948,516.333 716.115,518 715,519.5C 714.051,516.8 712.217,515.967 709.5,517C 708.788,518.425 708.621,519.925 709,521.5C 708.667,521.167 708.333,520.833 708,520.5C 707.667,521.5 707.333,522.5 707,523.5C 705.817,522.269 704.651,522.269 703.5,523.5C 704.047,525.712 703.047,527.379 700.5,528.5C 699.897,526.548 700.23,524.548 701.5,522.5C 700.388,521.735 699.721,520.735 699.5,519.5C 713.945,496.278 725.945,471.944 735.5,446.5 Z"/></g>
<g><path style="opacity:1" fill="#844015" d="M 1011.5,352.5 C 1073.4,453.831 1096.23,563.498 1080,681.5C 1078.49,691.575 1076.65,701.575 1074.5,711.5C 1074.05,708.686 1073.89,705.686 1074,702.5C 1072.85,707.303 1071.69,706.97 1070.5,701.5C 1069.13,701.657 1067.79,701.49 1066.5,701C 1064.33,696.718 1061.66,693.551 1058.5,691.5C 1078.35,571.207 1055.68,459.874 990.5,357.5C 990.435,357.062 990.601,356.728 991,356.5C 993.107,360.515 993.773,360.182 993,355.5C 992.259,354.359 991.425,354.359 990.5,355.5C 989.269,354.349 989.269,353.183 990.5,352C 989.833,351.667 989.167,351.333 988.5,351C 990.167,350.333 991.833,350.333 993.5,351C 995.406,352.993 996.573,352.493 997,349.5C 997.9,350.77 999.066,351.77 1000.5,352.5C 998.352,353.313 997.019,354.813 996.5,357C 997.664,359.705 999.331,361.205 1001.5,361.5C 1001.1,363.434 1000.1,364.934 998.5,366C 999,366.5 999.5,367 1000,367.5C 1001.4,366.773 1002.9,366.273 1004.5,366C 1004.25,364.089 1004.25,362.089 1004.5,360C 1003.07,357.779 1001.07,356.279 998.5,355.5C 999.325,354.614 1000.32,354.281 1001.5,354.5C 1001.5,353.5 1001.5,352.5 1001.5,351.5C 1003.68,351.414 1005.68,350.747 1007.5,349.5C 1008.28,351.288 1009.62,352.288 1011.5,352.5 Z"/></g>
<g><path style="opacity:1" fill="#d8bfae" d="M 755.5,525.5 C 755.5,526.167 755.833,526.5 756.5,526.5C 752.501,533.156 748.001,539.489 743,545.5C 742.601,545.272 742.435,544.938 742.5,544.5C 747.093,538.303 751.427,531.97 755.5,525.5 Z"/></g>
<g><path style="opacity:1" fill="#833f16" d="M 721.5,512.5 C 721.179,514.048 720.179,514.715 718.5,514.5C 718.551,520.208 718.885,526.208 719.5,532.5C 718.675,533.386 717.675,533.719 716.5,533.5C 717.674,529.153 717.674,524.819 716.5,520.5C 715.325,520.281 714.325,520.614 713.5,521.5C 714.946,523.618 715.613,525.951 715.5,528.5C 712.52,528.38 709.687,527.713 707,526.5C 706.333,527.167 706.333,527.833 707,528.5C 712.886,531.227 712.72,531.727 706.5,530C 704.893,526.981 703.227,527.148 701.5,530.5C 702.5,531.167 703.5,531.833 704.5,532.5C 703.41,533.609 703.41,534.609 704.5,535.5C 705.281,534.271 705.781,532.938 706,531.5C 706.271,535.13 707.938,536.13 711,534.5C 711.127,535.777 710.627,536.943 709.5,538C 711.116,542.041 712.449,542.208 713.5,538.5C 715.39,538.703 716.89,538.037 718,536.5C 718.667,537.167 718.667,537.833 718,538.5C 716.021,539.714 714.521,541.381 713.5,543.5C 711.53,542.557 710.03,543.224 709,545.5C 708.503,543.19 708.337,540.857 708.5,538.5C 706.801,538.34 705.134,538.506 703.5,539C 702.386,540.57 701.053,541.903 699.5,543C 701.299,544.861 702.965,546.861 704.5,549C 703.167,551 703.167,553 704.5,555C 703.506,556.329 702.506,557.662 701.5,559C 701.905,559.945 702.572,560.612 703.5,561C 702.167,562 702.167,563 703.5,564C 702.833,564.333 702.167,564.667 701.5,565C 703,565.833 704.167,567 705,568.5C 705.333,568.167 705.667,567.833 706,567.5C 705.311,573.53 706.477,573.863 709.5,568.5C 707.126,565.437 705.792,561.937 705.5,558C 708.379,557.126 711.045,557.46 713.5,559C 711.899,559.273 710.399,559.773 709,560.5C 708.409,561.483 708.743,562.15 710,562.5C 711.285,562.05 712.452,561.383 713.5,560.5C 714.086,560.709 714.586,561.043 715,561.5C 718.241,559.267 717.741,557.767 713.5,557C 715.997,556.588 717.997,555.422 719.5,553.5C 718.675,552.614 717.675,552.281 716.5,552.5C 716.719,551.325 716.386,550.325 715.5,549.5C 713.754,551.854 711.421,552.854 708.5,552.5C 708.338,550.473 708.505,548.473 709,546.5C 710.085,547.293 711.252,547.96 712.5,548.5C 713.243,547.092 714.077,545.759 715,544.5C 716.085,545.293 717.252,545.96 718.5,546.5C 718.669,545.603 719.002,544.603 719.5,543.5C 720.324,545.748 721.324,545.914 722.5,544C 720.962,540.028 721.962,539.028 725.5,541C 723.355,541.743 723.189,542.576 725,543.5C 727.27,542.96 729.437,542.793 731.5,543C 729.186,545.706 726.686,548.206 724,550.5C 722.455,549.179 721.289,549.512 720.5,551.5C 722.108,552.318 723.775,552.985 725.5,553.5C 726.187,551.726 727.02,550.059 728,548.5C 728.075,550.935 728.908,551.602 730.5,550.5C 730.491,552.308 730.991,553.975 732,555.5C 732.414,555.043 732.914,554.709 733.5,554.5C 734.308,556.423 734.808,558.423 735,560.5C 735.249,559.376 735.749,558.376 736.5,557.5C 736.833,558 737.167,558.5 737.5,559C 736.351,560.73 736.351,562.396 737.5,564C 735.452,565.226 735.119,566.726 736.5,568.5C 718.766,588.737 700.1,608.237 680.5,627C 639.963,663.707 599.296,700.207 558.5,736.5C 557.909,735.849 557.243,735.182 556.5,734.5C 557.33,732.865 557.497,731.198 557,729.5C 557.333,729.167 557.667,728.833 558,728.5C 560.65,731.217 563.15,731.051 565.5,728C 564.234,727.691 563.067,727.191 562,726.5C 561.667,727.167 561.333,727.833 561,728.5C 559.055,727.308 557.055,727.308 555,728.5C 553.343,727.516 551.677,726.516 550,725.5C 549.586,725.957 549.086,726.291 548.5,726.5C 546.535,722.219 543.868,718.553 540.5,715.5C 585.712,665.797 628.878,614.463 670,561.5C 680.086,547.597 689.919,533.597 699.5,519.5C 699.721,520.735 700.388,521.735 701.5,522.5C 700.23,524.548 699.897,526.548 700.5,528.5C 703.047,527.379 704.047,525.712 703.5,523.5C 704.651,522.269 705.817,522.269 707,523.5C 707.333,522.5 707.667,521.5 708,520.5C 708.333,520.833 708.667,521.167 709,521.5C 708.621,519.925 708.788,518.425 709.5,517C 712.217,515.967 714.051,516.8 715,519.5C 716.115,518 716.948,516.333 717.5,514.5C 718.577,513.295 719.91,512.628 721.5,512.5 Z"/></g>
<g><path style="opacity:1" fill="#844218" d="M 540.5,715.5 C 543.868,718.553 546.535,722.219 548.5,726.5C 549.086,726.291 549.586,725.957 550,725.5C 551.677,726.516 553.343,727.516 555,728.5C 557.055,727.308 559.055,727.308 561,728.5C 561.333,727.833 561.667,727.167 562,726.5C 563.067,727.191 564.234,727.691 565.5,728C 563.15,731.051 560.65,731.217 558,728.5C 557.667,728.833 557.333,729.167 557,729.5C 557.497,731.198 557.33,732.865 556.5,734.5C 557.243,735.182 557.909,735.849 558.5,736.5C 523.701,768.795 491.201,803.129 461,839.5C 451.279,852.221 441.946,865.221 433,878.5C 428.4,886.367 424.4,894.367 421,902.5C 438.768,884.751 459.268,870.918 482.5,861C 510.448,849.096 539.448,840.762 569.5,836C 607.646,831.704 645.646,826.371 683.5,820C 711.051,815.051 736.051,804.385 758.5,788C 779.079,769.076 793.579,746.242 802,719.5C 806.249,704.336 809.749,689.003 812.5,673.5C 813.833,673.5 815.167,673.5 816.5,673.5C 815.714,718.692 801.881,759.359 775,795.5C 755.914,818.889 731.748,834.723 702.5,843C 684.848,848.33 666.848,851.997 648.5,854C 614.077,856.826 579.744,860.493 545.5,865C 512.593,869.305 481.593,879.305 452.5,895C 446.221,898.946 440.221,903.279 434.5,908C 446.343,909.847 451.176,916.68 449,928.5C 443.47,946.672 431.636,953.506 413.5,949C 409.044,945.587 406.544,941.087 406,935.5C 405.333,930.5 405.333,925.5 406,920.5C 412.078,896.008 421.745,873.008 435,851.5C 465.825,802.836 500.992,757.503 540.5,715.5 Z"/></g>
<g><path style="opacity:1" fill="#d4bca7" d="M 809.5,704.5 C 810.043,704.56 810.376,704.893 810.5,705.5C 806.625,720.958 801.458,735.958 795,750.5C 799.917,735.247 804.75,719.914 809.5,704.5 Z"/></g>
<g><path style="opacity:1" fill="#844218" d="M 1058.5,691.5 C 1061.66,693.551 1064.33,696.718 1066.5,701C 1067.79,701.49 1069.13,701.657 1070.5,701.5C 1071.69,706.97 1072.85,707.303 1074,702.5C 1073.89,705.686 1074.05,708.686 1074.5,711.5C 1045.89,835.532 979.557,933.699 875.5,1006C 819.847,1042.17 759.18,1065.67 693.5,1076.5C 684.86,1075.26 681.693,1070.26 684,1061.5C 685.873,1059.29 688.04,1057.46 690.5,1056C 832.527,1028.9 939.027,952.732 1010,827.5C 1033.05,784.517 1049.21,739.184 1058.5,691.5 Z"/></g>
<g><path style="opacity:1" fill="#874419" d="M 418.5,1006.5 C 464.119,1029.98 512.119,1046.82 562.5,1057C 568.791,1062.63 569.124,1068.63 563.5,1075C 557.224,1076.77 550.891,1076.77 544.5,1075C 505.779,1066.32 468.446,1053.65 432.5,1037C 421.956,1032.23 411.956,1026.73 402.5,1020.5C 405.712,1017.17 407.378,1013.17 407.5,1008.5C 408.552,1008.65 409.552,1008.48 410.5,1008C 406.978,1006.67 406.645,1004.84 409.5,1002.5C 410.696,1002.85 410.696,1003.35 409.5,1004C 411.384,1004.22 413.051,1004.88 414.5,1006C 411.498,1009.49 412.165,1011.99 416.5,1013.5C 420.796,1012.79 421.129,1011.96 417.5,1011C 419.307,1009.76 421.307,1009.43 423.5,1010C 421.416,1009.3 419.749,1008.14 418.5,1006.5 Z"/></g>
</svg>
