<svg xmlns="http://www.w3.org/2000/svg" width="1254" height="1254" style="shape-rendering:geometricPrecision;text-rendering:geometricPrecision;image-rendering:optimizeQuality;fill-rule:evenodd;clip-rule:evenodd"><path fill="none" d="M-.5-.5h1254v1254H-.5z" style="opacity:1"/><path fill="#dbc5b6" d="M710.5 149.5q8.091-.564 15 3a260 260 0 0 1-15-3" style="opacity:1"/><path fill="#ac7c5c" d="M655.5 279.5q-6.629 2.207-14 2 6.629-2.207 14-2" style="opacity:1"/><path fill="#854319" d="M655.5 279.5q50.336-4.941 93 21-2.039.76-3 3a3.65 3.65 0 0 1-1.5-1q-.779 1.524-2.5 2l-5-3a13 13 0 0 1-4 3 4.93 4.93 0 0 1-2.5-1 30.2 30.2 0 0 1-10 8q-3.786-1.018-6.5-4-.91.186-1 1-31.117-23.086-70-17.5-35.474 6.492-65 27-45.922 31.171-76 77.5-1.776-1.782 0-3.5-3.16-1.896-3-5.5-1.763.329-3-1a22.3 22.3 0 0 1 4-5.5q-5.499-.585-.5-3.5l1 1a10.3 10.3 0 0 1 1.5-4q1.83 1.817 3.5 0a7.3 7.3 0 0 1 2 3q2.736-1.873-.5-3.5 3.496-3.3 0-6 3.355-.87 7-3.5-1.543.306-3-1.5l6-6a2.43 2.43 0 0 0-2-.5q40.856-44.426 97-66.5a164.7 164.7 0 0 1 30-7.5q7.371.207 14-2" style="opacity:1"/><path fill="#844218" d="M710.5 149.5q7.275 1.684 15 3 183.874 42.366 286 200c-1.88-.212-3.22-1.212-4-3q-2.73 1.87-6 2v3c-1.18-.219-2.175.114-3 1q3.855 1.168 6 4.5-.375 3.134 0 6-2.4.41-4.5 1.5l-1.5-1.5q2.4-1.599 3-4.5-3.254-.442-5-4.5.778-3.28 4-4.5-2.15-1.095-3.5-3-.64 4.49-3.5 1.5-2.5-1-5 0l2 1q-1.847 1.774 0 3.5 1.388-1.712 2.5 0 1.16 7.023-2 1-.598.343-.5 1-110.83-159.894-304-191.5-6.43-9.01 1-17a16.1 16.1 0 0 1 7-1.5z" style="opacity:1"/><path fill="#833f15" d="M748.5 300.5a75.3 75.3 0 0 1 16 13q.88 1.9 0 3-.799-2.586-3.5-5-3.744 5.05-9.5 3a6.85 6.85 0 0 0-1-4 605 605 0 0 1 3-3.5q-.17-1.92-2-2.5-1.794.519 0 1.5-6.755.498-10 6.5-4.205-.13-7 4-3.958-2.63-8-1 .13-4.648-1.5-1-1.064-2.21-3.5-2-.033 5.247 4.5 4 .486 3.103 2.5 1 7.109 1.923 5 9 5.702 2.32 6-4 4.703-.072 5-5 .747 1.654 1 3 1.329-1.237 1-3 4.33 1.68 9 3a10.3 10.3 0 0 1-4 1.5q1.905 1.35 3 3.5.616-1.143.5-3 1.903 2.107 1.5 5a25.9 25.9 0 0 0-10 1 10.94 10.94 0 0 1-3 4.5 4.46 4.46 0 0 1 2 1.5 28.7 28.7 0 0 0-5 1 7.25 7.25 0 0 0 2 2.5l-1 1q1.5 1 3 0 3.246-4.679 4-9.5 3.384 1.382 3 5h5a16.9 16.9 0 0 1-1 8q-1.038-2.598-1.5-6-2.346 7.792 5.5 8.5-1.426 1.077-.5 2.5 3.99 6.99 11 11 .724 1.422.5 3 7.657-.845 5.5-8 1.064-2.21 3.5-2 1.467 3.947 3 8 .686 1.197 2 1v1a52.6 52.6 0 0 1-1.5 7q-3.825-2.22-5.5 2 1.896 5.48 0 11l-3-1.5a7.25 7.25 0 0 0 2-2.5 26 26 0 0 1-4-4.5q2.044-3.194-1-1.5-2.5-.5-3-3 .147-3.915.5-8a11.3 11.3 0 0 1-3.5 1.5q2.644 4.865 2 10.5 5.923.29 0 1.5a88 88 0 0 0 5.5 7.5q1 3 0 6-.634-2.184-2.5-1.5-2.841 1.651-2 4a6.98 6.98 0 0 0-2.5 3.5q.035-7.547.5-14-1.5-4-3 0 1.32 7.839 0 16-1.187-.849 0-2.5-3.325-2.562-2-6a67 67 0 0 1-1.5-5.5 9.5 9.5 0 0 1-1.5 2.5q-3.61.459-6.5 2.5a11.1 11.1 0 0 1-3.5-2q-1.736 4.926-.5 10 1.865-1.254 3.5 1a17.3 17.3 0 0 0-3.5 7l-1-1q-1.512 7.562-1.5-1a178 178 0 0 0-3-40q.135-3.978-2-7-6.784-27.086-28-45 .09-.814 1-1 2.714 2.982 6.5 4a30.2 30.2 0 0 0 10-8 4.93 4.93 0 0 0 2.5 1 13 13 0 0 0 4-3l5 3q1.721-.476 2.5-2 .621.686 1.5 1 .961-2.24 3-3" style="opacity:1"/><path fill="#c6a68f" d="M740.5 353.5q2.135 3.022 2 7-2.135-3.022-2-7" style="opacity:1"/><path fill="#844016" d="M418.5 1006.5c1.249 1.64 2.916 2.8 5 3.5-2.193-.57-4.193-.24-6 1 3.629.96 3.296 1.79-1 2.5q-6.503-2.265-2-7.5c-1.449-1.12-3.116-1.78-5-2q1.794-.975 0-1.5c-2.855 2.34-2.522 4.17 1 5.5-.948.48-1.948.65-3 .5q-.183 7.005-5 12-102.182-56.421-165.5-155-102.061-167.35-63-360Q217.656 316.959 378.5 211q81.693-51.068 177.5-63.5 13.829.338 11 14-2.25 4.25-6.5 6.5Q362.019 200.543 252 367.5q-90.026 148.181-62 320 42.356 211.965 228.5 319" style="opacity:1"/><path fill="#874519" d="M764.5 313.5q4.846 2.58 8.5 7 37.977 44.935 34 104-3.063 36.338-19 69-20.86 41.065-51.5 75-2.072-2.661 1-4.5-1.724-2.406 0-5l-1-1.5a6.8 6.8 0 0 0-1.5 3 20.2 20.2 0 0 0-1.5-6 3.65 3.65 0 0 0-1.5 1q-1.514-2.288-1.5-5 3.204 1.828 7 2.5.645 1.38 1 2.5 7.725-3.096 2-8.5.85-1.492 2-2.5-.098.658.5 1a152.3 152.3 0 0 0 13.5-19q37.236-49.683 42-112-.63-36.428-18.5-68l-.5 1.5a67 67 0 0 1 5 12.5q-1.314.197-2-1a1496 1496 0 0 1-3-8q-2.436-.21-3.5 2 2.157 7.155-5.5 8a4.93 4.93 0 0 0-.5-3q-7.01-4.01-11-11-.926-1.423.5-2.5-7.846-.708-5.5-8.5.462 3.402 1.5 6a16.9 16.9 0 0 0 1-8h-5q.384-3.618-3-5-.754 4.821-4 9.5-1.5 1-3 0l1-1a7.25 7.25 0 0 1-2-2.5 28.7 28.7 0 0 1 5-1 4.46 4.46 0 0 0-2-1.5 10.94 10.94 0 0 0 3-4.5 25.9 25.9 0 0 1 10-1q.403-2.893-1.5-5 .116 1.857-.5 3-1.095-2.15-3-3.5a10.3 10.3 0 0 0 4-1.5q-4.67-1.32-9-3 .329 1.763-1 3-.253-1.346-1-3-.297 4.928-5 5-.298 6.32-6 4 2.109-7.077-5-9-2.014 2.103-2.5-1-4.533 1.247-4.5-4 2.436-.21 3.5 2 1.63-3.648 1.5 1 4.042-1.63 8 1 2.795-4.13 7-4 3.245-6.002 10-6.5-1.794-.981 0-1.5 1.83.58 2 2.5a605 605 0 0 0-3 3.5 6.85 6.85 0 0 1 1 4q5.756 2.05 9.5-3 2.701 2.414 3.5 5 .88-1.1 0-3" style="opacity:1"/><path fill="#834317" d="M784.5 361.5q5.092 13.381 6.5 28 1.24 19.26-.5 38a61 61 0 0 0-.5-11 43 43 0 0 1-2 9q-.022-3.081-2.5-6-2 2-4 0l-1 1 3 2q.44 5.11 4 8.5-1.573.739-3-.5-1.248-6.055-6-2.5 3.87 3.18 0 6.5a34.3 34.3 0 0 1-1.5-8q-6.708-4.812-.5-10-4.571-4.056-7 2-1.833-4.701-2-9-2.664 1.223-2 3.5-3.493.91-1-2-3.828-7.202-3-15.5-1.983-.255-3.5 1l-1-2q-1 4.5 0 9 1.077-1.426 2.5-.5.058 1.867-1 4a605 605 0 0 1 3 3.5q-4.246 5.718-2.5 13 1.34-1.817 2.5 0a15.7 15.7 0 0 1-4 2 38.5 38.5 0 0 1 0-6.5 24.3 24.3 0 0 0-3.5-3.5l1 5q-1.574-1.526-3.5-.5 1.392.582 2 2-3.51 3.531-.5 7.5l1-2a14.7 14.7 0 0 0 1.5 5q1.427-1.239 3-.5a46.6 46.6 0 0 1-6 5.5q-7.6-8.95-5 2.5l-1.5 1.5a6.8 6.8 0 0 0-1.5-3q.562 1.907-2 3.5a7.25 7.25 0 0 1 2 2.5q-1.711 1.388 0 2.5l-2 2q6.777.097 13 2l-2 2q2 1.5 0 3 1.423.926 2.5-.5.165 3.522 3.5 4.5-2 1.5 0 3l-1.5 1.5q-1.903-.174-4-1a39.6 39.6 0 0 1-3-12l-1 8q-.908 2.972-3 1l-1-8a26.7 26.7 0 0 0-6.5-1.5l2-3q-1.866-.684-2.5 1.5-1.026-1.926.5-3.5l-2-1q7.423-2.6 1-7.5a1010 1010 0 0 0 7-37q-.012 8.562 1.5 1l1 1a17.3 17.3 0 0 1 3.5-7q-1.635-2.254-3.5-1-1.236-5.074.5-10a11.1 11.1 0 0 0 3.5 2q2.89-2.041 6.5-2.5a9.5 9.5 0 0 0 1.5-2.5 67 67 0 0 0 1.5 5.5q-1.325 3.438 2 6-1.187 1.651 0 2.5 1.32-8.161 0-16 1.5-4 3 0-.465 6.453-.5 14a6.98 6.98 0 0 1 2.5-3.5q-.841-2.349 2-4 1.866-.684 2.5 1.5 1-3 0-6a88 88 0 0 1-5.5-7.5q5.923-1.21 0-1.5.644-5.635-2-10.5a11.3 11.3 0 0 0 3.5-1.5q-.353 4.085-.5 8 .5 2.5 3 3 3.044-1.694 1 1.5a26 26 0 0 0 4 4.5 7.25 7.25 0 0 1-2 2.5l3 1.5q1.896-5.52 0-11 1.675-4.22 5.5-2a52.6 52.6 0 0 0 1.5-7" style="opacity:1"/><path fill="#834016" d="M514.5 355.5a2.43 2.43 0 0 1 2 .5l-6 6q1.457 1.806 3 1.5-3.645 2.63-7 3.5 3.496 2.7 0 6 3.236 1.627.5 3.5a7.3 7.3 0 0 0-2-3q-1.67 1.817-3.5 0a10.3 10.3 0 0 0-1.5 4l-1-1q-4.999 2.915.5 3.5a22.3 22.3 0 0 0-4 5.5q1.237 1.329 3 1-.16 3.604 3 5.5-1.776 1.718 0 3.5-12.607 21.724-19.5 46-4.884 20.053 0 40 5.298 10.274 17 11 20.806-3.527 35.5-18.5a18.5 18.5 0 0 1 6-.5q.241 6.516-4.5 11-18.726 19.738-44.5 28.5-39.686 4.569-39-35.5 6.617-50.225 36.5-91a227 227 0 0 1 25.5-31" style="opacity:1"/><path fill="none" d="M756.5 526.5q-1 0-1-1 20.193-33.385 30.5-71a190 190 0 0 0 4.5-27q1.74-18.74.5-38-1.408-14.619-6.5-28v-1a67 67 0 0 0-5-12.5l.5-1.5q17.87 31.572 18.5 68-4.764 62.317-42 112" style="opacity:1"/><path fill="#833f14" d="M790.5 427.5a190 190 0 0 1-4.5 27q-10.307 37.615-30.5 71a303 303 0 0 1-13 19q-1.15 1.008-2 2.5 5.725 5.404-2 8.5a21 21 0 0 0-1-2.5q-3.796-.672-7-2.5-2.388 1.653-2.5-2a29 29 0 0 0-2.5 5 30 30 0 0 1-5-2q1.183-2.982 3.5-1a68 68 0 0 0 7.5-7.5q-3.095-.31-6.5.5-2.717-1.386.5-2.5-5.307-2.958-3 3-1.764 2.871-3-.5-.747 1.654-1 3a18 18 0 0 1-3.5-2 32 32 0 0 0-2.5 4 18 18 0 0 1-3.5-2 18.5 18.5 0 0 0-.5 6q4.381.531 7-3 1.329 1.238 1 3 1.762-.329 3 1-2.255 2.882-6 3.5 6.361 1.15 1.5 4.5a3.65 3.65 0 0 0-1.5-1 11.1 11.1 0 0 1-3.5 2q-1.886-.525-1-2a15.3 15.3 0 0 1 4.5-1.5q-3.682-2.31-8-1 .438 5.906 4 10.5-4.534 8.045-3.5-1l-1 1q-1.25-2.25-3.5-3.5l2-1q-2-1.5 0-3-1.392-.582-2-2 1.509-2.007 3-4-2-3 0-6a53.5 53.5 0 0 0-5-6 16.7 16.7 0 0 0 4-4 12.9 12.9 0 0 1 5-.5q-.245 3.535.5 7 1.545-3.414 4.5-2 1.532-3.179 4.5-5 1-1 0-2-1.665 2.305-4.5 2-1.576 5.562-4-.5 1.69-1.585 1.5-3.5-4.593 2.445-5-3a10.3 10.3 0 0 1-1.5 4q-1.635-1.336 0-3l-3-2q2.59-5.028 5-.5 9.33 2.59.5-1.5-1-1 0-2a22.7 22.7 0 0 0 8.5 2q.17-3.823-2-7 1.238-1.329 3-1 1.761 6.479 0 13 1.762.329 3-1-.923-9.438-1-18 2.518.322 3-2 1.438.679 2.5 2 .072-3.066-1.5-6l2-2q-.656-1.509-2 0-1.002-3.639-1-7l-2 4q-2-3 0-6 5 2 3-3 5.003-1.572 4.5-7 1.077 1.426 2.5.5-1.711-4.053 3-5l-2-1q.068-3.955.5-8.5 1.37-1.73 2.5.5a3.65 3.65 0 0 0-1 1.5q1 2 2 0-.151-4.979 2-9 3.71 2.397 0 4.5a7.3 7.3 0 0 0 3 2 4.93 4.93 0 0 1-3 .5q-.828 2.746 0 5 2.089-2.044 5-2.5 1.81-4.367 8-5-6-2.5 0-5a4.93 4.93 0 0 0-3-.5v-4q-2.217.393-4-1-1.296-2.545-4-3.5 1.552-2.26-.5-4.5l-1 1q-.66-3.549-1.5-7a71 71 0 0 1 3-9q6.423 4.9-1 7.5l2 1q-1.526 1.574-.5 3.5.634-2.184 2.5-1.5l-2 3a26.7 26.7 0 0 1 6.5 1.5l1 8q2.092 1.972 3-1l1-8a39.6 39.6 0 0 0 3 12q2.097.826 4 1l1.5-1.5q-2-1.5 0-3-3.335-.978-3.5-4.5-1.077 1.426-2.5.5 2-1.5 0-3l2-2q-6.223-1.903-13-2l2-2q-1.711-1.112 0-2.5a7.25 7.25 0 0 0-2-2.5q2.562-1.593 2-3.5a6.8 6.8 0 0 1 1.5 3l1.5-1.5q-2.6-11.45 5-2.5a46.6 46.6 0 0 0 6-5.5q-1.573-.739-3 .5a14.7 14.7 0 0 1-1.5-5l-1 2q-3.01-3.969.5-7.5-.608-1.418-2-2 1.926-1.026 3.5.5l-1-5a24.3 24.3 0 0 1 3.5 3.5 38.5 38.5 0 0 0 0 6.5 15.7 15.7 0 0 0 4-2q-1.16-1.817-2.5 0-1.746-7.282 2.5-13a605 605 0 0 0-3-3.5q1.058-2.133 1-4-1.423-.926-2.5.5-1-4.5 0-9l1 2q1.517-1.255 3.5-1-.828 8.298 3 15.5-2.493 2.91 1 2-.664-2.277 2-3.5.167 4.299 2 9 2.429-6.056 7-2-6.208 5.188.5 10a34.3 34.3 0 0 0 1.5 8q3.87-3.32 0-6.5 4.752-3.555 6 2.5 1.427 1.239 3 .5-3.56-3.39-4-8.5l-3-2 1-1q2 2 4 0 2.478 2.919 2.5 6a43 43 0 0 0 2-9q.748 5.477.5 11" style="opacity:1"/><path fill="#854419" d="M735.5 446.5q.84 3.451 1.5 7l1-1q2.052 2.24.5 4.5 2.704.955 4 3.5 1.783 1.393 4 1v4a4.93 4.93 0 0 1 3 .5q-6 2.5 0 5-6.19.633-8 5-2.911.456-5 2.5-.828-2.254 0-5a4.93 4.93 0 0 0 3-.5 7.3 7.3 0 0 1-3-2q3.71-2.103 0-4.5-2.151 4.021-2 9-1 2-2 0a3.65 3.65 0 0 1 1-1.5q-1.13-2.23-2.5-.5-.432 4.545-.5 8.5l2 1q-4.711.947-3 5-1.423.926-2.5-.5.503 5.428-4.5 7 2 5-3 3-2 3 0 6l2-4q-.002 3.361 1 7 1.344-1.509 2 0l-2 2q1.572 2.934 1.5 6-1.062-1.321-2.5-2-2.385.192-4 2a16.1 16.1 0 0 1-2.5 5q-1.424-4.05-5.5-2.5-1.068 2.137-.5 4.5l-1-1-1 3q-1.774-1.846-3.5 0 .82 3.318-3 5-.905-2.928 1-6-1.668-1.148-2-3 21.668-34.833 36-73" style="opacity:1"/><path fill="#844015" d="M1011.5 352.5c61.9 101.331 84.73 210.998 68.5 329a472 472 0 0 1-5.5 30c-.45-2.814-.61-5.814-.5-9-1.15 4.803-2.31 4.47-3.5-1a8.4 8.4 0 0 1-4-.5c-2.17-4.282-4.84-7.449-8-9.5 19.85-120.293-2.82-231.626-68-334q-.098-.657.5-1 3.16 6.023 2-1-1.112-1.712-2.5 0-1.847-1.726 0-3.5l-2-1q2.5-1 5 0 2.86 2.99 3.5-1.5 1.35 1.905 3.5 3-3.222 1.22-4 4.5 1.746 4.058 5 4.5-.6 2.901-3 4.5l1.5 1.5q2.1-1.09 4.5-1.5-.375-2.866 0-6-2.145-3.332-6-4.5c.825-.886 1.82-1.219 3-1v-3q3.27-.13 6-2c.78 1.788 2.12 2.788 4 3" style="opacity:1"/><path fill="#d8bfae" d="M755.5 525.5q0 1 1 1a152.3 152.3 0 0 1-13.5 19q-.598-.342-.5-1a303 303 0 0 0 13-19" style="opacity:1"/><path fill="#833f16" d="M721.5 512.5q-.482 2.322-3 2 .077 8.562 1 18-1.238 1.329-3 1 1.761-6.521 0-13-1.762-.329-3 1 2.17 3.177 2 7a22.7 22.7 0 0 1-8.5-2q-1 1 0 2 8.83 4.09-.5 1.5-2.41-4.528-5 .5l3 2q-1.635 1.664 0 3a10.3 10.3 0 0 0 1.5-4q.407 5.445 5 3 .19 1.915-1.5 3.5 2.424 6.062 4 .5 2.835.305 4.5-2 1 1 0 2-2.968 1.821-4.5 5-2.955-1.414-4.5 2a25 25 0 0 1-.5-7 12.9 12.9 0 0 0-5 .5 16.7 16.7 0 0 1-4 4 53.5 53.5 0 0 1 5 6q-2 3 0 6-1.491 1.993-3 4 .608 1.418 2 2-2 1.5 0 3l-2 1q2.25 1.25 3.5 3.5l1-1q-1.034 9.045 3.5 1-3.562-4.594-4-10.5 4.318-1.31 8 1a15.3 15.3 0 0 0-4.5 1.5q-.886 1.475 1 2a11.1 11.1 0 0 0 3.5-2 3.65 3.65 0 0 1 1.5 1q4.861-3.35-1.5-4.5 3.745-.618 6-3.5-1.238-1.329-3-1 .329-1.762-1-3-2.619 3.531-7 3a18.5 18.5 0 0 1 .5-6 18 18 0 0 0 3.5 2 32 32 0 0 1 2.5-4 18 18 0 0 0 3.5 2q.253-1.346 1-3 1.236 3.371 3 .5-2.307-5.958 3-3-3.217 1.114-.5 2.5 3.405-.81 6.5-.5a68 68 0 0 1-7.5 7.5q-2.317-1.982-3.5 1a30 30 0 0 0 5 2 29 29 0 0 1 2.5-5q.112 3.653 2.5 2-.014 2.712 1.5 5a3.65 3.65 0 0 1 1.5-1 20.2 20.2 0 0 1 1.5 6 6.8 6.8 0 0 1 1.5-3l1 1.5q-1.724 2.594 0 5-3.072 1.839-1 4.5a924 924 0 0 1-56 58.5 18620 18620 0 0 1-122 109.5 31 31 0 0 0-2-2q1.245-2.453.5-5l1-1q3.975 4.076 7.5-.5a11.3 11.3 0 0 1-3.5-1.5l-1 2q-2.918-1.788-6 0a661 661 0 0 1-5-3 3.65 3.65 0 0 1-1.5 1q-2.948-6.421-8-11a2582 2582 0 0 0 129.5-154 1673 1673 0 0 0 29.5-42q.332 1.852 2 3-1.905 3.072-1 6 3.82-1.682 3-5 1.726-1.846 3.5 0l1-3 1 1q-.568-2.363.5-4.5 4.076-1.55 5.5 2.5a16.1 16.1 0 0 0 2.5-5q1.615-1.808 4-2" style="opacity:1"/><path fill="#844218" d="M540.5 715.5q5.052 4.579 8 11a3.65 3.65 0 0 0 1.5-1 661 661 0 0 0 5 3q3.082-1.788 6 0l1-2a11.3 11.3 0 0 0 3.5 1.5q-3.525 4.576-7.5.5l-1 1q.745 2.547-.5 5a31 31 0 0 1 2 2 1093 1093 0 0 0-97.5 103 805 805 0 0 0-28 39q-6.9 11.8-12 24 26.652-26.623 61.5-41.5 41.922-17.856 87-25a2109 2109 0 0 0 114-16q41.327-7.423 75-32 30.869-28.387 43.5-68.5a484 484 0 0 0 10.5-46h4q-1.179 67.788-41.5 122-28.628 35.084-72.5 47.5a298.5 298.5 0 0 1-54 11 2116 2116 0 0 0-103 11q-49.36 6.457-93 30a172 172 0 0 0-18 13q17.764 2.77 14.5 20.5-8.295 27.259-35.5 20.5-6.684-5.12-7.5-13.5-1-7.5 0-15 9.117-36.738 29-69 46.238-72.996 105.5-136" style="opacity:1"/><path fill="#d4bca7" d="M809.5 704.5q.814.09 1 1a276 276 0 0 1-15.5 45 3734 3734 0 0 0 14.5-46" style="opacity:1"/><path fill="#844218" d="M1058.5 691.5c3.16 2.051 5.83 5.218 8 9.5a8.4 8.4 0 0 0 4 .5c1.19 5.47 2.35 5.803 3.5 1-.11 3.186.05 6.186.5 9q-42.915 186.048-199 294.5-83.48 54.255-182 70.5-12.96-1.86-9.5-15a25.6 25.6 0 0 1 6.5-5.5q213.04-40.651 319.5-228.5c23.05-42.983 39.21-88.316 48.5-136" style="opacity:1"/><path fill="#874419" d="M418.5 1006.5c45.619 23.48 93.619 40.32 144 50.5q9.436 8.445 1 18-9.414 2.655-19 0a554 554 0 0 1-112-38q-15.816-7.155-30-16.5 4.817-4.995 5-12a4.95 4.95 0 0 0 3-.5c-3.522-1.33-3.855-3.16-1-5.5q1.794.525 0 1.5c1.884.22 3.551.88 5 2q-4.503 5.235 2 7.5c4.296-.71 4.629-1.54 1-2.5 1.807-1.24 3.807-1.57 6-1-2.084-.7-3.751-1.86-5-3.5" style="opacity:1"/></svg>