<svg xmlns="http://www.w3.org/2000/svg" width="1254" height="1254" style="shape-rendering:geometricPrecision;text-rendering:geometricPrecision;image-rendering:optimizeQuality;fill-rule:evenodd;clip-rule:evenodd"><path fill="none" d="M-.5-.5h1254v1254H-.5z" style="opacity:1"/><path fill="#b48c71" d="M555.5 93.5q-6.208 1.595-13 2 6.067-2.516 13-2" style="opacity:1"/><path fill="#ad7b5c" d="M541.5 95.5q-5.565 2.454-12 2 5.692-1.675 12-2" style="opacity:1"/><path fill="#d0b3a2" d="M757.5 107.5q3.978-.136 7 2-3.978.136-7-2" style="opacity:1"/><path fill="#d1b6a6" d="M764.5 109.5q3.978-.136 7 2-3.978.136-7-2" style="opacity:1"/><path fill="#a57254" d="M761.5 128.5q6.997.835 13 4-6.997-.835-13-4" style="opacity:1"/><path fill="#7f3d19" d="M708.5 195.5q-7.803 3.5-16.5 5-15.681-4.64-31.5 2a15 15 0 0 0-4.5-1 476 476 0 0 0-39.5 7 287 287 0 0 0 24-7 3.65 3.65 0 0 1 1.5 1 374 374 0 0 1 24.5-3.5l1-1a19 19 0 0 0-8-1.5q24.233-3.247 49-1" style="opacity:1"/><path fill="#8d461b" d="M708.5 195.5q43.029 2.89 71.5 35 8.702 12.402 12.5 27-2.334-4.827-4.5 2l-1-2q-.598.342-.5 1-5.266-20.52-22.5-33 2.197 5.541 5.5 11-3.35 4.024-6 9-3.261-2.045-6.5-1l-1-4-1 1q-2.23-2.658-1-6l2 2 1-7q3.723-2.865 1.5-7-8.442 5.261-9 14.5.389 1.892 2 3l-3.5 4.5a7.25 7.25 0 0 0-2.5-2q-2.233.05-4 1.5 2.348 2.259 1 4.5-14.994-27.028-45-35.5-46.234-12.51-91 5-29.101 11.293-54 29.5-.814-.09-1-1 1.96-2.118 2.5-5a124 124 0 0 0 17.5-15 442 442 0 0 1 45-19 476 476 0 0 1 39.5-7q2.341.155 4.5 1 15.819-6.64 31.5-2 8.697-1.5 16.5-5" style="opacity:1"/><path fill="#713819" d="M659.5 196.5a19 19 0 0 1 8 1.5l-1 1a374 374 0 0 0-24.5 3.5 3.65 3.65 0 0 0-1.5-1 287 287 0 0 1-24 7 442 442 0 0 0-45 19q40.503-25.003 88-31" style="opacity:1"/><path fill="none" d="M786.5 258.5a18.5 18.5 0 0 1-.5 6l-1-1a20320 20320 0 0 0-15.5-27q-3.303-5.459-5.5-11 17.234 12.48 22.5 33" style="opacity:1"/><path fill="#803e19" d="M571.5 227.5a124 124 0 0 1-17.5 15q-.54 2.882-2.5 5 .186.91 1 1 0 1-1 1-2.928-1.362-6 .5-6.403 2.98-13 7.5 17.052-18.265 39-30" style="opacity:1"/><path fill="#894219" d="M769.5 236.5a20320 20320 0 0 1 15.5 27l1 1q.743-2.96.5-6-.098-.658.5-1l1 2q2.166-6.827 4.5-2 2.391 5.625 3.5 12 3.5 32.487-8 63-15.99 41.036-45.5 73-7.683-4.977-17-5.5-1.08-3.183-3.5-1.5a8.4 8.4 0 0 1-.5-4q4.946.257 1-2a83 83 0 0 1 5-7.5q-1.255-1.517-1-3.5 2.517-6.216 6.5-12a8.4 8.4 0 0 0 .5-4q3.271.324 5-2.5-2.738-2.199-1.5-5.5a22 22 0 0 1 4.5-6.5q-1.157-2.997 2-5a3.65 3.65 0 0 1-1-1.5q5.954-6.065 3-15.5 2.471-6.476 2-13.5 4.221-21.378 2-43-.098-4.392-2-8a83 83 0 0 0-5-15q1.348-2.241-1-4.5 1.767-1.45 4-1.5a7.25 7.25 0 0 1 2.5 2l3.5-4.5q-1.611-1.108-2-3 .558-9.239 9-14.5 2.223 4.135-1.5 7l-1 7-2-2q-1.23 3.342 1 6l1-1 1 4q3.239-1.045 6.5 1 2.65-4.976 6-9" style="opacity:1"/><path fill="#c1a28e" d="M747.5 264.5q1.902 3.608 2 8-2.31-3.507-2-8" style="opacity:1"/><path fill="#914a20" d="M551.5 249.5q-23.838 19.58-39.5 46a178 178 0 0 0-7.5 16q-1.562.69-2.5 4a32 32 0 0 0-3.5-4q2.232-3.579-1-2 12.284-29.587 35-52 6.597-4.52 13-7.5 3.072-1.862 6-.5" style="opacity:1"/><path fill="#833f19" d="M757.5 107.5q3.022 2.136 7 2 3.022 2.136 7 2 175.073 58.668 268.5 218c53.49 94.327 76.32 195.66 68.5 304-1.24 5.46-1.9 11.127-2 17v2c-1.47 4.419-2.14 9.086-2 14a439 439 0 0 1-5 24c-.27-2.342-1.11-2.342-2.5 0q-.99-2.412 1.5-3.5c-.67-1-1.33-2-2-3a52 52 0 0 0 1-12q-1.23-2.532-3-.5-3.36-.798-4.5-4c-1.29 1.354-1.46 2.688-.5 4-.67 1-1.33 2-2 3q3.075 3.423 3 8-4.275.463-4.5 5a57.1 57.1 0 0 1-1.5-17c21.4-150.433-15.43-284.433-110.5-402q-81.324-95.082-199.5-136-6.003-3.165-13-4a608.6 608.6 0 0 0-90-17.5q-11.23-8.388-1-18l5.5-.5a650 650 0 0 1 81.5 15" style="opacity:1"/><path fill="#d5b6a3" d="M502.5 324.5a89.4 89.4 0 0 0 1 15q-2.236-4.029-2-9 .007-3.294 1-6" style="opacity:1"/><path fill="#b38e78" d="M491.5 330.5a372 372 0 0 0-1 23q-1.962-11.576 1-23" style="opacity:1"/><path fill="#8c4319" d="M504.5 311.5a38.5 38.5 0 0 0-2 13q-.993 2.706-1 6-.236 4.971 2 9 1.922 4.421 6 7 .626 1.083 2 1.5 6.481.749 13 .5 5.897.948 10 5a14 14 0 0 1-1 3.5q1.014 2.525 3 .5 3.96 18.776-15 24.5-16.137 3.794-25.5-9.5a58 58 0 0 1-5.5-19q.144-11.519 1-23 1.763-10.976 6-21 3.232-1.579 1 2a32 32 0 0 1 3.5 4q.938-3.31 2.5-4" style="opacity:1"/><path fill="#cba78e" d="M497.5 326.5a287 287 0 0 0 5 17.5l-1 .5q-5.131-8.211-4-18" style="opacity:1"/><path fill="#cbb1a2" d="M509.5 346.5q7.752.65 15 2a85 85 0 0 1-13-.5q-1.374-.417-2-1.5" style="opacity:1"/><path fill="#c28d68" d="M534.5 353.5q1.76 1.52 2 4-1.986 2.025-3-.5a14 14 0 0 0 1-3.5" style="opacity:1"/><path fill="none" d="M527.5 356.5q4.5-.5 4 4a9.86 9.86 0 0 1-6-1 186 186 0 0 0 2-3" style="opacity:1"/><path fill="#813e18" d="M179.5 413.5q-1.083-.626-1.5-2l-1 2q-4.202-2.837-3.5-8-2.551-.699-4.5 0-2.481-3.485-3.5-7 84.606-201.855 289-280.5a532 532 0 0 1 75-20.5q6.435.454 12-2h1q6.792-.405 13-2 7.726-1.725 16-.5 10 8.5 0 17Q396.015 132.866 274 260.5q-60.921 67.797-94.5 153" style="opacity:1"/><path fill="#843f19" d="M726.5 381.5q-.255 1.983 1 3.5a83 83 0 0 0-5 7.5q3.946 2.257-1 2a8.4 8.4 0 0 0 .5 4q2.42-1.683 3.5 1.5 9.317.523 17 5.5a350 350 0 0 1-34 36.5 1549 1549 0 0 1-55 47.5 841 841 0 0 1-27 19.5l1.5.5q3.656-1.95 7.5-3 .09.814 1 1a54.6 54.6 0 0 1 18-6 247 247 0 0 0-25 11.5 56 56 0 0 1-5.5 4.5q-.359 1.932 1.5 3a572 572 0 0 0-61 38q-4.223-.94-7.5-4-10.276 5.001-17.5 14a87.6 87.6 0 0 0-11 6 141 141 0 0 1 13.5-11q.52-3.522 3.5-5.5-.342-.598-1-.5.513-1.257 2-1 16.17-4.642 29-17.5a24.8 24.8 0 0 1 8-3q2.444-5.196 8-6.5 2.2-6.95 9-9.5l5-5.5q18.895-12.006 33-29.5l3-1.5q2.037 1.689 4 0a37.5 37.5 0 0 0 3-8l3-2.5q3.466.232 7 0a55 55 0 0 0 4-8.5 2242 2242 0 0 0 15.5-13l1 1a21.4 21.4 0 0 1 0-5q6.46-10.459 17-17a77 77 0 0 0 4-9q9.77-6.552 12-18a30 30 0 0 0 6-7q2.797-8.493 8.5-15" style="opacity:1"/><path fill="#763a17" d="M747.5 315.5q.471 7.024-2 13.5 2.954 9.435-3 15.5a3.65 3.65 0 0 0 1 1.5q-3.157 2.003-2 5a22 22 0 0 0-4.5 6.5q-1.238 3.301 1.5 5.5-1.729 2.824-5 2.5a8.4 8.4 0 0 1-.5 4q-3.983 5.784-6.5 12-5.703 6.507-8.5 15a30 30 0 0 1-6 7q-2.23 11.448-12 18a77 77 0 0 1-4 9q-10.54 6.541-17 17a21.4 21.4 0 0 0 0 5l-1-1a2242 2242 0 0 1-15.5 13 55 55 0 0 1-4 8.5 53 53 0 0 1-7 0l-3 2.5a37.5 37.5 0 0 1-3 8q-1.963 1.689-4 0 4.354-4.19 6.5-10 3.399-2.185 7.5-2.5a28.4 28.4 0 0 0 4.5-7.5 431 431 0 0 0 16.5-16.5l-1-1q6.124-2.947 8.5-9.5a77.7 77.7 0 0 0 10-11q2.046-12.29 13.5-17 3.082-8.909 9-16.5a3.65 3.65 0 0 1-1-1.5q3.237-3.972 4-9 18.219-31.413 28-66" style="opacity:1"/><path fill="#5e2a11" d="M719.5 381.5q-.763 5.028-4 9a3.65 3.65 0 0 0 1 1.5q-5.918 7.591-9 16.5-11.454 4.71-13.5 17a77.7 77.7 0 0 1-10 11q-2.376 6.553-8.5 9.5l1 1a431 431 0 0 1-16.5 16.5 28.4 28.4 0 0 1-4.5 7.5q-4.101.315-7.5 2.5-2.146 5.81-6.5 10l-3 1.5q-14.105 17.494-33 29.5l-5 5.5q-6.8 2.55-9 9.5-5.556 1.304-8 6.5a24.8 24.8 0 0 0-8 3q-12.83 12.858-29 17.5a533 533 0 0 1 31-23q32.563-22.276 60.5-51a2.43 2.43 0 0 0 .5-2q46.785-44.744 81-99" style="opacity:1"/><path fill="#89441a" d="M759.5 751.5q.531-3.061 0-5.5-2.96-3.022-5 .5-3.202-3.147-7-2.5 2.26-1.256 1.5-3.5-6.733 4.564-5.5-4 3.334-.483 5.5 2 1.392-2.752 3.5-1 .972-2.473 3-4 1.509.656 0 2 8.277 3.765 8.5-5 .981 1.794 1.5 0-2.437-1.018-4-3.5 1.386-2.717 2.5.5.663-3.268 3-2 .793-3.127-1.5-5.5a3.94 3.94 0 0 1 1-2q2.826-.324 5-2-1.32-2.034-1-4.5-1.983-.255-3.5 1a4.46 4.46 0 0 1-1.5-2q3.88-.544 7-3.5-1.402 3.572-1 7.5 1.762.329 3-1l-2-1a12 12 0 0 0 1-6q4.671-.887 7.5-5 .834 3.143 1.5.5-.195-1.588-1.5-2.5a10.94 10.94 0 0 1-4.5 3 15.3 15.3 0 0 0-3-5.5q4.171-3.62 9-2.5-.779-7.245-7-8a4.46 4.46 0 0 1 2-1.5q-2.566-1.7-1.5-4.5 1.651-2.841 4-2a8.4 8.4 0 0 0 .5-4 50.5 50.5 0 0 1-10-.5q.841-2.514 3-4l-1.5-.5q-3.264 4.181-8.5 2.5 1.536-2.05-1.5-2.5-2.344.903.5 2.5a8.4 8.4 0 0 1-4 .5 72.4 72.4 0 0 1-.5 12q.339-7.059-3.5-2.5 3.732 3.94.5 8.5-2.532-1.238-.5-3l-2-1q-2.352 1.222-4 1 .05 2.233 1.5 4a6.8 6.8 0 0 1 1.5-3q-.442 1.989 1.5 4 1.5-2 3 0a6.8 6.8 0 0 1 1.5-3l1 1.5q-.582 3.29 0 7-.525 1.886-2 1-.722-1.512-.5-3.5-4.43 2.165-4.5 7a4.93 4.93 0 0 1 3 .5q-3.718 1.34-7 1-.649 4.4-5 5.5.699-2.692 0-6a29 29 0 0 1-4 1.5q1.926 1.946-.5 3.5-2.125-.867-2.5-3 5.038-5.673 4-13 3.16-1.715 5-6.5-3.297-2.817-.5-6.5 7.33-9.493 9.5-21.5a9.6 9.6 0 0 1 3-3q-1.265-7.988 2-16.5-2.413-7.638 2-12-.92-8.537 1.5-17l1 2q1.514-2.288 1.5-5 2.236-6.444 3-13.5l1-.5q3.207 4.285 2.5 9l5-5q.724 1.422.5 3h4a12.9 12.9 0 0 1 .5-5q1.965 2.448 1.5 5a19 19 0 0 1 3-5q-1.865-4.814 2.5-8a12.9 12.9 0 0 0 .5-5q-2.217-.393-4 1 3.946 2.257-1 2 .329-1.762-1-3-.253 1.346-1 3a23.4 23.4 0 0 0-3-7l-1 .5a18 18 0 0 1 2 3.5q-1.16 1.817-2.5 0-.966 3.972-4.5 4.5 2.137-2.043 2.5-4.5a755 755 0 0 0-7 6 3.65 3.65 0 0 0-1.5-1q1.109-18.322-7.5-34a28 28 0 0 0-1.5-5 3.65 3.65 0 0 1 1-1.5 44 44 0 0 1-6-11q1.502-2.65-1-5 1.857.116 3-.5a10.9 10.9 0 0 0-4.5-5q-2.476 2.043-4.5 2-13.812-16.667-35-22 2.51-3.187 2.5-7-6.324-4.889-13.5-.5a13.9 13.9 0 0 0 3 4l-1.5.5a1254 1254 0 0 0-12-5 8.9 8.9 0 0 0-3 4q-1.392-2.752-3.5-1-6.189-2.672-13-2 6.632-2.167 14-2.5a41.7 41.7 0 0 0 10.5-4.5 3.94 3.94 0 0 1 2 1q2.295-2.13 5.5-3-2.318-1.428-5-1h-3q50.74-12.376 90 21.5 30.788 33.845 29 80-.844 41.907-14.5 81.5-15.301 42.594-38.5 81" style="opacity:1"/><path fill="#5d3422" d="M693.5 487.5h3q-2.013 1.94-5 2.5a628 628 0 0 0-34 7.5l6-3a163.7 163.7 0 0 1 30-7" style="opacity:1"/><path fill="#673013" d="M696.5 487.5q2.682-.428 5 1-3.205.87-5.5 3a3.94 3.94 0 0 0-2-1 41.7 41.7 0 0 1-10.5 4.5q-7.368.333-14 2.5a6462 6462 0 0 1-15 4 54.6 54.6 0 0 0-18 6q-.91-.186-1-1 9.913-6.95 22-9a628 628 0 0 1 34-7.5q2.987-.56 5-2.5" style="opacity:1"/><path fill="#ede6e2" d="M653.5 489.5a56 56 0 0 0 1 4.5q2.122-.382 4.5-1.5 1.664 1.508 4.5 2l-6 3q-12.087 2.05-22 9-3.844 1.05-7.5 3l-1.5-.5a841 841 0 0 0 27-19.5" style="opacity:1"/><path fill="#90441a" d="M710.5 504.5q-19.499-4-39 0-4.493-.31-8 2a144.8 144.8 0 0 0-38 14q-1.859-1.068-1.5-3a56 56 0 0 0 5.5-4.5 247 247 0 0 1 25-11.5q7.494-1.989 15-4 6.811-.672 13 2 2.108-1.752 3.5 1a8.9 8.9 0 0 1 3-4q5.976 2.454 12 5l1.5-.5a13.9 13.9 0 0 1-3-4q7.176-4.389 13.5.5.01 3.813-2.5 7" style="opacity:1"/><path fill="#471e13" d="M638.5 480.5a2.43 2.43 0 0 1-.5 2q-27.937 28.724-60.5 51a761 761 0 0 0 61-53" style="opacity:1"/><path fill="#ccab99" d="M671.5 504.5q-3.608 1.902-8 2 3.507-2.31 8-2" style="opacity:1"/><path fill="none" d="M795.5 540.5q.401 2.398-1 4-11.292-21.558-29-38.5 22.464 10.248 30 34.5" style="opacity:1"/><path fill="#c49c84" d="M795.5 540.5q1.694 3.192.5 7l-1.5-3q1.401-1.602 1-4" style="opacity:1"/><path fill="#d1b7a7" d="M755.5 546.5q2.135 3.022 2 7-2.135-3.022-2-7" style="opacity:1"/><path fill="#8f451b" d="M564.5 558.5a2889 2889 0 0 0-53 40.5 602 602 0 0 1-8 4q-2.83 1.17-5-.5a157 157 0 0 1 8-7.5 15.3 15.3 0 0 0 4.5-1.5q-.447-6.874 5.5-11.5 6.217-3.48 12-7.5a87.6 87.6 0 0 1 11-6q7.224-8.999 17.5-14 3.277 3.06 7.5 4" style="opacity:1"/><path fill="#823f18" d="M165.5 398.5q1.019 3.515 3.5 7 1.949-.699 4.5 0-.702 5.163 3.5 8l1-2q.417 1.374 1.5 2-77.711 219.099 34 423-1.077 5.39-4.5 10-.926-1.423.5-2.5l-4-3-7 1q1.392-.582 2-2a57 57 0 0 1-1.5-6.5q-4.303 2.03-8.5 1-33.061-61.176-49-129 .136-3.978-2-7a624 624 0 0 0-7-40q-.04-8.326-2-16-12.4-126.567 35-244" style="opacity:1"/><path fill="#6b3215" d="M544.5 557.5q.658-.098 1 .5-2.98 1.978-3.5 5.5a141 141 0 0 0-13.5 11 146 146 0 0 1-12 7.5q-5.947 4.626-5.5 11.5a15.3 15.3 0 0 1-4.5 1.5 157 157 0 0 0-8 7.5q-1.647-1.651-.5-4 7.35-10.936 16.5-20.5a710 710 0 0 0 30-20.5" style="opacity:1"/><path fill="#873e19" d="M764.5 606.5q-.63-5.078-1-9.5 1.827-2.157 2-5-2.15-13.115-4-22.5l-4-16q.135-3.978-2-7a70.3 70.3 0 0 0-10-20q2.024.043 4.5-2a10.9 10.9 0 0 1 4.5 5q-1.143.616-3 .5 2.502 2.35 1 5a44 44 0 0 0 6 11 3.65 3.65 0 0 0-1 1.5 28 28 0 0 1 1.5 5q8.609 15.678 7.5 34a3.65 3.65 0 0 1 1.5 1q3.44-2.985 7-6-.363 2.457-2.5 4.5 3.534-.528 4.5-4.5 1.34 1.817 2.5 0a18 18 0 0 0-2-3.5l1-.5a23.4 23.4 0 0 1 3 7q.747-1.654 1-3 1.329 1.238 1 3 4.946.257 1-2 1.783-1.393 4-1a12.9 12.9 0 0 1-.5 5q-4.365 3.186-2.5 8a19 19 0 0 0-3 5q.465-2.552-1.5-5a12.9 12.9 0 0 0-.5 5h-4a4.93 4.93 0 0 0-.5-3l-5 5q.707-4.715-2.5-9l-1 .5q-.764 7.056-3 13.5" style="opacity:1"/><path fill="#d8c0b2" d="M1108.5 633.5c.18 5.904-.49 11.571-2 17 .1-5.873.76-11.54 2-17" style="opacity:1"/><path fill="#d8c6b9" d="M130.5 642.5q1.96 7.674 2 16-2.367-7.624-2-16" style="opacity:1"/><path fill="#dac6b8" d="M1106.5 652.5c.14 4.914-.53 9.581-2 14-.14-4.914.53-9.581 2-14" style="opacity:1"/><path fill="#883e19" d="M759.5 751.5a2058 2058 0 0 1-5 8v-7a17.7 17.7 0 0 0-6-.5q2 1 0 2-2.152-.467-4 .5l-1-1q3.198-5.94-.5-11 .89 3.014-.5 6a26 26 0 0 1-5.5 0q-4.428 2.54-.5 5.5-3.135.402-4-3a14.8 14.8 0 0 0 3-4.5q2.603.835 5 1 2.008-10.572 1-21h3a4.93 4.93 0 0 0-.5-3q-1.077 1.426-2.5.5 1.816-1.34 0-2.5l-3 2q-4.396-2.066-8-5l3-6a4.46 4.46 0 0 0-2-1.5q2.47-3.53 4-5.5.375 2.133 2.5 3 2.426-1.554.5-3.5a29 29 0 0 0 4-1.5q.699 3.308 0 6 4.351-1.1 5-5.5 3.282.34 7-1a4.93 4.93 0 0 0-3-.5q.07-4.835 4.5-7-.222 1.988.5 3.5 1.475.886 2-1-.582-3.71 0-7l-1-1.5a6.8 6.8 0 0 0-1.5 3q-1.5-2-3 0-1.942-2.011-1.5-4a6.8 6.8 0 0 0-1.5 3q-1.45-1.767-1.5-4 1.648.222 4-1l2 1q-2.032 1.762.5 3 3.232-4.56-.5-8.5 3.839-4.559 3.5 2.5.749-5.979.5-12a8.4 8.4 0 0 0 4-.5q-2.844-1.597-.5-2.5 3.036.45 1.5 2.5 5.236 1.681 8.5-2.5l1.5.5q-2.159 1.486-3 4 4.975.747 10 .5a8.4 8.4 0 0 1-.5 4q-2.349-.841-4 2-1.066 2.8 1.5 4.5a4.46 4.46 0 0 0-2 1.5q6.221.755 7 8-4.829-1.12-9 2.5a15.3 15.3 0 0 1 3 5.5 10.94 10.94 0 0 0 4.5-3q1.305.912 1.5 2.5-.666 2.643-1.5-.5-2.829 4.113-7.5 5a12 12 0 0 1-1 6l2 1q-1.238 1.329-3 1-.402-3.928 1-7.5-3.12 2.956-7 3.5a4.46 4.46 0 0 0 1.5 2q1.517-1.255 3.5-1-.32 2.466 1 4.5-2.174 1.676-5 2a3.94 3.94 0 0 0-1 2q2.293 2.373 1.5 5.5-2.337-1.268-3 2-1.114-3.217-2.5-.5 1.563 2.482 4 3.5-.519 1.794-1.5 0-.223 8.765-8.5 5 1.509-1.344 0-2-2.028 1.527-3 4-2.108-1.752-3.5 1-2.166-2.483-5.5-2-1.233 8.564 5.5 4 .76 2.244-1.5 3.5 3.798-.647 7 2.5 2.04-3.522 5-.5.531 2.439 0 5.5" style="opacity:1"/><path fill="#783b19" d="M764.5 606.5q.014 2.712-1.5 5l-1-2q-2.42 8.463-1.5 17-4.413 4.362-2 12-3.265 8.512-2 16.5a9.6 9.6 0 0 0-3 3q-2.17 12.007-9.5 21.5-2.797 3.683.5 6.5-1.84 4.785-5 6.5 1.038 7.327-4 13-1.53 1.97-4 5.5a4.46 4.46 0 0 1 2 1.5l-3 6q-.836 4.938-5 7.5.686.621 1 1.5-2.836 5.163-3 11h-3a8.4 8.4 0 0 1-.5 4 282 282 0 0 1-10 17q-1.27 3.531-2.5 7-1.147 5.586-6.5 10l-1-1a47 47 0 0 0-3.5 5.5 4.46 4.46 0 0 1 2 1.5 6.85 6.85 0 0 0-1 4q-1.762-.329-3 1a87 87 0 0 0-2.5 7 121 121 0 0 0-13 16q-.926 1.423.5 2.5-2.199 2.328-3 5.5-2.357 2.872-6 3-2.606 3.44-3.5 8-10.122 8.875-13 22-3.764 4.747-9.5 6a25 25 0 0 1-.5 7 184.4 184.4 0 0 0-19 18 35.2 35.2 0 0 1-5 10q-2.626-1.01-5-1a947 947 0 0 0-18.5 19 54.3 54.3 0 0 0-14 6.5 39.4 39.4 0 0 1-11 8.5q-.91-.186-1-1a86.6 86.6 0 0 1 18-13 18.5 18.5 0 0 0 3.5-2l1 1a580 580 0 0 1 17.5-18q3.408-3.226 8-4.5a138 138 0 0 1 22-23.5 67 67 0 0 0 4.5-10q6.86-3.359 9.5-10.5a3.94 3.94 0 0 0-1-2 211 211 0 0 0 17.5-23.5q2.381 1.84 4-1a9.5 9.5 0 0 1 1.5-2.5q-1.25-3.122 0-6.5 56.651-83.202 80.5-181a234 234 0 0 0 4.5-58q1.85 9.385 4 22.5-.173 2.843-2 5 .37 4.422 1 9.5" style="opacity:1"/><path fill="#7d3d19" d="M473.5 694.5h-5q.329 1.762-1 3a178 178 0 0 1-10 3.5q.07 6.484-5.5 9.5-4.61-1.676-9.5-.5a64.8 64.8 0 0 0-6.5 11.5q-8.44-.094-10 9a699 699 0 0 0-22.5 22 702 702 0 0 1 4-7q6.596-8.93 15.5-16a30.3 30.3 0 0 0 5-8q8.964-5.214 14.5-14 8.22-3.21 14-10a57 57 0 0 0 7-2.5 31.6 31.6 0 0 0-8 .5q4.793-2.295 10.5-2 4.035.004 7.5 1" style="opacity:1"/><path fill="#8e451a" d="M473.5 694.5q15.522 5.799 8.5 21-5.808 6.29-14.5 7.5-87.121 43.404-97 140.5-1.237 6.221-1.5 13l-1-2q-.41 2.744-2.5 4.5a37 37 0 0 1 2 4.5q-1.1.88-3 0a173 173 0 0 1-.5-31 9.5 9.5 0 0 1 2.5-1.5q1.124-3.677 0-8a308 308 0 0 1 6.5-28.5q5.058-7.708 6-17a21.5 21.5 0 0 1 5-6 79 79 0 0 0 2-10 160.8 160.8 0 0 1 17.5-29 699 699 0 0 1 22.5-22q1.56-9.094 10-9a64.8 64.8 0 0 1 6.5-11.5q4.89-1.176 9.5.5 5.57-3.016 5.5-9.5a178 178 0 0 0 10-3.5q1.329-1.238 1-3z" style="opacity:1"/><path fill="none" d="M473.5 701.5q2.975-.175 5 2-3 2-6 0 .544-1.025 1-2" style="opacity:1"/><path fill="#cfb7a7" d="M139.5 698.5q2.136 3.022 2 7-2.136-3.022-2-7" style="opacity:1"/><path fill="#5b2a12" d="M407.5 745.5q-2.276.016-3.5 2-19.524 29.064-32.5 61 22.013-62.796 72-106.5 5.524-4.308 12-6.5a31.6 31.6 0 0 1 8-.5 57 57 0 0 1-7 2.5q-5.78 6.79-14 10-5.536 8.786-14.5 14a30.3 30.3 0 0 1-5 8q-8.904 7.07-15.5 16" style="opacity:1"/><path fill="#874319" d="M730.5 718.5q3.604 2.934 8 5l3-2q1.816 1.16 0 2.5 1.423.926 2.5-.5.724 1.422.5 3h-3q1.008 10.428-1 21-2.397-.165-5-1a14.8 14.8 0 0 1-3 4.5q.865 3.402 4 3-3.928-2.96.5-5.5 2.855.291 5.5 0 1.39-2.986.5-6 3.698 5.06.5 11l1 1q1.848-.967 4-.5 2-1 0-2a17.7 17.7 0 0 1 6 .5v7a290.5 290.5 0 0 1-26 38q-2.072-2.661 1-4.5a4.93 4.93 0 0 0-3-.5q-1.396-6.178.5-12a15.3 15.3 0 0 0 4.5 5q.616-1.143.5-3 5.496-3.11.5-4 .329-1.762-1-3-.05 2.233-1.5 4-3.917-5.868-10.5-3l-2-7q-5.508-2.325-2 1.5l-1 .5q-5.12-1.766-7-5 1.23-3.469 2.5-7a282 282 0 0 0 10-17 8.4 8.4 0 0 0 .5-4h3q.164-5.837 3-11a3.65 3.65 0 0 0-1-1.5q4.164-2.562 5-7.5" style="opacity:1"/><path fill="#864019" d="M707.5 766.5q1.88 3.234 7 5l1-.5q-3.508-3.825 2-1.5l2 7q6.583-2.868 10.5 3 1.45-1.767 1.5-4 1.329 1.238 1 3 4.996.89-.5 4 .116 1.857-.5 3a15.3 15.3 0 0 1-4.5-5q-1.896 5.822-.5 12a4.93 4.93 0 0 1 3 .5q-3.072 1.839-1 4.5-40.725 55.232-94 99-.961-5.745-5-2-1.223-2.664-3.5-2a12.14 12.14 0 0 0-3.5 4.5l3 1q-7.25-.75-6.5 6.5l-1-1a19.9 19.9 0 0 0-3.5 4 18.3 18.3 0 0 0-6-4q-6.548 3.802-10.5 10a66 66 0 0 1-8.5 1.5q-.189 4.386-4 8a134 134 0 0 1-11 3q-9.42 4.82 0 9l-2 1a17.7 17.7 0 0 0 6-.5q-18.361 11.933-39 20-4.034-.757-6.5-4l-1.5.5a4.46 4.46 0 0 1 2 1.5q-6.767 3.795-14 3.5-1.32 2.034-1 4.5a41.3 41.3 0 0 1-10-2 260 260 0 0 1 27-10.5q12.222-9.693 28-16.5 1.893-3.544 5-7 .513-1.258 2-1 .09.814 1 1a39.4 39.4 0 0 0 11-8.5 54.3 54.3 0 0 1 14-6.5 947 947 0 0 1 18.5-19q2.374-.01 5 1a35.2 35.2 0 0 0 5-10 184.4 184.4 0 0 1 19-18q.745-3.465.5-7 5.736-1.253 9.5-6 2.878-13.125 13-22 .894-4.56 3.5-8 3.643-.128 6-3 .801-3.172 3-5.5-1.426-1.077-.5-2.5a121 121 0 0 1 13-16 87 87 0 0 1 2.5-7q1.238-1.329 3-1a6.85 6.85 0 0 1 1-4 4.46 4.46 0 0 0-2-1.5 47 47 0 0 1 3.5-5.5l1 1q5.353-4.414 6.5-10" style="opacity:1"/><path fill="#743818" d="M407.5 745.5a702 702 0 0 0-4 7 160.8 160.8 0 0 0-17.5 29 79 79 0 0 1-2 10 21.5 21.5 0 0 0-5 6q-.942 9.292-6 17a308 308 0 0 0-6.5 28.5q1.124 4.323 0 8a9.5 9.5 0 0 0-2.5 1.5 173 173 0 0 0 .5 31q.426 2.872-1 5-5.721-40.955 8-80 12.976-31.936 32.5-61 1.224-1.984 3.5-2" style="opacity:1"/><path fill="#6c3314" d="M676.5 808.5q-1.25 3.378 0 6.5a9.5 9.5 0 0 0-1.5 2.5q-1.619 2.84-4 1a211 211 0 0 1-17.5 23.5 3.94 3.94 0 0 1 1 2q-2.64 7.141-9.5 10.5a67 67 0 0 1-4.5 10 138 138 0 0 0-22 23.5q-4.592 1.274-8 4.5a580 580 0 0 0-17.5 18l-1-1a18.5 18.5 0 0 1-3.5 2q7.914-9.407 18-17a337 337 0 0 0 21-23 741 741 0 0 0 49-63" style="opacity:1"/><path fill="#90451a" d="M634.5 896.5a405 405 0 0 1-56 39 17.7 17.7 0 0 1-6 .5l2-1q-9.42-4.18 0-9a134 134 0 0 0 11-3q3.811-3.614 4-8a66 66 0 0 0 8.5-1.5q3.952-6.198 10.5-10a18.3 18.3 0 0 1 6 4 19.9 19.9 0 0 1 3.5-4l1 1q-.75-7.25 6.5-6.5l-3-1a12.14 12.14 0 0 1 3.5-4.5q2.277-.664 3.5 2 4.039-3.745 5 2" style="opacity:1"/><path fill="#9f634a" d="M385.5 927.5q2.643 1.144 3 4-2.643-1.144-3-4" style="opacity:1"/><path fill="#dcbfa7" d="m380.5 921.5 5 6q.357 2.856 3 4t3 4v2q-7.718-6.423-11-16" style="opacity:1"/><path fill="#693316" d="M568.5 925.5q-3.107 3.456-5 7-15.778 6.807-28 16.5a260 260 0 0 0-27 10.5q-13.59 4.16-28 5-1.063-1.356-3-1a273 273 0 0 0 35-9.5 457 457 0 0 1 26-11.5 39.3 39.3 0 0 0 11-4.5 328 328 0 0 1 19-12.5" style="opacity:1"/><path fill="#8f4921" d="M370.5 863.5q-1.445 34.214 15 64l-5-6q3.282 9.577 11 16 4.79 7.68 13 12 1.025-.544 2-1 23.604 17.03 53 16a264 264 0 0 0 18-1q1.937-.356 3 1-2.61 3.084-7 4-10.529.347-21-2-5.365-.273-10 2a10.3 10.3 0 0 1-3-1 21 21 0 0 1-1 2.5q3.312.287 6 1.5-45.142-5.889-68.5-45-9.41-17.98-12.5-38 1.426-2.128 1-5 1.9.88 3 0a37 37 0 0 0-2-4.5q2.09-1.756 2.5-4.5l1 2q.263-6.779 1.5-13" style="opacity:1"/><path fill="#dbbba1" d="M380.5 921.5q-4.797-5.092-5.5-12a97 97 0 0 1 5.5 12" style="opacity:1"/><path fill="#5a2b15" d="M627.5 871.5a337 337 0 0 1-21 23q-10.086 7.593-18 17a86.6 86.6 0 0 0-18 13q-1.487-.258-2 1a328 328 0 0 0-19 12.5 39.3 39.3 0 0 1-11 4.5q49.22-29.181 89-71" style="opacity:1"/><path fill="#8e4427" d="M391.5 935.5q4.5 3.5 8 8a34.5 34.5 0 0 1-8-6z" style="opacity:1"/><path fill="#c29070" d="M391.5 937.5a34.5 34.5 0 0 0 8 6 26.2 26.2 0 0 1 7 5q-.975.456-2 1-8.21-4.32-13-12" style="opacity:1"/><path fill="#93491f" d="M539.5 955.5a65.7 65.7 0 0 1-14 6 86.7 86.7 0 0 0-14 5q-30.444 8.224-62 6.5-2.822-.297-5-1.5-2.688-1.213-6-1.5.645-1.38 1-2.5 1.419.73 3 1 4.635-2.273 10-2 10.471 2.347 21 2 4.39-.916 7-4 14.41-.84 28-5a41.3 41.3 0 0 0 10 2q-.32-2.466 1-4.5 7.233.295 14-3.5a4.46 4.46 0 0 0-2-1.5l1.5-.5q2.466 3.243 6.5 4" style="opacity:1"/><path fill="#e0cbbe" d="M525.5 961.5q-3.632 2.652-8 4.5a18.5 18.5 0 0 1-6 .5 86.7 86.7 0 0 1 14-5" style="opacity:1"/><path fill="#813f19" d="M1099.5 690.5c-29.18 140.571-103.183 250.404-222 329.5-63.36 39.9-132.36 63.23-207 70-4.655-2.9-6.155-7.06-4.5-12.5 1.251-2.88 3.417-4.71 6.5-5.5q214.287-28.997 335.5-206.5 58.14-89.645 76.5-195a57.1 57.1 0 0 0 1.5 17q.225-4.537 4.5-5 .075-4.577-3-8c.67-1 1.33-2 2-3-.96-1.312-.79-2.646.5-4q1.14 3.202 4.5 4 1.77-2.032 3 .5c.13 4.091-.21 8.091-1 12 .67 1 1.33 2 2 3q-2.49 1.088-1.5 3.5c1.39-2.342 2.23-2.342 2.5 0" style="opacity:1"/><path fill="#833f19" d="M213.5 836.5q101.46 171.13 294 224.5a442 442 0 0 0 62 11q13.262 8.505 1 18-91.678-7.89-173-51-134.086-71.337-207-204.5 4.197 1.03 8.5-1a57 57 0 0 0 1.5 6.5q-.608 1.418-2 2l7-1 4 3q-1.426 1.077-.5 2.5 3.423-4.61 4.5-10" style="opacity:1"/></svg>