<?xml version="1.0" encoding="UTF-8"?>
<!DOCTYPE svg PUBLIC "-//W3C//DTD SVG 1.1//EN" "http://www.w3.org/Graphics/SVG/1.1/DTD/svg11.dtd">
<svg xmlns="http://www.w3.org/2000/svg" version="1.1" width="1254px" height="1254px" style="shape-rendering:geometricPrecision; text-rendering:geometricPrecision; image-rendering:optimizeQuality; fill-rule:evenodd; clip-rule:evenodd" xmlns:xlink="http://www.w3.org/1999/xlink">
<g><path style="opacity:1" fill="none" d="M -0.5,-0.5 C 417.5,-0.5 835.5,-0.5 1253.5,-0.5C 1253.5,417.5 1253.5,835.5 1253.5,1253.5C 835.5,1253.5 417.5,1253.5 -0.5,1253.5C -0.5,835.5 -0.5,417.5 -0.5,-0.5 Z"/></g>
<g><path style="opacity:1" fill="#b48c71" d="M 555.5,93.5 C 551.361,94.5629 547.028,95.2296 542.5,95.5C 546.545,93.8227 550.878,93.1561 555.5,93.5 Z"/></g>
<g><path style="opacity:1" fill="#ad7b5c" d="M 541.5,95.5 C 537.79,97.1357 533.79,97.8023 529.5,97.5C 533.295,96.3833 537.295,95.7167 541.5,95.5 Z"/></g>
<g><path style="opacity:1" fill="#d0b3a2" d="M 757.5,107.5 C 760.152,107.41 762.485,108.076 764.5,109.5C 761.848,109.59 759.515,108.924 757.5,107.5 Z"/></g>
<g><path style="opacity:1" fill="#d1b6a6" d="M 764.5,109.5 C 767.152,109.41 769.485,110.076 771.5,111.5C 768.848,111.59 766.515,110.924 764.5,109.5 Z"/></g>
<g><path style="opacity:1" fill="#a57254" d="M 761.5,128.5 C 766.165,129.057 770.498,130.39 774.5,132.5C 769.835,131.943 765.502,130.61 761.5,128.5 Z"/></g>
<g><path style="opacity:1" fill="#7f3d19" d="M 708.5,195.5 C 703.298,197.834 697.798,199.5 692,200.5C 681.546,197.407 671.046,198.074 660.5,202.5C 659.061,201.937 657.561,201.603 656,201.5C 642.711,203.282 629.545,205.616 616.5,208.5C 624.544,206.533 632.544,204.199 640.5,201.5C 641.086,201.709 641.586,202.043 642,202.5C 650.088,201.069 658.254,199.902 666.5,199C 666.833,198.667 667.167,198.333 667.5,198C 664.937,196.921 662.271,196.421 659.5,196.5C 675.655,194.335 691.989,194.002 708.5,195.5 Z"/></g>
<g><path style="opacity:1" fill="#8d461b" d="M 708.5,195.5 C 737.186,197.427 761.019,209.094 780,230.5C 785.801,238.768 789.968,247.768 792.5,257.5C 790.944,254.282 789.444,254.948 788,259.5C 787.667,258.833 787.333,258.167 787,257.5C 786.601,257.728 786.435,258.062 786.5,258.5C 782.989,244.82 775.489,233.82 764,225.5C 765.465,229.194 767.298,232.861 769.5,236.5C 767.267,239.183 765.267,242.183 763.5,245.5C 761.326,244.137 759.159,243.803 757,244.5C 756.667,243.167 756.333,241.833 756,240.5C 755.667,240.833 755.333,241.167 755,241.5C 753.513,239.728 753.18,237.728 754,235.5C 754.667,236.167 755.333,236.833 756,237.5C 756.333,235.167 756.667,232.833 757,230.5C 759.482,228.59 759.982,226.257 758.5,223.5C 752.872,227.007 749.872,231.841 749.5,238C 749.759,239.261 750.426,240.261 751.5,241C 750.333,242.5 749.167,244 748,245.5C 747.311,244.643 746.478,243.977 745.5,243.5C 744.011,243.533 742.678,244.033 741.5,245C 743.065,246.506 743.399,248.006 742.5,249.5C 732.504,231.481 717.504,219.648 697.5,214C 666.677,205.66 636.344,207.327 606.5,219C 587.099,226.529 569.099,236.362 552.5,248.5C 551.957,248.44 551.624,248.107 551.5,247.5C 552.806,246.088 553.64,244.421 554,242.5C 560.272,238.066 566.105,233.066 571.5,227.5C 586.183,220.323 601.183,213.989 616.5,208.5C 629.545,205.616 642.711,203.282 656,201.5C 657.561,201.603 659.061,201.937 660.5,202.5C 671.046,198.074 681.546,197.407 692,200.5C 697.798,199.5 703.298,197.834 708.5,195.5 Z"/></g>
<g><path style="opacity:1" fill="#713819" d="M 659.5,196.5 C 662.271,196.421 664.937,196.921 667.5,198C 667.167,198.333 666.833,198.667 666.5,199C 658.254,199.902 650.088,201.069 642,202.5C 641.586,202.043 641.086,201.709 640.5,201.5C 632.544,204.199 624.544,206.533 616.5,208.5C 601.183,213.989 586.183,220.323 571.5,227.5C 598.502,210.831 627.835,200.498 659.5,196.5 Z"/></g>
<g><path style="opacity:1" fill="none" d="M 786.5,258.5 C 786.662,260.527 786.495,262.527 786,264.5C 785.667,264.167 785.333,263.833 785,263.5C 779.806,254.437 774.64,245.437 769.5,236.5C 767.298,232.861 765.465,229.194 764,225.5C 775.489,233.82 782.989,244.82 786.5,258.5 Z"/></g>
<g><path style="opacity:1" fill="#803e19" d="M 571.5,227.5 C 566.105,233.066 560.272,238.066 554,242.5C 553.64,244.421 552.806,246.088 551.5,247.5C 551.624,248.107 551.957,248.44 552.5,248.5C 552.5,249.167 552.167,249.5 551.5,249.5C 549.548,248.592 547.548,248.759 545.5,250C 541.232,251.987 536.898,254.487 532.5,257.5C 543.868,245.323 556.868,235.323 571.5,227.5 Z"/></g>
<g><path style="opacity:1" fill="#894219" d="M 769.5,236.5 C 774.64,245.437 779.806,254.437 785,263.5C 785.333,263.833 785.667,264.167 786,264.5C 786.495,262.527 786.662,260.527 786.5,258.5C 786.435,258.062 786.601,257.728 787,257.5C 787.333,258.167 787.667,258.833 788,259.5C 789.444,254.948 790.944,254.282 792.5,257.5C 794.094,261.25 795.261,265.25 796,269.5C 798.333,291.158 795.666,312.158 788,332.5C 777.34,359.857 762.173,384.191 742.5,405.5C 737.378,402.182 731.711,400.349 725.5,400C 724.78,397.878 723.613,397.378 722,398.5C 721.51,397.207 721.343,395.873 721.5,394.5C 724.797,394.671 725.131,394.005 722.5,392.5C 724.059,389.868 725.726,387.368 727.5,385C 726.663,383.989 726.33,382.822 726.5,381.5C 728.178,377.356 730.345,373.356 733,369.5C 733.49,368.207 733.657,366.873 733.5,365.5C 735.681,365.716 737.347,364.883 738.5,363C 736.675,361.534 736.175,359.701 737,357.5C 738.11,355.058 739.61,352.891 741.5,351C 740.729,349.002 741.395,347.335 743.5,346C 743.043,345.586 742.709,345.086 742.5,344.5C 746.469,340.456 747.469,335.29 745.5,329C 747.148,324.683 747.814,320.183 747.5,315.5C 750.314,301.248 750.981,286.915 749.5,272.5C 749.435,269.572 748.768,266.905 747.5,264.5C 746.304,259.319 744.637,254.319 742.5,249.5C 743.399,248.006 743.065,246.506 741.5,245C 742.678,244.033 744.011,243.533 745.5,243.5C 746.478,243.977 747.311,244.643 748,245.5C 749.167,244 750.333,242.5 751.5,241C 750.426,240.261 749.759,239.261 749.5,238C 749.872,231.841 752.872,227.007 758.5,223.5C 759.982,226.257 759.482,228.59 757,230.5C 756.667,232.833 756.333,235.167 756,237.5C 755.333,236.833 754.667,236.167 754,235.5C 753.18,237.728 753.513,239.728 755,241.5C 755.333,241.167 755.667,240.833 756,240.5C 756.333,241.833 756.667,243.167 757,244.5C 759.159,243.803 761.326,244.137 763.5,245.5C 765.267,242.183 767.267,239.183 769.5,236.5 Z"/></g>
<g><path style="opacity:1" fill="#c1a28e" d="M 747.5,264.5 C 748.768,266.905 749.435,269.572 749.5,272.5C 747.96,270.162 747.294,267.495 747.5,264.5 Z"/></g>
<g><path style="opacity:1" fill="#914a20" d="M 551.5,249.5 C 535.608,262.554 522.441,277.887 512,295.5C 509.188,300.808 506.688,306.141 504.5,311.5C 503.459,311.96 502.625,313.293 502,315.5C 500.933,314.057 499.766,312.724 498.5,311.5C 499.988,309.114 499.655,308.448 497.5,309.5C 505.69,289.775 517.356,272.442 532.5,257.5C 536.898,254.487 541.232,251.987 545.5,250C 547.548,248.759 549.548,248.592 551.5,249.5 Z"/></g>
<g><path style="opacity:1" fill="#833f19" d="M 757.5,107.5 C 759.515,108.924 761.848,109.59 764.5,109.5C 766.515,110.924 768.848,111.59 771.5,111.5C 888.215,150.612 977.715,223.279 1040,329.5C 1093.49,423.827 1116.32,525.16 1108.5,633.5C 1107.26,638.96 1106.6,644.627 1106.5,650.5C 1106.5,651.167 1106.5,651.833 1106.5,652.5C 1105.03,656.919 1104.36,661.586 1104.5,666.5C 1103.04,674.634 1101.37,682.634 1099.5,690.5C 1099.23,688.158 1098.39,688.158 1097,690.5C 1096.34,688.892 1096.84,687.725 1098.5,687C 1097.83,686 1097.17,685 1096.5,684C 1097.29,680.091 1097.63,676.091 1097.5,672C 1096.68,670.312 1095.68,670.145 1094.5,671.5C 1092.26,670.968 1090.76,669.635 1090,667.5C 1088.71,668.854 1088.54,670.188 1089.5,671.5C 1088.83,672.5 1088.17,673.5 1087.5,674.5C 1089.55,676.782 1090.55,679.449 1090.5,682.5C 1087.65,682.809 1086.15,684.475 1086,687.5C 1084.65,681.928 1084.15,676.262 1084.5,670.5C 1105.9,520.067 1069.07,386.067 974,268.5C 919.784,205.112 853.284,159.779 774.5,132.5C 770.498,130.39 766.165,129.057 761.5,128.5C 731.994,120.414 701.994,114.581 671.5,111C 664.013,105.408 663.68,99.408 670.5,93C 672.333,92.8333 674.167,92.6667 676,92.5C 703.564,95.7807 730.731,100.781 757.5,107.5 Z"/></g>
<g><path style="opacity:1" fill="#d5b6a3" d="M 502.5,324.5 C 502.413,329.537 502.746,334.537 503.5,339.5C 502.009,336.814 501.343,333.814 501.5,330.5C 501.505,328.304 501.838,326.304 502.5,324.5 Z"/></g>
<g><path style="opacity:1" fill="#b38e78" d="M 491.5,330.5 C 490.93,338.154 490.596,345.821 490.5,353.5C 489.192,345.783 489.525,338.116 491.5,330.5 Z"/></g>
<g><path style="opacity:1" fill="#8c4319" d="M 504.5,311.5 C 503.09,315.704 502.423,320.037 502.5,324.5C 501.838,326.304 501.505,328.304 501.5,330.5C 501.343,333.814 502.009,336.814 503.5,339.5C 504.781,342.447 506.781,344.781 509.5,346.5C 509.918,347.222 510.584,347.722 511.5,348C 515.821,348.499 520.154,348.666 524.5,348.5C 528.431,349.132 531.765,350.799 534.5,353.5C 534.322,354.695 533.989,355.862 533.5,357C 534.176,358.683 535.176,358.85 536.5,357.5C 539.14,370.017 534.14,378.184 521.5,382C 510.742,384.529 502.242,381.363 496,372.5C 493.079,366.481 491.245,360.148 490.5,353.5C 490.596,345.821 490.93,338.154 491.5,330.5C 492.675,323.183 494.675,316.183 497.5,309.5C 499.655,308.448 499.988,309.114 498.5,311.5C 499.766,312.724 500.933,314.057 502,315.5C 502.625,313.293 503.459,311.96 504.5,311.5 Z"/></g>
<g><path style="opacity:1" fill="#cba78e" d="M 497.5,326.5 C 498.921,332.173 500.587,338.006 502.5,344C 502.167,344.167 501.833,344.333 501.5,344.5C 498.079,339.026 496.746,333.026 497.5,326.5 Z"/></g>
<g><path style="opacity:1" fill="#cbb1a2" d="M 509.5,346.5 C 514.668,346.934 519.668,347.6 524.5,348.5C 520.154,348.666 515.821,348.499 511.5,348C 510.584,347.722 509.918,347.222 509.5,346.5 Z"/></g>
<g><path style="opacity:1" fill="#c28d68" d="M 534.5,353.5 C 535.674,354.514 536.34,355.847 536.5,357.5C 535.176,358.85 534.176,358.683 533.5,357C 533.989,355.862 534.322,354.695 534.5,353.5 Z"/></g>
<g><path style="opacity:1" fill="none" d="M 527.5,356.5 C 530.5,356.167 531.833,357.5 531.5,360.5C 529.396,360.799 527.396,360.466 525.5,359.5C 526.193,358.482 526.859,357.482 527.5,356.5 Z"/></g>
<g><path style="opacity:1" fill="#813e18" d="M 179.5,413.5 C 178.778,413.082 178.278,412.416 178,411.5C 177.667,412.167 177.333,412.833 177,413.5C 174.198,411.609 173.032,408.942 173.5,405.5C 171.799,405.034 170.299,405.034 169,405.5C 167.346,403.177 166.179,400.843 165.5,398.5C 221.904,263.93 318.238,170.43 454.5,118C 479.036,109.329 504.036,102.495 529.5,97.5C 533.79,97.8023 537.79,97.1357 541.5,95.5C 541.833,95.5 542.167,95.5 542.5,95.5C 547.028,95.2296 551.361,94.5629 555.5,93.5C 560.65,92.3493 565.984,92.1826 571.5,93C 578.167,98.6667 578.167,104.333 571.5,110C 454.51,125.244 355.343,175.411 274,260.5C 233.386,305.698 201.886,356.698 179.5,413.5 Z"/></g>
<g><path style="opacity:1" fill="#843f19" d="M 726.5,381.5 C 726.33,382.822 726.663,383.989 727.5,385C 725.726,387.368 724.059,389.868 722.5,392.5C 725.131,394.005 724.797,394.671 721.5,394.5C 721.343,395.873 721.51,397.207 722,398.5C 723.613,397.378 724.78,397.878 725.5,400C 731.711,400.349 737.378,402.182 742.5,405.5C 732.106,418.399 720.773,430.566 708.5,442C 690.468,458.324 672.135,474.157 653.5,489.5C 644.676,496.144 635.676,502.644 626.5,509C 627,509.167 627.5,509.333 628,509.5C 630.437,508.2 632.937,507.2 635.5,506.5C 635.56,507.043 635.893,507.376 636.5,507.5C 642.154,504.447 648.154,502.447 654.5,501.5C 646.034,504.832 637.701,508.665 629.5,513C 627.759,514.62 625.925,516.12 624,517.5C 623.761,518.788 624.261,519.788 625.5,520.5C 604.327,531.915 583.993,544.581 564.5,558.5C 561.685,557.874 559.185,556.54 557,554.5C 550.149,557.834 544.316,562.501 539.5,568.5C 535.678,570.244 532.011,572.244 528.5,574.5C 532.753,570.572 537.253,566.906 542,563.5C 542.346,561.152 543.513,559.319 545.5,558C 545.272,557.601 544.938,557.435 544.5,557.5C 544.842,556.662 545.508,556.328 546.5,556.5C 557.28,553.405 566.947,547.572 575.5,539C 577.988,537.538 580.655,536.538 583.5,536C 585.129,532.536 587.796,530.369 591.5,529.5C 592.967,524.867 595.967,521.7 600.5,520C 602.167,518.167 603.833,516.333 605.5,514.5C 618.097,506.496 629.097,496.663 638.5,485C 639.527,484.487 640.527,483.987 641.5,483.5C 642.858,484.626 644.192,484.626 645.5,483.5C 646.805,480.947 647.805,478.28 648.5,475.5C 649.5,474.667 650.5,473.833 651.5,473C 653.811,473.155 656.144,473.155 658.5,473C 660.054,470.325 661.387,467.492 662.5,464.5C 667.659,460.213 672.826,455.879 678,451.5C 678.333,451.833 678.667,452.167 679,452.5C 678.805,450.874 678.805,449.207 679,447.5C 683.306,440.527 688.973,434.861 696,430.5C 697.528,427.583 698.861,424.583 700,421.5C 706.513,417.132 710.513,411.132 712,403.5C 714.374,401.461 716.374,399.128 718,396.5C 719.864,390.838 722.698,385.838 726.5,381.5 Z"/></g>
<g><path style="opacity:1" fill="#763a17" d="M 747.5,315.5 C 747.814,320.183 747.148,324.683 745.5,329C 747.469,335.29 746.469,340.456 742.5,344.5C 742.709,345.086 743.043,345.586 743.5,346C 741.395,347.335 740.729,349.002 741.5,351C 739.61,352.891 738.11,355.058 737,357.5C 736.175,359.701 736.675,361.534 738.5,363C 737.347,364.883 735.681,365.716 733.5,365.5C 733.657,366.873 733.49,368.207 733,369.5C 730.345,373.356 728.178,377.356 726.5,381.5C 722.698,385.838 719.864,390.838 718,396.5C 716.374,399.128 714.374,401.461 712,403.5C 710.513,411.132 706.513,417.132 700,421.5C 698.861,424.583 697.528,427.583 696,430.5C 688.973,434.861 683.306,440.527 679,447.5C 678.805,449.207 678.805,450.874 679,452.5C 678.667,452.167 678.333,451.833 678,451.5C 672.826,455.879 667.659,460.213 662.5,464.5C 661.387,467.492 660.054,470.325 658.5,473C 656.144,473.155 653.811,473.155 651.5,473C 650.5,473.833 649.5,474.667 648.5,475.5C 647.805,478.28 646.805,480.947 645.5,483.5C 644.192,484.626 642.858,484.626 641.5,483.5C 644.403,480.707 646.569,477.374 648,473.5C 650.266,472.044 652.766,471.21 655.5,471C 657.377,468.749 658.877,466.249 660,463.5C 665.667,458.131 671.167,452.631 676.5,447C 676.167,446.667 675.833,446.333 675.5,446C 679.583,444.035 682.416,440.869 684,436.5C 687.703,433.133 691.036,429.466 694,425.5C 695.364,417.307 699.864,411.64 707.5,408.5C 709.555,402.561 712.555,397.061 716.5,392C 716.043,391.586 715.709,391.086 715.5,390.5C 717.658,387.852 718.992,384.852 719.5,381.5C 731.646,360.558 740.979,338.558 747.5,315.5 Z"/></g>
<g><path style="opacity:1" fill="#5e2a11" d="M 719.5,381.5 C 718.992,384.852 717.658,387.852 715.5,390.5C 715.709,391.086 716.043,391.586 716.5,392C 712.555,397.061 709.555,402.561 707.5,408.5C 699.864,411.64 695.364,417.307 694,425.5C 691.036,429.466 687.703,433.133 684,436.5C 682.416,440.869 679.583,444.035 675.5,446C 675.833,446.333 676.167,446.667 676.5,447C 671.167,452.631 665.667,458.131 660,463.5C 658.877,466.249 657.377,468.749 655.5,471C 652.766,471.21 650.266,472.044 648,473.5C 646.569,477.374 644.403,480.707 641.5,483.5C 640.527,483.987 639.527,484.487 638.5,485C 629.097,496.663 618.097,506.496 605.5,514.5C 603.833,516.333 602.167,518.167 600.5,520C 595.967,521.7 592.967,524.867 591.5,529.5C 587.796,530.369 585.129,532.536 583.5,536C 580.655,536.538 577.988,537.538 575.5,539C 566.947,547.572 557.28,553.405 546.5,556.5C 556.528,548.479 566.861,540.813 577.5,533.5C 599.209,518.649 619.375,501.649 638,482.5C 638.464,481.906 638.631,481.239 638.5,480.5C 669.69,450.671 696.69,417.671 719.5,381.5 Z"/></g>
<g><path style="opacity:1" fill="#89441a" d="M 759.5,751.5 C 759.854,749.459 759.854,747.626 759.5,746C 757.527,743.985 755.86,744.152 754.5,746.5C 752.366,744.402 750.032,743.569 747.5,744C 749.007,743.163 749.507,741.996 749,740.5C 744.511,743.543 742.678,742.209 743.5,736.5C 745.722,736.178 747.556,736.845 749,738.5C 749.928,736.665 751.094,736.332 752.5,737.5C 753.148,735.851 754.148,734.518 755.5,733.5C 756.506,733.938 756.506,734.604 755.5,735.5C 761.018,738.01 763.851,736.343 764,730.5C 764.654,731.696 765.154,731.696 765.5,730.5C 763.875,729.821 762.542,728.655 761.5,727C 762.424,725.189 763.257,725.355 764,727.5C 764.442,725.321 765.442,724.655 767,725.5C 767.529,723.415 767.029,721.582 765.5,720C 765.645,719.228 765.978,718.561 766.5,718C 768.384,717.784 770.051,717.117 771.5,716C 770.62,714.644 770.286,713.144 770.5,711.5C 769.178,711.33 768.011,711.663 767,712.5C 766.308,711.975 765.808,711.308 765.5,710.5C 768.087,710.137 770.42,708.971 772.5,707C 771.565,709.381 771.232,711.881 771.5,714.5C 772.675,714.719 773.675,714.386 774.5,713.5C 773.833,713.167 773.167,712.833 772.5,712.5C 773.348,710.591 773.682,708.591 773.5,706.5C 776.614,705.909 779.114,704.242 781,701.5C 781.556,703.595 782.056,703.762 782.5,702C 782.37,700.941 781.87,700.108 781,699.5C 779.758,700.872 778.258,701.872 776.5,702.5C 775.866,700.433 774.866,698.6 773.5,697C 776.281,694.587 779.281,693.754 782.5,694.5C 781.981,689.67 779.647,687.003 775.5,686.5C 776.025,685.808 776.692,685.308 777.5,685C 775.789,683.867 775.289,682.367 776,680.5C 777.101,678.606 778.434,677.939 780,678.5C 780.49,677.207 780.657,675.873 780.5,674.5C 777.15,674.665 773.817,674.498 770.5,674C 771.061,672.324 772.061,670.991 773.5,670C 773,669.833 772.5,669.667 772,669.5C 769.824,672.287 766.991,673.121 763.5,672C 764.524,670.633 764.024,669.8 762,669.5C 760.437,670.102 760.604,670.935 762.5,672C 761.207,672.49 759.873,672.657 758.5,672.5C 758.666,676.514 758.499,680.514 758,684.5C 758.226,679.794 757.059,678.961 754.5,682C 756.988,684.627 757.155,687.46 755,690.5C 753.312,689.675 753.145,688.675 754.5,687.5C 753.833,687.167 753.167,686.833 752.5,686.5C 750.932,687.315 749.599,687.648 748.5,687.5C 748.533,688.989 749.033,690.322 750,691.5C 750.249,690.376 750.749,689.376 751.5,688.5C 751.205,689.826 751.705,691.159 753,692.5C 754,691.167 755,691.167 756,692.5C 756.249,691.376 756.749,690.376 757.5,689.5C 757.833,690 758.167,690.5 758.5,691C 758.112,693.193 758.112,695.526 758.5,698C 758.15,699.257 757.483,699.591 756.5,699C 756.018,697.992 755.852,696.825 756,695.5C 753.047,696.943 751.547,699.277 751.5,702.5C 752.552,702.351 753.552,702.517 754.5,703C 752.021,703.894 749.688,704.227 747.5,704C 747.067,706.933 745.401,708.767 742.5,709.5C 742.966,707.705 742.966,705.705 742.5,703.5C 741.205,704.098 739.872,704.598 738.5,705C 739.784,706.297 739.617,707.464 738,708.5C 736.583,707.922 735.75,706.922 735.5,705.5C 738.859,701.718 740.192,697.385 739.5,692.5C 741.607,691.357 743.273,689.19 744.5,686C 742.302,684.122 742.136,681.955 744,679.5C 748.886,673.171 752.053,666.005 753.5,658C 754.272,656.779 755.272,655.779 756.5,655C 755.657,649.675 756.323,644.175 758.5,638.5C 756.891,633.408 757.558,629.408 760.5,626.5C 759.887,620.809 760.387,615.142 762,609.5C 762.333,610.167 762.667,610.833 763,611.5C 764.009,609.975 764.509,608.308 764.5,606.5C 765.991,602.204 766.991,597.704 767.5,593C 767.833,592.833 768.167,592.667 768.5,592.5C 770.638,595.357 771.471,598.357 771,601.5C 772.667,599.833 774.333,598.167 776,596.5C 776.483,597.448 776.649,598.448 776.5,599.5C 777.833,599.5 779.167,599.5 780.5,599.5C 780.34,597.801 780.506,596.134 781,594.5C 782.31,596.132 782.81,597.799 782.5,599.5C 783.248,597.668 784.248,596.001 785.5,594.5C 784.257,591.291 785.09,588.624 788,586.5C 788.494,584.866 788.66,583.199 788.5,581.5C 787.022,581.238 785.689,581.571 784.5,582.5C 787.131,584.005 786.797,584.671 783.5,584.5C 783.719,583.325 783.386,582.325 782.5,581.5C 782.331,582.397 781.998,583.397 781.5,584.5C 780.868,581.97 779.868,579.637 778.5,577.5C 778.167,577.667 777.833,577.833 777.5,578C 778.293,579.085 778.96,580.252 779.5,581.5C 778.726,582.711 777.893,582.711 777,581.5C 776.356,584.148 774.856,585.648 772.5,586C 773.925,584.638 774.758,583.138 775,581.5C 772.626,583.51 770.293,585.51 768,587.5C 767.586,587.043 767.086,586.709 766.5,586.5C 767.239,574.285 764.739,562.952 759,552.5C 758.654,550.782 758.154,549.115 757.5,547.5C 757.709,546.914 758.043,546.414 758.5,546C 755.989,542.647 753.989,538.98 752.5,535C 753.502,533.234 753.168,531.567 751.5,530C 752.738,530.077 753.738,529.911 754.5,529.5C 753.527,527.36 752.027,525.693 750,524.5C 748.349,525.862 746.849,526.529 745.5,526.5C 736.292,515.389 724.626,508.055 710.5,504.5C 712.174,502.376 713.007,500.042 713,497.5C 708.784,494.241 704.284,494.074 699.5,497C 700.257,498.512 701.257,499.846 702.5,501C 702,501.167 701.5,501.333 701,501.5C 696.984,499.802 692.984,498.136 689,496.5C 687.615,497.551 686.615,498.884 686,500.5C 685.072,498.665 683.906,498.332 682.5,499.5C 678.374,497.719 674.041,497.052 669.5,497.5C 673.921,496.055 678.588,495.222 683.5,495C 687.184,493.991 690.684,492.491 694,490.5C 694.772,490.645 695.439,490.978 696,491.5C 697.53,490.08 699.363,489.08 701.5,488.5C 699.955,487.548 698.288,487.215 696.5,487.5C 695.5,487.5 694.5,487.5 693.5,487.5C 727.327,479.249 757.327,486.416 783.5,509C 804.025,531.563 813.692,558.23 812.5,589C 811.938,616.938 807.104,644.105 798,670.5C 787.799,698.896 774.966,725.896 759.5,751.5 Z"/></g>
<g><path style="opacity:1" fill="#5d3422" d="M 693.5,487.5 C 694.5,487.5 695.5,487.5 696.5,487.5C 695.158,488.793 693.491,489.626 691.5,490C 680.07,492.192 668.736,494.692 657.5,497.5C 659.5,496.5 661.5,495.5 663.5,494.5C 673.218,491.238 683.218,488.905 693.5,487.5 Z"/></g>
<g><path style="opacity:1" fill="#673013" d="M 696.5,487.5 C 698.288,487.215 699.955,487.548 701.5,488.5C 699.363,489.08 697.53,490.08 696,491.5C 695.439,490.978 694.772,490.645 694,490.5C 690.684,492.491 687.184,493.991 683.5,495C 678.588,495.222 673.921,496.055 669.5,497.5C 664.496,498.841 659.496,500.174 654.5,501.5C 648.154,502.447 642.154,504.447 636.5,507.5C 635.893,507.376 635.56,507.043 635.5,506.5C 642.109,501.867 649.442,498.867 657.5,497.5C 668.736,494.692 680.07,492.192 691.5,490C 693.491,489.626 695.158,488.793 696.5,487.5 Z"/></g>
<g><path style="opacity:1" fill="#ede6e2" d="M 653.5,489.5 C 653.755,490.936 654.088,492.436 654.5,494C 655.915,493.745 657.415,493.245 659,492.5C 660.109,493.505 661.609,494.172 663.5,494.5C 661.5,495.5 659.5,496.5 657.5,497.5C 649.442,498.867 642.109,501.867 635.5,506.5C 632.937,507.2 630.437,508.2 628,509.5C 627.5,509.333 627,509.167 626.5,509C 635.676,502.644 644.676,496.144 653.5,489.5 Z"/></g>
<g><path style="opacity:1" fill="#90441a" d="M 710.5,504.5 C 697.501,501.833 684.501,501.833 671.5,504.5C 668.505,504.294 665.838,504.96 663.5,506.5C 650.192,509.381 637.525,514.048 625.5,520.5C 624.261,519.788 623.761,518.788 624,517.5C 625.925,516.12 627.759,514.62 629.5,513C 637.701,508.665 646.034,504.832 654.5,501.5C 659.496,500.174 664.496,498.841 669.5,497.5C 674.041,497.052 678.374,497.719 682.5,499.5C 683.906,498.332 685.072,498.665 686,500.5C 686.615,498.884 687.615,497.551 689,496.5C 692.984,498.136 696.984,499.802 701,501.5C 701.5,501.333 702,501.167 702.5,501C 701.257,499.846 700.257,498.512 699.5,497C 704.284,494.074 708.784,494.241 713,497.5C 713.007,500.042 712.174,502.376 710.5,504.5 Z"/></g>
<g><path style="opacity:1" fill="#471e13" d="M 638.5,480.5 C 638.631,481.239 638.464,481.906 638,482.5C 619.375,501.649 599.209,518.649 577.5,533.5C 598.695,516.982 619.028,499.315 638.5,480.5 Z"/></g>
<g><path style="opacity:1" fill="#ccab99" d="M 671.5,504.5 C 669.095,505.768 666.428,506.435 663.5,506.5C 665.838,504.96 668.505,504.294 671.5,504.5 Z"/></g>
<g><path style="opacity:1" fill="none" d="M 795.5,540.5 C 795.768,542.099 795.434,543.432 794.5,544.5C 786.972,530.128 777.305,517.294 765.5,506C 780.476,512.832 790.476,524.332 795.5,540.5 Z"/></g>
<g><path style="opacity:1" fill="#c49c84" d="M 795.5,540.5 C 796.629,542.628 796.796,544.961 796,547.5C 795.487,546.473 794.987,545.473 794.5,544.5C 795.434,543.432 795.768,542.099 795.5,540.5 Z"/></g>
<g><path style="opacity:1" fill="#d1b7a7" d="M 755.5,546.5 C 756.924,548.515 757.59,550.848 757.5,553.5C 756.076,551.485 755.41,549.152 755.5,546.5 Z"/></g>
<g><path style="opacity:1" fill="#8f451b" d="M 564.5,558.5 C 546.734,571.753 529.067,585.253 511.5,599C 508.814,600.368 506.147,601.701 503.5,603C 501.613,603.78 499.946,603.613 498.5,602.5C 501.048,599.936 503.715,597.436 506.5,595C 508.101,594.727 509.601,594.227 511,593.5C 510.702,588.917 512.536,585.084 516.5,582C 520.645,579.68 524.645,577.18 528.5,574.5C 532.011,572.244 535.678,570.244 539.5,568.5C 544.316,562.501 550.149,557.834 557,554.5C 559.185,556.54 561.685,557.874 564.5,558.5 Z"/></g>
<g><path style="opacity:1" fill="#823f18" d="M 165.5,398.5 C 166.179,400.843 167.346,403.177 169,405.5C 170.299,405.034 171.799,405.034 173.5,405.5C 173.032,408.942 174.198,411.609 177,413.5C 177.333,412.833 177.667,412.167 178,411.5C 178.278,412.416 178.778,413.082 179.5,413.5C 127.692,559.566 139.026,700.566 213.5,836.5C 212.782,840.093 211.282,843.426 209,846.5C 208.383,845.551 208.549,844.718 209.5,844C 208.167,843 206.833,842 205.5,841C 203.167,841.333 200.833,841.667 198.5,842C 199.428,841.612 200.095,840.945 200.5,840C 199.873,837.865 199.373,835.698 199,833.5C 196.131,834.853 193.298,835.186 190.5,834.5C 168.459,793.716 152.126,750.716 141.5,705.5C 141.59,702.848 140.924,700.515 139.5,698.5C 137.579,684.969 135.246,671.636 132.5,658.5C 132.473,652.949 131.806,647.616 130.5,642.5C 122.234,558.122 133.9,476.788 165.5,398.5 Z"/></g>
<g><path style="opacity:1" fill="#6b3215" d="M 544.5,557.5 C 544.938,557.435 545.272,557.601 545.5,558C 543.513,559.319 542.346,561.152 542,563.5C 537.253,566.906 532.753,570.572 528.5,574.5C 524.645,577.18 520.645,579.68 516.5,582C 512.536,585.084 510.702,588.917 511,593.5C 509.601,594.227 508.101,594.727 506.5,595C 503.715,597.436 501.048,599.936 498.5,602.5C 497.402,601.399 497.235,600.066 498,598.5C 502.9,591.21 508.4,584.376 514.5,578C 524.702,571.404 534.702,564.571 544.5,557.5 Z"/></g>
<g><path style="opacity:1" fill="#873e19" d="M 764.5,606.5 C 764.08,603.115 763.747,599.948 763.5,597C 764.718,595.562 765.385,593.895 765.5,592C 764.067,583.257 762.734,575.757 761.5,569.5C 760.167,564.167 758.833,558.833 757.5,553.5C 757.59,550.848 756.924,548.515 755.5,546.5C 753.219,539.271 749.885,532.604 745.5,526.5C 746.849,526.529 748.349,525.862 750,524.5C 752.027,525.693 753.527,527.36 754.5,529.5C 753.738,529.911 752.738,530.077 751.5,530C 753.168,531.567 753.502,533.234 752.5,535C 753.989,538.98 755.989,542.647 758.5,546C 758.043,546.414 757.709,546.914 757.5,547.5C 758.154,549.115 758.654,550.782 759,552.5C 764.739,562.952 767.239,574.285 766.5,586.5C 767.086,586.709 767.586,587.043 768,587.5C 770.293,585.51 772.626,583.51 775,581.5C 774.758,583.138 773.925,584.638 772.5,586C 774.856,585.648 776.356,584.148 777,581.5C 777.893,582.711 778.726,582.711 779.5,581.5C 778.96,580.252 778.293,579.085 777.5,578C 777.833,577.833 778.167,577.667 778.5,577.5C 779.868,579.637 780.868,581.97 781.5,584.5C 781.998,583.397 782.331,582.397 782.5,581.5C 783.386,582.325 783.719,583.325 783.5,584.5C 786.797,584.671 787.131,584.005 784.5,582.5C 785.689,581.571 787.022,581.238 788.5,581.5C 788.66,583.199 788.494,584.866 788,586.5C 785.09,588.624 784.257,591.291 785.5,594.5C 784.248,596.001 783.248,597.668 782.5,599.5C 782.81,597.799 782.31,596.132 781,594.5C 780.506,596.134 780.34,597.801 780.5,599.5C 779.167,599.5 777.833,599.5 776.5,599.5C 776.649,598.448 776.483,597.448 776,596.5C 774.333,598.167 772.667,599.833 771,601.5C 771.471,598.357 770.638,595.357 768.5,592.5C 768.167,592.667 767.833,592.833 767.5,593C 766.991,597.704 765.991,602.204 764.5,606.5 Z"/></g>
<g><path style="opacity:1" fill="#d8c0b2" d="M 1108.5,633.5 C 1108.68,639.404 1108.01,645.071 1106.5,650.5C 1106.6,644.627 1107.26,638.96 1108.5,633.5 Z"/></g>
<g><path style="opacity:1" fill="#d8c6b9" d="M 130.5,642.5 C 131.806,647.616 132.473,652.949 132.5,658.5C 130.922,653.417 130.255,648.084 130.5,642.5 Z"/></g>
<g><path style="opacity:1" fill="#dac6b8" d="M 1106.5,652.5 C 1106.64,657.414 1105.97,662.081 1104.5,666.5C 1104.36,661.586 1105.03,656.919 1106.5,652.5 Z"/></g>
<g><path style="opacity:1" fill="#883e19" d="M 759.5,751.5 C 757.819,754.203 756.153,756.869 754.5,759.5C 754.5,757.167 754.5,754.833 754.5,752.5C 752.488,751.986 750.488,751.82 748.5,752C 749.833,752.667 749.833,753.333 748.5,754C 747.065,753.689 745.732,753.855 744.5,754.5C 744.167,754.167 743.833,753.833 743.5,753.5C 745.632,749.54 745.465,745.873 743,742.5C 743.594,744.509 743.427,746.509 742.5,748.5C 740.737,748.694 738.903,748.694 737,748.5C 734.048,750.193 733.882,752.026 736.5,754C 734.41,754.268 733.076,753.268 732.5,751C 733.772,749.693 734.772,748.193 735.5,746.5C 737.235,747.057 738.902,747.39 740.5,747.5C 741.839,740.452 742.172,733.452 741.5,726.5C 742.5,726.5 743.5,726.5 744.5,726.5C 744.649,725.448 744.483,724.448 744,723.5C 743.282,724.451 742.449,724.617 741.5,724C 742.711,723.107 742.711,722.274 741.5,721.5C 740.5,722.167 739.5,722.833 738.5,723.5C 735.569,722.123 732.903,720.456 730.5,718.5C 731.487,716.527 732.487,714.527 733.5,712.5C 732.975,711.808 732.308,711.308 731.5,711C 733.146,708.647 734.48,706.814 735.5,705.5C 735.75,706.922 736.583,707.922 738,708.5C 739.617,707.464 739.784,706.297 738.5,705C 739.872,704.598 741.205,704.098 742.5,703.5C 742.966,705.705 742.966,707.705 742.5,709.5C 745.401,708.767 747.067,706.933 747.5,704C 749.688,704.227 752.021,703.894 754.5,703C 753.552,702.517 752.552,702.351 751.5,702.5C 751.547,699.277 753.047,696.943 756,695.5C 755.852,696.825 756.018,697.992 756.5,699C 757.483,699.591 758.15,699.257 758.5,698C 758.112,695.526 758.112,693.193 758.5,691C 758.167,690.5 757.833,690 757.5,689.5C 756.749,690.376 756.249,691.376 756,692.5C 755,691.167 754,691.167 753,692.5C 751.705,691.159 751.205,689.826 751.5,688.5C 750.749,689.376 750.249,690.376 750,691.5C 749.033,690.322 748.533,688.989 748.5,687.5C 749.599,687.648 750.932,687.315 752.5,686.5C 753.167,686.833 753.833,687.167 754.5,687.5C 753.145,688.675 753.312,689.675 755,690.5C 757.155,687.46 756.988,684.627 754.5,682C 757.059,678.961 758.226,679.794 758,684.5C 758.499,680.514 758.666,676.514 758.5,672.5C 759.873,672.657 761.207,672.49 762.5,672C 760.604,670.935 760.437,670.102 762,669.5C 764.024,669.8 764.524,670.633 763.5,672C 766.991,673.121 769.824,672.287 772,669.5C 772.5,669.667 773,669.833 773.5,670C 772.061,670.991 771.061,672.324 770.5,674C 773.817,674.498 777.15,674.665 780.5,674.5C 780.657,675.873 780.49,677.207 780,678.5C 778.434,677.939 777.101,678.606 776,680.5C 775.289,682.367 775.789,683.867 777.5,685C 776.692,685.308 776.025,685.808 775.5,686.5C 779.647,687.003 781.981,689.67 782.5,694.5C 779.281,693.754 776.281,694.587 773.5,697C 774.866,698.6 775.866,700.433 776.5,702.5C 778.258,701.872 779.758,700.872 781,699.5C 781.87,700.108 782.37,700.941 782.5,702C 782.056,703.762 781.556,703.595 781,701.5C 779.114,704.242 776.614,705.909 773.5,706.5C 773.682,708.591 773.348,710.591 772.5,712.5C 773.167,712.833 773.833,713.167 774.5,713.5C 773.675,714.386 772.675,714.719 771.5,714.5C 771.232,711.881 771.565,709.381 772.5,707C 770.42,708.971 768.087,710.137 765.5,710.5C 765.808,711.308 766.308,711.975 767,712.5C 768.011,711.663 769.178,711.33 770.5,711.5C 770.286,713.144 770.62,714.644 771.5,716C 770.051,717.117 768.384,717.784 766.5,718C 765.978,718.561 765.645,719.228 765.5,720C 767.029,721.582 767.529,723.415 767,725.5C 765.442,724.655 764.442,725.321 764,727.5C 763.257,725.355 762.424,725.189 761.5,727C 762.542,728.655 763.875,729.821 765.5,730.5C 765.154,731.696 764.654,731.696 764,730.5C 763.851,736.343 761.018,738.01 755.5,735.5C 756.506,734.604 756.506,733.938 755.5,733.5C 754.148,734.518 753.148,735.851 752.5,737.5C 751.094,736.332 749.928,736.665 749,738.5C 747.556,736.845 745.722,736.178 743.5,736.5C 742.678,742.209 744.511,743.543 749,740.5C 749.507,741.996 749.007,743.163 747.5,744C 750.032,743.569 752.366,744.402 754.5,746.5C 755.86,744.152 757.527,743.985 759.5,746C 759.854,747.626 759.854,749.459 759.5,751.5 Z"/></g>
<g><path style="opacity:1" fill="#783b19" d="M 764.5,606.5 C 764.509,608.308 764.009,609.975 763,611.5C 762.667,610.833 762.333,610.167 762,609.5C 760.387,615.142 759.887,620.809 760.5,626.5C 757.558,629.408 756.891,633.408 758.5,638.5C 756.323,644.175 755.657,649.675 756.5,655C 755.272,655.779 754.272,656.779 753.5,658C 752.053,666.005 748.886,673.171 744,679.5C 742.136,681.955 742.302,684.122 744.5,686C 743.273,689.19 741.607,691.357 739.5,692.5C 740.192,697.385 738.859,701.718 735.5,705.5C 734.48,706.814 733.146,708.647 731.5,711C 732.308,711.308 732.975,711.808 733.5,712.5C 732.487,714.527 731.487,716.527 730.5,718.5C 729.943,721.792 728.276,724.292 725.5,726C 725.957,726.414 726.291,726.914 726.5,727.5C 724.609,730.942 723.609,734.609 723.5,738.5C 722.5,738.5 721.5,738.5 720.5,738.5C 720.657,739.873 720.49,741.207 720,742.5C 716.848,748.311 713.515,753.978 710,759.5C 709.153,761.854 708.32,764.188 707.5,766.5C 706.735,770.224 704.569,773.557 701,776.5C 700.667,776.167 700.333,775.833 700,775.5C 698.708,777.249 697.542,779.082 696.5,781C 697.308,781.308 697.975,781.808 698.5,782.5C 697.754,783.736 697.421,785.07 697.5,786.5C 696.325,786.281 695.325,786.614 694.5,787.5C 693.568,789.795 692.735,792.129 692,794.5C 687.178,799.503 682.845,804.836 679,810.5C 678.383,811.449 678.549,812.282 679.5,813C 678.034,814.552 677.034,816.386 676.5,818.5C 674.929,820.415 672.929,821.415 670.5,821.5C 668.763,823.794 667.596,826.46 667,829.5C 660.252,835.417 655.919,842.75 654,851.5C 651.49,854.665 648.324,856.665 644.5,857.5C 644.663,859.857 644.497,862.19 644,864.5C 637.226,870.064 630.892,876.064 625,882.5C 623.861,886.112 622.194,889.446 620,892.5C 618.249,891.826 616.583,891.493 615,891.5C 608.779,897.712 602.612,904.045 596.5,910.5C 591.502,912.01 586.835,914.177 582.5,917C 579.34,920.483 575.673,923.316 571.5,925.5C 570.893,925.376 570.56,925.043 570.5,924.5C 575.936,919.399 581.936,915.066 588.5,911.5C 589.721,910.972 590.887,910.305 592,909.5C 592.333,909.833 592.667,910.167 593,910.5C 598.716,904.361 604.549,898.361 610.5,892.5C 612.772,890.349 615.439,888.849 618.5,888C 624.888,879.341 632.221,871.507 640.5,864.5C 642.274,861.285 643.774,857.952 645,854.5C 649.573,852.261 652.74,848.761 654.5,844C 654.355,843.228 654.022,842.561 653.5,842C 659.866,834.586 665.7,826.752 671,818.5C 672.587,819.727 673.921,819.394 675,817.5C 675.374,816.584 675.874,815.75 676.5,815C 675.667,812.919 675.667,810.752 676.5,808.5C 714.267,753.032 741.101,692.699 757,627.5C 760.913,608.36 762.413,589.027 761.5,569.5C 762.734,575.757 764.067,583.257 765.5,592C 765.385,593.895 764.718,595.562 763.5,597C 763.747,599.948 764.08,603.115 764.5,606.5 Z"/></g>
<g><path style="opacity:1" fill="#7d3d19" d="M 473.5,694.5 C 471.833,694.5 470.167,694.5 468.5,694.5C 468.719,695.675 468.386,696.675 467.5,697.5C 464.204,698.765 460.871,699.932 457.5,701C 457.547,705.323 455.714,708.489 452,710.5C 448.927,709.383 445.76,709.216 442.5,710C 439.954,713.59 437.787,717.423 436,721.5C 430.373,721.437 427.04,724.437 426,730.5C 418.354,737.646 410.854,744.979 403.5,752.5C 404.806,750.184 406.139,747.85 407.5,745.5C 411.897,739.546 417.064,734.213 423,729.5C 425.094,727.079 426.76,724.412 428,721.5C 433.976,718.024 438.81,713.357 442.5,707.5C 447.98,705.36 452.647,702.027 456.5,697.5C 458.889,696.82 461.222,695.986 463.5,695C 460.843,694.825 458.176,694.992 455.5,695.5C 458.695,693.97 462.195,693.304 466,693.5C 468.69,693.503 471.19,693.836 473.5,694.5 Z"/></g>
<g><path style="opacity:1" fill="#8e451a" d="M 473.5,694.5 C 483.848,698.366 486.681,705.366 482,715.5C 478.128,719.693 473.295,722.193 467.5,723C 409.419,751.936 377.086,798.769 370.5,863.5C 369.675,867.647 369.175,871.981 369,876.5C 368.667,875.833 368.333,875.167 368,874.5C 367.727,876.329 366.893,877.829 365.5,879C 366.26,880.441 366.926,881.941 367.5,883.5C 366.767,884.087 365.767,884.087 364.5,883.5C 363.406,873.201 363.24,862.867 364,852.5C 364.75,851.874 365.584,851.374 366.5,851C 367.249,848.549 367.249,845.882 366.5,843C 368.215,833.402 370.381,823.902 373,814.5C 376.372,809.361 378.372,803.695 379,797.5C 380.29,795.208 381.957,793.208 384,791.5C 384.882,788.211 385.548,784.877 386,781.5C 390.835,771.18 396.668,761.513 403.5,752.5C 410.854,744.979 418.354,737.646 426,730.5C 427.04,724.437 430.373,721.437 436,721.5C 437.787,717.423 439.954,713.59 442.5,710C 445.76,709.216 448.927,709.383 452,710.5C 455.714,708.489 457.547,705.323 457.5,701C 460.871,699.932 464.204,698.765 467.5,697.5C 468.386,696.675 468.719,695.675 468.5,694.5C 470.167,694.5 471.833,694.5 473.5,694.5 Z"/></g>
<g><path style="opacity:1" fill="none" d="M 473.5,701.5 C 475.484,701.383 477.15,702.05 478.5,703.5C 476.5,704.833 474.5,704.833 472.5,703.5C 472.863,702.817 473.196,702.15 473.5,701.5 Z"/></g>
<g><path style="opacity:1" fill="#cfb7a7" d="M 139.5,698.5 C 140.924,700.515 141.59,702.848 141.5,705.5C 140.076,703.485 139.41,701.152 139.5,698.5 Z"/></g>
<g><path style="opacity:1" fill="#5b2a12" d="M 407.5,745.5 C 405.983,745.511 404.816,746.177 404,747.5C 390.984,766.876 380.151,787.209 371.5,808.5C 386.175,766.636 410.175,731.136 443.5,702C 447.183,699.128 451.183,696.962 455.5,695.5C 458.176,694.992 460.843,694.825 463.5,695C 461.222,695.986 458.889,696.82 456.5,697.5C 452.647,702.027 447.98,705.36 442.5,707.5C 438.81,713.357 433.976,718.024 428,721.5C 426.76,724.412 425.094,727.079 423,729.5C 417.064,734.213 411.897,739.546 407.5,745.5 Z"/></g>
<g><path style="opacity:1" fill="#874319" d="M 730.5,718.5 C 732.903,720.456 735.569,722.123 738.5,723.5C 739.5,722.833 740.5,722.167 741.5,721.5C 742.711,722.274 742.711,723.107 741.5,724C 742.449,724.617 743.282,724.451 744,723.5C 744.483,724.448 744.649,725.448 744.5,726.5C 743.5,726.5 742.5,726.5 741.5,726.5C 742.172,733.452 741.839,740.452 740.5,747.5C 738.902,747.39 737.235,747.057 735.5,746.5C 734.772,748.193 733.772,749.693 732.5,751C 733.076,753.268 734.41,754.268 736.5,754C 733.882,752.026 734.048,750.193 737,748.5C 738.903,748.694 740.737,748.694 742.5,748.5C 743.427,746.509 743.594,744.509 743,742.5C 745.465,745.873 745.632,749.54 743.5,753.5C 743.833,753.833 744.167,754.167 744.5,754.5C 745.732,753.855 747.065,753.689 748.5,754C 749.833,753.333 749.833,752.667 748.5,752C 750.488,751.82 752.488,751.986 754.5,752.5C 754.5,754.833 754.5,757.167 754.5,759.5C 746.809,772.898 738.142,785.565 728.5,797.5C 727.119,795.726 727.452,794.226 729.5,793C 728.552,792.517 727.552,792.351 726.5,792.5C 725.569,788.381 725.736,784.381 727,780.5C 728.114,782.483 729.614,784.15 731.5,785.5C 731.911,784.738 732.077,783.738 732,782.5C 735.664,780.426 735.831,779.093 732.5,778.5C 732.719,777.325 732.386,776.325 731.5,775.5C 731.467,776.989 730.967,778.322 730,779.5C 727.389,775.588 723.889,774.588 719.5,776.5C 718.833,774.167 718.167,771.833 717.5,769.5C 713.828,767.95 713.161,768.45 715.5,771C 715.167,771.167 714.833,771.333 714.5,771.5C 711.087,770.323 708.754,768.656 707.5,766.5C 708.32,764.188 709.153,761.854 710,759.5C 713.515,753.978 716.848,748.311 720,742.5C 720.49,741.207 720.657,739.873 720.5,738.5C 721.5,738.5 722.5,738.5 723.5,738.5C 723.609,734.609 724.609,730.942 726.5,727.5C 726.291,726.914 725.957,726.414 725.5,726C 728.276,724.292 729.943,721.792 730.5,718.5 Z"/></g>
<g><path style="opacity:1" fill="#864019" d="M 707.5,766.5 C 708.754,768.656 711.087,770.323 714.5,771.5C 714.833,771.333 715.167,771.167 715.5,771C 713.161,768.45 713.828,767.95 717.5,769.5C 718.167,771.833 718.833,774.167 719.5,776.5C 723.889,774.588 727.389,775.588 730,779.5C 730.967,778.322 731.467,776.989 731.5,775.5C 732.386,776.325 732.719,777.325 732.5,778.5C 735.831,779.093 735.664,780.426 732,782.5C 732.077,783.738 731.911,784.738 731.5,785.5C 729.614,784.15 728.114,782.483 727,780.5C 725.736,784.381 725.569,788.381 726.5,792.5C 727.552,792.351 728.552,792.517 729.5,793C 727.452,794.226 727.119,795.726 728.5,797.5C 701.35,834.321 670.017,867.321 634.5,896.5C 633.859,892.67 632.193,892.004 629.5,894.5C 628.685,892.724 627.518,892.057 626,892.5C 624.471,893.729 623.304,895.229 622.5,897C 623.5,897.333 624.5,897.667 625.5,898C 620.667,897.5 618.5,899.667 619,904.5C 618.667,904.167 618.333,903.833 618,903.5C 616.647,904.685 615.48,906.019 614.5,907.5C 612.772,905.774 610.772,904.441 608.5,903.5C 604.135,906.034 600.635,909.368 598,913.5C 595.205,914.185 592.372,914.685 589.5,915C 589.374,917.924 588.041,920.591 585.5,923C 581.877,924.156 578.211,925.156 574.5,926C 568.22,929.213 568.22,932.213 574.5,935C 573.833,935.333 573.167,935.667 572.5,936C 574.488,936.18 576.488,936.014 578.5,935.5C 566.259,943.455 553.259,950.122 539.5,955.5C 536.811,954.995 534.644,953.662 533,951.5C 532.5,951.667 532,951.833 531.5,952C 532.308,952.308 532.975,952.808 533.5,953.5C 528.989,956.03 524.322,957.197 519.5,957C 518.62,958.356 518.286,959.856 518.5,961.5C 515.068,961.243 511.734,960.576 508.5,959.5C 517.204,955.538 526.204,952.038 535.5,949C 543.648,942.538 552.981,937.038 563.5,932.5C 564.762,930.137 566.429,927.804 568.5,925.5C 568.842,924.662 569.508,924.328 570.5,924.5C 570.56,925.043 570.893,925.376 571.5,925.5C 575.673,923.316 579.34,920.483 582.5,917C 586.835,914.177 591.502,912.01 596.5,910.5C 602.612,904.045 608.779,897.712 615,891.5C 616.583,891.493 618.249,891.826 620,892.5C 622.194,889.446 623.861,886.112 625,882.5C 630.892,876.064 637.226,870.064 644,864.5C 644.497,862.19 644.663,859.857 644.5,857.5C 648.324,856.665 651.49,854.665 654,851.5C 655.919,842.75 660.252,835.417 667,829.5C 667.596,826.46 668.763,823.794 670.5,821.5C 672.929,821.415 674.929,820.415 676.5,818.5C 677.034,816.386 678.034,814.552 679.5,813C 678.549,812.282 678.383,811.449 679,810.5C 682.845,804.836 687.178,799.503 692,794.5C 692.735,792.129 693.568,789.795 694.5,787.5C 695.325,786.614 696.325,786.281 697.5,786.5C 697.421,785.07 697.754,783.736 698.5,782.5C 697.975,781.808 697.308,781.308 696.5,781C 697.542,779.082 698.708,777.249 700,775.5C 700.333,775.833 700.667,776.167 701,776.5C 704.569,773.557 706.735,770.224 707.5,766.5 Z"/></g>
<g><path style="opacity:1" fill="#743818" d="M 407.5,745.5 C 406.139,747.85 404.806,750.184 403.5,752.5C 396.668,761.513 390.835,771.18 386,781.5C 385.548,784.877 384.882,788.211 384,791.5C 381.957,793.208 380.29,795.208 379,797.5C 378.372,803.695 376.372,809.361 373,814.5C 370.381,823.902 368.215,833.402 366.5,843C 367.249,845.882 367.249,848.549 366.5,851C 365.584,851.374 364.75,851.874 364,852.5C 363.24,862.867 363.406,873.201 364.5,883.5C 364.784,885.415 364.451,887.081 363.5,888.5C 359.686,861.196 362.352,834.53 371.5,808.5C 380.151,787.209 390.984,766.876 404,747.5C 404.816,746.177 405.983,745.511 407.5,745.5 Z"/></g>
<g><path style="opacity:1" fill="#6c3314" d="M 676.5,808.5 C 675.667,810.752 675.667,812.919 676.5,815C 675.874,815.75 675.374,816.584 675,817.5C 673.921,819.394 672.587,819.727 671,818.5C 665.7,826.752 659.866,834.586 653.5,842C 654.022,842.561 654.355,843.228 654.5,844C 652.74,848.761 649.573,852.261 645,854.5C 643.774,857.952 642.274,861.285 640.5,864.5C 632.221,871.507 624.888,879.341 618.5,888C 615.439,888.849 612.772,890.349 610.5,892.5C 604.549,898.361 598.716,904.361 593,910.5C 592.667,910.167 592.333,909.833 592,909.5C 590.887,910.305 589.721,910.972 588.5,911.5C 593.776,905.229 599.776,899.562 606.5,894.5C 613.913,887.093 620.913,879.426 627.5,871.5C 644.986,851.353 661.32,830.353 676.5,808.5 Z"/></g>
<g><path style="opacity:1" fill="#90451a" d="M 634.5,896.5 C 616.92,911.084 598.253,924.084 578.5,935.5C 576.488,936.014 574.488,936.18 572.5,936C 573.167,935.667 573.833,935.333 574.5,935C 568.22,932.213 568.22,929.213 574.5,926C 578.211,925.156 581.877,924.156 585.5,923C 588.041,920.591 589.374,917.924 589.5,915C 592.372,914.685 595.205,914.185 598,913.5C 600.635,909.368 604.135,906.034 608.5,903.5C 610.772,904.441 612.772,905.774 614.5,907.5C 615.48,906.019 616.647,904.685 618,903.5C 618.333,903.833 618.667,904.167 619,904.5C 618.5,899.667 620.667,897.5 625.5,898C 624.5,897.667 623.5,897.333 622.5,897C 623.304,895.229 624.471,893.729 626,892.5C 627.518,892.057 628.685,892.724 629.5,894.5C 632.193,892.004 633.859,892.67 634.5,896.5 Z"/></g>
<g><path style="opacity:1" fill="#9f634a" d="M 385.5,927.5 C 387.262,928.262 388.262,929.596 388.5,931.5C 386.738,930.738 385.738,929.404 385.5,927.5 Z"/></g>
<g><path style="opacity:1" fill="#dcbfa7" d="M 380.5,921.5 C 382.167,923.5 383.833,925.5 385.5,927.5C 385.738,929.404 386.738,930.738 388.5,931.5C 390.262,932.262 391.262,933.596 391.5,935.5C 391.5,936.167 391.5,936.833 391.5,937.5C 386.355,933.218 382.688,927.885 380.5,921.5 Z"/></g>
<g><path style="opacity:1" fill="#693316" d="M 568.5,925.5 C 566.429,927.804 564.762,930.137 563.5,932.5C 552.981,937.038 543.648,942.538 535.5,949C 526.204,952.038 517.204,955.538 508.5,959.5C 499.44,962.273 490.107,963.94 480.5,964.5C 479.791,963.596 478.791,963.263 477.5,963.5C 489.254,961.142 500.92,957.976 512.5,954C 521.01,949.914 529.677,946.08 538.5,942.5C 542.373,941.566 546.039,940.066 549.5,938C 555.733,933.585 562.067,929.418 568.5,925.5 Z"/></g>
<g><path style="opacity:1" fill="#8f4921" d="M 370.5,863.5 C 369.537,886.309 374.537,907.643 385.5,927.5C 383.833,925.5 382.167,923.5 380.5,921.5C 382.688,927.885 386.355,933.218 391.5,937.5C 394.694,942.62 399.027,946.62 404.5,949.5C 405.183,949.137 405.85,948.804 406.5,948.5C 422.236,959.853 439.903,965.187 459.5,964.5C 465.521,964.371 471.521,964.038 477.5,963.5C 478.791,963.263 479.791,963.596 480.5,964.5C 478.76,966.556 476.427,967.889 473.5,968.5C 466.481,968.731 459.481,968.065 452.5,966.5C 448.924,966.318 445.59,966.985 442.5,968.5C 441.446,968.32 440.446,967.987 439.5,967.5C 439.264,968.247 438.93,969.08 438.5,970C 440.708,970.191 442.708,970.691 444.5,971.5C 414.405,967.574 391.572,952.574 376,926.5C 369.727,914.514 365.56,901.847 363.5,888.5C 364.451,887.081 364.784,885.415 364.5,883.5C 365.767,884.087 366.767,884.087 367.5,883.5C 366.926,881.941 366.26,880.441 365.5,879C 366.893,877.829 367.727,876.329 368,874.5C 368.333,875.167 368.667,875.833 369,876.5C 369.175,871.981 369.675,867.647 370.5,863.5 Z"/></g>
<g><path style="opacity:1" fill="#dbbba1" d="M 380.5,921.5 C 377.302,918.105 375.469,914.105 375,909.5C 377.119,913.402 378.952,917.402 380.5,921.5 Z"/></g>
<g><path style="opacity:1" fill="#5a2b15" d="M 627.5,871.5 C 620.913,879.426 613.913,887.093 606.5,894.5C 599.776,899.562 593.776,905.229 588.5,911.5C 581.936,915.066 575.936,919.399 570.5,924.5C 569.508,924.328 568.842,924.662 568.5,925.5C 562.067,929.418 555.733,933.585 549.5,938C 546.039,940.066 542.373,941.566 538.5,942.5C 571.314,923.046 600.98,899.379 627.5,871.5 Z"/></g>
<g><path style="opacity:1" fill="#8e4427" d="M 391.5,935.5 C 394.5,937.833 397.167,940.5 399.5,943.5C 396.569,941.909 393.902,939.909 391.5,937.5C 391.5,936.833 391.5,936.167 391.5,935.5 Z"/></g>
<g><path style="opacity:1" fill="#c29070" d="M 391.5,937.5 C 393.902,939.909 396.569,941.909 399.5,943.5C 402.117,944.786 404.45,946.453 406.5,948.5C 405.85,948.804 405.183,949.137 404.5,949.5C 399.027,946.62 394.694,942.62 391.5,937.5 Z"/></g>
<g><path style="opacity:1" fill="#93491f" d="M 539.5,955.5 C 535.119,958.02 530.453,960.02 525.5,961.5C 520.607,962.796 515.94,964.462 511.5,966.5C 491.204,971.983 470.537,974.149 449.5,973C 447.618,972.802 445.952,972.302 444.5,971.5C 442.708,970.691 440.708,970.191 438.5,970C 438.93,969.08 439.264,968.247 439.5,967.5C 440.446,967.987 441.446,968.32 442.5,968.5C 445.59,966.985 448.924,966.318 452.5,966.5C 459.481,968.065 466.481,968.731 473.5,968.5C 476.427,967.889 478.76,966.556 480.5,964.5C 490.107,963.94 499.44,962.273 508.5,959.5C 511.734,960.576 515.068,961.243 518.5,961.5C 518.286,959.856 518.62,958.356 519.5,957C 524.322,957.197 528.989,956.03 533.5,953.5C 532.975,952.808 532.308,952.308 531.5,952C 532,951.833 532.5,951.667 533,951.5C 534.644,953.662 536.811,954.995 539.5,955.5 Z"/></g>
<g><path style="opacity:1" fill="#e0cbbe" d="M 525.5,961.5 C 523.078,963.268 520.412,964.768 517.5,966C 515.527,966.495 513.527,966.662 511.5,966.5C 515.94,964.462 520.607,962.796 525.5,961.5 Z"/></g>
<g><path style="opacity:1" fill="#813f19" d="M 1099.5,690.5 C 1070.32,831.071 996.317,940.904 877.5,1020C 814.14,1059.9 745.14,1083.23 670.5,1090C 665.845,1087.1 664.345,1082.94 666,1077.5C 667.251,1074.62 669.417,1072.79 672.5,1072C 815.358,1052.67 927.192,983.834 1008,865.5C 1046.76,805.737 1072.26,740.737 1084.5,670.5C 1084.15,676.262 1084.65,681.928 1086,687.5C 1086.15,684.475 1087.65,682.809 1090.5,682.5C 1090.55,679.449 1089.55,676.782 1087.5,674.5C 1088.17,673.5 1088.83,672.5 1089.5,671.5C 1088.54,670.188 1088.71,668.854 1090,667.5C 1090.76,669.635 1092.26,670.968 1094.5,671.5C 1095.68,670.145 1096.68,670.312 1097.5,672C 1097.63,676.091 1097.29,680.091 1096.5,684C 1097.17,685 1097.83,686 1098.5,687C 1096.84,687.725 1096.34,688.892 1097,690.5C 1098.39,688.158 1099.23,688.158 1099.5,690.5 Z"/></g>
<g><path style="opacity:1" fill="#833f19" d="M 213.5,836.5 C 281.14,950.587 379.14,1025.42 507.5,1061C 527.916,1066.14 548.583,1069.81 569.5,1072C 578.341,1077.67 578.675,1083.67 570.5,1090C 509.381,1084.74 451.715,1067.74 397.5,1039C 308.109,991.442 239.109,923.275 190.5,834.5C 193.298,835.186 196.131,834.853 199,833.5C 199.373,835.698 199.873,837.865 200.5,840C 200.095,840.945 199.428,841.612 198.5,842C 200.833,841.667 203.167,841.333 205.5,841C 206.833,842 208.167,843 209.5,844C 208.549,844.718 208.383,845.551 209,846.5C 211.282,843.426 212.782,840.093 213.5,836.5 Z"/></g>
</svg>
