<?xml version="1.0" encoding="UTF-8"?>
<!DOCTYPE svg PUBLIC "-//W3C//DTD SVG 1.1//EN" "http://www.w3.org/Graphics/SVG/1.1/DTD/svg11.dtd">
<svg xmlns="http://www.w3.org/2000/svg" version="1.1" width="1254px" height="1254px" style="shape-rendering:geometricPrecision; text-rendering:geometricPrecision; image-rendering:optimizeQuality; fill-rule:evenodd; clip-rule:evenodd" xmlns:xlink="http://www.w3.org/1999/xlink">
<g><path style="opacity:1" fill="none" d="M -0.5,-0.5 C 417.5,-0.5 835.5,-0.5 1253.5,-0.5C 1253.5,417.5 1253.5,835.5 1253.5,1253.5C 835.5,1253.5 417.5,1253.5 -0.5,1253.5C -0.5,835.5 -0.5,417.5 -0.5,-0.5 Z"/></g>
<g><path style="opacity:1" fill="#c9a994" d="M 702.5,114.5 C 705.495,114.294 708.162,114.96 710.5,116.5C 707.572,116.435 704.905,115.768 702.5,114.5 Z"/></g>
<g><path style="opacity:1" fill="#ece1da" d="M 554.5,133.5 C 551.483,135.377 548.316,137.044 545,138.5C 541.953,138.071 538.786,138.071 535.5,138.5C 535.65,141.926 534.484,142.259 532,139.5C 529.973,139.986 527.807,139.986 525.5,139.5C 534.771,136.591 544.438,134.591 554.5,133.5 Z"/></g>
<g><path style="opacity:1" fill="#843e15" d="M 554.5,133.5 C 544.438,134.591 534.771,136.591 525.5,139.5C 414.156,166.724 324.656,226.39 257,318.5C 158.409,462.114 138.742,616.114 198,780.5C 250.343,910.843 341.843,1001.68 472.5,1053C 502.064,1062.58 532.064,1070.24 562.5,1076C 569.36,1085.79 566.86,1091.96 555,1094.5C 465.519,1080.83 386.685,1044.67 318.5,986C 224.671,902.871 168.005,799.038 148.5,674.5C 148.473,668.949 147.806,663.616 146.5,658.5C 133.083,507.478 176.25,375.478 276,262.5C 349.085,183.699 438.585,134.199 544.5,114C 549.833,113.333 555.167,113.333 560.5,114C 566.467,117.392 567.967,122.226 565,128.5C 562.45,132.192 558.95,133.858 554.5,133.5 Z"/></g>
<g><path style="opacity:1" fill="#dcc7b8" d="M 743.5,281.5 C 740.462,296.318 736.795,310.985 732.5,325.5C 731.662,325.158 731.328,324.492 731.5,323.5C 735.014,308.102 738.847,292.769 743,277.5C 743.49,278.793 743.657,280.127 743.5,281.5 Z"/></g>
<g><path style="opacity:1" fill="#843e14" d="M 771.5,290.5 C 767.082,314.838 761.415,338.838 754.5,362.5C 753.076,364.515 752.41,366.848 752.5,369.5C 724.916,454.007 696.75,538.34 668,622.5C 663.318,636.376 659.152,650.376 655.5,664.5C 655.167,664.5 654.833,664.5 654.5,664.5C 653.784,664.217 652.951,663.884 652,663.5C 651.196,667.718 652.696,670.884 656.5,673C 656.043,673.414 655.709,673.914 655.5,674.5C 659.795,675.661 664.129,675.828 668.5,675C 665.314,674.742 663.314,673.075 662.5,670C 664.369,667.686 666.369,667.353 668.5,669C 668.167,669.333 667.833,669.667 667.5,670C 669.862,671.862 672.529,673.029 675.5,673.5C 679.997,673.85 681.664,672.016 680.5,668C 683.833,667.333 687.167,667.333 690.5,668C 689.72,669.073 689.887,670.24 691,671.5C 691.5,669.667 692.667,668.5 694.5,668C 697.557,667.744 700.557,667.244 703.5,666.5C 705.802,667.999 705.469,669.332 702.5,670.5C 699.506,669.252 696.506,669.252 693.5,670.5C 694.09,671.799 695.09,672.632 696.5,673C 696.167,673.333 695.833,673.667 695.5,674C 697.473,674.495 699.473,674.662 701.5,674.5C 684.791,675.965 667.957,676.965 651,677.5C 629.229,748.364 609.229,819.697 591,891.5C 588.584,904.502 586.251,917.502 584,930.5C 583.333,942.5 583.333,954.5 584,966.5C 584.857,975.936 587.857,984.603 593,992.5C 595.264,995.433 598.098,997.6 601.5,999C 606.533,999.935 611.533,1000.93 616.5,1002C 619.752,1006.82 618.752,1010.48 613.5,1013C 600.044,1014.96 588.377,1011.29 578.5,1002C 566.197,988.219 559.197,972.052 557.5,953.5C 558.072,950.425 559.905,948.425 563,947.5C 563.333,945.5 563.667,943.5 564,941.5C 564.232,942.737 564.732,943.737 565.5,944.5C 566.493,936.016 566.826,927.349 566.5,918.5C 567.518,901.692 569.684,885.026 573,868.5C 582.094,827.122 592.594,786.122 604.5,745.5C 604.333,744.833 604.167,744.167 604,743.5C 602.53,746.744 601.363,750.077 600.5,753.5C 599.498,751.008 599.498,748.342 600.5,745.5C 599.626,742.924 598.626,740.424 597.5,738C 599.293,736.69 601.126,736.19 603,736.5C 604.111,733.96 604.278,731.46 603.5,729C 604.701,726.766 606.035,724.599 607.5,722.5C 604.988,720.33 603.321,717.663 602.5,714.5C 605.834,702.829 609.167,691.162 612.5,679.5C 613.404,678.791 613.737,677.791 613.5,676.5C 595.326,676.17 577.326,676.503 559.5,677.5C 489.725,675.693 424.725,692.193 364.5,727C 358.569,728.471 352.569,728.804 346.5,728C 339.038,722.897 336.872,716.064 340,707.5C 346.73,696.383 355.897,687.883 367.5,682C 378.436,675.698 390.103,671.365 402.5,669C 403.373,667.955 404.373,667.122 405.5,666.5C 409.162,665.637 411.328,666.97 412,670.5C 412.863,668.251 412.363,666.418 410.5,665C 412.898,664.626 415.231,664.626 417.5,665C 419.864,661.642 421.031,658.142 421,654.5C 422.299,658.665 424.799,660.665 428.5,660.5C 427.71,661.794 426.71,662.961 425.5,664C 446.611,660.408 467.944,658.908 489.5,659.5C 532.222,660.366 574.888,662.366 617.5,665.5C 646.009,570.314 675.676,475.648 706.5,381.5C 708.61,377.498 709.943,373.165 710.5,368.5C 711.933,362.67 713.599,357.003 715.5,351.5C 717.254,348.298 719.421,345.298 722,342.5C 722.761,346.251 723.928,346.417 725.5,343C 724.692,342.692 724.025,342.192 723.5,341.5C 725.197,340.636 726.363,339.303 727,337.5C 729.091,338.5 730.757,337.833 732,335.5C 732.58,332.453 732.247,332.119 731,334.5C 730.601,334.272 730.435,333.938 730.5,333.5C 731.167,330.833 731.833,328.167 732.5,325.5C 736.795,310.985 740.462,296.318 743.5,281.5C 744.222,281.918 744.722,282.584 745,283.5C 745.374,282.584 745.874,281.75 746.5,281C 748.676,280.837 750.509,280.004 752,278.5C 754.041,279.423 756.208,279.756 758.5,279.5C 758.649,280.552 758.483,281.552 758,282.5C 757.346,281.304 756.846,281.304 756.5,282.5C 757.5,283.5 758.5,284.5 759.5,285.5C 760.696,285.154 760.696,284.654 759.5,284C 764.08,281.108 768.08,281.442 771.5,285C 770.833,285.333 770.167,285.667 769.5,286C 770.267,287.47 770.933,288.97 771.5,290.5 Z"/></g>
<g><path style="opacity:1" fill="#b6886e" d="M 731.5,323.5 C 731.328,324.492 731.662,325.158 732.5,325.5C 731.833,328.167 731.167,330.833 730.5,333.5C 729.105,335.054 728.439,334.721 728.5,332.5C 729.337,329.323 730.337,326.323 731.5,323.5 Z"/></g>
<g><path style="opacity:1" fill="none" d="M 715.5,351.5 C 713.599,357.003 711.933,362.67 710.5,368.5C 708.39,372.502 707.057,376.835 706.5,381.5C 675.676,475.648 646.009,570.314 617.5,665.5C 574.888,662.366 532.222,660.366 489.5,659.5C 467.944,658.908 446.611,660.408 425.5,664C 426.71,662.961 427.71,661.794 428.5,660.5C 436.276,653.897 443.942,647.063 451.5,640C 469.062,622.271 486.728,604.771 504.5,587.5C 507.899,585.612 510.899,583.112 513.5,580C 514.449,579.383 515.282,579.549 516,580.5C 521.667,574.167 527.667,568.167 534,562.5C 538.535,553.462 545.035,546.129 553.5,540.5C 554.641,539.575 554.641,538.741 553.5,538C 555.421,537.64 557.088,536.806 558.5,535.5C 558.291,534.914 557.957,534.414 557.5,534C 560.279,529.888 563.779,526.388 568,523.5C 568.49,522.207 568.657,520.873 568.5,519.5C 628.365,451.751 682.032,380.085 729.5,304.5C 724.077,319.957 719.41,335.624 715.5,351.5 Z"/></g>
<g><path style="opacity:1" fill="#cdaf9d" d="M 754.5,362.5 C 754.59,365.152 753.924,367.485 752.5,369.5C 752.41,366.848 753.076,364.515 754.5,362.5 Z"/></g>
<g><path style="opacity:1" fill="#a37354" d="M 710.5,368.5 C 709.943,373.165 708.61,377.498 706.5,381.5C 707.057,376.835 708.39,372.502 710.5,368.5 Z"/></g>
<g><path style="opacity:1" fill="#853e14" d="M 702.5,114.5 C 704.905,115.768 707.572,116.435 710.5,116.5C 834.062,142.645 932.229,206.978 1005,309.5C 1090.19,434.924 1116.52,571.924 1084,720.5C 1049.97,856.447 973.804,961.28 855.5,1035C 806.996,1063 755.33,1082.16 700.5,1092.5C 694.839,1092.91 689.172,1093.24 683.5,1093.5C 679.117,1091.91 677.117,1088.74 677.5,1084C 677.198,1079.27 679.198,1075.94 683.5,1074C 813.07,1051.83 915.57,987.335 991,880.5C 1072.05,757.89 1095.72,624.89 1062,481.5C 1028.29,355.136 956.125,257.636 845.5,189C 794.729,160.075 740.395,141.075 682.5,132C 675.635,125.358 675.969,119.024 683.5,113C 689.891,112.741 696.225,113.241 702.5,114.5 Z"/></g>
<g><path style="opacity:1" fill="#853f17" d="M 771.5,290.5 C 770.933,288.97 770.267,287.47 769.5,286C 770.167,285.667 770.833,285.333 771.5,285C 768.08,281.442 764.08,281.108 759.5,284C 760.696,284.654 760.696,285.154 759.5,285.5C 758.5,284.5 757.5,283.5 756.5,282.5C 756.846,281.304 757.346,281.304 758,282.5C 758.483,281.552 758.649,280.552 758.5,279.5C 756.208,279.756 754.041,279.423 752,278.5C 750.509,280.004 748.676,280.837 746.5,281C 745.874,281.75 745.374,282.584 745,283.5C 744.722,282.584 744.222,281.918 743.5,281.5C 743.657,280.127 743.49,278.793 743,277.5C 738.847,292.769 735.014,308.102 731.5,323.5C 730.337,326.323 729.337,329.323 728.5,332.5C 728.439,334.721 729.105,335.054 730.5,333.5C 730.435,333.938 730.601,334.272 731,334.5C 732.247,332.119 732.58,332.453 732,335.5C 730.757,337.833 729.091,338.5 727,337.5C 726.363,339.303 725.197,340.636 723.5,341.5C 724.025,342.192 724.692,342.692 725.5,343C 723.928,346.417 722.761,346.251 722,342.5C 719.421,345.298 717.254,348.298 715.5,351.5C 719.41,335.624 724.077,319.957 729.5,304.5C 682.032,380.085 628.365,451.751 568.5,519.5C 547.561,542.442 526.227,565.109 504.5,587.5C 486.728,604.771 469.062,622.271 451.5,640C 443.942,647.063 436.276,653.897 428.5,660.5C 424.799,660.665 422.299,658.665 421,654.5C 421.031,658.142 419.864,661.642 417.5,665C 415.231,664.626 412.898,664.626 410.5,665C 412.363,666.418 412.863,668.251 412,670.5C 411.328,666.97 409.162,665.637 405.5,666.5C 481.825,597.684 551.991,523.351 616,443.5C 643.642,407.557 669.309,370.224 693,331.5C 711.291,301.914 725.291,270.581 735,237.5C 743.197,228.573 752.697,227.073 763.5,233C 773.269,240.557 777.269,250.557 775.5,263C 775.484,272.48 774.151,281.647 771.5,290.5 Z"/></g>
<g><path style="opacity:1" fill="none" d="M 568.5,519.5 C 568.657,520.873 568.49,522.207 568,523.5C 563.779,526.388 560.279,529.888 557.5,534C 557.957,534.414 558.291,534.914 558.5,535.5C 557.088,536.806 555.421,537.64 553.5,538C 554.641,538.741 554.641,539.575 553.5,540.5C 545.035,546.129 538.535,553.462 534,562.5C 527.667,568.167 521.667,574.167 516,580.5C 515.282,579.549 514.449,579.383 513.5,580C 510.899,583.112 507.899,585.612 504.5,587.5C 526.227,565.109 547.561,542.442 568.5,519.5 Z"/></g>
<g><path style="opacity:1" fill="#863f17" d="M 701.5,674.5 C 699.473,674.662 697.473,674.495 695.5,674C 695.833,673.667 696.167,673.333 696.5,673C 695.09,672.632 694.09,671.799 693.5,670.5C 696.506,669.252 699.506,669.252 702.5,670.5C 705.469,669.332 705.802,667.999 703.5,666.5C 700.557,667.244 697.557,667.744 694.5,668C 692.667,668.5 691.5,669.667 691,671.5C 689.887,670.24 689.72,669.073 690.5,668C 687.167,667.333 683.833,667.333 680.5,668C 681.664,672.016 679.997,673.85 675.5,673.5C 672.529,673.029 669.862,671.862 667.5,670C 667.833,669.667 668.167,669.333 668.5,669C 666.369,667.353 664.369,667.686 662.5,670C 663.314,673.075 665.314,674.742 668.5,675C 664.129,675.828 659.795,675.661 655.5,674.5C 655.709,673.914 656.043,673.414 656.5,673C 652.696,670.884 651.196,667.718 652,663.5C 652.951,663.884 653.784,664.217 654.5,664.5C 657.087,665.816 660.087,666.483 663.5,666.5C 666.686,666.498 669.686,666.165 672.5,665.5C 706.281,665.316 738.615,658.483 769.5,645C 789.227,635.273 804.393,620.773 815,601.5C 820.099,587.738 819.599,574.238 813.5,561C 814.289,555.768 817.289,553.768 822.5,555C 833.01,560.194 838.843,568.694 840,580.5C 841.038,598.052 835.705,613.385 824,626.5C 800.845,649.496 773.012,663.662 740.5,669C 727.645,671.92 714.645,673.754 701.5,674.5 Z"/></g>
<g><path style="opacity:1" fill="#c29273" d="M 817.5,609.5 C 817.114,611.937 815.947,613.937 814,615.5C 813.333,614.833 813.333,614.167 814,613.5C 814.949,611.907 816.115,610.574 817.5,609.5 Z"/></g>
<g><path style="opacity:1" fill="#eaddd2" d="M 817.5,609.5 C 822.893,599.145 825.059,588.145 824,576.5C 823.468,573.736 822.634,571.07 821.5,568.5C 821.833,568.167 822.167,567.833 822.5,567.5C 828.861,582.487 827.194,596.487 817.5,609.5 Z"/></g>
<g><path style="opacity:1" fill="#d3bbac" d="M 146.5,658.5 C 147.806,663.616 148.473,668.949 148.5,674.5C 147.043,669.402 146.376,664.069 146.5,658.5 Z"/></g>
<g><path style="opacity:1" fill="#d0b39d" d="M 654.5,664.5 C 654.833,664.5 655.167,664.5 655.5,664.5C 660.975,665.489 666.642,665.822 672.5,665.5C 669.686,666.165 666.686,666.498 663.5,666.5C 660.087,666.483 657.087,665.816 654.5,664.5 Z"/></g>
<g><path style="opacity:1" fill="#d5b6a4" d="M 427.5,671.5 C 429.199,671.34 430.866,671.506 432.5,672C 425.617,674.421 418.617,676.087 411.5,677C 412.167,676.333 412.833,675.667 413.5,675C 418.341,674.005 423.008,672.838 427.5,671.5 Z"/></g>
<g><path style="opacity:1" fill="#d9c3b4" d="M 559.5,677.5 C 577.326,676.503 595.326,676.17 613.5,676.5C 613.737,677.791 613.404,678.791 612.5,679.5C 595.198,677.514 577.532,676.847 559.5,677.5 Z"/></g>
<g><path style="opacity:1" fill="#eee3dd" d="M 385.5,682.5 C 386.239,682.369 386.906,682.536 387.5,683C 380.676,688.245 373.676,693.245 366.5,698C 363.299,701.536 359.799,704.703 356,707.5C 356.717,702.732 359.217,698.898 363.5,696C 370.73,691.224 378.063,686.724 385.5,682.5 Z"/></g>
<g><path style="opacity:1" fill="#eaded5" d="M 566.5,918.5 C 565.833,924.5 565.167,930.5 564.5,936.5C 563.211,924.853 563.211,913.186 564.5,901.5C 565.801,897.057 566.468,892.391 566.5,887.5C 569.978,864.56 574.812,841.893 581,819.5C 587.4,797.468 593.9,775.468 600.5,753.5C 601.363,750.077 602.53,746.744 604,743.5C 604.167,744.167 604.333,744.833 604.5,745.5C 592.594,786.122 582.094,827.122 573,868.5C 569.684,885.026 567.518,901.692 566.5,918.5 Z"/></g>
<g><path style="opacity:1" fill="#89441c" d="M 602.5,714.5 C 603.321,717.663 604.988,720.33 607.5,722.5C 606.035,724.599 604.701,726.766 603.5,729C 604.278,731.46 604.111,733.96 603,736.5C 601.126,736.19 599.293,736.69 597.5,738C 598.626,740.424 599.626,742.924 600.5,745.5C 599.498,748.342 599.498,751.008 600.5,753.5C 593.9,775.468 587.4,797.468 581,819.5C 574.812,841.893 569.978,864.56 566.5,887.5C 565.028,891.919 564.362,896.586 564.5,901.5C 563.211,913.186 563.211,924.853 564.5,936.5C 564.833,939.167 565.167,941.833 565.5,944.5C 564.732,943.737 564.232,942.737 564,941.5C 563.667,943.5 563.333,945.5 563,947.5C 559.905,948.425 558.072,950.425 557.5,953.5C 554.615,940.123 553.781,926.456 555,912.5C 556.561,896.462 558.561,880.462 561,864.5C 572.702,813.667 586.535,763.667 602.5,714.5 Z"/></g>
<g><path style="opacity:1" fill="#b38466" d="M 566.5,887.5 C 566.468,892.391 565.801,897.057 564.5,901.5C 564.362,896.586 565.028,891.919 566.5,887.5 Z"/></g>
<g><path style="opacity:1" fill="#c19b81" d="M 566.5,918.5 C 566.826,927.349 566.493,936.016 565.5,944.5C 565.167,941.833 564.833,939.167 564.5,936.5C 565.167,930.5 565.833,924.5 566.5,918.5 Z"/></g>
<g><path style="opacity:1" fill="#ddc7b8" d="M 700.5,1092.5 C 694.9,1094.46 689.233,1094.8 683.5,1093.5C 689.172,1093.24 694.839,1092.91 700.5,1092.5 Z"/></g>
</svg>
