<?xml version="1.0" encoding="UTF-8"?>
<!DOCTYPE svg PUBLIC "-//W3C//DTD SVG 1.1//EN" "http://www.w3.org/Graphics/SVG/1.1/DTD/svg11.dtd">
<svg xmlns="http://www.w3.org/2000/svg" version="1.1" width="1254px" height="1254px" style="shape-rendering:geometricPrecision; text-rendering:geometricPrecision; image-rendering:optimizeQuality; fill-rule:evenodd; clip-rule:evenodd" xmlns:xlink="http://www.w3.org/1999/xlink">
<g><path style="opacity:1" fill="none" d="M -0.5,-0.5 C 417.5,-0.5 835.5,-0.5 1253.5,-0.5C 1253.5,417.5 1253.5,835.5 1253.5,1253.5C 835.5,1253.5 417.5,1253.5 -0.5,1253.5C -0.5,835.5 -0.5,417.5 -0.5,-0.5 Z"/></g>
<g><path style="opacity:1" fill="#ece4de" d="M 730.5,124.5 C 721.986,123.469 713.653,122.136 705.5,120.5C 713.201,119.779 720.701,119.112 728,118.5C 731.291,120.024 731.125,121.357 727.5,122.5C 728.602,123.176 729.602,123.842 730.5,124.5 Z"/></g>
<g><path style="opacity:1" fill="#e7dad1" d="M 760.5,131.5 C 755.191,130.924 750.191,129.591 745.5,127.5C 747.696,127.59 749.863,127.923 752,128.5C 755.022,126.363 758.189,126.53 761.5,129C 760.167,129.333 758.833,129.667 757.5,130C 758.737,130.232 759.737,130.732 760.5,131.5 Z"/></g>
<g><path style="opacity:1" fill="#a3724e" d="M 751.5,150.5 C 754.152,150.41 756.485,151.076 758.5,152.5C 755.848,152.59 753.515,151.924 751.5,150.5 Z"/></g>
<g><path style="opacity:1" fill="#84461a" d="M 705.5,120.5 C 713.653,122.136 721.986,123.469 730.5,124.5C 735.36,126.139 740.36,127.139 745.5,127.5C 750.191,129.591 755.191,130.924 760.5,131.5C 866.947,165.455 950.781,229.121 1012,322.5C 1062.68,402.369 1089.51,489.702 1092.5,584.5C 1092.71,603.182 1092.37,621.848 1091.5,640.5C 1081.42,774.47 1028.42,887.97 932.5,981C 868.203,1040.98 792.537,1078.98 705.5,1095C 692.434,1099.24 686.601,1094.74 688,1081.5C 689.5,1080 691,1078.5 692.5,1077C 811.029,1055.7 905.863,996.866 977,900.5C 1057.63,784.192 1086.96,655.859 1065,515.5C 1041.18,386.272 976.349,283.439 870.5,207C 835.901,183.2 798.567,165.034 758.5,152.5C 756.485,151.076 754.152,150.41 751.5,150.5C 732.633,146.022 713.633,142.189 694.5,139C 688.876,132.632 689.209,126.632 695.5,121C 698.817,120.502 702.15,120.335 705.5,120.5 Z"/></g>
<g><path style="opacity:1" fill="#a1724f" d="M 626.5,280.5 C 621.731,281.889 616.731,282.556 611.5,282.5C 616.25,280.969 621.25,280.302 626.5,280.5 Z"/></g>
<g><path style="opacity:1" fill="#834519" d="M 623.5,296.5 C 622.448,294.345 623.114,294.012 625.5,295.5C 627.38,292.909 629.38,290.409 631.5,288C 633.833,287.667 636.167,287.333 638.5,287C 637.483,285.951 637.316,284.784 638,283.5C 638.519,284.516 639.353,285.182 640.5,285.5C 643.266,284.033 646.266,283.2 649.5,283C 647.5,282.667 645.5,282.333 643.5,282C 647.152,281.501 650.818,281.335 654.5,281.5C 659.179,281.334 663.845,281.501 668.5,282C 706.613,288.278 744.946,292.445 783.5,294.5C 792.511,294.333 801.511,294 810.5,293.5C 814.509,293.142 818.509,292.642 822.5,292C 823.416,291.722 824.082,291.222 824.5,290.5C 842.896,286.632 857.23,276.798 867.5,261C 871.549,259.516 873.549,260.849 873.5,265C 871.663,271.84 868.496,278.007 864,283.5C 823.171,324.016 774.004,340.849 716.5,334C 699.566,329.912 682.899,324.579 666.5,318C 652.171,310.836 637.838,303.669 623.5,296.5 Z"/></g>
<g><path style="opacity:1" fill="#9b6c45" d="M 824.5,290.5 C 824.082,291.222 823.416,291.722 822.5,292C 818.509,292.642 814.509,293.142 810.5,293.5C 814.883,291.77 819.55,290.77 824.5,290.5 Z"/></g>
<g><path style="opacity:1" fill="#84461a" d="M 157.5,688.5 C 157.638,683.586 156.972,678.919 155.5,674.5C 140.087,536.815 171.92,411.482 251,298.5C 303.307,227.256 370.473,175.09 452.5,142C 483.196,130.576 514.863,123.41 547.5,120.5C 557.497,119.332 561.997,123.665 561,133.5C 559.5,136.333 557.333,138.5 554.5,140C 499.686,144.826 448.686,161.493 401.5,190C 281.774,265.196 208.274,372.696 181,512.5C 159.92,628.614 176.587,738.947 231,843.5C 297.593,961.063 396.426,1036.9 527.5,1071C 537.799,1072.91 548.132,1074.58 558.5,1076C 566.701,1079.37 568.535,1084.87 564,1092.5C 561.739,1094.63 559.072,1095.96 556,1096.5C 447.22,1078.95 355.554,1029.95 281,949.5C 214.085,874.991 172.919,787.991 157.5,688.5 Z"/></g>
<g><path style="opacity:1" fill="#ddcabb" d="M 639.5,454.5 C 639.5,454.167 639.5,453.833 639.5,453.5C 647.507,453.334 655.507,453.5 663.5,454C 666.742,454.406 669.742,455.239 672.5,456.5C 661.582,454.793 650.582,454.126 639.5,454.5 Z"/></g>
<g><path style="opacity:1" fill="#834519" d="M 676.5,442.5 C 710.14,443.905 737.973,457.238 760,482.5C 763.688,487.218 766.855,492.218 769.5,497.5C 769.279,500.097 768.779,500.097 768,497.5C 767.692,498.308 767.192,498.975 766.5,499.5C 765.5,498.833 764.5,498.167 763.5,497.5C 762.158,499.005 760.492,499.672 758.5,499.5C 758.263,500.791 758.596,501.791 759.5,502.5C 760.655,505.328 761.989,507.995 763.5,510.5C 772.171,539.2 775.171,568.533 772.5,598.5C 771.479,602.98 770.813,607.647 770.5,612.5C 768.213,632.022 764.88,651.356 760.5,670.5C 754.921,690.458 748.254,710.125 740.5,729.5C 738.275,733.623 736.275,737.956 734.5,742.5C 734.846,743.696 735.346,743.696 736,742.5C 737.847,738.807 739.68,735.14 741.5,731.5C 744.851,723.47 748.184,715.47 751.5,707.5C 752.363,706.537 753.03,706.537 753.5,707.5C 752.319,709.198 752.319,710.865 753.5,712.5C 754.425,713.641 755.259,713.641 756,712.5C 756.833,713.333 757.667,714.167 758.5,715C 757.333,715.5 756.5,716.333 756,717.5C 753.816,715.129 751.65,715.296 749.5,718C 751.127,717.57 752.627,717.404 754,717.5C 755.797,720.096 757.131,719.763 758,716.5C 758.399,716.728 758.565,717.062 758.5,717.5C 751.225,735.383 742.891,752.716 733.5,769.5C 700.87,825.974 657.536,872.807 603.5,910C 593.436,916.364 583.103,922.197 572.5,927.5C 571.262,927.19 571.262,926.69 572.5,926C 570.58,924.878 568.58,924.044 566.5,923.5C 567.011,927.388 565.345,929.721 561.5,930.5C 560.833,929.167 560.167,927.833 559.5,926.5C 558.808,927.025 558.308,927.692 558,928.5C 557.149,925.947 557.482,923.614 559,921.5C 561.268,923.377 563.435,923.543 565.5,922C 562.079,920.021 558.745,918.688 555.5,918C 557.65,916.808 558.317,915.308 557.5,913.5C 594.998,883.85 625.498,848.184 649,806.5C 675.424,759.71 695.257,710.376 708.5,658.5C 709.924,656.485 710.59,654.152 710.5,651.5C 710.298,649.05 710.631,646.717 711.5,644.5C 712.924,642.485 713.59,640.152 713.5,637.5C 715.354,626.852 717.021,616.185 718.5,605.5C 720.211,601.119 720.877,596.453 720.5,591.5C 722.671,565.663 721.505,539.996 717,514.5C 712.371,493.06 701.538,475.56 684.5,462C 680.598,459.881 676.598,458.048 672.5,456.5C 669.742,455.239 666.742,454.406 663.5,454C 655.507,453.5 647.507,453.334 639.5,453.5C 638.448,453.649 637.448,453.483 636.5,453C 648.446,452.491 648.446,451.658 636.5,450.5C 636.709,449.914 637.043,449.414 637.5,449C 641.134,448.844 644.467,447.844 647.5,446C 646.643,445.311 645.977,444.478 645.5,443.5C 655.812,442.501 666.145,442.168 676.5,442.5 Z"/></g>
<g><path style="opacity:1" fill="#84471a" d="M 626.5,280.5 C 636.015,280.173 645.348,280.506 654.5,281.5C 650.818,281.335 647.152,281.501 643.5,282C 645.5,282.333 647.5,282.667 649.5,283C 646.266,283.2 643.266,284.033 640.5,285.5C 639.353,285.182 638.519,284.516 638,283.5C 637.316,284.784 637.483,285.951 638.5,287C 636.167,287.333 633.833,287.667 631.5,288C 629.38,290.409 627.38,292.909 625.5,295.5C 623.114,294.012 622.448,294.345 623.5,296.5C 620.833,295.5 618.167,294.5 615.5,293.5C 613.866,292.839 612.033,292.506 610,292.5C 606.85,292.36 604.017,293.027 601.5,294.5C 571.215,357.402 541.215,420.402 511.5,483.5C 506.604,491.359 502.771,499.692 500,508.5C 504.732,504.258 509.565,500.258 514.5,496.5C 543.749,474.542 576.082,458.376 611.5,448C 632.965,441.926 654.632,440.092 676.5,442.5C 666.145,442.168 655.812,442.501 645.5,443.5C 645.977,444.478 646.643,445.311 647.5,446C 644.467,447.844 641.134,448.844 637.5,449C 637.043,449.414 636.709,449.914 636.5,450.5C 648.446,451.658 648.446,452.491 636.5,453C 637.448,453.483 638.448,453.649 639.5,453.5C 639.5,453.833 639.5,454.167 639.5,454.5C 622.753,456.248 606.753,460.748 591.5,468C 555.517,484.966 524.351,508.466 498,538.5C 487.736,550.094 478.236,562.26 469.5,575C 461.992,579.198 454.326,579.531 446.5,576C 444.129,574.257 442.795,571.923 442.5,569C 474.508,501.816 506.674,434.649 539,367.5C 548.608,346.618 557.941,325.618 567,304.5C 568.833,302.667 570.667,300.833 572.5,299C 582.221,293.473 592.221,288.473 602.5,284C 605.478,283.304 608.478,282.804 611.5,282.5C 616.731,282.556 621.731,281.889 626.5,280.5 Z"/></g>
<g><path style="opacity:1" fill="none" d="M 511.5,483.5 C 510.4,486.038 510.4,488.872 511.5,492C 511.547,494.256 512.547,495.756 514.5,496.5C 509.565,500.258 504.732,504.258 500,508.5C 502.771,499.692 506.604,491.359 511.5,483.5 Z"/></g>
<g><path style="opacity:1" fill="#ede5dd" d="M 562.5,360.5 C 563.167,360.5 563.5,360.833 563.5,361.5C 549.356,392.458 535.19,423.458 521,454.5C 510.43,475.978 499.096,496.978 487,517.5C 488.432,512.88 490.098,508.213 492,503.5C 515.001,455.499 538.501,407.832 562.5,360.5 Z"/></g>
<g><path style="opacity:1" fill="#b38b6e" d="M 563.5,361.5 C 563.5,360.833 563.167,360.5 562.5,360.5C 564.4,356.367 566.567,352.367 569,348.5C 567.855,353.094 566.022,357.428 563.5,361.5 Z"/></g>
<g><path style="opacity:1" fill="#d8c2b3" d="M 615.5,293.5 C 610.797,293.437 606.13,293.771 601.5,294.5C 604.017,293.027 606.85,292.36 610,292.5C 612.033,292.506 613.866,292.839 615.5,293.5 Z"/></g>
<g><path style="opacity:1" fill="#b18462" d="M 764.5,509.5 C 763.833,509.5 763.5,509.833 763.5,510.5C 761.989,507.995 760.655,505.328 759.5,502.5C 759.369,501.761 759.536,501.094 760,500.5C 761.787,503.363 763.287,506.363 764.5,509.5 Z"/></g>
<g><path style="opacity:1" fill="#a57350" d="M 786.5,545.5 C 787.972,549.919 788.638,554.586 788.5,559.5C 787.028,555.081 786.362,550.414 786.5,545.5 Z"/></g>
<g><path style="opacity:1" fill="none" d="M 764.5,509.5 C 779.139,548.43 782.639,588.43 775,629.5C 771.942,644.734 768.108,659.734 763.5,674.5C 762.603,675.598 761.77,675.598 761,674.5C 760.51,673.207 760.343,671.873 760.5,670.5C 764.88,651.356 768.213,632.022 770.5,612.5C 772.211,608.119 772.877,603.453 772.5,598.5C 775.171,568.533 772.171,539.2 763.5,510.5C 763.5,509.833 763.833,509.5 764.5,509.5 Z"/></g>
<g><path style="opacity:1" fill="#a17250" d="M 720.5,591.5 C 720.877,596.453 720.211,601.119 718.5,605.5C 718.69,600.63 719.356,595.964 720.5,591.5 Z"/></g>
<g><path style="opacity:1" fill="#d4bbab" d="M 1092.5,584.5 C 1093.17,592.326 1093.5,600.326 1093.5,608.5C 1093.72,619.382 1093.06,630.049 1091.5,640.5C 1092.37,621.848 1092.71,603.182 1092.5,584.5 Z"/></g>
<g><path style="opacity:1" fill="#caaf9d" d="M 772.5,598.5 C 772.877,603.453 772.211,608.119 770.5,612.5C 770.813,607.647 771.479,602.98 772.5,598.5 Z"/></g>
<g><path style="opacity:1" fill="none" d="M 767.5,697.5 C 775.909,672.192 782.576,646.525 787.5,620.5C 787.343,621.873 787.51,623.207 788,624.5C 788.333,622.167 788.667,619.833 789,617.5C 789.066,621.233 789.899,624.733 791.5,628C 788.528,633.412 787.028,639.245 787,645.5C 784.952,648.151 783.452,651.151 782.5,654.5C 781.252,657.506 781.252,660.506 782.5,663.5C 780.124,666.695 778.79,670.362 778.5,674.5C 775.478,676.576 774.478,679.243 775.5,682.5C 774.872,684.258 773.872,685.758 772.5,687C 772.5,688.667 772.5,690.333 772.5,692C 770.746,693.89 769.08,695.723 767.5,697.5 Z"/></g>
<g><path style="opacity:1" fill="#b08c71" d="M 713.5,637.5 C 713.59,640.152 712.924,642.485 711.5,644.5C 711.41,641.848 712.076,639.515 713.5,637.5 Z"/></g>
<g><path style="opacity:1" fill="#a47758" d="M 710.5,651.5 C 710.59,654.152 709.924,656.485 708.5,658.5C 708.41,655.848 709.076,653.515 710.5,651.5 Z"/></g>
<g><path style="opacity:1" fill="#884b1d" d="M 769.5,497.5 C 778.711,512.126 784.378,528.126 786.5,545.5C 786.362,550.414 787.028,555.081 788.5,559.5C 789.846,579.702 789.513,600.036 787.5,620.5C 782.576,646.525 775.909,672.192 767.5,697.5C 764.724,702.154 762.724,707.154 761.5,712.5C 760.313,714.072 759.313,715.739 758.5,717.5C 758.565,717.062 758.399,716.728 758,716.5C 757.131,719.763 755.797,720.096 754,717.5C 752.627,717.404 751.127,717.57 749.5,718C 751.65,715.296 753.816,715.129 756,717.5C 756.5,716.333 757.333,715.5 758.5,715C 757.667,714.167 756.833,713.333 756,712.5C 755.259,713.641 754.425,713.641 753.5,712.5C 752.319,710.865 752.319,709.198 753.5,707.5C 753.03,706.537 752.363,706.537 751.5,707.5C 755.647,696.597 759.647,685.597 763.5,674.5C 768.108,659.734 771.942,644.734 775,629.5C 782.639,588.43 779.139,548.43 764.5,509.5C 763.287,506.363 761.787,503.363 760,500.5C 759.536,501.094 759.369,501.761 759.5,502.5C 758.596,501.791 758.263,500.791 758.5,499.5C 760.492,499.672 762.158,499.005 763.5,497.5C 764.5,498.167 765.5,498.833 766.5,499.5C 767.192,498.975 767.692,498.308 768,497.5C 768.779,500.097 769.279,500.097 769.5,497.5 Z"/></g>
<g><path style="opacity:1" fill="#e8ddd3" d="M 760.5,670.5 C 760.343,671.873 760.51,673.207 761,674.5C 761.77,675.598 762.603,675.598 763.5,674.5C 759.647,685.597 755.647,696.597 751.5,707.5C 748.184,715.47 744.851,723.47 741.5,731.5C 740.662,731.158 740.328,730.492 740.5,729.5C 748.254,710.125 754.921,690.458 760.5,670.5 Z"/></g>
<g><path style="opacity:1" fill="#dccabd" d="M 155.5,674.5 C 156.972,678.919 157.638,683.586 157.5,688.5C 155.896,684.1 155.229,679.434 155.5,674.5 Z"/></g>
<g><path style="opacity:1" fill="#84461a" d="M 369.5,835.5 C 368.671,842.321 368.171,849.321 368,856.5C 366.641,857.365 365.474,858.365 364.5,859.5C 364.414,855.143 364.08,850.81 363.5,846.5C 363.666,842.486 363.499,838.486 363,834.5C 361.812,835.563 361.312,836.897 361.5,838.5C 360.536,845.746 360.203,853.08 360.5,860.5C 360.183,865.154 360.85,869.654 362.5,874C 361.201,876.951 359.535,879.618 357.5,882C 358.76,883.113 359.927,883.28 361,882.5C 362.516,885.838 364.683,888.672 367.5,891C 367.549,893.046 367.215,895.213 366.5,897.5C 364.309,898.894 362.975,900.394 362.5,902C 363.701,902.903 364.535,904.069 365,905.5C 365.308,904.692 365.808,904.025 366.5,903.5C 369.976,906.784 371.643,906.117 371.5,901.5C 374.049,901.387 376.382,902.054 378.5,903.5C 379.417,902.873 380.417,902.539 381.5,902.5C 386.282,911.034 392.282,918.701 399.5,925.5C 396.537,925.953 394.204,927.453 392.5,930C 393.464,931.725 394.131,933.559 394.5,935.5C 368.807,917.801 352.14,893.801 344.5,863.5C 342.885,853.531 341.552,843.531 340.5,833.5C 340.886,826.135 341.553,818.801 342.5,811.5C 353.037,760.608 381.37,723.108 427.5,699C 431.342,696.998 435.342,695.498 439.5,694.5C 439.649,695.552 439.483,696.552 439,697.5C 422.74,710.091 409.74,725.425 400,743.5C 389.447,762.603 381.113,782.603 375,803.5C 372.205,814.012 370.371,824.678 369.5,835.5 Z"/></g>
<g><path style="opacity:1" fill="#c0a185" d="M 740.5,729.5 C 740.328,730.492 740.662,731.158 741.5,731.5C 739.68,735.14 737.847,738.807 736,742.5C 735.346,743.696 734.846,743.696 734.5,742.5C 736.275,737.956 738.275,733.623 740.5,729.5 Z"/></g>
<g><path style="opacity:1" fill="none" d="M 761.5,712.5 C 763.322,715.387 762.822,717.721 760,719.5C 759.764,721.764 759.264,723.931 758.5,726C 758.957,726.414 759.291,726.914 759.5,727.5C 757.929,728.204 756.262,729.537 754.5,731.5C 754.709,732.086 755.043,732.586 755.5,733C 750.891,740.665 747.557,748.832 745.5,757.5C 742.466,757.609 741.466,758.943 742.5,761.5C 742.154,762.696 741.654,762.696 741,761.5C 739.667,764.167 738.333,766.833 737,769.5C 735.855,768.316 734.688,768.316 733.5,769.5C 742.891,752.716 751.225,735.383 758.5,717.5C 759.313,715.739 760.313,714.072 761.5,712.5 Z"/></g>
<g><path style="opacity:1" fill="#eee8e2" d="M 342.5,811.5 C 341.553,818.801 340.886,826.135 340.5,833.5C 341.552,843.531 342.885,853.531 344.5,863.5C 342.74,860.828 341.074,857.995 339.5,855C 340.943,852.922 340.276,852.089 337.5,852.5C 337.901,849.252 338.568,846.085 339.5,843C 338.833,842.667 338.167,842.333 337.5,842C 338.011,833.032 338.845,823.865 340,814.5C 340.333,815.167 340.667,815.833 341,816.5C 341.198,814.618 341.698,812.952 342.5,811.5 Z"/></g>
<g><path style="opacity:1" fill="#c19b7d" d="M 363.5,846.5 C 362.833,843.833 362.167,841.167 361.5,838.5C 361.312,836.897 361.812,835.563 363,834.5C 363.499,838.486 363.666,842.486 363.5,846.5 Z"/></g>
<g><path style="opacity:1" fill="#dcccbd" d="M 361.5,838.5 C 362.167,841.167 362.833,843.833 363.5,846.5C 364.08,850.81 364.414,855.143 364.5,859.5C 365.19,867.615 366.523,875.615 368.5,883.5C 368.5,884.167 368.167,884.5 367.5,884.5C 365.155,876.393 362.821,868.393 360.5,860.5C 360.203,853.08 360.536,845.746 361.5,838.5 Z"/></g>
<g><path style="opacity:1" fill="#8b5123" d="M 369.5,835.5 C 367.392,858.993 371.392,881.327 381.5,902.5C 380.417,902.539 379.417,902.873 378.5,903.5C 376.382,902.054 374.049,901.387 371.5,901.5C 371.643,906.117 369.976,906.784 366.5,903.5C 365.808,904.025 365.308,904.692 365,905.5C 364.535,904.069 363.701,902.903 362.5,902C 362.975,900.394 364.309,898.894 366.5,897.5C 367.215,895.213 367.549,893.046 367.5,891C 364.683,888.672 362.516,885.838 361,882.5C 359.927,883.28 358.76,883.113 357.5,882C 359.535,879.618 361.201,876.951 362.5,874C 360.85,869.654 360.183,865.154 360.5,860.5C 362.821,868.393 365.155,876.393 367.5,884.5C 368.32,886.14 369.153,887.807 370,889.5C 370.405,887.225 369.905,885.225 368.5,883.5C 366.523,875.615 365.19,867.615 364.5,859.5C 365.474,858.365 366.641,857.365 368,856.5C 368.171,849.321 368.671,842.321 369.5,835.5 Z"/></g>
<g><path style="opacity:1" fill="#c29d78" d="M 368.5,883.5 C 369.905,885.225 370.405,887.225 370,889.5C 369.153,887.807 368.32,886.14 367.5,884.5C 368.167,884.5 368.5,884.167 368.5,883.5 Z"/></g>
<g><path style="opacity:1" fill="#87491c" d="M 557.5,913.5 C 558.317,915.308 557.65,916.808 555.5,918C 558.745,918.688 562.079,920.021 565.5,922C 563.435,923.543 561.268,923.377 559,921.5C 557.482,923.614 557.149,925.947 558,928.5C 558.308,927.692 558.808,927.025 559.5,926.5C 560.167,927.833 560.833,929.167 561.5,930.5C 565.345,929.721 567.011,927.388 566.5,923.5C 568.58,924.044 570.58,924.878 572.5,926C 571.262,926.69 571.262,927.19 572.5,927.5C 554.837,936.39 536.503,943.724 517.5,949.5C 493.781,955.299 469.781,956.966 445.5,954.5C 437.316,953.621 429.316,951.788 421.5,949C 411.957,945.562 402.957,941.062 394.5,935.5C 394.131,933.559 393.464,931.725 392.5,930C 394.204,927.453 396.537,925.953 399.5,925.5C 423.964,944.336 451.631,951.003 482.5,945.5C 485.495,945.706 488.162,945.04 490.5,943.5C 514.677,937.577 537.01,927.577 557.5,913.5 Z"/></g>
<g><path style="opacity:1" fill="#b38a6a" d="M 490.5,943.5 C 488.162,945.04 485.495,945.706 482.5,945.5C 484.905,944.232 487.572,943.565 490.5,943.5 Z"/></g>
<g><path style="opacity:1" fill="none" d="M 517.5,949.5 C 518.927,951.9 518.427,952.567 516,951.5C 512.219,953.593 508.219,955.26 504,956.5C 502.237,956.025 500.57,955.358 499,954.5C 497.266,955.249 495.433,955.749 493.5,956C 494.167,956.667 494.833,957.333 495.5,958C 483.343,958.531 471.343,958.864 459.5,959C 460.696,959.654 460.696,960.154 459.5,960.5C 454.709,958.618 449.709,957.285 444.5,956.5C 444.863,955.817 445.196,955.15 445.5,954.5C 469.781,956.966 493.781,955.299 517.5,949.5 Z"/></g>
</svg>
