<?xml version="1.0" standalone="no"?>
<!DOCTYPE svg PUBLIC "-//W3C//DTD SVG 20010904//EN"
 "http://www.w3.org/TR/2001/REC-SVG-20010904/DTD/svg10.dtd">
<svg version="1.0" xmlns="http://www.w3.org/2000/svg"
 width="563.000000pt" height="440.000000pt" viewBox="0 0 563.000000 440.000000"
 preserveAspectRatio="xMidYMid meet">

<g transform="translate(0.000000,440.000000) scale(0.100000,-0.100000)"
fill="#B37A54" stroke="none">
<path d="M1791 4035 c-264 -48 -489 -228 -584 -466 -46 -115 -60 -193 -61
-334 0 -222 53 -388 182 -570 142 -200 363 -374 857 -675 121 -74 298 -187
394 -251 l174 -116 166 111 c91 61 204 135 251 163 47 28 139 84 205 124 604
366 861 622 957 955 20 70 23 101 23 259 -1 175 -2 183 -33 275 -86 260 -273
434 -547 512 -67 19 -104 23 -225 22 -149 0 -203 -9 -330 -55 -158 -58 -324
-185 -441 -337 l-25 -33 -62 75 c-105 128 -234 224 -381 284 -164 67 -351 87
-520 57z"/>
<path d="M595 2756 c-23 -23 -23 -26 -21 -202 1 -123 6 -186 15 -203 7 -13 30
-71 52 -129 22 -58 55 -134 75 -169 34 -61 132 -188 139 -181 9 9 -35 348 -51
398 -14 41 -18 90 -18 195 l-1 140 -38 67 c-34 62 -84 108 -116 108 -7 0 -23
-11 -36 -24z"/>
<path d="M4839 2763 c-33 -20 -84 -95 -105 -153 -12 -35 -14 -66 -10 -145 6
-85 3 -115 -18 -200 -13 -55 -29 -149 -35 -210 -6 -60 -14 -128 -17 -150 l-5
-40 46 49 c65 69 120 167 175 310 26 68 51 130 56 137 5 8 9 94 10 193 2 176
2 179 -21 202 -28 28 -41 29 -76 7z"/>
<path d="M1034 2652 c-19 -12 -43 -68 -49 -113 -11 -77 -45 -241 -73 -344 -23
-84 -27 -120 -27 -225 1 -111 3 -130 22 -160 33 -53 146 -151 159 -137 2 2 6
83 9 178 2 103 10 206 19 252 9 43 16 101 16 128 0 27 11 92 25 145 31 119 31
146 1 211 -30 63 -68 88 -102 65z"/>
<path d="M4417 2649 c-25 -15 -67 -106 -67 -145 0 -18 11 -75 25 -128 14 -53
25 -117 25 -142 0 -25 9 -99 20 -164 12 -65 20 -149 18 -187 -4 -115 2 -213
12 -213 17 0 114 85 143 126 26 36 29 51 34 150 5 93 2 121 -17 194 -12 47
-30 125 -41 174 -10 50 -21 95 -23 102 -3 7 -10 50 -16 95 -12 86 -19 106 -46
133 -18 18 -41 20 -67 5z"/>
<path d="M300 2493 c-25 -9 -40 -35 -40 -70 0 -100 261 -698 390 -893 73 -110
264 -305 538 -550 174 -154 221 -208 360 -410 29 -41 68 -111 87 -155 l34 -80
306 -3 305 -2 0 37 c0 21 14 124 31 228 40 246 43 372 11 475 -32 101 -82 195
-147 271 -29 35 -87 104 -129 154 -95 113 -134 179 -191 325 -73 183 -150 270
-249 278 -51 4 -57 2 -87 -27 -30 -30 -31 -35 -27 -94 5 -79 25 -118 118 -242
42 -55 86 -116 98 -136 53 -87 87 -249 75 -359 l-6 -61 -41 6 c-125 21 -328
144 -601 366 -207 168 -273 232 -353 340 -113 151 -139 196 -187 319 -24 60
-55 130 -69 154 -54 92 -160 153 -226 129z"/>
<path d="M5128 2489 c-44 -13 -108 -66 -139 -115 -12 -20 -45 -93 -73 -163
-39 -96 -72 -156 -140 -255 -95 -137 -122 -167 -281 -305 -214 -186 -418 -333
-568 -409 -89 -46 -173 -70 -189 -54 -16 16 -11 200 6 265 26 93 60 155 155
282 96 127 121 179 121 258 0 40 -5 53 -29 78 -23 23 -38 29 -71 29 -114 0
-184 -82 -290 -341 -41 -101 -106 -197 -239 -352 -222 -260 -260 -409 -197
-774 14 -83 29 -186 33 -227 l6 -76 304 0 304 0 11 33 c35 100 193 343 300
459 24 25 138 132 253 236 260 233 374 353 455 474 130 193 390 788 390 890 0
63 -45 88 -122 67z"/>
<path d="M1313 2288 c-29 -32 -170 -294 -187 -348 -8 -25 -17 -103 -19 -173
l-5 -129 30 -34 c50 -57 206 -168 171 -121 -32 41 -48 115 -46 207 3 123 29
221 91 346 55 108 68 155 58 209 -12 64 -55 84 -93 43z"/>
<path d="M4126 2295 c-20 -21 -30 -76 -21 -122 4 -20 31 -87 61 -147 100 -203
119 -384 55 -517 -11 -21 -17 -39 -14 -39 13 0 135 95 167 130 l36 40 -5 107
c-10 188 -9 186 -101 358 -104 195 -137 230 -178 190z"/>
</g>
</svg>
