<?xml version="1.0" encoding="UTF-8"?>
<svg version="1.1" xmlns="http://www.w3.org/2000/svg" width="1254" height="1254">
<path d="M0 0 C413.82 0 827.64 0 1254 0 C1254 413.82 1254 827.64 1254 1254 C840.18 1254 426.36 1254 0 1254 C0 840.18 0 426.36 0 0 Z " fill="none" transform="translate(0,0)"/>
<path d="M0 0 C2.35735251 1.98214688 4.69246407 3.98880609 7.02587891 5.99902344 C21.06221583 18.04200988 36.69617 27.73084077 53.24609375 35.9765625 C60.86683296 39.80068795 66.76468537 44.5345896 72.82128906 50.47021484 C75.13283056 52.7305291 77.47573473 54.95638952 79.82861328 57.17358398 C80.99177047 58.26970085 82.14980716 59.37130348 83.30029297 60.48071289 C86.37096292 63.38849772 89.52285103 66.13978106 92.84350586 68.75756836 C102.96229383 76.74233593 112.1561951 85.36365911 121.20581055 94.5378418 C123.51405134 96.87763142 125.83315484 99.20621745 128.15429688 101.53320312 C129.65427649 103.04234219 131.15364794 104.55208601 132.65234375 106.0625 C133.33160416 106.74601028 134.01086456 107.42952057 134.71070862 108.13374329 C138.60071812 112.08137853 142.32442405 116.12890483 145.93687439 120.33244324 C147.83610951 122.50866349 149.85710525 124.53225462 151.9296875 126.54296875 C154.66164413 129.19337444 157.22609804 131.92735643 159.71875 134.80078125 C163.46567233 139.11889303 167.3682578 143.27298648 171.3046875 147.41796875 C177.10319683 153.55127574 182.82004992 159.73621116 188.4296875 166.04296875 C189.97064826 167.75193886 191.51232638 169.46026238 193.0546875 171.16796875 C200.47069558 179.41365071 207.69613826 187.81857875 214.89648438 196.25244141 C216.33402027 197.93124527 217.77915071 199.603149 219.2265625 201.2734375 C254.4296875 242.08929756 254.4296875 242.08929756 254.4296875 256.04296875 C255.0896875 256.04296875 255.7496875 256.04296875 256.4296875 256.04296875 C256.42931047 254.9146784 256.42893345 253.78638805 256.428545 252.62390709 C256.42074428 225.18269206 256.44729652 197.74167463 256.5099659 170.30052757 C256.53947519 157.03022521 256.55778116 143.76008323 256.54980469 130.48974609 C256.54288151 118.92464428 256.5568852 107.3597906 256.59612358 95.79474986 C256.61617076 89.66986123 256.62566705 83.54536241 256.61011124 77.42045212 C256.59580302 71.65666495 256.60945291 65.89362342 256.64463997 60.1299324 C256.6526152 58.01356587 256.65033504 55.89713228 256.63707924 53.78079224 C256.62051287 50.8918233 256.6407488 48.00535996 256.67019653 45.11654663 C256.65661043 44.27801505 256.64302433 43.43948348 256.62902653 42.57554185 C256.71608528 38.18418632 257.21579363 35.74711863 260.31699944 32.52347755 C264.27899284 29.36615523 266.15652017 29.21832442 271.01953125 29.51171875 C274.97801131 30.38425244 276.7193606 32.0546596 279.4296875 35.04296875 C280.70167322 38.85892592 280.57436798 42.441892 280.57012939 46.41792297 C280.57458608 47.71542985 280.57458608 47.71542985 280.5791328 49.03914899 C280.58783239 51.94969301 280.5893292 54.86019595 280.59082031 57.77075195 C280.59544812 59.85369963 280.60047273 61.93664645 280.60586548 64.01959229 C280.61900751 69.69219818 280.62543962 75.36479223 280.62987614 81.03741097 C280.632808 84.58830375 280.63691335 88.1391933 280.64138031 91.69008446 C280.65506887 102.81841305 280.6647251 113.94673425 280.6685822 125.07507068 C280.67304637 137.88313199 280.69051184 150.69108571 280.7195828 163.49911433 C280.74130395 173.4170609 280.75129225 183.33497745 280.75262332 193.25294751 C280.75366524 199.1658337 280.75943936 205.07861893 280.77744293 210.99147987 C280.7941014 216.57209596 280.79599426 222.15253724 280.78730392 227.73316956 C280.78654257 229.76382101 280.79075457 231.79448254 280.80076218 233.82510948 C280.89180502 253.47809849 279.26146765 272.49632092 272.4296875 291.04296875 C272.17703125 291.75372559 271.924375 292.46448242 271.6640625 293.19677734 C264.38199018 313.60175083 254.34151905 331.91553826 239.5078125 347.8125 C237.59941859 349.86079497 235.79344024 351.96332472 233.9921875 354.10546875 C216.97445147 373.43854302 193.4694482 386.60228064 169.4296875 395.04296875 C168.3300769 395.43186279 168.3300769 395.43186279 167.20825195 395.82861328 C162.02926833 397.612691 156.84172093 398.99994835 151.4921875 400.16796875 C150.75806641 400.33683594 150.02394531 400.50570313 149.26757812 400.6796875 C137.44559658 403.29763285 125.61636159 403.19201225 113.57012939 403.19013977 C111.64264596 403.19344287 109.71516322 403.19716937 107.78768134 403.20128125 C102.50540918 403.21125856 97.22314838 403.21501113 91.94086814 403.21767056 C86.23777014 403.22158631 80.53468104 403.23116369 74.83158875 403.23988342 C61.06615812 403.25961143 47.30072681 403.26970913 33.53528559 403.27861121 C27.0449237 403.28299989 20.55456261 403.28836517 14.06420135 403.29360008 C-7.52445709 403.31060826 -29.1131144 403.32512595 -50.70177841 403.33234882 C-52.09665124 403.33282357 -53.49152407 403.33329946 -54.8863969 403.33377649 C-55.57808565 403.33401286 -56.2697744 403.33424924 -56.98242342 403.33449278 C-60.48649192 403.3356939 -63.99056041 403.33690937 -67.49462891 403.33813477 C-68.19000457 403.33837492 -68.88538023 403.33861507 -69.60182788 403.33886249 C-92.12859612 403.34674885 -114.65531159 403.37016891 -137.18205681 403.40269071 C-161.03157846 403.43705895 -184.8810657 403.45670532 -208.73061299 403.45999306 C-221.71811426 403.46215378 -234.70553795 403.47083819 -247.69301605 403.49645424 C-258.75605193 403.5182249 -269.81899138 403.52618039 -280.88204625 403.51648746 C-286.51920839 403.51196128 -292.15617183 403.51373057 -297.79330635 403.5332489 C-302.96918715 403.55101419 -308.14472628 403.54977579 -313.32061139 403.53435161 C-315.17803095 403.53199566 -317.03547503 403.53619244 -318.8928574 403.54818026 C-336.00518833 403.65164945 -353.24513149 401.57640051 -369.4453125 395.79296875 C-370.29988037 395.49777344 -371.15444824 395.20257812 -372.03491211 394.8984375 C-380.24562653 391.96981406 -387.95073577 388.25624641 -395.5703125 384.04296875 C-396.64796875 383.45515625 -397.725625 382.86734375 -398.8359375 382.26171875 C-408.85472837 376.61009313 -417.80725548 369.99128335 -426.2421875 362.1796875 C-428.28130823 360.3082126 -430.37197004 358.55113175 -432.5078125 356.79296875 C-460.24360037 332.39214535 -477.05695724 293.23453655 -480.5703125 257.04296875 C-480.70973907 253.93627029 -480.72235498 250.83407563 -480.72421265 247.7245636 C-480.73078603 246.36590464 -480.73078603 246.36590464 -480.7374922 244.97979802 C-480.75078569 241.96219709 -480.7570374 238.94462528 -480.76318359 235.92700195 C-480.7710914 233.756621 -480.77936077 231.58624134 -480.78796387 229.41586304 C-480.81408377 222.30850463 -480.82947154 215.20114059 -480.84375 208.09375 C-480.84911194 205.64463993 -480.85448945 203.1955299 -480.85988235 200.74641991 C-480.88148746 190.56445608 -480.90022735 180.38249379 -480.91150475 170.20051289 C-480.92777166 155.61175493 -480.96104309 141.02326203 -481.01790559 126.43460399 C-481.05654857 116.17117979 -481.07613016 105.9078267 -481.08142531 95.64433163 C-481.08508361 89.51456569 -481.09715808 83.38508314 -481.12952805 77.25539589 C-481.15951268 71.49575861 -481.16595476 65.73657772 -481.15414429 59.97687912 C-481.15392282 57.86166753 -481.16228825 55.74643529 -481.17979813 53.63129616 C-481.20237893 50.74711699 -481.19424663 47.86460894 -481.17831421 44.98042297 C-481.1921963 44.14054457 -481.20607838 43.30066616 -481.22038114 42.43533689 C-481.16083551 38.07104335 -480.98154701 36.54068474 -478.09481239 33.04687786 C-476.84518495 32.05494285 -476.84518495 32.05494285 -475.5703125 31.04296875 C-475.0753125 30.54796875 -475.0753125 30.54796875 -474.5703125 30.04296875 C-470.26837427 29.58077704 -466.60866863 29.57902239 -462.6328125 31.35546875 C-460.5703125 33.04296875 -460.5703125 33.04296875 -458.5703125 36.04296875 C-458.37732552 38.83802711 -458.30253646 41.53322812 -458.3187561 44.32853699 C-458.31578596 45.18396334 -458.31281583 46.03938968 -458.30975568 46.92073804 C-458.30209263 49.79903265 -458.30861958 52.67712455 -458.31494141 55.55541992 C-458.31219222 57.61541889 -458.30851276 59.6754168 -458.30397034 61.7354126 C-458.29584326 66.18139768 -458.29369388 70.62733241 -458.29591751 75.0733242 C-458.29875123 82.12463351 -458.28439133 89.17584261 -458.26693726 96.22712708 C-458.21993178 116.28266865 -458.19600923 136.33820465 -458.18945312 156.39379883 C-458.18568168 167.46353151 -458.16747667 178.53315186 -458.13435876 189.60283643 C-458.11430919 196.5884682 -458.1116948 203.57380686 -458.12263894 210.55945528 C-458.12527846 214.9462917 -458.11108424 219.33296385 -458.09255791 223.71975708 C-458.08731173 225.72698168 -458.08859947 227.73423805 -458.09759331 229.74144936 C-458.17453492 248.45096496 -456.62370745 267.88242617 -449.4453125 285.35546875 C-449.05988281 286.33418945 -448.67445313 287.31291016 -448.27734375 288.32128906 C-433.1029418 325.8791537 -406.01821271 354.01146234 -368.82910156 370.09716797 C-349.40614171 378.22995509 -330.62590387 379.48632023 -309.82885742 379.39941406 C-307.35939145 379.40017531 -304.88992559 379.40224533 -302.42046165 379.40550613 C-296.40568076 379.41002797 -290.391066 379.40069378 -284.37631562 379.38513328 C-277.23431163 379.36740791 -270.09233341 379.36704673 -262.95031121 379.36713564 C-248.3450043 379.36667061 -233.73977097 379.34598974 -219.13449305 379.31857395 C-207.96448185 379.29771876 -196.79447545 379.28249198 -185.62445068 379.27111816 C-182.42618814 379.26780974 -179.22792561 379.26448527 -176.02966309 379.26115799 C-175.23735038 379.26033577 -174.44503767 379.25951355 -173.62871549 379.25866641 C-142.54090743 379.22611525 -111.45317882 379.16958085 -80.36543274 379.10036087 C-77.31143193 379.09357718 -74.25743108 379.08681642 -71.20343018 379.08007812 C-70.45681899 379.07842922 -69.7102078 379.07678031 -68.94097203 379.07508144 C-54.60018006 379.04359406 -40.25938521 379.02138719 -25.91857278 379.00132513 C-3.35643239 378.96966149 19.20555955 378.92022087 41.76758868 378.84198546 C42.77324529 378.83849916 43.7789019 378.83501285 44.81503296 378.8314209 C46.31092521 378.8262056 46.31092521 378.8262056 47.8370375 378.82088494 C54.78479716 378.79749283 61.73253812 378.78336258 68.68032837 378.77307129 C77.02049478 378.76046693 85.36047187 378.733912 93.7005282 378.68875694 C97.85279496 378.66654916 102.00483571 378.64998526 106.15716743 378.65101624 C122.27066826 378.65072735 137.81024412 378.50703463 153.4296875 374.04296875 C155.08513077 373.57694244 155.08513077 373.57694244 156.77401733 373.10150146 C178.32623379 366.69069161 196.96857067 355.12562499 213.4296875 340.04296875 C214.10257813 339.45257812 214.77546875 338.8621875 215.46875 338.25390625 C226.83295619 327.75144081 237.34923723 312.21728465 238.63549805 296.53344727 C238.73360553 293.78315914 238.75808389 291.04494196 238.7421875 288.29296875 C238.73699097 286.8380603 238.73699097 286.8380603 238.73168945 285.35375977 C238.58956321 275.97421327 237.40004801 268.09838062 232.4296875 260.04296875 C232.0171875 259.01171875 231.6046875 257.98046875 231.1796875 256.91796875 C224.47446327 240.9018632 210.78410488 225.87024812 197.4296875 215.04296875 C196.5428125 214.30691406 195.6559375 213.57085938 194.7421875 212.8125 C175.56056512 197.42316266 152.62675758 185.13578117 129.4296875 177.04296875 C128.11593271 176.54627507 126.80329489 176.04660917 125.4921875 175.54296875 C124.86570312 175.31222656 124.23921875 175.08148437 123.59375 174.84375 C121.93722147 174.23077464 120.28734631 173.59979156 118.640625 172.9609375 C111.25098922 170.18321045 103.81398436 167.97459153 96.1796875 165.98046875 C95.28886475 165.74739014 94.39804199 165.51431152 93.48022461 165.27416992 C63.66263169 157.65256159 34.10856502 153.60213561 3.3046875 153.35546875 C2.30773865 153.33834839 1.31078979 153.32122803 0.28363037 153.30358887 C-13.27163809 153.10710731 -24.61152516 154.95826177 -37.41833496 159.34158325 C-42.30422367 160.93402157 -47.3458326 161.87691437 -52.3828125 162.85546875 C-53.87651367 163.16000977 -53.87651367 163.16000977 -55.40039062 163.47070312 C-81.15422372 168.65569411 -81.15422372 168.65569411 -89.91796875 163.5234375 C-93.1239564 160.6509332 -94.82777559 156.91693493 -96.5703125 153.04296875 C-96.9003125 152.38296875 -97.2303125 151.72296875 -97.5703125 151.04296875 C-97.63981791 149.50272879 -97.65483607 147.95961887 -97.6328125 146.41796875 C-97.62378906 145.60070312 -97.61476563 144.7834375 -97.60546875 143.94140625 C-97.58806641 143.00167969 -97.58806641 143.00167969 -97.5703125 142.04296875 C-98.6221875 142.37296875 -99.6740625 142.70296875 -100.7578125 143.04296875 C-103.95904607 143.88263657 -106.3114133 144.24047779 -109.5703125 144.04296875 C-109.5703125 144.70296875 -109.5703125 145.36296875 -109.5703125 146.04296875 C-112.11314484 146.15168842 -114.65126338 146.23059276 -117.1953125 146.29296875 C-118.26458984 146.34324219 -118.26458984 146.34324219 -119.35546875 146.39453125 C-124.58697338 146.49052216 -127.39461847 145.44767053 -131.5703125 142.04296875 C-137.28359245 136.19682182 -139.56858968 130.05675131 -140.5703125 122.04296875 C-141.60478516 122.25953125 -141.60478516 122.25953125 -142.66015625 122.48046875 C-159.81825343 125.86972251 -159.81825343 125.86972251 -167.5703125 121.04296875 C-172.11328399 116.08979667 -174.00321825 111.70345276 -174.29296875 105.05078125 C-174.71667978 101.98335207 -176.53619687 100.27393428 -178.5703125 98.04296875 C-178.5703125 97.05296875 -178.5703125 96.06296875 -178.5703125 95.04296875 C-179.2303125 95.04296875 -179.8903125 95.04296875 -180.5703125 95.04296875 C-180.99766128 88.84641137 -180.71783872 86.02513647 -176.5703125 81.04296875 C-173.83093931 79.12781296 -170.93906238 77.64475141 -167.9453125 76.16796875 C-166.78128906 75.5646875 -166.78128906 75.5646875 -165.59375 74.94921875 C-159.89987245 72.04296875 -159.89987245 72.04296875 -157.5703125 72.04296875 C-157.64048946 68.64257584 -157.81351901 65.36534586 -158.5703125 62.04296875 C-160.9253088 59.96079999 -160.9253088 59.96079999 -163.5703125 59.04296875 C-165.20871976 55.76615424 -165.36661051 52.55832682 -164.5703125 49.04296875 C-160.67848124 44.28143364 -155.22931913 41.59645817 -149.6796875 39.23828125 C-148.94175964 38.91310013 -148.20383179 38.58791901 -147.44354248 38.25288391 C-145.07421691 37.21245055 -142.69773612 36.18974449 -140.3203125 35.16796875 C-138.67865794 34.45277252 -137.03738304 33.7367042 -135.39648438 33.01977539 C-131.46675307 31.30646719 -127.5309265 29.60776562 -123.5925293 27.91448975 C-120.95054734 26.77586665 -118.31515095 25.62236686 -115.6796875 24.46875 C-107.927852 21.10351459 -100.08327777 18.03278046 -92.1328125 15.16796875 C-91.35164063 14.88107178 -90.57046875 14.5941748 -89.765625 14.29858398 C-78.40305801 10.32384117 -67.08545063 9.66987219 -55.16308594 9.67236328 C-52.83713898 9.66800031 -50.51311239 9.63157682 -48.1875 9.59375 C-34.39706367 9.48762339 -21.48206915 11.59039331 -9.3203125 18.48046875 C-8.61519531 18.84978516 -7.91007812 19.21910156 -7.18359375 19.59960938 C-3.03690479 21.86108341 -0.29045248 24.06791883 2.4296875 28.04296875 C-4.67573434 28.41693832 -11.1063071 27.28289514 -18.01953125 25.796875 C-23.84491496 24.56002235 -29.36354332 23.88459733 -35.3203125 23.875 C-36.05548096 23.8716716 -36.79064941 23.8683432 -37.5480957 23.86491394 C-39.10123067 23.85987089 -40.65437638 23.8575048 -42.20751953 23.85766602 C-44.5356739 23.85550096 -46.86333686 23.83737713 -49.19140625 23.81835938 C-61.43650101 23.7704728 -73.56822668 24.41487324 -85.1953125 28.60546875 C-86.37480469 29.02046631 -86.37480469 29.02046631 -87.578125 29.44384766 C-98.83776629 33.62274761 -109.62841716 39.04225436 -120.43212891 44.26391602 C-121.2023941 44.63534225 -121.9726593 45.00676849 -122.76626587 45.38945007 C-124.22576404 46.09473874 -125.68352641 46.80363446 -127.13925171 47.51667786 C-130.26145402 49.02830994 -133.18943546 50.28093035 -136.5703125 51.04296875 C-136.0959375 51.76484375 -135.6215625 52.48671875 -135.1328125 53.23046875 C-133.61684367 55.95921264 -133.09603475 58.00602954 -132.5703125 61.04296875 C-131.63058594 60.65367187 -130.69085937 60.264375 -129.72265625 59.86328125 C-109.82101608 51.79498233 -88.6651343 44.27573561 -67.5703125 40.04296875 C-66.73242188 39.86926758 -65.89453125 39.69556641 -65.03125 39.51660156 C-57.31845851 38.054277 -49.79908872 37.73224353 -41.95751953 37.78222656 C-39.91279719 37.79314233 -37.8689179 37.78216185 -35.82421875 37.76953125 C-34.53128906 37.77210938 -33.23835938 37.7746875 -31.90625 37.77734375 C-30.15127197 37.78072754 -30.15127197 37.78072754 -28.36083984 37.78417969 C-25.5703125 38.04296875 -25.5703125 38.04296875 -23.5703125 40.04296875 C-23.7578125 42.54296875 -23.7578125 42.54296875 -24.5703125 45.04296875 C-27.70758085 47.13448098 -28.98607927 47.39238204 -32.62890625 47.75390625 C-33.6444458 47.86186523 -34.65998535 47.96982422 -35.70629883 48.08105469 C-36.79579834 48.19223633 -37.88529785 48.30341797 -39.0078125 48.41796875 C-77.94497116 52.80666979 -112.17073387 68.38510535 -147.1328125 85.35546875 C-147.90118439 85.72758484 -148.66955627 86.09970093 -149.46121216 86.48309326 C-151.62682134 87.53493308 -153.78882074 88.59375418 -155.94921875 89.65625 C-156.59334717 89.97017197 -157.23747559 90.28409393 -157.90112305 90.60752869 C-160.49122059 91.89321006 -162.51014048 92.98279673 -164.5703125 95.04296875 C-164.88393799 99.27691293 -164.97282808 102.46960697 -162.5703125 106.04296875 C-158.01925861 107.92616346 -153.46026694 107.28103831 -149.0078125 105.48046875 C-148.20923828 105.11332764 -147.41066406 104.74618652 -146.58789062 104.36791992 C-143.26523129 102.9090144 -139.88726249 101.65358884 -136.48046875 100.41015625 C-127.62080405 97.13015542 -118.92030861 93.49612954 -110.21151733 89.8380127 C-45.88893687 62.86544184 -45.88893687 62.86544184 -18.5703125 64.04296875 C-16.1328125 65.54296875 -16.1328125 65.54296875 -14.5703125 67.04296875 C-14.9003125 68.69296875 -15.2303125 70.34296875 -15.5703125 72.04296875 C-23.99429993 74.77350261 -32.42239103 77.30526037 -41.0078125 79.48046875 C-55.51281891 83.21057919 -69.18110074 88.31301648 -82.5703125 95.04296875 C-83.50472168 95.51154297 -84.43913086 95.98011719 -85.40185547 96.46289062 C-96.12156658 101.8691482 -106.80195177 107.33152686 -117.0078125 113.66796875 C-117.9822229 114.26992065 -117.9822229 114.26992065 -118.97631836 114.8840332 C-121.90574026 116.75530655 -123.61247087 118.1062063 -125.5703125 121.04296875 C-125.91417692 124.27529433 -125.83530005 126.41362331 -124.5703125 129.41796875 C-122.03523291 131.47772092 -120.0754846 131.53891795 -116.8671875 131.36328125 C-109.58272637 130.34742102 -103.13208424 127.4696056 -96.53515625 124.3515625 C-93.36442616 122.95209665 -90.16656364 121.8374768 -86.8828125 120.73046875 C-79.35196239 118.11283774 -72.42256769 114.58551133 -65.34375 110.94482422 C-61.15705215 108.81574081 -56.8674424 106.93537876 -52.5703125 105.04296875 C-50.99998263 104.32165239 -49.429672 103.60029416 -47.859375 102.87890625 C-33.32118686 96.29940258 -19.69178923 91.80097496 -3.6328125 91.60546875 C-2.86880127 91.59507568 -2.10479004 91.58468262 -1.31762695 91.57397461 C1.67878884 91.62331933 3.91344991 91.7238578 6.49609375 93.3203125 C7.4296875 95.04296875 7.4296875 95.04296875 7.22607422 97.02661133 C6.4296875 99.04296875 6.4296875 99.04296875 4.78735352 100.15917969 C4.07248779 100.44567383 3.35762207 100.73216797 2.62109375 101.02734375 C1.80527832 101.35798828 0.98946289 101.68863281 0.14892578 102.02929688 C-4.75376705 103.8569123 -9.68800071 105.58320774 -14.6328125 107.29296875 C-23.434498 110.39022829 -31.75695928 113.80061307 -39.97265625 118.21875 C-42.71323927 119.67061113 -45.49773938 120.84128853 -48.38671875 121.96875 C-56.2841439 125.05852699 -63.77158032 128.98399075 -71.29931641 132.87255859 C-73.2089994 133.85675772 -75.12878044 134.82132816 -77.05078125 135.78125 C-82.26100189 138.54333176 -82.26100189 138.54333176 -84.9453125 143.66796875 C-84.80572917 147.02421875 -84.80572917 147.02421875 -83.1328125 149.48046875 C-79.11381944 151.93107427 -74.8589597 151.48491267 -70.36157227 150.61645508 C-68.07904912 150.04113623 -65.82626112 149.40224867 -63.5703125 148.73046875 C-62.81492187 148.51712891 -62.05953125 148.30378906 -61.28125 148.08398438 C-56.27654189 146.64362594 -51.42422318 144.92405763 -46.5703125 143.04296875 C-42.9124834 141.6841989 -39.24424504 140.35754007 -35.5703125 139.04296875 C-34.57386719 138.676875 -33.57742188 138.31078125 -32.55078125 137.93359375 C-31.54660156 137.5778125 -30.54242187 137.22203125 -29.5078125 136.85546875 C-28.60933594 136.53191406 -27.71085937 136.20835937 -26.78515625 135.875 C13.98749184 125.32266216 64.19144299 135.88281434 103.80615234 147.296875 C106.21039788 147.9806061 108.61958912 148.61860684 111.04296875 149.23046875 C111.72520508 149.40360596 112.40744141 149.57674316 113.11035156 149.75512695 C113.73135742 149.91198975 114.35236328 150.06885254 114.9921875 150.23046875 C120.69531712 151.67583119 125.99522177 153.82407849 131.4296875 156.04296875 C133.01321279 156.66559125 134.59782902 157.28544721 136.18359375 157.90234375 C147.1488908 162.20193002 157.84104837 166.88580772 168.4296875 172.04296875 C164.13596856 166.95778088 159.6921981 162.06286391 155.1171875 157.23046875 C150.23665503 152.05101924 145.40778777 146.83673221 140.6640625 141.53125 C133.52049527 133.57591377 126.25018444 125.79869601 118.640625 118.28515625 C116.74723733 116.36500691 114.98192095 114.41312303 113.2421875 112.35546875 C104.93127677 102.71793377 95.86252294 93.85759804 85.71411133 86.18310547 C76.97179561 79.51253966 68.92819892 71.82708813 61.4296875 63.79296875 C53.40263659 55.67923262 42.88839255 50.1502959 32.84985352 44.93481445 C19.44863576 37.92400034 8.31097033 28.46100556 -2.7578125 18.29296875 C-19.72022659 2.9720786 -36.74753631 -0.97317473 -59.15917969 -0.11816406 C-65.09779861 0.27870597 -70.80703337 1.590596 -76.5703125 3.04296875 C-78.24287109 3.43742188 -78.24287109 3.43742188 -79.94921875 3.83984375 C-83.97169479 4.80721222 -87.87870148 5.78530974 -91.7578125 7.23046875 C-95.70741544 8.37146516 -99.48817239 8.20625435 -103.5703125 8.04296875 C-104.3203125 5.79296875 -104.3203125 5.79296875 -104.5703125 3.04296875 C-101.31208615 -1.32199209 -96.70931603 -2.91384307 -91.8203125 -4.89453125 C-90.55864258 -5.41394287 -90.55864258 -5.41394287 -89.27148438 -5.94384766 C-58.75216445 -18.28841809 -27.19870659 -21.92351261 0 0 Z " fill="#955E41" transform="translate(719.5703125,598.95703125)"/>
<path d="M0 0 C1.93784255 -0.00274925 3.8756836 -0.00680867 5.81352103 -0.01204365 C11.07311216 -0.02251224 16.33253041 -0.01457946 21.59211373 -0.00329316 C27.28943332 0.0056223 32.98673205 -0.00291556 38.68405151 -0.00915527 C49.81758917 -0.01860175 60.95106163 -0.01208057 72.08459441 0.00010767 C85.06503959 0.0137844 98.04546955 0.0120849 111.02592011 0.00997434 C134.88927567 0.00669469 158.75259565 0.01956282 182.61594126 0.03981938 C204.37040382 0.05819898 226.12483349 0.06399746 247.87930298 0.05854797 C249.27719761 0.05820154 250.67509225 0.05785544 252.07298689 0.05750968 C252.76410328 0.05733869 253.45521967 0.05716769 254.16727898 0.05699152 C257.64675885 0.05613788 261.12623873 0.05531411 264.60571861 0.05452251 C265.29227027 0.05436543 265.97882194 0.05420835 266.6861782 0.05404651 C284.90539699 0.05005197 303.12461178 0.05558329 321.3438288 0.06403381 C323.9565103 0.06524103 326.56919181 0.06644701 329.18187332 0.06765175 C330.4671715 0.06825529 331.75246968 0.06885883 333.0767163 0.06948065 C342.11538934 0.07335288 351.15405648 0.07296893 360.19272995 0.0710659 C371.20957376 0.06894011 382.22638603 0.07419753 393.24322097 0.08867946 C398.85927817 0.09590366 404.4752895 0.10001729 410.09135056 0.0954361 C415.23921034 0.09133904 420.38697571 0.09658346 425.53482123 0.10906217 C427.38976221 0.11197313 429.24471219 0.11158222 431.09965079 0.1074191 C472.17435827 0.02365326 510.11717847 13.89006021 540.8085022 41.3742218 C541.67990845 42.11285461 542.5513147 42.85148743 543.4491272 43.61250305 C550.36792964 49.56310829 556.17481991 56.22652566 561.8085022 63.3742218 C562.23663208 63.91675598 562.66476196 64.45929016 563.10586548 65.01826477 C578.57312784 84.92514919 590.40401553 110.1271118 592.8085022 135.3742218 C593.1385022 136.0342218 593.4685022 136.6942218 593.8085022 137.3742218 C595.25625071 147.48295172 594.97022845 157.80435616 594.98550415 167.99092102 C594.99178154 169.84500248 594.99842944 171.69908271 595.00541687 173.55316162 C595.02628112 179.59506889 595.03679204 185.63697595 595.04678345 191.6789093 C595.05083547 193.76644529 595.05495252 195.85398115 595.05913353 197.94151688 C595.0781342 207.73814298 595.09238448 217.53476172 595.1007455 227.33140266 C595.11054542 238.62443147 595.1369579 249.91726574 595.17724639 261.21022594 C595.20737885 269.95698776 595.22221102 278.7036936 595.22552651 287.45050633 C595.22787712 292.66862427 595.23684191 297.88653307 595.26198769 303.10459518 C595.28522785 308.00490689 595.28951804 312.90487098 595.2792263 317.80522346 C595.27873011 319.6023391 595.28507517 321.39947168 595.29878235 323.19653511 C595.31645629 325.65086579 595.30941855 328.10394204 595.29624939 330.55827332 C595.31270326 331.62286343 595.31270326 331.62286343 595.32948953 332.70896041 C595.26490711 337.69820604 593.91606186 340.51988075 590.8085022 344.3742218 C586.85719652 347.07362865 582.43293756 347.21502823 577.8085022 346.3742218 C574.8085022 343.9367218 574.8085022 343.9367218 572.8085022 341.3742218 C572.4785022 341.0442218 572.1485022 340.7142218 571.8085022 340.3742218 C571.70508848 337.97578575 571.6669092 335.60581065 571.67047119 333.20664978 C571.66764991 332.44740971 571.66482863 331.68816964 571.66192186 330.90592229 C571.65353653 328.34147165 571.65223417 325.77706397 571.65078735 323.21260071 C571.64612143 321.38123451 571.64097823 319.54986948 571.63539124 317.71850586 C571.62408356 313.76140577 571.61566175 309.80431333 571.609272 305.8472023 C571.59859727 299.57455389 571.57834815 293.30195956 571.55615234 287.02934265 C571.49422878 269.18697116 571.44039209 251.34460106 571.40713501 233.50215149 C571.38870451 223.65753663 571.35965309 213.81301074 571.3191303 203.96846139 C571.29817951 198.76380418 571.28262032 193.55925861 571.28032303 188.35455704 C571.27815227 183.44121973 571.26203977 178.52811374 571.2359333 173.61484718 C571.22882681 171.82645131 571.2265964 170.03802713 571.23003578 168.24962044 C571.26448788 146.89902906 568.55598212 125.10336046 558.2381897 106.0851593 C556.8085022 103.3742218 556.8085022 103.3742218 555.4100647 100.01875305 C553.65305175 96.02047724 551.61146114 92.38897567 549.3085022 88.6867218 C548.87779419 87.99409241 548.44708618 87.30146301 548.00332642 86.58784485 C544.28900262 80.79347304 540.03778419 75.85542059 535.2538147 70.92500305 C532.8085022 68.3742218 532.8085022 68.3742218 530.80459595 65.8117218 C517.59741941 49.6839759 496.75416686 39.84533561 477.8085022 32.3742218 C476.73213501 31.94754211 475.65576782 31.52086243 474.54678345 31.08125305 C459.47184853 25.59372444 443.76830797 24.92954657 427.91098022 24.97981262 C425.96833994 24.97491143 424.02570256 24.968716 422.08307004 24.96135473 C416.7960259 24.94508803 411.50913217 24.94724582 406.22207189 24.9527297 C400.50001439 24.95541639 394.77799552 24.9408376 389.05595398 24.92863464 C377.86552515 24.90764783 366.67514821 24.90303589 355.48470202 24.90482253 C346.38300634 24.90613348 337.28132675 24.90230908 328.17963409 24.89489746 C325.55146766 24.89279812 322.92330122 24.89070052 320.29513478 24.88860464 C318.98676417 24.88756111 317.67839355 24.88651759 316.33037534 24.88544244 C298.63281038 24.871923 280.93525232 24.86430972 263.23768234 24.86876678 C262.54679825 24.86893874 261.85591416 24.86911069 261.14409419 24.86928786 C257.64308953 24.87017664 254.14208488 24.87112145 250.64108023 24.87208587 C249.94587411 24.8722769 249.25066798 24.87246794 248.53439501 24.87266476 C247.1285224 24.87305185 245.7226498 24.87344218 244.3167772 24.87383574 C222.44857848 24.87980377 200.58048564 24.86436887 178.71231079 24.83222961 C154.09516176 24.79608019 129.4780824 24.77687343 104.86090493 24.78176832 C91.84445073 24.78400749 78.82810149 24.77885074 65.8116684 24.75387573 C54.73050146 24.73279368 43.64949706 24.72933904 32.56832328 24.74817532 C26.92297103 24.7572903 21.27792127 24.75860686 15.63259315 24.73781967 C10.44955347 24.71894695 5.26706059 24.7237934 0.08404067 24.74636549 C-1.77582822 24.75051045 -3.63574041 24.74649231 -5.4955633 24.73276955 C-41.42229193 24.48605572 -74.40338336 38.62427621 -100.1914978 63.3742218 C-101.08481812 64.20437805 -101.97813843 65.0345343 -102.89852905 65.8898468 C-128.23255186 90.12547142 -142.23797456 124.9305071 -143.37875175 159.74876976 C-143.47668288 164.49970243 -143.47050918 169.25019019 -143.46273804 174.00190735 C-143.46713735 175.80894197 -143.47244382 177.61597458 -143.47857666 179.42300415 C-143.48997572 183.27839072 -143.49552849 187.13372308 -143.49645805 190.98912621 C-143.49841496 197.08692707 -143.51655109 203.18461683 -143.53721619 209.28237915 C-143.5861613 224.4109237 -143.61734793 239.53949775 -143.63851929 254.66810608 C-143.65503959 266.46293853 -143.67779967 278.25767374 -143.72154003 290.05244094 C-143.74330897 296.1142043 -143.75137531 302.1757828 -143.7491473 308.23758256 C-143.7508121 311.99961401 -143.7648463 315.76152399 -143.78236008 319.52351189 C-143.78796465 321.26781584 -143.78844016 323.01214491 -143.78342247 324.75645065 C-143.7772932 327.13633353 -143.78948936 329.51544775 -143.80622864 331.89526367 C-143.80001682 332.58572004 -143.79380501 333.2761764 -143.78740495 333.98755568 C-143.84241781 338.2760675 -144.60249814 340.9452454 -147.1914978 344.3742218 C-151.17064835 347.0514008 -155.55557892 347.21711614 -160.1914978 346.3742218 C-163.1914978 343.9367218 -163.1914978 343.9367218 -165.1914978 341.3742218 C-165.5214978 341.0442218 -165.8514978 340.7142218 -166.1914978 340.3742218 C-166.29589815 337.86230002 -166.33482515 335.3776346 -166.3319397 332.86497498 C-166.33491082 332.06898293 -166.33788194 331.27299089 -166.3409431 330.45287788 C-166.34966987 327.76405112 -166.35114178 325.07526867 -166.35263062 322.38642883 C-166.35725656 320.46639408 -166.36228091 318.54636026 -166.36767578 316.62632751 C-166.38083696 311.38974116 -166.38725377 306.15316765 -166.39168644 300.91656733 C-166.3946156 297.6400895 -166.39872046 294.36361519 -166.40319061 291.08713913 C-166.41688501 280.82325224 -166.42653802 270.55937338 -166.4303925 260.29547799 C-166.43485631 248.47444151 -166.45231755 236.65352165 -166.4813931 224.8325206 C-166.50310467 215.68493071 -166.51310207 206.53737335 -166.51443362 197.38975799 C-166.51547634 191.93356657 -166.5212677 186.47748446 -166.53925323 181.02132034 C-166.55589463 175.87164297 -166.55781258 170.72215508 -166.54911423 165.57246017 C-166.54835194 163.69696795 -166.55257769 161.82146489 -166.56257248 159.94599915 C-166.64254324 143.98360644 -165.4718332 128.02727404 -160.0664978 112.8742218 C-159.7679187 112.01240295 -159.4693396 111.15058411 -159.16171265 110.26264954 C-153.96147451 95.69799281 -147.18610859 81.96369979 -138.1914978 69.3742218 C-137.60924438 68.55075256 -137.60924438 68.55075256 -137.01522827 67.71064758 C-125.43723398 51.57290726 -110.89146448 37.14632136 -94.1914978 26.3742218 C-93.53359253 25.94705872 -92.87568726 25.51989563 -92.19784546 25.07978821 C-63.82316743 6.92729583 -33.41150853 -0.14587803 0 0 Z " fill="#955E40" transform="translate(405.1914978027344,212.6257781982422)"/>
<path d="M0 0 C1.27488281 0.22171875 2.54976562 0.4434375 3.86328125 0.671875 C22.87740937 4.35849933 41.73916823 12.54789369 58 23 C58.58749023 23.37560059 59.17498047 23.75120117 59.78027344 24.13818359 C94.27508537 46.58733885 118.78117082 83.26898778 127.71582031 123.33911133 C128.17160258 125.5551126 128.59372007 127.7743948 129 130 C129.22429687 131.21937256 129.22429687 131.21937256 129.453125 132.46337891 C134.2877809 160.06988926 135.06552314 191.57561473 124.98193359 218.05615234 C122.3990153 224.92603143 122.70484135 230.38585276 124.5 237.5 C128.40694351 255.47194015 126.25880172 271.93932814 120 289 C119.43939863 290.61128207 118.8807974 292.22326146 118.32421875 293.8359375 C113.0621961 308.8306436 106.57255532 323.18594792 99.3125 337.3125 C98.86100586 338.20243652 98.40951172 339.09237305 97.94433594 340.00927734 C95.1821229 345.28342219 92.52613004 350.23693498 87 353 C85.19156337 353.14716542 83.37668434 353.2210887 81.5625 353.25 C80.59441406 353.27578125 79.62632812 353.3015625 78.62890625 353.328125 C76 353 76 353 74.08984375 351.796875 C73 350 73 350 73.24536133 347.76098633 C74.11933401 344.56339426 75.42214422 341.9518306 76.984375 339.02734375 C77.59023438 337.87943359 78.19609375 336.73152344 78.8203125 335.54882812 C79.46290044 334.34470967 80.1061324 333.14093468 80.75 331.9375 C86.65655801 320.88175222 91.62440532 309.73454936 96 298 C96.7115625 296.453125 96.7115625 296.453125 97.4375 294.875 C99.93600802 289.15473165 101.38695941 283.01461693 103 277 C103.36351562 275.74058594 103.72703125 274.48117187 104.1015625 273.18359375 C105.26327444 268.46119212 105.34114958 263.84446505 105.3125 259 C105.31121094 258.08299316 105.30992187 257.16598633 105.30859375 256.22119141 C105.22840372 250.45853546 104.68446701 245.01135809 103.5 239.375 C101.18343736 228.31564086 101.68412125 220.62676122 105.61328125 210.06640625 C106.08423931 208.71394203 106.54568187 207.35814432 107 206 C107.40798828 204.8097522 107.40798828 204.8097522 107.82421875 203.59545898 C110.56415623 194.40443656 110.45526126 185.2697929 110.39111328 175.7668457 C110.3751686 172.96710415 110.39095496 170.16883577 110.41015625 167.36914062 C110.42832312 152.09719649 108.79622536 137.13839627 104.75 122.375 C104.53947998 121.59979004 104.32895996 120.82458008 104.11206055 120.02587891 C93.42597106 82.21119591 68.15736468 54.24674781 34.625 34.75 C2.47406912 17.86360604 -38.45328837 14.79304137 -72.953125 25.4609375 C-77.03532099 26.82123875 -81.03687107 28.32523238 -85 30 C-85.71913574 30.30284912 -86.43827148 30.60569824 -87.17919922 30.91772461 C-100.94284527 36.8672192 -113.04369651 44.80293987 -124 55 C-124.50869629 55.46100098 -125.01739258 55.92200195 -125.54150391 56.39697266 C-137.04167727 66.87652841 -145.18206075 79.21565713 -152.5 92.875 C-152.90943848 93.63498291 -153.31887695 94.39496582 -153.74072266 95.17797852 C-156.55407818 100.61316452 -158.42376315 106.09220248 -160 112 C-160.66 112 -161.32 112 -162 112 C-162.14695312 112.96873047 -162.14695312 112.96873047 -162.296875 113.95703125 C-163.05321228 118.72326015 -163.83577076 123.43372783 -164.98168945 128.12207031 C-167.66217769 139.27049795 -168.60234814 149.82697324 -168.46655273 161.27905273 C-168.4375446 163.93341868 -168.44602148 166.58577613 -168.45898438 169.24023438 C-168.44186978 188.51049216 -165.17858556 206.03174495 -159.25 224.3125 C-158.70946076 226.02080371 -158.17057951 227.72963287 -157.63330078 229.43896484 C-156.3344822 233.56315179 -155.02193183 237.6827699 -153.70349121 241.80072021 C-145.42882777 267.66927372 -145.42882777 267.66927372 -144.38671875 277.18359375 C-144.03770218 280.17474752 -144.03770218 280.17474752 -142.99462891 283.69262695 C-141.97003151 287.74347937 -141.72706348 291.54465388 -141.69921875 295.734375 C-141.69102364 296.8025647 -141.69102364 296.8025647 -141.68266296 297.89233398 C-141.67117219 300.17842251 -141.67736971 302.4639113 -141.6875 304.75 C-141.68832581 305.52879517 -141.68915161 306.30759033 -141.69000244 307.10998535 C-141.7259325 321.80500001 -142.76059879 335.84199972 -147 350 C-147.34417969 351.21816406 -147.68835938 352.43632813 -148.04296875 353.69140625 C-157.02165587 384.50939449 -177.8172336 410.2594742 -205 427 C-205.96244629 427.59288818 -205.96244629 427.59288818 -206.94433594 428.19775391 C-223.17178857 438.03394726 -240.79654285 445.03235473 -258.40087891 451.97314453 C-272.43396232 457.51730655 -286.27058545 463.30065083 -299.82421875 469.93994141 C-301.87522834 470.93921022 -303.93557068 471.91555456 -306 472.88671875 C-328.05516388 483.39920018 -347.34844257 497.22714382 -365 514 C-365.70511719 514.64066406 -366.41023438 515.28132812 -367.13671875 515.94140625 C-385.89829245 533.56130204 -396.16554292 558.02656135 -404 582 C-404.66 582 -405.32 582 -406 582 C-409.56808046 566.32245337 -408.65930075 547.67331219 -402 533 C-401.731875 532.38979004 -401.46375 531.77958008 -401.1875 531.15087891 C-391.01224279 508.46264626 -371.80165485 491.25182218 -352 477 C-351.07429199 476.33121826 -351.07429199 476.33121826 -350.12988281 475.64892578 C-319.13315477 453.51205328 -282.58448662 439.38271338 -247.40625 425.36328125 C-216.73569251 413.12251901 -187.94001835 395.63234895 -174.23828125 364.0859375 C-172.72476154 360.42633396 -171.3589506 356.71945195 -170 353 C-169.60941406 352.02160156 -169.21882812 351.04320312 -168.81640625 350.03515625 C-166.5658043 344.28911391 -165.26502445 338.73862957 -164.39453125 332.62890625 C-164 330 -164 330 -163.49023438 328.26733398 C-162.25018291 322.53209595 -162.70918272 316.35921389 -162.6875 310.5 C-162.68388458 309.75823517 -162.68026917 309.01647034 -162.67654419 308.25222778 C-162.65403767 296.77840495 -163.65904075 286.13161152 -166.54785156 274.98828125 C-167.02313039 272.89828621 -167.30323891 270.84403613 -167.54296875 268.71484375 C-167.89819559 265.82748712 -168.25195104 263.74544757 -169.375 261.125 C-170.57513214 258.15655721 -171.55706836 255.20410518 -172.4375 252.125 C-173.40957292 248.79577616 -174.52490009 245.63110982 -175.875 242.4375 C-178.86178595 235.15293427 -180.8951026 227.57524257 -183 220 C-183.18594727 219.34757324 -183.37189453 218.69514648 -183.56347656 218.02294922 C-188.60304688 200.21067483 -190.27636414 182.51449731 -190.3125 164.0625 C-190.31608521 163.32695892 -190.31967041 162.59141785 -190.32336426 161.83358765 C-190.34974067 151.78206864 -189.86756251 141.90147369 -188 132 C-187.67 131.67 -187.34 131.34 -187 131 C-186.65282449 128.81465414 -186.32329927 126.62650547 -186 124.4375 C-179.30097313 85.56522033 -153.88405453 48.61660927 -122 26 C-86.36502942 1.69928651 -42.64275474 -7.86125811 0 0 Z " fill="#955F41" transform="translate(685,270)"/>
<path d="M0 0 C4.1662458 2.32975858 7.3464874 5.4840387 9 10 C9.265625 13.49609375 9.265625 13.49609375 9.25 17.4375 C9.25773438 19.38462891 9.25773438 19.38462891 9.265625 21.37109375 C9.01935446 24.7355839 8.46022081 26.99264047 7 30 C6.34 30 5.68 30 5 30 C4.90203125 29.18015625 4.8040625 28.3603125 4.703125 27.515625 C4.55359375 26.43796875 4.4040625 25.3603125 4.25 24.25 C4.11078125 23.18265625 3.9715625 22.1153125 3.828125 21.015625 C2.8902252 17.60025402 1.68083082 16.24492337 -1 14 C-4.79152269 14.8425606 -5.89883349 15.84671741 -8.0625 19.125 C-17.17966361 40.11308276 -16.56545799 64.62093009 -9 86 C-8.46386198 87.28688964 -7.91507449 88.56860956 -7.3515625 89.84375 C-5.91032028 93.20942548 -5.57911766 95.38041192 -6 99 C-8 101 -8 101 -10.8125 101.5 C-14.55481868 100.91296962 -15.48536354 99.71548495 -17.7668457 96.81396484 C-19.85008418 93.7495297 -21.27031826 90.47471208 -22.6875 87.0625 C-23.12932617 86.04639648 -23.12932617 86.04639648 -23.58007812 85.00976562 C-28.4731377 73.54131363 -29.20624927 62.70338854 -29.24023438 50.38378906 C-29.24991544 48.26847621 -29.28100502 46.15414751 -29.3125 44.0390625 C-29.42467371 29.90662379 -26.96937811 15.69095158 -17.05859375 4.8828125 C-11.55852195 0.08316738 -7.18561049 -1.14926805 0 0 Z " fill="#986244" transform="translate(730,455)"/>
<path d="M0 0 C3.21136986 1.48225663 6.07419794 3.39720318 9 5.375 C9.83740723 5.9230127 10.67481445 6.47102539 11.53759766 7.03564453 C14.03545256 8.67535237 16.51861029 10.33551609 19 12 C20.27790332 12.84487416 21.55648046 13.68873061 22.8359375 14.53125 C25.87162786 16.53689234 28.8917364 18.5649349 31.90966797 20.59716797 C34.28004057 22.1879366 36.65710938 23.76838351 39.03515625 25.34765625 C54.52641536 35.63701695 69.8400764 46.10257006 84.890625 57.02734375 C89.55402615 60.4092731 94.26059757 63.72528726 99 67 C98.67 67.66 98.34 68.32 98 69 C73.85848465 57.95418165 49.78477702 46.79745303 26 35 C25.25979614 34.63396667 24.51959229 34.26793335 23.75695801 33.89080811 C19.14717777 31.61006829 14.54694863 29.31156666 9.95794678 26.98928833 C8.50402478 26.25553499 7.0478903 25.52614674 5.5894165 24.80148315 C3.56811679 23.79512855 1.55672358 22.77118164 -0.453125 21.7421875 C-1.59942383 21.1632373 -2.74572266 20.58428711 -3.92675781 19.98779297 C-7.570837 17.63077893 -9.4869426 15.52646134 -12 12 C-12.625 8.4375 -12.625 8.4375 -12 5 C-8.48773089 -0.00232267 -5.94569002 -0.71252479 0 0 Z " fill="#965F42" transform="translate(353,567)"/>
<path d="M0 0 C3.45970044 0.57661674 5.17548583 1.42132265 8 3.5 C9.87768555 6.38476562 9.87768555 6.38476562 11.63671875 9.90625 C12.11773041 10.85386955 12.11773041 10.85386955 12.60845947 11.82063293 C13.64756009 13.87427674 14.6673804 15.93687188 15.6875 18 C16.40877899 19.43327078 17.13152682 20.86580329 17.85571289 22.29760742 C19.27941515 25.11430357 20.69744421 27.93373504 22.11132812 30.75537109 C24.31732557 35.14536068 26.61611687 39.48266028 28.9375 43.8125 C33.75433066 52.88172212 38.33951155 62.06860612 42.9375 71.25 C43.31502411 72.00246002 43.69254822 72.75492004 44.08151245 73.53018188 C45.1699928 75.70123741 46.25543711 77.87378233 47.33984375 80.046875 C47.6644458 80.69410019 47.98904785 81.34132538 48.32348633 82.00816345 C49.230791 83.83191758 50.12044158 85.66271815 51 87.5 C51.30656525 88.13151978 51.61313049 88.76303955 51.9289856 89.41369629 C54.11774265 94.14677206 54.11774265 94.14677206 53 97.5 C44.1843608 86.88315877 35.80481733 76.02192428 27.70556641 64.84960938 C26.08580404 62.6182047 24.4564005 60.39420406 22.82421875 58.171875 C16.35839568 49.33508241 10.10573764 40.35854405 3.9375 31.3125 C3.21071045 30.2488623 2.4839209 29.18522461 1.73510742 28.08935547 C-9.10258078 12.1154847 -9.10258078 12.1154847 -8 5.5 C-5.54597925 2.1076772 -4.16402963 0.69400494 0 0 Z " fill="#965F41" transform="translate(419,506.5)"/>
<path d="M0 0 C11.94447215 1.43568864 23.79751709 3.33792245 35.65673828 5.34716797 C38.86564532 5.88336819 42.07488891 6.41751791 45.28417969 6.95141602 C47.33495374 7.29342548 49.38542107 7.63728026 51.43554688 7.9831543 C57.73310031 9.04333244 64.0322644 10.01761542 70.36376953 10.85498047 C72.65673828 11.34716797 72.65673828 11.34716797 75.65673828 13.34716797 C54.09140201 15.04379161 32.60646579 15.77848971 10.9765625 15.82763672 C6.7859798 15.83886316 2.59661456 15.88765408 -1.59357643 15.94358063 C-4.86725645 15.9807294 -8.14062817 15.99123621 -11.41450119 15.99430847 C-12.96228516 16.00032665 -14.51006598 16.01626548 -16.05763626 16.04267883 C-27.89548044 16.23133683 -27.89548044 16.23133683 -31.39447021 14.09448242 C-33.75207695 11.4412546 -34.36558741 9.2032913 -34.90576172 5.72216797 C-32.66479664 -7.72362248 -9.58669366 -1.09376605 0 0 Z " fill="#976143" transform="translate(352.34326171875,648.65283203125)"/>
<path d="M0 0 C5.67476113 1.96434039 9.31400331 5.62800662 12 11 C12.37364646 16.60469691 12.20860998 20.18708503 9 25 C5.01634367 28.93054092 1.87941985 31.15044094 -3.75 31.3125 C-8.63630347 31.24913295 -11.29038005 30.35632281 -15 27 C-18.42917072 23.30010527 -19.29969749 20.4207651 -19.5 15.5 C-19.29969749 10.5792349 -18.42917072 7.69989473 -15 4 C-10.20662513 -0.2360057 -6.14861504 -0.89575147 0 0 Z " fill="#966043" transform="translate(552,922)"/>
<path d="M0 0 C3.4375 1.6875 3.4375 1.6875 6 4 C6.78375 4.680625 7.5675 5.36125 8.375 6.0625 C10.88687962 10.60320547 10.74446918 14.93016489 10 20 C7.9976035 24.004793 5.82001123 26.6587028 2 29 C-2.34798948 30.44932983 -6.45595345 30.51669065 -11 30 C-14.99353303 27.96692864 -17.69123413 25.83030212 -20 22 C-20.3984375 18.94140625 -20.3984375 18.94140625 -20.375 15.5625 C-20.38273438 14.45003906 -20.39046875 13.33757813 -20.3984375 12.19140625 C-19.80394551 7.42964198 -17.97423589 4.9011682 -14.5 1.6875 C-9.60120724 -0.67441794 -5.34738762 -0.78895883 0 0 Z " fill="#955E40" transform="translate(553,865)"/>
<path d="M0 0 C4.85978996 2.29735525 7.59883576 5.19767151 10 10 C10.85779006 15.90922042 9.91286587 19.42315815 6.47265625 24.30078125 C3.61901079 27.59344909 0.88763592 28.69685317 -3.359375 29.37890625 C-8.20252076 29.72379693 -11.22076901 29.35921369 -15 26.1875 C-18.65104043 22.63300151 -20.31522594 19.89989576 -20.4375 14.75 C-20.35425628 9.9154609 -19.46810114 7.10633755 -16.484375 3.33984375 C-11.70778176 -0.97166015 -6.10792621 -0.70919317 0 0 Z " fill="#955F41" transform="translate(554,810)"/>
<path d="M0 0 C3.93436187 1.93266899 6.98032544 4.06694954 9 8 C10.15243823 11.9590565 10.66357764 15.36788139 9.08203125 19.2578125 C6.19995576 24.06422762 3.40336633 27.19887789 -2 29 C-6.66507623 29.3823833 -9.04127641 29.47936179 -13.25 27.375 C-16.94707941 24.18206779 -19.58724664 21.58602618 -20.3828125 16.6015625 C-20.63944028 10.90442575 -19.87566331 7.41394988 -16 3 C-11.31180932 -1.31643988 -6.04297542 -0.73615899 0 0 Z " fill="#976143" transform="translate(557,758)"/>
<path d="M0 0 C0.33 0 0.66 0 1 0 C1.33 7.59 1.66 15.18 2 23 C2.99 23 3.98 23 5 23 C4.54177532 26.46941546 4.10868317 29.67395049 3 33 C2.34 33 1.68 33 1 33 C0.06912091 29.06711636 -0.11608885 25.42345837 -0.09765625 21.38671875 C-0.09443359 20.13955078 -0.09121094 18.89238281 -0.08789062 17.60742188 C-0.07532227 15.66706055 -0.07532227 15.66706055 -0.0625 13.6875 C-0.05798828 12.37458984 -0.05347656 11.06167969 -0.04882812 9.70898438 C-0.03705949 6.4726099 -0.0206176 3.23632822 0 0 Z " fill="#9C6E56" transform="translate(278,819)"/>
<path d="M0 0 C0.99 0 1.98 0 3 0 C4.03271642 2.09836004 5.05083717 4.20390891 6.0625 6.3125 C6.91521484 8.07013672 6.91521484 8.07013672 7.78515625 9.86328125 C9 13 9 13 8 16 C3.73386967 11.27266639 0 6.66733982 0 0 Z " fill="#9A6A51" transform="translate(464,588)"/>
<path d="M0 0 C0 0.33 0 0.66 0 1 C-1.24716797 1.30744141 -1.24716797 1.30744141 -2.51953125 1.62109375 C-3.60621094 1.89050781 -4.69289063 2.15992188 -5.8125 2.4375 C-7.43091797 2.83775391 -7.43091797 2.83775391 -9.08203125 3.24609375 C-11.0740843 3.76077412 -13.04811524 4.34937175 -15 5 C-16.39439664 5.06665376 -17.79169875 5.08538199 -19.1875 5.0625 C-21.0746875 5.0315625 -21.0746875 5.0315625 -23 5 C-17.74918549 -0.25081451 -7.12094719 -0.41887925 0 0 Z " fill="#A5775E" transform="translate(633,270)"/>
<path d="M0 0 C0.66 0.33 1.32 0.66 2 1 C0.56354149 2.60509934 -0.87420706 4.20904424 -2.3125 5.8125 C-3.11300781 6.70582031 -3.91351562 7.59914063 -4.73828125 8.51953125 C-6.45224581 10.39926786 -8.17877604 12.22592747 -10 14 C-10.33 13.01 -10.66 12.02 -11 11 C-7.37 7.37 -3.74 3.74 0 0 Z " fill="#9C694C" transform="translate(549,307)"/>
<path d="M0 0 C1.32 0 2.64 0 4 0 C4 3.3 4 6.6 4 10 C3.01 10 2.02 10 1 10 C0.67 6.7 0.34 3.4 0 0 Z " fill="#C6A28A" transform="translate(561,660)"/>
<path d="M0 0 C0.66 0.99 1.32 1.98 2 3 C1.34 4.32 0.68 5.64 0 7 C-0.66 7 -1.32 7 -2 7 C-2.66 9.31 -3.32 11.62 -4 14 C-4.66 14 -5.32 14 -6 14 C-5.41892368 10.2397015 -4.34800504 7.46964968 -2.4375 4.1875 C-1.98246094 3.39730469 -1.52742187 2.60710938 -1.05859375 1.79296875 C-0.53458984 0.90544922 -0.53458984 0.90544922 0 0 Z " fill="#99694E" transform="translate(764,606)"/>
<path d="M0 0 C3.38297413 0.17805127 4.76272061 0.78837244 7.3125 3.0625 C8.1478125 4.0215625 8.1478125 4.0215625 9 5 C8.67 5.66 8.34 6.32 8 7 C4.7 5.35 1.4 3.7 -2 2 C-1.34 1.34 -0.68 0.68 0 0 Z " fill="#E6D7CE" transform="translate(880,765)"/>
<path d="M0 0 C0 0.66 0 1.32 0 2 C-1.093125 2.226875 -2.18625 2.45375 -3.3125 2.6875 C-7.12488211 3.65747195 -7.12488211 3.65747195 -8.9375 6.625 C-9.288125 7.40875 -9.63875 8.1925 -10 9 C-10.8125 7.3125 -10.8125 7.3125 -11 5 C-7.68274928 0.57699904 -5.4997699 -0.63950813 0 0 Z " fill="#9C6B51" transform="translate(422,507)"/>
<path d="M0 0 C0.33 0 0.66 0 1 0 C1 4.95 1 9.9 1 15 C0.01 15.495 0.01 15.495 -1 16 C-2.08360869 9.93179132 -1.79074734 5.89893243 0 0 Z " fill="#8E583A" transform="translate(737,467)"/>
<path d="M0 0 C0.68707555 2.49064888 1 4.37886292 1 7 C0.34 7 -0.32 7 -1 7 C-1.309375 7.94875 -1.61875 8.8975 -1.9375 9.875 C-3 13 -3 13 -4 15 C-4.66 15 -5.32 15 -6 15 C-4.40109514 9.80355921 -2.25861997 4.93387858 0 0 Z " fill="#9E6C52" transform="translate(775,583)"/>
<path d="M0 0 C1.21065165 3.63195496 0.62784815 5.06531629 -0.4375 8.6875 C-0.86869141 10.17830078 -0.86869141 10.17830078 -1.30859375 11.69921875 C-1.53675781 12.45847656 -1.76492188 13.21773438 -2 14 C-2.33 14 -2.66 14 -3 14 C-3.32374517 8.49633208 -3.53286034 4.56327794 0 0 Z " fill="#9C684C" transform="translate(504,380)"/>
<path d="M0 0 C5.29158974 1.40071493 7.77478044 4.85487245 11 9 C8 9 8 9 5.3125 6.625 C3 4 3 4 3 2 C2.01 1.67 1.02 1.34 0 1 C0 0.67 0 0.34 0 0 Z " fill="#9E6A4E" transform="translate(945,255)"/>
<path d="M0 0 C0.99 0.66 1.98 1.32 3 2 C-0.3 5.3 -3.6 8.6 -7 12 C-7 8.43013844 -6.3954571 7.97905092 -4.0625 5.4375 C-1.75540038 2.91000271 -1.75540038 2.91000271 0 0 Z " fill="#9B6548" transform="translate(315,761)"/>
<path d="M0 0 C3.5786304 1.65167557 6.74820188 3.78286492 10 6 C9.67 6.66 9.34 7.32 9 8 C4.545 6.02 4.545 6.02 0 4 C0 2.68 0 1.36 0 0 Z " fill="#94654B" transform="translate(442,628)"/>
<path d="M0 0 C-2.6465335 2.6465335 -5.56221264 3.59941997 -9 5 C-9 4.34 -9 3.68 -9 3 C-9.66 2.67 -10.32 2.34 -11 2 C-3.57142857 -1.57142857 -3.57142857 -1.57142857 0 0 Z " fill="#A47357" transform="translate(406,711)"/>
<path d="M0 0 C2.97 0.495 2.97 0.495 6 1 C6 1.66 6 2.32 6 3 C8.97 3 11.94 3 15 3 C15 3.33 15 3.66 15 4 C4.27475338 4.56229448 4.27475338 4.56229448 0 1 C0 0.67 0 0.34 0 0 Z " fill="#A67C65" transform="translate(538,949)"/>
<path d="M0 0 C0.88336837 2.4667645 1.1312406 3.63859372 0.22265625 6.140625 C-0.16019531 6.83671875 -0.54304688 7.5328125 -0.9375 8.25 C-1.31777344 8.95640625 -1.69804687 9.6628125 -2.08984375 10.390625 C-2.39019531 10.92171875 -2.69054687 11.4528125 -3 12 C-3.66 11.67 -4.32 11.34 -5 11 C-3.55049545 7.2089881 -1.84827434 3.6125362 0 0 Z " fill="#9A684C" transform="translate(511,634)"/>
<path d="M0 0 C3.7952131 1.49097658 5.61042731 3.75700849 8 7 C5 7 5 7 2.3125 4.625 C0 2 0 2 0 0 Z " fill="#9C6C50" transform="translate(283,950)"/>
<path d="M0 0 C2.97 0.99 5.94 1.98 9 3 C9 3.66 9 4.32 9 5 C5.44219804 4.39009109 2.3171411 3.4216319 -1 2 C-0.67 1.34 -0.34 0.68 0 0 Z " fill="#9D6C50" transform="translate(853,775)"/>
<path d="M0 0 C0.99 0.33 1.98 0.66 3 1 C2.67 2.98 2.34 4.96 2 7 C2.66 7.33 3.32 7.66 4 8 C2.68 8.33 1.36 8.66 0 9 C0 6.03 0 3.06 0 0 Z " fill="#AE7A5C" transform="translate(565,660)"/>
<path d="M0 0 C0.66 0.66 1.32 1.32 2 2 C-1.465 4.97 -1.465 4.97 -5 8 C-5.66 7.67 -6.32 7.34 -7 7 C-4.69 4.69 -2.38 2.38 0 0 Z " fill="#9A674B" transform="translate(495,659)"/>
<path d="M0 0 C0.66 0.33 1.32 0.66 2 1 C0.625 2.5 0.625 2.5 -1 4 C-1.66 4 -2.32 4 -3 4 C-3 4.66 -3 5.32 -3 6 C-4.32 5.34 -5.64 4.68 -7 4 C-1.7265625 0.77734375 -1.7265625 0.77734375 0 0 Z " fill="#9B694D" transform="translate(904,960)"/>
<path d="M0 0 C0 0.66 0 1.32 0 2 C1.98 2 3.96 2 6 2 C6 2.33 6 2.66 6 3 C1.1666528 3.08333357 -3.23692563 2.95261487 -8 2 C-8 1.67 -8 1.34 -8 1 C-2.25 0 -2.25 0 0 0 Z " fill="#A97E65" transform="translate(756,751)"/>
<path d="M0 0 C-2.91765 1.9451 -4.62537285 2.45276317 -8 3 C-8.33 2.01 -8.66 1.02 -9 0 C-5.67465243 -1.10844919 -3.37817425 -0.84454356 0 0 Z " fill="#A06B4E" transform="translate(663,748)"/>
<path d="M0 0 C0.515625 0.37125 1.03125 0.7425 1.5625 1.125 C-1.72446233 1.92453138 -3.14773192 2.22158936 -6.4375 1.125 C-6.7675 1.785 -7.0975 2.445 -7.4375 3.125 C-8.0975 2.465 -8.7575 1.805 -9.4375 1.125 C-3.0375 -1.09038462 -3.0375 -1.09038462 0 0 Z " fill="#A27257" transform="translate(614.4375,728.875)"/>
<path d="M0 0 C-1.32 0.33 -2.64 0.66 -4 1 C-4 1.66 -4 2.32 -4 3 C-5.8125 3.625 -5.8125 3.625 -8 4 C-8.99 3.34 -9.98 2.68 -11 2 C-9.54494642 1.47007308 -8.08581873 0.9513211 -6.625 0.4375 C-5.81289063 0.14746094 -5.00078125 -0.14257812 -4.1640625 -0.44140625 C-2 -1 -2 -1 0 0 Z " fill="#A3765D" transform="translate(659,671)"/>
<path d="M0 0 C0.66 0.33 1.32 0.66 2 1 C0.68 2.32 -0.64 3.64 -2 5 C-2 2 -2 2 0 0 Z " fill="#996547" transform="translate(296,250)"/>
<path d="M0 0 C2.89932357 2.39509338 3.50168276 4.31245243 4 8 C2.35 6.35 0.7 4.7 -1 3 C-0.67 2.01 -0.34 1.02 0 0 Z " fill="#906045" transform="translate(469,596)"/>
<path d="M0 0 C0.33 0.66 0.66 1.32 1 2 C1.99 2.33 2.98 2.66 4 3 C3 6 3 6 1 10 C0.67 6.7 0.34 3.4 0 0 Z " fill="#AE856E" transform="translate(520,548)"/>
</svg>
