<?xml version="1.0" encoding="UTF-8"?>
<svg version="1.1" xmlns="http://www.w3.org/2000/svg" width="1254" height="1254">
<path d="M0 0 C413.82 0 827.64 0 1254 0 C1254 413.82 1254 827.64 1254 1254 C840.18 1254 426.36 1254 0 1254 C0 840.18 0 426.36 0 0 Z " fill="none" transform="translate(0,0)"/>
<path d="M0 0 C3.98066095 1.57724302 5.60667274 2.41000911 8 6 C8.25020635 8.19969857 8.25020635 8.19969857 8.25053978 10.81945992 C8.25553848 11.81816711 8.26053717 12.8168743 8.26568735 13.84584534 C8.25869253 15.49623317 8.25869253 15.49623317 8.2515564 17.17996216 C8.25452654 18.34659389 8.25749667 19.51322563 8.26055682 20.71520984 C8.26688836 23.95931451 8.2642814 27.20327371 8.25803804 30.44737411 C8.25351242 33.94462064 8.26054061 37.44184497 8.26634216 40.93908691 C8.27498606 47.00406811 8.27678048 53.06902014 8.27439499 59.1340065 C8.2712979 67.9215195 8.28293591 76.70896804 8.29894479 85.49646483 C8.3249299 99.77742261 8.34493338 114.05838043 8.35839844 128.33935547 C8.35920881 129.19449674 8.36001918 130.04963801 8.3608541 130.93069266 C8.37205175 143.03945337 8.37735097 155.14820949 8.38024123 167.25697468 C8.38044522 168.10787128 8.38064921 168.95876788 8.38085938 169.83544922 C8.38105931 170.68530392 8.38125925 171.53515862 8.38146524 172.4107665 C8.38520808 186.62088428 8.40436608 200.83093255 8.43595374 215.04101551 C8.45480205 223.79572093 8.46087082 232.55024747 8.45013656 241.30496751 C8.4437809 247.31866878 8.4519601 253.33224266 8.47119068 259.34591605 C8.48179514 262.80730264 8.48615828 266.26837927 8.47271919 269.72976303 C8.41826398 288.02230929 9.56691047 304.07929873 16.75 321.125 C17.09434082 321.95845947 17.43868164 322.79191895 17.79345703 323.65063477 C23.29674536 336.71312382 29.84655445 348.16253776 39 359 C39.43183594 359.51691406 39.86367188 360.03382813 40.30859375 360.56640625 C57.76425384 381.23349342 82.34953428 395.4302964 109 400 C110.44529114 400.26954644 110.44529114 400.26954644 111.91978008 400.54453826 C123.25206603 402.44143249 134.52474001 402.27876639 145.98320007 402.25396729 C148.30970682 402.25627426 150.63621285 402.25945237 152.96271735 402.26342177 C159.32895572 402.27174566 165.69513386 402.26765545 172.0613724 402.26144934 C178.23030773 402.2564002 184.39923722 402.26272401 190.56817088 402.26774407 C203.95671962 402.27825439 217.34524923 402.27737133 230.73379977 402.27158624 C242.44867773 402.26654934 254.16354869 402.26524444 265.87842751 402.26763153 C267.04535927 402.26786069 267.04535927 402.26786069 268.23586541 402.26809447 C271.39403469 402.26871717 274.55220397 402.26935398 277.71037324 402.270014 C307.31538266 402.27612735 336.9203799 402.27059213 366.52538744 402.2598202 C392.81681754 402.2503267 419.10822827 402.25118114 445.3996582 402.26074219 C474.95606099 402.2714547 504.51245303 402.27569655 534.06885749 402.26951766 C537.22024492 402.26887625 540.37163236 402.26825056 543.52301979 402.26763153 C544.68690138 402.2673943 544.68690138 402.2673943 545.87429574 402.26715227 C557.58272627 402.26487895 569.29114902 402.2675348 580.99957848 402.27259064 C594.31248128 402.27831074 607.62536201 402.27687596 620.93826207 402.26602915 C627.73045466 402.26067746 634.52260555 402.25871577 641.31479836 402.26532745 C647.53288067 402.27128878 653.7508872 402.26800865 659.96896265 402.25737235 C662.21771483 402.25513916 664.46647343 402.2562728 666.71522149 402.26112393 C669.77457185 402.26721725 672.83366363 402.26095511 675.8930006 402.25168228 C676.76334807 402.25636461 677.63369554 402.26104695 678.53041717 402.26587117 C707.6702008 402.08968991 737.63327263 387.48417215 758.1875 367.375 C772.29245274 353.07830286 781.70471628 335.7992335 787.875 316.8125 C788.16149414 315.9344873 788.44798828 315.05647461 788.74316406 314.15185547 C792.14806725 303.10743124 793.30328729 292.10133945 793.23136902 280.58143616 C793.23222246 279.4025825 793.2330759 278.22372885 793.2339552 277.00915235 C793.23445844 273.77779102 793.22615215 270.54659711 793.2140609 267.31526315 C793.20326441 263.81500744 793.20430809 260.31475318 793.20413208 256.81448364 C793.20253897 250.76219628 793.19448355 244.70994651 793.1826992 238.65767097 C793.16475126 229.09015691 793.16874103 219.522708 793.17634583 209.95518494 C793.17870032 206.67606073 793.18094016 203.39693645 793.18316364 200.11781216 C793.18372818 199.29862654 793.18429271 198.47944091 793.18487435 197.63543149 C793.19105441 188.33337072 793.19341574 179.03131077 793.19360352 169.72924805 C793.19362695 168.87986699 793.19365039 168.03048593 793.19367454 167.15536606 C793.19342363 153.36387864 793.17427114 139.57246617 793.15000685 125.78100307 C793.12569856 111.60337034 793.12809633 97.42590526 793.15368825 83.24827474 C793.16848446 74.5111475 793.16146199 65.77458376 793.12638716 57.03751188 C793.10423244 51.0570901 793.10744022 45.07702303 793.13068654 39.09660662 C793.1432998 35.64639011 793.1444639 32.197155 793.11510277 28.74701881 C793.08914366 25.00702534 793.10600311 21.26960257 793.13371277 17.52967834 C793.11584959 16.43932079 793.09798641 15.34896323 793.07958192 14.22556454 C793.19464869 7.0910775 793.19464869 7.0910775 795.49092162 3.98012245 C798.55409575 1.21468437 800.43425488 0.09925353 804.5625 -0.625 C808.62978591 0.11450653 810.83995808 1.35438351 814 4 C815.9106261 7.03969843 816.25144622 9.36830323 816.25726891 12.92854118 C816.2637178 13.92615593 816.27016669 14.92377067 816.276811 15.95161617 C816.2737138 17.04555128 816.2706166 18.13948639 816.26742554 19.26657104 C816.27195665 20.43052938 816.27648776 21.59448771 816.28115618 22.7937175 C816.29163858 26.0259025 816.29312385 29.25794786 816.29076743 32.49014449 C816.29035958 35.97656969 816.30139629 39.46296161 816.31088257 42.94937134 C816.32750854 49.78488842 816.33299308 56.62037101 816.33410732 63.45590661 C816.33505828 69.02103587 816.33917101 74.58615378 816.34550858 80.15127945 C816.36313543 95.95341622 816.37234671 111.75552582 816.37084763 127.55767249 C816.37072776 128.83599228 816.37072776 128.83599228 816.37060547 130.14013672 C816.37052371 130.99340094 816.37044195 131.84666516 816.37035771 132.72578587 C816.36954729 146.51028381 816.3886192 160.29467182 816.4168822 174.07913803 C816.44571911 188.25651425 816.45941617 202.43383712 816.45769465 216.61124337 C816.45703383 224.56080071 816.462388 232.51024325 816.48405075 240.45977402 C816.5024066 247.23920758 816.50649439 254.0184745 816.4930319 260.79792236 C816.48657016 264.24779619 816.4861323 267.69735178 816.5037384 271.14719391 C816.68223198 314.04051492 804.65122986 352.59322492 774.27734375 383.7265625 C766.50133918 391.54028236 758.2079659 397.97772846 749 404 C748.07703125 404.6084375 747.1540625 405.216875 746.203125 405.84375 C726.23536072 418.25309503 702.37244627 425.17765414 678.9260397 425.13142776 C677.45636569 425.13450672 677.45636569 425.13450672 675.9570013 425.13764787 C672.67806277 425.14329657 669.39916652 425.14186325 666.120224 425.14044189 C663.74384928 425.14302675 661.367475 425.14604024 658.99110132 425.1494453 C653.1476678 425.15665979 647.30424275 425.15921723 641.46080581 425.15977435 C634.45889347 425.16069017 627.45698953 425.16736413 620.45508081 425.17412117 C603.53459031 425.19016071 586.61410073 425.19608201 569.69360399 425.20086992 C561.68559525 425.2032078 553.67758721 425.20681065 545.66957903 425.2105653 C518.24486626 425.22339864 490.82015389 425.23411829 463.39543819 425.2375679 C461.67476081 425.23778953 459.95408343 425.23801132 458.23340604 425.23823325 C456.50863358 425.23845389 454.78386111 425.23867437 453.05908865 425.2388947 C449.59904412 425.23933725 446.1389996 425.23978436 442.67895508 425.24023438 C441.82106897 425.24034377 440.96318285 425.24045316 440.07930019 425.24056586 C412.26572805 425.24419606 384.45218197 425.2601158 356.63861981 425.28342474 C327.21621112 425.30803678 297.79381732 425.32174136 268.37139803 425.32293582 C265.13980106 425.32310727 261.9082041 425.32332269 258.67660713 425.32357025 C257.4830863 425.3236539 257.4830863 425.3236539 256.26545393 425.32373925 C243.47738212 425.32488845 230.68933714 425.33589919 217.90127438 425.35045731 C205.04098469 425.36484419 192.18072927 425.36804691 179.32043373 425.36001733 C171.68743518 425.35557152 164.05454753 425.35937954 156.42156362 425.37525584 C150.71148084 425.38619875 145.00149637 425.38133205 139.29141743 425.37048396 C136.98926207 425.36852913 134.6870955 425.37159546 132.38495588 425.38032833 C116.67621049 425.43612168 101.97655358 424.52205281 87 419.3125 C86.25637207 419.05758789 85.51274414 418.80267578 84.74658203 418.54003906 C64.976535 411.51795998 47.36775121 400.15530536 32 386 C31.20335937 385.28585937 30.40671875 384.57171875 29.5859375 383.8359375 C10.86677655 366.20589137 -1.70704563 342.46505107 -9.25 318.125 C-9.48420654 317.38411133 -9.71841309 316.64322266 -9.9597168 315.87988281 C-14.08110519 301.90055899 -15.45212703 287.81146882 -15.328125 273.30859375 C-15.32557491 271.6438664 -15.32433467 269.97913665 -15.32423401 268.31440735 C-15.31967435 263.67580127 -15.29539453 259.03748513 -15.26691055 254.39897156 C-15.23791826 249.3216782 -15.22302274 244.24433663 -15.20581055 239.16699219 C-15.18044614 232.1207069 -15.15124334 225.07446352 -15.11430359 218.02822876 C-15.02543805 200.8053208 -14.98276271 183.58274395 -14.9663651 166.35961211 C-14.94930221 148.53959855 -14.91323449 130.71969965 -14.86148643 112.89975262 C-14.83103543 102.24661455 -14.8086723 91.59358328 -14.80554199 80.94039917 C-14.80265665 71.72283627 -14.78214253 62.50551023 -14.73987669 53.2880407 C-14.71844654 48.49553807 -14.70544437 43.70337302 -14.71377754 38.91082191 C-14.7212802 34.46447062 -14.70566426 30.018813 -14.67192411 25.57258904 C-14.66370214 23.95178461 -14.66395698 22.33091114 -14.67340708 20.71011341 C-14.68502228 18.50104868 -14.66593619 16.29427461 -14.63923645 14.08538818 C-14.63647107 12.85394955 -14.63370569 11.62251091 -14.63085651 10.35375595 C-13.78901812 5.87837928 -12.17658867 4.21912531 -9 1 C-5.92805092 -0.53597454 -3.39755707 -0.2265038 0 0 Z " fill="#945A3D" transform="translate(221,632)"/>
<path d="M0 0 C2.41958224 -0.00390081 4.83916218 -0.00954747 7.25873679 -0.0167709 C12.48382356 -0.02838406 17.70875587 -0.02779619 22.93383598 -0.01599121 C30.70389342 0.00151489 38.47381892 -0.00415324 46.24388353 -0.01415812 C60.12591152 -0.031286 74.00786014 -0.02585059 87.88988643 -0.01080093 C100.03557291 0.00228069 112.18123195 0.00744105 124.32692528 0.00488091 C125.13438648 0.00472049 125.94184768 0.00456007 126.77377741 0.0043948 C130.05194668 0.00373115 133.33011594 0.00302873 136.60828519 0.00226946 C167.31808491 -0.0047443 198.02783632 0.01070338 228.73762374 0.03689292 C255.99678446 0.06001656 283.25589211 0.06539099 310.51506042 0.05516052 C317.49926406 0.05255832 324.48346769 0.04997325 331.46767139 0.0475626 C332.32762388 0.04726515 333.18757637 0.0469677 334.07358803 0.04666124 C356.88398903 0.03904106 379.6943857 0.04546303 402.50478476 0.05625862 C404.95999893 0.05740637 407.4152131 0.05854955 409.87042728 0.05968544 C411.4989939 0.06044069 413.12756053 0.06120633 414.75612714 0.06198245 C426.89499725 0.06763183 439.03385362 0.06631697 451.17272377 0.06175423 C464.97652235 0.05663926 478.7802696 0.06253152 492.5840554 0.08264852 C500.30173919 0.09360771 508.01932201 0.09645329 515.73700881 0.08735999 C521.50791174 0.08150221 527.27870347 0.0914181 533.0495834 0.10735964 C535.37763225 0.1113925 537.70569651 0.11042389 540.03373954 0.10384078 C555.89922032 0.06282975 570.17744775 1.16737153 585.23698425 6.56370544 C586.06842957 6.85970642 586.89987488 7.1557074 587.7565155 7.4606781 C606.48489336 14.39201402 622.01391772 24.82336235 636.48698425 38.50120544 C637.79602722 39.69616638 637.79602722 39.69616638 639.1315155 40.91526794 C665.84966742 66.21915431 680.63573704 104.47941303 681.68510628 140.8823719 C681.80444935 147.09426659 681.81496225 153.30617444 681.82511902 159.51902771 C681.83603708 161.89276472 681.84771118 164.26649836 681.8600769 166.64022827 C681.89033949 173.03624188 681.90753598 179.43221987 681.92029309 185.82829022 C681.92841379 189.82908365 681.938565 193.82986909 681.9493084 197.83065605 C681.97844115 208.93429016 682.0032532 220.03791861 682.01393223 231.14158726 C682.01496827 232.20216582 682.01496827 232.20216582 682.01602524 233.28417021 C682.01671726 233.99274624 682.01740927 234.70132228 682.01812226 235.43137032 C682.01953418 236.86683946 682.02095499 238.30230859 682.02238464 239.73777771 C682.0234424 240.80580286 682.0234424 240.80580286 682.02452152 241.89540427 C682.03680492 253.46415486 682.079701 265.03258017 682.13532484 276.60119546 C682.19212613 288.51211235 682.22258244 300.42286433 682.22694439 312.33391804 C682.23002098 319.00863824 682.24519984 325.68296457 682.28822517 332.35756111 C682.3279293 338.62468526 682.33440125 344.89096973 682.31532478 351.15818214 C682.3140576 353.45598151 682.32475261 355.75382357 682.34833908 358.05150223 C682.37872631 361.19077641 682.36582978 364.32704225 682.34222412 367.46630859 C682.36124977 368.37301931 682.38027542 369.27973004 682.39987761 370.21391684 C682.28992019 376.36330544 680.54686449 379.52903435 676.38489574 384.02464908 C673.75297776 386.07225523 671.69174435 386.44684172 668.41667175 386.10276794 C664.90307194 385.00743521 663.02234992 383.16024748 660.48698425 380.50120544 C659.57886794 377.7768565 659.36068697 376.2021156 659.35669899 373.40293789 C659.35307464 372.56508359 659.34945029 371.7272293 659.34571612 370.86398548 C659.34678437 369.94339267 659.34785262 369.02279986 659.34895325 368.0743103 C659.34613197 367.09622754 659.34331069 366.11814478 659.34040391 365.11042315 C659.33203976 361.81741752 659.33071805 358.52444545 659.32926941 355.23143005 C659.32460219 352.87598577 659.31945878 350.52054238 659.31387329 348.1651001 C659.30257871 343.08232647 659.29415078 337.99955876 659.28775406 332.91677666 C659.27707588 324.8673873 659.25684508 316.81804137 659.2346344 308.76867676 C659.22715396 306.01206507 659.21974018 303.25545321 659.21234703 300.49884129 C659.21049646 299.80980989 659.2086459 299.1207785 659.20673925 298.41086737 C659.1858045 290.56394958 659.16698425 282.71702721 659.14909363 274.87010193 C659.14663635 273.79413591 659.14663635 273.79413591 659.14412944 272.69643319 C659.11792212 261.10784235 659.09923725 249.51924833 659.08250172 237.93064051 C659.06501487 226.01331083 659.03609401 214.09604282 658.99761236 202.1787625 C658.97641492 195.49584398 658.96109525 188.81302422 658.95880508 182.13006401 C658.956644 175.83043439 658.94062668 169.5309869 658.91441536 163.23141289 C658.90727444 160.93141182 658.90509579 158.63138855 658.90851784 156.33137894 C658.92958735 139.4631418 658.01769915 123.14107056 652.42448425 107.06370544 C652.12920837 106.19955017 651.8339325 105.3353949 651.52970886 104.4450531 C640.25212385 72.8309809 618.30889279 48.16615684 587.98698425 33.75120544 C568.65161153 24.87312083 550.05799799 23.05318804 529.12451172 23.12698364 C526.76898017 23.12423968 524.41344985 23.12018472 522.05792254 23.11493999 C516.28942509 23.10549634 510.52105668 23.10989101 504.7525636 23.12028219 C497.83574149 23.13195185 490.91896133 23.1260722 484.00213624 23.11971391 C470.45279994 23.10781528 456.90351031 23.11285154 443.35417661 23.12499219 C431.49856199 23.1355425 419.64296325 23.14006587 407.78734398 23.13869667 C406.99989891 23.13861264 406.21245383 23.13852861 405.40114679 23.13844203 C402.20441143 23.13808977 399.00767608 23.13770575 395.81094073 23.13727646 C365.84725214 23.13331483 335.8835916 23.14601372 305.91991103 23.16680302 C279.31278579 23.18517671 252.70568743 23.1909836 226.09855652 23.18553162 C224.38960522 23.18518518 222.68065391 23.18483908 220.97170261 23.18449333 C220.12681892 23.18432233 219.28193522 23.18415134 218.41144899 23.18397516 C214.15819679 23.18312158 209.9049446 23.1822978 205.65169239 23.18150616 C204.81254459 23.18134908 203.9733968 23.181192 203.10882028 23.18103016 C180.85747067 23.17703856 158.60612365 23.18251764 136.35477561 23.19101745 C133.96007708 23.19192446 131.56537854 23.19283011 129.17068001 23.19373268 C127.58219 23.19433379 125.99369999 23.19494241 124.40520998 23.19555859 C113.34094265 23.19977639 102.27668041 23.20035972 91.21241253 23.19845309 C76.95477074 23.19600834 62.69715618 23.20009661 48.43952183 23.2156631 C41.56619122 23.22299486 34.69289487 23.22724321 27.819561 23.22241974 C21.52621347 23.21834029 15.23294358 23.22351759 8.93960782 23.23604582 C6.66462401 23.23897104 4.38963286 23.23854475 2.11465094 23.23440274 C-13.80723079 23.13028438 -13.80723079 23.13028438 -29.51301575 25.50120544 C-30.58868098 25.74053497 -30.58868098 25.74053497 -31.68607682 25.98469943 C-61.66983293 33.1407087 -88.51009384 51.76321675 -105.05427551 77.87303162 C-120.04390181 102.43430854 -124.82262483 126.82523646 -124.76838684 155.25852966 C-124.77113988 157.66432819 -124.77482168 160.07012581 -124.77935791 162.47592163 C-124.78744112 167.63715215 -124.78964571 172.79833943 -124.78741074 177.95957565 C-124.7843001 185.42819131 -124.79599609 192.89673189 -124.81196053 200.36532857 C-124.83785937 212.49427299 -124.8579131 224.62321747 -124.87141418 236.75218201 C-124.87222455 237.47652275 -124.87303492 238.20086348 -124.87386985 238.94715394 C-124.88510805 249.24209298 -124.89037722 259.5370266 -124.89325698 269.83197095 C-124.89346097 270.55813083 -124.89366495 271.28429071 -124.89387512 272.03245544 C-124.89417503 273.12035867 -124.89417503 273.12035867 -124.89448099 274.23023973 C-124.89821369 286.3240824 -124.91729111 298.41784295 -124.94896948 310.51164448 C-124.96617686 317.29467892 -124.97559329 324.07755308 -124.96603012 330.86060715 C-124.9575065 337.23175739 -124.9671244 343.60261667 -124.99077034 349.97372627 C-124.99610253 352.31264393 -124.99457811 354.65158866 -124.98573494 356.99049568 C-124.97464514 360.18044594 -124.98800935 363.36939177 -125.00749207 366.5592804 C-124.99836741 367.48690024 -124.98924275 368.41452009 -124.97984159 369.37024963 C-125.04579928 374.91060326 -125.79926205 378.11448942 -129.51301575 382.50120544 C-132.46651619 384.89593554 -134.21967649 385.46453804 -138.01301575 385.93870544 C-142.12948983 385.42414618 -143.64762973 384.44845963 -146.51301575 381.50120544 C-148.22368968 378.64114543 -148.76391619 376.54581581 -148.77028465 373.22859383 C-148.77673355 372.3772817 -148.78318244 371.52596956 -148.78982675 370.6488601 C-148.78672955 369.71834482 -148.78363234 368.78782954 -148.78044128 367.82911682 C-148.7849724 366.83666769 -148.78950351 365.84421856 -148.79417193 364.82169521 C-148.80686266 361.48581445 -148.80519245 358.150096 -148.80354309 354.81419373 C-148.80952601 352.42568247 -148.81633101 350.03717315 -148.82389832 347.64866638 C-148.83976254 341.82381064 -148.84600864 335.99900434 -148.84712307 330.17412807 C-148.84807449 325.4299363 -148.85218956 320.68575784 -148.85852432 315.94157028 C-148.87615163 302.46360872 -148.88536266 288.98567899 -148.88386337 275.50770582 C-148.88378346 274.78094644 -148.88370355 274.05418706 -148.88362122 273.30540466 C-148.88353945 272.57774626 -148.88345769 271.85008787 -148.88337345 271.10037921 C-148.88256356 259.35282885 -148.90162218 247.60540765 -148.92989795 235.85789455 C-148.95876334 223.76877991 -148.9724303 211.67972788 -148.9707104 199.59057796 C-148.97005043 192.81473084 -148.9753659 186.0390185 -148.9970665 179.26320267 C-149.01660679 172.87243002 -149.01646644 166.48193932 -149.00203323 160.09115601 C-148.99996245 157.76218117 -149.0045409 155.43318797 -149.01675415 153.10424423 C-149.15737047 124.39849827 -143.4095096 98.70563056 -129.51301575 73.50120544 C-128.99916321 72.55253601 -128.99916321 72.55253601 -128.47492981 71.58470154 C-122.95664507 61.49698903 -116.32811312 52.91287514 -108.51301575 44.50120544 C-108.02961731 43.97397888 -107.54621887 43.44675232 -107.048172 42.90354919 C-92.63923926 27.32315851 -74.94327196 15.97399943 -55.26301575 8.18870544 C-54.10551819 7.71847961 -54.10551819 7.71847961 -52.92463684 7.23875427 C-35.72225137 0.76579873 -18.1720789 -0.08194664 0 0 Z " fill="#945A3D" transform="translate(355.5130157470703,177.49879455566406)"/>
<path d="M0 0 C4.41134409 1.87454062 8.84810812 3.54999823 13.375 5.125 C18.59164057 6.95740942 23.59058411 9.02402034 28.59375 11.37109375 C31.51401247 12.71793894 34.46509656 13.96025767 37.4375 15.1875 C42.43535539 17.25113061 47.38147451 19.40739073 52.3125 21.625 C53.77062482 22.27130397 55.22896193 22.91712917 56.6875 23.5625 C58.22958429 24.24906274 59.77122796 24.93661577 61.3125 25.625 C62.19035156 26.016875 63.06820312 26.40875 63.97265625 26.8125 C69.39284699 29.251967 74.73543726 31.79697615 80.0234375 34.51171875 C82.30148249 35.65538779 82.30148249 35.65538779 84.69140625 36.56640625 C88.54522629 38.1228671 92.20759624 40.03301995 95.91577148 41.90551758 C96.65512939 42.27829834 97.3944873 42.6510791 98.15625 43.03515625 C98.96191406 43.44137207 99.76757812 43.84758789 100.59765625 44.26611328 C103.65180272 45.79483443 106.7159911 47.30228128 109.78125 48.80859375 C121.31683123 54.49422899 132.77745252 60.27296072 144 66.5625 C144.91273682 67.06934326 145.82547363 67.57618652 146.76586914 68.09838867 C163.71870989 77.74579474 174.58219406 89.73886667 180.3125 108.625 C180.87818676 111.18818357 181.40125516 113.73322254 181.875 116.3125 C182.00068359 116.95638672 182.12636719 117.60027344 182.25585938 118.26367188 C184.08121582 128.04031923 184.4644584 137.82461428 184.4453125 147.75 C184.44674759 149.41397827 184.44674759 149.41397827 184.44821167 151.11157227 C184.4488872 153.43424538 184.44707707 155.75692044 184.44287109 158.07958984 C184.43747281 161.6429461 184.44285824 165.20617865 184.44921875 168.76953125 C184.44855866 171.03385444 184.44727892 173.29817756 184.4453125 175.5625 C184.44733673 176.62807129 184.44936096 177.69364258 184.45144653 178.79150391 C184.44829437 179.77683105 184.44514221 180.7621582 184.44189453 181.77734375 C184.44070114 183.0765979 184.44070114 183.0765979 184.43948364 184.40209961 C184.3125 186.625 184.3125 186.625 183.3125 189.625 C183.13826387 191.96726515 183.01492181 194.31342142 182.91796875 196.66015625 C182.85220816 198.108846 182.7855183 199.5574938 182.71801758 201.00610352 C182.68318268 201.76819122 182.64834778 202.53027893 182.61245728 203.31546021 C181.98042643 216.64676599 180.81847713 229.65235128 178.5859375 242.8203125 C176.54526556 254.94036241 174.98008694 267.13621357 173.30239868 279.31057739 C172.86839126 282.45594931 172.43276012 285.60108991 171.99609375 288.74609375 C171.8562355 289.75593826 171.71637726 290.76578278 171.57228088 291.80622864 C170.55407193 299.08579625 169.43972354 306.34662833 168.20420837 313.59263611 C166.68776749 322.21525501 166.68776749 322.21525501 169.8125 330 C173.72480574 336.15960694 176.9141701 342.60041242 180.10400391 349.15039062 C180.95283541 350.88852316 181.80716756 352.62397498 182.66552734 354.35742188 C204.25217134 397.95526917 221.12923163 444.94484607 227.94140625 493.29980469 C228.29658374 495.52527205 228.76118791 497.68678408 229.28125 499.87890625 C230.71843586 506.10238553 231.47843708 512.4228508 232.3125 518.75 C232.4775 519.94753906 232.6425 521.14507813 232.8125 522.37890625 C233.35566464 526.4568845 233.84756433 530.53749331 234.3125 534.625 C234.45070663 535.80816299 234.45070663 535.80816299 234.59170532 537.01522827 C236.58505593 554.63424113 236.58738877 572.20605211 236.50811768 589.90771484 C236.49729899 592.94605826 236.49769534 595.98435719 236.49812222 599.02271652 C236.49757138 615.57832185 236.31817304 632.09432055 235.3125 648.625 C235.25239243 649.64939682 235.25239243 649.64939682 235.19107056 650.69448853 C234.95253501 654.71572322 234.67357374 658.73282611 234.375 662.75 C234.30087891 663.83796875 234.22675781 664.9259375 234.15039062 666.046875 C232.54805877 687.88027486 232.54805877 687.88027486 227.3125 692.625 C224.17378812 694.19435594 221.77394178 693.97701103 218.3125 693.625 C215.375 692 215.375 692 213.3125 688.625 C212.27238145 680.71576522 213.44090096 672.73005816 214.44343567 664.86787415 C217.05829235 644.11809679 217.64008537 623.39237321 217.57324219 602.5090332 C217.56177258 598.89006479 217.56866705 595.27138835 217.58014107 591.65242958 C217.61708808 577.84549444 217.59788805 564.13016844 215.77783203 550.41772461 C215.29271336 546.4637275 215.08411609 542.60454279 214.9375 538.625 C213.93676353 518.10334724 209.65185529 497.66096272 205.3125 477.625 C205.06129395 476.45066406 204.81008789 475.27632812 204.55126953 474.06640625 C199.52273108 450.78670588 193.2391473 427.76451743 183.875 405.8125 C182.24681937 401.95041678 180.74643011 398.08500444 179.375 394.125 C177.60245466 389.13747364 175.34451546 384.51715971 172.875 379.83984375 C171.63460948 377.28774026 170.59806275 374.80781866 169.58984375 372.1640625 C167.11668559 365.88247576 164.00488229 359.94682073 160.87670898 353.97485352 C159.87600432 352.06441734 158.88175408 350.15073592 157.88867188 348.23632812 C154.77247233 342.24523701 151.63010611 336.28695721 148.18310547 330.47680664 C146.06002305 325.96094009 147.08418889 321.58585912 148.19750977 316.90039062 C149.81677672 309.75611183 150.6376884 302.47508023 151.58984375 295.21875 C151.80370254 293.60994567 152.01786586 292.00118179 152.23231506 290.39245605 C152.68097497 287.02057875 153.12704226 283.64837258 153.57104492 280.27587891 C154.12982718 276.03192613 154.69332986 271.78861852 155.25853539 267.54551697 C159.00289198 239.6120727 159.00289198 239.6120727 162.3125 211.625 C162.46649261 210.23456482 162.46649261 210.23456482 162.62359619 208.81604004 C164.24724883 193.7359446 164.65526626 178.74229587 164.62817383 163.58056641 C164.62499111 159.86461602 164.64867149 156.14944797 164.67382812 152.43359375 C165.26517923 121.39679176 165.26517923 121.39679176 151.6875 94.578125 C121.66188573 69.886008 77.28356102 53.94313701 41.8125 38.625 C36.03508309 36.13002913 30.26997135 33.61761613 24.546875 31 C14.26644326 26.30707824 3.805999 22.32801324 -6.95703125 18.8984375 C-9.77158466 17.93765801 -12.45020852 16.90266789 -15.1875 15.7578125 C-21.27728887 13.29192355 -27.55094418 11.49405699 -33.86254883 9.69775391 C-35.8558414 9.13045263 -37.84701102 8.5561744 -39.83789062 7.98046875 C-46.46518179 6.07089123 -53.10708687 4.21559892 -59.765625 2.41796875 C-60.93899414 2.10110107 -62.11236328 1.7842334 -63.32128906 1.45776367 C-77.83201973 -2.13203197 -92.69513719 -2.47197408 -107.5625 -2.625 C-109.31071045 -2.657146 -109.31071045 -2.657146 -111.09423828 -2.68994141 C-119.93666519 -2.72424885 -127.06270861 -1.81051164 -133.6875 4.625 C-137.77584258 10.30104843 -137.42109351 15.87260517 -136.6875 22.625 C-135.23148738 27.56504281 -131.92220267 30.63547554 -127.859375 33.58203125 C-121.85876473 36.46361927 -115.69763523 36.91461353 -109.1640625 36.93359375 C-107.54947554 36.95875284 -105.93489229 36.98415088 -104.3203125 37.00976562 C-101.8170671 37.03842313 -99.31388584 37.06248959 -96.81054688 37.08129883 C-78.76707688 37.2427815 -78.76707688 37.2427815 -70.6875 40.625 C-69.57761719 41.08519531 -68.46773438 41.54539062 -67.32421875 42.01953125 C-65.86435547 42.72142578 -65.86435547 42.72142578 -64.375 43.4375 C-63.27800781 43.95699219 -62.18101562 44.47648437 -61.05078125 45.01171875 C-59.38595703 45.81029297 -59.38595703 45.81029297 -57.6875 46.625 C-51.55248221 49.5378748 -45.49059801 52.41534131 -39.0625 54.625 C-34.19316725 56.32145849 -29.84922248 58.58210218 -25.390625 61.16015625 C-22.85179813 62.53596561 -20.27760337 63.67659727 -17.61621094 64.79174805 C-3.05890201 71.08087404 10.78526199 79.07623397 24.49365234 87 C27.11969391 88.51385178 29.75583368 90.00836069 32.39453125 91.5 C44.57267147 98.46312738 56.26587541 106.10254626 67.9375 113.875 C69.09685562 114.64561264 69.09685562 114.64561264 70.27963257 115.43179321 C102.17111209 136.66776265 102.17111209 136.66776265 103.80908203 143.78173828 C104.01676593 146.28383475 103.98923127 148.67959367 103.875 151.1875 C103.84055786 152.55745117 103.84055786 152.55745117 103.80541992 153.95507812 C102.39132643 193.50919669 89.50979572 228.80458164 66.3125 260.625 C65.8896875 261.20620605 65.466875 261.78741211 65.03125 262.38623047 C50.53456962 282.14362025 50.53456962 282.14362025 42.3125 287.625 C38.4151276 288.13335292 36.80693274 287.95462183 33.5 285.75 C30.82058046 283.1471353 30.40409009 282.19743804 29.8125 278.5 C30.42367137 273.7634219 31.80562534 272.44509773 35.00390625 269.0859375 C45.10396905 258.3193731 53.45188835 246.07623182 61.3125 233.625 C61.70985352 232.99706543 62.10720703 232.36913086 62.51660156 231.72216797 C68.08549088 222.7987902 72.07416282 213.5967654 75.3125 203.625 C75.54066406 202.92391113 75.76882813 202.22282227 76.00390625 201.50048828 C79.58011037 190.23799975 81.80430586 178.89913358 83.02392578 167.1484375 C83.30097047 164.72582 83.68856864 162.34208357 84.08984375 159.9375 C84.68530627 155.37579599 84.67944426 152.07328351 83.3125 147.625 C79.42389539 142.89204351 73.95544524 139.96890123 68.69384766 136.99267578 C65.74364981 135.29829313 62.93256587 133.4339922 60.10473633 131.54492188 C56.54517961 129.17897623 52.92626003 126.90692828 49.3125 124.625 C48.51360352 124.11855957 47.71470703 123.61211914 46.89160156 123.09033203 C26.83489853 110.40753169 6.21296195 98.85081419 -14.91259766 88.04833984 C-17.54630396 86.69742415 -20.17002023 85.32868351 -22.79296875 83.95703125 C-35.77876338 77.24208032 -49.11443012 71.446783 -62.56933594 65.75073242 C-63.29651825 65.44273209 -64.02370056 65.13473175 -64.7729187 64.81739807 C-66.19842042 64.21667473 -67.62575672 63.6202848 -69.05496216 63.02842712 C-72.51806279 61.58779326 -75.80525985 60.01684189 -79.08984375 58.21484375 C-86.60843686 54.84078182 -96.29511865 56.10368259 -104.39306641 56.13427734 C-120.43254117 56.15033287 -133.92630291 53.9011062 -146.52734375 43.0390625 C-153.90407871 35.34323213 -157.08981787 24.05730242 -156.96484375 13.62890625 C-156.08389922 4.08740849 -151.34726212 -5.19163529 -144.2421875 -11.5703125 C-109.01373304 -38.76948959 -36.83035713 -16.02254953 0 0 Z " fill="#955C3F" transform="translate(556.6875,275.375)"/>
<path d="M0 0 C1.77310112 1.38764436 3.52261976 2.80583867 5.25 4.25 C6.23613281 5.06210937 7.22226562 5.87421875 8.23828125 6.7109375 C25.62373979 21.52824673 36.57261749 42.55480433 39.25 65.25 C40.86937477 88.90349043 34.31389432 111.80192307 18.76953125 129.98144531 C6.5366172 143.68793678 -7.35680392 151.71494839 -24.75 157.25 C-25.58402344 157.51683594 -26.41804688 157.78367187 -27.27734375 158.05859375 C-46.87001224 163.05145303 -69.20324003 158.26679175 -86.578125 148.69140625 C-93.33998437 144.60218124 -99.05013401 139.69479454 -104.75 134.25 C-105.36488281 133.70988281 -105.97976563 133.16976562 -106.61328125 132.61328125 C-121.79884415 118.75427327 -131.04399281 95.48235624 -132.19921875 75.2578125 C-132.9619813 50.25856625 -125.00572277 28.93282235 -108.75390625 9.9140625 C-80.51965434 -19.74042341 -33.25287492 -23.2817833 0 0 Z M-96.75 24.25 C-108.79782639 38.96206117 -115.03658781 56.14100734 -113.75 75.25 C-112.05812605 91.49869037 -105.97115139 106.2131657 -94.75 118.25 C-94.12480469 118.95382812 -93.49960937 119.65765625 -92.85546875 120.3828125 C-82.81426174 131.13978783 -68.05389496 139.33195842 -53.22070312 140.4387207 C-50.58153985 140.51703046 -47.95264554 140.52317611 -45.3125 140.5 C-44.43529297 140.50773438 -43.55808594 140.51546875 -42.65429688 140.5234375 C-33.29129015 140.49583836 -25.07369764 138.96966634 -16.75 134.625 C-15.71927368 134.09386597 -15.71927368 134.09386597 -14.66772461 133.55200195 C1.14151585 125.16164369 12.32493499 111.70726575 18.09716797 94.76318359 C20.11584877 88.05695625 20.7287913 81.85732367 20.625 74.875 C20.60759766 73.36292969 20.60759766 73.36292969 20.58984375 71.8203125 C20.13669356 51.13533926 11.40956683 34.93338892 -3.3125 20.625 C-17.10457972 8.60222881 -35.08271739 2.55419822 -53.26953125 2.9453125 C-70.21383728 4.42865242 -85.21029775 11.61685727 -96.75 24.25 Z " fill="#955B3F" transform="translate(531.75,418.75)"/>
<path d="M0 0 C6.79211749 3.15146726 8.95831569 8.87629855 12.125 15.375 C13.26728925 17.65086626 14.41186538 19.92558598 15.55859375 22.19921875 C16.13206543 23.34310059 16.70553711 24.48698242 17.29638672 25.66552734 C19.33814228 29.66184397 21.4966344 33.58232725 23.68579102 37.49926758 C37.98263487 63.09226834 48.97576085 90.00897844 54 119 C54.21140625 120.13566406 54.4228125 121.27132812 54.640625 122.44140625 C56.7470035 134.22208028 57.26914817 145.98844416 57.3125 157.9375 C57.31578308 158.68401825 57.31906616 159.4305365 57.32244873 160.19967651 C57.339554 172.41364391 56.52461375 184.4321462 55.125 196.5625 C55.03795807 197.31981415 54.95091614 198.0771283 54.86123657 198.85739136 C52.19988543 221.56013748 52.19988543 221.56013748 48.8125 225.625 C45.16996983 227.40579253 43.008154 227.64416761 39 227 C36.0625 225.25 36.0625 225.25 34 222 C32.85330798 214.42705476 34.31319788 206.62740047 35.46484375 199.12890625 C37.12759848 187.07164629 37.21612115 174.98596072 37.24023438 162.83691406 C37.24991295 159.90140134 37.28102173 156.96659871 37.3125 154.03125 C37.39905005 138.44716514 35.74522695 123.62207107 31.67578125 108.5546875 C31.05568911 106.21052415 30.57826989 103.88072597 30.125 101.5 C29.10856781 96.82105181 27.24834836 92.60212514 25.34375 88.22265625 C23.97338995 84.93618229 22.82366546 81.62395082 21.6875 78.25 C19.0846151 70.81318599 15.64372335 63.9010555 11.99560547 56.92773438 C10.63754694 54.29820271 9.32206395 51.6477759 8 49 C7.99780016 50.32274949 7.99780016 50.32274949 7.99555588 51.67222118 C7.95851716 73.12123799 7.89954146 94.5700964 7.81609726 116.01898479 C7.77627433 126.39148407 7.74389837 136.76390711 7.72900391 147.13647461 C7.71600425 156.17636676 7.68908279 165.21609141 7.64538693 174.25588924 C7.62273414 179.04319266 7.6070916 183.83028921 7.60811615 188.61765099 C7.60886051 193.12309724 7.59100014 197.62808552 7.55883217 202.13341331 C7.55030908 203.78738823 7.54859955 205.44141437 7.55419731 207.09540176 C7.56082286 209.3537855 7.54295386 211.6107059 7.51898193 213.86894226 C7.51529476 215.13272044 7.51160759 216.39649862 7.50780869 217.69857311 C6.91041607 221.58241381 5.73527865 223.23302934 3 226 C-0.17287965 227.58643982 -3.62114991 227.96799489 -7 227 C-10.35289119 223.78987774 -12.26530926 221.61078103 -12.62641239 216.91794491 C-12.65246219 215.32880568 -12.65124897 213.73907251 -12.62818909 212.14988708 C-12.63528347 211.27032461 -12.64237786 210.39076213 -12.64968723 209.48454624 C-12.66726117 206.54320538 -12.64916551 203.60318699 -12.63110352 200.66186523 C-12.63624251 198.55088703 -12.64352364 196.43991311 -12.65278625 194.32894897 C-12.67130958 188.59965098 -12.65835594 182.87081801 -12.63869596 177.14153934 C-12.62231818 171.14741897 -12.63112104 165.15332826 -12.63621521 159.15919495 C-12.64073677 149.09409144 -12.62486141 139.02917375 -12.59692383 128.96411133 C-12.56486308 117.32376295 -12.56489091 105.68374953 -12.5821386 94.04337734 C-12.59799536 82.84883764 -12.59127613 71.65442087 -12.57420158 60.45988655 C-12.56732495 55.6940185 -12.56836983 50.92824881 -12.57574654 46.16238213 C-12.58340065 40.55213525 -12.57131146 34.94227021 -12.54389763 29.33208847 C-12.53700392 27.27173433 -12.53692633 25.21134458 -12.54411316 23.15099144 C-12.55278546 20.34127618 -12.53688945 17.53274536 -12.5146637 14.72312927 C-12.52290446 13.90523231 -12.53114523 13.08733536 -12.53963572 12.24465364 C-12.48419487 8.4548921 -12.15504287 6.24247788 -10.09283352 3.01730442 C-6.74910953 -0.20574659 -4.59908153 -0.44221938 0 0 Z " fill="#965D40" transform="translate(496,742)"/>
<path d="M0 0 C2.9375 1.5625 2.9375 1.5625 5 4 C5.9449627 8.88230729 5.9449627 8.88230729 5 12 C0.70923659 17.12229397 -5.61819242 20.31645635 -11.375 23.5 C-12.27694092 24.00772949 -13.17888184 24.51545898 -14.1081543 25.03857422 C-17.06710026 26.70151547 -20.0325394 28.35230461 -23 30 C-40.31496969 39.53860913 -40.31496969 39.53860913 -57.3125 49.625 C-58.26249878 50.20918701 -58.26249878 50.20918701 -59.23168945 50.80517578 C-62.56705653 52.91069868 -65.23733197 55.2057225 -68 58 C-68.66 58 -69.32 58 -70 58 C-70.26167969 58.5775 -70.52335937 59.155 -70.79296875 59.75 C-72.07214292 62.13448 -73.55707841 63.94487228 -75.3125 66 C-79.42618408 71.21693823 -81.88564239 76.72933668 -84 83 C-84.26184082 83.68400879 -84.52368164 84.36801758 -84.79345703 85.07275391 C-88.10493056 94.95613816 -87.45417184 105.33348167 -87.375 115.625 C-87.3713443 116.66186951 -87.3676886 117.69873901 -87.36392212 118.76702881 C-87.28835222 137.20009514 -86.16901319 155.43343874 -84.6394043 173.79252625 C-83.7126289 185.16077473 -83.1219883 196.54932295 -82.5 207.9375 C-82.37618296 210.17733889 -82.25215939 212.41716638 -82.12792969 214.65698242 C-81.94063504 218.03561213 -81.75346481 221.41424812 -81.56698608 224.79292297 C-80.9416938 236.1079464 -80.29447757 247.42160851 -79.62597656 258.73416138 C-79.50302599 260.82382333 -79.38138244 262.91356272 -79.26123047 265.00338745 C-78.6053252 276.40336206 -77.79190942 287.76801895 -76.71961975 299.13667297 C-75.4137171 313.06527958 -74.66517117 327.02791382 -74 341 C-73.91758057 342.68101807 -73.91758057 342.68101807 -73.83349609 344.39599609 C-73.71009856 347.20183175 -73.62513257 350.00474073 -73.5625 352.8125 C-73.52817871 353.59318848 -73.49385742 354.37387695 -73.45849609 355.17822266 C-73.42745297 359.09054323 -73.86815172 360.82760045 -76.2734375 363.97265625 C-79.92446192 366.68738644 -79.92446192 366.68738644 -83.0625 366.625 C-87 366 -87 366 -89.4375 363.625 C-91.51105046 360.14143523 -92.18071995 358.06213363 -92.5 354.0390625 C-92.62290405 352.50946899 -92.62290405 352.50946899 -92.74829102 350.94897461 C-92.83135498 349.85206299 -92.91441895 348.75515137 -93 347.625 C-93.08757568 346.50552979 -93.17515137 345.38605957 -93.26538086 344.23266602 C-93.86624293 336.34306138 -94.3416344 328.45350574 -94.65820312 320.54736328 C-94.83463912 316.36240943 -95.20284272 312.27936836 -95.76147461 308.12329102 C-96.33334628 303.0326381 -96.40728689 297.89337171 -96.60546875 292.77734375 C-96.64285156 291.89175781 -96.68023437 291.00617188 -96.71875 290.09375 C-96.74904297 289.30677734 -96.77933594 288.51980469 -96.81054688 287.70898438 C-97.01218557 284.82575892 -97.38762182 281.97968712 -97.75820923 279.11416626 C-98.15379972 275.65520845 -98.30833027 272.19153075 -98.46484375 268.71484375 C-98.54356093 267.1139294 -98.62233914 265.51301804 -98.70117188 263.91210938 C-98.81876606 261.45180728 -98.93498775 258.99145051 -99.04956055 256.53100586 C-99.49888734 246.98013114 -100.09899201 237.46741932 -100.97265625 227.9453125 C-102.15726555 214.95994789 -102.8343071 201.95811602 -103.5 188.9375 C-103.75382129 184.05844998 -104.01065455 179.17956555 -104.26953125 174.30078125 C-104.33175369 173.12594177 -104.39397614 171.95110229 -104.45808411 170.74066162 C-104.92709362 162.02527877 -105.53023191 153.32788496 -106.1875 144.625 C-108.504384 112.16533879 -110.45312348 76.18247382 -87.8684082 49.82788086 C-75.69276962 36.45398587 -60.0426529 28.43541031 -44.37255859 19.85400391 C-38.7282378 16.75113927 -33.11586741 13.59147376 -27.5 10.4375 C-24.55793545 8.78847433 -21.61547147 7.14030896 -18.66894531 5.49926758 C-16.90997165 4.51117233 -15.15899997 3.50867475 -13.41699219 2.4909668 C-12.22831543 1.80321167 -12.22831543 1.80321167 -11.015625 1.1015625 C-9.98356934 0.49368896 -9.98356934 0.49368896 -8.93066406 -0.12646484 C-5.64501693 -1.61306644 -3.3389643 -1.09158448 0 0 Z " fill="#955B3E" transform="translate(515,603)"/>
<path d="M0 0 C3.375 2.0625 3.375 2.0625 6 5 C6.71511705 9.00465547 6.60600028 11.02221864 4.45556641 14.49194336 C1.31079863 17.70393375 -1.78071237 19.00043071 -5.9140625 20.62890625 C-6.68374359 20.94528549 -7.45342468 21.26166473 -8.24642944 21.58763123 C-10.700695 22.5927745 -13.16246208 23.57782263 -15.625 24.5625 C-17.25704338 25.22720855 -18.88855985 25.89321238 -20.51953125 26.56054688 C-27.69639389 29.48981347 -34.8966443 32.36021864 -42.09814453 35.22827148 C-44.46189353 36.1874256 -46.78939123 37.22461079 -49.125 38.25 C-53.74039821 40.07148577 -57.06203699 40.76623564 -62 40 C-65.26104325 37.30963932 -65.9034571 35.67580027 -66.5 31.5 C-65.88913133 27.22391934 -65.06083044 26.03522653 -62 23 C-58.91555535 21.29110744 -55.68839357 20.02863949 -52.40625 18.75 C-50.99249084 18.17910645 -50.99249084 18.17910645 -49.5501709 17.59667969 C-46.53872729 16.38409461 -43.51975885 15.1917056 -40.5 14 C-38.49945957 13.19926555 -36.49945328 12.39719523 -34.5 11.59375 C-30.67955793 10.05930236 -26.85489448 8.53614624 -23.02734375 7.01953125 C-20.04064325 5.83052094 -17.07250338 4.61624058 -14.12890625 3.32421875 C-13.08605469 2.86660156 -12.04320312 2.40898438 -10.96875 1.9375 C-10.12763672 1.55464844 -9.28652344 1.17179688 -8.41992188 0.77734375 C-5.45419961 -0.17532571 -3.09845575 -0.26707228 0 0 Z " fill="#965D40" transform="translate(875,645)"/>
<path d="M0 0 C3.65788473 0.74849954 5.15414164 2.42038457 7.1953125 5.44921875 C7.82672986 10.63706796 6.38973043 13.5333092 3.73046875 17.9375 C3.37066422 18.54145096 3.01085968 19.14540192 2.64015198 19.76765442 C1.50374345 21.66894532 0.34994746 23.5589553 -0.8046875 25.44921875 C-1.51971211 26.64162471 -2.23344423 27.83480678 -2.94580078 29.02880859 C-4.71228811 31.98241707 -6.49560508 34.92537328 -8.28686523 37.86401367 C-9.37258789 39.64558027 -10.45504302 41.42910144 -11.53710938 43.21289062 C-13.61413583 46.63250943 -15.70747296 50.04193848 -17.8046875 53.44921875 C-18.45808105 54.51865723 -19.11147461 55.5880957 -19.78466797 56.68994141 C-20.39842285 57.67913574 -21.01217773 58.66833008 -21.64453125 59.6875 C-22.18327881 60.56059814 -22.72202637 61.43369629 -23.27709961 62.33325195 C-24.8046875 64.44921875 -24.8046875 64.44921875 -27.8046875 66.44921875 C-34.92333157 67.12718485 -34.92333157 67.12718485 -38.2421875 64.57421875 C-40.86038918 61.01346446 -41.16808589 58.87794926 -40.8046875 54.44921875 C-39.45043945 51.546875 -39.45043945 51.546875 -37.54296875 48.51171875 C-37.20059174 47.95778442 -36.85821472 47.4038501 -36.50546265 46.83312988 C-35.3880722 45.03067062 -34.25287281 43.24019536 -33.1171875 41.44921875 C-31.94725165 39.57357946 -30.78175062 37.69523109 -29.61634827 35.81677246 C-28.82882515 34.54828705 -28.039704 33.2807924 -27.24900818 32.01428223 C-22.98195752 25.16913311 -18.93005074 18.19989085 -14.91723633 11.203125 C-8.16784284 -0.39087037 -8.16784284 -0.39087037 0 0 Z " fill="#955C3F" transform="translate(821.8046875,571.55078125)"/>
<path d="M0 0 C2.16687479 0.58253312 4.10878837 1.31291309 6.16015625 2.21484375 C8.59995104 3.25603006 11.12678213 3.80601383 13.703125 4.41015625 C16.48590867 5.12478267 19.20083703 6.00022092 21.9375 6.875 C27.92495288 8.75657106 33.9514785 10.21976444 40.08764648 11.51708984 C45.30758825 12.66884713 51.93507324 14.23233616 55 19 C55.54763378 23.22460345 55.473273 25.27431473 53.125 28.875 C50.40230918 31.59769082 49.64560011 31.96647246 45.765625 32.16796875 C42.08967526 32.00400004 39.24949552 31.40286006 35.75 30.3125 C33.92662109 29.76529297 33.92662109 29.76529297 32.06640625 29.20703125 C31.4130127 29.01061035 30.75961914 28.81418945 30.08642578 28.61181641 C26.3059253 27.50323529 22.49748169 26.50165087 18.6875 25.5 C17.88965088 25.28915771 17.09180176 25.07831543 16.26977539 24.86108398 C12.26509606 23.81366911 8.25560415 22.81454402 4.21875 21.8984375 C3.07466675 21.63836914 3.07466675 21.63836914 1.9074707 21.37304688 C0.47537329 21.05175811 -0.95831179 20.73742883 -2.39379883 20.43164062 C-8.04791398 19.1700307 -12.70164043 17.94753936 -16 13 C-16.3359375 10.87890625 -16.3359375 10.87890625 -16.375 8.5625 C-16.40335938 7.80066406 -16.43171875 7.03882813 -16.4609375 6.25390625 C-14.77241798 -2.00266802 -6.56814492 -0.71944886 0 0 Z " fill="#975F42" transform="translate(833,724)"/>
<path d="M0 0 C3.53512069 2.0085913 4.76212708 3.32143621 6.11328125 7.17578125 C7.02115389 11.09123199 7.36798672 14.60958556 7.4375 18.625 C7.47746094 19.89601563 7.51742187 21.16703125 7.55859375 22.4765625 C6.85962788 26.88542414 5.48992906 28.30530877 2 31 C-1.5 31.625 -1.5 31.625 -5 31 C-8.67100046 28.04723876 -10.56027263 25.79982383 -11.30053711 21.08642578 C-11.54613414 18.76792635 -11.74724608 16.44868375 -11.9375 14.125 C-12.03095703 13.32191406 -12.12441406 12.51882813 -12.22070312 11.69140625 C-12.66430344 5.90075267 -12.66430344 5.90075267 -10.7722168 3.33520508 C-7.22108078 0.24919696 -4.63810948 -0.88814862 0 0 Z " fill="#965F44" transform="translate(733,805)"/>
<path d="M0 0 C4.14741251 0.66654844 5.51137711 1.6546507 8.5 4.5625 C10.08203125 7.76953125 10.08203125 7.76953125 11.3125 11.375 C11.73144531 12.55707031 12.15039062 13.73914063 12.58203125 14.95703125 C13.53371975 18.69493968 13.8152892 21.72339029 13.5 25.5625 C10.91370196 29.24601539 9.43024874 30.37977257 5 31.25 C1.35007082 30.53304962 -0.1321869 29.75702223 -2.30078125 26.73828125 C-5.88808999 20.22971132 -9.22326963 13.11428581 -8.5 5.5625 C-5.88580444 1.91846982 -4.45776553 0.7164266 0 0 Z " fill="#945E43" transform="translate(706.5,713.4375)"/>
<path d="M0 0 C2.28480068 1.65648049 3.34398147 2.79830202 5 5 C5.68707031 5.825 6.37414062 6.65 7.08203125 7.5 C13.52398811 15.62295786 13.52398811 15.62295786 13.8125 20.4375 C13 24 13 24 10.9375 26.5 C7.22693494 28.39475662 5.11629392 28.66154724 1 28 C-1.204931 26.36043592 -2.35305109 25.13459301 -4 23 C-4.68835938 22.175 -5.37671875 21.35 -6.0859375 20.5 C-12.52510214 12.36631835 -12.52510214 12.36631835 -12.75 7.5625 C-12 4 -12 4 -10.5 1.5 C-7.00586667 -0.59648 -3.90764866 -0.86487194 0 0 Z " fill="#945C3F" transform="translate(643,593)"/>
<path d="M0 0 C6.35661572 2.3837309 8.99875014 7.99130291 11.875 13.875 C13.49211383 17.85611498 14.33024969 20.99520163 13.5 25.3125 C10.62523221 28.52950205 8.65917083 30.05227798 4.4375 31 C1.14012245 30.22827334 -0.21476453 29.13932128 -2.19921875 26.41796875 C-9.72262455 14.24044405 -9.72262455 14.24044405 -10.25 8.375 C-9.5 5.3125 -9.5 5.3125 -6.9375 2.3125 C-3.5 0.3125 -3.5 0.3125 0 0 Z " fill="#996246" transform="translate(689.5,670.6875)"/>
<path d="M0 0 C3.17351577 1.58675788 4.16619549 2.12703961 6 5 C8.07187045 11.45706993 9.48523216 18.19704514 9 25 C7.00366611 27.86972996 5.52770117 29.65210765 2.02734375 30.44921875 C-1.30158729 30.62966548 -3.47571742 30.40447395 -6.13671875 28.3515625 C-11.07545291 22.11861079 -11.85695089 11.71255801 -11 4 C-8.20768727 -0.57939287 -5.10626589 -0.7923516 0 0 Z " fill="#935C40" transform="translate(724,759)"/>
<path d="M0 0 C3.37277188 0.85418431 4.79619424 1.87844987 7.09765625 4.53125 C7.79803283 8.0442744 7.70419586 11.46217316 7.59765625 15.03125 C7.60152344 16.45630859 7.60152344 16.45630859 7.60546875 17.91015625 C7.49412605 25.8266223 7.49412605 25.8266223 4.09765625 29.53125 C2.01171875 30.31640625 2.01171875 30.31640625 -0.27734375 30.59375 C-1.40269531 30.76583984 -1.40269531 30.76583984 -2.55078125 30.94140625 C-6.41771899 30.26694036 -7.64834771 28.69860444 -9.90234375 25.53125 C-10.6036358 21.99159029 -10.55593638 18.56567809 -10.46484375 14.96875 C-10.47580078 14.02322266 -10.48675781 13.07769531 -10.49804688 12.10351562 C-10.42590682 5.2983042 -10.42590682 5.2983042 -8.11328125 1.91015625 C-5.4379234 0.24160268 -3.12617525 0.04972048 0 0 Z " fill="#935A3D" transform="translate(735.90234375,851.46875)"/>
<path d="M0 0 C4.99942496 1.87478436 6.76685726 4.87207905 9.5 9.3125 C10.00144531 10.06660156 10.50289062 10.82070313 11.01953125 11.59765625 C13.34912424 15.33912379 14.47834236 17.65194206 14.625 22.125 C13.25388519 26.00982531 12.09079623 27.31761321 8.5 29.3125 C5.5625 30 5.5625 30 2.5 29.3125 C0.0312078 27.30540401 -1.69355891 24.91562792 -3.5 22.3125 C-4.06460938 21.50554688 -4.62921875 20.69859375 -5.2109375 19.8671875 C-7.69872324 16.0479108 -9.36444711 13.00156052 -10.25 8.5 C-9.5 5.3125 -9.5 5.3125 -6.9375 2.3125 C-3.5 0.3125 -3.5 0.3125 0 0 Z " fill="#935B3F" transform="translate(667.5,630.6875)"/>
<path d="M0 0 C3.95187867 0.80650585 6.59078529 2.48347849 9.0625 5.625 C9.90229458 8.49026708 9.86016383 11.15826238 9.75 14.125 C9.76482422 14.87136719 9.77964844 15.61773438 9.79492188 16.38671875 C9.73293943 20.50672853 9.35508313 22.23556527 6.80859375 25.625 C3.98119315 27.68421637 2.86156401 28.26619852 -0.5625 28.125 C-1.31789063 28.1146875 -2.07328125 28.104375 -2.8515625 28.09375 C-5.46584767 27.50627019 -6.26833297 26.6984958 -7.9375 24.625 C-8.58522998 21.53171277 -8.4469706 18.40370928 -8.4375 15.25 C-8.46585938 14.39921875 -8.49421875 13.5484375 -8.5234375 12.671875 C-8.53742017 8.18343815 -8.39790244 6.22559154 -5.58984375 2.5625 C-2.9375 0.625 -2.9375 0.625 0 0 Z " fill="#945B3E" transform="translate(733.9375,897.375)"/>
<path d="M0 0 C0.33 0 0.66 0 1 0 C1.1697431 6.75842941 1.32933018 13.51704647 1.48217773 20.27587891 C1.53523044 22.57052925 1.59052594 24.86512896 1.64819336 27.15966797 C1.73114087 30.47612592 1.80576193 33.79268802 1.87890625 37.109375 C1.91945885 38.62419464 1.91945885 38.62419464 1.96083069 40.1696167 C2.346293 58.96889679 2.346293 58.96889679 -1 67 C-1.33 67 -1.66 67 -2 67 C-1.93433838 65.99791504 -1.86867676 64.99583008 -1.80102539 63.96337891 C-0.96001756 50.44051808 -0.68064784 36.91982318 -0.4375 23.375 C-0.39417901 21.09634847 -0.3505611 18.81770256 -0.30664062 16.5390625 C-0.20101295 11.02610165 -0.09901628 5.51308336 0 0 Z " fill="#B18A75" transform="translate(722,415)"/>
<path d="M0 0 C0.66 0.66 1.32 1.32 2 2 C1.2884375 2.7734375 1.2884375 2.7734375 0.5625 3.5625 C-1.42809407 6.66782675 -1.65060818 9.36632504 -2 13 C-1.34 13 -0.68 13 0 13 C0 13.66 0 14.32 0 15 C1.65 15.33 3.3 15.66 5 16 C3.02 16.99 3.02 16.99 1 18 C-3.85172982 13.30477759 -3.85172982 13.30477759 -4.3125 9.25 C-3.92590899 5.22945347 -2.41771035 3.17324483 0 0 Z " fill="#9D674C" transform="translate(785,620)"/>
<path d="M0 0 C3.75345656 0.71971619 6.86091969 2.33112202 10.25 4.0625 C11.32765625 4.61035156 12.4053125 5.15820312 13.515625 5.72265625 C14.74539063 6.35494141 14.74539063 6.35494141 16 7 C16 7.66 16 8.32 16 9 C10.31497465 7.35433477 5.23318364 4.70967216 0 2 C0 1.34 0 0.68 0 0 Z " fill="#9B664C" transform="translate(646,334)"/>
<path d="M0 0 C0.33 0 0.66 0 1 0 C0.67 6.93 0.34 13.86 0 21 C-0.33 21 -0.66 21 -1 21 C-1.22354724 18.62556577 -1.429163 16.25174905 -1.625 13.875 C-1.72167969 12.87726563 -1.72167969 12.87726563 -1.8203125 11.859375 C-2.16909098 7.41244943 -1.68247185 4.12269819 0 0 Z " fill="#B68E7A" transform="translate(738,479)"/>
<path d="M0 0 C-0.33 0.66 -0.66 1.32 -1 2 C-3.06640625 2.4140625 -3.06640625 2.4140625 -5.5625 2.625 C-6.38878906 2.69976563 -7.21507812 2.77453125 -8.06640625 2.8515625 C-9.02353516 2.92503906 -9.02353516 2.92503906 -10 3 C-9.67 2.01 -9.34 1.02 -9 0 C-3.375 -1.125 -3.375 -1.125 0 0 Z " fill="#9E684D" transform="translate(741,879)"/>
<path d="M0 0 C2.00461299 0.65266469 4.00379834 1.32204472 6 2 C6.928125 2.309375 7.85625 2.61875 8.8125 2.9375 C9.534375 3.288125 10.25625 3.63875 11 4 C11.33 4.99 11.66 5.98 12 7 C10.55903414 6.57405412 9.12231288 6.13373367 7.6875 5.6875 C6.88699219 5.44386719 6.08648437 5.20023437 5.26171875 4.94921875 C2.88859576 3.95324485 1.63095609 2.96875929 0 1 C0 0.67 0 0.34 0 0 Z " fill="#9F6A50" transform="translate(502,342)"/>
<path d="M0 0 C2.50037734 2.17424117 3.43628586 3.73045798 4 7 C3.01 7.66 2.02 8.32 1 9 C0 8 0 8 -0.09765625 6.15234375 C-0.06510417 4.1015625 -0.03255208 2.05078125 0 0 Z " fill="#F8F4F2" transform="translate(504,792)"/>
<path d="M0 0 C0.66 0 1.32 0 2 0 C1.67 2.31 1.34 4.62 1 7 C-0.32 7.33 -1.64 7.66 -3 8 C-2.01 5.36 -1.02 2.72 0 0 Z " fill="#9D664B" transform="translate(680,649)"/>
<path d="M0 0 C3.12270126 2.51830747 3.94523098 3.7261549 4.75 7.75 C4.8325 8.8225 4.915 9.895 5 11 C2.47650757 7.87567603 0.72743854 4.61939504 -1 1 C-0.67 0.67 -0.34 0.34 0 0 Z " fill="#9A6448" transform="translate(541,452)"/>
<path d="M0 0 C0.66 0.66 1.32 1.32 2 2 C1.625 4.625 1.625 4.625 1 7 C0.34 7 -0.32 7 -1 7 C-1 7.99 -1 8.98 -1 10 C-1.66 10 -2.32 10 -3 10 C-2.01 6.7 -1.02 3.4 0 0 Z " fill="#A26F55" transform="translate(1007,954)"/>
<path d="M0 0 C0.99 0.33 1.98 0.66 3 1 C1.35 2.65 -0.3 4.3 -2 6 C-2.99 5.34 -3.98 4.68 -5 4 C-2.6875 1.9375 -2.6875 1.9375 0 0 Z " fill="#9D694D" transform="translate(528,544)"/>
<path d="M0 0 C0.66 0.66 1.32 1.32 2 2 C0.37660195 3.70884005 -1.29319053 5.37446717 -3 7 C-3.66 7 -4.32 7 -5 7 C-3.70700306 4.11562221 -2.34058637 2.12780579 0 0 Z " fill="#986449" transform="translate(593,543)"/>
<path d="M0 0 C2.92879371 0.62759865 5.36095629 1.58622659 8 3 C8 3.66 8 4.32 8 5 C2.25 3.125 2.25 3.125 0 2 C0 1.34 0 0.68 0 0 Z " fill="#A06D53" transform="translate(646,334)"/>
<path d="M0 0 C0.66 0.33 1.32 0.66 2 1 C0.63016497 4.16115776 0.0109362 4.9927092 -3 7 C-3 3.48283697 -2.17554415 2.62878252 0 0 Z " fill="#A16D52" transform="translate(991,985)"/>
</svg>
