<svg xmlns="http://www.w3.org/2000/svg" width="1254" height="1254"><path fill="none" d="M0 0h1254v1254H0z"/><path fill="#945A3D" d="M221 632c3.98 1.577 5.607 2.41 8 6 .25 2.2.25 2.2.25 4.82l.016 3.026-.014 3.334.009 3.535q.007 4.866-.003 9.732c-.004 3.498.003 6.995.008 10.492q.012 9.098.008 18.195c-.003 8.788.009 17.575.025 26.362a48869 48869 0 0 1 .082 84.34v2.575q.006 21.315.055 42.63.03 13.133.014 26.264-.008 9.02.021 18.04c.01 3.462.015 6.923.002 10.385-.055 18.292 1.094 34.35 8.277 51.395l1.043 2.526C244.297 968.713 250.847 980.163 260 991l1.309 1.566c17.455 20.667 42.04 34.864 68.691 39.434l2.92.545c11.332 1.896 22.605 1.734 34.063 1.709q3.49.003 6.98.01c6.366.008 12.732.004 19.098-.003 6.17-.005 12.338.002 18.507.007q20.083.014 40.166.004 17.573-.008 35.144-.004h2.358l9.474.002c29.605.006 59.21 0 88.815-.01q39.438-.014 78.875 0a155153 155153 0 0 0 98.123.008h2.351q17.563-.004 35.126.005 19.968.008 39.938-.007 10.189-.009 20.377 0 9.327.008 18.654-.009 3.373-.003 6.746.004c3.06.006 6.119 0 9.178-.01l2.637.015c29.14-.176 59.103-14.782 79.658-34.891 14.104-14.297 23.517-31.576 29.687-50.562l.868-2.661c3.405-11.045 4.56-22.05 4.488-33.57l.003-3.573q-.001-4.846-.02-9.694c-.01-3.5-.01-7-.01-10.5q-.003-9.08-.021-18.157c-.018-9.568-.014-19.135-.007-28.703l.007-9.837.002-2.483q.008-13.953.009-27.906v-2.574c0-13.791-.02-27.583-.044-41.374q-.036-21.266.004-42.533.023-13.105-.028-26.21-.032-8.97.005-17.941c.012-3.45.013-6.9-.016-10.35-.026-3.74-.009-7.477.019-11.217l-.054-3.304c.115-7.135.115-7.135 2.41-10.246 3.064-2.765 4.944-3.88 9.072-4.605 4.068.74 6.278 1.98 9.438 4.625 1.91 3.04 2.251 5.368 2.257 8.929l.02 3.023-.01 3.315.014 3.527q.014 4.848.01 9.696c0 3.487.01 6.973.02 10.46.017 6.835.022 13.67.023 20.506q.002 8.347.012 16.695.026 23.703.025 47.407v5.167999999999999c-.001 13.784.018 27.569.046 41.353q.043 21.267.04 42.532c0 7.95.005 15.9.027 23.849q.028 10.169.009 20.338c-.006 3.45-.007 6.9.01 10.35.18 42.893-11.852 81.445-42.226 112.579-7.776 7.813-16.069 14.25-25.277 20.273l-2.797 1.844c-19.968 12.41-43.83 19.334-67.277 19.287l-2.969.007q-4.918.006-9.837.002l-7.129.01q-8.765.01-17.53.01-10.503.002-21.006.014c-16.92.016-33.84.022-50.761.027q-12.012.004-24.024.01a240453 240453 0 0 1-105.59.03c-27.814.003-55.628.02-83.441.042a110901 110901 0 0 1-97.962.04h-2.412q-19.182.005-38.364.027-19.29.022-38.58.01-11.45-.007-22.9.015c-5.71.011-11.42.006-17.13-.005q-3.453-.002-6.906.01c-15.709.056-30.408-.858-45.385-6.068l-2.253-.772c-19.77-7.022-37.38-18.385-52.747-32.54l-2.414-2.164c-18.72-17.63-31.293-41.37-38.836-65.711l-.71-2.245c-4.121-13.98-5.492-28.069-5.368-42.571q.004-2.498.004-4.995c.004-4.638.029-9.277.057-13.915.03-5.077.044-10.155.061-15.232q.038-10.57.092-21.139c.089-17.223.131-34.445.148-51.668q.026-26.73.105-53.46c.03-10.653.052-21.306.055-31.96q.004-13.825.066-27.652c.022-4.792.035-9.585.026-14.377q-.01-6.67.042-13.338.012-2.432-.001-4.863c-.012-2.209.007-4.416.034-6.625l.008-3.731c.842-4.476 2.454-6.135 5.631-9.354 3.072-1.536 5.602-1.227 9-1M355.513 177.499q3.63-.006 7.259-.017 7.838-.017 15.675 0c7.77.018 15.54.013 23.31.003 13.882-.017 27.764-.012 41.646.003q18.218.02 36.437.016h2.447l9.834-.003c30.71-.007 61.42.008 92.13.035q40.889.034 81.777.018l23.559-.009a84761 84761 0 0 1 80.682.016q18.208.007 36.417 0 20.706-.01 41.411.02 11.576.017 23.153.005c5.77-.006 11.542.004 17.313.02q3.492.006 6.984-.003c15.865-.041 30.143 1.063 45.203 6.46l2.52.896c18.728 6.932 34.257 17.363 48.73 31.041l2.645 2.414c26.718 25.304 41.504 63.564 42.553 99.967.12 6.212.13 12.424.14 18.637l.035 7.121q.043 9.594.06 19.188.013 6.001.03 12.002c.028 11.104.053 22.208.064 33.311l.002 2.143.002 2.147.004 4.307.003 2.157c.012 11.569.055 23.137.11 34.706q.086 17.866.092 35.733c.003 6.674.018 13.349.061 20.023.04 6.267.046 12.534.027 18.801q0 3.447.033 6.893c.03 3.14.018 6.276-.006 9.415l.058 2.748c-.11 6.15-1.853 9.315-6.015 13.81-2.632 2.048-4.693 2.423-7.968 2.079-3.514-1.096-5.395-2.943-7.93-5.602-.908-2.724-1.126-4.3-1.13-7.098l-.011-2.54.003-2.789-.009-2.964q-.011-4.94-.01-9.879l-.016-7.066q-.017-7.625-.026-15.248c-.01-8.05-.031-16.1-.053-24.149l-.023-8.27-.005-2.087q-.031-11.77-.058-23.541l-.005-2.174a42536 42536 0 0 1-.061-34.766q-.028-17.875-.085-35.751-.034-10.024-.04-20.05-.003-9.448-.044-18.898-.01-3.45-.005-6.9c.02-16.868-.891-33.19-6.485-49.268l-.894-2.618c-11.278-31.614-33.221-56.279-63.543-70.694-19.335-8.878-37.929-10.698-58.862-10.624q-3.534-.005-7.067-.012c-5.769-.01-11.537-.005-17.305.005-6.917.012-13.834.006-20.75 0-13.55-.012-27.1-.007-40.649.005q-17.783.015-35.567.013h-11.975999999999999c-29.964-.005-59.927.008-89.891.029a89140 89140 0 0 1-84.948.017h-2.56l-12.76-.003h-2.543a118911 118911 0 0 0-78.704.014q-16.596.007-33.193.003-21.386-.004-42.772.017-10.31.013-20.62.007-9.44-.006-18.88.014-3.413.004-6.825-.002c-15.922-.104-15.922-.104-31.628 2.267l-2.173.483c-29.984 7.157-56.824 25.779-73.368 51.889-14.99 24.561-19.769 48.952-19.714 77.385l-.011 7.218q-.012 7.74-.008 15.483c.003 7.469-.009 14.938-.025 22.406a35598 35598 0 0 0-.081 69.467v2.2l-.001 2.198q-.006 18.141-.055 36.281c-.017 6.783-.027 13.566-.017 20.35q.012 9.555-.025 19.113-.008 3.507.005 7.016c.011 3.19-.002 6.38-.021 9.57l.027 2.81c-.066 5.54-.82 8.744-4.533 13.131-2.954 2.395-4.707 2.963-8.5 3.437-4.116-.514-5.635-1.49-8.5-4.437-1.71-2.86-2.25-4.955-2.257-8.273l-.02-2.58.01-2.82-.014-3.007c-.013-3.335-.011-6.671-.01-10.007q-.008-3.583-.02-7.166-.023-8.737-.023-17.474-.001-7.116-.012-14.233a28493 28493 0 0 1-.025-42.636V448.6c.001-11.747-.018-23.495-.046-35.242q-.043-18.134-.04-36.268c0-6.775-.005-13.551-.027-20.327q-.029-9.585-.005-19.172.003-3.494-.015-6.987c-.14-28.706 5.608-54.399 19.504-79.603l1.038-1.917C232.556 238.996 239.185 230.412 247 222l1.465-1.598c14.409-15.58 32.105-26.93 51.785-34.715l2.338-.95c17.203-6.472 34.753-7.32 52.925-7.238"/><path fill="#955C3F" d="M556.688 275.375c4.41 1.875 8.848 3.55 13.375 5.125a162 162 0 0 1 15.218 6.246c2.92 1.347 5.872 2.59 8.844 3.817A522 522 0 0 1 609 297l4.375 1.938a4286 4286 0 0 1 7.285 3.25 346 346 0 0 1 16.05 7.699c2.279 1.143 2.279 1.143 4.669 2.054 3.854 1.557 7.516 3.467 11.224 5.34a683722161.667 683722161.667 0 0 0 4.682 2.36c3.054 1.529 6.118 3.036 9.184 4.543 11.535 5.685 22.996 11.464 34.218 17.753l2.766 1.536C720.406 353.121 731.27 365.113 737 384a220 220 0 0 1 1.563 7.688l.38 1.95c1.826 9.777 2.209 19.562 2.19 29.487l.003 3.362q0 3.483-.006 6.968c-.005 3.563 0 7.126.007 10.69q0 3.396-.004 6.793l.006 3.229-.01 2.985-.002 2.625C741 462 741 462 740 465a214 214 0 0 0-.395 7.035q-.098 2.173-.2 4.346l-.105 2.31c-.632 13.33-1.794 26.336-4.027 39.504-2.04 12.12-3.605 24.316-5.283 36.49q-.651 4.719-1.306 9.436l-.424 3.06a737 737 0 0 1-3.368 21.787c-1.517 8.622-1.517 8.622 1.608 16.407 3.912 6.16 7.102 12.6 10.292 19.15a1057 1057 0 0 0 2.561 5.207c21.587 43.598 38.464 90.588 45.276 138.943.355 2.225.82 4.387 1.34 6.579 1.437 6.223 2.197 12.544 3.031 18.871l.5 3.629A644 644 0 0 1 791 810l.28 2.39c1.993 17.62 1.995 35.191 1.916 52.893-.011 3.038-.01 6.076-.01 9.115 0 16.555-.18 33.071-1.186 49.602l-.121 2.07a809 809 0 0 1-.817 12.055l-.224 3.297c-1.602 21.833-1.602 21.833-6.838 26.578-3.139 1.57-5.539 1.352-9 1-2.937-1.625-2.937-1.625-5-5-1.04-7.91.128-15.895 1.13-23.757 2.616-20.75 3.198-41.476 3.13-62.359-.01-3.619-.004-7.238.008-10.857.037-13.807.017-27.522-1.803-41.234-.485-3.954-.693-7.813-.84-11.793-1-20.522-5.286-40.964-9.625-61l-.761-3.559c-5.029-23.28-11.312-46.301-20.677-68.254a190 190 0 0 1-4.5-11.687c-1.772-4.988-4.03-9.608-6.5-14.285-1.24-2.552-2.276-5.032-3.285-7.676-2.473-6.282-5.585-12.217-8.713-18.19q-1.5-2.865-2.988-5.738c-3.116-5.99-6.258-11.949-9.705-17.76-2.123-4.515-1.1-8.89.014-13.576 1.62-7.144 2.44-14.425 3.392-21.681l.643-4.827q.673-5.057 1.339-10.116.838-6.366 1.687-12.73C715.69 514.987 715.69 514.987 719 487l.311-2.809c1.624-15.08 2.032-30.074 2.005-45.235-.004-3.716.02-7.432.045-11.147.592-31.037.592-31.037-12.986-57.856C678.349 345.261 633.971 329.318 598.5 314c-5.777-2.495-11.543-5.007-17.266-7.625-10.28-4.693-20.74-8.672-31.504-12.102a130 130 0 0 1-8.23-3.14c-6.09-2.466-12.363-4.264-18.675-6.06q-2.99-.853-5.975-1.718-9.942-2.865-19.928-5.562l-3.556-.96c-14.51-3.59-29.374-3.93-44.241-4.083l-3.532-.065c-8.842-.034-15.968.88-22.593 7.315-4.088 5.676-3.734 11.248-3 18 1.456 4.94 4.765 8.01 8.828 10.957 6 2.882 12.162 3.333 18.695 3.352l4.844.076q3.755.042 7.51.071c18.043.162 18.043.162 26.123 3.544l3.363 1.395 2.95 1.418 3.324 1.574L499 322c6.135 2.913 12.197 5.79 18.625 8 4.87 1.696 9.213 3.957 13.672 6.535 2.539 1.376 5.113 2.517 7.774 3.632 14.558 6.289 28.402 14.284 42.11 22.208 2.626 1.514 5.262 3.008 7.901 4.5 12.178 6.963 23.871 14.603 35.543 22.375l2.342 1.557c31.892 21.236 31.892 21.236 33.53 28.35.207 2.502.18 4.898.066 7.406l-.07 2.767C659.079 468.884 646.197 504.18 623 536l-1.281 1.761C607.222 557.52 607.222 557.52 599 563c-3.897.508-5.506.33-8.812-1.875-2.68-2.603-3.096-3.553-3.688-7.25.611-4.737 1.993-6.055 5.191-9.414C601.791 533.694 610.14 521.45 618 509l1.204-1.903c5.569-8.923 9.558-18.125 12.796-28.097l.691-2.125c3.577-11.262 5.8-22.6 7.02-34.352.277-2.422.665-4.806 1.066-7.21.596-4.562.59-7.865-.777-12.313-3.889-4.733-9.357-7.656-14.619-10.632-2.95-1.695-5.76-3.559-8.589-5.448-3.56-2.366-7.178-4.638-10.792-6.92l-2.42-1.535c-20.058-12.682-40.68-24.24-61.805-35.042-2.634-1.35-5.258-2.72-7.88-4.091-12.986-6.715-26.322-12.51-39.777-18.206l-2.203-.934q-2.139-.9-4.282-1.789a103 103 0 0 1-10.035-4.813c-7.519-3.374-17.206-2.111-25.304-2.08-16.039.015-29.533-2.234-42.134-13.096-7.377-7.696-10.562-18.982-10.437-29.41.88-9.542 5.617-18.82 12.722-25.2 35.229-27.198 107.412-4.452 144.243 11.571"/><path fill="#955B3F" d="M531.75 418.75A209 209 0 0 1 537 423l2.988 2.46C557.374 440.279 568.323 461.306 571 484c1.62 23.653-4.936 46.552-20.48 64.731C538.287 562.438 524.393 570.465 507 576l-2.527.809c-19.593 4.992-41.926.208-59.301-9.368C438.41 563.352 432.7 558.445 427 553l-1.863-1.637c-15.186-13.859-24.431-37.13-25.586-57.355-.763-25 7.193-46.325 23.445-65.344 28.234-29.654 75.501-33.196 108.754-9.914M435 443c-12.048 14.712-18.287 31.891-17 51 1.692 16.249 7.779 30.963 19 43l1.895 2.133c10.04 10.757 24.801 18.949 39.634 20.056 2.64.078 5.268.084 7.909.061l2.658.023c9.363-.027 17.58-1.553 25.904-5.898l2.082-1.073c15.81-8.39 26.993-21.845 32.765-38.789 2.019-6.706 2.632-12.906 2.528-19.888l-.035-3.055c-.453-20.685-9.18-36.887-23.903-51.195-13.792-12.023-31.77-18.07-49.957-17.68-16.944 1.484-31.94 8.672-43.48 21.305"/><path fill="#965D40" d="M496 742c6.792 3.151 8.958 8.876 12.125 15.375q1.713 3.413 3.434 6.824l1.737 3.467c2.042 3.996 4.2 7.916 6.39 11.833C533.983 805.092 544.976 832.01 550 861l.64 3.441c2.107 11.781 2.63 23.547 2.673 35.496l.01 2.263c.017 12.214-.798 24.232-2.198 36.362l-.264 2.295c-2.661 22.703-2.661 22.703-6.048 26.768-3.643 1.78-5.805 2.02-9.813 1.375-2.937-1.75-2.937-1.75-5-5-1.147-7.573.313-15.373 1.465-22.871 1.663-12.057 1.751-24.143 1.775-36.292.01-2.936.041-5.87.072-8.806.087-15.584-1.567-30.409-5.636-45.476-.62-2.344-1.098-4.674-1.551-7.055-1.016-4.679-2.877-8.898-4.781-13.277-1.37-3.287-2.52-6.599-3.657-9.973-2.602-7.437-6.043-14.349-9.691-21.322-1.358-2.63-2.674-5.28-3.996-7.928l-.004 2.672q-.055 32.174-.18 64.347c-.04 10.372-.072 20.745-.087 31.117q-.019 13.56-.084 27.12c-.022 4.787-.038 9.574-.037 14.362q0 6.758-.05 13.515-.012 2.481-.004 4.962c.007 2.259-.011 4.516-.035 6.774l-.011 3.83c-.598 3.883-1.773 5.534-4.508 8.301-3.173 1.586-6.621 1.968-10 1-3.353-3.21-5.265-5.39-5.626-10.082a154 154 0 0 1-.002-4.768l-.022-2.665c-.017-2.942 0-5.882.019-8.823a2578.858 2578.858 0 0 1-.008-23.52c.017-5.995.008-11.989.003-17.983-.005-10.065.011-20.13.04-30.195.031-11.64.031-23.28.014-34.92-.016-11.195-.01-22.39.008-33.584q.01-7.149-.002-14.298-.01-8.415.032-16.83.01-3.09 0-6.181c-.009-2.81.007-5.618.03-8.428l-.026-2.478c.056-3.79.385-6.003 2.447-9.228 3.344-3.223 5.494-3.46 10.093-3.017"/><path fill="#955B3E" d="M515 603c2.938 1.563 2.938 1.563 5 4 .945 4.882.945 4.882 0 8-4.29 5.122-10.618 8.316-16.375 11.5l-2.733 1.539A1979 1979 0 0 1 492 633c-17.315 9.539-17.315 9.539-34.312 19.625l-1.92 1.18c-3.335 2.106-6.005 4.4-8.768 7.195h-2l-.793 1.75c-1.28 2.384-2.764 4.195-4.52 6.25-4.113 5.217-6.573 10.73-8.687 17l-.793 2.073c-3.312 9.883-2.661 20.26-2.582 30.552l.011 3.142c.076 18.433 1.195 36.666 2.725 55.026.926 11.368 1.517 22.756 2.139 34.144l.372 6.72q.281 5.068.561 10.136a8902 8902 0 0 0 1.941 33.941q.185 3.135.365 6.27c.656 11.4 1.47 22.764 2.541 34.133 1.306 13.928 2.055 27.89 2.72 41.863l.167 3.396c.123 2.806.208 5.609.27 8.417l.105 2.365c.03 3.913-.41 5.65-2.815 8.795-3.651 2.714-3.651 2.714-6.79 2.652-3.937-.625-3.937-.625-6.375-3-2.073-3.484-2.743-5.563-3.062-9.586l-.248-3.09-.252-3.324-.265-3.392c-.601-7.89-1.077-15.78-1.393-23.686a135 135 0 0 0-1.103-12.424c-.572-5.09-.646-10.23-.844-15.346l-.114-2.683-.092-2.385c-.201-2.883-.577-5.73-.947-8.595-.396-3.459-.55-6.922-.707-10.4l-.236-4.802q-.177-3.69-.349-7.381c-.449-9.55-1.049-19.064-1.923-28.586-1.184-12.985-1.861-25.987-2.527-39.008q-.38-7.318-.77-14.636l-.188-3.56c-.47-8.716-1.072-17.413-1.73-26.116-2.316-32.46-4.265-68.443 18.32-94.797 12.175-13.374 27.825-21.393 43.495-29.974 5.645-3.103 11.257-6.263 16.873-9.417a3731 3731 0 0 1 8.831-4.938 358 358 0 0 0 5.252-3.008l2.401-1.39 2.085-1.227c3.286-1.487 5.592-.966 8.931.126"/><path fill="#965D40" d="M875 645c3.375 2.063 3.375 2.063 6 5 .715 4.005.606 6.022-1.544 9.492-3.145 3.212-6.237 4.508-10.37 6.137l-2.332.959a956 956 0 0 1-7.379 2.975q-2.448.996-4.895 1.998c-7.176 2.929-14.377 5.8-21.578 8.667-2.364.96-4.691 1.997-7.027 3.022-4.615 1.821-7.937 2.516-12.875 1.75-3.261-2.69-3.903-4.324-4.5-8.5.61-4.276 1.44-5.465 4.5-8.5 3.084-1.709 6.312-2.971 9.594-4.25l2.856-1.153c3.011-1.213 6.03-2.405 9.05-3.597q3-1.2 6-2.406 5.73-2.301 11.473-4.574a277 277 0 0 0 8.898-3.696l3.16-1.386 2.55-1.16c2.965-.953 5.32-1.045 8.419-.778"/><path fill="#955C3F" d="M821.805 571.55c3.658.75 5.154 2.421 7.195 5.45.631 5.188-.806 8.084-3.465 12.488l-1.09 1.83A691 691 0 0 1 821 597q-1.073 1.788-2.141 3.58-2.653 4.428-5.341 8.835a3052 3052 0 0 0-3.25 5.349c-2.077 3.42-4.17 6.829-6.268 10.236l-1.98 3.24c-.614.99-1.227 1.98-1.86 2.998l-1.632 2.646C797 636 797 636 794 638c-7.119.678-7.119.678-10.437-1.875-2.619-3.56-2.926-5.696-2.563-10.125 1.354-2.902 1.354-2.902 3.262-5.937l1.037-1.68a625 625 0 0 1 3.389-5.383q1.754-2.814 3.5-5.632 1.182-1.903 2.368-3.803c4.267-6.845 8.319-13.814 12.331-20.811 6.75-11.594 6.75-11.594 14.918-11.203"/><path fill="#975F42" d="M833 724c2.167.583 4.109 1.313 6.16 2.215 2.44 1.041 4.967 1.591 7.543 2.195 2.783.715 5.498 1.59 8.235 2.465 5.987 1.882 12.013 3.345 18.15 4.642 5.22 1.152 11.847 2.715 14.912 7.483.548 4.225.473 6.274-1.875 9.875-2.723 2.723-3.48 3.091-7.36 3.293-3.675-.164-6.516-.765-10.015-1.856l-3.684-1.105-1.98-.595c-3.78-1.109-7.589-2.11-11.399-3.112l-2.417-.639a380 380 0 0 0-12.051-2.963l-2.312-.525a407 407 0 0 0-4.3-.941c-5.655-1.262-10.309-2.484-13.607-7.432-.336-2.121-.336-2.121-.375-4.437l-.086-2.31c1.689-8.256 9.893-6.972 16.461-6.253"/><path fill="#965F44" d="M733 805c3.535 2.009 4.762 3.321 6.113 7.176.908 3.915 1.255 7.434 1.324 11.449l.122 3.852c-.7 4.408-2.07 5.828-5.559 8.523-3.5.625-3.5.625-7 0-3.671-2.953-5.56-5.2-6.3-9.914a293 293 0 0 1-.638-6.961l-.283-2.434c-.443-5.79-.443-5.79 1.449-8.356 3.55-3.086 6.134-4.223 10.772-3.335"/><path fill="#945E43" d="M706.5 713.438c4.147.666 5.511 1.654 8.5 4.562 1.582 3.207 1.582 3.207 2.813 6.813l1.269 3.582c.952 3.737 1.233 6.766.918 10.605-2.586 3.684-4.07 4.817-8.5 5.688-3.65-.717-5.132-1.493-7.3-4.512-3.588-6.509-6.923-13.624-6.2-21.176 2.614-3.644 4.042-4.846 8.5-5.562"/><path fill="#945C3F" d="M643 593c2.285 1.656 3.344 2.798 5 5l2.082 2.5c6.442 8.123 6.442 8.123 6.73 12.938C656 617 656 617 653.938 619.5c-3.71 1.895-5.82 2.162-9.937 1.5-2.205-1.64-3.353-2.865-5-5l-2.086-2.5c-6.44-8.134-6.44-8.134-6.664-12.937C631 597 631 597 632.5 594.5c3.494-2.096 6.592-2.365 10.5-1.5"/><path fill="#996246" d="M689.5 670.688c6.357 2.383 8.999 7.99 11.875 13.875 1.617 3.98 2.455 7.12 1.625 11.437-2.875 3.217-4.84 4.74-9.062 5.688-3.298-.772-4.653-1.861-6.637-4.583-7.524-12.177-7.524-12.177-8.051-18.043C680 676 680 676 682.563 673c3.437-2 3.437-2 6.937-2.312"/><path fill="#935C40" d="M724 759c3.174 1.587 4.166 2.127 6 5 2.072 6.457 3.485 13.197 3 20-1.996 2.87-3.472 4.652-6.973 5.45-3.329.18-5.503-.046-8.164-2.098-4.938-6.233-5.72-16.64-4.863-24.352 2.792-4.58 5.894-4.792 11-4"/><path fill="#935A3D" d="M735.902 851.469c3.373.854 4.797 1.878 7.098 4.531.7 3.513.607 6.93.5 10.5l.008 2.879c-.112 7.916-.112 7.916-3.508 11.621-2.086.785-2.086.785-4.375 1.063l-2.273.347c-3.867-.674-5.098-2.243-7.352-5.41-.701-3.54-.654-6.966-.562-10.562l-.034-2.866c.072-6.805.072-6.805 2.385-10.193 2.675-1.669 4.987-1.86 8.113-1.91"/><path fill="#935B3F" d="M667.5 630.688c5 1.874 6.767 4.872 9.5 9.312l1.52 2.285c2.33 3.742 3.458 6.054 3.605 10.528-1.371 3.884-2.534 5.192-6.125 7.187-2.937.688-2.937.688-6 0-2.469-2.007-4.194-4.397-6-7l-1.71-2.445c-2.489-3.82-4.154-6.866-5.04-11.367C658 636 658 636 660.563 633c3.437-2 3.437-2 6.937-2.312"/><path fill="#945B3E" d="M733.938 897.375c3.951.807 6.59 2.483 9.062 5.625.84 2.865.798 5.533.688 8.5l.044 2.262c-.062 4.12-.44 5.849-2.986 9.238-2.827 2.06-3.947 2.641-7.371 2.5l-2.29-.031c-2.613-.588-3.416-1.396-5.085-3.469-.648-3.093-.51-6.221-.5-9.375l-.086-2.578c-.014-4.489.126-6.446 2.934-10.11C731 898 731 898 733.938 897.376"/><path fill="#B18A75" d="M722 415h1q.255 10.137.482 20.276.08 3.443.166 6.884.123 4.974.23 9.95l.083 3.06c.385 18.799.385 18.799-2.961 26.83h-1l.199-3.037c.841-13.522 1.12-27.043 1.364-40.588l.13-6.836q.159-8.27.307-16.539"/><path fill="#9D674C" d="m785 620 2 2-1.437 1.563c-1.991 3.105-2.214 5.803-2.563 9.437h2v2l5 1-4 2c-4.852-4.695-4.852-4.695-5.312-8.75.386-4.02 1.894-6.077 4.312-9.25"/><path fill="#9B664C" d="M646 334c3.753.72 6.86 2.331 10.25 4.063l3.266 1.66L662 341v2c-5.685-1.646-10.767-4.29-16-7z"/><path fill="#B68E7A" d="M738 479h1l-1 21h-1q-.334-3.56-.625-7.125l-.195-2.016c-.35-4.447.138-7.736 1.82-11.859"/><path fill="#9E684D" d="m741 879-1 2c-2.066.414-2.066.414-4.562.625l-2.504.227L731 882l1-3c5.625-1.125 5.625-1.125 9 0"/><path fill="#9F6A50" d="M502 342q3.007.981 6 2l2.813.938L513 346l1 3a320 320 0 0 1-4.312-1.312l-2.426-.739c-2.373-.996-3.631-1.98-5.262-3.949z"/><path fill="#F8F4F2" d="M504 792c2.5 2.174 3.436 3.73 4 7l-3 2c-1-1-1-1-1.098-2.848z"/><path fill="#9D664B" d="M680 649h2l-1 7-4 1z"/><path fill="#9A6448" d="M541 452c3.123 2.518 3.945 3.726 4.75 7.75L546 463c-2.523-3.124-4.273-6.38-6-10z"/><path fill="#A26F55" d="m1007 954 2 2c-.375 2.625-.375 2.625-1 5h-2v3h-2z"/><path fill="#9D694D" d="m528 544 3 1-5 5-3-2c2.313-2.062 2.313-2.062 5-4"/><path fill="#986449" d="m593 543 2 2a141 141 0 0 1-5 5h-2c1.293-2.884 2.66-4.872 5-7"/><path fill="#A06D53" d="M646 334c2.929.628 5.361 1.586 8 3v2c-5.75-1.875-5.75-1.875-8-3z"/><path fill="#A16D52" d="m991 985 2 1c-1.37 3.161-1.99 3.993-5 6 0-3.517.824-4.371 3-7"/></svg>