<svg xmlns="http://www.w3.org/2000/svg" width="1254" height="1254"><path fill="none" d="M0 0h1254v1254H0z"/><path fill="#915336" d="M198 633c3.013 1.77 5.412 3.825 7 7 .097 1.818.128 3.64.13 5.462l.011 3.537-.003 3.92.009 4.14q.01 5.707.01 11.415c.001 4.1.01 8.198.016 12.297q.018 10.665.026 21.332c.01 11.25.031 22.5.053 33.75l.023 11.547.005 2.916q.031 16.44.058 32.883l.005 3.037q.038 24.315.061 48.63.027 24.975.085 49.952.036 15.394.04 30.79.004 10.57.036 21.14c.012 4.06.02 8.118.013 12.177-.567 27.98-.567 27.98 7.234 54.513l1.069 2.273c12.331 25.827 32.174 43.465 58.896 53.312 9.855 3.145 19.648 4.275 29.954 4.229l3.439.008c3.793.008 7.587 0 11.38-.006q4.126.002 8.253.01 8.964.01 17.93.001c8.887-.007 17.774-.003 26.662.003q23.813.014 47.625.004 20.843-.008 41.684-.004h2.794l11.227.002c35.105.006 70.21 0 105.315-.01q46.768-.014 93.535 0a218022 218022 0 0 0 116.32.008h2.788q20.823-.004 41.647.005 23.685.008 47.37-.007 13.25-.01 26.5.001 8.858.007 17.717-.007 5.04-.007 10.083.001c23.203.305 23.203.305 45.625-5.011l2.163-.802c24.94-9.449 43.78-27.29 55.212-51.448 5.886-14.462 8.467-29.005 8.365-44.564q.003-2.1.01-4.198c.008-3.8-.002-7.598-.016-11.397-.01-4.114-.004-8.228 0-12.343q.008-10.671-.01-21.342c-.015-10.291-.01-20.582.002-30.873q.028-25.061.028-50.122v-3.024a56274 56274 0 0 0-.013-36.49l-.002-3.041-.004-6.07-.002-3.03q-.014-24.991.025-49.982.022-15.404-.011-30.808a4633 4633 0 0 1 .005-21.08c.01-4.056.01-8.11-.01-12.166q-.027-5.566.008-11.131c.006-1.981-.013-3.962-.033-5.943.095-9.579.095-9.579 3.134-12.664L1052 634l1-1c3.054-.442 5.95-.477 9 0 2.756 2.182 4.436 3.872 6 7 .097 1.811.13 3.626.131 5.44l.012 3.524-.003 3.905.01 4.122q.011 5.685.01 11.37c.002 4.082.01 8.165.016 12.248q.02 13.407.024 26.816l.012 16.758q.019 23.213.026 46.424v6.014l.002 6.04v3.027q.009 24.22.046 48.441.035 24.885.037 49.77-.001 13.964.025 27.927.023 11.905.012 23.81c-.004 4.042-.003 8.085.011 12.128.13 39.34.13 39.34-6.121 56.548l-.778 2.222c-6.007 16.629-15.25 30.733-27.472 43.466l-2.215 2.371c-12.51 13.039-28.855 21.723-45.785 27.629l-1.96.685c-14.911 4.997-29.441 5.015-45.033 4.936q-4.215.005-8.43.02-9.12.02-18.242-.005c-9.043-.023-18.085-.018-27.128-.007-16.155.019-32.31.009-48.464-.012q-21.202-.028-42.406-.026h-2.846l-11.437.002c-35.731.005-71.462-.018-107.193-.054a79195 79195 0 0 0-101.283-.037h-3.052l-18.245.004a110840 110840 0 0 1-85.323-.024l-2.851-.001-5.683-.003q-19.788-.012-39.575-.008-25.5.004-51-.032-13.475-.02-26.95-.011-9.013.004-18.025-.02-5.127-.014-10.254-.004c-38.546.075-67.349-10.567-95.112-37.852-21.08-21.966-31.83-51.827-31.789-81.944l-.018-4.252c-.016-3.863-.02-7.726-.021-11.588-.004-4.178-.019-8.356-.032-12.534-.027-9.115-.04-18.23-.048-27.345q-.01-8.539-.023-17.078-.04-23.655-.052-47.31l-.001-3.053-.002-3.059-.002-6.137-.002-3.075c-.008-16.472-.043-32.945-.09-49.417q-.07-25.384-.074-50.767c-.002-9.498-.013-18.995-.05-28.493q-.047-12.118-.024-24.236c.008-4.122.006-8.244-.022-12.366-.026-3.772-.023-7.543.001-11.315a398 398 0 0 0-.043-6.041c.094-8.533.094-8.533 2.094-11.456 4.005-3.466 7.656-4.366 12.69-3.085"/><path fill="#925639" d="m298.693 135.746 3.463-.01c3.828-.008 7.655-.003 11.482.003q4.159-.004 8.317-.011a8837 8837 0 0 1 18.082-.007c8.963.006 17.926 0 26.89-.009 16.94-.015 33.882-.017 50.823-.014a83791 83791 0 0 0 53.397-.01q39.519-.013 79.038-.008h3.01l24.195.005q47.17.007 94.34-.021a151417 151417 0 0 1 117.328-.027h2.813q21 .002 42-.015 23.894-.019 47.787-.002 13.362.011 26.724-.008 8.939-.012 17.878.006 5.085.01 10.168-.004c13.858-.038 27.033.21 40.572 3.386l3.07.718c2.399.588 4.755 1.25 7.117 1.97l2.53.768c16.333 5.231 29.947 15.89 42.283 27.544l2.273 2.078c19.09 18.085 32.883 46.138 33.822 72.594.043 3.313.053 6.624.052 9.936l.011 3.854q.014 5.277.017 10.555.007 5.7.022 11.397c.02 9.165.03 18.329.039 27.493q.007 6.477.015 12.952a63358 63358 0 0 1 .046 57.015c.008 14.994.033 29.989.066 44.984q.049 23.096.054 46.193c.002 8.644.011 17.288.036 25.933q.034 11.035.02 22.07c-.004 3.754-.002 7.508.017 11.261.021 4.068.011 8.136-.002 12.204l.033 3.6c-.05 6.249-.251 10.163-4.521 14.881-3.204 2.35-6.103 2.546-10 2-3.428-2.068-5.707-4.121-7-8a98 98 0 0 1-.133-5.185l-.013-3.274.001-3.61-.01-3.825q-.014-5.265-.016-10.53-.008-5.676-.023-11.35-.022-9.84-.036-19.679-.022-14.24-.058-28.48a114432 114432 0 0 1-.184-88.315l-.005-2.792-.005-2.788q-.04-23.023-.101-46.047-.038-14.2-.054-28.401-.011-9.738-.042-19.474c-.011-3.744-.02-7.487-.019-11.231 0-4.063-.014-8.125-.03-12.188l.008-3.57c-.04-6.371-.613-12.113-2.28-18.261l-.719-3.273c-3.657-14.52-11.029-28.774-21.281-39.727l-2.672-2.945c-14.994-16.057-36.91-27.743-59.07-29.24-3.01-.07-6.013-.08-9.023-.067l-3.487-.008q-4.77-.009-9.54.003c-3.465.005-6.93-.001-10.394-.006q-9.102-.01-18.204-.002c-9.023.007-18.047.003-27.07-.003q-24.174-.014-48.347-.004-21.153.008-42.305.004h-2.835l-11.39-.002q-53.423-.007-106.847.01-47.472.014-94.943 0a224536 224536 0 0 0-118.028-.008h-2.828q-21.143.004-42.284-.005-24.036-.008-48.07.007-13.455.01-26.91-.001a8156 8156 0 0 0-17.968.007 2927 2927 0 0 1-10.241-.001q-5.515-.007-11.03.01l-3.214-.015c-5.8.03-10.74.603-16.3 2.266l-3.535 1.008C261.723 166.36 249.898 172.46 239 182l-2.258 1.79C219.104 198.231 209.066 221.895 206 244c-.265 4.34-.269 8.666-.252 13.013l-.009 3.84c-.008 3.486-.003 6.973.003 10.46.005 3.771-.003 7.543-.008 11.314q-.012 9.789-.008 19.578c.003 9.442-.009 18.884-.025 28.326q-.039 22.995-.06 45.988l-.002 2.777q-.015 19.528-.02 39.055v5.559q-.006 22.92-.055 45.842-.03 14.13-.014 28.26.008 9.675-.021 19.348c-.01 3.721-.015 7.442-.002 11.164.015 4.033-.002 8.065-.021 12.098l.027 3.567c-.059 6.229-.293 10.101-4.533 14.811-3.408 2.585-6.84 2.438-11 2-3.53-2.196-5.46-4.172-7-8-.253-2.432-.253-2.432-.257-5.207l-.02-3.211.01-3.525-.014-3.748q-.014-5.152-.01-10.306c0-3.706-.01-7.41-.02-11.116-.017-7.265-.022-14.53-.023-21.795q-.001-8.872-.012-17.744a44234 44234 0 0 1-.024-55.872c0-14.65-.019-29.3-.047-43.95q-.043-22.6-.04-45.2c0-8.45-.005-16.898-.027-25.347a4895 4895 0 0 1-.009-21.614c.006-3.667.007-7.334-.01-11-.162-35.964 5.89-67.328 29.503-95.365.73-.882 1.46-1.763 2.21-2.672 20.823-24.205 52.453-39.717 84.483-39.582"/><path fill="#925639" d="M606.661 232.897c34.753-1.162 64.372 9.54 90.027 33.353C713.12 283.68 722.312 304.773 727 328l.544 2.667c.576 4.212.6 8.326.589 12.571l.003 2.668q0 2.784-.006 5.57c-.005 2.817 0 5.634.007 8.452q0 2.717-.004 5.435l.006 2.52c-.021 5.443-.458 10.716-1.139 16.117l3.625-.25c4.472-.008 6.91 1.363 10.375 4.25 3.322 4.983 2.56 10.182 2 16-3.83 18.648-15.203 42.76-31 54l-2.59.738c-2.682 1.075-2.682 1.075-3.555 4.043-3.638 20.254-5.254 45.636 5.145 64.219l1.05 1.965c16.479 28.596 54.85 43.83 84.424 54.182l2.862 1.013 2.517.864c2.313 1.051 3.597 1.969 5.147 3.976.496 3.895.58 6.095-1.562 9.437-3.377 2.165-5.443 1.843-9.438 1.563-3.062-.722-5.983-1.739-8.937-2.813l-2.6-.93c-34.447-12.682-74.788-31.96-91.108-66.874-5.091-12.708-5.72-25.15-5.73-38.696l-.006-2.202c.01-33.588.01-33.588 9.131-43.36C699 444 699 444 702.367 443.797c3.765-.467 3.765-.467 5.969-3.29l2.039-3.382 1.124-1.855c6.715-11.388 12.456-23.682 16.501-36.27-2.847 1.26-3.847 1.745-5.5 4.5-1.658 2.763-2.476 3.522-5.5 4.5-2.5.437-2.5.437-5 0-2.195-2.086-2.195-2.086-4-5-.023-3.285-.023-3.285.625-7.063q.332-2.167.656-4.335l.364-2.292c3.273-21.27 5.602-45.48-.645-66.31l-.618-2.14c-4.13-14.116-9.74-26.574-19.382-37.86l-1.95-2.422C672.384 263.118 650.329 252.886 628 250c-17.16-.935-34.9-1.745-51 5l-2.199.893c-9.439 3.911-17.893 8.57-25.801 15.107l-2.574 2.082C539.873 278.651 534.832 284.91 530 292l-1.871 2.66c-6.153 9.524-9.2 20.469-12.129 31.34l-.631 2.277c-2.014 8.39-1.717 17.023-1.681 25.598l.001 2.491c.022 11.735.688 23.003 2.94 34.542.437 2.466.788 4.927 1.094 7.412l.308 2.473C518 403 518 403 516 406.187c-3 1.813-3 1.813-6.625 2C506 407 506 407 504.313 404.062L503 401c-2.015-1.208-2.015-1.208-4-2 3.472 15.219 10.032 32.543 21 44q3.49 1.034 7 2c3.72 2.146 5.429 3.41 6.883 7.458 1.888 7.657 2.828 15.114 3.305 22.98l.237 3.69c1.605 26.701 1.335 50.387-17.237 71.5L518 553l-1.75 2.027c-20.817 22.722-54.777 35.731-83.066 46.139-1.821.695-3.611 1.472-5.391 2.268-5.887 2.576-12.112 4.317-18.23 6.253l-3.952 1.26A5306 5306 0 0 1 396 614l3.629.332c9.187.88 18.096 2.1 27.133 3.992 6.986 1.458 11.504 2.301 18.113-.617 3.909-1.3 8.057-1.12 12.125-.707 1 1 1 1 1.375 3.75-.49 4.25-2.387 5.339-5.375 8.25.28 2.13.28 2.13 1 4l1.737.471C483.61 641.088 507.436 651.573 523 677c11.584 21.182 13.424 44.34 14 68l.103 3.604c.521 20.018.106 39.18-9.103 57.396l-.874 1.74c-5.558 10.976-5.558 10.976-8.126 12.26-6.214.565-6.214.565-9-1.438-1.54-3.945-1.15-7.524 0-11.562.974-1.673 1.95-3.346 2.942-5.008 1.945-3.66 3.05-7.6 4.246-11.555l.787-2.498c2.255-7.291 3.182-14.028 3.193-21.642l.01-2.535q.007-2.658.007-5.316c.002-2.646.02-5.292.04-7.938.05-14.92-.85-29.713-4.412-44.258l-.648-2.656c-4.517-17.451-15.009-33.478-30.75-42.793-9.521-5.348-19.175-8.946-29.727-11.739-5.437-1.537-9.088-2.64-12.688-7.062-.875-3.813-.875-3.813-1-7l-2.57.14c-8.094.25-14.382-.683-22.133-3.12-8.868-2.743-17.91-3.542-27.155-3.919a183 183 0 0 1-4.475-.268c-10.116-.719-17.544-.89-25.843 5.706L357 636q-1.61 1.269-3.23 2.523C335.604 652.85 323.066 672.07 316 694l-1.14 3.36c-7.836 23.974-8.17 48.389-8.392 73.35-.129 13.255-.415 26.181-2.468 39.29a461 461 0 0 0-.562 4.633l-.438 3.492-.437 3.57c-.557 3.272-1.5 6.168-2.563 9.305-.56 3.025-.999 6.053-1.437 9.098C298 843 298 843 297.062 845.244c-2.288 5.939-3.161 12.395-4.374 18.631l-.464 2.366c-4.206 21.633-7.417 43.681-8.94 65.678-.395 2.892-1.427 4.853-3.284 7.081-2.84 1.42-4.855 1.315-8 1-2.164-1.523-2.164-1.523-4-4a43 43 0 0 1-.5-7.938l.032-2.48c.329-11.369 2.172-22.613 3.895-33.837.57-3.723 1.117-7.448 1.659-11.175q.518-3.504 1.039-7.008l.48-3.263c.762-4.984 1.73-9.529 3.395-14.299.59-2.756 1.045-5.531 1.5-8.313a2531 2531 0 0 1 1.152-6.715c.826-4.682 1.756-9.295 3.342-13.785 1.058-3.353 1.59-6.507 2.041-9.992l.514-3.96.256-2.053c.253-2.018.517-4.033.783-6.05 1.899-14.692 2.51-29.358 2.8-44.156.25-12.288.621-24.535 1.612-36.789l.252-3.14c.609-6.908.609-6.908 1.748-8.047a78 78 0 0 0 .832-4.086l.474-2.554.507-2.735c1.459-7.516 3.09-14.591 6.187-21.625l1.527-3.5c6.434-14.403 13.984-26.728 24.473-38.5a936 936 0 0 0 3-3.75c4.071-4.725 9.091-8.443 14-12.25l2.594-2.035c18.692-14.16 40.666-23.01 62.75-30.368 60.485-19.668 60.485-19.668 105.34-61.94 5.327-10.75 6.525-20.408 6.556-32.254.01-2.17.04-4.34.073-6.51.13-15.87.13-15.87-4.313-30.893l-3.562-1.5c-9.268-4.494-14.195-15.059-18.625-23.875l-1.564-3.059c-3.412-6.733-6.681-13.46-9.249-20.566l-1.312-3.5c-1.202-6.115-2.237-12.247.527-18.05 2.485-3.293 4.338-5.19 8.476-5.934 2.492-.015 4.839.19 7.309.484l-.429-1.7c-1.935-8.867-1.875-17.644-1.832-26.67.011-2.69 0-5.38-.012-8.07-.008-8.394.038-16.406 2.273-24.56l.824-3.695C505.71 299.898 514.72 283.06 528 268l1.598-1.852C543.364 251.291 562.794 241.524 582 236l2.219-.707c7.263-2.139 14.932-2.105 22.442-2.396"/><path fill="#955A3C" d="M464.57 878.59c4.864.581 7.551 2.967 11.305 5.972l2.13 1.67a535 535 0 0 1 4.138 3.29 164 164 0 0 0 4.712 3.587c1.997 1.54 3.673 2.845 5.145 4.891 0 3.938 0 3.938-1 7l2.938.438c5.666 1.544 9.245 6.355 13.062 10.562 3.207-1.202 5.978-2.522 8.813-4.437 9.935-6.197 20.717-7.433 32.16-4.907 10.086 3.709 18.283 10.32 24.027 19.344l1.54 2.387c4.935 9.003 4.67 19.494 2.983 29.418-.656 2.222-1.463 4.136-2.523 6.195l-1.219 2.473c-5.989 11.03-14.822 17.277-26.636 21.132-11.975 2.203-22.355.247-32.672-6.18-5.567-3.973-9.028-8.58-12.473-14.425l-1.75-2.5c-4.338-8.677-4.909-20.327-2.422-29.582 1.42-3.62 3.013-6.68 5.172-9.918v-3c-4.491-3.375-9.957-4.913-15.205-6.75-7.03-2.535-7.03-2.535-9.795-5.25-.51-4.082-.314-5.53 2-9l-1.691-.73c-4.697-2.583-8.4-6.645-12.309-10.27l-1.797-1.527c-1.39-1.223-1.39-1.223-3.203-3.473.183-4.022.491-5.76 4.57-6.41"/><path fill="#925639" d="M857.625 753.938C861 755 861 755 863 756.5c2.416 6.04-.434 14.28-1.672 20.504l-.493 2.525q-.789 4.018-1.585 8.034l-1.088 5.536c-2.484 12.612-5.033 25.21-7.716 37.78L850 833l-.546 2.313c-.923 5.466-.64 11.07-.64 16.602-.001 2.22-.02 4.44-.039 6.661-.074 17.477 2.51 33.975 6.35 50.986q1.113 4.936 2.195 9.88l.512 2.206c1.11 5.069 1.772 10.165 1.168 15.352-2.166 2.75-3.57 2.928-7 3.5-3-.5-3-.5-4.996-2.27-2.993-4.825-3.89-9.904-5.067-15.418l-.775-3.5C836 895.633 836 895.633 836 887h-2l-.332 2.965c-.628 4.374-1.96 8.416-3.356 12.597-8.002 24.767-15.532 50.503-15.437 76.688l-.012 3.2c.008 6.32.299 12.55.886 18.842 1.062 11.455 1.062 11.455-1.812 15.895C811 1019 811 1019 807.376 1019.063c-3.843-1.21-4.477-1.619-6.375-5.062a83 83 0 0 1-1.187-8.625l-.235-2.65c-2.934-36.905 3.91-71.482 15.633-106.295l1.202-3.58q1.181-3.507 2.377-7.009c2.138-6.324 3.993-12.634 5.553-19.125.891-3.685 1.93-7.321 2.97-10.966 5.332-19.106 9.748-38.352 13.875-57.75l.655-3.076q.947-4.461 1.887-8.924l.612-2.876c.905-4.304 1.76-8.6 2.45-12.944l.364-2.223c.307-1.923.589-3.85.869-5.777 1.603-5.227 4.03-8.146 9.6-8.242"/><path fill="#94583B" d="M386.938 753.375c4.106.838 5.387 2.435 8.062 5.625 1.19 3.289 1.19 3.289 1.992 7.055l.459 2.076c.491 2.245.957 4.494 1.424 6.744q.514 2.373 1.035 4.744 1.06 4.848 2.093 9.703a2087 2087 0 0 0 4.435 20.303l.842 3.778c3.136 13.804 6.907 27.427 10.73 41.054q1.287 4.611 2.533 9.234c2.14 7.918 4.54 15.638 7.457 23.309 1.049 2.985 2.03 5.99 3 9l1.121 3.45c4.459 13.876 8.24 27.886 11.129 42.175l.494 2.438c2.142 10.973 2.46 21.724 2.443 32.875l-.001 2.36c-.065 30.417-.065 30.417-4.045 36.58C440 1018 440 1018 436.5 1019.063c-3.5-.062-3.5-.062-5.937-1.375-3.234-5.562-1.593-12.417-1.063-18.605 2.823-36.651-4.316-69.225-15.923-103.9-1.684-5.083-3.055-9.846-3.577-15.182h-2v3l-7-1-.26 1.788q-.585 4.013-1.178 8.024l-.408 2.815-.4 2.705-.365 2.491C398 902 398 902 397 905a66 66 0 0 0-.133 4.195l-.004 2.418.012 2.512-.012 2.535c-.394 3.987-.394 3.987 1.137 7.34.13 4.908-.185 9.6-3.187 13.625-2.813 2.375-2.813 2.375-5.875 3C386 940 386 940 383.563 938.688c-4.224-7.266.335-17.76 2.332-25.415 1.923-7.38 3.584-14.8 5.105-22.273l.564-2.688c5.577-27.256 5.228-53.475-1.6-80.395-1.755-7.017-3.222-14.104-4.74-21.175q-.79-3.656-1.595-7.308l-.992-4.543-.457-2.058c-2.756-12.727-2.756-12.727-.618-16.833 2.438-2 2.438-2 5.375-2.625M920 635c19.784 13.65 29.889 43.763 34.442 66.178 2.555 14.226 2.793 28.353 2.71 42.756l-.016 2.857c-.052 7.878-.137 15.756-.236 23.634-.619 32.232-.619 32.232 3.595 64.105.875 4.276 1.49 8.591 2.13 12.908a334 334 0 0 0 2.853 15.948c4.156 20.811 6.552 41.64 6.897 62.864l.08 2.797c.016 6.283.016 6.283-2.26 9.523-3.289 2.142-5.368 2.113-9.195 1.43-4.4-4.92-4.614-9.264-4.687-15.687q-.064-2.538-.137-5.075l-.034-2.248c-.074-2.2-.074-2.2-1.142-4.99a305 305 0 0 1-.375-7.437c-.33-6.752-1.049-13.38-2.062-20.063l-.371-2.459c-.725-4.605-1.641-9.13-2.681-13.674-.97-4.49-1.689-9.025-2.448-13.554-1.081-6.377-2.21-12.702-3.688-19-3.2-14.552-3.665-29.431-3.464-44.276.036-2.743.055-5.485.072-8.229q.073-11.675.209-23.35c.596-38.585.596-38.585-8.192-75.958l-1.012-3.098c-4.259-12.299-10.907-23.397-20.468-32.238C909 647 909 647 907.625 643.313c.427-3.773 1.506-5.094 4.441-7.465 2.847-1.248 4.857-1.234 7.934-.848"/><path fill="#93583B" d="M576 469c2.764 2.016 4.688 3.621 5.465 7.057.178 2.521.174 4.979.097 7.505l-.045 2.785c-.418 13.156-2.768 25.781-8.517 37.653l-4.375-.062c-3.447-.09-3.447-.09-6.625 1.062-.656 2.527-.656 2.527-1 5l8 1v3l1.836-.105c13.24-.428 22.345 4.599 31.976 13.418 4.575 4.823 8.473 10.998 8.5 17.812L611 568q-1.935.755-3.875 1.5l-2.18.844C603 571 603 571 601 571l-1.285-2.852c-4.59-9.989-4.59-9.989-12.715-17.148l-3-1.875c-6.676-2.55-16.463-2.506-23.125.063-6.504 4.1-13.032 11.418-15.562 18.824-1.455 9.257.096 16.535 5.437 24.176 4.945 6.23 10.68 10.059 18.648 11.136 8.65.558 15.887-2.37 22.516-7.93 4.117-4.444 6.598-9.923 9.086-15.394 3.724-.207 4.715-.205 7.875 2.063C611 585 611 585 611.188 588.188c-3.137 10.068-9.096 17.27-18.157 22.539-9.842 5.14-19.93 7.061-30.968 4.625-12.15-4.039-20.18-11.177-26.157-22.407-1.502-3.242-1.906-5.31-1.906-8.945-4.734 2.581-4.734 2.581-9.062 5.75-2.77 1.787-4.715 1.661-7.938 1.25-1.875-1-1.875-1-3-3-.475-3.153-.745-4.986 0-8 2.228-2.74 4.942-4.656 7.813-6.687 6.647-4.698 6.647-4.698 11.187-11.313l1.36-2.832 1.39-2.98c1.884-3.82 3.699-6.97 6.625-10.063 4.986-5.285 8.257-11.737 11.625-18.125l1.015-1.922c2.432-4.723 4.406-9.509 6.173-14.515l.787-2.12c3.354-9.439 3.263-19.145 3.367-29.066.209-6.749.209-6.749 2.517-9.979 2.996-1.956 4.63-2.043 8.141-1.398"/><path fill="#935639" d="M730.625 691.375c5.233.97 5.233.97 7.375 3.625.914 3.987.638 5.884-1.398 9.445a1971 1971 0 0 1-3.723 5.555c-8.757 13.982-10.122 30.244-10.192 46.313l-.016 3.25c.186 20.685 6.6 38.875 20.329 54.437l2.016 2.45c6.788 8.007 14.98 14.19 23.437 20.331 3.258 2.49 4.456 3.742 5.235 7.844C773 848 773 848 771.438 850.438c-3.397 2.177-5.444 1.98-9.438 1.562-2.495-1.505-4.445-2.883-6.625-4.75l-1.815-1.494A313 313 0 0 1 748 841l-1.763-1.538C726.787 822.324 710.189 801.593 707 775c-.143-2.882-.164-5.76-.168-8.645l-.01-2.454q-.007-2.558-.007-5.115c-.002-2.58-.02-5.16-.04-7.741-.028-8.208-.047-16.086 2.225-24.045l1.043-3.8c9.764-29.96 9.764-29.96 20.582-31.825"/><path fill="#F8F4F3" d="M548.098 920.059c7.274 4.148 13.904 10.533 16.465 18.68 1.622 8.389 1.046 15.98-3.563 23.261-5.193 7.212-11.202 11.93-20 14-8.343.958-15.49-.625-22.266-5.695-5.164-4.725-7.655-9.69-9.734-16.305l-1-3c-.908-8.246.711-14.516 5.613-21.2 8.747-10.492 21.293-14.25 34.485-9.741"/><path fill="#955A3C" d="m794.188 639.5 2.808.013c7.378.182 13.797 1.175 20.004 5.487a170 170 0 0 1 4 5c2.081 1.793 4.219 3.476 6.39 5.156C829 657 829 657 829.235 659.72L829 662l-4 1a312 312 0 0 1-3-3.312l-1.687-1.864C819 656 819 656 819 653h-6v2a764 764 0 0 1-4.375-.437l-2.46-.247C804 654 804 654 802 653c-8.335-.622-15.97-1.05-23 4l-2.687 1.75c-6.143 5.976-8.442 11.988-8.563 20.438.113 9.223 2.037 15.055 8.14 21.988 5.67 4.903 10.137 6.512 17.485 6.324l2.265-.032c5.813-.2 10.428-1.262 15.36-4.468l2.75-1.625c7.375-7.785 8.337-17.151 9.25-27.375 7.625-1.125 7.625-1.125 11 0 2.964 5.929 1.443 14.69-.562 20.75-4.404 10.652-12.1 18.579-22.625 23.063-10.905 4.325-21.783 4.6-32.813.187-9.93-5.243-18.32-13.447-22.113-24.137-2.22-9.667-2.823-22.676 1.73-31.703 8.75-13.668 19.97-22.775 36.57-22.66"/><path fill="#94593B" d="M395.813 376.5c3.77.591 4.669 1.832 6.962 4.752 1.935 2.76 3.412 5.71 4.85 8.748l2.078 4.266 1.115 2.306c2.148 4.412 4.357 8.792 6.557 13.178l2.793 5.586 1.408 2.815L433 441h3a127 127 0 0 0 5-6c3.244-3.853 3.244-3.853 6.563-4.5 2.437.5 2.437.5 3.91 1.941 2.255 3.779 3.25 7.77 4.402 11.997l.774 2.776c1.863 6.774 3.584 13.58 5.226 20.411l.652 2.709 1.11 4.73C464 477 464 477 464 480a197 197 0 0 1-5 3c-1.783 2.07-1.783 2.07-3 4-3.302-6.361-6.073-12.855-8.75-19.5l-1.246-3.07A3495 3495 0 0 1 443 457l-1.4 1.275-1.866 1.659-1.837 1.65C435 463.746 432.56 464.068 429 464c-2.656-2.071-3.782-4.358-5.066-7.426l-1.195-2.798-1.301-3.089c-5.001-11.62-10.323-23.072-15.75-34.5l-1.17-2.465a5167 5167 0 0 0-4.462-9.388 485 485 0 0 0-8-15.946c-1.52-3.438-1.697-5.7-1.056-9.388 2-2 2-2 4.813-2.5"/><path fill="#93573A" d="M352.684 467.563c4.417.582 7.014 2.718 10.378 5.437l4.235 3.297 2.283 1.803c4.372 3.433 8.807 6.785 13.233 10.15l2.718 2.075c10.57 8.066 10.57 8.066 21.469 15.675 1.52-3.939 2.928-7.725 4-11.812 1.51-4.814 1.51-4.814 4-6.188 4.628.006 7.215.805 10.43 4.027a203 203 0 0 1 3.445 3.91l1.84 2.06a526 526 0 0 1 3.624 4.104 307 307 0 0 0 4.356 4.872 455 455 0 0 1 4.395 4.886 149 149 0 0 0 3.789 4.094c2.626 2.803 3.99 4.323 4.683 8.172-.621 3.178-1.704 5.242-3.562 7.875-3.464-.62-5.606-1.955-8.406-4.055l-2.504-1.863-2.59-1.957-2.59-1.934Q428.45 519.604 425 517l-4-3 .313 2c-.466 4.467-2.245 7.73-5.313 11-3.187 1.063-3.187 1.063-7 0-2.673-2.03-5.051-4.233-7.465-6.566-2.241-2.152-4.503-4.056-6.973-5.934-6.662-5.087-13.094-10.456-19.55-15.8l-2.14-1.768a1649 1649 0 0 1-4.364-3.622c-3.504-2.903-7.03-5.73-10.711-8.408l-1.975-1.46a141 141 0 0 0-3.708-2.627c-1.65-1.217-1.65-1.217-4.114-3.815-.496-3.691-.496-3.691 0-7 2-2 2-2 4.684-2.437"/><path fill="#94583B" d="M858.938 498.688c3.062.312 3.062.312 4.937 1.437 1.665 2.776 1.36 4.64 1.125 7.875-.783 3.085-1.826 6.063-2.887 9.063l-.905 2.63c-.957 2.773-1.926 5.54-2.895 8.307q-.95 2.745-1.897 5.488Q851.3 548.277 846 563l3.578-.105q2.336-.043 4.672-.082l2.355-.077c5.825-.074 5.825-.074 8.942 1.776.48.49.959.982 1.453 1.488-.246 7.439-3.998 13.13-7.562 19.5l-3.833 6.965-1.877 3.39c-2.847 5.18-5.558 10.43-8.275 15.68C844 614 844 614 842 615c-2.937.313-2.937.313-6 0-1.937-1.687-1.937-1.687-3-4 .503-4.235 2.084-7.917 3.723-11.832l.802-1.93q1.264-3.027 2.538-6.05l1.72-4.124Q843.885 582.03 846 577l-3.176.14q-2.069.057-4.136.11l-2.092.102c-3.067.059-5.103-.001-7.639-1.805-2.643-7.033.886-14.576 3.578-21.129l1.082-2.71a1632 1632 0 0 1 3.446-8.52l2.24-5.584a3041 3041 0 0 1 4.467-11.075q2.281-5.64 4.503-11.304l1.101-2.795q1.037-2.634 2.06-5.272l.935-2.368.811-2.08c1.457-3.04 2.395-3.665 5.758-4.022"/><path fill="#925739" d="M941 563c1.875 1.188 1.875 1.188 3 3 .325 2.869.48 4.383-1.328 6.703l-1.922 1.547-2.234 1.816a834 834 0 0 1-12.723 9.608c-3.459 2.557-6.908 5.128-10.356 7.701l-2.093 1.552-1.973 1.471-1.752 1.303c-1.662 1.334-3.14 2.765-4.619 4.299l2.152 1.934c.92.826 1.839 1.652 2.785 2.504l2.778 2.496c3.273 2.96 3.273 2.96 3.597 5.879-.392 3.999-1.29 4.63-4.312 7.187a111 111 0 0 1-6.445 3.453l-1.852.925q-1.926.958-3.858 1.905a873 873 0 0 0-5.911 2.936C884.295 636 884.295 636 882 636v-9h-5c4.687-5.172 10.317-8.99 16-13-1.637-3.704-3.699-5.68-6.758-8.242-1.904-2.695-1.73-4.55-1.242-7.758 1.844-1.95 1.844-1.95 4.5-3.687l3.05-2.055 1.683-1.097c2.515-1.652 4.98-3.373 7.453-5.088 2.723-1.885 5.459-3.754 8.194-5.623q5.344-3.656 10.683-7.325l1.946-1.333 1.87-1.284 1.814-1.243q1.874-1.314 3.712-2.678c3.912-2.899 6.137-4.488 11.095-3.587"/><path fill="#92573A" d="M469 813c2.21 1.688 2.21 1.688 4.375 4l2.39 2.523a302 302 0 0 1 5.36 6.102c3.581 4.168 7.434 8.048 11.313 11.938l1.989 2c3.37 3.357 6.77 6.49 10.51 9.437 2.818 2.393 3.023 2.816 3.875 6.688-.812 3.312-.812 3.312-3 5.625-2.566 1.54-4.985 2.718-7.812 3.687 3.708 5.509 7.882 9.965 12.75 14.438l1.755 1.612c3.025 2.786 3.025 2.786 6.495 4.95.188 3.375.188 3.375 0 7-3.27 2.18-4.206 2.61-8 2-2.465-2.047-2.465-2.047-4.937-4.75-3.458-3.748-6.787-6.482-11.063-9.25-2.563-1.927-5.063-3.93-7.562-5.937l-1.96-1.553c-10.138-8.118-10.138-8.118-11.103-12.072.913-3.562 2.557-4.48 5.625-6.438 2.306-1.115 4.612-2.063 7-3-4.402-5.473-8.828-10.874-13.562-16.062-3.053-3.375-6.073-6.767-9-10.25l-2.004-2.364c-1.674-2.714-1.824-4.19-1.434-7.324 2.175-3.32 4.197-3.463 8-3"/><path fill="#894C2E" d="M577 557c5.817 2.384 10.174 6.349 13 12 .507 5.555.763 10.418-1.687 15.5-4.91 5.308-8.957 8.234-16.25 8.813-4.622-.148-8.116-1.387-11.473-4.708-4.666-5.373-6.017-9.148-5.832-16.144.527-5.36 2.9-8.332 6.804-11.774 4.965-4.067 9.08-4.514 15.438-3.687"/><path fill="#8B4E31" d="M545.438 931.125c3.668 2.684 6.506 5.763 8.562 9.875.729 5.998 1.043 11.417-2.562 16.5-3.59 4.025-7.161 7.002-12.672 7.84-4.965.208-8.581-.487-12.766-3.34-4.378-4.451-7.305-8.354-7.5-14.687.086-5.486 1.22-8.51 4.7-12.692 6.5-5.852 14.08-6.165 22.237-3.496"/><path fill="#8A4E30" d="M802.125 663.625c4.52 2.458 7.557 5.739 9.875 10.375.51 5.581.787 10.426-1.75 15.5L808 692l-1.875 2.25c-4.001 3.295-7.634 3.962-12.687 3.5-7.065-1.053-10.036-2.92-14.438-8.75-2.716-4.074-2.51-7.221-2-12 2.047-6.464 5.169-10.215 10.875-13.812 5.197-1.975 9.221-1.822 14.25.437"/><path fill="#94583C" d="M625 895c4.026 2.127 6.312 3.784 8 8 .7 4.556.632 7.976-1.812 11.938-4.048 3.816-6.589 4.562-11.965 4.449-3.595-.626-5.096-2.551-7.223-5.387-2.49-3.557-2.577-6.742-2-11 4.065-6.297 7.358-8.637 15-8"/><path fill="#92573B" d="M625 767c3.752 2.015 5.636 3.455 8 7 .546 3.392.537 6.607 0 10-2.465 3.287-5.07 5.69-9 7-3.408.363-5.518.202-8.687-1.125-3.96-3.21-5.16-6.43-5.688-11.437.5-4.581 1.972-6.93 5.063-10.25 3.412-1.753 6.607-1.843 10.312-1.188"/><path fill="#94583B" d="M625 638c3.274 2.098 6.245 4.49 8 8 .54 4.507.603 7.95-1.687 11.938-3.545 3.16-6.11 3.933-10.813 4.437-4.146-.444-5.622-1.415-8.5-4.375-2.237-2.983-2.53-6.198-2.46-9.898.852-3.89 3.558-6.508 6.46-9.102 3.203-1.601 5.453-1.407 9-1"/><path fill="#94573A" d="M625 959c3.222 2.141 6.253 4.505 8 8 .398 4.773.475 7.085-1.75 11.375-3.413 3.982-4.952 4.48-10.187 5.063-3.492-.079-4.024-.406-6.938-2.75-3.133-3.963-4.687-6.374-4.582-11.551.835-3.905 3.457-6.62 6.457-9.137 3.44-1.147 5.39-1.486 9-1"/><path fill="#94593C" d="M625 831c3.704 2.027 5.654 3.48 8 7 .546 3.392.537 6.607 0 10-3.269 4.358-6.507 6.557-11.812 7.5-4.51-.707-7.203-3.12-10.188-6.5-1.235-3.706-1.455-6.098-1-10 4.048-6.303 7.371-8.636 15-8"/><path fill="#94583B" d="M627 703c3.483 2.24 5.554 5.014 6.465 9.07.21 4.418-.668 7.554-3.465 10.93-3.935 3.17-7.02 3.533-12 3-4.148-1.791-6.241-3.835-8-8-.834-6.567-.834-6.567 1.055-9.812 4.516-5.56 9.026-6.457 15.945-5.188"/><path fill="#91573A" d="M631 574c3.408 2.267 5.516 5.045 6.504 9.035.302 5.059-1.343 8.171-4.504 11.965-3.542 2.361-5.539 2.609-9.703 2.5-3.543-.771-5.169-2.484-7.258-5.367-1.83-3.757-2.044-7.091-1.039-11.133 3.721-6.53 8.783-8.45 16-7"/><path fill="#A06749" d="M503 873q2.423 2.113 4.844 4.227c2.16 1.826 2.16 1.826 4.625 3.484 6.366 4.453 6.366 4.453 7.281 9.101C519 893 519 893 516 895c-2.371.426-2.371.426-5 0-2.535-2.082-2.535-2.082-5.062-4.812-2.84-3.033-5.52-5.812-8.938-8.188h2l.313-3.375L500 875z"/><path fill="#A6745A" d="M442 433c4.766 3.813 4.766 3.813 5.402 7.043.036 2.144.036 2.144-.402 5.957l-2 2c-4.95-.24-8.3-.454-12-4 1.305-2.61 3.334-3.888 5.566-5.691 1.721-1.571 2.627-3.13 3.434-5.309"/><path fill="#BB927A" d="m503 873 7 6c-3.625 5.75-3.625 5.75-7 8l-6-4 2-1 .438-3.437L500 875z"/><path fill="#E7D5CA" d="M818 647c2.35 1.98 4.678 3.986 7 6l2.438 2.063C829 657 829 657 829.25 659.75L829 662l-4 1a312 312 0 0 1-3-3.312l-1.687-1.864C819 656 819 656 819 653l-4-1z"/><path fill="#CEAE99" d="m557 521 2 2 1-2q2.688.173 5.375.375l3.023.21C571 522 571 522 573 524l-1.898-.035-2.477-.028-2.46-.035c-2.214-.047-2.214-.047-4.165 1.098-.656 2.527-.656 2.527-1 5l8 1v3c-10.558-1.927-10.558-1.927-15-4z"/><path fill="#E4D0C2" d="m568.688 523.375 2.449.336L573 524l-2 3a75 75 0 0 0-1 5l-9-2c-.187-2.375-.187-2.375 0-5 3.353-2.236 3.907-2.173 7.688-1.625"/><path fill="#C8A695" d="M836 608h6l2 6c-2.789 1.394-4.92 1.257-8 1l-2-3h2z"/><path fill="#AE7E63" d="m501 874 2 1-1 1q-.062 3.5 0 7l6-4 2 1c-2.22 2.908-3.93 4.953-7 7l-6-4 2-1q.562-3.491 1-7z"/><path fill="#A9755A" d="M824 654c3.875 1.875 3.875 1.875 5 3 .04 1.666.043 3.334 0 5-1.875.625-1.875.625-4 1-2-2-2-2-2.187-5.062C823 655 823 655 824 654"/><path fill="#9C6549" d="m507 541 2 3c-9.045 8.192-9.045 8.192-13 10l-3-1 2.047-1.61 2.703-2.14 2.672-2.11c2.336-1.94 4.472-3.955 6.578-6.14"/><path fill="#B3856C" d="m557 521 3 2c.188 3.625.188 3.625 0 7l8 2-1 2-13-4z"/><path fill="#E7D8CF" d="M461 480h3c.25 2.313.25 2.313 0 5-1.75 1.875-1.75 1.875-4 3-2.25-.312-2.25-.312-4-1 1.522-2.629 2.844-4.844 5-7"/><path fill="#CAA896" d="m441 435 2 1v7h-8z"/><path fill="#E7D7CE" d="M407 610v5h-12c1-2 1-2 2.996-2.852l2.442-.773c.803-.26 1.606-.52 2.433-.79C405 610 405 610 407 610"/><path fill="#EBDFD9" d="m499 399 5 2-2 9c-2.566-3.85-2.551-6.435-3-11"/><path fill="#A4735C" d="M576 469v1l-2.375.188L571 471c-1.375 2.476-1.375 2.476-2 5h-1l-1 11h-1c-.108-2.249-.186-4.5-.25-6.75l-.14-3.797c.39-3.453.39-3.453 2.202-5.89 2.853-2.038 4.762-1.874 8.188-1.563"/><path fill="#985D40" d="M495 555a701 701 0 0 1-3.812 2.938l-2.145 1.652C487 561 487 561 484 562l-2-2a417 417 0 0 1 4.813-3.062l2.707-1.723C492 554 492 554 495 555"/><path fill="#B08672" d="M690 461h1v16h-2v5h-1q.213-3.844.438-7.687l.119-2.186c.225-3.794.571-7.414 1.443-11.127"/><path fill="#996043" d="m612 900 3 1-2 2c-.243 2.67-.243 2.67-.125 5.625l.055 3.04L613 914c-2-1-2-1-3-4-.347-6.48-.347-6.48 2-10"/><path fill="#965F43" d="m499 874 2 1-2 7c-1.875-.312-1.875-.312-4-1l-2-3 2.438-1.437c2.41-1.332 2.41-1.332 3.562-2.563"/><path fill="#9D6246" d="M311 663c1.14 1.734 1.14 1.734 2 4-.828 2.14-.828 2.14-2.25 4.25l-1.39 2.14L308 675h-2c1.31-4.234 2.944-8.074 5-12"/><path fill="#9E6B53" d="M477 904c2 2 2 2 2.813 4 1.59 2.679 3.284 3.083 6.187 4v2c-3.76-.522-6.368-1.173-9-4-.25-3.187-.25-3.187 0-6"/><path fill="#9A6044" d="M231 161c-1.592 4.3-4.355 6.397-8 9l-3-1a819 819 0 0 1 4.375-4l2.46-2.25C229 161 229 161 231 161"/><path fill="#EBDFD9" d="M725 399h3a85 85 0 0 1-2 7l-4-2c1.313-2.5 1.313-2.5 3-5"/><path fill="#9B6449" d="m219 170 1 3-8 8-2-1z"/><path fill="#E9DDD8" d="m710 458 2 1-1.312 1.063c-2.372 2.722-3.36 5.585-4.688 8.937-1.089-2.831-.961-4.165-.25-7.187L707 459z"/><path fill="#A2735C" d="M577 557v1h-9l-1 3-3 1-2-2c4.722-3.778 9.26-3.301 15-3"/><path fill="#B0826C" d="m583 546 1 3-16-2v-1q2.625-.292 5.25-.562l2.953-.317c2.597-.112 4.406-.125 6.797.879"/><path fill="#9B6449" d="m535 261 2 1-7 8-3-1z"/><path fill="#A8785F" d="M601 580h5l1 2c-5.75 3-5.75 3-8 3z"/><path fill="#A0694C" d="m516 578 3 2h-2l-2 8h-1c-.195-6.055-.195-6.055 0-8z"/><path fill="#A06E55" d="m719 421 2 3-4 7h-2c1.11-3.487 2.263-6.775 4-10"/><path fill="#9D664A" d="m394 880 2 3c-.75 3.125-.75 3.125-2 6l-2 1q.212-2.22.438-4.437c.08-.824.162-1.648.246-2.497C393 881 393 881 394 880"/><path fill="#AB7C66" d="M304 797h1c.077 4.516.102 8.59-1 13-1.45-2.341-2.043-3.58-1.758-6.36l.633-2.39.617-2.422z"/><path fill="#A37159" d="M390 754v1l-5 1-2 8h-1c-1.329-6.401-1.329-6.401.063-8.937 2.7-1.48 4.913-1.265 7.937-1.063"/><path fill="#A36D54" d="M777 591c1.316.255 2.628.53 3.938.813l2.214.457L785 593l1 3-10-3z"/><path fill="#965F45" d="M758 583c3.344.557 6.033 1.352 9 3v2l-9-3z"/><path fill="#EEE1DB" d="M837 577h9l-2 4-4-1v-2z"/><path fill="#A77358" d="M859 754v2l-6 2-2-2c3.228-2.152 4.284-2.2 8-2"/><path fill="#F2EBE8" d="m520 309 2 1c.25 2.25.25 2.25 0 5-2 2.313-2 2.313-4 4z"/><path fill="#90573D" d="m561 561 2 2-1.937.75c-2.25 1.066-2.25 1.066-2.813 3.375L558 569h-2c1.186-3.375 2.276-5.647 5-8"/><path fill="#A57159" d="M979 162c7.429-.286 7.429-.286 11 2v2l-11-3z"/><path fill="#986045" d="M961 157h8v2l2 1c-7.75-.75-7.75-.75-10-3"/><path fill="#995F42" d="M730.625 691.875 734 692v1l-2.25.313c-2.92.73-4.482 1.755-6.75 3.687 0-4.601 1.136-4.97 5.625-5.125"/></svg>