<svg xmlns="http://www.w3.org/2000/svg" width="1254" height="1254"><path fill="none" d="M0 0h1254v1254H0z"/><path fill="#955E41" d="M719.57 598.957a771 771 0 0 1 7.026 6c14.037 12.042 29.67 21.73 46.22 29.977 7.621 3.824 13.519 8.558 19.576 14.493a525 525 0 0 0 7.007 6.704 417 417 0 0 1 3.472 3.307c3.07 2.908 6.222 5.659 9.543 8.277 10.119 7.984 19.313 16.606 28.362 25.78 2.308 2.34 4.627 4.668 6.949 6.995l4.498 4.53 2.058 2.07a243 243 0 0 1 11.226 12.2c1.9 2.176 3.92 4.2 5.993 6.21a131 131 0 0 1 7.79 8.258c3.746 4.318 7.649 8.472 11.585 12.617C896.674 752.508 902.39 758.693 908 765l4.625 5.125c7.416 8.246 14.641 16.65 21.842 25.084q2.157 2.518 4.33 5.021C974 841.046 974 841.046 974 855h2l-.001-3.42q-.012-41.16.081-82.322c.03-13.27.048-26.54.04-39.811q-.012-17.348.046-34.695c.02-6.125.03-12.25.014-18.375q-.02-8.644.035-17.29.013-3.174-.008-6.35c-.016-2.888.004-5.775.034-8.663l-.042-2.541c.087-4.392.587-6.829 3.688-10.052 3.962-3.158 5.84-3.306 10.703-3.012 3.958.872 5.7 2.543 8.41 5.531 1.272 3.816 1.145 7.399 1.14 11.375l.01 2.621q.01 4.365.011 8.732l.015 6.249q.019 8.509.024 17.017l.012 10.653q.02 16.692.027 33.385.007 19.212.05 38.424.034 14.877.034 29.754 0 8.87.025 17.739.023 8.37.01 16.741-.002 3.046.013 6.092c.091 19.653-1.54 38.671-8.371 57.218l-.766 2.154c-7.282 20.405-17.322 38.719-32.156 54.616-1.908 2.048-3.714 4.15-5.515 6.293C936.545 972.396 913.04 985.559 889 994l-2.221.786c-5.18 1.784-10.367 3.171-15.716 4.339l-2.225.512c-11.822 2.618-23.651 2.512-35.698 2.51l-5.782.011q-7.924.014-15.847.017-8.554.007-17.11.022c-13.765.02-27.53.03-41.295.039l-19.471.015a142889 142889 0 0 1-68.951.04h-2.096l-10.512.004h-2.108q-33.79.015-67.58.065-35.775.052-71.548.057c-12.988.002-25.975.01-38.963.036q-16.595.034-33.189.02c-5.637-.004-11.274-.002-16.911.017q-7.764.026-15.527.001a722 722 0 0 0-5.573.014c-17.112.104-34.352-1.972-50.552-7.755l-2.59-.895c-8.21-2.928-15.915-6.642-23.535-10.855l-3.266-1.781c-10.018-5.652-18.97-12.27-27.406-20.082-2.039-1.872-4.13-3.629-6.265-5.387-27.736-24.4-44.55-63.558-48.063-99.75-.14-3.107-.152-6.209-.154-9.318l-.013-2.745q-.018-4.527-.026-9.053l-.025-6.511c-.026-7.107-.041-14.215-.055-21.322l-.017-7.348a30115 30115 0 0 1-.051-30.545q-.023-21.885-.107-43.766a9476 9476 0 0 1-.063-30.79c-.004-6.13-.016-12.26-.048-18.39q-.044-8.639-.025-17.278 0-3.172-.025-6.346a648 648 0 0 1 .001-8.65l-.042-2.546c.06-4.364.239-5.894 3.126-9.388L244 630l1-1c4.302-.462 7.962-.464 11.938 1.313C259 632 259 632 261 635c.193 2.795.268 5.49.252 8.286l.009 2.592c.007 2.878 0 5.756-.006 8.634l.011 6.18q.011 6.669.008 13.338c-.002 7.052.012 14.103.03 21.154q.068 30.083.077 60.167.006 16.605.055 33.209.03 10.477.012 20.956c-.003 4.387.011 8.774.03 13.16q.008 3.012-.005 6.022c-.077 18.71 1.474 38.141 8.652 55.615l1.168 2.965c15.174 37.558 42.26 65.69 79.448 81.776 19.423 8.133 38.203 9.39 59 9.302q3.705.001 7.409.007 9.023.004 18.044-.02c7.142-.019 14.284-.019 21.426-.019 14.605 0 29.21-.021 43.816-.048a39478 39478 0 0 1 43.105-.058l2.4-.002a79069 79069 0 0 0 102.426-.179l2.262-.005q21.512-.045 43.023-.074c22.562-.031 45.124-.08 67.686-.159l3.047-.01 3.022-.011q10.422-.034 20.844-.048 12.51-.019 25.02-.084c4.152-.022 8.304-.039 12.456-.038 16.114 0 31.654-.144 47.273-4.608l3.344-.941C897.897 965.648 916.54 954.083 933 939l2.04-1.79c11.363-10.502 21.88-26.036 23.166-41.72.098-2.75.122-5.488.106-8.24l-.01-2.94c-.142-9.379-1.332-17.255-6.302-25.31l-1.25-3.125C944.045 839.859 930.354 824.827 917 814l-2.687-2.23C895.13 796.38 872.197 784.093 849 776a796 796 0 0 1-3.937-1.5 338.202 338.202 0 0 1-6.852-2.582c-7.39-2.778-14.827-4.986-22.461-6.98l-2.7-.707c-29.817-7.621-59.371-11.672-90.175-11.918l-3.021-.052c-13.555-.197-24.895 1.654-37.702 6.038-4.886 1.592-9.928 2.535-14.965 3.514l-3.017.615c-25.754 5.185-25.754 5.185-34.518.052-3.206-2.872-4.91-6.606-6.652-10.48l-1-2a78 78 0 0 1-.062-4.625l.027-2.477L622 741l-3.187 1c-3.202.84-5.554 1.198-8.813 1v2c-2.543.109-5.081.188-7.625.25l-2.16.102c-5.232.096-8.04-.947-12.215-4.352-5.713-5.846-7.998-11.986-9-20l-2.09.438c-17.158 3.389-17.158 3.389-24.91-1.438-4.543-4.953-6.433-9.34-6.723-15.992-.423-3.068-2.243-4.777-4.277-7.008v-3h-2c-.427-6.197-.148-9.018 4-14 2.74-1.915 5.631-3.398 8.625-4.875l2.352-1.219C559.67 671 559.67 671 562 671c-.07-3.4-.243-6.678-1-10-2.355-2.082-2.355-2.082-5-3-1.638-3.277-1.796-6.485-1-10 3.892-4.762 9.341-7.447 14.89-9.805l2.237-.985c2.37-1.04 4.746-2.063 7.123-3.085q2.463-1.072 4.924-2.148c3.93-1.714 7.865-3.412 11.804-5.105 2.642-1.14 5.277-2.293 7.913-3.446 7.751-3.365 15.596-6.436 23.547-9.301l2.367-.87c11.362-3.974 22.68-4.628 34.602-4.626 2.326-.004 4.65-.04 6.976-.078 13.79-.106 26.705 1.996 38.867 8.886l2.137 1.12c4.146 2.261 6.893 4.468 9.613 8.443-7.105.374-13.536-.76-20.45-2.246-5.825-1.237-11.343-1.912-17.3-1.922l-2.228-.01q-2.33-.007-4.66-.007c-2.327-.002-4.655-.02-6.983-.04-12.245-.047-24.377.597-36.004 4.788l-2.383.838c-11.26 4.179-22.05 9.598-32.854 14.82l-2.334 1.125q-2.19 1.059-4.373 2.128c-3.122 1.511-6.05 2.764-9.431 3.526l1.438 2.188c1.515 2.728 2.036 4.775 2.562 7.812l2.848-1.18c19.901-8.068 41.057-15.587 62.152-19.82l2.54-.526c7.712-1.463 15.231-1.785 23.073-1.735 2.045.011 4.088 0 6.133-.012l3.918.007 3.545.007C694 637 694 637 696 639c-.187 2.5-.187 2.5-1 5-3.137 2.092-4.416 2.35-8.059 2.71l-3.077.328-3.302.337c-38.937 4.389-73.162 19.967-108.125 36.938l-2.328 1.127q-3.249 1.578-6.488 3.173l-1.952.952c-2.59 1.285-4.609 2.375-6.669 4.435-.314 4.234-.403 7.427 2 11 4.551 1.883 9.11 1.238 13.563-.562l2.42-1.113c3.322-1.459 6.7-2.714 10.107-3.958 8.86-3.28 17.56-6.914 26.269-10.572C673.68 661.822 673.68 661.822 701 663c2.438 1.5 2.438 1.5 4 3l-1 5c-8.424 2.73-16.852 5.262-25.437 7.438-14.506 3.73-28.174 8.832-41.563 15.562l-2.832 1.42c-10.72 5.406-21.4 10.869-31.606 17.205l-1.968 1.216c-2.93 1.871-4.636 3.222-6.594 6.159-.344 3.232-.265 5.37 1 8.375 2.535 2.06 4.495 2.12 7.703 1.945 7.285-1.016 13.735-3.893 20.332-7.011 3.17-1.4 6.369-2.514 9.653-3.621 7.53-2.618 14.46-6.145 21.539-9.786 4.186-2.13 8.476-4.01 12.773-5.902l4.71-2.164c14.54-6.58 28.169-11.078 44.227-11.274l2.316-.031c2.996.05 5.23.15 7.813 1.746.934 1.723.934 1.723.73 3.707C726 698 726 698 724.358 699.116l-2.167.868-2.472 1.002c-4.902 1.828-9.837 3.554-14.782 5.264-8.801 3.097-17.124 6.508-25.34 10.926-2.74 1.452-5.524 2.622-8.413 3.75-7.898 3.09-15.385 7.015-22.913 10.904-1.91.984-3.83 1.948-5.751 2.908-5.21 2.762-5.21 2.762-7.895 7.887.14 3.356.14 3.356 1.813 5.813 4.018 2.45 8.273 2.004 12.77 1.135a166 166 0 0 0 6.792-1.885l2.29-.647c5.004-1.44 9.856-3.16 14.71-5.041a971 971 0 0 1 11-4l3.02-1.11 3.043-1.077 2.722-.981c40.773-10.552 90.977.008 130.591 11.422 2.405.684 4.814 1.322 7.237 1.933l2.068.525 1.881.476c5.704 1.445 11.004 3.593 16.438 5.812q2.375.934 4.754 1.86A441 441 0 0 1 888 771c-4.294-5.085-8.737-9.98-13.312-14.812-4.881-5.18-9.71-10.394-14.454-15.7-7.143-7.955-14.414-15.732-22.023-23.246a104 104 0 0 1-5.399-5.93c-8.31-9.637-17.38-18.497-27.528-26.172-8.742-6.67-16.785-14.356-24.284-22.39-8.027-8.114-18.541-13.643-28.58-18.858-13.401-7.011-24.539-16.474-35.607-26.642-16.963-15.32-33.99-19.266-56.402-18.411-5.938.397-11.648 1.709-17.411 3.161l-3.379.797c-4.022.967-7.93 1.945-11.808 3.39-3.95 1.141-7.73.976-11.813.813-.75-2.25-.75-2.25-1-5 3.258-4.365 7.861-5.957 12.75-7.937l2.549-1.05c30.52-12.344 62.073-15.98 89.271 5.944"/><path fill="#955E40" d="m405.191 212.626 5.814-.012c5.26-.01 10.519-.003 15.779.008 5.697.01 11.394 0 17.092-.005 11.133-.01 22.267-.003 33.4.009 12.98.014 25.961.012 38.941.01 23.864-.004 47.727.01 71.59.03a59581 59581 0 0 0 69.457.017h2.095l10.438-.003h2.08a80017 80017 0 0 1 62.496.013l3.895.002q13.559.005 27.116.002 16.526-.004 33.05.017 8.425.013 16.849.007 7.721-.006 15.443.014 2.783.004 5.565-.002C877.366 212.65 915.31 226.516 946 254l2.64 2.238c6.92 5.95 12.726 12.614 18.36 19.762l1.297 1.644C983.765 297.551 995.596 322.753 998 348l1 2c1.448 10.109 1.162 20.43 1.177 30.617l.02 5.562c.02 6.042.031 12.084.041 18.126l.013 6.262q.029 14.696.041 29.39.015 16.94.077 33.879.044 13.12.048 26.24c.002 5.218.011 10.436.036 15.654q.034 7.35.018 14.701 0 2.696.02 5.391c.017 2.455.01 4.908-.003 7.362l.033 2.15c-.065 4.99-1.413 7.812-4.521 11.666-3.951 2.7-8.376 2.84-13 2-3-2.438-3-2.438-5-5l-1-1a160 160 0 0 1-.138-7.168l-.009-2.3q-.011-3.848-.01-7.694l-.016-5.494a9552 9552 0 0 1-.026-11.871c-.01-6.273-.031-12.545-.053-18.818-.062-17.842-.116-35.685-.15-53.527q-.027-14.768-.087-29.534c-.021-5.204-.037-10.409-.04-15.614a3026 3026 0 0 0-.044-14.74q-.01-2.682-.005-5.365c.034-21.35-2.675-43.146-12.992-62.164C962 316 962 316 960.602 312.645c-1.757-3.999-3.799-7.63-6.102-11.333l-1.305-2.098c-3.714-5.795-7.966-10.733-12.75-15.663C938 281 938 281 935.996 278.437 922.79 262.31 901.946 252.471 883 245l-3.262-1.293c-15.075-5.487-30.778-6.152-46.636-6.101q-2.913-.008-5.827-.019a3855 3855 0 0 0-15.861-.008c-5.722.002-11.445-.012-17.167-.025q-16.785-.028-33.57-.023a28492 28492 0 0 1-35.19-.017l-3.965-.003q-26.547-.02-53.093-.016h-2.093l-10.503.003h-2.107l-4.218.002q-32.802.008-65.604-.042-36.925-.056-73.852-.05c-13.016.002-26.032-.003-39.049-.028a9228 9228 0 0 0-33.243-.006c-5.646.01-11.29.01-16.936-.01-5.183-.02-10.365-.014-15.548.008q-2.79.006-5.58-.013C363.769 237.112 330.788 251.25 305 276l-2.707 2.516c-25.334 24.235-39.34 59.04-40.48 93.859-.098 4.75-.092 9.501-.084 14.253l-.016 5.42q-.017 5.784-.018 11.567c-.002 6.098-.02 12.195-.04 18.293-.05 15.129-.08 30.257-.102 45.386-.017 11.795-.04 23.59-.083 35.384a4594 4594 0 0 0-.028 18.185c-.001 3.762-.015 7.524-.033 11.286a859 859 0 0 0 0 5.233c.005 2.38-.007 4.76-.024 7.139l.02 2.092c-.056 4.289-.816 6.958-3.405 10.387-3.98 2.677-8.364 2.843-13 2-3-2.438-3-2.438-5-5l-1-1a175 175 0 0 1-.14-7.51l-.01-2.411q-.01-4.034-.011-8.067l-.015-5.76q-.019-7.854-.024-15.71l-.012-9.83q-.02-15.395-.027-30.79-.007-17.733-.05-35.464-.033-13.721-.034-27.442 0-8.185-.025-16.369-.023-7.725-.01-15.449.002-2.812-.013-5.626c-.08-15.963 1.09-31.919 6.496-47.072l.905-2.612c5.2-14.564 11.975-28.299 20.97-40.888l1.176-1.664C279.754 264.2 294.3 249.772 311 239l1.994-1.294c28.374-18.153 58.786-25.226 92.197-25.08"/><path fill="#955F41" d="m685 270 3.863.672C707.877 274.358 726.74 282.548 743 293l1.78 1.138c34.495 22.45 59.001 59.131 67.936 99.201.456 2.216.878 4.435 1.284 6.661l.453 2.463c4.835 27.607 5.613 59.113-4.471 85.593-2.583 6.87-2.277 12.33-.482 19.444 3.907 17.972 1.759 34.44-4.5 51.5q-.841 2.417-1.676 4.836c-5.262 14.995-11.751 29.35-19.011 43.476l-1.369 2.697c-2.762 5.274-5.418 10.228-10.944 12.991a83 83 0 0 1-5.437.25l-2.934.078C761 623 761 623 759.089 621.797 758 620 758 620 758.246 617.76c.874-3.198 2.177-5.81 3.74-8.734l1.835-3.478 1.93-3.611c5.907-11.056 10.874-22.203 15.25-33.938l1.438-3.125c2.498-5.72 3.949-11.86 5.562-17.875l1.102-3.816c1.161-4.723 1.24-9.34 1.21-14.184l-.003-2.779c-.08-5.762-.625-11.21-1.809-16.846-2.317-11.06-1.816-18.748 2.113-29.309q.706-2.029 1.387-4.066l.824-2.405c2.74-9.19 2.631-18.325 2.567-27.828-.016-2.8 0-5.598.02-8.398.017-15.272-1.615-30.23-5.661-44.994l-.638-2.35c-10.686-37.814-35.955-65.778-69.487-85.275-32.15-16.886-73.078-19.957-107.578-9.29A164 164 0 0 0 600 300l-2.18.918c-13.763 5.95-25.864 13.885-36.82 24.082l-1.542 1.397c-11.5 10.48-19.64 22.819-26.958 36.478l-1.24 2.303c-2.814 5.435-4.684 10.914-6.26 16.822h-2l-.297 1.957c-.756 4.766-1.539 9.477-2.685 14.165-2.68 11.148-3.62 21.705-3.485 33.157.03 2.654.021 5.307.008 7.961.017 19.27 3.28 36.792 9.209 55.072q.81 2.563 1.617 5.127 1.95 6.186 3.93 12.362c8.274 25.868 8.274 25.868 9.316 35.383.35 2.99.35 2.99 1.392 6.509 1.025 4.05 1.268 7.852 1.296 12.041l.016 2.158c.012 2.286.006 4.572-.005 6.858l-.002 2.36c-.036 14.695-1.07 28.732-5.31 42.89l-1.043 3.691C527.978 654.51 507.183 680.26 480 697l-1.944 1.198c-16.228 9.836-33.853 16.834-51.457 23.775-14.033 5.544-27.87 11.328-41.423 17.967-2.051 1-4.112 1.976-6.176 2.947-22.055 10.512-41.348 24.34-59 41.113l-2.137 1.941C299.102 803.561 288.834 828.027 281 852h-2c-3.568-15.678-2.66-34.327 4-49l.813-1.85C293.988 778.464 313.198 761.253 333 747l1.87-1.351c30.997-22.137 67.546-36.266 102.724-50.286 30.67-12.24 59.466-29.73 73.168-61.277 1.513-3.66 2.879-7.367 4.238-11.086l1.184-2.965c2.25-5.746 3.551-11.296 4.421-17.406.395-2.629.395-2.629.905-4.362 1.24-5.735.78-11.908.803-17.767l.01-2.248c.023-11.474-.982-22.12-3.87-33.264-.476-2.09-.756-4.144-.996-6.273-.355-2.888-.709-4.97-1.832-7.59-1.2-2.968-2.182-5.92-3.062-9a88 88 0 0 0-3.438-9.687c-2.987-7.285-5.02-14.863-7.125-22.438l-.563-1.977c-5.04-17.812-6.713-35.509-6.75-53.96l-.01-2.23c-.027-10.05.455-19.932 2.323-29.833l1-1c.347-2.185.677-4.373 1-6.562 6.699-38.873 32.116-75.821 64-98.438 35.635-24.3 79.357-33.861 122-26"/><path fill="#986244" d="M730 455c4.166 2.33 7.346 5.484 9 10 .266 3.496.266 3.496.25 7.438l.016 3.933c-.247 3.365-.806 5.622-2.266 8.629h-2l-.297-2.484-.453-3.266-.422-3.234c-.938-3.416-2.147-4.771-4.828-7.016-3.792.843-4.899 1.847-7.062 5.125-9.118 20.988-8.503 45.496-.938 66.875a196 196 0 0 0 1.648 3.844c1.442 3.365 1.773 5.536 1.352 9.156-2 2-2 2-4.812 2.5-3.743-.587-4.673-1.785-6.955-4.686-2.083-3.064-3.503-6.34-4.92-9.751l-.893-2.053c-4.893-11.469-5.626-22.307-5.66-34.626-.01-2.116-.041-4.23-.072-6.345-.113-14.132 2.343-28.348 12.253-39.156 5.5-4.8 9.873-6.032 17.059-4.883"/><path fill="#965F42" d="M353 567c3.211 1.482 6.074 3.397 9 5.375l2.538 1.66c2.497 1.64 4.98 3.3 7.462 4.965q1.916 1.268 3.836 2.531c3.036 2.006 6.056 4.034 9.074 6.066q3.557 2.383 7.125 4.75c15.491 10.29 30.805 20.756 45.856 31.68A757 757 0 0 0 452 634l-1 2c-24.142-11.046-48.215-22.203-72-34l-2.243-1.11q-6.915-3.418-13.8-6.9a783 783 0 0 0-4.368-2.189 603 603 0 0 1-6.042-3.059l-3.474-1.754c-3.644-2.357-5.56-4.462-8.073-7.988-.625-3.562-.625-3.562 0-7 3.512-5.002 6.054-5.713 12-5"/><path fill="#965F41" d="M419 506.5c3.46.577 5.175 1.421 8 3.5 1.878 2.885 1.878 2.885 3.637 6.406l.971 1.915c1.04 2.053 2.06 4.116 3.08 6.179a2372 2372 0 0 0 2.168 4.298q2.134 4.225 4.255 8.457c2.206 4.39 4.505 8.728 6.827 13.058 4.816 9.069 9.402 18.256 14 27.437l1.144 2.28q1.631 3.257 3.258 6.517l.983 1.961A403 403 0 0 1 470 594l.929 1.914c2.189 4.733 2.189 4.733 1.071 8.086-8.816-10.617-17.195-21.478-25.294-32.65-1.62-2.232-3.25-4.456-4.882-6.678-6.466-8.837-12.718-17.813-18.887-26.86l-2.202-3.223C409.897 518.615 409.897 518.615 411 512c2.454-3.392 3.836-4.806 8-5.5"/><path fill="#976143" d="M352.343 648.653c11.945 1.436 23.798 3.338 35.657 5.347q4.813.803 9.627 1.604 3.077.513 6.152 1.032c6.297 1.06 12.597 2.034 18.928 2.872C425 660 425 660 428 662c-21.565 1.697-43.05 2.431-64.68 2.48-4.19.012-8.38.06-12.57.116-3.274.038-6.547.048-9.821.051q-2.322.009-4.643.049c-11.838.188-11.838.188-15.337-1.949-2.358-2.653-2.971-4.89-3.512-8.372 2.241-13.446 25.32-6.816 34.906-5.722"/><path fill="#966043" d="M552 922c5.675 1.964 9.314 5.628 12 11 .374 5.605.209 9.187-3 14-3.984 3.93-7.12 6.15-12.75 6.313-4.886-.064-7.54-.957-11.25-4.313-3.43-3.7-4.3-6.58-4.5-11.5.2-4.92 1.07-7.8 4.5-11.5 4.793-4.236 8.851-4.896 15-4"/><path fill="#955E40" d="M553 865c3.438 1.688 3.438 1.688 6 4l2.375 2.063c2.512 4.54 2.37 8.867 1.625 13.937-2.002 4.005-4.18 6.659-8 9-4.348 1.45-8.456 1.517-13 1-3.994-2.033-6.691-4.17-9-8-.398-3.059-.398-3.059-.375-6.437l-.023-3.372c.594-4.761 2.424-7.29 5.898-10.504 4.899-2.361 9.153-2.476 14.5-1.687"/><path fill="#955F41" d="M554 810c4.86 2.297 7.599 5.198 10 10 .858 5.91-.087 9.423-3.527 14.3-2.854 3.293-5.585 4.397-9.832 5.079-4.844.345-7.862-.02-11.641-3.192-3.651-3.554-5.315-6.287-5.437-11.437.083-4.835.969-7.644 3.953-11.41 4.776-4.312 10.376-4.05 16.484-3.34"/><path fill="#976143" d="M557 758c3.934 1.933 6.98 4.067 9 8 1.152 3.96 1.664 7.368.082 11.258-2.882 4.806-5.679 7.94-11.082 9.742-4.665.382-7.041.48-11.25-1.625-3.697-3.193-6.337-5.789-7.133-10.773-.256-5.698.507-9.188 4.383-13.602 4.688-4.316 9.957-3.736 16-3"/><path fill="#9C6E56" d="M278 819h1l1 23h3c-.458 3.47-.891 6.674-2 10h-2c-.93-3.933-1.116-7.577-1.098-11.613l.01-3.78.026-3.92.013-3.978q.018-4.855.049-9.709"/><path fill="#9A6A51" d="M464 588h3a701 701 0 0 1 3.063 6.313l1.722 3.55C473 601 473 601 472 604c-4.266-4.727-8-9.333-8-16"/><path fill="#A5775E" d="M633 270v1l-2.52.621-3.293.817-3.269.808A90 90 0 0 0 618 275a65 65 0 0 1-4.187.063L610 275c5.25-5.25 15.88-5.419 23-5"/><path fill="#9C694C" d="m549 307 2 1-4.312 4.813c-.801.893-1.602 1.786-2.426 2.707-1.714 1.88-3.44 3.706-5.262 5.48l-1-3z"/><path fill="#C6A28A" d="M561 660h4v10h-3z"/><path fill="#99694E" d="m764 606 2 3-2 4h-2l-2 7h-2c.581-3.76 1.652-6.53 3.563-9.812l1.378-2.395z"/><path fill="#E6D7CE" d="M880 765c3.383.178 4.763.788 7.313 3.063L889 770l-1 2-10-5z"/><path fill="#9C6B51" d="M422 507v2l-3.312.688c-3.813.97-3.813.97-5.625 3.937L412 516c-.812-1.687-.812-1.687-1-4 3.317-4.423 5.5-5.64 11-5"/><path fill="#8E583A" d="M737 467h1v15l-2 1c-1.084-6.068-.79-10.101 1-16"/><path fill="#9E6C52" d="M775 583c.687 2.49 1 4.379 1 7h-2l-.937 2.875C772 596 772 596 771 598h-2c1.599-5.196 3.741-10.066 6-15"/><path fill="#9C684C" d="M504 380c1.21 3.632.628 5.065-.437 8.688l-.872 3.011L502 394h-1c-.324-5.504-.533-9.437 3-14"/><path fill="#9E6A4E" d="M945 255c5.292 1.4 7.775 4.855 11 9-3 0-3 0-5.687-2.375C948 259 948 259 948 257l-3-1z"/><path fill="#9B6548" d="m315 761 3 2-10 10c0-3.57.605-4.02 2.938-6.562 2.307-2.528 2.307-2.528 4.062-5.438"/><path fill="#94654B" d="M442 628c3.579 1.652 6.748 3.783 10 6l-1 2-9-4z"/><path fill="#A47357" d="M406 711c-2.647 2.647-5.562 3.6-9 5v-2l-2-1c7.429-3.571 7.429-3.571 11-2"/><path fill="#A67C65" d="m538 949 6 1v2h9v1c-10.725.562-10.725.562-15-3z"/><path fill="#9A684C" d="M511 634c.883 2.467 1.131 3.639.223 6.14l-1.16 2.11-1.153 2.14L508 646l-2-1c1.45-3.791 3.152-7.387 5-11"/><path fill="#9C6C50" d="M283 950c3.795 1.491 5.61 3.757 8 7-3 0-3 0-5.687-2.375C283 952 283 952 283 950"/><path fill="#9D6C50" d="m853 775 9 3v2c-3.558-.61-6.683-1.578-10-3z"/><path fill="#AE7A5C" d="m565 660 3 1-1 6 2 1-4 1z"/><path fill="#9A674B" d="m495 659 2 2-7 6-2-1z"/><path fill="#9B694D" d="m904 960 2 1c-1.375 1.5-1.375 1.5-3 3h-2v2l-4-2c5.273-3.223 5.273-3.223 7-4"/><path fill="#A97E65" d="M756 751v2h6v1c-4.833.083-9.237-.047-14-1v-1c5.75-1 5.75-1 8-1"/><path fill="#A06B4E" d="M663 748c-2.918 1.945-4.625 2.453-8 3l-1-3c3.325-1.108 5.622-.845 9 0"/><path fill="#A27257" d="M614.438 728.875 616 730c-3.287.8-4.71 1.097-8 0l-1 2-2-2c6.4-2.215 6.4-2.215 9.438-1.125"/><path fill="#A3765D" d="m659 671-4 1v2c-1.812.625-1.812.625-4 1l-3-2q2.183-.794 4.375-1.562l2.46-.88C657 670 657 670 659 671"/><path fill="#996547" d="m296 250 2 1-4 4c0-3 0-3 2-5"/><path fill="#906045" d="M469 596c2.9 2.395 3.502 4.312 4 8l-5-5z"/><path fill="#AE856E" d="m520 548 1 2 3 1c-1 3-1 3-3 7z"/></svg>