<svg xmlns="http://www.w3.org/2000/svg" width="5225" height="5225"><path fill="#A65635" d="m2724 2166 3.433.39c51.566 6.053 99.5 21.655 146.17 43.962q2.265 1.082 4.534 2.155a832 832 0 0 1 6.355 3.052l1.95.917c1.56.765 3.065 1.637 4.558 2.524l1 3c1.984.714 3.987 1.374 6 2a87 87 0 0 1 5.203 3.238l2.944 1.967 3.103 2.108 3.22 2.163a618 618 0 0 1 19.28 13.586c16.044 11.722 31.356 17.93 50.877 21.61 17.459 3.474 31.166 11.56 44.373 23.328l1.945 1.707a323 323 0 0 1 6.242 5.73l2.039 1.807c3.386 3.269 5.2 5.566 5.294 10.37-.13 1.798-.308 3.595-.52 5.386l-.308 3.195c-.48 4.71-1.052 9.41-1.626 14.11-2.485 16.761-2.485 16.761 3.036 32.023 5.074 4.469 11.43 3.9 17.773 3.762l5.93-.06q4.605-.066 9.212-.146c47.508-.788 87.897 14.53 123.983 45.116l2.21 1.836c45.683 38.681 63.422 103 68.79 160.164l.264 2.637c1.085 12.555.9 25.146.904 37.738l.01 7.825q.009 8.22.007 16.441 0 8.251.02 16.503c.121 47.766-1.038 95.41-4.109 143.086-1.279 20.119-1.608 40.176 1.591 60.145l.413 2.914c3.368 22.069 9.656 43.635 15.9 65.023l1.119 3.858a2820 2820 0 0 0 24.003 78.428c7.747 24.095 15.013 48.29 21.922 72.636 2.159 7.596 4.334 15.186 6.507 22.778l1.671 5.843c5.883 20.573 11.878 41.113 17.903 61.645l1.492 5.087.747 2.544 2.98 10.157 1.483 5.058q5.566 18.974 11.087 37.959l.735 2.526 6.54 22.496a11750 11750 0 0 0 16.476 56.26l.648 2.191c10.48 35.456 20.54 71.01 30.267 106.681 16.098 59.025 33.228 117.747 51.135 176.248l.742 2.425a14154 14154 0 0 0 7.281 23.733c4.21 13.674 8.4 27.351 12.293 41.12l.844 2.957c4.9 17.588 6.276 35.507 6.293 53.714l.01 3.83q.008 3.987.007 7.976c0 4 .02 8 .04 11.999.032 14.63-.363 29.02-2.225 43.539l-.427 3.367c-6.874 49.022-28.408 96.468-63.573 131.633l142.519.572 2.134.009 68.451.273 2.264.01 157.665.632 2.099.008 66.888.268 18.157.073c31.116.134 31.116.134 62.233.154q10.234-.009 20.465.251l3.715.043c15.712.42 25.893 6.776 37.66 16.582 4.943 6.002 3.397 18.679 2.75 26.125-.877 3.966-2.162 7.388-4 11l-1.625 3.375c-7.852 8.678-21.244 10.65-32.375 11.625-2.74.123-5.472.134-8.214.125l-2.366.004q-3.913.004-7.825-.004l-5.708.005q-7.875.003-15.75-.003-8.588-.002-17.175.003-15.12.005-30.239 0a73704 73704 0 0 0-45.27 0q-38.572.008-77.143.003-39.105-.005-78.21-.002h-2.49l-79.247.006h-2.623q-64.023.003-128.048 0l-5.61-.001h-2.81l-39.5-.002q-64.916-.002-129.832 0h-14.16l-172.831.003h-2.927a4438440 4438440 0 0 1-291.163-.007 4857609 4857609 0 0 0-483.41.004h-3.025q-93.798.003-187.595.003h-2.926l-186.932-.003a2055080 2055080 0 0 0-169.284.002h-8.407q-63.929.004-127.858.001h-2.62l-79.194-.006h-2.488q-39.045-.002-78.091.002a264021 264021 0 0 1-87.456-.004h-2.085q-17.228-.003-34.454.003-14.928.002-29.856-.003-8.464-.004-16.927 0-7.695.006-15.39-.002-2.745-.001-5.488.002c-9.754.013-19.501-.117-29.25-.45l-2.793-.066c-6.494-.26-10.837-1.485-15.892-5.8-8.556-9.872-11.013-20.727-10.376-33.688.683-9.159 2.603-14.141 9.25-20.437 16.843-13.9 49.302-7.698 69.938-7.25l2.873.059q4.134.088 8.268.187l2.482.05c5.745.145 11.417.625 17.127 1.266l.14-3.58c.645-15.444 1.82-30.831 3.11-46.233l.166-1.988c2.562-30.569 6.069-60.826 11.092-91.09l.513-3.097c3.855-23.12 8.46-46.076 13.128-69.043 7.558-37.21 14.735-74.452 20.976-111.907l2.694-16.157.437-2.618.858-5.157c15.214-91.361 34.396-182.368 88.85-358.86l.966-2.562q.96-2.548 1.922-5.095c7.623-20.233 13.796-40.786 19.773-61.55l.685-2.38q2.69-9.346 5.372-18.697c19.96-69.601 44.238-137.51 74.967-203.101q1.883-4.026 3.75-8.057c20.638-44.322 46.343-86.667 75.601-125.828l1.309-1.752c13.703-18.25 28.394-35.794 44.002-52.44 1.867-1.999 3.723-4.007 5.58-6.015 7.254-7.818 14.596-15.326 22.574-22.411 2.297-2.068 4.541-4.192 6.792-6.31 6.368-5.983 12.919-11.612 19.743-17.072q1.805-1.49 3.605-2.984c22.463-18.59 46.983-35.681 72.395-50.016l2.364-1.348c60.473-34.32 137.233-59.919 206.636-67.652l3.793-.424c17.696-1.934 35.404-3.292 53.207-3.576l2.022-.033c36.671-.572 73.332.839 109.978 2.033l-.063-2.908c-.392-19.737-.251-38.717 4.063-58.092l.601-2.768c6.011-26.913 16.105-53.143 27.399-78.232l1.245-2.781c12.939-28.683 29.66-55.25 48.755-80.219l1.595-2.092c5.213-6.795 10.571-13.383 16.37-19.693a257 257 0 0 0 5.347-6.028c9.898-11.34 20.126-22.572 31.583-32.359 2.462-2.138 4.84-4.359 7.23-6.578 5.79-5.278 11.888-10.082 18.09-14.863a437 437 0 0 0 5.191-4.106c21.901-17.522 45.554-32.393 70.108-45.9 2.101-1.167 4.178-2.363 6.248-3.584 39.879-22.788 89.985-33.152 135.238-38.797l1.996-.25c33.61-4.14 68.351-4.66 102.004-.75m-15 64-1 3c-.696.03-1.391.062-2.108.094q-9.927.444-19.853.924-5.1.248-10.203.474c-3.927.175-7.854.366-11.781.559l-3.626.152c-9.894.51-19.42 2.154-28.867 5.172-5.48 1.282-10.851-.393-16.207-1.648-3.434-.868-3.434-.868-7.355-.727v-5c-30.629 4.224-60.03 14.026-88 27l-2.2 1.014c-28.216 13.152-54.835 31.177-78.8 50.986l-2.937 2.41c-17.812 14.75-33.921 31.132-49.063 48.59l-2.562 2.922c-20.937 24.292-38.624 51.213-52.495 80.132a343 343 0 0 1-2.861 5.735c-12.022 24.077-19.767 50.35-24.832 76.711l-.603 3.086c-3.9 21.467-3.968 43.01-3.908 64.744.012 4.14.005 8.282-.007 12.423-.054 22.88.366 45.66 4.018 68.31l.513 3.22c4.76 28.564 14.8 54.469 26.737 80.717l1.078 2.401c19.146 42.64 45.992 80.962 77.735 115.099l1.811 1.958c3.664 3.902 7.495 7.485 11.556 10.97 2.26 1.952 4.407 4.013 6.57 6.072 25.615 23.31 56.326 40.525 88.25 53.5l3.158 1.29c37.944 15.371 77.578 24.836 118.666 24.878l3.591.01q3.746.007 7.49.007c3.728.002 7.455.02 11.183.04 21.48.051 42.819-1.003 64.037-4.475l2.008-.323c30.5-4.942 58.856-14.477 86.66-27.887a824 824 0 0 1 9.52-4.481c42.258-19.746 82.504-45.333 113.14-81.032 3.285-3.81 6.812-7.314 10.411-10.825 18.714-18.263 31.527-36.48 36.855-62.397 3.518-17.049 8.627-33.5 13.9-50.08 4.782-15.133 9.698-30.75 10.381-46.725l.121-2.102c.451-14.586-4.098-27.425-9.234-40.796-6.561-17.14-12.317-34.434-17.7-51.977l-.952-3.084c-5.841-18.976-11.556-38.19-14.548-57.854l-.47-2.86c-5.2-32.51-1.114-60.508 13.941-89.8 10.325-18.343 10.325-18.343 10.842-38.527l-.668-2.687c-3.639-12.028-13.04-21.314-21.144-30.598a158 158 0 0 1-5.026-6.048c-6.299-7.962-13.287-15.097-20.481-22.247a1515 1515 0 0 1-6.134-6.147c-7.214-7.22-14.52-13.957-22.547-20.273a259 259 0 0 1-3.32-2.863c-13.652-11.922-28.606-21.661-44.266-30.736a569 569 0 0 1-4.586-2.689c-41.58-24.648-89.516-39.277-137.078-46.587l-2.36-.364c-4.84-.689-9.502-.86-14.39-.761m330.36 222.04c-6.994 8.775-10.647 20.215-13.36 30.96l-.684 2.703c-1.394 6.732-1.518 13.448-1.566 20.297l-.028 2.732c.06 13.047 3.463 24.932 7.34 37.268l1.566 5.051c3.118 10.016 6.359 19.99 9.665 29.945 19.272 58.057 31.583 108.006 12.527 167.867-6.336 19.953-11.53 39.868-15.07 60.512l-.458 2.657c-2.651 16.423-3.665 32.813-3.663 49.434-.004 2.977-.04 5.952-.078 8.929-.167 28.09 4.289 55.985 8.709 83.657 1.23 7.707 2.416 15.421 3.6 23.135l.381 2.487c9.91 64.74 18.3 129.755 25.341 194.869q.8 7.354 1.606 14.707l.407 3.72c2.657 24.05 5.953 48.002 9.29 71.966 4.43 31.8 8.643 63.604 12.302 95.501l.302 2.627c2.1 18.281 4.141 36.568 6.164 54.858q1.336 12.072 2.686 24.142.804 7.182 1.583 14.367c2.739 25.988 2.739 25.988 7.45 51.674 3.834 17.025 7.233 41.42-2.372 56.895l-1.375 2.652c-3.03 4.377-7.602 5.262-12.625 6.348-5.419.494-10.577.382-16 0l-3.41-.121c-4.028-.494-7.116-1.124-9.825-4.35-8.97-13.462-10.012-30.062-11.415-45.732-1.173-12.956-2.6-25.803-4.912-38.61l-.6-3.332c-1.684-8.885-3.87-17.322-7.873-25.457-2.43-6.039-3.202-11.601-3.168-18.082q-.009-2.322-.022-4.646l-.009-2.502c-.31-49.524-6.845-99.412-14.744-148.224-2.093-13.178-3.63-26.341-4.803-39.628l-.217-2.438q-.994-11.22-1.93-22.443c-.345-4.15-.709-8.298-1.083-12.445a536 536 0 0 1-.392-4.688 519 519 0 0 0-.564-6.483l-.313-3.71c-.832-3.592-2.02-4.705-4.72-7.109-.764-3.069-.764-3.069-1.137-6.79l-.22-2.098c-.24-2.369-.445-4.739-.643-7.112l-.22-2.605c-.484-5.853-.921-11.708-1.353-17.564-3.355-44.936-9.816-89.27-16.834-133.763-4.328-27.475-7.874-54.985-10.978-82.625A3586 3586 0 0 0 2979 2909c-3.53-.56-5.592-.835-9 0-3.494 2.92-6.151 6.465-9 10a199 199 0 0 1-17 16l-1.587 1.342c-23.607 19.89-49.8 36.378-76.81 51.225a921 921 0 0 0-6.986 3.894c-56.053 31.068-125.172 43.699-188.617 45.539l-2.283.07c-93.128 2.499-192.823-27.061-264.717-87.07l-1.812-1.508c-14.37-11.995-27.778-24.973-41.067-38.141a1345 1345 0 0 0-3.811-3.757c-8.518-8.375-16.133-17.047-23.31-26.594q-1.635-2.101-3.277-4.2c-7.573-9.865-14.25-20.187-20.723-30.8l-1.173-1.915c-5.73-9.372-11.225-18.885-16.731-28.39-3.05-5.25-6.166-10.416-9.471-15.508-2.967-4.793-5.274-9.673-7.441-14.859l-1.052-2.513c-3.681-8.94-6.754-18.048-9.695-27.253l-.845-2.627c-11.336-35.342-18.118-71.424-23.083-108.158l-.29-2.136q-.383-2.846-.758-5.69c-.385-3-.385-3-1.461-5.951-6.251-1.414-12.556-1.385-18.937-1.562l-2.165-.063c-13.958-.386-27.919-.51-41.881-.551q-3.457-.011-6.913-.032a470.6 470.6 0 0 0-66.979 4.396l-2.355.319a2183 2183 0 0 0-15.144 2.118q-3.992.569-7.985 1.129c-52.153 7.393-101.751 21.157-149.641 43.246l-5.29 2.39c-43.384 19.841-85.124 47.65-120.085 80.196a221 221 0 0 1-6.129 5.406c-5.47 4.773-10.582 9.908-15.714 15.04a1477 1477 0 0 1-5.14 5.1c-5.888 5.86-11.42 11.808-16.593 18.322-1.985 2.466-4.05 4.82-6.174 7.167-3.868 4.31-7.413 8.802-10.875 13.441l-1.927 2.583A467 467 0 0 0 1703 2882l-1.712 3.09c-43.932 79.363-73.398 166.603-102.354 252.259a3602 3602 0 0 1-6.704 19.612c-9.514 27.61-18.862 55.143-25.66 83.574-3.243 13.44-7.099 26.283-11.984 39.198-9.912 26.331-15.67 54.332-22.328 81.624q-2.936 12.026-5.899 24.045l-.585 2.376a2085 2085 0 0 1-9.399 36.785c-18.608 70.134-36.404 140.58-46.812 212.449-2.195 15.082-4.91 29.86-8.426 44.685-6.125 26.09-9.556 52.785-13.463 79.279-.982 6.615-2.024 13.198-3.317 19.76-.46 2.54-.46 2.54-.357 6.264h2c3.057 20.223.723 37.02-4.583 56.665-3.293 12.335-5.835 24.836-8.417 37.335l-2-6h-1q-.863 9.738-1.709 19.476-.288 3.308-.582 6.614-.423 4.777-.834 9.555l-.265 2.943-.243 2.849-.215 2.456c-.144 2.942-.167 5.856-.161 8.801 0 .993.002 1.986.004 3.009L1426 3933a614270 614270 0 0 0 168.28.055h3.57q28.652.008 57.304.022 29.377.014 58.753.017 18.143.002 36.285.014 12.422.008 24.845.006 7.179-.002 14.358.005 6.561.007 13.121.002 2.385-.001 4.769.004 3.219.005 6.439-.002l3.625.001c2.574.178 2.574.178 3.651-1.124.423-3.64.178-5.651-1.5-8.937-2.499-3.061-5.091-5.53-8.11-8.06L1809 3913l-1.827-1.507c-4.79-4.047-8.736-8.288-12.486-13.305l-1.68-2.234c-11.07-14.955-19.744-31.326-28.007-47.954l-1.242-2.49c-14.272-29.005-22.311-60.463-25.758-92.51l-.268-2.452c-1.116-12.087-.91-24.226-.937-36.353l-.03-7.885q-.036-9.615-.062-19.23-.033-11.37-.075-22.739c-.063-17.943-.116-35.886-.168-53.83l-.076-25.162q-.162-53.139-.301-106.278-.078-29.997-.174-59.993a31882 31882 0 0 1-.14-56.999l-.004-2.452q-.016-8.432-.049-16.865c-.024-6.649-.04-13.298-.04-19.948q0-4.876-.024-9.754c-.016-3.413-.015-6.825-.008-10.238l-.028-2.924c.048-7.926 1.092-16.402 6.822-22.336l1.746-1.87c8.117-7.56 18.363-5.906 28.816-5.692l3.156.05c4.347.23 6.281.507 9.782 3.262L1788 3276l1.75 2.125c2.086 3.128 2.385 5.81 2.447 9.468l.056 2.9.046 3.22.059 3.456q.078 4.842.144 9.684l.091 6.315c.624 42.684.698 85.375.852 128.064a76299 76299 0 0 0 .196 49.013l.176 41.949.211 50.52c.099 23.552.202 47.103.329 70.655q.076 14.044.132 28.089.038 9.436.095 18.873.033 5.325.05 10.65c.064 20 .42 40.01 4.616 59.644l.657 3.147c8.24 38.27 25.641 72.2 53.093 100.228l1.914 2.031c4.94 5.151 10.505 9.538 16.086 13.969l2.965 2.41c45.251 36.007 95.511 41.678 151.401 41.786l8.124.028q8.78.03 17.56.05 13.07.032 26.14.075 22.06.069 44.121.127 21.994.06 43.99.123l2.783.008 11.198.033q52.602.155 105.203.298a415742 415742 0 0 1 98.073.28l2.925.008 14.6.044 2.914.008a621028 621028 0 0 0 92.176.265q19.08.053 38.16.11a108198 108198 0 0 0 125.218.303l2.597.005q21.394.042 42.789.104 27.514.077 55.03.117 16.128.023 32.257.077 10.942.035 21.884.04 6.322.001 12.643.03 5.813.028 11.625.018 2.097 0 4.196.016c12.08.09 22.777-1.61 32.428-9.363 14.762-16.232 18.359-35.331 18.375-56.437l.006-2.102c-.009-26.314-10.796-47.433-28.381-66.461l-1.385-1.518c-7.757-8.413-16.456-15.395-25.711-22.099a256 256 0 0 1-4.697-3.512c-18.317-13.017-45.077-16.174-66.789-18.742l-2.114-.253c-19.718-2.353-39.48-4.307-59.242-6.251l-5.988-.591c-44.654-4.4-89.346-8.203-134.11-11.3l-17.839-1.234-2.206-.153c-35.295-2.45-70.456-5.975-105.623-9.854q-9.116-1.004-18.233-1.993l-2.055-.223c-23.286-2.523-46.592-4.56-69.945-6.34l-2.449-.186c-9.816-.748-19.634-1.484-29.451-2.216-44.705-3.336-89.359-7.083-133.988-11.33q-5.194-.49-10.39-.972-8.22-.766-16.438-1.568-3.038-.293-6.074-.573c-22.83-2.108-44.783-7.127-60.219-25.577-20.624-25.933-15.82-61.207-14.23-92.21l.13-2.574c.816-16.018 1.963-32.001 3.265-47.987 2.868-35.34 5.671-70.685 8.379-106.037l.249-3.252c3.19-41.668 6.148-83.35 9.041-125.04l.65-9.37q3.165-45.538 6.3-91.078 1.403-20.388 2.824-40.775a16633 16633 0 0 0 1.711-24.806q.575-8.42 1.166-16.837.338-4.823.664-9.645c1.182-17.558 3.126-34.677 6.797-51.904q5.947-.291 11.896-.537c2.002-.086 4.003-.185 6.004-.283 9.659-.39 18.272-.616 26.1 5.82 9.432 9.698 7.478 21.353 7.32 34.126-.213 14.002-1.186 27.95-2.18 41.914q-.245 3.459-.485 6.919c-2.826 40.574-5.966 81.126-9.07 121.68-5.877 76.79-11.677 153.587-17.062 230.414q-.674 9.595-1.365 19.189C2133.1 3567.06 2133.1 3567.06 2133 3621l.124 3.836.177 3.537.145 3.048c.667 3.104 1.7 4.205 4.117 6.204 1.98 1.311 1.98 1.311 4.437 2.375l3.285 1.55c6.567 2.39 13.678 2.49 20.59 3.012l4.549.37q4.59.375 9.18.727c4.022.31 8.04.64 12.06.974l6.836.555 3.101.254c6.147.474 12.235.657 18.399.558l1-2 66 4 1 4 3.58.295 17.346 1.428 3.29.27q20.061 1.652 40.12 3.313l3.783.314 15.208 1.26c14.48 1.2 28.96 2.39 43.443 3.558q13.021 1.05 26.043 2.124l2.507.207c28.752 2.38 57.422 5.333 86.08 8.655l2.179.252q4.989.577 9.976 1.17c12.628 1.48 25.128 2.31 37.843 2.252l3.64-.005c3.779-.005 7.558-.018 11.337-.03q3.879-.008 7.758-.014 9.434-.017 18.867-.049c17.74-37.67 34.16-75.804 49.877-114.356 4.155-10.186 8.359-20.352 12.56-30.519l2.428-5.877q5.694-13.784 11.416-27.557c9.76-23.487 19.405-47.02 29.002-70.574a22514 22514 0 0 1 15.064-36.86l3.32-8.113q4.522-11.048 9.04-22.1 2.827-6.918 5.664-13.833c3.333-8.127 6.656-16.257 9.918-24.413 1.414-3.535 2.839-7.066 4.263-10.596a917 917 0 0 0 1.962-4.923c3.213-8.129 6.614-15.957 11.08-23.486l1.063-1.8c3.871-6.27 9.688-13.665 16.343-16.993 10.932-.99 23.337-.3 32.266 6.465L2838 3275l1.672 1.379c4.767 5.818 2.72 18.536 2.328 25.621-1.588 13.325-7.135 25.182-13.8 36.695-3.647 7.007-3.01 15.456-.887 22.867 5.966 16.076 17.513 30.287 27 44.43 12.842 19.153 25.3 38.559 37.687 58.008l1.832 2.875q5.224 8.202 10.441 16.41 2.644 4.155 5.29 8.309c5.984 9.396 11.955 18.8 17.898 28.223 3.831 6.07 7.682 12.129 11.539 18.183a7360 7360 0 0 1 17.545 27.695q2.169 3.436 4.342 6.867c14.897 23.543 29.577 47.216 44.117 70.981 8.536 13.936 17.247 27.747 26.09 41.49 3.56 5.544 7.09 11.107 10.622 16.668q4.556 7.17 9.151 14.315c17.239 26.8 33.834 53.953 49.467 81.722 13.059 23.182 26.56 45.798 43.666 66.262l1.621 2c3.725 4.523 7.873 8.266 12.379 12l2.898 2.477c17.332 14.53 37.067 26.495 56.273 38.364 1.568.994 3.096 2.05 4.614 3.116 7.384 5.067 15.52 6.026 24.215 7.043l2.664.312c45.158 5.033 94.647.336 131.508-28.906 25.88-22.02 48.034-50.826 58.828-83.406l1.09-2.945c2.488-7.192 3.822-14.504 5.097-21.992l.507-2.96c4.707-29.225 4.32-61.14-1.694-90.103l-.585-2.88c-4.524-21.656-11.235-42.893-17.415-64.12l-.825-2.834-4.253-14.6-.917-3.146-1.907-6.538c-6.789-23.278-13.474-46.585-20.157-69.893-18.037-62.907-36.134-125.794-54.925-188.481-17.124-57.129-33.743-114.404-50.196-171.73a38318 38318 0 0 0-17.82-61.84l-.837-2.897a29148 29148 0 0 0-22.85-78.729l-.634-2.169q-5.569-19.077-11.142-38.152-4.235-14.493-8.463-28.99-1.844-6.325-3.693-12.649c-4.81-16.45-9.586-32.91-14.215-49.413q-.64-2.28-1.286-4.556c-5.034-17.78-8.035-34.664-8.048-53.203l-.013-4.352q-.014-6.976-.006-13.953v-4.798c.006-23.044.45-45.974 2.044-68.968.399-5.894.733-11.792 1.08-17.689q.176-2.931.365-5.862c.26-4.185.489-8.37.698-12.558l.134-2.652c1.087-22.604 1.087-45.222 1.106-67.847q.008-6.567.041-13.132c.297-58.58-4.138-119.169-46.773-163.869-3.374-3.363-6.797-6.514-10.508-9.5l-2.855-2.363c-31.424-25.498-79.208-34.22-109.786-2.598M2786 3436c-2.255 4.513-4.091 9.184-5.937 13.875q-.883 2.195-1.769 4.388-2.01 4.993-4.002 9.993a4956 4956 0 0 1-7.722 19.224l-1.442 3.576-2.945 7.3q-1.88 4.658-3.756 9.317c-5.998 14.885-12.026 29.755-18.177 44.577l-1.016 2.448c-3.97 9.561-7.991 19.1-12.046 28.626-12.126 28.492-23.88 56.956-33.438 86.426l-.72 2.216q-1 3.1-1.983 6.206l-1.13 3.565c-.87 3.094-1.542 6.071-1.917 9.263 2.008 2.008 5.839 1.695 8.598 2.016l2.425.29q4.02.478 8.04.944l5.644.67c10.287 1.21 20.579 2.33 30.887 3.346 42.433 4.184 42.433 4.184 60.406 8.734l2.647.643c27.01 6.65 52.243 18.51 74.353 35.357.88.666 1.758 1.333 2.664 2.02 6.208 4.838 12.038 10.079 17.752 15.484a460 460 0 0 0 3.207 3c8.919 8.293 15.959 17.153 22.377 27.496l1.234 1.981c16.945 27.61 21.973 57.858 22.079 89.831l.011 2.644c.033 15.637-1.337 30.662-3.957 46.084-.44 2.54-.44 2.54-.367 5.46h179c-1.077-5.386-2.838-7.453-6.5-11.187l-3.309-3.485-1.651-1.72c-7.243-7.562-13.79-15.563-20.176-23.845a617 617 0 0 0-3.934-5.02c-14.517-18.452-26.405-38.821-38.28-59.027-6.904-11.732-13.99-23.353-21.084-34.97l-3.127-5.124a2186 2186 0 0 0-27.93-44.5c-3.387-5.264-6.76-10.537-10.134-15.81l-2.007-3.135a7531 7531 0 0 1-44.945-71.096q-4.71-7.542-9.423-15.081l-5.625-9-7.5-12.001-3.743-5.988q-4.747-7.591-9.487-15.187a6660 6660 0 0 0-21.693-34.53q-3.73-5.896-7.452-11.794l-3-4.75-6-9.5-1.499-2.373-3.01-4.767a4965 4965 0 0 0-7.35-11.614c-7.855-12.379-15.538-24.86-23.21-37.352-7.428-12.092-14.902-24.154-22.494-36.144l-1.77-2.808c-3.942-6.394-3.942-6.394-8.667-12.192-7.241-1.401-10.04.946-14 7"/><path fill="#A45231" d="M834.348 2643.602c8.096 6.082 18.945 14.583 21.215 24.974.534 4.186.576 8.27.565 12.485l.006 2.753q.005 4.59 0 9.18 0 3.327.006 6.656.008 9.2.005 18.4 0 8.96.009 17.92.014 18.557.016 37.115.003 18.812.013 37.624l.001 2.4.02 36.94.002 2.527q.014 28.834.023 57.668.015 44.835.04 89.67l.002 2.73.05 88.869a1665981 1665981 0 0 1 .075 141.912 1781850 1781850 0 0 1 .075 168.27l.005 11.749.003 8.802q.026 66.364.064 132.73l.002 2.822.052 86.069.002 2.73q.025 43.418.036 86.834a178654 178654 0 0 0 .05 99.735l.002 2.406q.013 18.723.01 37.445 0 18.49.02 36.98.013 9.858.007 19.716c-.016 23.973.106 47.908 1.18 71.86l.12 2.704C862.372 4099.388 882.809 4197.47 941 4275l1.891 2.538c10.11 13.54 20.572 26.58 31.945 39.08a439 439 0 0 1 4.266 4.765c8.68 9.817 17.883 19.158 27.898 27.617l3 2.629c9.018 7.885 18.378 15.239 28 22.371l2.01 1.499c19.682 14.598 41.098 26.57 62.99 37.501l2.229 1.126c46.056 23.153 96.92 35.013 148.318 35.028l5.546.014q7.624.018 15.248.024 8.358.012 16.718.032 16.739.033 33.477.055 14.123.02 28.247.046l2.074.004 8.381.015a245982 245982 0 0 0 99.022.155l2.466.003q24.95.037 49.9.075c94.389.147 188.777.272 1203.454.933 67.332.03 134.665.062 243.284.117l10.308.005 67.792.034a18271498 18271498 0 0 0 585.553.283 389919 389919 0 0 0 71.502.029l21.928.007q34.09.01 68.182.04 23.42.02 46.84.032 15.09.008 30.183.026 10.17.012 20.339.014 5.81.001 11.62.011c25.023.045 50.07-.18 75.014-2.358l2.22-.19c55.513-4.792 109.818-17.21 160.155-41.56l5.129-2.426c25.82-12.382 49.673-28.552 71.871-46.574l2.844-2.293A932 932 0 0 0 4221 4349l1.526-1.264c8.41-6.982 16.532-14.227 24.474-21.736.813-.76 1.627-1.519 2.465-2.3 5.655-5.437 10.355-11.466 15.044-17.73 3.557-4.7 7.214-9.323 10.845-13.966l1.74-2.23 1.552-1.987c1.177-1.553 2.273-3.166 3.354-4.787h3l.723-1.586c1.677-3.17 3.697-6.08 5.715-9.039 51.993-77.388 79.685-170.748 79.68-270.185l.001-6.847q.002-9.386-.01-18.773-.005-9.164-.004-18.329 0-18.96-.013-37.921a99698 99698 0 0 1-.019-53.252l-.005-25.393v-2.583q-.01-29.436-.022-58.87a407096 407096 0 0 1-.036-127.924 2855019 2855019 0 0 0-.046-201.777 1823433 1823433 0 0 0-.055-171.773l-.004-12.01-.003-9q-.025-67.787-.039-135.574v-2.879l-.014-87.742v-2.783q-.008-44.355-.031-88.709a183307 183307 0 0 1-.026-101.699v-2.446q-.001-19.149-.019-38.298-.015-18.843-.008-37.685.004-10.073-.01-20.147-.012-9.173 0-18.347.002-3.289-.007-6.578c-.026-10.142.1-20.195 1.13-30.292l.23-2.276c1.892-16.399 9.579-31.224 21.892-42.283 2.902-1.76 5.757-3.014 9-4l1.883-.578c13.968-2.784 26.877.826 38.482 8.447 8.313 5.75 17.86 14.065 20.406 24.197 1.458 11.458 1.506 22.828 1.478 34.367q.003 3.397.008 6.797c.007 6.22.001 12.442-.006 18.663-.006 6.071-.002 12.142.002 18.214q.01 18.846-.001 37.692-.011 19.092-.007 38.184v2.44l.003 12.31q.008 44.539-.006 89.076a294436 294436 0 0 0-.013 116.113l-.001 65.183q-.002 45.218-.012 90.434v2.963l-.01 47.63a815375 815375 0 0 0-.02 239.205q0 79.115-.01 158.229v2.793l-.004 25.018-.005 60.708v13.757a367138 367138 0 0 1-.018 114.591q-.005 19.016-.003 38.03.002 18.76-.008 37.518-.005 10.01-.002 20.018c.028 74.37.028 74.37-2.449 106.376l-.195 2.606c-4.551 60.345-17.799 118.605-42.492 174.019l-1.303 2.97c-13.715 31.215-30.8 61.33-50.697 89.03l-1.694 2.372c-10.365 14.466-21.356 28.4-33.384 41.526a251 251 0 0 0-5.11 5.79c-10.187 11.683-20.816 23.28-32.593 33.374-2.203 1.924-4.352 3.898-6.494 5.887-6.047 5.609-12.284 10.896-18.725 16.051q-1.696 1.383-3.39 2.77c-25.039 20.388-52.199 37.608-80.502 53.067a357 357 0 0 0-5.565 3.151c-59.518 33.466-135.146 51.234-202.86 51.143q-2.383.002-4.766.006-6.515.006-13.03.002-7.128.001-14.256.008-12.532.01-25.065.01-18.768.002-37.536.014-32.007.018-64.012.026-32.451.007-64.902.023h-2.07l-65.874.03-2.18.002a946812 946812 0 0 1-144.051.051l-2.36.001a1251246 1251246 0 0 0-158.553.063l-106.781.045h-2.457q-78.825.033-157.652.061l-2.543.001-161.328.058-2.57.001q-119.782.045-239.565.094l-12.62.005-80.475.033a21266710 21266710 0 0 1-527.033.208l-2.235.001a2685233 2685233 0 0 1-328.491.108h-3.735q-57.975.018-115.948.045a492122 492122 0 0 1-119.047.04q-18.807.006-37.612.017c-122.688.076-122.688.076-182.132-.353q-6.84-.049-13.677-.081c-54.616-.274-108.763-3.806-161.127-20.65l-2.896-.93c-13.715-4.459-26.957-9.76-40.091-15.706a1238 1238 0 0 0-6.166-2.77c-29.53-13.176-57.535-28.77-83.847-47.594l-2.256-1.612c-14.697-10.553-28.899-21.68-42.154-34.01a266 266 0 0 0-6.295-5.578c-4.024-3.517-7.84-7.2-11.611-10.984l-2-1.997a3324 3324 0 0 1-4.148-4.152 3177 3177 0 0 0-6.292-6.286l-4.06-4.065-1.87-1.863c-4.3-4.323-8.342-8.827-12.314-13.453l-1.362-1.565c-7.965-9.163-15.358-18.723-22.638-28.435l-1.454-1.93c-19.577-26.05-35.995-53.936-50.546-83.07-.435-.863-.87-1.726-1.32-2.615-10.598-21.098-18.179-43.545-26.177-65.722-1.821-5.049-3.65-10.093-5.573-15.104-9.87-25.728-15.718-52.449-19.117-79.747l-.47-3.712c-.51-4.362-.934-8.728-1.343-13.1l-.254-2.633c-2.418-26.176-2.057-52.447-2.062-78.708-.002-7.252-.015-14.505-.03-21.757q-.036-20.301-.05-40.604-.016-20.511-.046-41.023l-.004-2.624-.015-10.579a207396 207396 0 0 1-.14-121.665l-.003-2.954a291191 291191 0 0 0-.104-91.617l-.003-2.98a673298 673298 0 0 1-.303-336.344c-.071-95.98-.13-191.961-.156-287.942v-2.769l-.007-24.781q-.006-30.071-.02-60.142l-.002-2.736-.007-13.634a171649 171649 0 0 1-.023-108.011v-2.396q-.001-18.758-.014-37.514-.013-18.412-.003-36.823.006-9.838-.006-19.676-.011-8.945.002-17.89.003-3.213-.005-6.427c-.058-23.577 1.941-45.62 18.958-63.607 14.764-13.91 36.79-11.378 52.645-.562M1268.915 531.872q2.918-.001 5.835-.005a11790 11790 0 0 1 15.963 0q8.73.001 17.459-.005 15.345-.006 30.692-.004 16.545.003 33.09-.002h2.124l10.734-.004q39.157-.011 78.313-.012a440238 440238 0 0 0 104.845-.013 1572701 1572701 0 0 1 241.678-.028 3064747 3064747 0 0 0 177.983-.015h2.896l137.988-.012h2.973q93.779-.007 187.557-.01h49.284l58.8-.002c97.543-.003 195.086-.008 292.63-.024h3.111l195.002-.034h3.072q95.245-.016 190.49-.021h2.972a3276393 3276393 0 0 1 189.866-.005q65.907.001 131.813-.013h2.87l45.694-.011a458058 458058 0 0 1 212.887-.01h2.528q39.62.004 79.24-.014a90941 90941 0 0 1 90.932.002q15.471.005 30.942-.01 17.16-.017 34.32 0 8.585.012 17.17-.004c31.193-.062 62.101.677 92.894 6.197l4.521.783c21.772 3.833 42.943 9.429 63.917 16.404l2.945.978c35.457 12.01 69.698 30.813 101.055 51.022l1.784 1.146A392 392 0 0 1 4230 615l1.87 1.29c14.569 10.076 28.74 20.616 42.165 32.179 2.717 2.32 5.483 4.555 8.277 6.781 12.134 9.926 23.16 21.13 34.25 32.188l1.567 1.557c5.843 5.821 11.536 11.708 16.871 18.005q1.441 1.66 2.887 3.316c60.945 70.457 101.845 152.478 117.688 244.23q.636 3.665 1.282 7.327 1.055 6.007 2.067 12.022.375 2.215.762 4.428c4.987 28.693 4.622 57.673 4.628 86.69.004 5.988.019 11.976.032 17.964q.033 15.713.047 31.424.015 16.843.046 33.685l.004 2.158.02 10.897q.07 39.355.119 78.71.05 39.036.112 78.072l.004 2.457.036 22.223.09 55.255.003 2.542q.096 61.162.178 122.326a912430 912430 0 0 0 .333 221.845c.13 82.274.256 164.549.473 313.42l.003 2.206.055 38.152q.063 41.774.108 83.548.02 18.42.051 36.838.022 12.66.034 25.323.007 7.236.022 14.472.015 6.585.017 13.17.001 2.358.01 4.718c.116 37.715.116 37.715-13.111 52.582-11.544 11.247-24.887 15.44-40.694 15.364-11.53-.33-18.412-5.151-26.306-13.364-12.359-13.32-15.182-30.527-15.122-48.07l-.003-2.644q-.001-4.38.008-8.762l-.002-6.376q-.002-8.79.01-17.58.005-9.553.004-19.105.001-16.753.013-33.505.011-17.976.015-35.952l.001-2.294.008-35.318v-2.416q.01-27.549.022-55.099.02-42.825.029-85.648v-2.607l.018-84.877a1511849 1511849 0 0 1 .078-265.283l.012-30.961.004-11.233.003-8.416q.025-63.417.039-126.835v-2.694l.014-82.147v-2.606q.008-41.496.031-82.994a160429 160429 0 0 0 .026-95.219v-2.293q.001-17.91.019-35.82.015-17.645.008-35.292a9805 9805 0 0 1 .01-18.85c.07-47.873-4.628-92.405-15.245-139.104l-.63-2.78C4348.639 918 4348.639 918 4338 889l-1.287-2.963c-16.907-38.84-40.046-74.03-67.58-106.13-3.417-4.003-6.665-8.118-9.883-12.282-3.321-4.285-6.706-8.326-10.645-12.059-1.794-1.75-3.411-3.6-5.043-5.503-6-6.938-12.59-13.12-19.562-19.063l-2.832-2.46c-20.057-17.335-42.06-31.616-65.168-44.54l-1.997-1.138c-61.402-34.876-133.87-50.034-203.844-50l-7.52-.01q-8.173-.008-16.347-.009-12.257-.002-24.515-.014-20.95-.018-41.9-.026-21.291-.007-42.582-.022l-2.725-.002-10.994-.008q-51.458-.037-102.917-.062a734565 734565 0 0 1-132.672-.077q-132.686-.083-265.373-.15l-7.072-.004-137.874-.073-38.719-.022c-116.376-.065-232.753-.128-765.275-.374l-45.673-.02c-88.33-.037-176.66-.075-497.119-.16h-4.276l-35.967-.006q-46.745-.006-93.491-.02l-2.074-.001-22.703-.008a390202 390202 0 0 0-161.11-.023h-3.52q-27.238-.001-54.475-.014-26.39-.014-52.78-.003-15.294.005-30.587-.008-10.138-.01-20.276.002-5.704.007-11.41-.003c-26.553-.055-53.217.74-79.588 4.068l-2.074.254C1168.875 644.396 1102.19 666.72 1046 706l-1.915 1.322c-9.974 6.891-19.654 14.06-29.085 21.678l-2.82 2.266A755 755 0 0 0 1004 738l-1.576 1.314C992.616 747.524 983.23 756.147 974 765l-1.63 1.56c-5.802 5.578-11.129 11.354-16.14 17.65-2.269 2.838-4.619 5.592-6.98 8.353C920.669 826.93 899.597 867.919 885 910l-1.03 2.96C870.84 951.196 863.4 990.762 860 1031l-.265 3.12c-.858 11.34-.905 22.652-.932 34.019l-.028 6.708q-.036 9.22-.062 18.439a18497 18497 0 0 1-.063 18.035q-.077 21.04-.138 42.08-.047 15.463-.098 30.927c-.299 91.396-.489 182.793-.695 341.031l-.004 3.073c-.086 72.155-.161 144.31-.235 216.466-.102 100.09-.206 200.182-.428 329.338l-.004 2.567-.005 2.552-.004 2.538-.01 5.033-.054 33.099a45249 45249 0 0 1-.217 93.205l-.01 3.213q-.035 10.86-.047 21.719-.014 12.573-.076 25.147c-.02 4.086-.035 8.173-.032 12.26q.003 5.457-.043 10.913c-.011 1.888-.003 3.776.006 5.664-.199 17.091-8.185 32.529-20.096 44.575-3.638 3.188-7.828 4.298-12.46 5.279l-2.457.66c-10.583 2.582-24.643 3.26-34.356-2.258-2.868-2.003-5.53-4.127-8.187-6.402l-2.41-2c-7.904-7.158-14.181-17.346-15.59-28a122 122 0 0 1-.138-5.52l-.016-3.277-.003-3.575-.015-3.835q-.018-5.288-.026-10.574-.013-5.756-.033-11.51-.036-11.444-.06-22.887-.02-9.535-.049-19.069l-.008-2.782-.015-5.62a108085 108085 0 0 1-.166-66.906q-.036-16.08-.077-32.16c-.278-112.91-.458-225.819-.58-549.245v-30.603q.001-54.127-.02-108.256a317473 317473 0 0 1-.023-137.879v-3.287q0-25.816-.015-51.631-.013-25.657-.003-51.313.007-13.8-.005-27.6c-.066-71.501-.066-71.501 2.252-102.471l.241-3.305c.423-5.7.92-11.385 1.509-17.07l.25-2.485c3.326-32.746 8.475-65.093 16-97.14l.508-2.167C788.675 897.222 800.074 863.286 815 831l1.491-3.245C830.543 797.356 846.966 767.89 867 741l1.891-2.542c7.29-9.761 14.69-19.384 22.656-28.603 2.442-2.843 4.795-5.744 7.14-8.667 3.27-4.022 6.713-7.701 10.43-11.31 1.813-1.808 3.475-3.678 5.133-5.628 6.638-7.701 13.97-14.909 21.715-21.492 2.443-2.11 4.794-4.31 7.16-6.508 5.211-4.752 10.66-9.108 16.238-13.418a286 286 0 0 0 7.055-5.633c21.986-18.09 46.218-33.476 71.269-46.954q2.37-1.275 4.731-2.564c69.378-37.782 147.746-55.909 226.497-55.809"/><path fill="#A55433" d="M3277.114 1055.737c3.57.004 7.14-.003 10.711-.01q9.37-.012 18.739-.006c9.289.006 18.578 0 27.867-.009 17.56-.015 35.119-.017 52.678-.014a90069 90069 0 0 0 55.366-.01q40.99-.013 81.98-.008h3.12l25.083.005q48.892.007 97.786-.021a162793 162793 0 0 1 124.601-.026q21.765 0 43.53-.016 24.77-.019 49.54-.002 13.843.012 27.687-.008 9.27-.012 18.542.006c3.51.006 7.021.008 10.532-.004 35.052-.094 71.547 3.245 99.124 27.386a133 133 0 0 1 5.063 6.188l1.41 1.827A795 795 0 0 1 4035 1097c.537.71 1.075 1.42 1.628 2.153 11.942 15.894 11.942 15.894 13.372 24.847l.514 2.216c.556 3.187.606 6.174.6 9.41v1.953c0 2.116-.008 4.231-.016 6.347l-.005 4.418q-.006 5.798-.024 11.594-.014 5.923-.02 11.845-.016 11.61-.049 23.217l3.543-.21c10.254-.587 20.486-1.002 30.758-1.03a440 440 0 0 0 4.311-.041c18.49-.266 29.879 3.811 43.263 16.594l1.66 1.54c7.777 7.73 8.976 16.705 9.07 27.248q.004 2.36.004 4.72.024 2.51.05 5.02c.045 4.495.065 8.99.08 13.486.019 4.696.058 9.392.094 14.088.063 8.684.104 17.368.135 26.052q.034 9.647.094 19.292.08 13.62.118 27.239.011 3.446.03 6.89.023 5.42.02 10.841c0 1.913.011 3.826.022 5.74-.044 17.248-2.093 35.05-13.994 48.5-12.576 11.898-28.39 14.228-44.945 14.156l-3.285-.006c-10.36-.054-20.687-.51-31.028-1.119l.108 2.177c1.822 38.14-.235 73.976-26.39 104.046-18.299 18.693-42.09 27.682-68.064 28.148l-3.379.032-3.735.056q-5.148.072-10.297.123-3.36.036-6.72.079c-44.893.556-89.791.563-134.686.636q-18.688.031-37.375.07-36.435.073-72.868.136a257184 257184 0 0 0-79.934.15c-.685 0-1.37.002-2.076.004l-4.148.008a280459 280459 0 0 1-172.946.292l-3.656.006q-27.189.039-54.377.094-24.786.05-49.573.076-14.106.014-28.212.05-9.278.021-18.554.023-5.202 0-10.405.019c-37.34.125-55.865-6.55-82.393-32.885L3179 1535l-2.578-2.516c-17.683-18.096-23.186-40.863-23.974-65.542l-.128-3.878c-.418-13.362-.477-26.723-.48-40.092-.002-3.56-.01-7.121-.016-10.682q-.02-11.588-.024-23.174l-.012-14.521a62153 62153 0 0 1-.026-42.973v-2.597l-.002-5.207v-2.608q-.009-20.974-.046-41.947-.035-21.645-.037-43.29.002-12.109-.025-24.218a5961 5961 0 0 1-.012-20.584c.004-3.49.003-6.98-.011-10.47-.105-30.995 3.495-60.626 23.371-85.701l1.297-1.648c6.415-8.072 12.801-14.957 21.703-20.352l1.798-1.104c8.245-4.974 16.572-8.656 25.827-11.333l2.453-.712c16.188-4.338 32.398-4.144 49.036-4.114m56.076 62.283c-12.754.037-25.508.1-38.262.197q-5.706.045-11.411.061-6.523.022-13.046.095-2.34.023-4.683.023c-16.719.014-26.736 4.473-38.475 16.104a278 278 0 0 0-5.313 5.5l-2.614 2.62c-3.16 3.863-3.153 7.398-3.179 12.247l-.072 2.846c-.075 3.429-.106 6.857-.135 10.287l-.052 4.15c-.142 11.032-.203 22.064-.251 33.096q-.035 7.372-.077 14.743c-.062 11.589-.115 23.177-.168 34.765q-.036 8.114-.076 16.227-.158 33.5-.293 66.999-.078 19.353-.174 38.708-.094 18.503-.14 37.005-.017 6.252-.053 12.504-.04 7.12-.04 14.241-.004 2.487-.024 4.974c-.158 20.47 4.32 38.059 18.19 53.66 7.535 6.732 19.933 5.396 29.425 5.429q2.447.024 4.894.051c4.458.047 8.916.075 13.375.099 3.84.023 7.678.057 11.518.09 13.648.12 27.297.194 40.946.259l3.192.016c31.605.154 63.21.228 94.816.281q19.15.034 38.3.074 34.386.07 68.772.132a260009 260009 0 0 1 85.864.166c35.456.072 70.911.142 106.367.197l3.792.005 33.276.05c25.573.037 51.146.083 76.719.163q19.9.063 39.799.1 11.762.023 23.525.077 8.513.037 17.025.04 3.352.007 6.705.03c17.582.573 17.582.573 33.82-5.186a113 113 0 0 0 6.466-7.457c2.647-3.313 5.311-6.577 8.125-9.75 2.65-2.558 2.65-2.558 2.437-4.938l4 2c2.258-9.51 2.33-18.91 2.379-28.617l.05-5.377c.046-4.92.08-9.841.112-14.762.036-5.307.083-10.615.129-15.923q.117-14.025.217-28.052.115-15.75.25-31.498l.018-2.075.072-8.375c.434-50.363.859-100.728.95-151.092q.01-5.418.031-10.836.025-6.174.021-12.35.001-2.199.013-4.396c.07-13.99-1.599-24.31-11.351-34.948-12.582-11.845-27.486-14.138-44.213-14.206l-4.595-.053c-4.212-.048-8.423-.077-12.635-.102-3.665-.024-7.33-.058-10.994-.091-49.385-.45-98.774-.394-148.16-.382q-14.743.003-29.485.001h-2.153l-8.666-.001q-40.25-.004-80.5.005-35.367.007-70.734 0a254222 254222 0 0 0-91.18-.004q-14.69.001-29.38-.002c-34.266-.008-68.53.015-102.796.125q-5.104.016-10.21.03M2544.938 1378.832c2.77 1.97 5.428 4.02 8.062 6.168l1.953 1.5c4.813 4.112 5.466 8.524 6.047 14.5.418 11.654-.383 23.354-.918 34.992l-.295 6.563q-.399 8.824-.805 17.648-.256 5.532-.508 11.064c-3.204 69.946-6.658 139.878-11.474 209.733 11.38-5.333 22.674-10.8 33.881-16.489 51.895-26.293 51.895-26.293 77.107-19.75 5.382 2.214 9.228 5.895 13.012 10.239l1.37 1.41c4.788 5.537 4.344 11.31 4.193 18.34l-.023 2.053c-.168 15.438-1.413 30.824-2.556 46.215-2.252 30.511-3.381 61.069-4.552 91.638q-.24 6.27-.486 12.541-.165 4.365-.325 8.728l-.204 5.312-.083 2.392c-.179 4.523-.616 8.9-1.334 13.371l3.462-1.45q6.504-2.719 13.011-5.429 2.79-1.163 5.577-2.33c9.686-4.055 19.388-8.04 29.231-11.701l2.259-.847c13.62-4.986 27.537-7.41 42.023-7.493l2.748-.062c7.646-.045 13.036 1.386 18.876 6.624l1.918 1.676c4.425 4.699 6.401 8.296 6.426 14.797l.012 1.986q.004 2.094-.022 4.188c-.02 2.018.002 4.036.026 6.055.097 33.659-8.788 68.1-14.624 101.097q-1.787 10.124-3.54 20.252l-.582 3.35c-3.192 18.504-5.715 37.048-7.693 55.721-1.542 14.018-4.273 26.347-12.296 38.254l-1.326 2.044A498 498 0 0 1 2749 2089l-2 3c-6.048 1.836-12.744 1.225-19 1.25l-3.852.063-3.71.015-3.38.028c-6.929-.807-11.762-6.234-16.058-11.356-7.343-11.31-8.241-23.602-5.73-36.543.73-2.457.73-2.457 2.168-5.006 1.964-4.34 2.605-8.431 3.289-13.119l.45-2.92c.493-3.199.97-6.4 1.448-9.6q.516-3.375 1.034-6.749a7060 7060 0 0 0 2.76-18.209l1.782-11.792.303-2.006 1.521-10.028.302-1.99.899-5.911q.862-5.706 1.716-11.413c4.867-32.332 4.867-32.332 7.058-36.714l-1.947.788a9564 9564 0 0 1-18.478 7.455q-4.749 1.908-9.492 3.83c-12.165 4.923-24.32 9.834-36.763 14.02l-2.446.83c-8.453 2.76-17.042 4.203-25.874 5.077l-3.945.418c-7.394.423-12.129-.561-17.926-5.29-8.628-8.627-9.279-16.61-9.332-28.273l-.017-3.03q-.015-3.205-.02-6.408c-.01-3.098-.04-6.196-.073-9.294-.204-37.353 4.284-74.678 8.096-111.783.465-4.542.922-9.085 1.379-13.628q.665-6.596 1.338-13.192.318-3.129.634-6.258.436-4.308.882-8.614l.258-2.583c.612-5.836.612-5.836 1.726-8.065l-3.59 1.59c-12.415 5.464-24.9 10.759-37.42 15.98a2495 2495 0 0 0-5.267 2.205c-9.475 3.978-18.983 7.774-28.68 11.182l-2.526.89c-10.137 3.497-21.194 5.032-31.517 1.153-3.722-2.301-6.852-4.971-10-8l-1.89-1.742c-7.362-8.04-6.226-21.11-6.188-31.386l.005-2.614c.048-10.324.369-20.639.702-30.957l.211-6.735q.292-9.195.596-18.392l.38-11.65c1.649-50.356 3.665-100.697 5.753-151.037l.356-8.6q.68-16.466 1.372-32.932.213-5.051.423-10.103.245-5.871.495-11.741.09-2.123.178-4.247c1.49-36.04 1.49-36.04 13.607-47.864 12.708-10.567 25.955-10.889 39.938-2.168"/><path fill="#A45533" d="M3234.246 1708.21c7.65 7.804 8.947 17.796 9.004 28.102.03 1.388.03 1.388.063 2.803.115 20.33-21.12 37.655-34.2 51.56-3.47 3.694-6.82 7.473-10.113 11.325l-2.695 3.098a526 526 0 0 0-18.813 22.98 1114 1114 0 0 1-4.836 6.172c-7.584 9.65-14.883 19.466-22.012 29.456a1137 1137 0 0 1-5.171 7.146l-1.762 2.421a2337 2337 0 0 1-3.31 4.54A205 205 0 0 0 3131 1892l3.855.656c8.317 1.67 16.368 4.327 24.457 6.844l2.59.802c11.554 3.584 23.078 7.254 34.535 11.136l3.527 1.175c11.42 3.942 20.566 9.159 26.036 20.387 2.093 10.349 2.273 21.564-3.113 30.938-8.387 11.874-19.789 22.786-30.766 32.222-2.346 2.035-4.638 4.123-6.934 6.215a218 218 0 0 1-10.312 8.75c-6.33 5.118-12.185 10.714-18.094 16.309a404 404 0 0 1-8.843 8.129c-4.827 4.307-9.548 8.723-14.27 13.144-3.87 3.62-7.756 7.219-11.668 10.793a1850 1850 0 0 0-15.363 14.238 2554 2554 0 0 1-13.72 12.72c-4.177 3.85-8.33 7.725-12.48 11.604q-9.66 9.031-19.437 17.938l-2.508 2.293a700 700 0 0 1-14.18 12.52l-1.583 1.382c-7.256 6.187-12.374 8.48-21.916 8.242l-2.815-.042c-8.696-.233-18.497-.842-25.533-6.57-7.277-9.063-8.164-21.777-7.09-32.887 2.305-11.114 12.837-19.455 20.691-27.21q2.254-2.231 4.495-4.474c4.744-4.727 9.55-9.334 14.636-13.693 2.954-2.557 5.774-5.255 8.615-7.936 4.974-4.66 10.078-9.047 15.399-13.309 3.805-3.16 7.417-6.509 11.024-9.892a225 225 0 0 1 8.242-7.381c6.026-5.248 11.603-10.975 17.242-16.632q2.957-2.963 5.924-5.917l3.806-3.81 1.768-1.762c7.223-6.475 7.223-6.475 10.49-15.008l.088-2.129.017-2.16.077-2.23c.058-1.798.088-3.597.111-5.395h8l-1-7-3.586-1.174a5847 5847 0 0 1-13.424-4.423q-2.88-.95-5.763-1.893c-9.665-3.165-19.286-6.385-28.711-10.213l-2.04-.818c-7.694-3.211-15.037-8.103-20.476-14.479-3.32-9.767-2.256-24.655 1.879-33.898 5.296-9.93 13.328-18.294 20.871-26.57 2.329-2.62 4.546-5.307 6.75-8.032a234 234 0 0 1 9-10.5c3.946-4.33 7.651-8.816 11.332-13.371 1.913-2.32 3.884-4.541 5.918-6.754 4.363-4.848 8.252-10.031 12.186-15.226a705 705 0 0 1 12.686-16.197c3.304-4.105 6.571-8.237 9.816-12.39 4.016-5.14 8.117-10.203 12.25-15.25 4.329-5.29 8.451-10.669 12.425-16.234 5.419-7.404 11.451-14.273 17.637-21.039 2.35-2.651 4.549-5.39 6.75-8.164 13.362-16.469 34.65-23.161 53.746-10.164"/><path fill="#A45434" d="m3298.274 1176.87 2.092-.005q3.398-.004 6.794.002l4.78-.003q5.004-.002 10.008.006 6.356.006 12.71-.004 4.94-.005 9.877 0 2.34 0 4.68-.002c32.59-.039 32.59-.039 40.223 7.073 3.246 3.88 3.685 6.442 3.693 11.378l.012 2.607-.003 2.851.01 3.04q.01 5.055.011 10.112l.015 7.239q.019 9.843.024 19.686l.012 12.294a43870 43870 0 0 1 .026 36.245v2.206l.002 4.425v2.217q.009 17.781.046 35.564.035 18.26.037 36.521-.001 10.251.025 20.502.024 9.642.01 19.283-.002 3.54.013 7.078c.013 3.22.007 6.44-.004 9.661l.025 2.83c-.065 8.548-2.581 14.066-8.392 20.324-8.495 4.247-21.61 2.164-31.004 2.168l-5.194.01q-5.418.009-10.835.007c-4.605 0-9.21.014-13.815.031q-5.355.015-10.71.013a1307 1307 0 0 0-5.09.013c-23.744.099-23.744.099-30.414-5.555-3.264-3.363-4.45-5.415-4.675-10.096l-.17-3.502c-.232-8.742-.24-17.484-.238-26.228l-.01-6.662q-.014-8.996-.012-17.993l-.006-11.256q-.014-18.645-.012-37.288v-4.049q-.002-16.269-.023-32.538-.023-16.749-.02-33.498.001-9.386-.014-18.772-.014-8.823-.003-17.646.003-3.228-.007-6.458c-.072-27.385-.072-27.385 5.752-35.764l1.844-2.722c3.066-4.1 3.066-4.1 6.826-4.832 3.732-.373 7.354-.51 11.104-.512"/><path fill="#A45433" d="m2104.875 1768.813 3.262-.038c8.969-.016 14.32 1.208 21.175 7.225l1.718 1.484c7.764 6.828 14.169 14.712 20.654 22.73 2.362 2.841 4.814 5.568 7.316 8.286 4.114 4.47 7.97 9.09 11.785 13.816 2.882 3.492 5.927 6.82 8.977 10.164 2.266 2.552 4.413 5.172 6.55 7.832 4.41 5.452 9.123 10.565 13.903 15.688 2.763 2.964 5.44 5.996 8.094 9.059 4.829 5.542 9.788 10.97 14.786 16.36 4.757 5.14 9.265 10.407 13.659 15.866 2.334 2.822 4.766 5.52 7.246 8.215 4.894 5.33 9.465 10.865 14 16.5q4.096 5.048 8.2 10.09a1462 1462 0 0 1 7.21 8.922c3.534 4.393 7.153 8.627 11.032 12.717 18.646 19.7 18.646 19.7 18.538 33.83-.59 9.035-3.246 16.23-9.98 22.441-2.393 1.61-4.425 2.812-7 4l-2.246 1.094c-6.429 2.88-12.701 4.153-19.754 3.906l-2.328.039c-10.405-.701-16.2-8.545-22.922-15.664a1629 1629 0 0 0-3.719-3.816c-5.307-5.456-10.51-10.982-15.465-16.76-3.04-3.49-6.255-6.819-9.441-10.174-5.06-5.352-10.08-10.73-14.98-16.23a844 844 0 0 0-7.77-8.52 536 536 0 0 1-10.64-11.895c-2.008-2.291-4.059-4.54-6.11-6.793a251 251 0 0 1-9.062-10.624A228 228 0 0 0 2152 1907.5c-4.114-4.47-7.97-9.09-11.785-13.816-2.171-2.631-4.417-5.163-6.715-7.684a228 228 0 0 1-8.937-10.437c-3.916-4.838-8.03-9.448-12.243-14.028a269 269 0 0 1-5.57-6.285c-3.444-3.967-7.035-7.79-10.625-11.625l-1.853-1.989c-2.633-2.825-5.273-5.637-7.967-8.406-9.434-9.897-14.847-21.388-14.559-35.16.68-8.21 1.797-17.633 7.254-24.07 8.512-4.604 16.388-5.182 25.875-5.187"/><path fill="#A85737" d="M3581.25 2036.125c6.534 4.972 11.114 10.202 12.508 18.453.814 8.138 1.561 16.94-3.508 23.785-2.319 2.662-4.737 5.158-7.25 7.637l-2.441 2.438c-12.475 11.883-27.362 20.885-41.937 29.933a2824 2824 0 0 0-8.317 5.191 14473 14473 0 0 1-15.224 9.515q-7.542 4.71-15.081 9.423l-6 3.75-3 1.875-9 5.625-3 1.875-5.993 3.746a29170 29170 0 0 0-23.849 14.916l-2.701 1.69-2.947 1.844a928 928 0 0 1-8.147 5.006c-9.277 5.668-18.423 11.474-27.398 17.61l-2.755 1.883q-5.552 3.8-11.087 7.627c-17.323 11.964-32.29 20.993-54.076 17.592A44.3 44.3 0 0 1 3333 2225l-2.465-1.113c-5.096-2.8-7.15-5.429-9.035-10.95a126 126 0 0 1-1.5-5.937l-.582-2.473c-1.284-7.766-1.825-17.673 2.852-24.336 18.361-22.204 45.376-36.624 69.393-51.72q3.457-2.176 6.907-4.362c11.755-7.44 23.548-14.819 35.35-22.186q7.54-4.71 15.08-9.423l9-5.625 12-7.5 6.002-3.752q7.477-4.676 14.963-9.338c23.465-14.457 23.465-14.457 46.46-29.637 2.388-1.528 4.443-2.501 7.137-3.335l2.192-.7c11.382-3.107 24.421-3.09 34.496 3.512"/><path fill="#A65534" d="m1975.375 2069.688 2.684 1.406c9.016 4.81 17.704 10.14 26.406 15.487 10.224 6.276 20.61 12.224 31.094 18.057a761 761 0 0 1 6.437 3.635 1031 1031 0 0 0 51.445 27.457l3.046 1.517a3593 3593 0 0 0 15.082 7.457c49.008 24.181 49.008 24.181 60.431 43.296.75 3.25.75 3.25 1 7l.156 2.316c.356 9.46-2.12 18.273-8.156 25.684-10.987 9.239-26.323 8.628-39.855 7.832-14.283-1.882-27.673-10.512-39.912-17.56-7.663-4.413-15.423-8.625-23.233-12.772a1119 1119 0 0 1-28.7-15.797A1062 1062 0 0 0 2014 2174a1483 1483 0 0 1-25.177-14.002 1916 1916 0 0 0-15.128-8.51c-9.96-5.537-19.896-11.106-29.695-16.925l-2.37-1.393c-4.83-2.898-9.276-6.102-13.679-9.615a160 160 0 0 0-5.014-3.805c-5.078-4.392-10.098-9.89-11.55-16.57-.082-3.15.18-6.058.613-9.18l.488-3.895c1.226-8.47 2.983-17.34 8.512-24.105 17.34-11.461 37.603-5.127 54.375 3.688"/><path fill="#E2C3B9" d="m2712 2229-3 1c-.733 2.015-.733 2.015-1 4-.696.03-1.391.062-2.108.094q-9.927.444-19.853.924-5.1.248-10.203.474c-3.927.175-7.854.366-11.781.559l-3.626.152c-10.025.517-19.519 2.409-29.175 5.102-5.023 1.123-9.4.048-14.316-1.18l-2.624-.605A486 486 0 0 1 2608 2238l-1-6c34.958-5.675 69.767-6.205 105-3"/><path fill="#DBB6A9" d="m1443 3784 1 3h2c6.019 19.26 1.548 37.632-3.583 56.525-3.465 13.011-5.896 26.255-8.417 39.475-4.985-4.985-4.436-12.21-4.438-18.81.452-22.839 5.773-46.09 9.945-68.478.527-2.9 1.015-5.804 1.493-8.712h2z"/><path fill="#AE664A" d="M3019 2063c3 1 3 1 3.984 2.926l.766 2.387.797 2.363c.51 2.618.331 3.825-.547 6.324-1.411 1.752-1.411 1.752-3.203 3.496l-1.973 1.943-2.074 1.999-2.027 1.986q-1.959 1.918-3.927 3.829A584 584 0 0 0 3004 2097c-1.812 1.813-1.812 1.813-4 3h-8v21h-5c-2.847-9.882-2.854-19.733 2-29 1.843-1.967 3.586-3.649 5.625-5.375 5.772-5.094 11.264-10.412 16.688-15.875l2.3-2.314q2.697-2.715 5.387-5.436"/><path fill="#AF6242" d="m3183 1716 13 4c-1.933 3.866-4.134 6.49-7.062 9.563-4.517 4.825-8.774 9.796-12.922 14.945-2.607 3.223-5.301 6.36-8.016 9.492-3.923-1.825-6.738-4.183-10-7 1.408-4.294 3.459-6.87 6.563-10.125 4.362-4.666 8.442-9.47 12.43-14.465 1.874-2.25 3.936-4.34 6.007-6.41"/><path fill="#A55E40" d="M2301 1975c2.962 8.576 2.462 17.772-.984 26.117-2.44 4.523-6.406 9.504-11.016 11.883-4.753-.272-9.514-2.446-14-4a105 105 0 0 1 4-5h2l.848-1.73a92 92 0 0 1 2.336-4.32c4.078-7.356 5.471-14.75 6.816-22.95 7.75-1.125 7.75-1.125 10 0"/><path fill="#B06244" d="m2846 2200 9 3 1.83.54c7.423 2.281 14.282 5.736 21.233 9.148l3.779 1.837q4.583 2.23 9.158 4.475v3c-2.117 1.824-2.117 1.824-4.875 3.688l-2.742 1.886C2881 2229 2881 2229 2879 2229v-8l-3.113-.332c-10.4-1.166-20.64-2.42-29.887-7.668z"/><path fill="#BE836C" d="m2221 3645 66 4 1 5c-8.771 1.284-17.548 2.304-26.375 3.125l-2.77.265c-5.644.51-11.189.69-16.855.61v-7l-1.8-.076q-4.1-.177-8.2-.361l-2.832-.12c-5.44-.247-10.775-.686-16.168-1.443v-1h7z"/><path fill="#B1684A" d="M929 670c.87 11.347-2.525 19.021-9.863 27.594L917 700l-1.98 2.406c-4.707 5.336-4.707 5.336-8.524 6.086-2.228.007-4.3-.126-6.496-.492 1.748-5.439 3.778-9.43 7.402-13.848 1.755-2.248 1.755-2.248 3.309-5.402 2.577-4.605 6.214-8.04 9.976-11.687l2.088-2.073c5.07-4.99 5.07-4.99 6.225-4.99"/><path fill="#A96142" d="M3982 1479c3.624 1.432 4.936 3.027 6.75 6.438l1.297 2.37C3991 1490 3991 1490 3991 1493c-2.07 2.834-4.604 5.252-7.062 7.75l-1.99 2.152c-1.906 1.94-3.666 3.617-5.948 5.098-3.785.008-3.785.008-7-1l-3.375-.875L3963 1505l-1-3 1.938-1.875c6.57-6.589 12.663-13.545 18.062-21.125"/><path fill="#C28C77" d="M3041 3407h1l.113 2.422c.47 7.831 1.727 15.04 3.887 22.578l8 1c-.42 8.296-.962 16.561-1.937 24.813l-.465 3.957C3051 3465 3051 3465 3049 3468a432 432 0 0 1-2.312-4.812l-1.301-2.708c-4.652-11.675-4.753-22.267-4.575-34.668q.024-2.742.042-5.486c.032-4.442.084-8.884.146-13.326"/><path fill="#F3E9E5" d="M3116 1954c4.609.72 8.672 2.313 13 4 .65 3.187.813 5.832 0 9-2.922 3.03-6.345 4.957-10 7l-2.598 1.543c-5.955 3.457-5.955 3.457-8.402 3.457v-17h8z"/></svg>