<?xml version="1.0" encoding="UTF-8"?>
<svg version="1.1" xmlns="http://www.w3.org/2000/svg" width="1254" height="1254">
<path d="M0 0 C413.82 0 827.64 0 1254 0 C1254 413.82 1254 827.64 1254 1254 C840.18 1254 426.36 1254 0 1254 C0 840.18 0 426.36 0 0 Z " fill="none" transform="translate(0,0)"/>
<path d="M0 0 C3.01286852 1.76997892 5.41228811 3.82457623 7 7 C7.09676476 8.81849965 7.12843173 10.64059187 7.13028526 12.46166325 C7.13390961 13.62906577 7.13753396 14.7964683 7.14126813 15.99924666 C7.13966576 17.93998844 7.13966576 17.93998844 7.13803101 19.91993713 C7.14044764 21.29960602 7.14330947 22.67927418 7.14658034 24.0589413 C7.15435595 27.86393621 7.15595396 31.66891311 7.15663147 35.47391498 C7.1584674 39.57309005 7.16607255 43.67225448 7.17311096 47.77142334 C7.18465247 54.88190644 7.19288891 61.99238715 7.19923019 69.10287666 C7.20955233 80.35277495 7.23011748 91.60264365 7.25234985 102.8525238 C7.25983045 106.70179453 7.26724415 110.55106537 7.27463722 114.40033627 C7.27741307 115.84355752 7.27741307 115.84355752 7.280245 117.31593477 C7.30118648 128.27694515 7.32000491 139.23795884 7.33789062 150.19897461 C7.3403479 151.70234496 7.3403479 151.70234496 7.34285481 153.23608642 C7.36908968 169.44575145 7.3877591 185.65541876 7.40448253 201.86509598 C7.42193804 218.51600074 7.45082469 235.1668611 7.4893719 251.81773037 C7.5127082 262.08093235 7.52676073 272.3440619 7.52869953 282.60729062 C7.53081815 289.6544693 7.54382425 296.70157621 7.56517886 303.74872262 C7.57713958 307.80749354 7.58440536 311.86612206 7.57846642 315.92490959 C7.01125265 343.90574815 7.01125265 343.90574815 14.8125 370.4375 C15.16505859 371.18773437 15.51761719 371.93796875 15.88085938 372.7109375 C28.21236688 398.53772454 48.05501119 416.1763895 74.77734375 426.0234375 C84.63168472 429.16810871 94.42495466 430.29820882 104.73120594 430.25168228 C106.43317072 430.2560426 106.43317072 430.2560426 108.16951862 430.26049101 C111.96323075 430.26777708 115.75678044 430.26085399 119.55049133 430.25396729 C122.30125219 430.25516389 125.05200666 430.25936718 127.80276459 430.26342177 C133.7792694 430.27063148 139.75573804 430.27043443 145.73224449 430.26532745 C154.6197696 430.25775369 163.50726428 430.26163459 172.39478919 430.26774407 C188.26995133 430.27827092 204.14509736 430.27736451 220.02026103 430.27158624 C233.91481205 430.26655378 247.80935717 430.26524236 261.70390892 430.26763153 C262.62581434 430.2677843 263.54771976 430.26793707 264.49756171 430.26809447 C268.23997374 430.26871716 271.98238577 430.26935396 275.7247978 430.270014 C310.82998675 430.2761316 345.93516545 430.27058597 381.04035282 430.2598202 C412.21855777 430.25033142 443.39674637 430.25117631 474.57495117 430.26074219 C509.61168789 430.271456 544.64841554 430.27569536 579.68515366 430.26951766 C583.42165037 430.26887624 587.15814708 430.26825056 590.89464378 430.26763153 C591.81464973 430.26747338 592.73465567 430.26731522 593.68254058 430.26715227 C607.56513506 430.26487897 621.44772298 430.26753487 635.33031654 430.27259064 C651.12051022 430.27831248 666.91068527 430.2768725 682.70087663 430.26602915 C691.53404179 430.26016309 700.36716663 430.2597638 709.20033074 430.2673215 C715.10575301 430.27181615 721.01114305 430.26899728 726.91656056 430.26031196 C730.27783092 430.25556907 733.63895597 430.25500555 737.00023381 430.26112393 C760.20284437 430.56597594 760.20284437 430.56597594 782.625 425.25 C783.33881836 424.98541992 784.05263672 424.72083984 784.78808594 424.44824219 C809.72801111 414.99909301 828.56706252 397.15846258 840 373 C845.88568938 358.53802039 848.46672085 343.99472752 848.36508179 328.43600464 C848.36694619 327.03656224 848.37014215 325.63712112 848.3745333 324.23768437 C848.38277497 320.43880778 848.37272076 316.64017728 848.35944462 312.84132338 C848.34844514 308.72692822 848.35502272 304.61255578 848.35957336 300.49815369 C848.36529513 293.38402699 848.36073112 286.2699687 848.34955978 279.15584946 C848.33385306 268.86481847 848.33949482 258.5738788 848.35117622 248.28284635 C848.37003021 231.57560783 848.37928892 214.86838179 848.37890625 198.16113281 C848.37888881 197.16308971 848.37887137 196.16504661 848.3788534 195.13675977 C848.37840063 183.98763498 848.37506045 172.83851466 848.36798096 161.68939209 C848.36734857 160.68517651 848.36671619 159.68096093 848.36606465 158.64631457 C848.36543208 157.64297837 848.36479952 156.63964217 848.36414778 155.60590184 C848.36287798 153.58231998 848.36161257 151.55873812 848.36035156 149.53515625 C848.35940928 148.03538179 848.35940928 148.03538179 848.35844795 146.50530885 C848.34850114 129.84500696 848.35779743 113.18477948 848.38253558 96.52449334 C848.39697647 86.25494211 848.39488269 75.9856526 848.37157358 65.71611638 C848.35685125 58.68922066 848.35995043 51.6624788 848.3772025 44.63558929 C848.38655829 40.58012892 848.38763266 36.52509529 848.36697197 32.46966743 C848.34821432 28.75902664 848.35233404 25.04914757 848.37479956 21.33853389 C848.38076002 19.35760706 848.36199188 17.37665376 848.34240663 15.39581478 C848.43690705 5.8172971 848.43690705 5.8172971 851.47619057 2.73161507 C852.72547624 1.87446561 852.72547624 1.87446561 854 1 C854.33 0.67 854.66 0.34 855 0 C858.05397552 -0.44169067 860.95030077 -0.47716383 864 0 C866.75569447 2.18159145 868.43588747 3.87177494 870 7 C870.09711475 8.81141408 870.12918817 10.62644513 870.13142776 12.44045925 C870.13526891 13.60314498 870.13911005 14.76583072 870.1430676 15.96374935 C870.14220112 17.25232202 870.14133463 18.54089469 870.14044189 19.86851501 C870.14302421 21.24263374 870.146037 22.61675171 870.1494453 23.99086863 C870.15753567 27.78060082 870.15930602 31.57031409 870.16004276 35.3600539 C870.16189004 39.44290673 870.16943622 43.52574967 870.17617798 47.6085968 C870.18978119 56.5474842 870.19579048 65.48636713 870.20018864 74.42526317 C870.20295044 80.01120203 870.20718794 85.59713916 870.21169281 91.18307686 C870.22389323 106.6576206 870.23418765 122.13216294 870.2375679 137.60671139 C870.23778747 138.59797884 870.23800703 139.5892463 870.23823325 140.61055217 C870.23845153 141.60418476 870.23866981 142.59781736 870.2388947 143.62156004 C870.23933816 145.6349951 870.23978473 147.64843017 870.24023438 149.66186523 C870.2404558 150.6605969 870.24067723 151.65932856 870.24090537 152.68832482 C870.24484487 168.83523249 870.26226941 184.9820948 870.2855939 201.12898498 C870.30936383 217.71885389 870.32177249 234.30870013 870.32293582 250.89858633 C870.32384997 260.20789243 870.3295355 269.51713959 870.34775543 278.82642937 C870.3632334 286.76282456 870.36823224 294.69914264 870.36001733 302.63555007 C870.35613646 306.67838287 870.35691294 310.72106077 870.37107468 314.76387405 C870.50098263 354.10348246 870.50098263 354.10348246 864.25 371.3125 C863.86485229 372.4121106 863.86485229 372.4121106 863.47192383 373.53393555 C857.46521663 390.16303021 848.22239197 404.26745602 836 417 C835.26910156 417.78246094 834.53820313 418.56492187 833.78515625 419.37109375 C821.2740673 432.4098912 804.92978047 441.09420057 788 447 C787.35296205 447.22600759 786.7059241 447.45201519 786.03927895 447.68487149 C771.12883116 452.68198653 756.59886138 452.6997513 741.00740051 452.62145996 C738.19752483 452.62301725 735.38768427 452.63211061 732.57782286 452.64082003 C726.496852 452.65570885 720.41611311 452.65227588 714.33514786 452.63640213 C705.29236324 452.61286242 696.24975145 452.61821872 687.20695094 452.62911103 C671.05236904 452.64764925 654.89789782 452.63802598 638.74332499 452.61663339 C624.6077364 452.5980475 610.47218491 452.58965705 596.33658409 452.59120178 C595.39749633 452.59129346 594.45840857 452.59138513 593.4908636 452.59147959 C589.67845426 452.59187277 585.86604493 452.5923224 582.0536356 452.59285098 C546.32258106 452.59771735 510.5915923 452.57509067 474.8605582 452.53889475 C443.1372498 452.50689584 411.41399756 452.49485291 379.69067383 452.50097656 C377.6531801 452.50136341 375.61568636 452.50174987 373.57819263 452.50213593 C372.57087837 452.50232728 371.56356411 452.50251862 370.52572517 452.50271577 C365.45469749 452.50367015 360.3836698 452.50458452 355.3126421 452.50545502 C354.31213483 452.50562881 353.31162757 452.5058026 352.2808019 452.50598167 C325.74556085 452.51033941 299.21032583 452.50031722 272.67508906 452.48561716 C271.73084326 452.48509702 270.78659746 452.48457688 269.81373816 452.48404097 C268.87124628 452.48352163 267.9287544 452.48300229 266.95770216 452.4824672 C265.54660196 452.48169059 265.54660196 452.48169059 264.10699469 452.48089829 C262.21251119 452.47985021 260.3180277 452.47879 258.42354421 452.47771757 C245.23212577 452.47034539 232.0407159 452.46824721 218.84929564 452.46971158 C201.84944481 452.47155936 184.84964684 452.46345412 167.84981326 452.43807012 C158.86593448 452.42493349 149.88214003 452.41987774 140.89825373 452.42670866 C134.89008863 452.4304326 128.8820002 452.42316299 122.87385557 452.40711627 C119.45564523 452.39828091 116.03774996 452.39565042 112.61951504 452.40304345 C74.07370805 452.47833872 45.27125591 441.8355446 17.5078125 414.55078125 C-3.57121627 392.58525127 -14.3212689 362.72371342 -14.28088379 332.60694885 C-14.28606384 331.18947068 -14.29209366 329.77199541 -14.29889059 328.35452408 C-14.31488448 324.49193601 -14.31860142 320.62942255 -14.32008553 316.76680529 C-14.32381181 312.58894751 -14.33891774 308.41112735 -14.35235596 304.23329163 C-14.37940824 295.11825998 -14.39155094 286.00324606 -14.40037727 276.88818097 C-14.4059153 271.19542334 -14.41439176 265.50267243 -14.42338562 259.80991936 C-14.44774416 244.03984918 -14.46835574 228.26978435 -14.4751358 212.49969578 C-14.47557494 211.49245199 -14.47601407 210.4852082 -14.47646651 209.44744187 C-14.47690306 208.43786416 -14.47733962 207.42828644 -14.4777894 206.38811547 C-14.47867632 204.34248388 -14.47956945 202.29685229 -14.48046875 200.2512207 C-14.48091161 199.23652802 -14.48135447 198.22183534 -14.48181075 197.1763944 C-14.4897213 180.70374428 -14.52468553 164.2312703 -14.57118779 147.75868834 C-14.61857409 130.83634155 -14.64353723 113.91408335 -14.64587164 96.99166912 C-14.6477062 87.49397242 -14.65923928 77.99650607 -14.69551086 68.49887276 C-14.72625636 60.42025703 -14.73658672 52.34194301 -14.72003466 44.26327992 C-14.71220437 40.14093219 -14.71416326 36.01919269 -14.74214935 31.89691925 C-14.7675239 28.12500072 -14.76532747 24.35415067 -14.74096793 20.58223473 C-14.73517009 18.56833641 -14.75900443 16.55442051 -14.78381205 14.54066664 C-14.68961853 6.008189 -14.68961853 6.008189 -12.6898756 3.08466136 C-8.68458587 -0.38134617 -5.03435132 -1.28110729 0 0 Z " fill="#915336" transform="translate(198,633)"/>
<path d="M0 0 C1.14272079 -0.00320648 2.28544159 -0.00641296 3.46279028 -0.0097166 C7.29002827 -0.01801468 11.1171097 -0.01209283 14.94435024 -0.00622082 C17.71685923 -0.00813593 20.48936114 -0.01304994 23.26186651 -0.01781338 C29.28906552 -0.0265649 35.31623055 -0.02789123 41.34343433 -0.02431011 C50.30652192 -0.01899871 59.26957666 -0.02510289 68.23266067 -0.03339304 C85.17400437 -0.0486317 102.11533312 -0.05033817 119.05668224 -0.04787002 C132.14173191 -0.04603692 145.22677669 -0.04779733 158.31182575 -0.05209446 C160.19218426 -0.05269686 162.07254277 -0.05329806 163.95290129 -0.05389806 C166.78650345 -0.05480533 169.62010562 -0.05571399 172.45370779 -0.05663041 C198.79978399 -0.06506006 225.14585836 -0.06939564 251.49193573 -0.06522369 C252.98169985 -0.06498913 252.98169985 -0.06498913 254.50156022 -0.06474983 C259.53527426 -0.06394405 264.56898829 -0.06309828 269.60270233 -0.06223653 C270.60239697 -0.06206544 271.60209161 -0.06189435 272.63208003 -0.06171808 C274.65370671 -0.06137142 276.6753334 -0.06102289 278.69696008 -0.06067249 C310.14356522 -0.05531697 341.59014231 -0.06324085 373.03674221 -0.08170605 C408.37601103 -0.10243273 443.71526247 -0.11314734 479.05453771 -0.10913056 C482.82452484 -0.10873522 486.59451196 -0.10837368 490.36449909 -0.10803318 C491.75687271 -0.10789708 491.75687271 -0.10789708 493.17737509 -0.10775824 C507.17755844 -0.10659328 521.17772422 -0.11323295 535.17790318 -0.1238451 C551.10674669 -0.13590694 567.03555155 -0.13744485 582.96439565 -0.12505493 C591.87248507 -0.11843565 600.78048204 -0.12003582 609.68856403 -0.13364345 C615.64779282 -0.14190991 621.60695263 -0.13916197 627.56617586 -0.12766818 C630.9557866 -0.12143328 634.34507121 -0.12143068 637.73469413 -0.13153151 C651.59291097 -0.16994985 664.7675234 0.07808823 678.3065176 3.25447559 C679.31957551 3.49140729 680.33263341 3.72833899 681.37639004 3.97245044 C683.77545725 4.56054718 686.13114994 5.22287478 688.4940176 5.94197559 C689.328605 6.19543751 690.16319241 6.44889942 691.02307034 6.710042 C707.35615201 11.94152382 720.97016241 22.60124105 733.3065176 34.25447559 C734.43186916 35.28314747 734.43186916 35.28314747 735.5799551 36.33260059 C754.66939102 54.41732936 768.46210213 82.47048979 769.40139353 108.92677128 C769.44441465 112.23907486 769.45420373 115.55005849 769.45368862 118.86264515 C769.45736531 120.13437751 769.461042 121.40610988 769.4648301 122.71637958 C769.47480257 126.23487152 769.47855914 129.75334641 769.48121941 133.27185047 C769.48513624 137.07079433 769.49471307 140.86972486 769.50343227 144.66866016 C769.52315019 153.8330658 769.53325357 162.99747247 769.54216006 172.16189399 C769.54654763 176.47912648 769.55191294 180.79635776 769.55714893 185.11358929 C769.57415089 199.46459575 769.58864749 213.81560146 769.59589767 228.16661644 C769.59780748 231.88657666 769.59972784 235.60653688 769.60168362 239.32649708 C769.60216736 240.2510459 769.6026511 241.17559472 769.6031495 242.12816017 C769.61145928 257.12280797 769.63681676 272.11737624 769.66926429 287.11198927 C769.7023128 302.50979042 769.72034413 317.9075511 769.72354192 333.30538791 C769.72570825 341.94968223 769.73447585 350.59386032 769.76000309 359.23812008 C769.78167929 366.59507371 769.78977546 373.95188283 769.78003631 381.30886478 C769.77548362 385.06258868 769.77743393 388.81601418 769.79679775 392.56969738 C769.81760266 396.63777274 769.80747078 400.7051828 769.79426479 404.77328968 C769.81071866 406.55503923 769.81071866 406.55503923 769.82750493 408.37278372 C769.77835195 414.62204079 769.57624947 418.53630682 765.3065176 423.25447559 C762.10244458 425.60412915 759.20376995 425.80009092 755.3065176 425.25447559 C751.87886436 423.18674974 749.59942348 421.13319324 748.3065176 417.25447559 C748.21225219 415.52801516 748.17634738 413.79811657 748.17343903 412.06908703 C748.16919798 410.98881154 748.16495693 409.90853606 748.16058737 408.79552495 C748.1609735 407.60420859 748.16135964 406.41289222 748.16175747 405.18547535 C748.1564672 403.29230373 748.1564672 403.29230373 748.15107006 401.36088622 C748.14136082 397.85055032 748.13781973 394.34023071 748.13522708 390.82988334 C748.13133635 387.04648957 748.1216987 383.26311022 748.11266994 379.47972584 C748.09772171 372.92036577 748.08618125 366.36100685 748.07672215 359.8016367 C748.06285363 350.30802768 748.04166586 340.81444533 748.01829361 331.32085545 C747.98035936 315.90599425 747.94540007 300.49112821 747.91369534 285.07625294 C747.91179484 284.15321966 747.90989435 283.23018638 747.90793627 282.27918239 C747.88112062 269.18828634 747.85724327 256.09738656 747.83455127 243.00648279 C747.83295397 242.08526866 747.83135666 241.16405453 747.82971096 240.21492481 C747.82811749 239.29483298 747.82652403 238.37474115 747.82488228 237.42676775 C747.79810166 222.07765129 747.76369551 206.72856313 747.72305721 191.37947714 C747.69829833 181.91234258 747.6799626 172.44523845 747.6699016 162.97807665 C747.66250226 156.48696617 747.64796333 149.99589653 747.62783737 143.50481312 C747.61646287 139.76096902 747.60831078 136.01719076 747.60884571 132.27332783 C747.60935402 128.21060105 747.59451515 124.14807195 747.57826138 120.08537769 C747.58087823 118.90744565 747.58349508 117.72951361 747.58619124 116.51588666 C747.54637319 110.14433066 746.97340291 104.40263861 745.3065176 98.25447559 C745.0693301 97.17424122 744.8321426 96.09400684 744.5877676 94.98103809 C740.93031166 80.46093802 733.55874531 66.20739512 723.3065176 55.25447559 C722.42479885 54.28252247 721.5430801 53.31056934 720.6346426 52.30916309 C705.64087593 36.25252796 683.72421376 24.56644446 661.56434618 23.06919906 C658.5549141 22.99950961 655.55125859 22.98944569 652.54104328 23.00279331 C651.390561 22.99988643 650.24007872 22.99697955 649.05473334 22.99398458 C645.8746228 22.98796324 642.69466698 22.99083678 639.51456254 22.99754049 C636.04981776 23.00263012 632.58509122 22.99608765 629.12034905 22.99105382 C623.05233816 22.98383968 616.98436288 22.9840439 610.91635036 22.98914814 C601.89306213 22.99671764 592.8698039 22.99284329 583.84651586 22.98673153 C567.73087655 22.97620211 551.61525309 22.97711195 535.49961227 22.98288935 C521.39781206 22.98792001 507.29601766 22.98923407 493.19421673 22.98684406 C491.79123368 22.98661491 491.79123368 22.98661491 490.35990755 22.98638112 C486.56317424 22.98575845 482.76644094 22.98512165 478.96970764 22.9844616 C443.35406668 22.97834364 407.73843583 22.98389064 372.12279644 22.99465539 C340.47488428 23.00414815 308.82698821 23.00329603 277.17907619 22.99373341 C241.62564825 22.98302662 206.07222923 22.97877596 170.5187999 22.98495793 C166.72959558 22.98559937 162.94039126 22.98622505 159.15118694 22.98684406 C158.21818161 22.98700222 157.28517627 22.98716037 156.32389804 22.98732332 C142.22897934 22.98959913 128.13406709 22.98693613 114.03914928 22.98188496 C98.0156319 22.97617128 81.99213287 22.97758584 65.96861778 22.98844644 C56.99866745 22.99432548 48.02875684 22.99469302 39.05880753 22.9871541 C33.06983093 22.98267524 27.08088623 22.98544977 21.09191437 22.99416363 C17.6780014 22.99892831 14.26416743 23.0005331 10.8502569 22.99335167 C7.17353122 22.98729824 3.49702381 22.99347996 -0.17969036 23.00279331 C-1.2403533 22.99811098 -2.30101623 22.99342865 -3.39382046 22.98860443 C-9.19271103 23.01809963 -14.1335902 23.59149793 -19.6934824 25.25447559 C-20.86008396 25.58705372 -22.02668552 25.91963184 -23.22863865 26.26228809 C-36.97087089 30.61475589 -48.79573177 36.71423023 -59.6934824 46.25447559 C-60.43856052 46.84486622 -61.18363865 47.43525684 -61.9512949 48.04353809 C-79.58997772 62.486362 -89.62764896 86.15044633 -92.6934824 108.25447559 C-92.95894966 112.59472573 -92.96242283 116.92036285 -92.9450388 121.26773548 C-92.94800893 122.53471844 -92.95097907 123.8017014 -92.95403922 125.10707778 C-92.96201673 128.59376385 -92.95780264 132.08034147 -92.95152044 135.56702697 C-92.94696126 139.33863446 -92.9540398 143.11022216 -92.95982456 146.88182545 C-92.96843264 153.40777602 -92.97027181 159.93369948 -92.96787739 166.45965481 C-92.96477283 175.90148176 -92.97644192 185.34324906 -92.99242719 194.78506096 C-93.01835238 210.11462287 -93.03839195 225.44418483 -93.05188084 240.7737627 C-93.05269121 241.69006829 -93.05350158 242.60637387 -93.0543365 243.55044629 C-93.06557053 256.56888641 -93.07084255 269.58732224 -93.07372363 282.60576656 C-93.07392762 283.5235881 -93.0741316 284.44140964 -93.07434177 285.38704395 C-93.07464168 286.76209284 -93.07464168 286.76209284 -93.07494764 288.16492049 C-93.07867907 303.44535791 -93.09774976 318.72573031 -93.12943614 334.00613517 C-93.14835359 343.4262599 -93.15431055 352.84621792 -93.14361896 362.26635643 C-93.13730556 368.7158123 -93.14532414 375.1651484 -93.16467308 381.61457799 C-93.17536567 385.33590994 -93.17948856 389.05695112 -93.16620159 392.77828121 C-93.15194643 396.81114318 -93.16845363 400.84329421 -93.18795872 404.87613392 C-93.17883406 406.05345658 -93.1697094 407.23077923 -93.16030824 408.44377834 C-93.21913175 414.6723181 -93.45344343 418.54473337 -97.6934824 423.25447559 C-101.10146412 425.83984104 -104.5341975 425.69229506 -108.6934824 425.25447559 C-112.22349355 423.05802421 -114.15258929 421.08288143 -115.6934824 417.25447559 C-115.94648206 414.82206601 -115.94648206 414.82206601 -115.9507513 412.04761505 C-115.96042464 410.4580663 -115.96042464 410.4580663 -115.9702934 408.83640546 C-115.9671962 407.6731154 -115.96409899 406.50982534 -115.96090794 405.31128407 C-115.96543905 404.07452736 -115.96997016 402.83777065 -115.97463858 401.56353647 C-115.98512381 398.12802715 -115.98660579 394.69272686 -115.98424983 391.25721633 C-115.98384208 387.551957 -115.99487772 383.84672903 -116.00436497 380.14148426 C-116.02099311 372.87650008 -116.02647558 365.61154835 -116.02758972 358.34654673 C-116.02854057 352.43197932 -116.03265277 346.51742258 -116.03899097 340.60285854 C-116.05661839 323.80971226 -116.06582901 307.01659156 -116.06433003 290.22343596 C-116.06425011 289.31771957 -116.0641702 288.41200317 -116.06408787 287.47884083 C-116.06400611 286.57200785 -116.06392435 285.66517488 -116.06384011 284.73086212 C-116.06302967 270.08052799 -116.08210201 255.43029729 -116.1103646 240.77999302 C-116.13919889 225.71329267 -116.15289871 210.64664252 -116.15117705 195.57991391 C-116.15051614 187.13121769 -116.15587426 178.68262947 -116.17753315 170.23395824 C-116.1958855 163.02892384 -116.19997955 155.82404622 -116.1865143 148.61899837 C-116.18005089 144.95230402 -116.17962119 141.28590913 -116.1972208 137.61924458 C-116.35881553 101.65557253 -110.3073715 70.29128361 -86.6934824 42.25447559 C-85.96387302 41.37275684 -85.23426365 40.49103809 -84.4825449 39.58260059 C-63.66012552 15.37747771 -32.03096716 -0.13429748 0 0 Z " fill="#925639" transform="translate(298.6934823989868,135.7455244064331)"/>
<path d="M0 0 C34.7533341 -1.16158921 64.37229393 9.54015552 90.02636719 33.35302734 C106.45995073 50.78258564 115.6505914 71.87562474 120.33886719 95.10302734 C120.51828857 95.9832959 120.69770996 96.86356445 120.88256836 97.77050781 C121.45921851 101.98199765 121.48193922 106.09593017 121.47167969 110.34130859 C121.47311478 111.66161324 121.47311478 111.66161324 121.47457886 113.0085907 C121.47525715 114.86518424 121.47342741 116.7217802 121.46923828 118.57836914 C121.46390437 121.39588861 121.46918529 124.21324729 121.47558594 127.03076172 C121.47492472 128.84261102 121.47364265 130.65446023 121.47167969 132.46630859 C121.47370392 133.29785965 121.47572815 134.12941071 121.47781372 134.98616028 C121.45638863 140.42919402 121.02023426 145.70182309 120.33886719 151.10302734 C121.53511719 151.02052734 122.73136719 150.93802734 123.96386719 150.85302734 C128.43633784 150.84509743 130.87441814 152.21598647 134.33886719 155.10302734 C137.66056239 160.08557015 136.89840717 165.2850148 136.33886719 171.10302734 C132.50813241 189.751122 121.13618934 213.86262504 105.33886719 225.10302734 C104.48421875 225.34666016 103.62957031 225.59029297 102.74902344 225.84130859 C100.06732729 226.91621483 100.06732729 226.91621483 99.19433594 229.88427734 C95.55636489 250.13777697 93.939972 275.52016411 104.33886719 294.10302734 C104.685625 294.75142578 105.03238281 295.39982422 105.38964844 296.06787109 C121.86791193 324.66417029 160.23885271 339.89760351 189.8125 350.25024414 C190.75706055 350.58451416 191.70162109 350.91878418 192.67480469 351.26318359 C193.50544434 351.54814697 194.33608398 351.83311035 195.19189453 352.12670898 C197.50478902 353.17847895 198.78842081 354.09590069 200.33886719 356.10302734 C200.83460056 359.99807525 200.91903567 362.19796451 198.77636719 365.54052734 C195.4000744 367.70481759 193.33350302 367.38265185 189.33886719 367.10302734 C186.27725597 366.38078806 183.35595792 365.36422253 180.40136719 364.29052734 C179.11504395 363.83009033 179.11504395 363.83009033 177.80273438 363.36035156 C143.35457 350.67834193 103.01359889 331.39943727 86.69433594 296.48583984 C81.60248837 283.7782318 80.97372146 271.33577843 80.96386719 257.79052734 C80.96087616 256.70019196 80.96087616 256.70019196 80.95782471 255.58782959 C80.96824067 222.00012718 80.96824067 222.00012718 90.08886719 212.22802734 C92.33886719 211.10302734 92.33886719 211.10302734 95.70605469 210.89990234 C99.47104056 210.43330738 99.47104056 210.43330738 101.67480469 207.61083984 C102.34769531 206.49451172 103.02058594 205.37818359 103.71386719 204.22802734 C104.08471436 203.61596436 104.45556152 203.00390137 104.83764648 202.37329102 C111.55293936 190.98538528 117.29374617 178.69099134 121.33886719 166.10302734 C118.49147973 167.36334638 117.4917457 167.84822982 115.83886719 170.60302734 C114.18086189 173.36636951 113.36298736 174.12463552 110.33886719 175.10302734 C107.83886719 175.54052734 107.83886719 175.54052734 105.33886719 175.10302734 C103.14355469 173.01708984 103.14355469 173.01708984 101.33886719 170.10302734 C101.31542969 166.81787109 101.31542969 166.81787109 101.96386719 163.04052734 C102.18488764 161.5955603 102.40353376 160.1502286 102.62011719 158.70458984 C102.79994141 157.57005371 102.79994141 157.57005371 102.98339844 156.41259766 C106.25714307 135.14225134 108.58548867 110.93292679 102.33886719 90.10302734 C102.03287598 89.04365967 102.03287598 89.04365967 101.72070312 87.96289062 C97.5913884 73.84688534 91.98046267 61.38876859 82.33886719 50.10302734 C81.37400391 48.90419922 81.37400391 48.90419922 80.38964844 47.68115234 C65.72198213 30.22093589 43.66650065 19.98874558 21.33886719 17.10302734 C4.17886208 16.16765137 -13.56136386 15.3576228 -29.66113281 22.10302734 C-30.38671387 22.39773926 -31.11229492 22.69245117 -31.85986328 22.99609375 C-41.29883034 26.90713311 -49.75359645 31.56530043 -57.66113281 38.10302734 C-58.510625 38.79009766 -59.36011719 39.47716797 -60.23535156 40.18505859 C-66.78766842 45.75402621 -71.82892386 52.01277682 -76.66113281 59.10302734 C-77.27859375 59.98087891 -77.89605469 60.85873047 -78.53222656 61.76318359 C-84.68473888 71.28656012 -87.73142101 82.2316425 -90.66113281 93.10302734 C-90.86939697 93.85438965 -91.07766113 94.60575195 -91.29223633 95.37988281 C-93.30619474 103.77092806 -93.00880535 112.40351829 -92.97363281 120.97802734 C-92.97289261 122.21125229 -92.97289261 122.21125229 -92.97213745 123.46939087 C-92.95054209 135.20396905 -92.28453909 146.47195381 -90.03271484 158.01147461 C-89.59477616 160.4765342 -89.24369209 162.93823816 -88.93847656 165.42333984 C-88.83656006 166.23947754 -88.73464355 167.05561523 -88.62963867 167.89648438 C-88.66113281 170.10302734 -88.66113281 170.10302734 -90.66113281 173.29052734 C-93.66113281 175.10302734 -93.66113281 175.10302734 -97.28613281 175.29052734 C-100.66113281 174.10302734 -100.66113281 174.10302734 -102.34863281 171.16552734 C-102.78175781 170.15490234 -103.21488281 169.14427734 -103.66113281 168.10302734 C-105.67585915 166.89463772 -105.67585915 166.89463772 -107.66113281 166.10302734 C-104.18941818 181.32205543 -97.62918311 198.6459557 -86.66113281 210.10302734 C-84.33441427 210.79242543 -82.00045688 211.45769657 -79.66113281 212.10302734 C-75.94164442 214.24888603 -74.23256538 215.51259007 -72.77807617 219.56079102 C-70.88970916 227.21812892 -69.95026576 234.67525917 -69.47363281 242.54052734 C-69.39540283 243.75828857 -69.31717285 244.9760498 -69.23657227 246.23071289 C-67.63128626 272.93237858 -67.90084377 296.61793524 -86.47363281 317.73193359 C-87.19550781 318.51439453 -87.91738281 319.29685547 -88.66113281 320.10302734 C-89.23863281 320.77205078 -89.81613281 321.44107422 -90.41113281 322.13037109 C-111.22777758 344.85211059 -145.18770465 357.86130487 -173.47729492 368.26879883 C-175.29843026 368.96447456 -177.08840312 369.74103977 -178.86816406 370.53662109 C-184.75467964 373.11272403 -190.98016968 374.85438255 -197.09863281 376.79052734 C-198.41579134 377.21013156 -199.73284958 377.63005075 -201.04980469 378.05029297 C-204.25260991 379.07096716 -207.45639439 380.08844273 -210.66113281 381.10302734 C-208.86482422 381.26738281 -208.86482422 381.26738281 -207.03222656 381.43505859 C-197.8450245 382.31585433 -188.93625774 383.53445929 -179.89941406 385.42724609 C-172.91304131 386.88519843 -168.39490944 387.72804666 -161.78613281 384.81005859 C-157.87722568 383.50948471 -153.72924178 383.69066542 -149.66113281 384.10302734 C-148.66113281 385.10302734 -148.66113281 385.10302734 -148.28613281 387.85302734 C-148.77650969 392.10296027 -150.67332534 393.19183032 -153.66113281 396.10302734 C-153.38174699 398.23233183 -153.38174699 398.23233183 -152.66113281 400.10302734 C-152.08782227 400.25860107 -151.51451172 400.4141748 -150.92382812 400.57446289 C-123.05246586 408.19073467 -99.22512432 418.67575072 -83.66113281 444.10302734 C-72.07734573 465.28495342 -70.2368101 488.44302749 -69.66113281 512.10302734 C-69.62713379 513.2921875 -69.59313477 514.48134766 -69.55810547 515.70654297 C-69.03674819 535.72454543 -69.45212606 554.88630361 -78.66113281 573.10302734 C-78.94956055 573.67730469 -79.23798828 574.25158203 -79.53515625 574.84326172 C-85.09298536 585.81895362 -85.09298536 585.81895362 -87.66113281 587.10302734 C-93.8751679 587.66793962 -93.8751679 587.66793962 -96.66113281 585.66552734 C-98.20067661 581.72044637 -97.81023379 578.14057885 -96.66113281 574.10302734 C-95.68740419 572.42968699 -94.71193812 570.75727244 -93.71948242 569.0949707 C-91.77449307 565.43426295 -90.66980453 561.49566136 -89.47363281 557.54052734 C-89.21388672 556.71617187 -88.95414063 555.89181641 -88.68652344 555.04248047 C-86.4308378 547.75084551 -85.50392334 541.01396572 -85.49316406 533.39990234 C-85.48983566 532.56324036 -85.48650726 531.72657837 -85.483078 530.86456299 C-85.4780284 529.09281968 -85.47566907 527.32106691 -85.47583008 525.54931641 C-85.47367353 522.90298635 -85.45558083 520.2570946 -85.43652344 517.61083984 C-85.38581058 502.69165883 -86.28629403 487.89838499 -89.84863281 473.35302734 C-90.06221436 472.47670654 -90.2757959 471.60038574 -90.49584961 470.69750977 C-95.01288226 453.24584765 -105.50491539 437.21881592 -121.24707031 427.90380859 C-130.76724282 422.55602726 -140.42157476 418.9580699 -150.97363281 416.16552734 C-156.40996296 414.62761816 -160.0612825 413.52570059 -163.66113281 409.10302734 C-164.53613281 405.29052734 -164.53613281 405.29052734 -164.66113281 402.10302734 C-165.50933594 402.14943359 -166.35753906 402.19583984 -167.23144531 402.24365234 C-175.32505112 402.49268637 -181.61361077 401.5597065 -189.36425781 399.12255859 C-198.23255381 396.38011161 -207.27446407 395.58065828 -216.51904297 395.20410156 C-218.01192731 395.13366002 -219.50391819 395.04253867 -220.99462891 394.93554688 C-231.1102667 394.21750542 -238.53862571 394.04512421 -246.83691406 400.64208984 C-247.76890625 401.45419922 -248.70089844 402.26630859 -249.66113281 403.10302734 C-250.73396781 403.94925366 -251.81093939 404.79025723 -252.89160156 405.62646484 C-271.05734835 419.95212423 -283.59538111 439.17166818 -290.66113281 461.10302734 C-291.22574219 462.76591797 -291.22574219 462.76591797 -291.80175781 464.46240234 C-299.63751338 488.43747536 -299.97191028 512.85170316 -300.19287109 537.81347656 C-300.32169507 551.06783052 -300.60823611 563.99434135 -302.66113281 577.10302734 C-302.85573569 578.64641919 -303.04465645 580.19055795 -303.22363281 581.73583984 C-303.36800781 582.88826172 -303.51238281 584.04068359 -303.66113281 585.22802734 C-303.80550781 586.40623047 -303.94988281 587.58443359 -304.09863281 588.79833984 C-304.65549727 592.06991856 -305.5975108 594.96617335 -306.66113281 598.10302734 C-307.22174523 601.12799849 -307.65975859 604.15599365 -308.09863281 607.20068359 C-308.66113281 610.10302734 -308.66113281 610.10302734 -309.59936523 612.34741211 C-311.88752568 618.28589613 -312.76030257 624.74165967 -313.97363281 630.97802734 C-314.20315643 632.14904495 -314.20315643 632.14904495 -314.43731689 633.34371948 C-318.64334113 654.97748051 -321.8539686 677.02540274 -323.37670898 699.0222168 C-323.77205278 701.9145045 -324.80423006 703.87474404 -326.66113281 706.10302734 C-329.50196923 707.52344555 -331.51590559 707.41755007 -334.66113281 707.10302734 C-336.82519531 705.57958984 -336.82519531 705.57958984 -338.66113281 703.10302734 C-339.08425142 700.29364422 -339.22887107 697.97220836 -339.16113281 695.16552734 C-339.15049805 694.34705322 -339.13986328 693.5285791 -339.12890625 692.68530273 C-338.80018179 681.3162218 -336.95736774 670.07246228 -335.234375 658.84814453 C-334.66457155 655.12549338 -334.11746582 651.40009145 -333.57519531 647.67333984 C-333.22986458 645.33725083 -332.88355197 643.00130669 -332.53613281 640.66552734 C-332.37790039 639.58843506 -332.21966797 638.51134277 -332.05664062 637.40161133 C-331.29412529 632.41768644 -330.32662328 627.87299203 -328.66113281 623.10302734 C-328.07070414 620.34686662 -327.61587999 617.57187358 -327.16113281 614.79052734 C-326.90338862 613.27727246 -326.64428672 611.76424817 -326.38378906 610.25146484 C-326.2602002 609.53313477 -326.13661133 608.81480469 -326.00927734 608.07470703 C-325.1826788 603.39335373 -324.25358421 598.77982052 -322.66723633 594.29003906 C-321.60882699 590.93733936 -321.0767309 587.78343456 -320.62597656 584.29833984 C-320.45646484 582.99123047 -320.28695313 581.68412109 -320.11230469 580.33740234 C-320.02779053 579.66 -319.94327637 578.98259766 -319.85620117 578.28466797 C-319.60354123 576.26722024 -319.33918649 574.25157396 -319.07324219 572.23583984 C-317.17441861 557.54280032 -316.56376615 542.87653146 -316.27270508 528.07870483 C-316.02284176 515.79142739 -315.65163871 503.54382342 -314.66113281 491.29052734 C-314.57806885 490.25420166 -314.49500488 489.21787598 -314.40942383 488.15014648 C-313.80049719 481.24239172 -313.80049719 481.24239172 -312.66113281 480.10302734 C-312.34306415 478.74997925 -312.07464874 477.38515906 -311.82910156 476.01708984 C-311.67272217 475.17428467 -311.51634277 474.33147949 -311.35522461 473.46313477 C-311.18804932 472.56054932 -311.02087402 471.65796387 -310.84863281 470.72802734 C-309.38928933 463.21217742 -307.75878343 456.13663666 -304.66113281 449.10302734 C-304.15710938 447.94802734 -303.65308594 446.79302734 -303.13378906 445.60302734 C-296.70019242 431.19975919 -289.1500865 418.87468589 -278.66113281 407.10302734 C-277.65823729 405.85534927 -276.65761666 404.60583218 -275.66113281 403.35302734 C-271.58972766 398.62833083 -266.56987295 394.90994006 -261.66113281 391.10302734 C-260.80519531 390.43142578 -259.94925781 389.75982422 -259.06738281 389.06787109 C-240.3750437 374.9078612 -218.4006419 366.05810499 -196.31665039 358.69955444 C-135.8316856 339.03246678 -135.8316856 339.03246678 -90.97753906 296.75927734 C-85.65032033 286.00999325 -84.45232395 276.35172574 -84.42089844 264.50561523 C-84.41132976 262.33520096 -84.38033969 260.16579232 -84.34863281 257.99560547 C-84.21826396 242.12571173 -84.21826396 242.12571173 -88.66113281 227.10302734 C-90.42457031 226.36052734 -90.42457031 226.36052734 -92.22363281 225.60302734 C-101.49158997 221.10903568 -106.41841749 210.54431768 -110.84863281 201.72802734 C-111.62279541 200.21402344 -111.62279541 200.21402344 -112.41259766 198.66943359 C-115.82377493 191.93613238 -119.09358621 185.20941224 -121.66113281 178.10302734 C-122.09425781 176.94802734 -122.52738281 175.79302734 -122.97363281 174.60302734 C-124.17475995 168.48819829 -125.21049133 162.35618205 -122.44628906 156.55224609 C-119.96120346 153.26023858 -118.10816574 151.36345127 -113.96972656 150.61865234 C-111.47784403 150.60447378 -109.13115503 150.80917445 -106.66113281 151.10302734 C-106.87334473 150.26106812 -106.87334473 150.26106812 -107.08984375 149.40209961 C-109.02547125 140.53614324 -108.96474565 131.7594108 -108.921875 122.73266602 C-108.91114164 120.04274019 -108.92182543 117.35347997 -108.93457031 114.66357422 C-108.94171424 106.26873504 -108.89654721 98.25672665 -106.66113281 90.10302734 C-106.38914062 88.88357422 -106.11714844 87.66412109 -105.83691406 86.40771484 C-100.95201041 67.00072207 -91.94243058 50.16328793 -78.66113281 35.10302734 C-77.87029297 34.18650391 -77.87029297 34.18650391 -77.06347656 33.25146484 C-63.29743713 18.39400029 -43.86696497 8.62703489 -24.66113281 3.10302734 C-23.56285156 2.75304687 -23.56285156 2.75304687 -22.44238281 2.39599609 C-15.17930418 0.25708099 -7.50991965 0.29075102 0 0 Z " fill="#925639" transform="translate(606.6611328125,232.89697265625)"/>
<path d="M0 0 C4.86330828 0.58160293 7.5509524 2.96726848 11.3046875 5.97265625 C12.00779053 6.52332764 12.71089355 7.07399902 13.43530273 7.64135742 C14.81977599 8.73139156 16.19912152 9.8279764 17.57275391 10.93164062 C19.1172488 12.16138833 20.69717907 13.34647014 22.28515625 14.51953125 C24.28151401 16.06008343 25.95761614 17.36422656 27.4296875 19.41015625 C27.4296875 23.34765625 27.4296875 23.34765625 26.4296875 26.41015625 C27.3990625 26.55453125 28.3684375 26.69890625 29.3671875 26.84765625 C35.03411928 28.39212741 38.61253619 33.2034997 42.4296875 37.41015625 C45.63622931 36.20839533 48.40794841 34.88800519 51.2421875 32.97265625 C61.17803289 26.77650175 71.96003048 25.54037651 83.40234375 28.06640625 C93.48913415 31.77502015 101.68590699 38.38629804 107.4296875 47.41015625 C107.93757812 48.19777344 108.44546875 48.98539063 108.96875 49.796875 C113.90473169 58.8002159 113.6393717 69.29086729 111.953125 79.21484375 C111.29678476 81.4369113 110.48932429 83.35108931 109.4296875 85.41015625 C109.0275 86.22613281 108.6253125 87.04210937 108.2109375 87.8828125 C102.22199642 98.91244565 93.38842127 105.16046418 81.57421875 109.015625 C69.59995219 111.21854107 59.22008138 109.26259633 48.90234375 102.8359375 C43.33575043 98.86244576 39.87451309 94.25524742 36.4296875 88.41015625 C35.5634375 87.17265625 35.5634375 87.17265625 34.6796875 85.91015625 C30.34126473 77.23331071 29.771105 65.5828996 32.2578125 56.328125 C33.67790265 52.70901465 35.27070945 49.64862332 37.4296875 46.41015625 C37.4296875 45.42015625 37.4296875 44.43015625 37.4296875 43.41015625 C32.93859934 40.03524851 27.47284296 38.49727721 22.22460938 36.66015625 C15.19431565 34.12528978 15.19431565 34.12528978 12.4296875 31.41015625 C11.91948022 27.32849798 12.11606948 25.88058328 14.4296875 22.41015625 C13.87152344 22.16910156 13.31335938 21.92804687 12.73828125 21.6796875 C8.04143052 19.09681696 4.33859523 15.03535294 0.4296875 11.41015625 C-0.16328125 10.90613281 -0.75625 10.40210938 -1.3671875 9.8828125 C-2.7578125 8.66015625 -2.7578125 8.66015625 -4.5703125 6.41015625 C-4.38749784 2.38823366 -4.07924156 0.6509428 0 0 Z " fill="#955A3C" transform="translate(464.5703125,878.58984375)"/>
<path d="M0 0 C3.375 1.0625 3.375 1.0625 5.375 2.5625 C7.7907261 8.60181526 4.94079841 16.84258342 3.703125 23.06640625 C3.54032547 23.8997197 3.37752594 24.73303314 3.20979309 25.59159851 C2.68529957 28.27015569 2.15535797 30.94759839 1.625 33.625 C1.26212659 35.47034579 0.89941578 37.31572356 0.53686523 39.16113281 C-1.94697008 51.77336442 -4.49622597 64.37088189 -7.17944336 76.94238281 C-7.32647705 77.64202148 -7.47351074 78.34166016 -7.625 79.0625 C-7.80530762 79.82570557 -7.98561523 80.58891113 -8.17138672 81.37524414 C-9.09413043 86.84168116 -8.81089819 92.44489961 -8.81030273 97.97729492 C-8.81244969 100.19796098 -8.83051138 102.41809625 -8.84960938 104.63867188 C-8.92396452 122.11565353 -6.34037502 138.61304903 -2.5 155.625 C-1.75736719 158.91567572 -1.027352 162.20879446 -0.3046875 165.50390625 C-0.13597137 166.23219131 0.03274475 166.96047638 0.20657349 167.71083069 C1.31638836 172.7794555 1.97918842 177.87566735 1.375 183.0625 C-0.79145496 185.8122313 -2.19532276 185.99088713 -5.625 186.5625 C-8.625 186.0625 -8.625 186.0625 -10.62109375 184.29296875 C-13.614446 179.46742818 -14.51041658 174.38829161 -15.6875 168.875 C-15.94354004 167.71983887 -16.19958008 166.56467773 -16.46337891 165.37451172 C-21.625 141.69545174 -21.625 141.69545174 -21.625 133.0625 C-22.285 133.0625 -22.945 133.0625 -23.625 133.0625 C-23.73457031 134.04089844 -23.84414063 135.01929688 -23.95703125 136.02734375 C-24.58505455 140.40158634 -25.91753149 144.44362714 -27.3125 148.625 C-35.31541501 173.39153242 -42.84452999 199.12769383 -42.75 225.3125 C-42.75386719 226.36824219 -42.75773438 227.42398438 -42.76171875 228.51171875 C-42.75398324 234.83162878 -42.46336355 241.06200105 -41.87597656 247.35473633 C-40.81425701 258.80953356 -40.81425701 258.80953356 -43.6875 263.25 C-46.625 265.0625 -46.625 265.0625 -50.25 265.125 C-54.09299913 263.91516694 -54.72654193 263.50583513 -56.625 260.0625 C-57.18006857 257.1357748 -57.56128101 254.39178892 -57.8125 251.4375 C-57.89000488 250.56287109 -57.96750977 249.68824219 -58.04736328 248.78710938 C-60.9808803 211.8828205 -54.13680504 177.30547926 -42.4140625 142.4921875 C-42.01735352 141.31092285 -41.62064453 140.1296582 -41.21191406 138.91259766 C-40.42485154 136.57455898 -39.63281589 134.2381864 -38.83496094 131.90380859 C-36.69743726 125.57944987 -34.84155777 119.26948974 -33.28222656 112.77832031 C-32.39052244 109.09358158 -31.35293136 105.45730924 -30.3125 101.8125 C-24.98000495 82.70624078 -20.56403371 63.46083333 -16.4375 44.0625 C-16.22131012 43.04757477 -16.00512024 42.03264954 -15.78237915 40.98696899 C-15.15022918 38.01274438 -14.52182577 35.03775209 -13.89453125 32.0625 C-13.69277786 31.11336227 -13.49102448 30.16422455 -13.28315735 29.18632507 C-12.3784222 24.88224454 -11.52306397 20.58636345 -10.83349609 16.2421875 C-10.71326584 15.50871094 -10.59303558 14.77523437 -10.46916199 14.01953125 C-10.16209967 12.09645605 -9.88008179 10.16942672 -9.6003418 8.2421875 C-7.99714675 3.01565126 -5.56975227 0.09603021 0 0 Z " fill="#925639" transform="translate(857.625,753.9375)"/>
<path d="M0 0 C4.10615615 0.83799105 5.38740539 2.43453496 8.0625 5.625 C9.25341797 8.91357422 9.25341797 8.91357422 10.0546875 12.6796875 C10.20599625 13.36480408 10.35730499 14.04992065 10.51319885 14.75579834 C11.00498093 17.00055446 11.47087135 19.24989404 11.9375 21.5 C12.28068039 23.08164248 12.62584265 24.66285614 12.97290039 26.24365234 C13.67998748 29.4762435 14.37759017 32.71062793 15.06591797 35.94726562 C16.50694757 42.7230711 17.99157286 49.48885727 19.5 56.25 C19.77811523 57.496604 20.05623047 58.74320801 20.34277344 60.02758789 C23.47863288 73.83157027 27.24998419 87.45488702 31.07275391 101.08154297 C31.93154584 104.15616214 32.77457279 107.23415917 33.60546875 110.31640625 C35.74547613 118.23380042 38.14462081 125.95441802 41.0625 133.625 C42.11104254 136.60974014 43.09196214 139.61407557 44.0625 142.625 C44.43246094 143.76324219 44.80242187 144.90148437 45.18359375 146.07421875 C49.64230439 159.95067387 53.42439757 173.96050848 56.3125 188.25 C56.47564697 189.05469727 56.63879395 189.85939453 56.80688477 190.68847656 C58.94828323 201.66100687 59.26580714 212.41173461 59.25 223.5625 C59.24939575 224.34135559 59.2487915 225.12021118 59.24816895 225.92266846 C59.18390229 256.34039184 59.18390229 256.34039184 55.203125 262.50390625 C53.0625 264.625 53.0625 264.625 49.5625 265.6875 C46.0625 265.625 46.0625 265.625 43.625 264.3125 C40.39127439 258.75049195 42.0322087 251.89491729 42.5625 245.70703125 C45.38541033 209.05577109 38.24669086 176.48222161 26.63964844 141.80712891 C24.95509958 136.72397323 23.58491344 131.96108017 23.0625 126.625 C22.4025 126.625 21.7425 126.625 21.0625 126.625 C21.0625 127.615 21.0625 128.605 21.0625 129.625 C18.7525 129.295 16.4425 128.965 14.0625 128.625 C13.97685791 129.21514893 13.89121582 129.80529785 13.80297852 130.41333008 C13.41314401 133.08847393 13.01911986 135.76298429 12.625 138.4375 C12.49029297 139.36626953 12.35558594 140.29503906 12.21679688 141.25195312 C12.08466797 142.14462891 11.95253906 143.03730469 11.81640625 143.95703125 C11.69595947 144.77921143 11.5755127 145.6013916 11.45141602 146.44848633 C11.0625 148.625 11.0625 148.625 10.0625 151.625 C9.97112434 153.02115108 9.93184333 154.42117609 9.9296875 155.8203125 C9.92839844 156.61824219 9.92710937 157.41617188 9.92578125 158.23828125 C9.92964844 159.06714844 9.93351562 159.89601563 9.9375 160.75 C9.93363281 161.58660156 9.92976563 162.42320312 9.92578125 163.28515625 C9.53100047 167.27215756 9.53100047 167.27215756 11.0625 170.625 C11.1919052 175.53315444 10.87726078 180.22446063 7.875 184.25 C5.0625 186.625 5.0625 186.625 2 187.25 C-0.9375 186.625 -0.9375 186.625 -3.375 185.3125 C-7.59895218 178.04730224 -3.03952814 167.55339542 -1.04296875 159.8984375 C0.88040813 152.51846908 2.54183503 145.09777721 4.0625 137.625 C4.24876953 136.73796387 4.43503906 135.85092773 4.62695312 134.93701172 C10.20384146 107.68115152 9.85490947 81.4621262 3.02587891 54.54248047 C1.27109143 47.52491863 -0.19546112 40.43838723 -1.71289062 33.36660767 C-2.23827891 30.92937321 -2.77225841 28.4941724 -3.30859375 26.05932617 C-3.63944189 24.5447851 -3.97017632 23.03021918 -4.30078125 21.515625 C-4.45158646 20.8365358 -4.60239166 20.15744659 -4.75776672 19.45777893 C-7.51331825 6.73057103 -7.51331825 6.73057103 -5.375 2.625 C-2.9375 0.625 -2.9375 0.625 0 0 Z " fill="#94583B" transform="translate(386.9375,753.375)"/>
<path d="M0 0 C19.78436237 13.6508955 29.88896328 43.76288256 34.44236755 66.1776123 C36.9965816 80.40413263 37.23536515 94.53076726 37.15234375 108.93359375 C37.14696217 109.87637806 37.14158058 110.81916237 37.13603592 111.7905159 C37.08430775 119.66906483 36.99853885 127.54719939 36.90020752 135.42529297 C36.28103548 167.65745489 36.28103548 167.65745489 40.49450684 199.52983093 C41.36950804 203.80565713 41.98559948 208.12131424 42.625 212.4375 C43.443952 217.78582743 44.40112438 223.08333239 45.47802734 228.38598633 C49.63363807 249.19708268 52.02977417 270.02565709 52.375 291.25 C52.40110352 292.17312988 52.42720703 293.09625977 52.45410156 294.04736328 C52.47066195 300.32966329 52.47066195 300.32966329 50.1953125 303.5703125 C46.90636457 305.71222521 44.82670148 305.68333955 41 305 C36.60057038 300.07927351 36.38622501 295.73640628 36.3125 289.3125 C36.27037219 287.62100444 36.22493939 285.9295871 36.17578125 284.23828125 C36.15898315 283.1251355 36.15898315 283.1251355 36.1418457 281.98950195 C36.06764041 279.78965458 36.06764041 279.78965458 35 277 C34.84179064 274.51845682 34.72255646 272.04637225 34.625 269.5625 C34.2949213 262.81095712 33.57629848 256.18265306 32.5625 249.5 C32.4402002 248.68861572 32.31790039 247.87723145 32.19189453 247.04125977 C31.46682914 242.43582167 30.55098759 237.91020164 29.51098633 233.36669922 C28.54160753 228.87689604 27.82231299 224.34157396 27.0625 219.8125 C25.98172436 213.4363274 24.85220387 207.11123733 23.375 200.8125 C20.17589565 186.26071899 19.71009389 171.38152152 19.91080093 156.53748512 C19.9466201 153.79439279 19.96649692 151.05154888 19.9826355 148.30827332 C20.0306429 140.52453189 20.10185517 132.74112988 20.19189453 124.95776367 C20.78779129 86.37291823 20.78779129 86.37291823 12 49 C11.66613281 47.97777344 11.33226562 46.95554687 10.98828125 45.90234375 C6.72916616 33.6032149 0.0811142 22.50511883 -9.48046875 13.6640625 C-11 12 -11 12 -12.375 8.3125 C-11.94796327 4.54034225 -10.86870781 3.21861851 -7.93359375 0.84765625 C-5.08692628 -0.40027676 -3.07713497 -0.38561565 0 0 Z " fill="#94583B" transform="translate(920,635)"/>
<path d="M0 0 C2.76371781 2.01588829 4.68823543 3.62119868 5.46508789 7.05688477 C5.6429649 9.57817873 5.6391726 12.0359991 5.5625 14.5625 C5.54735352 15.4812793 5.53220703 16.40005859 5.51660156 17.34667969 C5.09887049 30.50296258 2.74886344 43.12842064 -3 55 C-4.45833333 54.97916667 -5.91666667 54.95833333 -7.375 54.9375 C-10.82228705 54.84827854 -10.82228705 54.84827854 -14 56 C-14.65555119 58.52733235 -14.65555119 58.52733235 -15 61 C-12.36 61.33 -9.72 61.66 -7 62 C-7 62.99 -7 63.98 -7 65 C-6.09121094 64.94779297 -6.09121094 64.94779297 -5.1640625 64.89453125 C8.07516633 64.46680232 17.18090564 69.49396231 26.8125 78.3125 C31.38701626 83.13633824 35.28491313 89.31104374 35.3125 96.125 C35.209375 97.07375 35.10625 98.0225 35 99 C33.70990357 99.50403768 32.41786211 100.00309926 31.125 100.5 C30.40570312 100.7784375 29.68640625 101.056875 28.9453125 101.34375 C27 102 27 102 25 102 C24.57589844 101.05898438 24.15179687 100.11796875 23.71484375 99.1484375 C19.12533572 89.15915869 19.12533572 89.15915869 11 82 C10.01 81.38125 9.02 80.7625 8 80.125 C1.32366871 77.57585532 -8.46283582 77.61948517 -15.125 80.1875 C-21.62875312 84.28769218 -28.15674276 91.60637796 -30.6875 99.01171875 C-32.14244557 108.26880995 -30.59149947 115.54658498 -25.25 123.1875 C-20.30531971 129.4173076 -14.57039526 133.24699869 -6.6015625 134.32421875 C2.04833132 134.88187666 9.28489405 131.9549154 15.9140625 126.39453125 C20.03133373 121.94998974 22.51239389 116.47053202 25 111 C28.72379864 110.7931223 29.71488411 110.79546034 32.875 113.0625 C35 116 35 116 35.1875 119.1875 C32.0514354 129.25591793 26.09185124 136.45710757 17.03125 141.7265625 C7.18928621 146.86679606 -2.89943039 148.78815765 -13.9375 146.3515625 C-26.08645405 142.31341584 -34.1161374 135.17468474 -40.09375 123.9453125 C-41.59646307 120.7033482 -42 118.63587354 -42 115 C-46.7341286 117.58114117 -46.7341286 117.58114117 -51.0625 120.75 C-53.83187828 122.53669566 -55.77702279 122.4114439 -59 122 C-60.875 121 -60.875 121 -62 119 C-62.47503862 115.84747097 -62.74480707 114.01446497 -62 111 C-59.7719416 108.26013073 -57.05764577 106.34356618 -54.1875 104.3125 C-47.53979898 99.61517281 -47.53979898 99.61517281 -43 93 C-42.32710937 91.59814453 -42.32710937 91.59814453 -41.640625 90.16796875 C-41.18171875 89.18441406 -40.7228125 88.20085937 -40.25 87.1875 C-38.36564808 83.3677423 -36.55109983 80.21811466 -33.625 77.125 C-28.638926 71.8404249 -25.36827321 65.387748 -22 59 C-21.49738647 58.04855103 -21.49738647 58.04855103 -20.98461914 57.07788086 C-18.55272434 52.35502864 -16.57936494 47.56938222 -14.8125 42.5625 C-14.55275391 41.86318359 -14.29300781 41.16386719 -14.02539062 40.44335938 C-10.67091322 31.00401598 -10.7616213 21.29820376 -10.65820312 11.37695312 C-10.44897688 4.62819034 -10.44897688 4.62819034 -8.140625 1.3984375 C-5.14524508 -0.55839829 -3.51082368 -0.64484516 0 0 Z " fill="#93583B" transform="translate(576,469)"/>
<path d="M0 0 C5.23314607 0.96910112 5.23314607 0.96910112 7.375 3.625 C8.2886921 7.61202006 8.01340198 9.50868815 5.9765625 13.0703125 C4.73893373 14.9240534 3.49781674 16.77546844 2.25390625 18.625 C-6.50324671 32.60731491 -7.867781 48.86898459 -7.9375 64.9375 C-7.94305908 66.0102417 -7.94861816 67.0829834 -7.9543457 68.18823242 C-7.76825383 88.87305982 -1.35436293 107.06333487 12.375 122.625 C13.04015625 123.43324219 13.7053125 124.24148438 14.390625 125.07421875 C21.1790147 133.08200438 29.37120855 139.26555908 37.828125 145.40625 C41.08616264 147.89613243 42.28449684 149.14780153 43.0625 153.25 C42.375 156.625 42.375 156.625 40.8125 159.0625 C37.41556346 161.24002342 35.36916572 161.04391042 31.375 160.625 C28.88021554 159.11983313 26.93048398 157.74214362 24.75 155.875 C24.15098877 155.38201416 23.55197754 154.88902832 22.93481445 154.38110352 C21.05942301 152.81971279 19.21332714 151.22981123 17.375 149.625 C16.79314941 149.11759277 16.21129883 148.61018555 15.61181641 148.08740234 C-3.83833839 130.9489236 -20.436076 110.21795606 -23.625 83.625 C-23.76770743 80.74287177 -23.78876442 77.86579955 -23.79296875 74.98046875 C-23.79629715 74.17064041 -23.79962555 73.36081207 -23.80305481 72.52644348 C-23.80809198 70.82126427 -23.81046413 69.11607531 -23.81030273 67.41088867 C-23.81248487 64.83039747 -23.83066287 62.25033742 -23.84960938 59.66992188 C-23.87845494 51.46204359 -23.89659803 43.58382003 -21.625 35.625 C-21.28082031 34.37074219 -20.93664062 33.11648438 -20.58203125 31.82421875 C-10.81783914 1.86514468 -10.81783914 1.86514468 0 0 Z " fill="#935639" transform="translate(730.625,691.375)"/>
<path d="M0 0 C7.27456591 4.14886371 13.90427224 10.53386939 16.46484375 18.6796875 C18.08769977 27.06927353 17.51170936 34.66131998 12.90234375 41.94140625 C7.70888719 49.15311201 1.70054677 53.87124083 -7.09765625 55.94140625 C-15.44063261 56.89903484 -22.58723012 55.31644925 -29.36328125 50.24609375 C-34.52800747 45.52132569 -37.0182187 40.55566241 -39.09765625 33.94140625 C-39.59265625 32.45640625 -39.59265625 32.45640625 -40.09765625 30.94140625 C-41.00565209 22.69501777 -39.38661824 16.4249065 -34.484375 9.7421875 C-25.73747118 -0.75021819 -13.19157805 -4.50809288 0 0 Z " fill="#F8F4F3" transform="translate(548.09765625,920.05859375)"/>
<path d="M0 0 C0.92675537 0.00427002 1.85351074 0.00854004 2.80834961 0.01293945 C10.18647082 0.19544171 16.60560058 1.1881745 22.8125 5.5 C24.17709612 7.14116818 25.51077208 8.80853319 26.8125 10.5 C28.89370473 12.2925705 31.03104933 13.97566591 33.203125 15.65625 C34.8125 17.5 34.8125 17.5 35.046875 20.21875 C34.96953125 20.9715625 34.8921875 21.724375 34.8125 22.5 C33.4925 22.83 32.1725 23.16 30.8125 23.5 C29.80356869 22.40398831 28.80561775 21.29786082 27.8125 20.1875 C27.255625 19.57261719 26.69875 18.95773437 26.125 18.32421875 C24.8125 16.5 24.8125 16.5 24.8125 13.5 C22.8325 13.5 20.8525 13.5 18.8125 13.5 C18.8125 14.16 18.8125 14.82 18.8125 15.5 C17.35369891 15.35892253 15.89546449 15.21197585 14.4375 15.0625 C13.21933594 14.94068359 13.21933594 14.94068359 11.9765625 14.81640625 C9.8125 14.5 9.8125 14.5 7.8125 13.5 C-0.52299512 12.8784044 -8.15738014 12.45093636 -15.1875 17.5 C-16.074375 18.0775 -16.96125 18.655 -17.875 19.25 C-24.0173843 25.22637391 -26.31635468 31.23761389 -26.4375 39.6875 C-26.3240092 48.9112072 -24.40078979 54.74347802 -18.296875 61.67578125 C-12.62736218 66.57885993 -8.16048443 68.18840986 -0.8125 68 C-0.06516602 67.98936523 0.68216797 67.97873047 1.45214844 67.96777344 C7.26532289 67.76784275 11.88032456 66.70591404 16.8125 63.5 C17.72 62.96375 18.6275 62.4275 19.5625 61.875 C26.93751158 54.09026556 27.89915868 44.72396999 28.8125 34.5 C36.4375 33.375 36.4375 33.375 39.8125 34.5 C42.77683338 40.42866676 41.25564899 49.19019728 39.25 55.25 C34.84661997 65.90183831 27.15121306 73.82863982 16.625 78.3125 C5.72093816 82.6377312 -5.15720003 82.91211999 -16.1875 78.5 C-26.1176921 73.25685857 -34.50686114 65.05281757 -38.30078125 54.36328125 C-40.51975815 44.69558015 -41.12350813 31.6869462 -36.5703125 22.66015625 C-27.82058875 8.99180248 -16.60088008 -0.11504525 0 0 Z " fill="#955A3C" transform="translate(794.1875,639.5)"/>
<path d="M0 0 C3.77072782 0.59148672 4.66907669 1.83200448 6.96264648 4.75195312 C8.89726622 7.51294123 10.37489051 10.46270906 11.8125 13.5 C12.50474196 14.92210211 13.19747826 16.34396367 13.890625 17.765625 C14.25865234 18.52681641 14.62667969 19.28800781 15.00585938 20.07226562 C17.15311103 24.48389175 19.3627578 28.86438194 21.5625 33.25 C22.49375084 35.11184852 23.42473875 36.97382857 24.35546875 38.8359375 C24.82001465 39.7650293 25.28456055 40.69412109 25.76318359 41.65136719 C29.57128906 49.26757812 33.37939453 56.88378906 37.1875 64.5 C38.1775 64.5 39.1675 64.5 40.1875 64.5 C41.93270321 62.53105279 43.56943209 60.5666911 45.1875 58.5 C48.43173963 54.64746544 48.43173963 54.64746544 51.75 54 C54.1875 54.5 54.1875 54.5 55.66015625 55.94140625 C57.9156432 59.71977954 58.91092259 63.71043397 60.0625 67.9375 C60.31789551 68.8538623 60.57329102 69.77022461 60.83642578 70.71435547 C62.69913857 77.48817108 64.42042799 84.29457753 66.0625 91.125 C66.2776123 92.01888428 66.49272461 92.91276855 66.71435547 93.83374023 C66.90916504 94.66462158 67.10397461 95.49550293 67.3046875 96.3515625 C67.47597168 97.08197754 67.64725586 97.81239258 67.82373047 98.56494141 C68.1875 100.5 68.1875 100.5 68.1875 103.5 C66.53678604 104.52611949 64.86779994 105.52308143 63.1875 106.5 C61.40405822 108.56954847 61.40405822 108.56954847 60.1875 110.5 C56.88586262 104.13904724 54.11475886 97.64518322 51.4375 91 C50.82068359 89.48019531 50.82068359 89.48019531 50.19140625 87.9296875 C49.18722851 85.45427261 48.18599908 82.97770963 47.1875 80.5 C46.72569336 80.92079834 46.26388672 81.34159668 45.78808594 81.77514648 C45.17223633 82.32243408 44.55638672 82.86972168 43.921875 83.43359375 C43.31569336 83.97814209 42.70951172 84.52269043 42.08496094 85.08374023 C39.18797357 87.24604385 36.74626597 87.56843781 33.1875 87.5 C30.53152993 85.42902722 29.40519527 83.14222928 28.12109375 80.07421875 C27.72688232 79.15084717 27.3326709 78.22747559 26.92651367 77.27612305 C26.49701416 76.25687744 26.06751465 75.23763184 25.625 74.1875 C20.62403238 62.56634531 15.30290063 51.11465193 9.875 39.6875 C9.48931854 38.87389008 9.10363708 38.06028015 8.70626831 37.22201538 C7.58083096 34.84891786 6.45327365 32.47684712 5.32421875 30.10546875 C4.96746567 29.35604507 4.61071259 28.6066214 4.2431488 27.83448792 C1.67608101 22.46556795 -0.99358941 17.1596542 -3.7565918 11.88842773 C-5.27684339 8.44967136 -5.45387344 6.18789725 -4.8125 2.5 C-2.8125 0.5 -2.8125 0.5 0 0 Z " fill="#94593B" transform="translate(395.8125,376.5)"/>
<path d="M0 0 C4.41701811 0.58269261 7.01444614 2.71844941 10.37890625 5.4375 C11.79028452 6.53656116 13.20174739 7.63551368 14.61328125 8.734375 C15.36673828 9.32927734 16.12019531 9.92417969 16.89648438 10.53710938 C21.26879405 13.9707311 25.70365198 17.32259005 30.12890625 20.6875 C31.02601318 21.37215332 31.92312012 22.05680664 32.84741211 22.76220703 C43.41693818 30.82825581 43.41693818 30.82825581 54.31640625 38.4375 C55.83661279 34.49878306 57.24438618 30.7120765 58.31640625 26.625 C59.82662702 21.8111713 59.82662702 21.8111713 62.31640625 20.4375 C66.94452028 20.44317867 69.53182134 21.24268526 72.74609375 24.46484375 C73.91157703 25.75300948 75.05941227 27.05730813 76.19140625 28.375 C76.79855469 29.05433594 77.40570313 29.73367188 78.03125 30.43359375 C79.24629159 31.79567859 80.45446686 33.16392345 81.65527344 34.53857422 C83.09045245 36.17920066 84.54204985 37.80049211 86.01171875 39.41015625 C87.48782207 41.02886616 88.95370486 42.65699226 90.40625 44.296875 C91.64422662 45.68421894 92.90623585 47.05062848 94.1953125 48.390625 C96.82148996 51.19350581 98.18613275 52.71375833 98.87890625 56.5625 C98.2571989 59.74011533 97.17486162 61.80468822 95.31640625 64.4375 C91.85265738 63.81673187 89.71026975 62.48289763 86.91015625 60.3828125 C86.08386719 59.76792969 85.25757813 59.15304687 84.40625 58.51953125 C83.55160156 57.87371094 82.69695312 57.22789062 81.81640625 56.5625 C80.96175781 55.92441406 80.10710937 55.28632812 79.2265625 54.62890625 C76.91869007 52.90430267 74.61670001 51.17219088 72.31640625 49.4375 C70.98334759 48.43713388 69.650102 47.4370166 68.31640625 46.4375 C68.41953125 47.0975 68.52265625 47.7575 68.62890625 48.4375 C68.16356409 52.90478477 66.38449216 56.16695157 63.31640625 59.4375 C60.12890625 60.5 60.12890625 60.5 56.31640625 59.4375 C53.6431301 57.40705145 51.26491888 55.20436892 48.8515625 52.87109375 C46.61019626 50.7195203 44.34889938 48.81540175 41.87890625 46.9375 C35.21622904 41.85069079 28.78444494 36.48109147 22.328125 31.13671875 C21.62228271 30.5535791 20.91644043 29.97043945 20.18920898 29.36962891 C18.73221934 28.16477611 17.27730002 26.95741535 15.82446289 25.74755859 C12.32007961 22.84405008 8.79416035 20.01724096 5.11328125 17.33984375 C4.46141846 16.85821777 3.80955566 16.3765918 3.13793945 15.88037109 C1.9160054 14.98509895 0.68062846 14.10778558 -0.56958008 13.25244141 C-2.21875 12.03515625 -2.21875 12.03515625 -4.68359375 9.4375 C-5.1796875 5.74609375 -5.1796875 5.74609375 -4.68359375 2.4375 C-2.68359375 0.4375 -2.68359375 0.4375 0 0 Z " fill="#93573A" transform="translate(352.68359375,467.5625)"/>
<path d="M0 0 C3.0625 0.3125 3.0625 0.3125 4.9375 1.4375 C6.60291093 4.21318488 6.29768459 6.07716615 6.0625 9.3125 C5.27990423 12.39767697 4.23606833 15.37552372 3.17578125 18.375 C2.72745186 19.67751709 2.72745186 19.67751709 2.27006531 21.00634766 C1.3136334 23.77812622 0.34447518 26.54526016 -0.625 29.3125 C-1.25798961 31.1416407 -1.89015887 32.97106552 -2.52148438 34.80078125 C-5.9307064 44.66037791 -9.4040398 54.49675996 -12.9375 64.3125 C-11.75671875 64.27769531 -10.5759375 64.24289062 -9.359375 64.20703125 C-7.80209758 64.17888768 -6.24480475 64.15158813 -4.6875 64.125 C-3.52154297 64.08729492 -3.52154297 64.08729492 -2.33203125 64.04882812 C3.49247175 63.97415501 3.49247175 63.97415501 6.609375 65.82421875 C7.08890625 66.31535156 7.5684375 66.80648437 8.0625 67.3125 C7.81667228 74.75146054 4.0645162 80.44186557 0.5 86.8125 C-0.77771072 89.13391264 -2.05505616 91.45552637 -3.33203125 93.77734375 C-3.95158691 94.89608887 -4.57114258 96.01483398 -5.20947266 97.16748047 C-8.05602303 102.34821824 -10.76795324 107.59787594 -13.484375 112.84765625 C-14.9375 115.3125 -14.9375 115.3125 -16.9375 116.3125 C-19.875 116.625 -19.875 116.625 -22.9375 116.3125 C-24.875 114.625 -24.875 114.625 -25.9375 112.3125 C-25.43437473 108.07720178 -23.85308709 104.3950081 -22.21484375 100.48046875 C-21.94990616 99.84385818 -21.68496857 99.20724762 -21.41200256 98.55134583 C-20.57062896 96.53240579 -19.72292409 94.51619644 -18.875 92.5 C-18.30101111 91.12582689 -17.72743893 89.75147965 -17.15429688 88.37695312 C-15.75351516 85.02010648 -14.34704545 81.66567771 -12.9375 78.3125 C-13.98550781 78.35890625 -15.03351562 78.4053125 -16.11328125 78.453125 C-17.49215901 78.49064548 -18.87106758 78.52704536 -20.25 78.5625 C-20.94029297 78.59601563 -21.63058594 78.62953125 -22.34179688 78.6640625 C-25.40828337 78.72331828 -27.44410475 78.6634427 -29.98046875 76.859375 C-32.62320199 69.82646859 -29.09468447 62.28310512 -26.40234375 55.73046875 C-25.86692711 54.38907585 -25.86692711 54.38907585 -25.32069397 53.02058411 C-24.1825361 50.17607832 -23.02915943 47.33804535 -21.875 44.5 C-21.12722811 42.63908427 -20.3804756 40.77775857 -19.63476562 38.91601562 C-18.15331151 35.22130867 -16.66343023 31.53016845 -15.16748047 27.84130859 C-13.6452719 24.08150602 -12.14638822 20.31349105 -10.66455078 16.53759766 C-10.30108047 15.61521805 -9.93761017 14.69283844 -9.56312561 13.74250793 C-8.87227725 11.98689901 -8.18542753 10.22970974 -7.50315857 8.4707489 C-7.1947554 7.68932022 -6.88635223 6.90789154 -6.56860352 6.1027832 C-6.30080582 5.41658401 -6.03300812 4.73038483 -5.75709534 4.02339172 C-4.30080573 0.98341124 -3.36235857 0.35769772 0 0 Z " fill="#94583B" transform="translate(858.9375,498.6875)"/>
<path d="M0 0 C1.875 1.1875 1.875 1.1875 3 3 C3.32548378 5.868907 3.48091812 7.38329324 1.671875 9.703125 C1.03765625 10.21359375 0.4034375 10.7240625 -0.25 11.25 C-0.98734375 11.84941406 -1.7246875 12.44882812 -2.484375 13.06640625 C-6.69881039 16.30576264 -10.93086425 19.51601506 -15.20654297 22.67431641 C-18.66587413 25.23137715 -22.11489907 27.80215767 -25.5625 30.375 C-26.2534375 30.88699951 -26.944375 31.39899902 -27.65625 31.92651367 C-28.30722656 32.41224854 -28.95820312 32.8979834 -29.62890625 33.3984375 C-30.4962439 34.04304932 -30.4962439 34.04304932 -31.38110352 34.70068359 C-33.04348365 36.03489971 -34.52157175 37.46642115 -36 39 C-34.93458984 39.95712891 -34.93458984 39.95712891 -33.84765625 40.93359375 C-32.92855469 41.75988281 -32.00945313 42.58617187 -31.0625 43.4375 C-30.14597656 44.26121094 -29.22945312 45.08492187 -28.28515625 45.93359375 C-25.01182432 48.89358108 -25.01182432 48.89358108 -24.6875 51.8125 C-25.07959364 55.8118551 -25.97855636 56.44344146 -29 59 C-31.10731254 60.22470995 -33.26213921 61.36941149 -35.4453125 62.453125 C-36.05639862 62.75820984 -36.66748474 63.06329468 -37.29708862 63.37762451 C-38.58109986 64.01662449 -39.86704097 64.65175975 -41.15478516 65.28320312 C-43.13005024 66.25247818 -45.09853287 67.23456824 -47.06640625 68.21875 C-56.7046009 73 -56.7046009 73 -59 73 C-59 70.03 -59 67.06 -59 64 C-60.65 64 -62.3 64 -64 64 C-59.3126338 58.82773385 -53.68271819 55.01074507 -48 51 C-49.63726252 47.29628964 -51.69870391 45.31926706 -54.7578125 42.7578125 C-56.66227595 40.06281705 -56.48714324 38.2077144 -56 35 C-54.15625 33.05078125 -54.15625 33.05078125 -51.5 31.3125 C-50.49324219 30.63445313 -49.48648438 29.95640625 -48.44921875 29.2578125 C-47.89411621 28.8959082 -47.33901367 28.53400391 -46.76708984 28.16113281 C-44.25239812 26.50876008 -41.78656268 24.78829776 -39.31420898 23.07348633 C-36.59053383 21.18760953 -33.8550537 19.31919773 -31.12011719 17.44970703 C-27.55611633 15.01269217 -23.99661086 12.56914829 -20.4375 10.125 C-19.47420776 9.46504028 -19.47420776 9.46504028 -18.49145508 8.79174805 C-17.87423584 8.36804932 -17.2570166 7.94435059 -16.62109375 7.5078125 C-16.02248535 7.09756836 -15.42387695 6.68732422 -14.80712891 6.26464844 C-13.5571538 5.38990228 -12.3205078 4.49591119 -11.09521484 3.58691406 C-7.183081 0.68804655 -4.95795293 -0.90144599 0 0 Z " fill="#925739" transform="translate(941,563)"/>
<path d="M0 0 C2.2109375 1.6875 2.2109375 1.6875 4.375 4 C5.16390625 4.83273437 5.9528125 5.66546875 6.765625 6.5234375 C8.581144 8.53574353 10.36441379 10.56493263 12.125 12.625 C15.7062101 16.79329373 19.55917383 20.67329957 23.4375 24.5625 C24.09387451 25.22266113 24.75024902 25.88282227 25.42651367 26.56298828 C28.79619525 29.91958126 32.19614036 33.05367928 35.9375 36 C38.75488243 38.39292962 38.95955326 38.81643401 39.8125 42.6875 C39 46 39 46 36.8125 48.3125 C34.24568139 49.85259116 31.82724848 51.03065766 29 52 C32.70787945 57.50884946 36.88167442 61.96466314 41.75 66.4375 C42.32903076 66.96956055 42.90806152 67.50162109 43.50463867 68.04980469 C46.53016015 70.83573616 46.53016015 70.83573616 50 73 C50.1875 76.375 50.1875 76.375 50 80 C46.73019369 82.17987087 45.79386143 82.61063641 42 82 C39.53515625 79.953125 39.53515625 79.953125 37.0625 77.25 C33.60485953 73.50193965 30.27562046 70.76751176 26 68 C23.43696729 66.07312194 20.93708545 64.07069252 18.4375 62.0625 C17.79103516 61.55009766 17.14457031 61.03769531 16.47851562 60.50976562 C6.33962563 52.39246509 6.33962563 52.39246509 5.375 48.4375 C6.28820282 44.87600901 7.93197132 43.95831618 11 42 C13.30587045 40.88517834 15.61162052 39.9366194 18 39 C13.59849281 33.52673102 9.17223129 28.12590764 4.4375 22.9375 C1.38548327 19.56308714 -1.6353631 16.17120519 -4.5625 12.6875 C-5.55443359 11.51767578 -5.55443359 11.51767578 -6.56640625 10.32421875 C-8.2402516 7.61049127 -8.39036696 6.13348613 -8 3 C-5.82517217 -0.31947406 -3.80257216 -0.46345593 0 0 Z " fill="#92573A" transform="translate(469,813)"/>
<path d="M0 0 C5.81655834 2.38399755 10.17448545 6.34897089 13 12 C13.5072965 17.55531248 13.76260422 22.41830236 11.3125 27.5 C6.40261956 32.80797885 2.35645084 35.73361501 -4.9375 36.3125 C-9.55943297 36.16480665 -13.05285103 34.92557392 -16.41015625 31.60546875 C-21.07596345 26.23230886 -22.42683441 22.45700379 -22.2421875 15.4609375 C-21.7147552 10.1015448 -19.34294211 7.12917086 -15.4375 3.6875 C-10.47323535 -0.37999426 -6.35757339 -0.82722812 0 0 Z " fill="#894C2E" transform="translate(577,557)"/>
<path d="M0 0 C3.66864538 2.68437467 6.50666083 5.76332166 8.5625 9.875 C9.29145386 15.87272167 9.60589377 21.29222421 6 26.375 C2.41073262 30.40034659 -1.16085661 33.37662941 -6.671875 34.21484375 C-11.6366052 34.42309586 -15.25275329 33.72823639 -19.4375 30.875 C-23.8155826 26.42394936 -26.74288287 22.52066586 -26.9375 16.1875 C-26.8511666 10.70200879 -25.71792405 7.6770599 -22.23828125 3.49609375 C-15.73782686 -2.35572528 -8.15665643 -2.6694512 0 0 Z " fill="#8B4E31" transform="translate(545.4375,931.125)"/>
<path d="M0 0 C4.52049994 2.45774754 7.55699234 5.73898468 9.875 10.375 C10.38464647 15.95604654 10.66181405 20.80137191 8.125 25.875 C7.3825 26.7 6.64 27.525 5.875 28.375 C5.25625 29.1175 4.6375 29.86 4 30.625 C-0.00133715 33.92021883 -3.63370069 34.58672585 -8.6875 34.125 C-15.75235845 33.0717799 -18.72329175 31.20428931 -23.125 25.375 C-25.84082128 21.30126808 -25.63472539 18.1536755 -25.125 13.375 C-23.07795406 6.91064439 -19.95615023 3.15985558 -14.25 -0.4375 C-9.05323485 -2.41227076 -5.02877167 -2.25916622 0 0 Z " fill="#8A4E30" transform="translate(802.125,663.625)"/>
<path d="M0 0 C4.0259839 2.12693489 6.31214609 3.78421878 8 8 C8.70094203 12.5561232 8.63197296 15.97576796 6.1875 19.9375 C2.13950808 23.7541781 -0.40062055 24.50037306 -5.77734375 24.38671875 C-9.37225633 23.76124187 -10.8731341 21.8358212 -13 19 C-15.4897133 15.44326671 -15.57738585 12.25822067 -15 8 C-10.93468377 1.70250093 -7.64234618 -0.63686218 0 0 Z " fill="#94583C" transform="translate(625,895)"/>
<path d="M0 0 C3.75212276 2.01502889 5.63644095 3.45466142 8 7 C8.54613601 10.39179204 8.53660917 13.60689554 8 17 C5.53461823 20.2871757 2.92924302 22.69025233 -1 24 C-4.40833571 24.36258891 -6.51765687 24.20191108 -9.6875 22.875 C-13.64699561 19.66459816 -14.84782634 16.44564977 -15.375 11.4375 C-14.87529657 6.85688518 -13.40349492 4.50745751 -10.3125 1.1875 C-6.9004246 -0.56464683 -3.70480136 -0.65546486 0 0 Z " fill="#92573B" transform="translate(625,767)"/>
<path d="M0 0 C3.27365512 2.09849687 6.24483773 4.48967546 8 8 C8.54016597 12.50728651 8.60322525 15.94994123 6.3125 19.9375 C2.76797406 23.09883394 0.20275682 23.8711332 -4.5 24.375 C-8.64624123 23.93075987 -10.12207451 22.96015193 -13 20 C-15.23718343 17.01708876 -15.53023303 13.80194362 -15.4609375 10.1015625 C-14.60803882 6.21292275 -11.90176501 3.59354645 -9 1 C-5.79745853 -0.60127074 -3.54685436 -0.40701607 0 0 Z " fill="#94583B" transform="translate(625,638)"/>
<path d="M0 0 C3.22153655 2.14110303 6.25264061 4.50528122 8 8 C8.39771327 12.77255923 8.47453429 15.08482672 6.25 19.375 C2.83707271 23.3567485 1.29765832 23.85581574 -3.9375 24.4375 C-7.42902053 24.35947719 -7.9606187 24.03167626 -10.875 21.6875 C-14.00807666 17.72507952 -15.56229533 15.31379784 -15.45703125 10.13671875 C-14.62192329 6.23241059 -11.99954067 3.51786261 -9 1 C-5.56007621 -0.14664126 -3.60917881 -0.48585099 0 0 Z " fill="#94573A" transform="translate(625,959)"/>
<path d="M0 0 C3.70390021 2.02666238 5.65363011 3.48044516 8 7 C8.54613601 10.39179204 8.53660917 13.60689554 8 17 C4.73137972 21.35816038 1.49340892 23.5567273 -3.8125 24.5 C-8.32125936 23.79274363 -11.01501681 21.37969171 -14 18 C-15.23534045 14.29397865 -15.45528745 11.90246386 -15 8 C-10.9515859 1.69693066 -7.62876526 -0.63573044 0 0 Z " fill="#94593C" transform="translate(625,831)"/>
<path d="M0 0 C3.4830833 2.24010063 5.55397503 5.01350222 6.46484375 9.0703125 C6.67478714 13.48752138 5.79713429 16.62414827 3 20 C-0.93461624 23.16955197 -4.02077887 23.53348798 -9 23 C-13.14798495 21.20882468 -15.2414131 19.16507424 -17 15 C-17.83389634 8.43306631 -17.83389634 8.43306631 -15.9453125 5.1875 C-11.42873134 -0.37136913 -6.91872633 -1.26949107 0 0 Z " fill="#94583B" transform="translate(627,703)"/>
<path d="M0 0 C3.40763599 2.2671493 5.51592856 5.04495177 6.50390625 9.03515625 C6.80606386 14.09385942 5.16137749 17.20634701 2 21 C-1.54176443 23.36117629 -3.53858514 23.60887686 -7.703125 23.5 C-11.24605735 22.72874942 -12.87164706 21.01579987 -14.9609375 18.1328125 C-16.79116197 14.37603596 -17.00487574 11.04150754 -16 7 C-12.27871871 0.47071891 -7.21678999 -1.45061105 0 0 Z " fill="#91573A" transform="translate(631,574)"/>
<path d="M0 0 C1.61477548 1.40863393 3.22946273 2.81736911 4.84375 4.2265625 C7.0041956 6.05294882 7.0041956 6.05294882 9.46875 7.7109375 C15.83546379 12.16360759 15.83546379 12.16360759 16.75 16.8125 C16 20 16 20 13 22 C10.62890625 22.42578125 10.62890625 22.42578125 8 22 C5.46484375 19.91796875 5.46484375 19.91796875 2.9375 17.1875 C0.09720457 14.15464217 -2.58200633 11.3760187 -6 9 C-5.34 9 -4.68 9 -4 9 C-3.8453125 7.329375 -3.8453125 7.329375 -3.6875 5.625 C-3.460625 4.42875 -3.23375 3.2325 -3 2 C-2.01 1.34 -1.02 0.68 0 0 Z " fill="#A06749" transform="translate(503,873)"/>
<path d="M0 0 C4.76622787 3.8129823 4.76622787 3.8129823 5.40234375 7.04296875 C5.4375 9.1875 5.4375 9.1875 5 13 C4.34 13.66 3.68 14.32 3 15 C-1.94942337 14.76051177 -5.29999334 14.54583971 -9 11 C-7.69491311 8.38982622 -5.66557716 7.11237891 -3.43359375 5.30859375 C-1.71286097 3.73789762 -0.80674631 2.17821505 0 0 Z " fill="#A6745A" transform="translate(442,433)"/>
<path d="M0 0 C2.31 1.98 4.62 3.96 7 6 C3.375 11.75 3.375 11.75 0 14 C-1.98 12.68 -3.96 11.36 -6 10 C-5.34 9.67 -4.68 9.34 -4 9 C-3.855625 7.865625 -3.71125 6.73125 -3.5625 5.5625 C-3.376875 4.386875 -3.19125 3.21125 -3 2 C-2.01 1.34 -1.02 0.68 0 0 Z " fill="#BB927A" transform="translate(503,873)"/>
<path d="M0 0 C2.35043607 1.98070455 4.67790392 3.98619077 7 6 C7.804375 6.680625 8.60875 7.36125 9.4375 8.0625 C11 10 11 10 11.25 12.75 C11.1675 13.4925 11.085 14.235 11 15 C9.68 15.33 8.36 15.66 7 16 C5.99106869 14.90398831 4.99311775 13.79786082 4 12.6875 C3.443125 12.07261719 2.88625 11.45773437 2.3125 10.82421875 C1 9 1 9 1 6 C-0.32 5.67 -1.64 5.34 -3 5 C-2.01 3.35 -1.02 1.7 0 0 Z " fill="#E7D5CA" transform="translate(818,647)"/>
<path d="M0 0 C0.66 0.66 1.32 1.32 2 2 C2.33 1.34 2.66 0.68 3 0 C4.79240663 0.11389875 6.58394835 0.24147687 8.375 0.375 C9.87160156 0.47941406 9.87160156 0.47941406 11.3984375 0.5859375 C14 1 14 1 16 3 C15.06027344 2.98259766 15.06027344 2.98259766 14.1015625 2.96484375 C12.87566406 2.95130859 12.87566406 2.95130859 11.625 2.9375 C10.40683594 2.92009766 10.40683594 2.92009766 9.1640625 2.90234375 C6.95062858 2.85533666 6.95062858 2.85533666 5 4 C4.34444881 6.52733235 4.34444881 6.52733235 4 9 C6.64 9.33 9.28 9.66 12 10 C12 10.99 12 11.98 12 13 C1.44191344 11.07289294 1.44191344 11.07289294 -3 9 C-2.01 6.03 -1.02 3.06 0 0 Z " fill="#CEAE99" transform="translate(557,521)"/>
<path d="M0 0 C0.80824219 0.11085938 1.61648438 0.22171875 2.44921875 0.3359375 C3.37154297 0.47902344 3.37154297 0.47902344 4.3125 0.625 C3.3225 2.11 3.3225 2.11 2.3125 3.625 C1.92750109 5.28049531 1.58456865 6.9472433 1.3125 8.625 C-3.1425 7.635 -3.1425 7.635 -7.6875 6.625 C-7.875 4.25 -7.875 4.25 -7.6875 1.625 C-4.33422361 -0.61051759 -3.78006343 -0.54783528 0 0 Z " fill="#E4D0C2" transform="translate(568.6875,523.375)"/>
<path d="M0 0 C1.98 0 3.96 0 6 0 C6.66 1.98 7.32 3.96 8 6 C5.21136993 7.39431504 3.07921132 7.25660094 0 7 C-0.66 6.01 -1.32 5.02 -2 4 C-1.34 4 -0.68 4 0 4 C0 2.68 0 1.36 0 0 Z " fill="#C8A695" transform="translate(836,608)"/>
<path d="M0 0 C0.66 0.33 1.32 0.66 2 1 C1.67 1.33 1.34 1.66 1 2 C0.95907063 4.33297433 0.95758277 6.66705225 1 9 C2.98 7.68 4.96 6.36 7 5 C7.66 5.33 8.32 5.66 9 6 C6.78071806 8.90802461 5.07030857 10.95312762 2 13 C0.02 11.68 -1.96 10.36 -4 9 C-3.34 8.67 -2.68 8.34 -2 8 C-1.62599214 5.67284 -1.29235267 3.33882138 -1 1 C-0.67 0.67 -0.34 0.34 0 0 Z " fill="#AE7E63" transform="translate(501,874)"/>
<path d="M0 0 C3.875 1.875 3.875 1.875 5 3 C5.04063832 4.66617115 5.042721 6.33388095 5 8 C3.125 8.625 3.125 8.625 1 9 C-1 7 -1 7 -1.1875 3.9375 C-1 1 -1 1 0 0 Z " fill="#A9755A" transform="translate(824,654)"/>
<path d="M0 0 C0.66 0.99 1.32 1.98 2 3 C-7.04472894 11.19187609 -7.04472894 11.19187609 -11 13 C-11.99 12.67 -12.98 12.34 -14 12 C-12.98679687 11.20335937 -12.98679687 11.20335937 -11.953125 10.390625 C-11.06109375 9.68421875 -10.1690625 8.9778125 -9.25 8.25 C-8.36828125 7.55390625 -7.4865625 6.8578125 -6.578125 6.140625 C-4.24152752 4.20054103 -2.1061438 2.18487814 0 0 Z " fill="#9C6549" transform="translate(507,541)"/>
<path d="M0 0 C0.99 0.66 1.98 1.32 3 2 C3.1875 5.625 3.1875 5.625 3 9 C5.64 9.66 8.28 10.32 11 11 C10.67 11.66 10.34 12.32 10 13 C5.71 11.68 1.42 10.36 -3 9 C-2.01 6.03 -1.02 3.06 0 0 Z " fill="#B3856C" transform="translate(557,521)"/>
<path d="M0 0 C0.99 0 1.98 0 3 0 C3.25 2.3125 3.25 2.3125 3 5 C1.25 6.875 1.25 6.875 -1 8 C-3.25 7.6875 -3.25 7.6875 -5 7 C-3.47793991 4.37098712 -2.15634036 2.15634036 0 0 Z " fill="#E7D8CF" transform="translate(461,480)"/>
<path d="M0 0 C0.66 0.33 1.32 0.66 2 1 C2 3.31 2 5.62 2 8 C-0.64 8 -3.28 8 -6 8 C-4.02 5.36 -2.04 2.72 0 0 Z " fill="#CAA896" transform="translate(441,435)"/>
<path d="M0 0 C0 1.65 0 3.3 0 5 C-3.96 5 -7.92 5 -12 5 C-11 3 -11 3 -9.00390625 2.1484375 C-8.19824219 1.89320313 -7.39257812 1.63796875 -6.5625 1.375 C-5.75941406 1.11460937 -4.95632813 0.85421875 -4.12890625 0.5859375 C-2 0 -2 0 0 0 Z " fill="#E7D7CE" transform="translate(407,610)"/>
<path d="M0 0 C2.475 0.99 2.475 0.99 5 2 C4.34 4.97 3.68 7.94 3 11 C0.43383368 7.15075052 0.44902324 4.5650696 0 0 Z " fill="#EBDFD9" transform="translate(499,399)"/>
<path d="M0 0 C0 0.33 0 0.66 0 1 C-1.175625 1.0928125 -1.175625 1.0928125 -2.375 1.1875 C-3.24125 1.455625 -4.1075 1.72375 -5 2 C-6.37466625 4.47636012 -6.37466625 4.47636012 -7 7 C-7.33 7 -7.66 7 -8 7 C-8.33 10.63 -8.66 14.26 -9 18 C-9.33 18 -9.66 18 -10 18 C-10.10823773 15.75106046 -10.18569645 13.50062425 -10.25 11.25 C-10.29640625 9.99703125 -10.3428125 8.7440625 -10.390625 7.453125 C-10 4 -10 4 -8.1875 1.5625 C-5.33530729 -0.47478051 -3.42636549 -0.31148777 0 0 Z " fill="#A4735C" transform="translate(576,469)"/>
<path d="M0 0 C-1.26700723 0.9841125 -2.5387619 1.96211497 -3.8125 2.9375 C-4.87404297 3.75541016 -4.87404297 3.75541016 -5.95703125 4.58984375 C-8 6 -8 6 -11 7 C-11.66 6.34 -12.32 5.68 -13 5 C-11.40377344 3.96679519 -9.79770894 2.94877571 -8.1875 1.9375 C-7.29417969 1.36902344 -6.40085937 0.80054688 -5.48046875 0.21484375 C-3 -1 -3 -1 0 0 Z " fill="#985D40" transform="translate(495,555)"/>
<path d="M0 0 C0.33 0 0.66 0 1 0 C1 5.28 1 10.56 1 16 C0.34 16 -0.32 16 -1 16 C-1 17.65 -1 19.3 -1 21 C-1.33 21 -1.66 21 -2 21 C-1.85845864 18.43719792 -1.71191438 15.87484515 -1.5625 13.3125 C-1.52318359 12.59126953 -1.48386719 11.87003906 -1.44335938 11.12695312 C-1.21814322 7.33292718 -0.87160695 3.71348508 0 0 Z " fill="#B08672" transform="translate(690,461)"/>
<path d="M0 0 C0.99 0.33 1.98 0.66 3 1 C2.34 1.66 1.68 2.32 1 3 C0.75684344 5.66949409 0.75684344 5.66949409 0.875 8.625 C0.89304687 9.62789062 0.91109375 10.63078125 0.9296875 11.6640625 C0.95289063 12.43492187 0.97609375 13.20578125 1 14 C-1 13 -1 13 -2 10 C-2.34710744 3.52066116 -2.34710744 3.52066116 0 0 Z " fill="#996043" transform="translate(612,900)"/>
<path d="M0 0 C0.66 0.33 1.32 0.66 2 1 C1.34 3.31 0.68 5.62 0 8 C-1.875 7.6875 -1.875 7.6875 -4 7 C-4.66 6.01 -5.32 5.02 -6 4 C-5.195625 3.525625 -4.39125 3.05125 -3.5625 2.5625 C-1.15246512 1.23099846 -1.15246512 1.23099846 0 0 Z " fill="#965F43" transform="translate(499,874)"/>
<path d="M0 0 C1.140625 1.734375 1.140625 1.734375 2 4 C1.171875 6.140625 1.171875 6.140625 -0.25 8.25 C-0.70890625 8.95640625 -1.1678125 9.6628125 -1.640625 10.390625 C-2.08921875 10.92171875 -2.5378125 11.4528125 -3 12 C-3.66 12 -4.32 12 -5 12 C-3.68938409 7.76570244 -2.05643741 3.92592596 0 0 Z " fill="#9D6246" transform="translate(311,663)"/>
<path d="M0 0 C2 2 2 2 2.8125 4 C4.40298924 6.67871871 6.09744918 7.083405 9 8 C9 8.66 9 9.32 9 10 C5.2404812 9.47784461 2.63228537 8.82726947 0 6 C-0.25 2.8125 -0.25 2.8125 0 0 Z " fill="#9E6B53" transform="translate(477,904)"/>
<path d="M0 0 C-1.59241408 4.29951803 -4.35540725 6.39671947 -8 9 C-8.99 8.67 -9.98 8.34 -11 8 C-9.54712339 6.66072279 -8.08752741 5.32873153 -6.625 4 C-5.81289062 3.2575 -5.00078125 2.515 -4.1640625 1.75 C-2 0 -2 0 0 0 Z " fill="#9A6044" transform="translate(231,161)"/>
<path d="M0 0 C0.99 0 1.98 0 3 0 C2.42415568 2.38564077 1.77772405 4.66682784 1 7 C-0.32 6.34 -1.64 5.68 -3 5 C-1.6875 2.5 -1.6875 2.5 0 0 Z " fill="#EBDFD9" transform="translate(725,399)"/>
<path d="M0 0 C0.33 0.99 0.66 1.98 1 3 C-1.64 5.64 -4.28 8.28 -7 11 C-7.66 10.67 -8.32 10.34 -9 10 C-6.03 6.7 -3.06 3.4 0 0 Z " fill="#9B6449" transform="translate(219,170)"/>
<path d="M0 0 C0.66 0.33 1.32 0.66 2 1 C1.566875 1.350625 1.13375 1.70125 0.6875 2.0625 C-1.68358456 4.78485635 -2.6716835 7.64758216 -4 11 C-5.08892712 8.16878949 -4.96109941 6.83467249 -4.25 3.8125 C-3.8375 2.884375 -3.425 1.95625 -3 1 C-2.01 0.67 -1.02 0.34 0 0 Z " fill="#E9DDD8" transform="translate(710,458)"/>
<path d="M0 0 C0 0.33 0 0.66 0 1 C-2.97 1 -5.94 1 -9 1 C-9.33 1.99 -9.66 2.98 -10 4 C-10.99 4.33 -11.98 4.66 -13 5 C-13.66 4.34 -14.32 3.68 -15 3 C-10.27805833 -0.77755334 -5.74071928 -0.30096975 0 0 Z " fill="#A2735C" transform="translate(577,557)"/>
<path d="M0 0 C0.33 0.99 0.66 1.98 1 3 C-4.28 2.34 -9.56 1.68 -15 1 C-15 0.67 -15 0.34 -15 0 C-13.25093341 -0.19601608 -11.50068154 -0.38147403 -9.75 -0.5625 C-8.77546875 -0.66691406 -7.8009375 -0.77132812 -6.796875 -0.87890625 C-4.20003537 -0.99133925 -2.391493 -1.00376885 0 0 Z " fill="#B0826C" transform="translate(583,546)"/>
<path d="M0 0 C0.66 0.33 1.32 0.66 2 1 C-0.31 3.64 -2.62 6.28 -5 9 C-5.99 8.67 -6.98 8.34 -8 8 C-5.36 5.36 -2.72 2.72 0 0 Z " fill="#9B6449" transform="translate(535,261)"/>
<path d="M0 0 C1.65 0 3.3 0 5 0 C5.33 0.66 5.66 1.32 6 2 C0.25 5 0.25 5 -2 5 C-1.34 3.35 -0.68 1.7 0 0 Z " fill="#A8785F" transform="translate(601,580)"/>
<path d="M0 0 C0.99 0.66 1.98 1.32 3 2 C2.34 2 1.68 2 1 2 C0.34 4.64 -0.32 7.28 -1 10 C-1.33 10 -1.66 10 -2 10 C-2.1953125 3.9453125 -2.1953125 3.9453125 -2 2 C-1.34 1.34 -0.68 0.68 0 0 Z " fill="#A0694C" transform="translate(516,578)"/>
<path d="M0 0 C0.66 0.99 1.32 1.98 2 3 C0.68 5.31 -0.64 7.62 -2 10 C-2.66 10 -3.32 10 -4 10 C-2.8905928 6.51329166 -1.73662334 3.22515763 0 0 Z " fill="#A06E55" transform="translate(719,421)"/>
<path d="M0 0 C0.66 0.99 1.32 1.98 2 3 C1.25 6.125 1.25 6.125 0 9 C-0.99 9.495 -0.99 9.495 -2 10 C-1.85950482 8.52031676 -1.71245174 7.04125484 -1.5625 5.5625 C-1.48128906 4.73878906 -1.40007812 3.91507813 -1.31640625 3.06640625 C-1 1 -1 1 0 0 Z " fill="#9D664A" transform="translate(394,880)"/>
<path d="M0 0 C0.33 0 0.66 0 1 0 C1.07654536 4.51617599 1.10228696 8.59085217 0 13 C-1.44977894 10.65887549 -2.04314411 9.4203071 -1.7578125 6.640625 C-1.54898437 5.85171875 -1.34015625 5.0628125 -1.125 4.25 C-0.92132813 3.45078125 -0.71765625 2.6515625 -0.5078125 1.828125 C-0.34023438 1.22484375 -0.17265625 0.6215625 0 0 Z " fill="#AB7C66" transform="translate(304,797)"/>
<path d="M0 0 C0 0.33 0 0.66 0 1 C-1.65 1.33 -3.3 1.66 -5 2 C-5.66 4.64 -6.32 7.28 -7 10 C-7.33 10 -7.66 10 -8 10 C-9.32850242 3.59903382 -9.32850242 3.59903382 -7.9375 1.0625 C-5.23787512 -0.41793945 -3.02429981 -0.20161999 0 0 Z " fill="#A37159" transform="translate(390,754)"/>
<path d="M0 0 C1.31571603 0.2547514 2.62760376 0.52934141 3.9375 0.8125 C4.66839844 0.96332031 5.39929688 1.11414063 6.15234375 1.26953125 C6.76207031 1.51058594 7.37179687 1.75164063 8 2 C8.33 2.99 8.66 3.98 9 5 C5.7 4.01 2.4 3.02 -1 2 C-0.67 1.34 -0.34 0.68 0 0 Z " fill="#A36D54" transform="translate(777,591)"/>
<path d="M0 0 C3.34373475 0.55728913 6.03312999 1.35173889 9 3 C9 3.66 9 4.32 9 5 C6.03 4.01 3.06 3.02 0 2 C0 1.34 0 0.68 0 0 Z " fill="#965F45" transform="translate(758,583)"/>
<path d="M0 0 C2.97 0 5.94 0 9 0 C8.34 1.32 7.68 2.64 7 4 C5.68 3.67 4.36 3.34 3 3 C3 2.34 3 1.68 3 1 C2.01 0.67 1.02 0.34 0 0 Z " fill="#EEE1DB" transform="translate(837,577)"/>
<path d="M0 0 C0 0.66 0 1.32 0 2 C-1.98 2.66 -3.96 3.32 -6 4 C-6.66 3.34 -7.32 2.68 -8 2 C-4.77208445 -0.1519437 -3.71599191 -0.20086443 0 0 Z " fill="#A77358" transform="translate(859,754)"/>
<path d="M0 0 C0.66 0.33 1.32 0.66 2 1 C2.25 3.25 2.25 3.25 2 6 C0 8.3125 0 8.3125 -2 10 C-1.34 6.7 -0.68 3.4 0 0 Z " fill="#F2EBE8" transform="translate(520,309)"/>
<path d="M0 0 C0.66 0.66 1.32 1.32 2 2 C1.360625 2.2475 0.72125 2.495 0.0625 2.75 C-2.18741541 3.81562433 -2.18741541 3.81562433 -2.75 6.125 C-2.8325 6.74375 -2.915 7.3625 -3 8 C-3.66 8 -4.32 8 -5 8 C-3.8141763 4.62496331 -2.72426311 2.35277269 0 0 Z " fill="#90573D" transform="translate(561,561)"/>
<path d="M0 0 C7.42857143 -0.28571429 7.42857143 -0.28571429 11 2 C11 2.66 11 3.32 11 4 C7.37 3.01 3.74 2.02 0 1 C0 0.67 0 0.34 0 0 Z " fill="#A57159" transform="translate(979,162)"/>
<path d="M0 0 C2.64 0 5.28 0 8 0 C8 0.66 8 1.32 8 2 C8.66 2.33 9.32 2.66 10 3 C2.25 2.25 2.25 2.25 0 0 Z " fill="#986045" transform="translate(961,157)"/>
<path d="M0 0 C1.670625 0.061875 1.670625 0.061875 3.375 0.125 C3.375 0.455 3.375 0.785 3.375 1.125 C2.6325 1.228125 1.89 1.33125 1.125 1.4375 C-1.79514018 2.16753504 -3.35687554 3.19289398 -5.625 5.125 C-5.625 0.52392493 -4.48911497 0.15479707 0 0 Z " fill="#995F42" transform="translate(730.625,691.875)"/>
</svg>
