<?xml version="1.0" encoding="UTF-8"?>
<svg version="1.1" xmlns="http://www.w3.org/2000/svg" width="1254" height="1254">
<path d="M0 0 C413.82 0 827.64 0 1254 0 C1254 413.82 1254 827.64 1254 1254 C840.18 1254 426.36 1254 0 1254 C0 840.18 0 426.36 0 0 Z " fill="none" transform="translate(0,0)"/>
<path d="M0 0 C10.12434918 8.34273782 17.2204253 21.15865071 19.43359375 34.08984375 C19.67204167 37.79590242 19.66455263 41.50182604 19.68359375 45.21484375 C19.71453125 46.68824219 19.71453125 46.68824219 19.74609375 48.19140625 C19.82663037 63.49336364 14.24036311 76.84583488 3.67578125 87.890625 C-4.75642146 96.16123497 -4.75642146 96.16123497 -9.56640625 97.08984375 C-9.56640625 97.74984375 -9.56640625 98.40984375 -9.56640625 99.08984375 C-9.00695312 99.22519531 -8.4475 99.36054688 -7.87109375 99.5 C3.81054954 102.63638976 14.32781533 108.14985703 23.43359375 116.08984375 C24.0359082 116.58790527 24.63822266 117.0859668 25.25878906 117.59912109 C29.9912726 121.58478414 33.78638858 125.73168793 37.43359375 130.71484375 C38.54786373 132.2046615 39.66246334 133.69423275 40.77734375 135.18359375 C41.36257813 135.97121094 41.9478125 136.75882813 42.55078125 137.5703125 C45.97206881 142.1485915 49.45947227 146.67661291 52.93359375 151.21484375 C57.19120609 156.77942026 61.3976694 162.36193573 65.43359375 168.08984375 C71.39010404 166.51513413 76.19260856 163.37119522 81.37109375 160.15234375 C86.95378487 156.69165549 92.34734861 153.56533724 98.43359375 151.08984375 C99.779912 150.1073953 101.11800672 149.11307811 102.43359375 148.08984375 C103.09359375 148.08984375 103.75359375 148.08984375 104.43359375 148.08984375 C104.68109375 147.49147705 104.92859375 146.89311035 105.18359375 146.27661133 C106.63960004 143.72945345 107.99980237 142.71693721 110.43359375 141.1015625 C111.23394043 140.56337891 112.03428711 140.02519531 112.85888672 139.47070312 C113.70854004 138.91189453 114.55819336 138.35308594 115.43359375 137.77734375 C117.1654824 136.61475882 118.89725434 135.45200002 120.62890625 134.2890625 C121.46067383 133.73524902 122.29244141 133.18143555 123.14941406 132.61083984 C125.88314136 130.7904977 128.60335203 128.952267 131.30859375 127.08984375 C132.00726562 126.61546875 132.7059375 126.14109375 133.42578125 125.65234375 C135.55329396 124.07681188 135.55329396 124.07681188 137.58984375 121.8203125 C141.41200717 118.15040559 145.663452 115.34242721 150.05859375 112.40234375 C150.91710937 111.82162109 151.775625 111.24089844 152.66015625 110.64257812 C162.29053259 104.13455036 162.29053259 104.13455036 165.43359375 103.15234375 C168.43228205 102.09030831 169.51137967 101.52215429 171.43359375 99.08984375 C171.91787967 97.07201848 171.91787967 97.07201848 171.91015625 94.8515625 C171.94109375 94.03107422 171.97203125 93.21058594 172.00390625 92.36523438 C172.02195312 91.51123047 172.04 90.65722656 172.05859375 89.77734375 C172.11012224 88.09365035 172.16474118 86.41004831 172.22265625 84.7265625 C172.25045166 83.91783691 172.27824707 83.10911133 172.30688477 82.27587891 C172.43359375 80.08984375 172.43359375 80.08984375 172.9375 77.15625 C173.38497293 74.39037398 173.54134876 71.83788282 173.609375 69.04296875 C173.63322266 68.11484375 173.65707031 67.18671875 173.68164062 66.23046875 C173.72425608 64.31923003 173.75569682 62.40770607 173.77539062 60.49609375 C174.0491794 51.2764159 176.47131577 43.38027878 182.86328125 36.5546875 C188.83573953 30.98336448 195.06591385 28.61381685 203.140625 28.84375 C211.00426461 29.68771814 217.84438616 33.94635347 222.9765625 39.87109375 C228.81328782 48.22394407 228.58619083 58.18838873 228.9675293 68.01147461 C229.28072378 75.42730565 229.90910564 82.79620492 230.57421875 90.18652344 C231.65495897 102.20133456 232.73252271 114.20750241 232.87109375 126.27734375 C232.89308838 127.15946533 232.91508301 128.04158691 232.93774414 128.95043945 C232.91239657 136.79973862 230.38143178 143.59413853 224.99609375 149.40234375 C224.3928125 150.05460938 223.78953125 150.706875 223.16796875 151.37890625 C221.05522573 153.46309869 218.76780086 155.26033007 216.43359375 157.08984375 C215.87671875 157.85296875 215.31984375 158.61609375 214.74609375 159.40234375 C211.27760705 163.43328775 206.97377021 166.34517262 202.43359375 169.08984375 C201.77359375 169.08984375 201.11359375 169.08984375 200.43359375 169.08984375 C200.85511719 169.82589844 201.27664063 170.56195313 201.7109375 171.3203125 C202.25878906 172.29613281 202.80664062 173.27195312 203.37109375 174.27734375 C203.91636719 175.24027344 204.46164062 176.20320312 205.0234375 177.1953125 C207.91558937 183.13183476 208.38202925 188.93757471 206.4921875 195.21875 C202.25984837 206.88090077 202.25984837 206.88090077 197.43359375 211.08984375 C196.61117187 211.83105469 195.78875 212.57226562 194.94140625 213.3359375 C188.53531061 218.64603004 183.45526399 221.15317067 175.1484375 221.96875 C170.60132266 223.34101284 167.77460591 225.57975778 164.01831055 228.43969727 C156.72862075 233.92499916 148.96761756 238.78997913 141.35424805 243.80883789 C138.37089364 245.7774758 135.39339915 247.75476881 132.41601562 249.73242188 C130.4938418 251.00183558 128.57132722 252.27073349 126.6484375 253.5390625 C125.33394875 254.41421761 125.33394875 254.41421761 123.99290466 255.30705261 C111.54591162 263.47685034 100.59790049 268.67181465 85.43359375 267.08984375 C82.93101745 266.32814029 80.45219773 265.48388437 78.00390625 264.5625 C77.36718994 264.32599731 76.73047363 264.08949463 76.07446289 263.8458252 C74.52441273 263.26874079 72.97853734 262.68046309 71.43359375 262.08984375 C71.41377441 262.87141846 71.39395508 263.65299316 71.37353516 264.45825195 C70.81228042 286.25571133 70.11593632 308.04797775 69.37109375 329.83984375 C69.33650433 330.85188559 69.33650433 330.85188559 69.30121613 331.88437271 C69.01388419 340.28626115 68.72463522 348.68808299 68.43359375 357.08984375 C69.47668701 357.08476807 70.51978027 357.07969238 71.59448242 357.07446289 C86.31487049 357.02677817 101.02840897 357.26551703 115.74609375 357.52734375 C117.03117828 357.55007355 118.31626282 357.57280334 119.64028931 357.59622192 C192.2962824 358.89515629 192.2962824 358.89515629 212.23583984 364.50146484 C216.7281157 365.70412923 221.27235982 366.69351794 225.80859375 367.71484375 C226.71230713 367.92085205 227.61602051 368.12686035 228.54711914 368.33911133 C232.70063742 369.27960968 236.85597264 370.1846662 241.03515625 371.00390625 C248.52940488 372.4833629 255.97822276 374.17774228 263.43359375 375.83984375 C264.22206696 376.01525696 265.01054016 376.19067017 265.82290649 376.37139893 C279.09686659 379.32504504 292.35447551 382.34466876 305.59643555 385.43896484 C306.53269775 385.65375488 307.46895996 385.86854492 308.43359375 386.08984375 C310.29226074 386.61324341 310.29226074 386.61324341 312.18847656 387.1472168 C318.77537679 388.59657196 325.50530648 388.38676469 332.2155323 388.394804 C334.70117173 388.39850438 337.18642507 388.41532785 339.67198181 388.43556213 C346.73250129 388.49063867 353.79307469 388.52166043 360.85375977 388.54614258 C365.18904491 388.56207249 369.52405033 388.59233849 373.85918999 388.63090706 C375.50207984 388.64249888 377.14501977 388.6484869 378.78795052 388.64858818 C381.08947921 388.64878163 383.39024164 388.66714572 385.69165039 388.68920898 C386.99687149 388.69427963 388.30209259 388.69935028 389.64686584 388.70457458 C397.37557767 389.49090897 403.83945285 392.73842384 409.43359375 398.08984375 C415.99680263 406.3228956 418.57011508 413.52688079 417.43359375 424.08984375 C416.41349587 427.29322803 415.06960412 430.1594798 413.43359375 433.08984375 C413.10359375 433.74984375 412.77359375 434.40984375 412.43359375 435.08984375 C414.16609375 434.99703125 414.16609375 434.99703125 415.93359375 434.90234375 C424.17514801 434.97476514 429.24518578 438.35602891 435.35546875 443.6640625 C441.42710759 450.75144544 442.088934 457.31188736 441.99609375 466.46484375 C442.01994141 467.53734375 442.04378906 468.60984375 442.06835938 469.71484375 C442.05302786 478.11651341 440.25732409 484.96259807 434.44360352 491.23779297 C427.34030785 497.98136986 420.86404669 499.5457977 411.34375 499.3828125 C410.3992247 499.37856766 409.4546994 499.37432281 408.48155212 499.36994934 C405.48610051 499.35325308 402.49133955 499.31561781 399.49609375 499.27734375 C397.45638997 499.26228521 395.41667558 499.24859885 393.37695312 499.23632812 C388.39557014 499.20337922 383.41469876 499.15165979 378.43359375 499.08984375 C378.43728092 499.94682987 378.44096809 500.80381599 378.444767 501.68677139 C378.5330523 522.52610366 378.59927134 543.36540375 378.64084244 564.20488358 C378.66147957 574.2826534 378.68962214 584.3602985 378.73535156 594.43798828 C378.77518411 603.22032177 378.80101819 612.00256495 378.80994773 620.78498626 C378.81516856 625.43650601 378.82746321 630.08776736 378.85651398 634.73920441 C378.88362655 639.11569003 378.89204722 643.49181034 378.88602448 647.86837196 C378.88712658 649.47604417 378.89510536 651.08372837 378.91041565 652.69132805 C378.93027952 654.88428971 378.92554749 657.07586706 378.91461182 659.26885986 C378.92014257 661.11060225 378.92014257 661.11060225 378.92578506 662.98955154 C378.34018798 666.67820272 377.36114831 667.8480884 374.43359375 670.08984375 C372.41624451 670.59104919 372.41624451 670.59104919 370.26342773 670.59155273 C369.04712929 670.60562416 369.04712929 670.60562416 367.80625916 670.61997986 C366.93949051 670.60874588 366.07272186 670.5975119 365.1796875 670.5859375 C364.28242447 670.58739273 363.38516144 670.58884796 362.46070862 670.59034729 C360.56695299 670.58868954 358.67318373 670.57714212 356.77954102 670.55639648 C353.8778377 670.52741112 350.97795803 670.53579578 348.07617188 670.54882812 C346.23566819 670.5425915 344.39517028 670.53420116 342.5546875 670.5234375 C341.68589462 670.52637314 340.81710175 670.52930878 339.92198181 670.53233337 C339.11426834 670.5196492 338.30655487 670.50696503 337.47436523 670.49389648 C336.76473129 670.4884935 336.05509735 670.48309052 335.32395935 670.4775238 C333.43359375 670.08984375 333.43359375 670.08984375 330.43359375 667.08984375 C330.10359375 649.26984375 329.77359375 631.44984375 329.43359375 613.08984375 C143.97359375 612.75984375 -41.48640625 612.42984375 -232.56640625 612.08984375 C-232.56640625 630.23984375 -232.56640625 648.38984375 -232.56640625 667.08984375 C-235.94255519 670.46599269 -235.94255519 670.46599269 -239.62304688 670.49389648 C-240.43398804 670.50658066 -241.2449292 670.51926483 -242.08044434 670.53233337 C-243.38833923 670.52792992 -243.38833923 670.52792992 -244.72265625 670.5234375 C-245.62133423 670.52867935 -246.52001221 670.5339212 -247.44592285 670.5393219 C-249.34561123 670.54574422 -251.24533937 670.54440237 -253.14501953 670.53588867 C-256.05573085 670.52737498 -258.96448249 670.55614221 -261.875 670.58789062 C-263.72005149 670.58950259 -265.56510647 670.58892519 -267.41015625 670.5859375 C-268.28208618 670.59717148 -269.15401611 670.60840546 -270.05236816 670.61997986 C-270.86330933 670.61059891 -271.67425049 670.60121796 -272.50976562 670.59155273 C-273.22241577 670.59138657 -273.93506592 670.5912204 -274.66931152 670.59104919 C-277.48211913 669.84791578 -278.10785078 668.57792898 -279.56640625 666.08984375 C-279.93554974 662.98955154 -279.93554974 662.98955154 -279.9271698 659.26885986 C-279.93101471 658.24080345 -279.93101471 658.24080345 -279.9349373 657.19197822 C-279.93987725 654.89630054 -279.92337949 652.6012811 -279.90698242 650.30566406 C-279.90613619 648.65977494 -279.90661121 647.01388468 -279.90830994 645.36799622 C-279.90917148 640.89926829 -279.89152004 636.43078142 -279.87058806 631.96210957 C-279.85184773 627.29227733 -279.85007291 622.62243972 -279.84651184 617.95257568 C-279.8371836 609.1092885 -279.81255927 600.26611244 -279.78246337 591.42287421 C-279.74894361 581.35527403 -279.73243945 571.28766857 -279.71737707 561.22002649 C-279.68601041 540.50990353 -279.63323475 519.79988064 -279.56640625 499.08984375 C-280.7152832 499.12126465 -281.86416016 499.15268555 -283.04785156 499.18505859 C-287.36396561 499.2947381 -291.67996012 499.36292692 -295.99707031 499.41943359 C-297.85535484 499.4493644 -299.71350108 499.49012522 -301.57128906 499.54248047 C-313.70248425 499.87546807 -323.47351327 499.85077163 -333.24707031 491.68579102 C-339.74724846 484.74657419 -341.21759251 476.21141452 -341.06640625 467.08984375 C-341.081875 466.1565625 -341.09734375 465.22328125 -341.11328125 464.26171875 C-341.05930694 454.60031695 -337.83027546 447.76781108 -331.30078125 440.75 C-326.37767633 436.03756849 -321.77368674 434.9631958 -315.15008545 434.96958923 C-314.05074677 434.96821457 -312.95140808 434.9668399 -311.8187561 434.96542358 C-310.01693375 434.9708165 -310.01693375 434.9708165 -308.17871094 434.97631836 C-306.27588852 434.97609932 -306.27588852 434.97609932 -304.33462524 434.97587585 C-300.85975214 434.97558901 -297.38491357 434.98146758 -293.91004848 434.98844981 C-290.27721265 434.99470205 -286.64437603 434.99528863 -283.01153564 434.99647522 C-276.13388037 434.99958301 -269.256241 435.00778898 -262.37859273 435.01782471 C-254.54793774 435.02900297 -246.71728198 435.03450062 -238.886621 435.03952014 C-222.77987344 435.04997204 -206.67314188 435.06756081 -190.56640625 435.08984375 C-191.04416504 434.42960205 -191.52192383 433.76936035 -192.01416016 433.08911133 C-192.64241699 432.20892334 -193.27067383 431.32873535 -193.91796875 430.421875 C-194.54010254 429.5553833 -195.16223633 428.6888916 -195.80322266 427.79614258 C-199.36429232 422.33028031 -201.41240792 416.48208938 -202.56640625 410.08984375 C-203.2625 410.98445313 -203.95859375 411.8790625 -204.67578125 412.80078125 C-210.84513186 420.18925107 -220.49528581 425.9746725 -229.56640625 429.08984375 C-230.58605469 429.44433594 -231.60570312 429.79882812 -232.65625 430.1640625 C-247.65552357 434.33386055 -263.5151522 431.05156586 -276.81640625 423.83984375 C-290.35751086 415.52451093 -299.49667535 402.03973037 -303.92480469 386.91259766 C-305.03108946 382.04544981 -305.0973738 377.25160494 -305.06640625 372.27734375 C-305.06141113 371.22216553 -305.05641602 370.1669873 -305.05126953 369.07983398 C-304.86636579 360.80188471 -303.69812999 354.38304476 -299.56640625 347.08984375 C-299.10878906 346.27902344 -298.65117187 345.46820312 -298.1796875 344.6328125 C-296.75371179 342.33953101 -295.22142186 340.22279943 -293.56640625 338.08984375 C-293.01597656 337.3525 -292.46554687 336.61515625 -291.8984375 335.85546875 C-282.88785618 324.71231915 -268.63872413 316.52206207 -254.36035156 314.828125 C-237.08801854 313.50005155 -221.06108265 318.68541185 -207.69140625 329.90234375 C-198.36606618 338.78362001 -190.18211033 351.96470791 -189.453125 365.13671875 C-189.44321634 366.78816244 -189.49765451 368.43980204 -189.56640625 370.08984375 C-189.00695312 369.60515625 -188.4475 369.12046875 -187.87109375 368.62109375 C-176.68757029 359.2715243 -163.25032683 351.15013972 -148.87817383 348.02685547 C-148.07003738 347.8503244 -147.26190094 347.67379333 -146.42927551 347.49191284 C-145.81452866 347.35923004 -145.1997818 347.22654724 -144.56640625 347.08984375 C-143.80083005 338.69181051 -143.03575906 330.29373145 -142.27130985 321.89559555 C-141.91622286 317.99482804 -141.56097038 314.09407577 -141.20532227 310.19335938 C-140.86126843 306.41973742 -140.51767206 302.64607404 -140.17437553 298.87238312 C-140.04418223 297.44208584 -139.91383189 296.01180284 -139.78331184 294.58153534 C-136.90968861 276.73406587 -136.90968861 276.73406587 -137.56640625 259.08984375 C-139.19103302 257.70559543 -140.8636425 256.37675912 -142.56640625 255.08984375 C-144.48046875 252.609375 -144.48046875 252.609375 -146.19140625 249.90234375 C-146.76117188 249.02191406 -147.3309375 248.14148438 -147.91796875 247.234375 C-152.0016963 239.444326 -153.02592013 232.53335066 -152.8671875 223.79296875 C-152.85673904 222.71275452 -152.84629059 221.63254028 -152.83552551 220.51959229 C-152.65721265 208.79493078 -151.90557641 197.10930601 -151.0222168 185.41943359 C-150.75102056 181.80134517 -150.50077329 178.18218891 -150.25195312 174.5625 C-150.08066709 172.21214889 -149.9081849 169.86188457 -149.734375 167.51171875 C-149.62635811 165.92541656 -149.62635811 165.92541656 -149.51615906 164.30706787 C-147.86069441 143.17298806 -141.26994949 122.91958093 -125.56640625 108.08984375 C-119.71084689 103.26172205 -113.59345274 99.0059258 -106.56640625 96.08984375 C-105.92960938 95.81527344 -105.2928125 95.54070312 -104.63671875 95.2578125 C-97.25609552 92.43089455 -89.36960458 91.90367425 -81.56640625 91.08984375 C-82.05109375 90.55359375 -82.53578125 90.01734375 -83.03515625 89.46484375 C-87.45640951 84.2953784 -90.90272893 79.01956391 -93.94140625 72.96484375 C-94.27462891 72.30871094 -94.60785156 71.65257812 -94.95117188 70.9765625 C-101.72895093 57.03131689 -101.78605358 39.98280929 -96.76074219 25.43139648 C-91.58874216 11.74965223 -82.86357301 1.83324729 -70.56640625 -5.91015625 C-69.75429688 -6.42578125 -68.9421875 -6.94140625 -68.10546875 -7.47265625 C-65.49519135 -8.95047484 -62.94909103 -10.01908968 -60.12890625 -11.03515625 C-59.22269531 -11.36773437 -58.31648438 -11.7003125 -57.3828125 -12.04296875 C-36.83742169 -18.36901141 -16.74367251 -12.46218548 0 0 Z " fill="#91461E" transform="translate(573.56640625,314.91015625)"/>
<path d="M0 0 C5.5 3 5.5 3 7 6 C7.09725888 7.9766756 7.12843887 9.95670497 7.13028526 11.93577099 C7.13390961 13.20890878 7.13753396 14.48204657 7.14126813 15.79376429 C7.14027137 17.21994672 7.13918923 18.64612909 7.13803101 20.0723114 C7.14044751 21.57714961 7.14330928 23.08198716 7.14658034 24.58682376 C7.15435733 28.7377268 7.15595403 32.88861334 7.15663147 37.03952277 C7.1584671 41.51085073 7.16607196 45.98216894 7.17311096 50.45349121 C7.18465259 58.20895453 7.19288886 65.96441566 7.19923019 73.71988487 C7.20954895 85.98578197 7.23011254 98.2516519 7.25234985 110.51753235 C7.25983036 114.71347704 7.26724405 118.90942186 7.27463722 123.10536671 C7.27741307 124.67852914 7.27741307 124.67852914 7.280245 126.28347262 C7.30118614 138.23105266 7.32000551 150.17863573 7.33789062 162.1262207 C7.3403479 163.76495565 7.3403479 163.76495565 7.34285481 165.43679634 C7.36910359 183.11571441 7.38776555 200.79463455 7.40448253 218.47356381 C7.42192549 236.62737325 7.45079783 254.78114188 7.4893719 272.9349187 C7.51273221 284.12862206 7.52676291 295.32225885 7.52869953 306.51598678 C7.53081482 314.19762946 7.54379344 321.8792061 7.56517886 329.56081911 C7.57716373 333.98793739 7.58438889 338.41492459 7.57846642 342.84205818 C7.57312939 346.90454511 7.5817862 350.96676585 7.60102279 355.02920852 C7.60555749 356.48969514 7.60518474 357.9502082 7.59907441 359.41068908 C7.49351641 387.1422743 17.10481754 412.66150294 36.4375 432.8125 C43.132982 439.20887112 50.50951959 443.92749493 58.6875 448.1875 C59.58480835 448.66908569 59.58480835 448.66908569 60.50024414 449.16040039 C76.1765313 457.01375973 92.16226499 456.57907645 109.30013698 456.50766886 C113.04462064 456.49653897 116.78904395 456.50880257 120.5335229 456.51797634 C127.08506345 456.53084027 133.63646851 456.52894981 140.18800926 456.51719666 C149.9304048 456.49976737 159.67269439 456.50533064 169.41509551 456.51536357 C186.8168811 456.53253392 204.21860358 456.52702863 221.62038784 456.51200638 C236.84724516 456.49894654 252.07408061 456.4937602 267.30094337 456.49632454 C268.31159028 456.49648495 269.32223718 456.49664537 270.36350975 456.49681065 C274.46618363 456.49747425 278.5688575 456.49817666 282.67153136 456.49893599 C321.14203579 456.50595701 359.61250172 456.49047827 398.08299635 456.46431253 C432.2559452 456.44119292 466.42885173 456.43581156 500.60180664 456.44604492 C509.35450838 456.44864697 518.10721012 456.45123199 526.85991192 456.45364285 C528.47629547 456.45408902 528.47629547 456.45408902 530.12533324 456.4545442 C558.68952479 456.46215956 587.25371286 456.45574662 615.81790286 456.44494683 C618.89147922 456.44379903 621.96505559 456.44265585 625.03863195 456.44152 C627.07751496 456.44076476 629.11639796 456.43999911 631.15528095 456.43922299 C646.37402382 456.433566 661.59275573 456.43489368 676.81149864 456.43945122 C694.11461577 456.44455935 711.41769191 456.43870439 728.72079881 456.41855692 C738.4031391 456.40757282 748.08539883 456.40477537 757.76774157 456.41384545 C764.23651286 456.41906738 770.70521525 456.41336064 777.17397208 456.39879211 C780.85857145 456.39079332 784.54300806 456.38745697 788.2276065 456.39736467 C792.20150461 456.40792853 796.17513938 456.39520793 800.14902782 456.38031673 C801.85447479 456.39042321 801.85447479 456.39042321 803.59437522 456.40073386 C825.57237955 456.24134453 845.54155243 446.20749874 861 431 C862.16015625 429.85917969 862.16015625 429.85917969 863.34375 428.6953125 C872.61521737 419.01107433 878.2271358 407.41314683 883 395 C883.31773245 394.27215237 883.63546489 393.54430473 883.9628256 392.79440111 C888.04826838 381.78722063 888.43644213 369.90209184 888.35835266 358.30418396 C888.35949865 356.79393506 888.36198199 355.28368669 888.36566609 353.77344185 C888.37199034 349.67284357 888.35999053 345.57248227 888.34478557 341.47191513 C888.3317139 337.03098487 888.33627081 332.590068 888.33883667 328.14912415 C888.34116228 320.46970921 888.33329304 312.79036105 888.31899452 305.11096001 C888.2988487 294.00046208 888.30102399 282.89004826 888.30966558 271.77953935 C888.32365281 253.73966108 888.32876044 235.69979514 888.32397461 217.65991211 C888.32369486 216.58221253 888.3234151 215.50451295 888.32312687 214.39415581 C888.31873138 199.07635167 888.30539778 183.75856802 888.28851613 168.4407732 C888.28673214 166.82013075 888.28673214 166.82013075 888.28491211 165.16674805 C888.28371852 164.08764305 888.28252492 163.00853806 888.28129516 161.89673292 C888.26199953 143.90975286 888.26574849 125.92286554 888.28844708 107.93588978 C888.30150965 96.85013874 888.29510211 85.76473469 888.26365712 74.67901892 C888.24364554 67.09144517 888.24516017 59.50407131 888.26370112 51.91649448 C888.27368969 47.53870666 888.27380631 43.16149049 888.24776649 38.78375626 C888.22411168 34.77628558 888.22805042 30.76982333 888.25390067 26.762375 C888.25835805 25.31320363 888.25266779 23.86395792 888.23578242 22.41487806 C888.09376462 9.39454919 888.09376462 9.39454919 893.27403802 4.09286457 C896.04479533 2.3384444 898.595112 2.17815923 901.8125 2.43359375 C905.56462407 3.40512587 907.3686677 5.17131778 910 8 C911.08902057 11.26706172 911.12756959 13.64810318 911.13142776 17.08726025 C911.13526891 18.36873918 911.13911005 19.65021811 911.1430676 20.97052974 C911.14228729 22.40094139 911.1414085 23.83135299 911.14044189 25.26176453 C911.14302477 26.77500271 911.14603772 28.28824022 911.1494453 29.80147678 C911.15752848 33.97099306 911.15930561 38.14049213 911.16004276 42.31001532 C911.16189118 46.80315783 911.16943774 51.29629137 911.17617798 55.78942871 C911.18977413 65.62265517 911.19578883 75.45587756 911.20018864 85.28911185 C911.20295053 91.43166741 911.20718795 97.5742214 911.21169281 103.71677589 C911.22389024 120.7286084 911.23418661 137.74043964 911.2375679 154.75227642 C911.23778747 155.84169461 911.23800703 156.93111281 911.23823325 158.05354368 C911.23845153 159.14556783 911.23866981 160.23759199 911.2388947 161.36270779 C911.23933817 163.57554543 911.23978473 165.78838307 911.24023438 168.0012207 C911.2404558 169.09886408 911.24067723 170.19650746 911.24090537 171.32741276 C911.24484835 189.08967997 911.26228493 206.85190602 911.2855939 224.61415734 C911.30934007 242.85725141 911.32177134 261.10032487 911.32293582 279.34343463 C911.32385108 289.58321897 911.32956513 299.82294979 911.34775543 310.06271935 C911.36320095 318.78822272 911.36825095 327.51365605 911.36001733 336.23917051 C911.3561257 340.68668653 911.356967 345.13406169 911.37107468 349.58156013 C911.38390433 353.66377562 911.38253754 357.74574572 911.37048396 361.8279613 C911.36854244 363.2945016 911.37153274 364.76105982 911.38032833 366.22757503 C911.45897192 380.24244559 909.54984763 393.55301579 904.3125 406.625 C903.96437256 407.51106934 903.61624512 408.39713867 903.25756836 409.31005859 C898.28046611 421.64145338 891.76620518 431.94936916 883 442 C882.46117187 442.68320313 881.92234375 443.36640625 881.3671875 444.0703125 C864.57474798 464.91318969 837.02956536 476.90368703 811 480 C806.70069312 480.2518699 802.41827821 480.27129587 798.11244678 480.25447559 C796.87708025 480.25768207 795.64171372 480.26088855 794.36891183 480.26419219 C790.96462987 480.27102415 787.56056884 480.2690147 784.15629961 480.26313647 C780.44321132 480.25894244 776.73014249 480.26638149 773.01705903 480.27228898 C766.51737307 480.28103072 760.01771863 480.28237031 753.51802826 480.27878571 C743.85235518 480.27346917 734.1867125 480.27958359 724.52104272 480.28786864 C706.25175821 480.30309823 687.98248757 480.30481475 669.71319804 480.30234561 C655.60324775 480.3005119 641.493302 480.30227419 627.38335228 480.30657005 C625.35511604 480.30717246 623.3268798 480.30777366 621.29864356 480.30837366 C618.24215243 480.30928093 615.1856613 480.31018959 612.12917018 480.31110601 C583.7157713 480.3195341 555.30237414 480.32387225 526.88897419 480.31969929 C525.81812978 480.31954291 524.74728537 480.31938654 523.64399113 480.31922542 C518.21672042 480.31841966 512.78944972 480.31757389 507.36217902 480.31671212 C506.28433679 480.31654103 505.20649456 480.31636994 504.09599045 480.31619367 C501.91633196 480.31584701 499.73667346 480.31549848 497.55701497 480.31514808 C463.64615399 480.30979161 429.73531902 480.31771978 395.82446289 480.33618164 C357.71057321 480.3569075 319.59669963 480.3676232 281.482804 480.36360615 C277.41711152 480.36321082 273.35141903 480.36284927 269.28572655 480.36250877 C268.28467742 480.36241804 267.28362829 480.36232731 266.25224434 480.36223383 C251.15416697 480.36106888 236.0561059 480.36770843 220.95803261 480.37832069 C203.78203824 480.39038132 186.60607971 480.39192174 169.4300848 480.37953053 C159.82455223 480.37291057 150.21910539 480.37451302 140.6135797 480.38811904 C134.18828504 480.39638401 127.76305438 480.39363948 121.33776488 480.38214377 C117.68287636 480.37590757 114.0281547 480.37423371 110.37327603 480.38600711 C77.2141796 480.48557773 49.47612297 475.5277109 24 453 C23.47567383 452.53754883 22.95134766 452.07509766 22.41113281 451.59863281 C2.07261731 433.2977895 -13.64564003 404.29257357 -15.18675303 376.65029097 C-15.26313025 372.67126069 -15.27664321 368.69476254 -15.26742554 364.715271 C-15.2711671 363.17648861 -15.27577064 361.63770811 -15.28115618 360.0989306 C-15.29333782 355.89170029 -15.29313148 351.68454979 -15.29076743 347.47730589 C-15.29035807 342.93198146 -15.3014094 338.38668222 -15.31088257 333.84136963 C-15.32746411 324.94659766 -15.33299072 316.05185221 -15.33410732 307.15706608 C-15.33505861 299.92909094 -15.3391729 292.70112453 -15.34550858 285.47315216 C-15.3631088 264.97706263 -15.37234869 244.48099401 -15.37084763 223.98489687 C-15.37076772 222.88096489 -15.3706878 221.7770329 -15.37060547 220.63964844 C-15.37052371 219.53436862 -15.37044195 218.4290888 -15.37035771 217.29031566 C-15.36954388 199.35682439 -15.38870894 181.42341692 -15.4168822 163.48994991 C-15.44558738 145.07265626 -15.45942398 126.65540354 -15.45769465 108.23808694 C-15.45703021 97.89922559 -15.46254711 87.56045223 -15.48405075 77.22161102 C-15.50223081 68.42460622 -15.50663563 59.62772938 -15.4930319 50.83071396 C-15.48648779 46.34182088 -15.48643721 41.85317352 -15.5037384 37.36430359 C-15.51940928 33.2562988 -15.5166673 29.14873581 -15.49917014 25.04074219 C-15.49608713 23.55372824 -15.49978142 22.06668181 -15.51089029 20.57970616 C-15.52498252 18.55985378 -15.51205093 16.53986683 -15.49777794 14.52001572 C-15.49821267 13.39766706 -15.49864741 12.27531841 -15.49909532 11.11895919 C-14.87652682 7.22838827 -13.43324633 5.06639706 -11 2 C-7.29825261 -0.4678316 -4.29506525 -0.68072732 0 0 Z " fill="#8F451D" transform="translate(179,641)"/>
<path d="M0 0 C1.85875936 -0.00307895 1.85875936 -0.00307895 3.7550694 -0.0062201 C7.19792526 -0.01090359 10.64072893 -0.01111656 14.0835841 -0.00944251 C17.82808799 -0.00871057 21.5725849 -0.01373636 25.3170858 -0.01801753 C32.74539772 -0.02559389 40.17370245 -0.02779041 47.60201783 -0.02834659 C56.49922825 -0.02926059 65.39643204 -0.03592924 74.29363961 -0.04269341 C95.79839062 -0.05875234 117.30314093 -0.06465664 138.80789687 -0.06944216 C148.98201499 -0.07177828 159.15613256 -0.07538096 169.33025024 -0.07913754 C204.16023727 -0.09197315 238.99022398 -0.10269217 273.82021332 -0.10614014 C276.00659776 -0.10636177 278.1929822 -0.10658355 280.37936664 -0.10680549 C282.57102106 -0.10702613 284.76267549 -0.10724661 286.95432991 -0.10746694 C291.35113776 -0.10790949 295.74794561 -0.1083566 300.14475346 -0.10880661 C301.23490596 -0.108916 302.32505846 -0.10902539 303.44824589 -0.1091381 C338.79296203 -0.11276837 374.13765766 -0.12868726 409.48236595 -0.15199697 C446.85444381 -0.17659865 484.22650996 -0.19031314 521.59859616 -0.19150805 C525.70198 -0.19167951 529.80536383 -0.19189494 533.90874767 -0.19214249 C534.91910955 -0.19219826 535.92947144 -0.19225402 536.97045034 -0.19231148 C553.22318775 -0.19346166 569.47590409 -0.20448083 585.72863439 -0.21902954 C602.06853053 -0.23340322 618.4083997 -0.2366266 634.74830043 -0.22858956 C644.45198335 -0.22413738 654.15557913 -0.22797748 663.85925058 -0.24382807 C670.34762551 -0.25359504 676.83593955 -0.25238344 683.32431396 -0.24239184 C687.01698019 -0.23701218 690.70947937 -0.23624946 694.40213161 -0.24890056 C730.06221765 -0.36327835 758.07520999 7.60701611 783.93894291 32.88142776 C798.42415705 47.56021876 808.84933256 66.11721603 813.75144291 86.13142776 C813.99792214 87.1068679 814.24440137 88.08230804 814.49834967 89.08730698 C816.55855561 97.84317512 817.18226762 106.04938933 817.14585209 115.02400589 C817.15075406 116.47137261 817.15694984 117.91873542 817.16430998 119.36609173 C817.18056485 123.30208653 817.17842155 127.23787916 817.17293501 131.1738956 C817.17024708 135.43422389 817.1848287 139.69450041 817.19703007 143.95480728 C817.21800575 152.28221396 817.2226297 160.60955091 817.22084218 168.9369809 C817.21953165 175.70386199 817.22335345 182.47072141 817.23076725 189.23759842 C817.23286652 191.19078096 817.23496412 193.14396349 817.23706007 195.09714603 C817.23862536 196.55552543 817.23862536 196.55552543 817.24022228 198.04336703 C817.25908969 216.39589562 817.25808395 234.74838415 817.25125295 253.10091841 C817.24566848 269.89284001 817.26654759 286.68460948 817.29961342 303.4764955 C817.33332866 320.73227018 817.34852224 337.98797189 817.34389639 355.24378014 C817.34165101 364.9264378 817.34690636 374.60895451 817.37178898 384.29158401 C817.39277298 392.52674632 817.39642201 400.76169021 817.37748939 408.9968614 C817.36831723 413.1982512 817.36723403 417.39923336 817.38784504 421.60059166 C817.40650082 425.44578309 817.40211336 429.29023144 817.37929922 433.1353941 C817.37510002 434.52672967 817.37935787 435.91812164 817.39289516 437.3093977 C817.49891377 449.0005822 817.49891377 449.0005822 814.33760166 452.93622208 C810.46025139 456.22742814 807.98096345 456.52689492 803.01316166 456.48689651 C799.39443092 455.91814954 797.87114068 453.97977164 795.75144291 451.13142776 C794.70162143 447.98196333 794.62342565 445.77685571 794.61836433 442.47028065 C794.61412329 441.28387 794.60988224 440.09745935 794.60551268 438.87509686 C794.60589881 437.56520745 794.60628494 436.25531804 794.60668278 434.90573502 C794.60354971 433.50514021 794.59997507 432.10454634 794.59599537 430.70395368 C794.58628265 426.84596099 794.58274446 422.98798311 794.58015239 419.12997997 C794.57626262 414.97229291 794.56662481 410.81461897 794.55759525 406.65694046 C794.54264438 399.44770004 794.53110498 392.23846066 794.52164745 385.02921104 C794.50777843 374.592707 794.48659019 364.1562272 794.46321892 353.71974056 C794.42528012 336.77095649 794.39032318 319.82216801 794.35862064 302.87337112 C794.35672015 301.85841572 794.35481966 300.84346031 794.35286158 299.79774868 C794.32605559 285.40856186 794.30217621 271.01937166 794.27947658 256.63017785 C794.27787927 255.61795116 794.27628197 254.60572447 794.27463627 253.56282425 C794.2730428 252.55183177 794.27144934 251.54083928 794.26980758 250.49921066 C794.24301454 233.6256948 794.20860223 216.75220461 794.16798252 199.87871641 C794.14323933 189.4734165 794.12489484 179.0681442 794.11482691 168.66281956 C794.10742007 161.5255278 794.09286985 154.38827308 794.07276268 147.2510059 C794.06140289 143.13616781 794.05323514 139.02138937 794.05377102 134.90653419 C794.05420133 131.13295752 794.04539658 127.35951474 794.02952122 123.58597248 C794.02345341 121.58780724 794.02706253 119.58961967 794.03111655 117.59144932 C793.88042692 90.97122617 784.32210302 67.36941286 766.06394291 47.94392776 C744.94531176 27.57719835 719.74867394 23.50722688 691.59953308 23.61135619 C687.87666185 23.6206694 684.15386207 23.60664546 680.43100524 23.59571701 C673.91722021 23.57978495 667.40356446 23.57861316 660.88976765 23.58731461 C651.20312299 23.60021954 641.51659464 23.59019987 631.82995692 23.57581506 C614.52572704 23.55090958 597.22155195 23.54898504 579.91730938 23.55708917 C564.77140428 23.5641676 549.62552042 23.56421392 534.47961521 23.55722618 C532.44633754 23.55631484 530.41305986 23.55540408 528.37978218 23.55449389 C525.31563722 23.55311073 522.25149226 23.55171964 519.18734731 23.55030776 C490.70678409 23.53733057 462.22622797 23.53220812 433.74566364 23.54384136 C432.13593432 23.54449832 432.13593432 23.54449832 430.49368522 23.54516855 C421.77947991 23.5487752 413.06527469 23.55261006 404.35106948 23.55645948 C370.36600791 23.57130435 336.38102672 23.56253045 302.39597416 23.53450394 C264.19232486 23.50305854 225.98872313 23.4881117 187.78506064 23.49830395 C183.70955166 23.49934069 179.63404267 23.50032792 175.55853367 23.50128746 C174.55507866 23.50153635 173.55162365 23.50178523 172.51776092 23.50204166 C157.38664596 23.50547814 142.25557309 23.49618921 127.1244669 23.48051643 C109.91083011 23.46272732 92.69729556 23.46264544 75.48366311 23.48586809 C65.85828237 23.49834472 56.23313672 23.49716664 46.6077699 23.47598723 C40.16803081 23.46321446 33.72847182 23.46881213 27.28875217 23.48897203 C23.62639187 23.49993513 19.96449192 23.50333442 16.30215421 23.48429673 C-14.18404265 23.33705139 -37.17148642 28.787438 -59.93605709 50.31892776 C-82.54202055 73.70552881 -85.87088417 101.93094646 -85.73872638 133.01483452 C-85.7254267 137.19943362 -85.73554709 141.38398728 -85.74283504 145.56859207 C-85.75246803 152.801654 -85.74810929 160.03459499 -85.73441219 167.2676487 C-85.71496861 177.73166748 -85.72152502 188.19555162 -85.73498601 198.65957407 C-85.75651558 215.64962899 -85.76329202 232.63965195 -85.75783443 249.62971878 C-85.7575138 250.64431226 -85.75719317 251.65890574 -85.75686282 252.70424447 C-85.75448869 259.90913907 -85.75158289 267.11403342 -85.74855709 274.31892776 C-85.74509506 282.568358 -85.7418782 290.81778823 -85.73927975 299.06721878 C-85.73895424 300.08389955 -85.73862872 301.10058031 -85.73829335 302.14806958 C-85.73335364 319.09206209 -85.74401367 336.03601024 -85.7658515 352.97998887 C-85.77855005 363.42161497 -85.77709829 373.86305833 -85.75740063 384.30467454 C-85.74480875 391.44927479 -85.74624077 398.59378216 -85.75877416 405.73838224 C-85.76549508 409.86075988 -85.76556506 413.98286651 -85.74819279 418.10521889 C-85.73239465 421.87802814 -85.73492172 425.65036338 -85.75204283 429.42316274 C-85.75634699 431.43506358 -85.74087076 433.44697666 -85.72470713 435.45881718 C-85.80722384 446.45027557 -85.80722384 446.45027557 -90.24855709 451.13142776 C-93.34266041 453.19416331 -94.47185075 453.52301318 -98.06105709 453.69392776 C-99.30822506 453.78867386 -99.30822506 453.78867386 -100.58058834 453.88533401 C-104.13029229 452.88226979 -105.64365936 451.32689096 -107.95711029 448.50329959 C-110.65678798 443.54507023 -110.05567148 437.92092021 -109.99027157 432.41366959 C-109.99503974 431.0083386 -110.00243444 429.6030145 -110.0122208 428.1977095 C-110.03142664 424.34473955 -110.01328597 420.4927181 -109.98892796 416.63981068 C-109.96916621 412.48073104 -109.98404949 408.3217557 -109.99457455 404.16266251 C-110.00969417 396.01597409 -109.99278113 387.86965128 -109.96502364 379.72300828 C-109.9338343 370.2264304 -109.93408335 360.72993111 -109.93554138 351.23331165 C-109.93704332 334.27682871 -109.90956395 317.32051545 -109.86598873 300.36409378 C-109.82378668 283.93339824 -109.8024739 267.5028521 -109.80446529 251.07210159 C-109.80458516 250.06143462 -109.80470503 249.05076765 -109.80482853 248.0094744 C-109.8049496 247.00051138 -109.80507066 245.99154835 -109.80519539 244.95201069 C-109.80727001 226.22517812 -109.78955779 207.49840873 -109.76273574 188.77159669 C-109.75371582 182.16311487 -109.75050045 175.55464474 -109.74913883 168.94615746 C-109.74708315 160.87765076 -109.73356252 152.80925045 -109.70614041 144.74078882 C-109.69237334 140.62945518 -109.68311732 136.51825672 -109.68692303 132.4068985 C-109.69024758 128.63197493 -109.67941753 124.85734848 -109.65797745 121.08248674 C-109.65009713 119.09343893 -109.65655045 117.10434959 -109.6637736 115.11529928 C-109.40432925 82.42476192 -95.17482317 52.58437929 -72.58840084 29.40095901 C-52.67194256 10.48179025 -27.34779904 -0.04202742 0 0 Z " fill="#8F451D" transform="translate(273.2485570907593,113.86857223510742)"/>
<path d="M0 0 C4.00514556 0.01549214 8.00974857 -0.00667837 12.0148381 -0.02841622 C21.48211879 -0.07917872 30.94794655 -0.06896591 40.41519117 -0.0185473 C50.11128313 0.03213015 59.80331436 -0.01520385 69.49896252 -0.11221594 C77.88637901 -0.19289048 86.27254679 -0.21397531 94.66031158 -0.18867069 C99.64222137 -0.17404095 104.6216967 -0.17963243 109.60329008 -0.24203324 C132.63300033 -0.5013234 149.32728575 0.20348117 168.11861658 14.77509093 C172.65900228 18.12531155 177.57994002 20.82338274 182.49185133 23.58570075 C183.58876295 24.22443122 184.68567457 24.86316169 185.81582594 25.52124763 C186.68731276 26.02720466 187.55879957 26.53316169 188.45669508 27.05445075 C195.33098063 31.05054503 202.19432125 35.06520441 209.05435133 39.08570075 C209.66419874 39.44307319 210.27404615 39.80044562 210.90237379 40.16864753 C220.80907949 45.97560978 230.69170653 51.82227387 240.56607008 57.68408942 C248.87966309 62.61603621 257.2124925 67.51426086 265.55435133 72.39820075 C274.35442257 77.55067701 283.14991737 82.71059462 291.92935133 87.89820075 C292.78311354 88.40246589 293.63687574 88.90673102 294.51650953 89.42627692 C296.12066858 90.37499371 297.72366836 91.32567417 299.32534742 92.27857184 C301.05782482 93.30531587 302.7957936 94.3228157 304.53726149 95.33423591 C305.44653395 95.86710212 306.35580641 96.39996833 307.29263258 96.948982 C308.12061354 97.43020514 308.94859449 97.91142829 309.80166578 98.40723395 C311.74185133 99.71070075 311.74185133 99.71070075 312.74185133 101.71070075 C144.44185133 101.71070075 -23.85814867 101.71070075 -197.25814867 101.71070075 C-191.63683348 96.08938556 -191.63683348 96.08938556 -188.13314867 94.05445075 C-187.35528002 93.5962696 -186.57741137 93.13808845 -185.77597094 92.66602302 C-184.94508959 92.18576667 -184.11420824 91.70551032 -183.25814867 91.21070075 C-181.45396315 90.14825618 -179.65060344 89.08440827 -177.84799242 88.0192945 C-176.92228441 87.47385993 -175.9965764 86.92842536 -175.04281664 86.36646247 C-170.60041916 83.72501589 -166.20960952 81.00223146 -161.82064867 78.27320075 C-160.94819506 77.7315528 -160.07574144 77.18990485 -159.17684984 76.63184333 C-157.41004626 75.53456189 -155.64352534 74.43682518 -153.8772893 73.33863044 C-149.61132326 70.68711464 -145.34119244 68.04233539 -141.07064867 65.39820075 C-140.21736986 64.86976569 -139.36409105 64.34133063 -138.48495531 63.79688239 C-130.30358018 58.73308471 -122.10772237 53.69290377 -113.91171312 48.65283942 C-106.34418619 43.99800376 -98.78621128 39.32806064 -91.23519945 34.64649177 C-86.44408437 31.67771642 -81.64719414 28.71863389 -76.84408617 25.7692945 C-75.72969164 25.08480231 -74.61529711 24.40031013 -73.46713305 23.69507575 C-71.34668491 22.39324233 -69.22565594 21.09235414 -67.1038518 19.792732 C-66.10031664 19.17656013 -65.09678148 18.56038825 -64.06283617 17.9255445 C-63.02890734 17.31857734 -61.9949785 16.71161017 -60.92971849 16.08625007 C-58.34148484 14.49899573 -56.13851101 12.76624483 -53.88674974 10.73383307 C-38.43982352 -2.2183484 -19.01600724 -0.10707 0 0 Z " fill="#FDFCFC" transform="translate(561.2581486701965,812.289299249649)"/>
<path d="M0 0 C2.20658517 5.22818077 4.41194068 10.45687796 6.61621094 15.68603516 C7.36457984 17.4609135 8.11327113 19.23565596 8.86230469 21.01025391 C10.95750673 25.97448595 13.04370572 30.94233072 15.12133789 35.91394043 C15.8823262 37.72062691 16.66122713 39.5197487 17.44335938 41.31738281 C17.81783203 42.19491211 18.19230469 43.07244141 18.578125 43.9765625 C19.0407373 45.03351318 19.0407373 45.03351318 19.51269531 46.11181641 C20.12547164 48.48617118 19.92400075 49.73598057 19 52 C16.75891083 53.86129269 14.58739996 55.49933912 12.1875 57.125 C11.55779297 57.56714844 10.92808594 58.00929688 10.27929688 58.46484375 C7.28150898 60.54725255 4.34241256 62.50138681 1 64 C0.36191406 63.21753906 -0.27617188 62.43507813 -0.93359375 61.62890625 C-1.75988281 60.61699219 -2.58617187 59.60507812 -3.4375 58.5625 C-4.26121094 57.55316406 -5.08492187 56.54382813 -5.93359375 55.50390625 C-7.41201004 53.70216039 -7.41201004 53.70216039 -9 52 C-11.95804573 51.66659529 -11.95804573 51.66659529 -15 52 C-17.25047632 54.72873755 -17.25047632 54.72873755 -16.87670898 57.36816406 C-15.80351913 60.58982563 -14.12741797 62.4908456 -11.97265625 65.109375 C-6.30291944 73.38802621 -7.0737797 81.5415369 -7.4375 91.25 C-7.46915774 92.93873739 -7.49717133 94.62754715 -7.52148438 96.31640625 C-7.68042788 105.30410766 -8.16045915 114.26196001 -8.76147461 123.22949219 C-9.75993715 139.01276295 -10.07374438 154.87554718 -10.25 170.6875 C-10.2713501 171.69039062 -10.2927002 172.69328125 -10.31469727 173.7265625 C-10.31912842 174.64566406 -10.32355957 175.56476563 -10.328125 176.51171875 C-10.3374707 177.31053467 -10.34681641 178.10935059 -10.35644531 178.93237305 C-9.8961207 181.6025711 -9.11105377 182.33168649 -7 184 C-4.800414 184.49088681 -4.800414 184.49088681 -2.28491211 184.47875977 C-0.78136925 184.52467506 -0.78136925 184.52467506 0.75254822 184.57151794 C1.87705887 184.59045609 3.00156952 184.60939423 4.16015625 184.62890625 C5.37067154 184.66069473 6.58118683 184.69248322 7.8283844 184.72523499 C11.40084023 184.8170977 14.97347313 184.8875182 18.5464859 184.9537735 C21.13658761 185.00257344 23.7265844 185.0553864 26.31658936 185.10906982 C36.40941455 185.31770308 46.50247426 185.51314177 56.59570312 185.70117188 C57.64743902 185.72080175 58.69917492 185.74043163 59.7827816 185.76065636 C65.17812629 185.86070916 70.57350597 185.9575565 75.96899414 186.04956055 C81.27935047 186.14041892 86.58948777 186.23988671 91.89958382 186.34482002 C93.8955722 186.38266324 95.89162271 186.41738147 97.88772392 186.4487133 C113.98651281 186.70314605 128.9020478 188.83826648 144.61328125 192.37890625 C146.10124223 192.71092023 147.58928656 193.04256085 149.07740784 193.37385559 C153.01426959 194.25140281 156.9499468 195.13415329 160.88539886 196.01799774 C164.95365619 196.9306813 169.0230378 197.83832483 173.09228516 198.74658203 C186.8262623 201.81368574 200.55649332 204.89748227 214.28515625 207.98828125 C215.69843956 208.30645561 215.69843956 208.30645561 217.14027405 208.63105774 C221.27816701 209.56312258 225.41559899 210.49713492 229.55200195 211.43579102 C230.27733627 211.59996017 231.00267059 211.76412933 231.74998474 211.93327332 C233.61201585 212.35481856 235.4737499 212.77767544 237.33544922 213.20068359 C238.54475098 213.46445801 239.75405273 213.72823242 241 214 C242.02318077 214.26440384 242.02318077 214.26440384 243.06703186 214.53414917 C250.579949 216.31796797 258.06062343 216.28114811 265.73303795 216.27439499 C268.18488367 216.27341831 270.63630459 216.28650208 273.08808899 216.30337524 C280.05128837 216.34932504 287.01443699 216.3742656 293.9777832 216.38085938 C298.25592296 216.38588432 302.5336084 216.4101699 306.81159401 216.44618607 C308.43298422 216.45594795 310.05443714 216.45833581 311.67584801 216.45301437 C313.94414104 216.44591229 316.21108266 216.4632838 318.47924805 216.48583984 C319.76590866 216.48868988 321.05256927 216.49153992 322.3782196 216.49447632 C327.89978298 217.26516939 331.59159856 219.44334578 335.375 223.625 C338.60176039 228.34103442 338.48343153 232.38874114 338 238 C336.14380308 243.01173168 333.60546374 246.76258805 328.69651347 249.09399402 C325.85924123 250.04729377 323.71443017 250.24860398 320.73078442 250.24609566 C319.68277729 250.25007775 318.63477017 250.25405985 317.55500525 250.25816262 C315.83759768 250.24942409 315.83759768 250.24942409 314.085495 250.24050903 C312.2537389 250.24307231 312.2537389 250.24307231 310.38497764 250.24568737 C306.99851905 250.2484122 303.61229159 250.24216115 300.22586095 250.23213124 C296.57288136 250.22349504 292.91990892 250.22641702 289.266922 250.22793579 C282.93891903 250.22898453 276.6109573 250.22270904 270.28296471 250.21146011 C261.13375356 250.19520664 251.98456235 250.18999726 242.83533833 250.18748413 C227.99136985 250.18310679 213.14742335 250.16979662 198.3034668 250.15087891 C183.88387156 250.13252113 169.4642823 250.11836412 155.04467773 250.10986328 C154.15586667 250.10933783 153.2670556 250.10881239 152.35131087 250.10827102 C147.89241085 250.10566094 143.43351078 250.10313353 138.97461069 250.10064721 C101.98305827 250.07991349 64.99153085 250.04468688 28 250 C28.50875346 248.00898234 29.01750692 246.01796468 29.52626038 244.02694702 C31.3097956 236.39589563 30.29868625 229.968301 26.50390625 223.16796875 C23.95522296 219.49389284 21.02492243 217.01246121 17 215 C17 214.34 17 213.68 17 213 C10.89803093 211.9369161 4.92575467 211.82888079 -1.25952148 211.79467773 C-2.37245071 211.78477814 -3.48537994 211.77487854 -4.6320343 211.76467896 C-8.29503279 211.73319905 -11.95804423 211.70836006 -15.62109375 211.68359375 C-18.16700062 211.66301256 -20.71290416 211.64201578 -23.25880432 211.62062073 C-29.26509786 211.57114627 -35.27140873 211.52585 -41.27774912 211.48259836 C-48.11940784 211.43309691 -54.96102026 211.37822694 -61.80263412 211.32291877 C-75.86837948 211.20932974 -89.93416935 211.10244109 -104 211 C-103.54501202 208.01509184 -103.08562067 205.03096823 -102.6237793 202.04711914 C-102.49728752 201.21425636 -102.37079575 200.38139359 -102.24047089 199.52329254 C-101.03920792 191.80155781 -99.30075097 184.26549686 -97.3838501 176.69433594 C-96.58596559 173.54268786 -95.8062633 170.38661184 -95.02526855 167.23074341 C-94.62061113 165.59598842 -94.21509433 163.96144592 -93.80871582 162.32711792 C-91.67522697 153.73501735 -89.64339747 145.1197388 -87.625 136.5 C-87.30056835 135.11774983 -86.97610635 133.73550678 -86.65161133 132.35327148 C-86.34320073 131.03761195 -86.03484955 129.72193849 -85.7265625 128.40625 C-85.4368457 127.17003906 -85.14712891 125.93382812 -84.84863281 124.66015625 C-84.27128116 122.17003658 -83.70326903 119.67773704 -83.14355469 117.18359375 C-82.87704102 115.99894531 -82.61052734 114.81429687 -82.3359375 113.59375 C-82.10181152 112.53865234 -81.86768555 111.48355469 -81.62646484 110.39648438 C-81 108 -81 108 -80 107 C-78.48433553 106.70159433 -76.96205217 106.43654898 -75.4375 106.1875 C-66.1589988 104.35030389 -60.55397626 100.71385592 -55 93 C-50.97971459 86.5156687 -51.13631116 79.45762096 -52 72 C-54.22329295 64.40374909 -58.77512513 59.66479457 -65 55 C-63.31385918 43.57171225 -56.91652814 34.23901183 -48 27 C-44.51954758 24.57858432 -40.91522161 22.41651059 -37.24414062 20.29736328 C-34.53501029 18.73118414 -31.83812122 17.14472496 -29.140625 15.55859375 C-23.10585397 12.01793542 -17.06523913 8.48825945 -11 5 C-10.12021484 4.49259277 -9.24042969 3.98518555 -8.33398438 3.46240234 C-7.12452148 2.77525146 -7.12452148 2.77525146 -5.890625 2.07421875 C-5.18454102 1.67162842 -4.47845703 1.26903809 -3.75097656 0.85424805 C-2 0 -2 0 0 0 Z " fill="#FCFBFA" transform="translate(640,500)"/>
<path d="M0 0 C1.59684631 -0.00306656 1.59684631 -0.00306656 3.22595215 -0.00619507 C6.75945043 -0.00921009 10.2924844 0.00933274 13.82592773 0.02832031 C16.31086614 0.03138376 18.79580627 0.03325542 21.28074646 0.03399658 C26.51388013 0.03860812 31.74689719 0.05264172 36.97998047 0.07519531 C43.5768408 0.10357926 50.17360726 0.11426167 56.77053261 0.11902618 C79.75637987 0.13707105 102.74419161 0.19512319 125.72436523 0.74707031 C126.8206383 0.76943882 126.8206383 0.76943882 127.9390583 0.79225922 C129.95228427 0.83532411 131.96518565 0.89284794 133.97802734 0.95117188 C135.61788857 0.99591644 135.61788857 0.99591644 137.2908783 1.04156494 C140.85578788 1.3972269 144.00756077 2.36433837 147.44702148 3.35644531 C153.50300028 4.33619531 159.40696317 4.50479129 165.53344727 4.50170898 C166.52075931 4.50501945 167.50807135 4.50832991 168.52530193 4.51174068 C171.81432391 4.52114669 175.10329946 4.52306383 178.39233398 4.52441406 C180.75046317 4.52836818 183.10859204 4.53251308 185.46672058 4.53683472 C191.84255778 4.54623524 198.21836863 4.54720961 204.59421158 4.54512405 C208.56755915 4.54394663 212.54090406 4.54447622 216.51425171 4.5451355 C255.3877417 4.5461269 294.24666254 4.20436985 333.11397552 3.4862709 C336.76576373 3.41883003 340.41757874 3.35299329 344.06939697 3.28720093 C349.7812111 3.18312338 355.49286056 3.07252625 361.20443153 2.9558754 C363.2984888 2.91339518 365.39257366 2.87225143 367.4866848 2.83251572 C370.32816509 2.77772094 373.16943608 2.71667365 376.01074219 2.65356445 C376.84544603 2.6384592 377.68014988 2.62335394 378.54014778 2.60779095 C382.6261118 2.60259677 382.6261118 2.60259677 386.44702148 1.35644531 C388.29985635 1.25569176 390.15634928 1.21997337 392.01191139 1.2138443 C393.20228119 1.20753636 394.39265098 1.20122842 395.61909258 1.19472933 C396.93851426 1.19286733 398.25793594 1.19100533 399.61734009 1.18908691 C401.02404802 1.18364266 402.43075438 1.17777945 403.83745897 1.1715312 C407.7168282 1.15564735 411.59619109 1.14615412 415.47558284 1.13776636 C418.79968145 1.12977254 422.12376285 1.11807984 425.44785006 1.10635155 C437.35640572 1.06440673 449.26498159 1.03723437 461.17358398 1.01269531 C462.11314908 1.01072041 463.05271417 1.00874551 464.02075094 1.00671077 C482.67068076 0.96755152 501.32061721 0.93383736 519.97057533 0.91162872 C524.07258743 0.90665925 528.17459943 0.90161496 532.27661133 0.89648438 C533.29617209 0.8952137 534.31573286 0.89394303 535.36618941 0.89263386 C551.88273251 0.87127337 568.39907667 0.82227925 584.91551967 0.76224023 C601.86580559 0.70113141 618.81598884 0.66644252 635.76638353 0.65715551 C645.2861731 0.65124177 654.80562576 0.63346143 664.32530594 0.58576965 C672.43300405 0.54518957 680.54031029 0.52828298 688.64810546 0.54242247 C692.78502595 0.54889428 696.92111167 0.54401177 701.05790329 0.50854874 C704.84713696 0.47632614 708.63494725 0.47656409 712.42421727 0.50236577 C714.44038181 0.50773634 716.45654776 0.47863411 718.47248995 0.44821405 C725.73144608 0.53581414 729.89223011 1.34730703 735.09348524 6.57898474 C736.98252549 9.05966789 737.41290863 10.78751877 737.33374023 13.89550781 C737.32149414 14.88808594 737.30924805 15.88066406 737.29663086 16.90332031 C737.21638672 18.42699219 737.21638672 18.42699219 737.13452148 19.98144531 C737.12356445 21.00496094 737.11260742 22.02847656 737.10131836 23.08300781 C736.84486733 32.69053914 736.84486733 32.69053914 733.44702148 36.35644531 C727.7008364 40.27045891 721.88325249 39.77421529 715.19708157 39.73396873 C713.31991427 39.74050922 713.31991427 39.74050922 711.40482441 39.74718183 C707.92289738 39.75888276 704.44121932 39.75186451 700.95929627 39.74184798 C697.17440061 39.73424959 693.38954363 39.74401295 689.60465342 39.75157797 C682.96842097 39.76242554 676.3322617 39.76207669 669.69602585 39.75443649 C659.82790541 39.74310624 649.95984691 39.74888128 640.09172691 39.75806141 C622.46933047 39.77387446 604.84696661 39.77248321 587.22456705 39.76382468 C571.80375107 39.75628484 556.38294704 39.75430472 540.96212959 39.75789261 C539.4291508 39.75823634 539.4291508 39.75823634 537.86520274 39.75858702 C533.71687971 39.759521 529.56855669 39.76047619 525.42023368 39.76146631 C486.48866063 39.77064781 447.55710837 39.76231567 408.62553853 39.74617562 C374.01776325 39.73193724 339.41002108 39.73321306 304.80224609 39.74755859 C265.94141318 39.76361315 227.08059863 39.76999779 188.21976286 39.7607218 C184.07920778 39.75975961 179.9386527 39.7588211 175.79809761 39.75789261 C174.2687742 39.75753676 174.2687742 39.75753676 172.70855538 39.75717372 C157.29465564 39.75375755 141.88076916 39.75775909 126.46687126 39.76533127 C108.94594777 39.7738955 91.42506203 39.7717935 73.90414327 39.75548904 C64.09151176 39.74665956 54.27896196 39.74613476 44.46633252 39.75742756 C37.91933228 39.7641329 31.37239781 39.76000773 24.82540735 39.74691325 C21.09022417 39.73974797 17.35520381 39.73739641 13.62002551 39.7481312 C9.60358671 39.75955712 5.58755064 39.74797918 1.57112026 39.73396873 C0.40196348 39.74099223 -0.7671933 39.74801573 -1.97177908 39.75525206 C-3.03934009 39.74774151 -4.1069011 39.74023095 -5.20681244 39.7324928 C-6.12559971 39.73228953 -7.04438697 39.73208625 -7.99101627 39.73187681 C-12.10166828 39.12949938 -14.76717407 37.04671532 -17.83422852 34.35253906 C-20.44091365 29.80861292 -20.13418088 25.5651449 -20.05297852 20.41894531 C-20.06844727 19.44248047 -20.08391602 18.46601562 -20.09985352 17.45996094 C-20.0682253 11.62850793 -19.65196971 7.84147164 -15.55297852 3.35644531 C-10.7924115 -0.56559463 -5.86728356 -0.05402247 0 0 Z " fill="#FCFAFA" transform="translate(265.552978515625,761.6435546875)"/>
<path d="M0 0 C1.18626732 -0.00472824 1.18626732 -0.00472824 2.39649963 -0.009552 C3.66384193 -0.00651566 3.66384193 -0.00651566 4.95678711 -0.00341797 C5.8318541 -0.00437469 6.70692108 -0.00533142 7.60850525 -0.00631714 C9.45515007 -0.00699662 11.30179729 -0.00515848 13.1484375 -0.00097656 C15.97718656 0.00438138 18.80577731 -0.00093269 21.63452148 -0.00732422 C23.42944371 -0.00666352 25.22436584 -0.00538254 27.01928711 -0.00341797 C27.86620621 -0.0054422 28.71312531 -0.00746643 29.58570862 -0.009552 C32.94623736 0.00389604 35.71149837 0.05935037 38.92163086 1.12939453 C40.5796426 1.23210322 42.24104178 1.28422605 43.90209961 1.30517578 C68.97755705 1.82893981 92.41873801 7.58837145 110.42553711 26.28173828 C115.96460022 32.60095113 120.92507624 39.37918213 125.92163086 46.12939453 C126.54924316 46.97614746 127.17685547 47.82290039 127.82348633 48.6953125 C131.39614223 53.52096336 134.95600788 58.35579575 138.50219727 63.20092773 C139.92104152 65.18461588 139.92104152 65.18461588 141.6652832 67.1262207 C142.92163086 69.12939453 142.92163086 69.12939453 142.83935547 71.23144531 C141.67000786 73.64977687 140.60406121 74.25417596 138.23803711 75.49658203 C137.47958496 75.90489258 136.72113281 76.31320312 135.93969727 76.73388672 C135.12936035 77.1531543 134.31902344 77.57242188 133.48413086 78.00439453 C131.83604563 78.88021371 130.18890297 79.75780896 128.54272461 80.63720703 C127.74592285 81.0603418 126.94912109 81.48347656 126.12817383 81.91943359 C122.57810028 83.86612141 119.21158478 86.08605674 115.86694336 88.36376953 C113.92163086 89.12939453 113.92163086 89.12939453 111.66381836 88.27001953 C110.80143555 87.70541016 110.80143555 87.70541016 109.92163086 87.12939453 C109.99381836 86.33017578 110.06600586 85.53095703 110.14038086 84.70751953 C110.62634215 78.95697758 111.03174564 73.21215996 111.17163086 67.44189453 C111.19741211 66.46865234 111.22319336 65.49541016 111.24975586 64.49267578 C111.14147461 63.71279297 111.03319336 62.93291016 110.92163086 62.12939453 C108.16267451 59.83301674 108.16267451 59.83301674 105.35913086 60.37939453 C102.77162519 60.96747505 102.77162519 60.96747505 100.92163086 63.12939453 C100.38083437 65.42980889 100.38083437 65.42980889 100.10522461 68.11767578 C99.98179687 69.12838135 99.85836914 70.13908691 99.73120117 71.18041992 C99.60841797 72.25670654 99.48563477 73.33299316 99.35913086 74.44189453 C99.22474609 75.53171631 99.09036133 76.62153809 98.9519043 77.74438477 C98.27075178 83.41375408 97.81224579 88.98694573 97.67163086 94.69189453 C97.3946426 98.8249938 96.88994169 100.77646424 93.85913086 103.62939453 C93.23264648 104.14888672 92.60616211 104.66837891 91.96069336 105.20361328 C85.12411227 111.66038431 80.93442682 121.34867998 77.92163086 130.12939453 C71.90114597 129.50038865 66.21448888 128.33351705 60.35913086 126.81689453 C59.47926514 126.59251709 58.59939941 126.36813965 57.69287109 126.13696289 C55.10091282 125.4735969 52.51100295 124.80277564 49.92163086 124.12939453 C49.24648438 123.95504883 48.57133789 123.78070312 47.87573242 123.60107422 C39.1128687 121.33298456 30.41355859 118.85752317 21.71704102 116.34936523 C15.12273333 114.45294329 8.50516108 112.67905439 1.85522461 110.98876953 C-0.66840793 110.24948969 -2.79016782 109.40496886 -5.07836914 108.12939453 C-5.17879494 101.41202411 -5.10867735 94.76670384 -4.57836914 88.06689453 C-4.08414579 81.76907695 -3.70233249 75.4445983 -4.07836914 69.12939453 C-5.24873219 67.73651648 -5.24873219 67.73651648 -8.51586914 67.94189453 C-12.12869635 67.73374525 -12.12869635 67.73374525 -14.07836914 70.12939453 C-14.5457208 72.60903266 -14.90142849 75.01437574 -15.18383789 77.51611328 C-15.27216385 78.2513472 -15.36048981 78.98658112 -15.45149231 79.74409485 C-15.63634476 81.30293294 -15.81678362 82.86229974 -15.99316406 84.42211914 C-16.2630109 86.79179471 -16.55147782 89.15866522 -16.84204102 91.52587891 C-17.01960838 93.04332464 -17.19607528 94.56089963 -17.37133789 96.07861328 C-17.45772018 96.77991867 -17.54410248 97.48122406 -17.63310242 98.20378113 C-18.39378818 105.15721919 -17.88298777 111.15070812 -14.07836914 117.12939453 C-10.55335487 119.58290321 -7.14484807 120.87347119 -3.02758789 122.03173828 C-1.26511719 122.53157227 -1.26511719 122.53157227 0.53295898 123.04150391 C1.7543457 123.37988281 2.97573242 123.71826172 4.23413086 124.06689453 C5.41297852 124.40140625 6.59182617 124.73591797 7.80639648 125.08056641 C16.80207505 127.6110581 25.84802046 129.90020346 34.92163086 132.12939453 C37.57671976 132.78377131 40.23160668 133.43896564 42.88647461 134.09423828 C43.5390625 134.25519989 44.19165039 134.4161615 44.86401367 134.58200073 C52.22452936 136.39980514 59.57541751 138.25468159 66.92163086 140.12939453 C67.92258789 140.38398437 68.92354492 140.63857422 69.95483398 140.90087891 C72.345969 141.51857404 74.72853967 142.15992645 77.10913086 142.81689453 C78.95571289 143.31769531 78.95571289 143.31769531 80.83959961 143.82861328 C85.71214879 145.88508841 88.22755506 148.90319395 90.79663086 153.44189453 C92.54648596 159.1775307 91.93810885 163.01512031 89.35913086 168.37939453 C86.33716146 171.78879591 83.31185654 173.85794927 78.92163086 175.12939453 C74.19455546 175.31473516 70.11718239 174.89831688 65.53491211 173.75830078 C64.90817596 173.60479156 64.28143982 173.45128235 63.63571167 173.29312134 C61.49973991 172.76754221 59.36698772 172.22996538 57.23413086 171.69189453 C55.68194293 171.30567249 54.12960933 170.92003551 52.57714844 170.53491211 C48.9256044 169.62761503 45.27548397 168.71477148 41.62573242 167.80029297 C35.90370947 166.36995114 30.17640681 164.9618763 24.44777012 163.55833149 C18.32362616 162.05770478 12.20131989 160.54972987 6.08012295 159.03712749 C2.21472605 158.08213776 -1.65133004 157.13004094 -5.51913452 156.18484497 C-9.22374119 155.27915762 -12.92588619 154.36398411 -16.62649155 153.44208908 C-18.00552993 153.10020833 -19.38538086 152.76158583 -20.76608658 152.42650223 C-33.51246194 149.32929589 -41.74478401 146.1533521 -49.40258789 135.24267578 C-52.02279642 130.56307529 -52.35135055 125.95836282 -52.31665039 120.69189453 C-52.31340759 119.92555695 -52.31016479 119.15921936 -52.30682373 118.36965942 C-52.13941626 106.22235627 -51.00928449 94.11144894 -49.99371338 82.0123291 C-49.82823835 80.00280619 -49.6708576 77.99281652 -49.51635742 75.98242188 C-45.8697834 28.58988232 -45.8697834 28.58988232 -27.07836914 11.12939453 C-19.61321107 5.05493375 -9.8107563 0.01126862 0 0 Z " fill="#FCFBFA" transform="translate(485.078369140625,419.87060546875)"/>
<path d="M0 0 C2.04551153 0.00186843 4.09102351 0.00329032 6.13653564 0.00428772 C11.48263821 0.00807948 16.82871299 0.0178807 22.17480469 0.0289917 C27.64517847 0.03927819 33.1155568 0.04380075 38.5859375 0.04882812 C49.29167878 0.05950642 59.99739957 0.07654203 70.703125 0.09765625 C70.56213379 0.79737549 70.42114258 1.49709473 70.27587891 2.21801758 C69.6255711 5.4485188 68.9768404 8.67933489 68.328125 11.91015625 C68.10640625 13.01037109 67.8846875 14.11058594 67.65625 15.24414062 C66.26441813 22.18283187 64.94133337 29.1298882 63.703125 36.09765625 C55.18056073 36.36439615 47.20567138 35.62442998 38.81640625 34.1640625 C37.04271919 33.8679734 37.04271919 33.8679734 35.23320007 33.56590271 C31.49240279 32.93978281 27.75399883 32.3005717 24.015625 31.66015625 C20.2661536 31.0258753 16.51623385 30.39437127 12.76591492 29.76512146 C10.44355913 29.37461387 8.12175474 28.98080768 5.8006134 28.58314514 C-1.99808688 27.26017743 -9.80838719 25.99983522 -17.734375 25.84765625 C-18.55808594 25.821875 -19.38179688 25.79609375 -20.23046875 25.76953125 C-20.91238281 25.8778125 -21.59429687 25.98609375 -22.296875 26.09765625 C-24.60433435 28.85075708 -24.60433435 28.85075708 -23.984375 31.59765625 C-23.47588828 33.44669887 -22.90330038 35.27838012 -22.296875 37.09765625 C-21.64920166 37.1241626 -21.00152832 37.15066895 -20.33422852 37.17797852 C-8.18129965 37.88803952 3.76675457 40.06785825 15.765625 42.03515625 C18.01359334 42.39957331 20.26163976 42.7635091 22.50976562 43.12695312 C26.65941464 43.79909615 30.8087158 44.47326343 34.95727539 45.15209961 C35.85167768 45.29640097 36.74607998 45.44070232 37.66758537 45.58937645 C39.58520283 45.91046803 41.49975673 46.25100101 43.40902042 46.61851788 C51.11311929 48.05579991 58.53861162 48.37969902 66.36279297 48.35302734 C68.37172119 48.35858432 70.3806494 48.36414564 72.38957715 48.36987138 C74.52304724 48.37417834 76.65647043 48.37375068 78.7899437 48.37205124 C83.25367331 48.36919256 87.71724798 48.38366105 92.18093872 48.40103149 C104.86441795 48.44782742 117.5478834 48.47201523 130.23144531 48.47851562 C137.25677833 48.48226783 144.28193269 48.50029831 151.30718911 48.53360999 C155.74134924 48.55378093 160.1750474 48.55621738 164.60923457 48.54532981 C168.0128679 48.54210703 171.41624241 48.56481765 174.81982422 48.58349609 C176.65271248 48.57123741 176.65271248 48.57123741 178.52262878 48.55873108 C184.87128656 48.62083347 188.92269909 48.74104842 193.703125 53.09765625 C196.68331576 56.48057549 198.53732695 58.71600579 199.078125 63.22265625 C198.61308972 68.02802077 197.00011117 71.5403817 193.703125 75.09765625 C191.53125 75.82421875 191.53125 75.82421875 189.703125 76.09765625 C189.703125 76.75765625 189.703125 77.41765625 189.703125 78.09765625 C168.98267358 78.49589778 148.26210146 78.88722709 127.54137897 79.27111053 C117.91253498 79.44964789 108.2837375 79.63019071 98.6550293 79.81591797 C24.86864813 81.2366351 24.86864813 81.2366351 -8.56424904 81.36201477 C-11.15045526 81.37310326 -13.73664631 81.38896916 -16.32279015 81.41007996 C-19.83229207 81.43662065 -23.34124055 81.44311782 -26.85083008 81.44335938 C-27.8456798 81.45406967 -28.84052952 81.46477997 -29.8655262 81.47581482 C-42.92715708 81.4127775 -57.43660391 77.66489092 -67.078125 68.3828125 C-74.47299547 60.47092778 -76.95759071 53.37572388 -76.91259766 42.55371094 C-76.48365464 32.68148952 -71.79955249 25.30797806 -65.296875 18.09765625 C-45.51955629 1.61190822 -24.76474653 -0.0668695 0 0 Z " fill="#FBFAF9" transform="translate(460.296875,673.90234375)"/>
<path d="M0 0 C56.43 0 112.86 0 171 0 C171 33 171 66 171 100 C166.50410184 99.10082037 164.41047633 98.29037223 160.625 96 C159.57207764 95.36876221 158.51915527 94.73752441 157.43432617 94.0871582 C156.87603119 93.74786285 156.31773621 93.4085675 155.74252319 93.05899048 C153.35250774 91.60649698 150.9530332 90.16995275 148.554245 88.73200989 C147.29177388 87.9748882 146.02982886 87.21688862 144.76838684 86.45805359 C138.54855971 82.71809943 132.28943399 79.04674683 126.02319336 75.38525391 C122.96608818 73.59872376 119.91072713 71.80921738 116.85546875 70.01953125 C116.26667938 69.67467682 115.67789001 69.32982239 115.07125854 68.97451782 C108.82745189 65.31582331 102.59883375 61.63161434 96.37231445 57.94360352 C91.31715324 54.95199922 86.2532513 51.97590553 81.1796875 49.015625 C78.74456889 47.59413121 76.30966618 46.17226855 73.875 44.75 C72.96326523 44.21741577 72.96326523 44.21741577 72.03311157 43.67407227 C62.0883061 37.85959362 52.22987715 31.91229302 42.39901733 25.90759277 C35.12197017 21.46532867 27.8124621 17.11292302 20.35229492 12.984375 C15.68700603 10.40158703 11.0809424 7.72966939 6.5 5 C5.84539795 4.61328125 5.1907959 4.2265625 4.51635742 3.828125 C2.99306601 2.91452255 1.49359045 1.96139155 0 1 C0 0.67 0 0.34 0 0 Z " fill="#FCFCFB" transform="translate(732,814)"/>
<path d="M0 0 C51.81 0 103.62 0 157 0 C154.46549323 2.53450677 152.53416212 4.02588342 149.51953125 5.828125 C148.61525391 6.37275391 147.71097656 6.91738281 146.77929688 7.47851562 C145.80025391 8.06310547 144.82121094 8.64769531 143.8125 9.25 C141.71407532 10.51435052 139.61644328 11.78001734 137.51953125 13.046875 C136.43881348 13.69978516 135.3580957 14.35269531 134.24462891 15.02539062 C129.13321956 18.13608128 124.0664656 21.3168149 119 24.5 C111.13842913 29.43262523 103.24694961 34.31045558 95.3125 39.125 C76.43568326 50.57969745 57.7169032 62.28644137 39 74 C31.86106817 78.46756845 24.72064792 82.93270944 17.57568359 87.390625 C15.27316192 88.82931911 12.9739662 90.27314403 10.67578125 91.71875 C9.49232165 92.45854798 8.30874175 93.19815356 7.125 93.9375 C6.15820312 94.54464844 5.19140625 95.15179687 4.1953125 95.77734375 C2 97 2 97 0 97 C0 64.99 0 32.98 0 0 Z " fill="#FCFCFC" transform="translate(342,814)"/>
<path d="M0 0 C9.14342098 7.06045229 15.93125587 16.42540754 17.640625 28.0390625 C18.58439442 41.73720158 17.4772799 53.79241081 8.640625 65.0390625 C8.24617187 65.58691406 7.85171875 66.13476562 7.4453125 66.69921875 C0.92348287 75.17759727 -9.82376205 81.313143 -20.359375 83.0390625 C-34.9575711 84.08916859 -46.91625603 81.5176106 -58.359375 72.0390625 C-59.31263672 71.28882813 -59.31263672 71.28882813 -60.28515625 70.5234375 C-68.37618857 63.41911644 -73.38249196 51.6219621 -74.359375 41.0390625 C-74.42898438 40.31589844 -74.49859375 39.59273438 -74.5703125 38.84765625 C-75.10235784 27.40868148 -70.97086141 18.12061207 -64.359375 9.0390625 C-63.59625 7.9665625 -62.833125 6.8940625 -62.046875 5.7890625 C-44.54240476 -12.12248844 -20.38304478 -13.68575864 0 0 Z " fill="#FCFBFA" transform="translate(561.359375,324.9609375)"/>
<path d="M0 0 C8.53502021 1.41151791 16.88067528 3.36777414 25.265625 5.484375 C26.62963016 5.82614439 27.99370653 6.16762969 29.35784912 6.5088501 C32.2091637 7.22282256 35.05989054 7.93907852 37.91015625 8.65722656 C41.48916387 9.55896675 45.06914725 10.45675094 48.6495285 11.35301971 C65.12363349 15.4775301 81.57895353 19.66819885 98 24 C97.35413113 30.05572931 96.2136352 35.84146898 94.78515625 41.7578125 C94.5693541 42.66449677 94.35355194 43.57118103 94.13121033 44.50534058 C93.67684672 46.41013832 93.22039804 48.31443979 92.76196289 50.21826172 C92.06319161 53.12212588 91.37191912 56.02770041 90.68164062 58.93359375 C90.2374215 60.79177247 89.7927746 62.64984898 89.34765625 64.5078125 C89.14237808 65.37044708 88.93709991 66.23308167 88.7256012 67.12185669 C88.43035805 68.34375198 88.43035805 68.34375198 88.12915039 69.59033203 C87.95895889 70.29900421 87.7887674 71.00767639 87.61341858 71.73782349 C86.85745053 74.52569659 85.91343988 77.25968036 85 80 C54.64 80 24.28 80 -7 80 C-5.875 64.25 -5.875 64.25 -5.33569336 58.35205078 C-5.24769218 57.38338074 -5.24769218 57.38338074 -5.15791321 56.3951416 C-4.96984357 54.32841209 -4.7798772 52.26186227 -4.58984375 50.1953125 C-4.4566319 48.73559644 -4.32354203 47.27586925 -4.19056702 45.81613159 C-3.84490719 42.02517771 -3.49762159 38.23437458 -3.14996338 34.44360352 C-2.79362902 30.5549423 -2.4388791 26.66613656 -2.08398438 22.77734375 C-1.39084833 15.18475583 -0.69598972 7.59232692 0 0 Z " fill="#FCFBFA" transform="translate(449,581)"/>
<path d="M0 0 C10.10853377 6.52371828 17.07040716 15.94034176 20.125 27.75 C22.53746674 42.17177917 18.97005537 53.89190356 11.6875 66.1875 C4.28213515 75.87733559 -6.84205704 81.88733284 -18.86083984 83.53735352 C-31.36115468 84.47228345 -40.84586371 83.3152648 -51.3125 76.1875 C-52.38177734 75.47013672 -52.38177734 75.47013672 -53.47265625 74.73828125 C-62.52166756 67.79739125 -68.57270105 56.34847437 -70.3125 45.1875 C-71.22215588 29.88079047 -68.35505234 19.32467285 -58.72265625 7.18359375 C-42.95155572 -10.05279241 -19.45115843 -10.8774844 0 0 Z " fill="#FCFBFA" transform="translate(351.3125,649.8125)"/>
<path d="M0 0 C7.59 0 15.18 0 23 0 C23 52.47 23 104.94 23 159 C15.41 159 7.82 159 0 159 C0 106.53 0 54.06 0 0 Z " fill="#FBF9F7" transform="translate(916,814)"/>
<path d="M0 0 C7.26 0 14.52 0 22 0 C22 52.47 22 104.94 22 159 C14.74 159 7.48 159 0 159 C0 106.53 0 54.06 0 0 Z " fill="#FBFAF9" transform="translate(307,814)"/>
<path d="M0 0 C5.23255148 1.85671182 8.56829203 4.97418906 11 10 C11.6880627 13.06991634 11.85615263 16.1167653 12.01171875 19.25390625 C12.07027542 20.15004135 12.12883209 21.04617645 12.18916321 21.96946716 C12.37207563 24.83305847 12.53003488 27.69740878 12.6875 30.5625 C12.80372918 32.42913736 12.92155474 34.29567605 13.04101562 36.16210938 C13.51424495 43.71818846 13.92786922 51.27609667 14.26806641 58.83935547 C14.3107515 59.78391098 14.35343658 60.72846649 14.39741516 61.7016449 C14.4763321 63.4873489 14.55191324 65.27320484 14.62345886 67.05921936 C14.82746236 71.76641323 15.25907384 76.33917901 16 81 C16.68975843 87.76189411 15.69709698 93.2078814 12 99 C10.10378466 100.98408873 8.25921249 102.40828211 6 104 C2.25938188 102.44064367 -0.11465636 100.12945322 -2.95703125 97.2734375 C-3.42308273 96.8069278 -3.88913422 96.34041809 -4.36930847 95.85977173 C-5.35413345 94.8719326 -6.33653381 93.88167105 -7.31665039 92.88916016 C-8.79208043 91.39566953 -10.2751574 89.9101425 -11.75976562 88.42578125 C-15.97468647 84.1974915 -20.15454043 79.93089292 -24.19921875 75.5390625 C-24.74795654 74.94561035 -25.29669434 74.3521582 -25.86206055 73.74072266 C-27 72 -27 72 -27 68 C-25.73364258 66.5065918 -25.73364258 66.5065918 -24.08203125 65.01171875 C-19.740041 60.22825667 -19.92365872 55.02384927 -19.6875 48.8125 C-19.5687125 46.67304779 -19.44770993 44.53371712 -19.32421875 42.39453125 C-19.2636731 40.98457886 -19.2636731 40.98457886 -19.2019043 39.54614258 C-19 37 -19 37 -18.50219727 35.01586914 C-17.86288291 32.44959853 -17.76551405 29.9927506 -17.640625 27.3515625 C-17.57617188 26.26359375 -17.51171875 25.175625 -17.4453125 24.0546875 C-17.31559528 21.77685309 -17.20089248 19.49811169 -17.1015625 17.21875 C-16.66876628 10.43827592 -16.14556885 6.60636254 -11 2 C-7.26918581 -0.48720946 -4.32071141 -0.63539874 0 0 Z " fill="#FBF9F8" transform="translate(778,357)"/>
<path d="M0 0 C1.90189717 0.88449137 3.77164097 1.83980831 5.61328125 2.84375 C6.68980957 3.42688965 7.76633789 4.0100293 8.87548828 4.61083984 C10.00970215 5.2342627 11.14391602 5.85768555 12.3125 6.5 C13.46991699 7.12986816 14.62733398 7.75973633 15.81982422 8.40869141 C24.59100592 13.19330564 33.32351082 18.04575089 42 23 C40.58901723 26.37402968 39.02751724 28.01708631 36.0703125 30.13671875 C35.28003662 30.71019043 34.48976074 31.28366211 33.67553711 31.87451172 C32.83385986 32.47279785 31.99218262 33.07108398 31.125 33.6875 C29.39933181 34.93302898 27.67407148 36.17912324 25.94921875 37.42578125 C25.10536621 38.03244629 24.26151367 38.63911133 23.39208984 39.26416016 C19.25041166 42.26960329 15.20387762 45.39813087 11.15234375 48.5234375 C9 50 9 50 7 50 C4.16569891 43.75002688 1.52638818 37.44261702 -1 31.0625 C-1.33 30.23298828 -1.66 29.40347656 -2 28.54882812 C-2.6646897 26.87801631 -3.32875604 25.20695636 -3.9921875 23.53564453 C-7.0046434 15.91662422 -7.0046434 15.91662422 -10.12109375 8.34008789 C-11 6 -11 6 -10.9375 3.875 C-8.51764419 -0.96471161 -4.7334614 -1.32863038 0 0 Z " fill="#FAF8F7" transform="translate(687,475)"/>
<path d="M0 0 C0.4125 0.9075 0.825 1.815 1.25 2.75 C2.89050718 5.79665618 4.44718361 7.71126806 7 10 C5.82466187 13.52601439 5.03436283 13.92537841 2.00610352 15.9074707 C1.15754288 16.46847977 0.30898224 17.02948883 -0.56529236 17.60749817 C-1.49120682 18.20753159 -2.41712128 18.807565 -3.37109375 19.42578125 C-4.32258804 20.05099167 -5.27408234 20.67620209 -6.25440979 21.32035828 C-9.31050078 23.32539723 -12.37400846 25.31879153 -15.4375 27.3125 C-17.46856074 28.64447841 -19.49916532 29.97715267 -21.52929688 31.31054688 C-23.49698533 32.59958517 -25.46507226 33.88801546 -27.43359375 35.17578125 C-28.34129013 35.76974197 -29.24898651 36.3637027 -30.18418884 36.97566223 C-48.88349118 49.14003873 -48.88349118 49.14003873 -58.0625 49.1875 C-59.31160156 49.20167969 -60.56070313 49.21585938 -61.84765625 49.23046875 C-65 49 -65 49 -67 47 C-65.48773286 45.71898498 -63.96469601 44.45068001 -62.4375 43.1875 C-61.59058594 42.47980469 -60.74367188 41.77210938 -59.87109375 41.04296875 C-57.28969001 39.20613316 -54.93208234 38.13842719 -52.0144043 36.97143555 C-47.5715954 34.82891505 -43.66853443 31.69911188 -39.6875 28.8125 C-37.90275251 27.52316285 -36.11513624 26.23778432 -34.32421875 24.95703125 C-33.54135498 24.38960205 -32.75849121 23.82217285 -31.9519043 23.23754883 C-30 22 -30 22 -28 22 C-27.81695313 21.28714844 -27.63390625 20.57429687 -27.4453125 19.83984375 C-25.41884001 15.85809916 -22.4999025 14.05604397 -18.875 11.5625 C-17.5126794 10.59944114 -16.15069728 9.63590327 -14.7890625 8.671875 C-14.13454102 8.21361328 -13.48001953 7.75535156 -12.80566406 7.28320312 C-10.56725644 5.69246888 -8.40817753 4.009943 -6.25 2.3125 C-3 0 -3 0 0 0 Z " fill="#F9F5F4" transform="translate(725,520)"/>
<path d="M0 0 C0.32685791 0.79470703 0.65371582 1.58941406 0.99047852 2.40820312 C2.23580485 5.43359939 3.48270794 8.4583364 4.73062134 11.48266602 C5.28376424 12.82405632 5.83631871 14.16568942 6.38827515 15.50756836 C10.26952191 24.96145218 10.26952191 24.96145218 14.390625 34.3125 C14.72247803 35.04017578 15.05433105 35.76785156 15.39624023 36.51757812 C16.24827882 38.36105089 17.11759262 40.19651218 17.98828125 42.03125 C19.12499784 45.36678903 19.38058826 46.76257405 18 50 C15.56640625 52.23828125 15.56640625 52.23828125 12.5625 54.3125 C11.57378906 55.00988281 10.58507812 55.70726562 9.56640625 56.42578125 C7 58 7 58 5 58 C2.46750442 52.00668094 -0.05867578 46.01072854 -2.58056641 40.01293945 C-3.43850243 37.97457278 -4.29786093 35.9368042 -5.15869141 33.8996582 C-6.39864177 30.96463118 -7.63339281 28.02746283 -8.8671875 25.08984375 C-9.25059296 24.18540024 -9.63399841 23.28095673 -10.02902222 22.34910583 C-12.01144497 17.61424187 -13.71499721 12.9712435 -15 8 C-13.03708697 6.76769976 -11.07260869 5.53804559 -9.10546875 4.3125 C-7.44226881 3.27570004 -5.78292532 2.23271379 -4.125 1.1875 C-2 0 -2 0 0 0 Z " fill="#F9F6F4" transform="translate(665,485)"/>
<path d="M0 0 C1.35180664 1.27539062 1.35180664 1.27539062 2.84765625 3.15625 C6.17633062 7.12859068 9.70464596 10.81255116 13.37109375 14.46875 C13.94195709 15.03859619 14.51282043 15.60844238 15.10098267 16.19555664 C16.87786769 17.96568052 18.65761031 19.73289791 20.4375 21.5 C21.6584369 22.71591114 22.87914192 23.93205516 24.09960938 25.1484375 C27.06374013 28.10164966 30.03098958 31.05169398 33 34 C31.53363589 37.11961776 30.36175156 38.78557732 27.5 40.75 C26.8915625 41.17796875 26.283125 41.6059375 25.65625 42.046875 C24 43 24 43 22 43 C22 43.66 22 44.32 22 45 C18.78734448 44.42791279 17.27033044 43.61297921 15.109375 41.18359375 C14.5721582 40.59175293 14.03494141 39.99991211 13.48144531 39.39013672 C12.91006836 38.7457666 12.33869141 38.10139648 11.75 37.4375 C5.77532003 30.8383841 -0.41521559 24.52638969 -6.84472656 18.36889648 C-12.77305082 12.57476766 -12.77305082 12.57476766 -14 8 C-12.23569031 6.65804628 -10.4633209 5.32668332 -8.6875 4 C-7.70136719 3.2575 -6.71523438 2.515 -5.69921875 1.75 C-3 0 -3 0 0 0 Z " fill="#FAF7F6" transform="translate(740,434)"/>
<path d="M0 0 C2.94003925 1.23491645 4.48046585 3.38787287 6.55444336 5.78417969 C11.51956703 11.40985391 16.73286795 16.74532683 22.05444336 22.03417969 C22.82167725 22.79730469 23.58891113 23.56042969 24.37939453 24.34667969 C26.20656646 26.16122759 28.03561933 27.97382379 29.86694336 29.78417969 C26.75149889 33.16666226 24.3692319 35.61754635 19.86694336 36.78417969 C17.24243164 35.96069336 17.24243164 35.96069336 14.43725586 34.45214844 C13.40076904 33.90478027 12.36428223 33.35741211 11.29638672 32.79345703 C10.20592041 32.19227051 9.1154541 31.59108398 7.99194336 30.97167969 C6.87891846 30.37307129 5.76589355 29.77446289 4.61914062 29.15771484 C1.35493051 27.38980823 -1.89165765 25.59351167 -5.13305664 23.78417969 C-6.00236816 23.30255371 -6.87167969 22.82092773 -7.76733398 22.32470703 C-9.92172225 21.12174684 -12.06238923 19.89930017 -14.19555664 18.65917969 C-14.81350098 18.30621826 -15.43144531 17.95325684 -16.06811523 17.58959961 C-17.73071289 16.58886719 -17.73071289 16.58886719 -20.13305664 14.78417969 C-20.13305664 13.79417969 -20.13305664 12.80417969 -20.13305664 11.78417969 C-17.48543119 9.35461313 -14.38301752 7.50347916 -11.38305664 5.53417969 C-10.55805664 4.96699219 -9.73305664 4.39980469 -8.88305664 3.81542969 C-8.08383789 3.28433594 -7.28461914 2.75324219 -6.46118164 2.20605469 C-5.72802734 1.71717773 -4.99487305 1.22830078 -4.23950195 0.72460938 C-2.13305664 -0.21582031 -2.13305664 -0.21582031 0 0 Z " fill="#FAF7F6" transform="translate(716.133056640625,451.2158203125)"/>
<path d="M0 0 C3.97754317 1.50140463 7.04015695 3.87328264 8.9765625 7.74609375 C9.56687451 13.42217081 9.33105476 17.96848357 5.9765625 22.74609375 C0.55651448 28.2914608 -4.43584305 32.94153547 -12.5234375 33.18359375 C-15.99380941 33.07930878 -17.01977935 32.74840809 -20.0859375 30.80859375 C-22.6572103 26.74432383 -22.94841517 23.4403554 -22.0234375 18.74609375 C-18.70518429 10.62626223 -9.85350281 -1.45115223 0 0 Z " fill="#FAF9F8" transform="translate(759.0234375,491.25390625)"/>
<path d="M0 0 C0.33 0 0.66 0 1 0 C1.14695312 0.75023437 1.29390625 1.50046875 1.4453125 2.2734375 C2.90001375 8.91155698 4.87107572 14.15431408 8.59765625 19.84375 C10 22 10 22 12 26 C-30.57 26 -73.14 26 -117 26 C-117 25.67 -117 25.34 -117 25 C-116.27416718 24.98969254 -115.54833435 24.97938507 -114.80050659 24.96876526 C-107.9445785 24.87059744 -101.0887281 24.76805643 -94.23293877 24.66066074 C-90.7087082 24.60560653 -87.18446912 24.55221566 -83.66015625 24.50268555 C-79.60407979 24.44560801 -75.54814827 24.38118898 -71.4921875 24.31640625 C-70.23260223 24.29969376 -68.97301697 24.28298126 -67.67526245 24.26576233 C-65.90410568 24.2358445 -65.90410568 24.2358445 -64.09716797 24.20532227 C-63.06236298 24.18977798 -62.02755798 24.1742337 -60.96139526 24.15821838 C-57.91162743 23.99527852 -55.00053272 23.55815286 -52 23 C-52 22.67 -52 22.34 -52 22 C-50.27716797 21.96132813 -50.27716797 21.96132813 -48.51953125 21.921875 C-29.64190318 21.31601207 -15.9829024 16.07097398 -2 3 C-1.34 2.01 -0.68 1.02 0 0 Z " fill="#EEE4DE" transform="translate(371,724)"/>
<path d="M0 0 C2 2 2 2 2.265625 4.3359375 C2.21268842 14.63210267 1.14177277 24.77501705 0 35 C-0.33 35 -0.66 35 -1 35 C-1.33 39.29 -1.66 43.58 -2 48 C-2.33 48 -2.66 48 -3 48 C-3.02716824 45.45826023 -3.04691969 42.91681585 -3.0625 40.375 C-3.07087891 39.66214844 -3.07925781 38.94929688 -3.08789062 38.21484375 C-3.10209783 35.11767406 -3.03906658 32.23375372 -2.52734375 29.171875 C-1.5779357 23.46136141 -1.59792632 17.65683276 -1.39453125 11.87890625 C-1.35714844 10.92628906 -1.31976562 9.97367187 -1.28125 8.9921875 C-1.25095703 8.12964355 -1.22066406 7.26709961 -1.18945312 6.37841797 C-1.01133404 4.14228894 -0.61516948 2.15247055 0 0 Z " fill="#A56D4B" transform="translate(749,363)"/>
<path d="M0 0 C0.33 0.99 0.66 1.98 1 3 C-2.29734646 4.09911549 -4.72958745 4.1139456 -8.19921875 4.09765625 C-9.40771484 4.09443359 -10.61621094 4.09121094 -11.86132812 4.08789062 C-13.7552832 4.07532227 -13.7552832 4.07532227 -15.6875 4.0625 C-17.59885742 4.05573242 -17.59885742 4.05573242 -19.54882812 4.04882812 C-22.69926564 4.03702873 -25.84960949 4.02056597 -29 4 C-29 3.67 -29 3.34 -29 3 C-27.02 2.67 -25.04 2.34 -23 2 C-23 1.67 -23 1.34 -23 1 C-20.10425766 0.83160792 -17.20842326 0.66522615 -14.3125 0.5 C-13.08756836 0.42845703 -13.08756836 0.42845703 -11.83789062 0.35546875 C-7.88646942 0.13150156 -3.95981243 -0.06451833 0 0 Z " fill="#F5EDE7" transform="translate(342,745)"/>
<path d="M0 0 C0.66 0.33 1.32 0.66 2 1 C-1.17146624 3.82325036 -3.10514848 4.35915087 -7.31933594 4.2487793 C-8.38013367 4.22853195 -9.4409314 4.20828461 -10.53387451 4.18742371 C-11.67253967 4.15006607 -12.81120483 4.11270844 -13.984375 4.07421875 C-15.15510559 4.04777786 -16.32583618 4.02133698 -17.53204346 3.99409485 C-21.2718799 3.90631427 -25.01074755 3.79716746 -28.75 3.6875 C-31.28512151 3.6242433 -33.82027814 3.56237719 -36.35546875 3.50195312 C-42.57080999 3.35077013 -48.78549016 3.18204071 -55 3 C-55 2.67 -55 2.34 -55 2 C-54.03280281 1.9845388 -54.03280281 1.9845388 -53.04606628 1.96876526 C-46.34660609 1.86074573 -39.64728163 1.74614392 -32.94799805 1.62768555 C-30.44639928 1.58432212 -27.94477064 1.54264809 -25.44311523 1.50268555 C-21.85130808 1.44501729 -18.25965148 1.38131267 -14.66796875 1.31640625 C-13.54601608 1.29969376 -12.42406342 1.28298126 -11.26811218 1.26576233 C-10.22725967 1.24581711 -9.18640717 1.22587189 -8.11401367 1.20532227 C-6.7383448 1.18200584 -6.7383448 1.18200584 -5.33488464 1.15821838 C-2.84418392 1.087709 -2.84418392 1.087709 0 0 Z " fill="#823307" transform="translate(650,751)"/>
<path d="M0 0 C1.57159226 3.14318453 0.04018399 5.92933389 -0.9375 9.125 C-1.13279297 9.78371094 -1.32808594 10.44242187 -1.52929688 11.12109375 C-2.01304986 12.74933552 -2.50569075 14.37493182 -3 16 C-3.66 16 -4.32 16 -5 16 C-5 22.6 -5 29.2 -5 36 C-5.33 36 -5.66 36 -6 36 C-6.89073531 12.06662735 -6.89073531 12.06662735 -2 1 C-1.34 0.67 -0.68 0.34 0 0 Z " fill="#A36846" transform="translate(480,336)"/>
<path d="M0 0 C0.87462891 0.09990234 1.74925781 0.19980469 2.65039062 0.30273438 C4.78867914 0.54811175 6.92573286 0.80420947 9.0625 1.0625 C9.0625 1.3925 9.0625 1.7225 9.0625 2.0625 C-3.62154881 2.85791627 -16.22917137 3.19057946 -28.9375 3.0625 C-28.9375 2.7325 -28.9375 2.4025 -28.9375 2.0625 C-22.9975 1.5675 -22.9975 1.5675 -16.9375 1.0625 C-16.9375 0.7325 -16.9375 0.4025 -16.9375 0.0625 C-11.07712379 -1.07458792 -5.90220799 -0.72262775 0 0 Z " fill="#F9F6F4" transform="translate(322.9375,745.9375)"/>
<path d="M0 0 C0.66 0.66 1.32 1.32 2 2 C1.35546875 2.46921875 0.7109375 2.9384375 0.046875 3.421875 C-2.93590883 7.17881647 -2.66969395 10.57764827 -2.75 15.25 C-2.77964844 16.09046875 -2.80929687 16.9309375 -2.83984375 17.796875 C-2.91031636 19.8640715 -2.95744939 21.93204033 -3 24 C-3.66 24 -4.32 24 -5 24 C-5.1356886 21.12340174 -5.23440753 18.25326537 -5.3125 15.375 C-5.35439453 14.56675781 -5.39628906 13.75851562 -5.43945312 12.92578125 C-5.52834262 8.55241787 -5.34351227 5.84971472 -2.48046875 2.4140625 C-1.66191406 1.61742187 -0.84335938 0.82078125 0 0 Z " fill="#924924" transform="translate(1073,645)"/>
<path d="M0 0 C0.99 0.33 1.98 0.66 3 1 C-3.4453125 8.84179688 -3.4453125 8.84179688 -7 11 C-7.66 11 -8.32 11 -9 11 C-7.67667408 6.00076875 -4.39231845 2.60213075 0 0 Z " fill="#934C23" transform="translate(761,348)"/>
<path d="M0 0 C0.33 0 0.66 0 1 0 C1.95444724 8.72801755 2.60071115 15.79037858 -1 24 C-1.33 24 -1.66 24 -2 24 C-1.33333333 16 -0.66666667 8 0 0 Z " fill="#AA6E4A" transform="translate(468,505)"/>
<path d="M0 0 C0.66 0.66 1.32 1.32 2 2 C-1.11016455 5.28788824 -4.01618925 7.83735988 -8 10 C-8.66 9.34 -9.32 8.68 -10 8 C-9.44570313 7.59007812 -8.89140625 7.18015625 -8.3203125 6.7578125 C-7.59585938 6.21898437 -6.87140625 5.68015625 -6.125 5.125 C-5.04605469 4.32449219 -5.04605469 4.32449219 -3.9453125 3.5078125 C-1.91747368 2.00126838 -1.91747368 2.00126838 0 0 Z " fill="#99522A" transform="translate(764,514)"/>
<path d="M0 0 C0.66 0.33 1.32 0.66 2 1 C1.67 1.66 1.34 2.32 1 3 C0.34 3 -0.32 3 -1 3 C-1 3.66 -1 4.32 -1 5 C-3.75 6.625 -3.75 6.625 -7 8 C-9.375 7.1875 -9.375 7.1875 -11 6 C-8.66460191 4.44306794 -6.42031244 3.09799354 -3.9375 1.8125 C-2.89916016 1.26529297 -2.89916016 1.26529297 -1.83984375 0.70703125 C-1.23269531 0.47371094 -0.62554687 0.24039063 0 0 Z " fill="#A05C36" transform="translate(350,726)"/>
<path d="M0 0 C0 0.66 0 1.32 0 2 C6.27 2 12.54 2 19 2 C19 2.33 19 2.66 19 3 C15.41673499 3.05814085 11.83359162 3.09364357 8.25 3.125 C7.23421875 3.14175781 6.2184375 3.15851562 5.171875 3.17578125 C4.1921875 3.18222656 3.2125 3.18867187 2.203125 3.1953125 C0.85202637 3.21102295 0.85202637 3.21102295 -0.52636719 3.22705078 C-3.13926856 2.98721676 -4.75664666 2.32312064 -7 1 C-2.25 0 -2.25 0 0 0 Z " fill="#AC714E" transform="translate(318,743)"/>
<path d="M0 0 C0.66 0.33 1.32 0.66 2 1 C0.13665293 3.03607306 -1.34017793 3.95193248 -4.11132812 4.15380859 C-6.66767032 4.07027135 -9.20117517 3.90021581 -11.75 3.6875 C-12.63816406 3.62626953 -13.52632812 3.56503906 -14.44140625 3.50195312 C-16.62907044 3.34905186 -18.81453442 3.18127554 -21 3 C-21 2.67 -21 2.34 -21 2 C-19.73542969 1.93941406 -18.47085938 1.87882813 -17.16796875 1.81640625 C-15.50780129 1.73199096 -13.84764563 1.64734345 -12.1875 1.5625 C-11.35412109 1.52318359 -10.52074219 1.48386719 -9.66210938 1.44335938 C-8.85966797 1.40146484 -8.05722656 1.35957031 -7.23046875 1.31640625 C-6.12288208 1.26141968 -6.12288208 1.26141968 -4.99291992 1.20532227 C-2.792505 1.05157859 -2.792505 1.05157859 0 0 Z " fill="#863910" transform="translate(650,751)"/>
<path d="M0 0 C5.66104589 0.49658297 9.87674471 1.54510684 15 4 C11.34142468 5.31534494 8.91973519 4.65468309 5.25 3.5625 C3.77273438 3.13130859 3.77273438 3.13130859 2.265625 2.69140625 C1.51796875 2.46324219 0.7703125 2.23507812 0 2 C0 1.34 0 0.68 0 0 Z " fill="#954D25" transform="translate(497,591)"/>
<path d="M0 0 C1.3357457 3.77371512 0.72408671 6.85831347 0.0625 10.75 C-0.13214844 11.92046875 -0.32679688 13.0909375 -0.52734375 14.296875 C-0.68332031 15.18890625 -0.83929688 16.0809375 -1 17 C-3.3016847 12.94549387 -2.94812273 10.58259321 -2 6 C-1.37743972 3.98583438 -0.72433347 1.97984481 0 0 Z " fill="#A26342" transform="translate(272,666)"/>
<path d="M0 0 C0.33 0 0.66 0 1 0 C2.38585688 5.71665962 2.90172167 10.75855019 0 16 C-0.71033431 10.47032059 -1.30267176 5.50016964 0 0 Z " fill="#A56A46" transform="translate(779,495)"/>
<path d="M0 0 C0.33 0 0.66 0 1 0 C0.67 7.59 0.34 15.18 0 23 C-0.33 23 -0.66 23 -1 23 C-1.22314035 20.29216168 -1.42889462 17.58481976 -1.625 14.875 C-1.68945312 14.11445313 -1.75390625 13.35390625 -1.8203125 12.5703125 C-2.14331622 7.88675858 -1.85138316 4.42353381 0 0 Z " fill="#AD7959" transform="translate(761,367)"/>
<path d="M0 0 C3.3 1.65 6.6 3.3 10 5 C10 5.66 10 6.32 10 7 C5.52761347 5.58192622 1.28853694 3.88695626 -3 2 C-2.01 1.34 -1.02 0.68 0 0 Z " fill="#A15F3B" transform="translate(1012,141)"/>
<path d="M0 0 C1.32 0 2.64 0 4 0 C3.67 0.99 3.34 1.98 3 3 C2.34 3 1.68 3 1 3 C1 4.65 1 6.3 1 8 C0.01 8.33 -0.98 8.66 -2 9 C-1.125 1.125 -1.125 1.125 0 0 Z " fill="#EFE3DD" transform="translate(560,607)"/>
<path d="M0 0 C0 0.99 0 1.98 0 3 C-1.41303238 3.2506019 -2.83079474 3.47461921 -4.25 3.6875 C-5.03890625 3.81511719 -5.8278125 3.94273437 -6.640625 4.07421875 C-9.62827019 3.98023653 -10.80926883 2.95457437 -13 1 C-11.20843648 0.83222817 -9.4167455 0.66581706 -7.625 0.5 C-6.62726562 0.4071875 -5.62953125 0.314375 -4.6015625 0.21875 C-2 0 -2 0 0 0 Z " fill="#A46746" transform="translate(676,568)"/>
<path d="M0 0 C-1.5830577 4.2742558 -4.50568404 6.26531794 -8 9 C-8.66 8.67 -9.32 8.34 -10 8 C-8.71451591 6.66070495 -7.42141845 5.32871357 -6.125 4 C-5.04605469 2.88625 -5.04605469 2.88625 -3.9453125 1.75 C-2 0 -2 0 0 0 Z " fill="#974E27" transform="translate(452,421)"/>
<path d="M0 0 C0.66 0.66 1.32 1.32 2 2 C0.625 3.5 0.625 3.5 -1 5 C-1.66 5 -2.32 5 -3 5 C-3.33 5.66 -3.66 6.32 -4 7 C-4.99 6.34 -5.98 5.68 -7 5 C-4.69 3.35 -2.38 1.7 0 0 Z " fill="#9A5129" transform="translate(704,518)"/>
<path d="M0 0 C0 0.33 0 0.66 0 1 C-1.051875 1.0825 -2.10375 1.165 -3.1875 1.25 C-7.27047209 2.05320762 -9.0122727 3.19334709 -12 6 C-12.66 5.67 -13.32 5.34 -14 5 C-9.74404706 -0.49155218 -6.48540926 -0.63582444 0 0 Z " fill="#F2E9E5" transform="translate(761,492)"/>
<path d="M0 0 C0.33 0.99 0.66 1.98 1 3 C-2 5 -2 5 -5 5 C-5.33 5.66 -5.66 6.32 -6 7 C-6.66 6.34 -7.32 5.68 -8 5 C-4.04 2.525 -4.04 2.525 0 0 Z " fill="#9A522B" transform="translate(698,554)"/>
<path d="M0 0 C0.99 0.33 1.98 0.66 3 1 C1.6875 3.9375 1.6875 3.9375 0 7 C-0.99 7.33 -1.98 7.66 -3 8 C-1.125 2.25 -1.125 2.25 0 0 Z " fill="#9D5938" transform="translate(568,536)"/>
<path d="M0 0 C0.66 0.33 1.32 0.66 2 1 C0.68 2.65 -0.64 4.3 -2 6 C-0.68 6.33 0.64 6.66 2 7 C1.67 7.66 1.34 8.32 1 9 C-0.98 7.68 -2.96 6.36 -5 5 C-3.35 3.35 -1.7 1.7 0 0 Z " fill="#F2E8E3" transform="translate(700,460)"/>
<path d="M0 0 C0.33 1.32 0.66 2.64 1 4 C-1.97 6.475 -1.97 6.475 -5 9 C-5.99 8.34 -6.98 7.68 -8 7 C-7.05125 6.773125 -6.1025 6.54625 -5.125 6.3125 C-1.80676612 5.30916286 -1.80676612 5.30916286 -0.625 2.375 C-0.41875 1.59125 -0.2125 0.8075 0 0 Z " fill="#975835" transform="translate(1001,793)"/>
<path d="M0 0 C0.66 0.99 1.32 1.98 2 3 C0.68 5.31 -0.64 7.62 -2 10 C-2.66 10 -3.32 10 -4 10 C-2.8905928 6.51329166 -1.73662334 3.22515763 0 0 Z " fill="#9A5733" transform="translate(178,173)"/>
<path d="M0 0 C4.31392226 0.4793247 6.16569547 1.7457985 9 5 C4.98525763 5 3.18024863 3.33218233 0 1 C0 0.67 0 0.34 0 0 Z " fill="#9D5B36" transform="translate(648,723)"/>
<path d="M0 0 C2.97 0 5.94 0 9 0 C9 0.66 9 1.32 9 2 C9.66 2.33 10.32 2.66 11 3 C9.741875 2.87625 8.48375 2.7525 7.1875 2.625 C6.12595703 2.52058594 6.12595703 2.52058594 5.04296875 2.4140625 C3 2 3 2 0 0 Z " fill="#AB7352" transform="translate(520,552)"/>
<path d="M0 0 C5.75 0.75 5.75 0.75 8 3 C5.39417629 3.93065133 4.35801776 4.14917407 1.75 3.0625 C1.1725 2.711875 0.595 2.36125 0 2 C0 1.34 0 0.68 0 0 Z " fill="#944D2A" transform="translate(703,483)"/>
<path d="M0 0 C0.66 0.33 1.32 0.66 2 1 C1.71125 1.70125 1.4225 2.4025 1.125 3.125 C-0.02133588 6.05452503 -1.02625654 9.00921653 -2 12 C-3.12377697 8.69564916 -2.89554742 6.9493138 -1.5625 3.75 C-1.27503906 3.04359375 -0.98757813 2.3371875 -0.69140625 1.609375 C-0.46324219 1.07828125 -0.23507812 0.5471875 0 0 Z " fill="#DBC1B3" transform="translate(491,343)"/>
<path d="M0 0 C2.64 0.33 5.28 0.66 8 1 C8 1.66 8 2.32 8 3 C5.36 2.67 2.72 2.34 0 2 C0 1.34 0 0.68 0 0 Z " fill="#A05B34" transform="translate(841,704)"/>
<path d="M0 0 C0.66 0 1.32 0 2 0 C1.67 2.64 1.34 5.28 1 8 C0.34 8 -0.32 8 -1 8 C-0.67 5.36 -0.34 2.72 0 0 Z " fill="#995731" transform="translate(539,639)"/>
<path d="M0 0 C0.66 0.33 1.32 0.66 2 1 C0.515 4.465 0.515 4.465 -1 8 C-1.66 8 -2.32 8 -3 8 C-2.25 2.25 -2.25 2.25 0 0 Z " fill="#9F5E3C" transform="translate(625,551)"/>
<path d="M0 0 C-1.36983503 3.16115776 -1.9890638 3.9927092 -5 6 C-5.66 5.34 -6.32 4.68 -7 4 C-2.25 0 -2.25 0 0 0 Z " fill="#9C552E" transform="translate(771,472)"/>
</svg>
