<?xml version="1.0" encoding="UTF-8"?>
<svg version="1.1" xmlns="http://www.w3.org/2000/svg" width="1254" height="1254">
<path d="M0 0 C413.82 0 827.64 0 1254 0 C1254 413.82 1254 827.64 1254 1254 C840.18 1254 426.36 1254 0 1254 C0 840.18 0 426.36 0 0 Z " fill="none" transform="translate(0,0)"/>
<path d="M0 0 C8.97447098 5.00709814 14.25715759 11.31544606 17.48828125 21.0234375 C19.30999369 27.44691643 20.56441987 32.90184679 20.54296875 39.62109375 C20.54251053 40.32886459 20.54205231 41.03663544 20.5415802 41.76585388 C20.53858029 43.25578499 20.53076262 44.74571361 20.51831055 46.2355957 C20.50024072 48.46252169 20.49780028 50.6890244 20.49804688 52.91601562 C20.4747554 62.29616813 20.01078503 71.57375384 19.3125 80.9296875 C18.02787258 99.50278887 21.92524086 115.26546459 27.57714844 132.87402344 C32.23434359 147.41901946 36.48063655 162.08001489 40.71887207 176.75109863 C41.50808358 179.48128683 42.29928419 182.21089661 43.09057713 184.94048214 C46.5388989 196.83568979 49.97836807 208.7333241 53.37109375 220.64453125 C57.3248972 234.52420828 61.38399092 248.3734837 65.42895508 262.22680664 C67.43892112 269.11230789 69.4398024 276.00032293 71.42987061 282.89160156 C72.24048943 285.68182096 73.06562311 288.46727138 73.89501953 291.25195312 C76.22361493 299.1682961 78.21501347 306.73146528 78.0625 315.0546875 C78.04920654 316.42862671 78.04920654 316.42862671 78.03564453 317.83032227 C77.62773776 328.60413648 73.66756488 339.72520669 65.96875 347.546875 C53.82057862 357.68945205 42.8304143 358.88986843 27.5625 357.71875 C16.74435407 355.9801194 8.83713031 347.06927184 2.3125 338.9296875 C-0.71560749 334.45560422 -3.46037638 329.84104161 -6.1875 325.1796875 C-7.31282679 323.28629994 -8.4421974 321.39536272 -9.57168579 319.50445557 C-10.30358089 318.27845518 -11.03421686 317.05170215 -11.76351929 315.82415771 C-14.83372422 310.65907949 -18.05067711 305.61513343 -21.33203125 300.58203125 C-24.62362483 295.51247506 -27.80177036 290.37089801 -31 285.2421875 C-40.29916131 270.33934583 -49.67666501 255.48841439 -59.125 240.6796875 C-59.79974365 239.61951416 -60.4744873 238.55934082 -61.16967773 237.46704102 C-63.90281798 233.19105969 -66.62499452 228.95545593 -69.66015625 224.88671875 C-71.6875 221.9296875 -71.6875 221.9296875 -71.6875 218.8671875 C-70.6875 215.9296875 -70.6875 215.9296875 -69.125 213.0546875 C-67.21190343 208.89578192 -67.16529717 206.48031218 -67.6875 201.9296875 C-69.76005443 199.47332669 -71.05119034 199.04104169 -74.1875 198.4921875 C-77.62936955 199.09451467 -78.45119205 200.22922536 -80.6875 202.9296875 C-82.18978857 205.77482005 -83.38764324 208.72636361 -84.59375 211.70703125 C-85.13594933 213.01267532 -85.13594933 213.01267532 -85.68910217 214.34469604 C-86.86465628 217.18173747 -88.02613079 220.02431354 -89.1875 222.8671875 C-89.99770723 224.8300468 -90.80882942 226.79252868 -91.62084961 228.75463867 C-93.23808109 232.66661098 -94.8498983 236.58073828 -96.45654297 240.49707031 C-98.36723478 245.15384221 -100.29029315 249.80530971 -102.22265625 254.453125 C-105.97101584 263.47415638 -109.70393029 272.50116035 -113.3828125 281.55078125 C-113.8048999 282.58807373 -114.2269873 283.62536621 -114.66186523 284.6940918 C-115.44772508 286.62813889 -116.23124207 288.56314029 -117.01196289 290.49926758 C-117.35219482 291.3373999 -117.69242676 292.17553223 -118.04296875 293.0390625 C-118.33840576 293.77092773 -118.63384277 294.50279297 -118.93823242 295.25683594 C-119.6875 296.9296875 -119.6875 296.9296875 -120.6875 297.9296875 C-129.59954347 298.40072067 -138.3519863 297.70112032 -147.1875 296.6171875 C-158.52941022 295.31556791 -169.86846195 294.30110365 -181.25 293.4296875 C-182.8518976 293.30578787 -184.45378561 293.18176419 -186.05566406 293.05761719 C-189.29047304 292.80739629 -192.52534077 292.55795265 -195.76025391 292.30908203 C-197.4026697 292.18262277 -199.04508506 292.05615786 -200.6875 291.9296875 C-201.52295349 291.86545593 -202.35840698 291.80122437 -203.21917725 291.73504639 C-208.17995887 291.3525154 -213.13983607 290.96052795 -218.09884644 290.55566406 C-219.64962207 290.43068409 -221.20067246 290.30906479 -222.75198364 290.19091797 C-224.8927183 290.02758614 -227.03225824 289.85307696 -229.171875 289.67578125 C-230.99283691 289.53160767 -230.99283691 289.53160767 -232.85058594 289.38452148 C-235.6875 288.9296875 -235.6875 288.9296875 -237.6875 286.9296875 C-239.08781445 275.58590791 -236.98900817 263.1754557 -236.19140625 251.83203125 C-236.03653569 249.5886912 -235.8819953 247.34532833 -235.72776794 245.10194397 C-235.40490574 240.41763956 -235.07939054 235.73353026 -234.75170898 231.04956055 C-234.33338525 225.06956681 -233.91966896 219.08926632 -233.50769138 213.10883236 C-233.11219746 207.37062089 -232.71438169 201.63257106 -232.31640625 195.89453125 C-232.24156069 194.81258924 -232.16671513 193.73064724 -232.08960152 192.61591911 C-231.87554078 189.52762864 -231.65982819 186.439458 -231.44360352 183.35131836 C-231.38174362 182.4559436 -231.31988373 181.56056885 -231.25614929 180.63806152 C-230.87216288 175.18458837 -230.41227445 169.74204622 -229.89950466 164.29914188 C-229.64972617 161.50751114 -229.48754413 158.73215868 -229.4375 155.9296875 C-229.41171875 155.0428125 -229.3859375 154.1559375 -229.359375 153.2421875 C-229.51979868 150.8925736 -229.51979868 150.8925736 -230.91015625 149.12890625 C-233.21017687 147.5770242 -234.6258412 147.62265886 -237.375 147.7421875 C-238.18324219 147.76925781 -238.99148438 147.79632812 -239.82421875 147.82421875 C-240.43910156 147.85902344 -241.05398438 147.89382813 -241.6875 147.9296875 C-242.84875894 151.41346432 -243.0607819 154.72904731 -243.30419922 158.36230469 C-243.35804779 159.11939728 -243.41189636 159.87648987 -243.46737671 160.65652466 C-243.64595064 163.17962917 -243.81900922 165.70308237 -243.9921875 168.2265625 C-244.11771554 170.01217256 -244.24362814 171.79775562 -244.36990356 173.58331299 C-244.70419019 178.32252291 -245.03400576 183.06203304 -245.3626709 187.80163574 C-245.87841401 195.22965973 -246.40054321 202.65723747 -246.92298126 210.08479309 C-247.11768643 212.85867051 -247.31103044 215.63264077 -247.5043335 218.40661621 C-248.14392692 227.54105731 -248.81485679 236.67168801 -249.55175781 245.79882812 C-249.62193933 246.67588535 -249.69212086 247.55294258 -249.76442909 248.4565773 C-250.09448193 252.57832043 -250.43056481 256.69935302 -250.77975464 260.81951904 C-251.39540921 268.29061085 -251.82802022 275.73964334 -251.90576172 283.23730469 C-251.91918169 283.93879261 -251.93260166 284.64028053 -251.9464283 285.36302567 C-251.94779026 290.19808957 -251.12510679 293.58628776 -248.26953125 297.484375 C-242.99475079 302.30331023 -237.6803284 302.74632539 -230.8125 303.4921875 C-229.75401855 303.61513184 -228.69553711 303.73807617 -227.60498047 303.86474609 C-213.74945118 305.43666956 -199.86803888 306.72108241 -185.9375 307.3671875 C-178.54119619 307.71290351 -171.22760671 308.50538969 -163.875 309.3671875 C-154.56893393 310.45558583 -145.2887005 311.28706552 -135.9375 311.8671875 C-124.80546506 312.5763325 -113.70774301 313.50874051 -102.60803223 314.60964966 C-100.88937761 314.77936328 -99.1703842 314.94568534 -97.4510498 315.10836792 C-82.69203683 316.51306694 -70.79285869 317.98736352 -60.3125 329.4296875 C-55.68789389 335.223012 -55.25134994 340.82244161 -55.359375 348.078125 C-55.93213772 353.05570577 -58.19902862 355.44121612 -61.6875 358.9296875 C-64.51647738 359.13192647 -67.24813554 359.20768 -70.07868958 359.19711304 C-70.95735693 359.20164415 -71.83602429 359.20617526 -72.74131793 359.21084368 C-75.70365577 359.22356532 -78.66581159 359.22186228 -81.62817383 359.22021484 C-83.74528237 359.22619565 -85.86238873 359.23300016 -87.97949219 359.24057007 C-93.74660321 359.25829267 -99.51365495 359.26292835 -105.28079057 359.26420164 C-110.09623808 359.26609832 -114.91167172 359.27345403 -119.7271139 359.28054583 C-131.09697302 359.29685463 -142.46680045 359.30171289 -153.83666992 359.30029297 C-165.55173009 359.299094 -177.26660529 359.3201413 -188.9816187 359.3517803 C-199.04293425 359.37798154 -209.10418959 359.3886585 -219.16553897 359.38738215 C-225.17263348 359.38687322 -231.17956407 359.39251687 -237.18662453 359.41373825 C-242.84604339 359.43318276 -248.50514319 359.43320252 -254.16457367 359.41870499 C-256.23448086 359.41662281 -258.30440832 359.42128227 -260.37428093 359.4334259 C-276.19202773 359.52016194 -289.03330963 358.500169 -301.6875 347.9296875 C-302.40808594 347.33285156 -303.12867188 346.73601562 -303.87109375 346.12109375 C-309.56396454 340.94477835 -312.65523804 334.93092929 -315.6875 327.9296875 C-316.05101562 327.10855469 -316.41453125 326.28742188 -316.7890625 325.44140625 C-319.08500963 319.02273668 -318.84435142 312.45041568 -318.86108398 305.72363281 C-318.867771 304.60430862 -318.87445801 303.48498444 -318.88134766 302.33174133 C-318.89536952 299.90747401 -318.90727262 297.48319371 -318.91729546 295.05890656 C-318.93372645 291.22686489 -318.95696171 287.39492047 -318.98219299 283.56292725 C-319.05293729 272.67009302 -319.11331912 261.77722168 -319.16430664 250.88427734 C-319.19559025 244.21835856 -319.23725742 237.55256906 -319.28450203 230.88674164 C-319.30056009 228.34294442 -319.31286395 225.79912072 -319.32140923 223.25528717 C-319.33349956 219.70945957 -319.35761931 216.16390564 -319.38452148 212.61816406 C-319.38511063 211.55944595 -319.38569977 210.50072784 -319.38630676 209.40992737 C-319.39602509 208.44822128 -319.40574341 207.4865152 -319.41575623 206.4956665 C-319.41998816 205.65725346 -319.4242201 204.81884041 -319.42858028 203.9550209 C-319.50664772 201.70271891 -319.50664772 201.70271891 -321.6875 199.9296875 C-326.8142138 199.24983461 -326.8142138 199.24983461 -331.28698158 201.16202641 C-333.09028048 203.43805596 -333.06451915 204.69140098 -333.06845093 207.57554626 C-333.0769104 208.52995605 -333.08536987 209.48436584 -333.09408569 210.46769714 C-333.088013 211.51339371 -333.08194031 212.55909027 -333.07568359 213.63647461 C-333.08094055 214.73929779 -333.08619751 215.84212097 -333.09161377 216.97836304 C-333.104856 220.63806173 -333.09605503 224.29732781 -333.0859375 227.95703125 C-333.08795831 230.50232527 -333.09086981 233.04761873 -333.09463501 235.59291077 C-333.09906517 240.93871075 -333.09289603 246.28435561 -333.07861328 251.63012695 C-333.06236081 257.78360041 -333.06751892 263.93677449 -333.0840925 270.09024042 C-333.09944078 276.0292003 -333.09769388 281.96806853 -333.0889473 287.90704536 C-333.08695447 290.42306117 -333.08937209 292.93908466 -333.09638596 295.45509148 C-333.10407045 298.98971091 -333.09229474 302.52377138 -333.07568359 306.05834961 C-333.08175629 307.08582809 -333.08782898 308.11330658 -333.09408569 309.17192078 C-332.94380446 326.57770755 -326.10095244 342.88574186 -314.6875 355.9296875 C-314.0275 356.2596875 -313.3675 356.5896875 -312.6875 356.9296875 C-312.6875 357.5896875 -312.6875 358.2496875 -312.6875 358.9296875 C-344.0375 358.9296875 -375.3875 358.9296875 -407.6875 358.9296875 C-405.40040499 332.62809487 -405.40040499 332.62809487 -403.1875 321.8671875 C-402.74130754 319.58896794 -402.29727174 317.31032486 -401.85546875 315.03125 C-401.54681885 313.45005371 -401.54681885 313.45005371 -401.23193359 311.83691406 C-400.34582169 307.10515594 -399.713178 302.35397256 -399.08203125 297.58203125 C-398.64928625 294.67278513 -397.99150331 291.90135356 -397.20678711 289.07055664 C-396.61637998 286.63648042 -396.2424768 284.21093647 -395.8671875 281.734375 C-394.56582407 273.79269043 -392.68435468 266.00080735 -390.8125 258.1796875 C-390.46971118 256.7318515 -390.12726198 255.28393506 -389.78515625 253.8359375 C-387.79382221 245.43177962 -385.73127142 237.04692063 -383.625 228.67089844 C-382.76766723 225.24960486 -381.92506682 221.82518394 -381.08984375 218.3984375 C-380.84556641 217.40328125 -380.60128906 216.408125 -380.34960938 215.3828125 C-379.85908147 213.38367992 -379.3722071 211.38364792 -378.88867188 209.3828125 C-377.65214548 204.37110871 -376.27619953 199.56057491 -374.38208008 194.75878906 C-373.23940474 191.74967708 -372.42513074 188.65376832 -371.5625 185.5546875 C-365.16832955 163.40550027 -356.79244413 142.07781168 -347.6875 120.9296875 C-347.31238281 120.0432959 -346.93726563 119.1569043 -346.55078125 118.24365234 C-334.10112693 88.98577218 -310.83183806 67.59831687 -281.75878906 55.10058594 C-264.24114361 48.06199785 -246.59629064 45.58037906 -227.875 45.8046875 C-226.39258426 45.81475098 -224.91016181 45.8238708 -223.42773438 45.83203125 C-219.84751326 45.85374675 -216.26755192 45.88808504 -212.6875 45.9296875 C-212.52930786 46.89624268 -212.52930786 46.89624268 -212.36791992 47.88232422 C-211.87701268 50.85760031 -211.37606313 53.83110558 -210.875 56.8046875 C-210.6265332 58.32449219 -210.6265332 58.32449219 -210.37304688 59.875 C-205.9434721 85.95098736 -191.52165087 108.6430924 -170.6875 124.9296875 C-153.8744511 136.76567774 -136.28587353 143.1173925 -115.72485352 143.11499023 C-113.65554564 143.11715554 -111.58679038 143.13527702 -109.51757812 143.15429688 C-101.38295012 143.18871134 -93.65533364 142.60144572 -85.6875 140.9296875 C-84.76702881 140.73818115 -83.84655762 140.5466748 -82.89819336 140.34936523 C-66.47795569 136.71472388 -50.0301911 125.97715793 -37.6875 114.9296875 C-37.3575 114.2696875 -37.0275 113.6096875 -36.6875 112.9296875 C-36.0275 112.9296875 -35.3675 112.9296875 -34.6875 112.9296875 C-34.57680176 113.80592773 -34.46610352 114.68216797 -34.35205078 115.58496094 C-33.93269936 118.89526254 -33.51121749 122.20527942 -33.08837891 125.51513672 C-32.90721132 126.93658078 -32.72684715 128.35812751 -32.54736328 129.77978516 C-31.68556673 136.60194 -30.81027088 143.40877029 -29.62109375 150.18359375 C-28.59449266 156.140103 -28.07513388 162.09322199 -27.625 168.1171875 C-27.47154716 170.15265694 -27.31421939 172.18783933 -27.15234375 174.22265625 C-27.086521 175.1046167 -27.02069824 175.98657715 -26.95288086 176.89526367 C-26.89880247 178.92161924 -26.89880247 178.92161924 -25.6875 179.9296875 C-25.41134472 181.84521981 -25.19509185 183.76944287 -25.00390625 185.6953125 C-24.81924805 187.49742187 -24.81924805 187.49742187 -24.63085938 189.3359375 C-24.50517578 190.604375 -24.37949219 191.8728125 -24.25 193.1796875 C-23.53287967 200.3736565 -22.79079009 207.53515419 -21.6484375 214.67578125 C-20.73970037 220.35679536 -20.18744788 226.00851448 -19.75 231.7421875 C-19.08289516 239.79711628 -17.97321362 247.58138805 -16.3359375 255.4921875 C-15.7526795 258.5841576 -15.44142012 261.54404356 -15.25 264.6796875 C-14.97907541 267.83516211 -14.75621739 268.82661141 -12.9375 271.5546875 C-10.17049998 273.24563196 -8.87214612 273.56661672 -5.6875 272.9296875 C-3.1506891 271.7314358 -3.1506891 271.7314358 -1.6875 268.9296875 C-0.89318626 263.26162155 -1.66485695 257.66150848 -2.59765625 252.0546875 C-3.70195156 245.07382246 -4.49929327 238.07139555 -5.26226807 231.04705811 C-6.8878607 216.14127096 -8.80671479 201.29069386 -10.93676758 186.44897461 C-12.0173315 178.9011225 -13.01391806 171.35319551 -13.88404846 163.77812195 C-14.94678372 154.57842016 -16.14977551 145.39663554 -17.34692383 136.21362305 C-17.75523463 133.07697498 -18.15987388 129.93986568 -18.56445312 126.80273438 C-18.82529825 124.79684604 -19.08635782 122.79098558 -19.34765625 120.78515625 C-19.46746353 119.85293747 -19.58727081 118.92071869 -19.71070862 117.96025085 C-19.82430222 117.09446915 -19.93789581 116.22868744 -20.05493164 115.33666992 C-20.20243614 114.20112923 -20.20243614 114.20112923 -20.35292053 113.04264832 C-20.68229002 110.96258995 -21.17064245 108.96978602 -21.6875 106.9296875 C-22.92352871 95.32867514 -20.04176022 83.57448642 -15.85009766 72.77148438 C-11.82919933 62.26656246 -13.49719347 52.7073886 -17 42.3046875 C-17.62117463 40.37502603 -18.24226904 38.44533874 -18.86328125 36.515625 C-19.16758057 35.58645264 -19.47187988 34.65728027 -19.78540039 33.69995117 C-20.67323659 30.97348909 -21.54423034 28.24351891 -22.390625 25.50390625 C-22.63071289 24.73135498 -22.87080078 23.95880371 -23.11816406 23.1628418 C-24.80091098 16.56246186 -23.99382856 10.93974784 -20.93359375 4.8828125 C-16.24532568 -2.46557005 -7.58599917 -3.02116827 0 0 Z " fill="#FDFCFC" transform="translate(749.6875,585.0703125)"/>
<path d="M0 0 C1.03382813 0.74894531 2.06765625 1.49789062 3.1328125 2.26953125 C7.07749816 5.02856353 9.86455805 6.29131524 14.625 6.875 C20.50703728 7.93812377 23.82379951 10.96705876 27.875 15.1875 C28.205 15.5175 28.535 15.8475 28.875 16.1875 C28.65180935 19.23929054 28.28876244 22.26561522 27.93359375 25.3046875 C27.59621744 28.38844439 27.59621744 28.38844439 29.875 31.1875 C32.42071715 31.3047172 34.78077367 31.26943805 37.3125 31.125 C49.42286585 30.7973635 58.98709537 34.94332478 67.96484375 43.08203125 C82.44719822 58.06473578 84.38373102 76.49083475 84.125 96.25 C84.11308427 97.99779716 84.10202141 99.74560033 84.09179688 101.4934082 C84.01457958 111.67947745 83.79024878 121.84703535 83.09375 132.01171875 C83.01479653 133.40331646 82.94242735 134.79529621 82.875 136.1875 C82.82843262 137.09056885 82.78186523 137.9936377 82.73388672 138.92407227 C82.5129527 146.6750688 83.8383386 153.33313945 86 160.75 C86.31622314 161.87825195 86.63244629 163.00650391 86.95825195 164.16894531 C89.2772468 172.3582768 91.76953455 180.48974166 94.41796875 188.578125 C95.94549911 193.31638123 97.29289221 198.10174756 98.65014648 202.89111328 C100.12619913 208.08692421 101.63990575 213.27171706 103.15234375 218.45703125 C103.44781601 219.4701236 103.74328827 220.48321594 104.04771423 221.52700806 C104.65950551 223.62392546 105.27145119 225.72079782 105.88354492 227.81762695 C106.80756896 230.98310746 107.73098164 234.14876581 108.65429688 237.31445312 C109.25776035 239.38282772 109.86127538 241.45118727 110.46484375 243.51953125 C110.75868958 244.52654587 111.0525354 245.53356049 111.35528564 246.5710907 C112.89489057 251.84360861 114.44208194 257.11377343 115.99913025 262.38116455 C117.99897925 269.14958973 119.92997648 275.9308166 121.75 282.75 C126.35035038 299.77445663 131.35334 316.68066061 136.56616211 333.52709961 C137.35070949 336.07635834 138.11643201 338.63040866 138.875 341.1875 C139.08398926 341.856604 139.29297852 342.52570801 139.50830078 343.21508789 C141.16963138 348.99289205 141.17175149 354.64470466 141.125 360.625 C141.13273438 361.61048828 141.14046875 362.59597656 141.1484375 363.61132812 C141.10762538 379.00769991 135.9793922 394.0831078 124.875 405.1875 C125.57129863 405.18896656 126.26759726 405.19043312 126.98499584 405.19194412 C143.92764185 405.2289961 160.87005492 405.28798923 177.81253338 405.37140274 C186.00580359 405.41121186 194.19897749 405.44359479 202.39233398 405.45849609 C209.53369153 405.47150296 216.67483733 405.49844274 223.81607562 405.54211307 C227.59734768 405.56474986 231.37835838 405.58040937 235.15970421 405.57938385 C238.71966718 405.57863852 242.27905191 405.59653698 245.83886528 405.62866783 C247.76659001 405.64123386 249.6944117 405.63409282 251.62216187 405.62635803 C252.77336014 405.64027084 253.92455841 405.65418365 255.11064148 405.66851807 C256.10894328 405.67220524 257.10724508 405.67589241 258.13579845 405.67969131 C261.66806718 406.33452328 263.36020627 407.65949014 265.875 410.1875 C266.47926877 413.94739455 266.5471383 416.10783092 264.51332241 419.37478971 C260.30639422 422.26524085 256.08722731 421.73552463 251.09934139 421.69086456 C249.98298655 421.69667833 248.8666317 421.70249209 247.71644792 421.70848203 C243.9427442 421.72318193 240.16968076 421.70914966 236.39598083 421.69543457 C233.67641061 421.69782179 230.95686644 421.70622486 228.23730808 421.71434355 C222.30754459 421.72881789 216.37792664 421.72833527 210.44815636 421.71815491 C201.63063156 421.70305773 192.8132301 421.71074275 183.9957062 421.72298814 C168.2501885 421.7440799 152.50473561 421.74221417 136.7592117 421.73067249 C122.9809222 421.72062201 109.2026565 421.71797796 95.42436409 421.72276306 C94.51147189 421.7230686 93.5985797 421.72337414 92.6580241 421.72368894 C88.9525848 421.72493423 85.2471455 421.72620783 81.54170622 421.727528 C46.76189604 421.73977181 11.98212721 421.7286576 -22.79767659 421.70714041 C-53.71955068 421.68815552 -84.6413589 421.68985693 -115.56323242 421.70898438 C-150.27973137 421.73038714 -184.99619377 421.73890518 -219.7126984 421.72653532 C-223.41119221 421.72525239 -227.10968603 421.72400103 -230.80817986 421.72276306 C-231.71888775 421.72244675 -232.62959565 421.72213044 -233.56790075 421.72180455 C-247.34059641 421.71724829 -261.11326571 421.72258755 -274.88595772 421.73268127 C-290.54014701 421.74409649 -306.19426118 421.74130568 -321.84844107 421.7195583 C-330.61727156 421.70777928 -339.38593951 421.70709494 -348.1547659 421.722143 C-354.00352242 421.73107592 -359.85214793 421.72559717 -365.70088495 421.70812392 C-369.0390552 421.69855914 -372.37663311 421.69762654 -375.71483595 421.70974785 C-379.30193671 421.72178127 -382.88813048 421.7095696 -386.47518253 421.69086456 C-388.04754136 421.70491156 -388.04754136 421.70491156 -389.651665 421.71924233 C-390.60200392 421.70922826 -391.55234283 421.69921419 -392.5314799 421.68889666 C-393.35244685 421.68862562 -394.1734138 421.68835458 -395.01925853 421.68807533 C-397.125 421.1875 -397.125 421.1875 -398.88475126 419.37491271 C-400.71356394 416.14945643 -400.57976099 413.82558793 -400.125 410.1875 C-398.80078125 407.984375 -398.80078125 407.984375 -396.125 406.1875 C-392.3647738 405.68987382 -388.65941898 405.81263338 -384.875 405.9375 C-383.84375 405.95554687 -382.8125 405.97359375 -381.75 405.9921875 C-379.20738936 406.03927288 -376.66666838 406.1050195 -374.125 406.1875 C-374.06908691 405.38578369 -374.01317383 404.58406738 -373.95556641 403.75805664 C-373.75332366 400.9216141 -373.53061301 398.08735337 -373.29589844 395.25341797 C-373.18166265 393.87247052 -373.07034946 392.49127829 -372.96191406 391.10986328 C-371.89051221 377.86261495 -369.44466163 365.03678074 -366.71679688 352.04003906 C-365.91180234 348.15985912 -365.16306252 344.27071262 -364.4375 340.375 C-364.12232422 338.69470703 -364.12232422 338.69470703 -363.80078125 336.98046875 C-363.2394904 333.83010221 -362.71612661 330.67793094 -362.203125 327.51953125 C-356.89719718 295.5822612 -349.72562887 261.38246996 -338.15234375 231.078125 C-336.61260716 226.7457863 -335.37065089 222.33075726 -334.13867188 217.90209961 C-319.96509942 167.98621199 -298.86971018 120.75308352 -252.2734375 94.36376953 C-240.93600116 88.15652313 -228.58185594 84.43092671 -216.125 81.1875 C-215.43583496 81.00525879 -214.74666992 80.82301758 -214.03662109 80.63525391 C-197.5699868 76.51757103 -179.96072978 77.91369122 -163.125 78.1875 C-163.16052979 77.51960449 -163.19605957 76.85170898 -163.23266602 76.16357422 C-163.44774625 68.98127405 -162.35960379 63.09287512 -160.0625 56.3125 C-159.74522949 55.35359863 -159.42795898 54.39469727 -159.10107422 53.40673828 C-149.52537305 25.38018039 -128.42175647 3.74259045 -102.1875 -9.4375 C-68.70345089 -23.61499478 -29.99733649 -21.12711043 0 0 Z M27.875 51.1875 C24.70009658 56.4221078 23.95528021 62.20502364 24.875 68.1875 C26.32792078 73.59260446 28.10203522 78.88050475 29.875 84.1875 C33.98016739 96.56361538 37.14044032 107.02461733 32.69482422 119.80078125 C27.03945624 136.26500917 25.97877442 149.95756075 28.88671875 167.12890625 C30.19401415 174.96046091 31.2812639 182.82389523 32.375 190.6875 C32.48377472 191.46756409 32.59254944 192.24762817 32.70462036 193.05133057 C34.2540806 204.20543109 35.6619807 215.36530655 36.79882812 226.5703125 C37.47287397 233.08463945 38.3469124 239.55273463 39.296875 246.03125 C40.95893304 257.40990569 42.24871729 268.82001375 43.5 280.25 C43.82439229 283.20645922 44.14980782 286.16278664 44.47860718 289.11875916 C44.6804631 290.93370643 44.87983869 292.74893188 45.07632446 294.56446838 C45.21184219 295.78371254 45.21184219 295.78371254 45.35009766 297.02758789 C45.42765289 297.73702042 45.50520813 298.44645294 45.58511353 299.17738342 C45.88109604 301.22977089 46.36691722 303.1786963 46.875 305.1875 C47.727215 314.68760161 47.727215 314.68760161 45.3125 318.9375 C41.80321869 320.73713144 39.61088519 320.22524589 35.875 319.1875 C33.34414187 315.39121281 33.26109308 311.92219574 32.875 307.5 C32.41393328 302.34715246 31.72278594 297.6028363 30.37890625 292.5925293 C29.16601827 286.80369232 28.88134469 280.82532628 28.375 274.9375 C27.64686872 266.55897555 26.80500647 258.26632246 25.33447266 249.97900391 C24.59846981 245.50745417 24.20652474 241.01243981 23.8125 236.5 C23.65901749 234.74573294 23.50168615 232.99179681 23.33984375 231.23828125 C23.274021 230.48200439 23.20819824 229.72572754 23.14038086 228.9465332 C23.04948811 227.16408521 23.04948811 227.16408521 21.875 226.1875 C21.69463228 224.77622153 21.57477674 223.35712863 21.48046875 221.9375 C21.41408203 221.03153076 21.34769531 220.12556152 21.27929688 219.19213867 C21.17198242 217.70484253 21.17198242 217.70484253 21.0625 216.1875 C20.29562435 206.43667607 18.97020897 196.87404777 17.34545898 187.23266602 C15.84192064 178.24620391 14.75504182 169.25424663 13.875 160.1875 C13.215 160.1875 12.555 160.1875 11.875 160.1875 C10.74868587 161.31381413 9.62519863 162.44302748 8.51171875 163.58203125 C2.29696532 169.6781259 -4.62936004 174.25919496 -12.1875 178.5 C-12.93088623 178.92047607 -13.67427246 179.34095215 -14.44018555 179.77416992 C-21.40062573 183.58086398 -28.56417123 185.90674954 -36.25 187.8125 C-37.20132812 188.05226563 -38.15265625 188.29203125 -39.1328125 188.5390625 C-66.31764802 194.43029317 -93.12060841 190.09153838 -116.8125 175.9375 C-123.20278809 171.69313332 -128.68325949 166.55459386 -134.125 161.1875 C-135.33349609 159.99833984 -135.33349609 159.99833984 -136.56640625 158.78515625 C-143.0538106 152.0044084 -147.5144247 144.28841041 -152.125 136.1875 C-152.64320313 135.39214844 -153.16140625 134.59679687 -153.6953125 133.77734375 C-155.67876404 130.18437006 -156.89314023 126.46817319 -158.125 122.5625 C-158.51582764 121.33116333 -158.51582764 121.33116333 -158.91455078 120.07495117 C-161.5928588 111.25529459 -162.96008274 102.31268523 -164.125 93.1875 C-188.33296977 92.43223131 -188.33296977 92.43223131 -212.125 96.1875 C-213.35089844 96.4659375 -214.57679688 96.744375 -215.83984375 97.03125 C-245.64510152 104.16728695 -273.68350292 122.88239176 -289.8359375 149.1875 C-302.49900925 170.85280619 -310.54297845 195.23531913 -318.6875 218.875 C-318.94729645 219.62579834 -319.2070929 220.37659668 -319.47476196 221.15014648 C-321.88002791 228.12381887 -324.25723179 235.0180863 -325.68310547 242.27099609 C-326.14745155 244.28487275 -326.80552008 246.1069195 -327.56640625 248.02734375 C-329.57679898 253.13472567 -330.78064274 258.42196199 -332.0625 263.75 C-333.66093497 270.32038634 -335.29706886 276.87347626 -337.05859375 283.40234375 C-339.07340731 290.91384904 -340.94213029 298.4540662 -342.73486328 306.02148438 C-343.0784804 307.46630477 -343.42549132 308.91032221 -343.77587891 310.35351562 C-345.92499593 319.2058786 -347.59675293 327.89984503 -348.6887207 336.95141602 C-349.04006494 339.55749766 -349.4858789 341.99242623 -350.16015625 344.52734375 C-351.3149095 348.90792592 -351.94277657 353.26821936 -352.5625 357.75 C-353.41383087 363.72351406 -354.37912482 369.60570372 -355.6875 375.5 C-357.5794414 385.61777359 -358.233309 395.93305356 -359.125 406.1875 C-327.775 406.1875 -296.425 406.1875 -264.125 406.1875 C-263.89254835 403.88866241 -263.89254835 403.88866241 -266.375 401.875 C-267.2825 400.988125 -268.19 400.10125 -269.125 399.1875 C-272.35438432 395.48473204 -274.62458479 391.58880229 -276.75 387.1875 C-277.0490625 386.58421875 -277.348125 385.9809375 -277.65625 385.359375 C-282.84074219 374.80686878 -284.42771171 365.25948675 -284.3996582 353.54321289 C-284.40476913 352.42491089 -284.40988007 351.30660889 -284.41514587 350.15441895 C-284.42895108 346.48960905 -284.42809321 342.82498891 -284.42578125 339.16015625 C-284.4296706 336.60330638 -284.43400577 334.04645716 -284.43876648 331.48960876 C-284.44620722 326.14791494 -284.44609042 320.80629012 -284.44067383 315.46459961 C-284.43461025 309.29093362 -284.44701649 303.11749416 -284.4682439 296.94386679 C-284.48795958 290.99045832 -284.49103765 285.03712039 -284.48750877 279.08367729 C-284.48802309 276.55463565 -284.49328131 274.02559045 -284.50332069 271.49656868 C-284.51560256 267.97287348 -284.508945 264.4497115 -284.49731445 260.92602539 C-284.50495819 259.87718674 -284.51260193 258.82834808 -284.52047729 257.74772644 C-284.51346298 256.79042633 -284.50644867 255.83312622 -284.4992218 254.84681702 C-284.49938954 254.01452104 -284.49955729 253.18222506 -284.49973011 252.32470798 C-284.03733418 249.68751323 -283.22260727 248.80209791 -281.125 247.1875 C-278.32618956 246.6720755 -276.00740605 246.95873762 -273.125 247.1875 C-270.65726226 249.65523774 -270.87190103 250.34455544 -270.85998535 253.74002075 C-270.85171219 254.69883652 -270.84343903 255.65765228 -270.83491516 256.64552307 C-270.83589706 257.70109909 -270.83687897 258.75667511 -270.83789062 259.84423828 C-270.83105759 260.95334061 -270.82422455 262.06244293 -270.81718445 263.20515442 C-270.80356546 265.6207386 -270.79453215 268.03635187 -270.78947449 270.45196915 C-270.78120855 274.27699137 -270.76072233 278.10177216 -270.73693848 281.92672729 C-270.68860921 290.05528626 -270.65567953 298.18386008 -270.625 306.3125 C-270.58946469 315.71022035 -270.54732281 325.10781311 -270.48905945 334.50542831 C-270.46901827 338.2699209 -270.46067467 342.03432387 -270.45275879 345.79885864 C-270.43978045 348.11737387 -270.42625927 350.43588615 -270.41210938 352.75439453 C-270.41309128 353.79782516 -270.41407318 354.8412558 -270.41508484 355.91630554 C-270.29894371 369.61396005 -266.16640373 381.99166194 -256.51171875 391.93359375 C-245.9187799 401.93707283 -235.93071032 406.327267 -221.31921387 406.34812927 C-220.43233871 406.35321709 -219.54546355 406.35830491 -218.63171339 406.36354691 C-215.66007606 406.37924274 -212.68846301 406.3877887 -209.71679688 406.39624023 C-207.58626655 406.40578056 -205.45573777 406.4156718 -203.32521057 406.42588806 C-196.33140901 406.4572368 -189.33759566 406.47752808 -182.34375 406.49609375 C-180.55936303 406.50103973 -180.55936303 406.50103973 -178.73892784 406.50608563 C-167.52381079 406.53685177 -156.30869104 406.56356098 -145.09354401 406.58050442 C-130.74220354 406.60244052 -116.39123575 406.64448911 -102.04004431 406.71394199 C-91.9507789 406.76111637 -81.86161433 406.78542875 -71.77224207 406.7927013 C-65.74409438 406.79766515 -59.71636712 406.81281755 -53.68833923 406.8524456 C-48.02143257 406.88921166 -42.35518827 406.89775444 -36.68818474 406.88443947 C-34.60682975 406.88449357 -32.52544612 406.89485339 -30.44420052 406.9161911 C-27.60558883 406.94374217 -24.76941519 406.93442313 -21.93078613 406.91575623 C-21.10442516 406.93255115 -20.27806418 406.94934608 -19.42666197 406.96664995 C-15.14089786 406.91858073 -15.14089786 406.91858073 -11.50743771 404.87339222 C-6.4184777 398.90758093 -6.60949781 393.74495661 -7.125 386.1875 C-9.50259846 377.79597601 -15.60030222 371.74588146 -22.83984375 367.1953125 C-28.72834362 364.59833307 -35.07201066 363.81197719 -41.41796875 363.1875 C-42.1935463 363.10696884 -42.96912384 363.02643768 -43.76820374 362.94346619 C-46.28235253 362.6849228 -48.79731393 362.43573347 -51.3125 362.1875 C-52.17814575 362.10001495 -53.0437915 362.01252991 -53.93566895 361.9223938 C-66.24323987 360.67897157 -78.54197321 359.67487786 -90.88891602 358.90625 C-99.99673033 358.32059628 -109.03065981 357.35903699 -118.09350586 356.29492188 C-128.26622705 355.12031505 -138.45064823 354.36986133 -148.6640625 353.65234375 C-157.34468649 353.04006592 -166.00977836 352.28682985 -174.66943359 351.42871094 C-176.28638372 351.2698775 -177.90390447 351.11673378 -179.52197266 350.96972656 C-181.72507228 350.76762442 -183.92477704 350.5435866 -186.125 350.3125 C-187.341875 350.19132812 -188.55875 350.07015625 -189.8125 349.9453125 C-195.20961914 348.71059421 -198.16401795 346.59610206 -201.28005981 342.02862549 C-203.38014595 338.19103675 -203.63703264 334.67589215 -203.45654297 330.36230469 C-203.44063047 329.6259013 -203.42471798 328.88949791 -203.40832329 328.13077927 C-203.20524467 320.66218491 -202.65255386 313.21352096 -202.02175522 305.77059174 C-201.66314761 301.53378342 -201.32841184 297.29504246 -200.98925781 293.05664062 C-200.91773184 292.17073116 -200.84620586 291.2848217 -200.77251244 290.3720665 C-200.03676308 281.21431119 -199.38687826 272.05099727 -198.74822235 262.8860321 C-198.55520918 260.11685955 -198.36084557 257.34778493 -198.16607666 254.57873535 C-197.64078628 247.10608162 -197.11734239 239.63330381 -196.59912109 232.16015625 C-196.27480054 227.48547192 -195.94671855 222.81106467 -195.61615372 218.13681793 C-195.49272106 216.38101421 -195.37071887 214.62510928 -195.25020981 212.86910248 C-195.08426758 210.45250861 -194.91355116 208.03629692 -194.74169922 205.62011719 C-194.6939032 204.90671173 -194.64610718 204.19330627 -194.59686279 203.45828247 C-194.38209267 200.50024393 -194.06819625 198.01708874 -193.125 195.1875 C-191.68844146 195.10618537 -190.2505517 195.04816441 -188.8125 195 C-188.01199219 194.96519531 -187.21148438 194.93039062 -186.38671875 194.89453125 C-183.54269671 195.26292789 -182.86678903 195.94804315 -181.125 198.1875 C-180.7883606 200.26557922 -180.7883606 200.26557922 -180.85986328 202.77075195 C-180.90122406 204.24773056 -180.90122406 204.24773056 -180.94342041 205.75454712 C-181.31592547 212.79714654 -181.8229278 219.82455169 -182.3671875 226.85546875 C-182.4973348 228.57909555 -182.62705577 230.30275459 -182.75637817 232.02644348 C-183.09737707 236.55993034 -183.44290422 241.09305921 -183.78979492 245.62609863 C-186.11236825 275.8094477 -186.11236825 275.8094477 -188.18918228 306.01040077 C-188.31499388 307.9680238 -188.4439122 309.92544641 -188.57296753 311.88285828 C-189.4312049 323.03723411 -189.4312049 323.03723411 -189.125 334.1875 C-186.42837006 336.88412994 -184.77686303 336.6018126 -180.99609375 336.8984375 C-180.35522324 336.95130417 -179.71435272 337.00417084 -179.05406189 337.05863953 C-176.89079763 337.23503426 -174.72674046 337.39855305 -172.5625 337.5625 C-171.02613186 337.68586721 -169.48983769 337.81015849 -167.95361328 337.93530273 C-164.56076366 338.21009838 -161.16753485 338.47937743 -157.77392578 338.74462891 C-148.42058273 339.47608423 -139.0692948 340.2330745 -129.7180481 340.99078369 C-126.56936684 341.24441245 -123.42034526 341.49339475 -120.27124023 341.74169922 C-110.08379369 342.55430137 -99.94375334 343.47923121 -89.80932617 344.8059082 C-83.90975336 345.41693678 -78.05251753 345.35658925 -72.125 345.1875 C-67.16065105 334.81566506 -62.76850345 324.2341352 -58.40750122 313.59857178 C-57.16638282 310.57353001 -55.9206346 307.55043273 -54.67358398 304.52783203 C-51.01747018 295.66363323 -47.36959646 286.79624155 -43.7514801 277.91645813 C-42.38882484 274.57652713 -41.0185871 271.23974219 -39.646698 267.90359497 C-39.011558 266.35342175 -38.38009443 264.80173669 -37.75247192 263.24850464 C-36.88698664 261.10715333 -36.00940613 258.97114972 -35.12890625 256.8359375 C-34.64236572 255.64145996 -34.1558252 254.44698242 -33.65454102 253.21630859 C-32.11694664 250.17155269 -30.81820034 248.27020719 -28.125 246.1875 C-21.91071429 246.40178571 -21.91071429 246.40178571 -19.125 249.1875 C-18.52574999 254.98025007 -19.26840416 258.30573898 -22.34765625 263.23046875 C-23.46059889 266.03239972 -23.08576258 267.32163556 -22.125 270.1875 C-20.62707057 272.74416014 -19.09306713 275.17497997 -17.4375 277.625 C-16.43127416 279.14646297 -15.42611839 280.66863403 -14.421875 282.19140625 C-13.88626953 282.99980957 -13.35066406 283.80821289 -12.79882812 284.64111328 C-9.87884247 289.08327349 -7.03544535 293.57394609 -4.1875 298.0625 C-3.59864014 298.9891748 -3.00978027 299.91584961 -2.40307617 300.87060547 C-0.64247758 303.64211907 1.11656993 306.41461013 2.875 309.1875 C3.42397949 310.05294434 3.97295898 310.91838867 4.53857422 311.81005859 C9.31749151 319.34787882 14.09432499 326.88520953 18.75 334.5 C22.84327528 341.18962965 27.07703525 347.7876077 31.31323242 354.38745117 C34.45959481 359.31144774 37.5363178 364.26281697 40.50390625 369.296875 C52.95395747 391.41357043 52.95395747 391.41357043 73.8125 404.5 C85.95125435 406.67064531 97.68805256 406.35116293 108.265625 399.6796875 C113.8874459 395.67739779 117.57689404 391.21178604 120.875 385.1875 C121.36226562 384.3728125 121.84953125 383.558125 122.3515625 382.71875 C125.75017239 376.1113967 126.38962763 369.86674028 126.5 362.5625 C126.52304199 361.71147705 126.54608398 360.8604541 126.56982422 359.98364258 C126.47280053 351.63267551 124.08378874 343.95995275 121.71765137 336.03192139 C120.42772245 331.6776872 119.18811528 327.30925262 117.94122314 322.9425354 C116.30376353 317.21471953 114.65151578 311.4911721 113.00085449 305.76715088 C112.43868742 303.81661994 111.87728252 301.86587134 111.31616211 299.91503906 C106.25136724 282.28120288 106.25136724 282.28120288 101.0234375 264.6953125 C96.4265165 249.50130657 92.07766403 234.23287584 87.67266846 218.98242188 C85.73830483 212.28626364 83.80216464 205.59061873 81.86613083 198.89494324 C81.16642506 196.47480751 80.46695266 194.05460442 79.76748657 191.63439941 C76.82594163 181.4591323 73.87120871 171.28785061 70.88844299 161.12457275 C70.63320358 160.25298523 70.37796417 159.38139771 70.11499023 158.48339844 C69.78856789 157.37179352 69.78856789 157.37179352 69.45555115 156.23773193 C68.41198906 152.55236446 67.74757377 149.35713286 67.7421875 145.51171875 C67.74089844 144.59970703 67.73960937 143.68769531 67.73828125 142.74804688 C67.74214844 141.79994141 67.74601562 140.85183594 67.75 139.875 C67.74613281 138.96943359 67.74226563 138.06386719 67.73828125 137.13085938 C67.74578788 131.73734913 67.97281961 126.39914588 68.36328125 121.01953125 C68.89771338 113.45914296 69.12824367 105.93033709 69.17016602 98.35351562 C69.1817228 96.90940583 69.20223298 95.46533997 69.23168945 94.02148438 C69.50944395 80.27961968 68.36925644 65.99599719 58.875 55.1875 C53.50277539 49.69400621 48.29128464 46.09465391 40.4375 45.6875 C35.02499817 45.86423475 31.43433907 47.00958634 27.875 51.1875 Z " fill="#935639" transform="translate(701.125,537.8125)"/>
<path d="M0 0 C3.71047416 1.68657916 5.87090567 3.54524048 8 7 C8.37325418 9.6119464 8.37325418 9.6119464 8.3707943 12.64414692 C8.37716734 13.80138116 8.38354039 14.9586154 8.39010656 16.15091735 C8.3777193 18.05927227 8.3777193 18.05927227 8.36508179 20.00617981 C8.36694004 21.37092579 8.37012807 22.7356705 8.3745333 24.10041064 C8.38288251 27.85518336 8.37261445 31.60971254 8.35944462 35.36446297 C8.34854966 39.41327463 8.3550057 43.46206103 8.35957336 47.51087952 C8.365326 54.53239763 8.36067703 61.55384679 8.34955978 68.57535744 C8.33390076 78.75236541 8.33947318 88.92928057 8.35117622 99.10628995 C8.37008699 115.65036909 8.37928804 132.19443563 8.37890625 148.73852539 C8.37888881 149.72909558 8.37887137 150.71966577 8.3788534 151.74025323 C8.3784021 162.76822366 8.37509264 173.79618955 8.36798096 184.82415771 C8.36734857 185.81271596 8.36671619 186.80127421 8.36606465 187.81978877 C8.36543208 188.80719958 8.36479952 189.7946104 8.36414778 190.81194276 C8.36287806 192.80276978 8.36161264 194.7935968 8.36035156 196.78442383 C8.35972337 197.76802518 8.35909518 198.75162654 8.35844795 199.765034 C8.34845964 216.22393258 8.35790218 232.68275618 8.38253558 249.14163893 C8.39690388 259.27759047 8.39501089 269.41327656 8.37157358 279.54921248 C8.35671664 286.51560542 8.36009413 293.48184431 8.3772025 300.44823138 C8.38645308 304.45521548 8.38795671 308.46177009 8.36697197 312.46871948 C8.22204691 342.04250448 11.35736096 370.80138595 30 395 C30.39525879 395.52255371 30.79051758 396.04510742 31.19775391 396.58349609 C46.22844576 416.2417061 68.79932142 430.77026206 93.46422249 434.527744 C98.75228057 435.16786941 104.0178019 435.1417917 109.33806515 435.13422108 C110.46665964 435.13657331 111.59525412 435.13892554 112.75804844 435.14134905 C116.54923416 435.14801919 120.34038545 435.14758142 124.13157654 435.14717102 C126.87348376 435.14992411 129.61538826 435.15415912 132.35729367 435.1583125 C139.10876383 435.16762296 145.86022745 435.17155792 152.61170323 435.17383147 C160.69967119 435.17679758 168.7876305 435.18549735 176.87559391 435.19424575 C196.42321267 435.21507403 215.97083293 435.22555725 235.5184602 435.23437535 C244.76831118 435.23858402 254.01816151 435.2438057 263.26801195 435.24905988 C294.93970493 435.26694834 326.61139809 435.28194391 358.28309536 435.28938007 C360.27084442 435.28985483 362.25859348 435.29033072 364.24634254 435.29080774 C365.23207153 435.29104411 366.21780051 435.29128049 367.23340008 435.29152403 C372.22745878 435.29272521 377.22151748 435.29394066 382.21557617 435.29516602 C383.70219503 435.29552624 383.70219503 435.29552624 385.21884659 435.29589374 C417.34877871 435.30378589 449.4786739 435.32721688 481.6085899 435.35972196 C515.5890313 435.39403633 549.56945111 435.41373267 583.54991013 435.41702431 C587.28173293 435.41744184 591.01355571 435.4179214 594.74537849 435.41844749 C595.66423852 435.41857069 596.58309855 435.41869388 597.52980282 435.4188208 C612.30293329 435.42115074 627.07602079 435.43679908 641.84913597 435.45728934 C656.70465842 435.47756667 671.56012938 435.4830156 686.41566312 435.47351871 C695.2349031 435.4683113 704.05397137 435.47414525 712.87318657 435.49605338 C718.77325421 435.50959899 724.67320416 435.50845142 730.57327307 435.49565142 C733.92920958 435.48877955 737.28455383 435.49024079 740.64050274 435.50521151 C768.80495315 435.62303265 792.8775005 430.40379461 815 412 C815.80308594 411.34386719 816.60617187 410.68773437 817.43359375 410.01171875 C832.97770332 396.74708859 842.4893539 379.48843298 848 360 C848.35603113 358.75812298 848.71206226 357.51624596 849.07888222 356.2367363 C852.95918572 341.23951691 852.54406768 326.02556701 852.46085119 310.66000795 C852.44335819 306.58927806 852.44948695 302.51857156 852.45280457 298.44781494 C852.45564674 291.41503765 852.44470304 284.38239525 852.42472458 277.34964752 C852.3963666 267.17419903 852.39602792 256.99888748 852.40340765 246.82340893 C852.41519865 230.29925229 852.41368847 213.77513079 852.39941406 197.25097656 C852.39814618 195.77154961 852.39814618 195.77154961 852.39685269 194.26223525 C852.38711252 183.24244524 852.37412424 172.22266277 852.35760498 161.20288086 C852.3516458 157.1967774 852.34571835 153.1906739 852.33984375 149.18457031 C852.33838743 148.19586336 852.33693112 147.2071564 852.33543067 146.18848863 C852.31179706 129.70659473 852.31134662 113.22479073 852.32911742 96.74289012 C852.33906704 86.58971365 852.32897675 76.43694126 852.29301061 66.28382167 C852.26985288 59.3368356 852.26808652 52.39005613 852.28321432 45.44304863 C852.29121262 41.43583614 852.2893267 37.42925471 852.26122475 33.42211914 C852.23566833 29.75337738 852.23775114 26.08572222 852.26168795 22.41697916 C852.26722792 20.46354287 852.2431543 18.51009169 852.21798742 16.55680966 C852.29050526 10.03572019 852.70989767 5.89252224 857.36535418 1.12140727 C860.31256644 -0.90045289 862.5951111 -0.61907071 866 0 C869.7100026 1.68636482 871.8745339 3.54306609 874 7 C874.37604749 9.65091056 874.37604749 9.65091056 874.37752342 12.73899364 C874.38534666 13.91734506 874.39316991 15.09569647 874.40123022 16.3097555 C874.39453805 17.60553958 874.38784589 18.90132365 874.38095093 20.2363739 C874.38440681 21.62602141 874.3891709 23.01566619 874.39513266 24.40530521 C874.40768406 28.22865522 874.40145336 32.05178127 874.39217401 35.8751322 C874.38539991 39.99745889 874.39585715 44.11974646 874.40411377 48.24206543 C874.41747546 56.3232158 874.41456121 64.40428272 874.40587585 72.4854364 C874.39910319 79.05938271 874.3981808 85.63330561 874.4014473 92.20725441 C874.401907 93.14265162 874.40236669 94.07804883 874.40284032 95.04179141 C874.40379952 96.94215085 874.40477216 98.84251029 874.4057581 100.74286971 C874.41432069 118.58064945 874.40446742 136.41838301 874.388357 154.25615517 C874.37498155 169.53773671 874.37725729 184.8192498 874.39111328 200.10083008 C874.40720303 217.85423322 874.41346661 235.60759571 874.40427649 253.36100513 C874.40332089 255.25838363 874.40237778 257.15576213 874.4014473 259.05314064 C874.40098447 259.98660196 874.40052164 260.92006329 874.40004479 261.88181132 C874.39746293 268.43569493 874.4018091 274.98955263 874.40888596 281.54343224 C874.41734018 289.54901706 874.41494018 297.55451375 874.39904372 305.5600886 C874.39120901 309.63913342 874.38798602 313.71803184 874.39799118 317.79707527 C874.44093656 336.8878598 874.2316172 355.09485753 867.9375 373.375 C867.64077393 374.24511719 867.34404785 375.11523438 867.03833008 376.01171875 C855.99662565 407.050896 833.4509519 432.44658161 803.98828125 447.18359375 C796.93160765 450.51674596 789.51320585 452.93128934 782 455 C781.15224088 455.25473982 780.30448175 455.50947965 779.43103296 455.77193886 C766.72285503 459.07884104 753.72490425 458.41930375 740.69132996 458.38768005 C737.89474074 458.39019671 735.0981667 458.39721312 732.30158502 458.40399987 C726.23416175 458.41633224 720.16681586 458.41759409 714.09938431 458.41144943 C705.07655438 458.40233631 696.05379567 458.41040809 687.03097119 458.42174067 C670.91275772 458.44138621 654.79457646 458.44375903 638.67635387 458.43854547 C624.56898915 458.43398471 610.46163716 458.43459195 596.35427284 458.44038582 C594.46044479 458.44114269 592.56661674 458.44189867 590.67278868 458.44265376 C587.81880257 458.44379898 584.96481646 458.44494886 582.11083036 458.44611301 C555.58398566 458.4568149 529.05714519 458.46154646 502.53029919 458.45364285 C501.53077287 458.45334567 500.53124655 458.4530485 499.50143155 458.45274232 C491.38507068 458.45029349 483.26870985 458.44768185 475.15234903 458.44505819 C443.49697231 458.43495676 411.84164863 458.44331046 380.1862793 458.46655273 C344.6023333 458.49263735 309.01841923 458.50547004 273.43446332 458.49836498 C269.63870037 458.49764895 265.84293742 458.49697456 262.04717445 458.49632454 C261.11259562 458.49615473 260.17801679 458.49598492 259.21511739 458.49580997 C245.12084381 458.4935091 231.02659992 458.50147385 216.93233299 458.51461601 C200.89927174 458.52953955 184.86627999 458.53035395 168.83322021 458.5125451 C159.86731949 458.50299552 150.90158097 458.50438946 141.93569115 458.52177979 C135.93806483 458.53229657 129.94056159 458.52813068 123.94294732 458.51229975 C120.53140856 458.50369759 117.12044461 458.50340218 113.70888247 458.51656907 C94.69151452 458.58472718 78.43701689 457.2469109 61 449 C59.55947266 448.35611328 59.55947266 448.35611328 58.08984375 447.69921875 C29.89645965 434.51258982 6.32686774 408.56347266 -4.375 379.4375 C-5.26088167 376.96205759 -6.12958628 374.4809563 -7 372 C-7.31217783 371.2725719 -7.62435566 370.5451438 -7.94599342 369.79567242 C-14.41065419 352.64865057 -13.59300506 334.05765742 -13.55221677 316.03668439 C-13.54722384 311.892993 -13.5653807 307.74938692 -13.58029175 303.60572815 C-13.60561834 295.51942504 -13.60939523 287.43325525 -13.60469122 279.34691914 C-13.60110992 272.77564528 -13.60465591 266.20441156 -13.61314011 259.63314247 C-13.61433048 258.69425051 -13.61552086 257.75535854 -13.61674731 256.78801531 C-13.61917099 254.8802261 -13.62159926 252.97243691 -13.62403207 251.06464771 C-13.64571315 233.23329391 -13.64148813 215.40201605 -13.62926237 197.57065807 C-13.61889929 181.26151724 -13.64151224 164.95261441 -13.67945881 148.64352068 C-13.71819064 131.86779705 -13.73473399 115.09218616 -13.72721231 98.31641752 C-13.72338837 88.90933805 -13.72836473 79.50246183 -13.75664139 70.09541893 C-13.78043732 62.09901005 -13.78331292 54.10292996 -13.75906105 46.10651668 C-13.7472681 42.02843498 -13.74512625 37.95095527 -13.76906586 33.87291336 C-13.79072902 30.13942211 -13.78464632 26.40703754 -13.75654249 22.67359868 C-13.74872105 20.68543917 -13.77038735 18.697231 -13.79313624 16.70918626 C-13.713355 10.14451421 -13.33488881 5.91414851 -8.63408792 1.11363584 C-5.68378864 -0.897002 -3.40221775 -0.61858505 0 0 Z " fill="#915336" transform="translate(197,633)"/>
<path d="M0 0 C1.134858 -0.00175304 2.26971599 -0.00350607 3.43896362 -0.00531223 C7.2514193 -0.00997359 11.06383686 -0.00750636 14.87629414 -0.00507832 C17.63342604 -0.00639443 20.39055597 -0.00920695 23.14768678 -0.01194364 C29.14737542 -0.01709357 35.147056 -0.01851554 41.14674664 -0.01748753 C50.06874772 -0.01596252 58.99073987 -0.02012454 67.91273921 -0.02536215 C84.77512177 -0.03503451 101.63750129 -0.03784635 118.4998863 -0.03841921 C131.5220878 -0.03887871 144.54428811 -0.04093686 157.56648922 -0.04411983 C161.31464285 -0.04501738 165.06279647 -0.04590719 168.8109501 -0.04679471 C170.20864796 -0.04712628 170.20864796 -0.04712628 171.63458213 -0.04746456 C197.84562392 -0.05361904 224.05666529 -0.05756509 250.26770782 -0.05712128 C251.75012414 -0.05709791 251.75012414 -0.05709791 253.26248827 -0.05707407 C258.27150961 -0.05699096 263.28053095 -0.05689192 268.28955229 -0.05678936 C269.78177082 -0.05675944 269.78177082 -0.05675944 271.30413518 -0.05672892 C273.31588858 -0.05668848 275.32764197 -0.05664669 277.33939537 -0.05660353 C308.63793923 -0.0559908 339.93647225 -0.06349687 371.23501301 -0.07717609 C406.39770143 -0.09253783 441.56038274 -0.10114226 476.72307473 -0.10021287 C480.47280014 -0.10013824 484.22252554 -0.10008953 487.97225094 -0.10005856 C488.89553011 -0.1000469 489.81880928 -0.10003525 490.7700666 -0.10002324 C505.62579701 -0.09999247 520.48151801 -0.10637741 535.33724563 -0.11499082 C550.26886381 -0.12346914 565.20046823 -0.12445584 580.13208749 -0.1178815 C589.00099774 -0.11418704 597.86986618 -0.11601512 606.738772 -0.12582384 C612.66684804 -0.13182575 618.59489382 -0.13052601 624.52296847 -0.12335334 C627.89805316 -0.11947361 631.2729911 -0.11980082 634.64808049 -0.12681069 C638.2916653 -0.13387673 641.93503568 -0.12857221 645.57861328 -0.12025452 C647.133917 -0.12770679 647.133917 -0.12770679 648.72064099 -0.13530961 C664.28776374 -0.06031226 680.68253476 2.9656707 694.60390949 10.12863445 C695.57457355 10.60945477 696.54523762 11.09027508 697.54531574 11.5856657 C728.01610018 27.24273544 751.54408446 53.81878132 762.57656574 86.43332195 C764.46795369 93.2365653 765.54646844 100.15523939 766.60390949 107.12863445 C766.7780074 108.08124377 766.95210531 109.03385309 767.13147891 110.01532936 C767.58201158 112.9843278 767.73355191 115.75439978 767.74092388 118.75401592 C767.74599842 119.85604823 767.75107297 120.95808054 767.75630128 122.09350777 C767.75704792 123.89378976 767.75704792 123.89378976 767.75780964 125.73044109 C767.76219189 127.01356969 767.76657415 128.29669828 767.7710892 129.61870956 C767.78301328 133.1736631 767.78869336 136.72860309 767.79327035 140.28357267 C767.79924177 144.12002762 767.81084721 147.9564665 767.82156086 151.79291058 C767.84604154 161.05116828 767.86070145 170.30943128 767.87362093 179.56771135 C767.87733468 182.18246749 767.88130772 184.79722311 767.88537359 187.41197872 C767.91060141 203.65201317 767.93265251 219.89204849 767.94510174 236.1320982 C767.94803136 239.89038375 767.95099304 243.64866928 767.95400715 247.40695477 C767.9547532 248.34104093 767.95549925 249.2751271 767.95626791 250.23751891 C767.96893379 265.38421283 768.00217706 280.5307897 768.04380898 295.67742884 C768.08620351 311.22887921 768.10979349 326.78026956 768.1150223 342.33177757 C768.11843818 351.06330707 768.13021504 359.79465327 768.16312504 368.52612591 C768.19109196 375.958148 768.20213945 383.38994918 768.19092958 390.82201982 C768.18573519 394.61428042 768.18867984 398.40607809 768.21339512 402.19827175 C768.23995765 406.30811342 768.22785488 410.41693162 768.2119112 414.52682781 C768.22579329 415.72701581 768.23967538 416.92720381 768.25397813 418.16376114 C768.16774893 427.15240103 768.16774893 427.15240103 765.19090939 430.85374737 C761.70910914 433.91548016 759.41424506 434.68419577 754.69574815 434.58180064 C751.34156421 433.85516585 749.92568912 432.05873741 747.83958185 429.43466628 C745.35426811 424.7965334 745.79608372 419.78312664 745.8646059 414.63917828 C745.8539658 412.75040524 745.8539658 412.75040524 745.84311074 410.82347518 C745.8242333 407.3391822 745.84251968 403.85593284 745.86694992 400.37171113 C745.88673617 396.60932018 745.87177705 392.84704836 745.86095905 389.08464336 C745.84682607 382.56563732 745.85425176 376.04694354 745.87602901 369.52796268 C745.90728187 360.08310558 745.9025026 350.63852778 745.88848581 341.19364176 C745.86640258 325.84340352 745.86884742 310.49327657 745.8888216 295.14303875 C745.89001093 294.22462827 745.89120025 293.30621779 745.89242562 292.35997669 C745.89421386 290.98074507 745.89421386 290.98074507 745.89603823 289.57365018 C745.91285264 276.56520355 745.92390722 263.55676939 745.9278841 250.54831219 C745.92816966 249.63435988 745.92845521 248.72040757 745.92874942 247.77875974 C745.93302882 232.4984148 745.92515375 217.21808957 745.91118592 201.93775111 C745.90336176 192.52713449 745.90778015 183.11666786 745.9284425 173.70606975 C745.94213207 167.24484539 745.94554663 160.78366879 745.94116465 154.32243159 C745.93907872 150.60371973 745.94184852 146.88518338 745.95815182 143.16650295 C746.18931886 116.32594555 746.18931886 116.32594555 739.91640949 90.37863445 C739.66294758 89.69019451 739.40948566 89.00175457 739.14834309 88.29245281 C734.82771224 77.03470831 728.4782975 67.24308357 720.60390949 58.12863445 C719.99031574 57.3706657 719.37672199 56.61269695 718.74453449 55.83175945 C706.74726445 41.45486559 689.54219453 31.88598893 671.60390949 27.12863445 C670.20906686 26.75701953 670.20906686 26.75701953 668.78604559 26.37789723 C661.2638161 24.50178018 654.3299495 23.69731499 646.59372234 23.74552441 C645.45320433 23.74056489 644.31268632 23.73560538 643.13760716 23.73049557 C639.33584375 23.7175962 635.53443483 23.72590644 631.73266315 23.73422527 C628.97135995 23.7309896 626.21007324 23.72326282 623.44877875 23.71576738 C617.45530474 23.70189445 611.46190621 23.69910997 605.46841908 23.70372677 C596.55542073 23.71057455 587.64249847 23.70028124 578.7295107 23.68676921 C561.88210444 23.66188442 545.03472993 23.65733901 528.18730824 23.65923518 C515.17433201 23.66060935 502.16136676 23.65678522 489.14839268 23.64931011 C487.27743821 23.64825976 485.40648374 23.64721215 483.53552926 23.64616725 C482.60676109 23.6456479 481.67799292 23.64512856 480.72108026 23.64459348 C479.79059088 23.64407334 478.8601015 23.6435532 477.90141547 23.64301729 C476.96934188 23.6424933 476.0372683 23.64196931 475.07695006 23.64142944 C448.86769196 23.62684967 422.6584379 23.61856204 396.44917583 23.62317944 C394.96765731 23.62343737 394.96765731 23.62343737 393.45620912 23.62370051 C388.45051313 23.62458937 383.44481715 23.62553418 378.43912117 23.62649852 C377.44501476 23.62668955 376.45090835 23.62688059 375.42667751 23.62707741 C373.41635296 23.6274645 371.40602841 23.62785483 369.39570387 23.62824839 C338.12311587 23.63421687 306.8506019 23.61878541 275.57803059 23.58664227 C240.42366348 23.5505397 205.26934331 23.53123617 170.1149565 23.53618097 C166.36407797 23.53665093 162.61319944 23.53706119 158.8623209 23.53743267 C157.93879562 23.53753506 157.01527034 23.53763744 156.06375945 23.53774293 C142.14138495 23.53893619 128.21906129 23.52699099 114.29670048 23.50828838 C98.45543445 23.48701799 82.61427481 23.48323551 66.77300398 23.50258797 C57.91635961 23.51288871 49.05997501 23.50950943 40.2033543 23.48605712 C34.27596867 23.471758 28.34877397 23.47587189 22.42140101 23.49450289 C19.0515068 23.50459101 15.6825237 23.50434954 12.31259851 23.4871822 C-21.47708475 23.32684253 -46.37979975 32.52212237 -70.70468426 56.39425945 C-89.83481514 76.41956111 -97.74786126 103.31424027 -97.65437603 130.50938702 C-97.65805173 131.77963881 -97.66172744 133.04989061 -97.66551453 134.35863489 C-97.67537952 137.8404688 -97.67315356 141.32220061 -97.6687876 144.80404174 C-97.66628987 148.57558108 -97.67540653 152.34709501 -97.68316936 156.11862469 C-97.69516036 162.63961076 -97.70031939 169.16057251 -97.70105076 175.6815691 C-97.70238133 185.11505816 -97.7175344 194.54848844 -97.73654593 203.98195665 C-97.76731819 219.29768768 -97.79151912 234.6134202 -97.80942059 249.92917156 C-97.81102961 251.30147865 -97.81102961 251.30147865 -97.81267113 252.70150911 C-97.82450548 262.92123478 -97.83471172 273.14096105 -97.84311199 283.36069012 C-97.84618648 287.07427249 -97.84927517 290.78785485 -97.85238934 294.50143719 C-97.85315467 295.41791368 -97.85392001 296.33439016 -97.85470854 297.27863867 C-97.8677823 312.55124855 -97.89240417 327.82381546 -97.92613274 343.09639353 C-97.94642483 352.50978303 -97.95671186 361.92308069 -97.95414353 371.33649223 C-97.95310978 377.7779535 -97.962724 384.21934196 -97.98078256 390.66077781 C-97.99084033 394.3779094 -97.99594177 398.09487991 -97.98801517 401.8120203 C-97.97953082 405.83840461 -97.99404011 409.86437659 -98.01082134 413.89073467 C-98.00460953 415.06892381 -97.99839771 416.24711295 -97.99199766 417.46100479 C-98.0002208 418.53869548 -98.00844395 419.61638618 -98.01691628 420.72673416 C-98.01773073 421.6559152 -98.01854519 422.58509624 -98.01938432 423.54243428 C-98.58861894 427.45039952 -100.42766728 430.08847617 -103.08359051 432.94113445 C-106.48461766 434.68760785 -109.70165748 434.797011 -113.39609051 434.12863445 C-116.9641922 431.95674647 -118.84550676 429.96689352 -120.39609051 426.12863445 C-120.64909017 423.68570215 -120.64909017 423.68570215 -120.65335941 420.89612579 C-120.65980831 419.83069323 -120.6662572 418.76526067 -120.67290151 417.66754228 C-120.66980431 416.49783456 -120.6667071 415.32812685 -120.66351604 414.12297344 C-120.66804716 412.87946076 -120.67257827 411.63594808 -120.67724669 410.3547532 C-120.68773225 406.90030234 -120.68921383 403.44605937 -120.68685794 399.99160731 C-120.68645019 396.26585972 -120.69748589 392.54014331 -120.70697308 388.81441021 C-120.72360224 381.50864913 -120.72908376 374.20292033 -120.73019783 366.89714191 C-120.73114877 360.94826676 -120.73526144 354.99940223 -120.74159908 349.05053043 C-120.75922793 332.15684045 -120.76843707 315.26317589 -120.76693814 298.36947665 C-120.76685822 297.45831172 -120.76677831 296.54714678 -120.76669598 295.60837078 C-120.76661421 294.6960812 -120.76653245 293.78379162 -120.76644821 292.84385689 C-120.76563807 278.11080927 -120.78470269 263.37786457 -120.81297271 248.64484666 C-120.84182017 233.48999572 -120.85550606 218.33519472 -120.85378516 203.18031567 C-120.85312463 194.68348936 -120.85846563 186.18677048 -120.88014126 177.68996906 C-120.89851123 170.44253867 -120.90257376 163.1952642 -120.88912241 155.9478204 C-120.8826672 152.2606262 -120.88219802 148.57372962 -120.89982891 144.88656521 C-121.08796751 102.81143142 -112.46010106 66.07865886 -82.59530926 35.23019695 C-60.42925483 13.22203018 -31.21916797 -0.0611929 0 0 Z " fill="#915336" transform="translate(303.3960905075073,127.87136554718018)"/>
<path d="M0 0 C1.73863307 -0.00542548 3.47726153 -0.01255052 5.21588135 -0.02124023 C9.92265584 -0.03942865 14.62907841 -0.03242389 19.33585882 -0.01972389 C24.27193975 -0.00956974 29.20799132 -0.01899657 34.14407349 -0.02526855 C42.43431992 -0.03253929 50.72442368 -0.02297373 59.01464844 -0.00390625 C68.58275202 0.01784701 78.15051442 0.01082004 87.71860969 -0.01121187 C95.94818812 -0.02939937 104.17766419 -0.03190741 112.40725625 -0.0214572 C117.31589158 -0.01523881 122.2243669 -0.01434063 127.13299179 -0.02760315 C131.75097511 -0.03920935 136.36852142 -0.03104927 140.98645782 -0.00802612 C142.67544201 -0.00276379 144.36446335 -0.00421011 146.05343246 -0.01307678 C155.94760356 -0.06020555 165.31902007 -0.07042143 173.34814453 6.51757812 C174.12158203 7.50757813 174.12158203 7.50757813 174.91064453 8.51757812 C175.71501953 9.50757813 175.71501953 9.50757813 176.53564453 10.51757812 C176.98939453 11.17757813 177.44314453 11.83757812 177.91064453 12.51757812 C178.29994141 13.07960938 178.68923828 13.64164062 179.09033203 14.22070312 C180.38712 17.85170945 180.11801686 21.44676942 180.03564453 25.26757812 C180.02662109 26.06035156 180.01759766 26.853125 180.00830078 27.66992188 C179.98481465 29.61927094 179.9489459 31.56846387 179.91064453 33.51757812 C180.85166016 33.47117187 181.79267578 33.42476563 182.76220703 33.37695312 C194.20312064 33.04533244 194.20312064 33.04533244 197.66064453 35.33007812 C201.74568317 39.30164347 201.74568317 39.30164347 202.17134094 42.43917847 C202.17594833 43.1635611 202.18055573 43.88794373 202.18530273 44.63427734 C202.19483475 45.45878387 202.20436676 46.28329041 202.21418762 47.13278198 C202.21282051 48.46407639 202.21282051 48.46407639 202.21142578 49.82226562 C202.21571091 50.7383963 202.21999603 51.65452698 202.22441101 52.59841919 C202.23015452 54.53679579 202.23065442 56.47519395 202.22631836 58.41357422 C202.2231639 61.37439958 202.24659803 64.33422048 202.27197266 67.29492188 C202.27424624 69.1790352 202.27494887 71.06315121 202.27392578 72.94726562 C202.28313553 73.83074677 202.29234528 74.71422791 202.30183411 75.6244812 C202.26590622 80.41662836 202.03035052 83.63043011 198.91064453 87.51757812 C194.88537929 90.76739822 191.67600033 90.84744791 186.59814453 90.70507812 C185.34388672 90.67800781 184.08962891 90.6509375 182.79736328 90.62304688 C181.84474609 90.58824219 180.89212891 90.5534375 179.91064453 90.51757812 C179.99765625 91.85949219 179.99765625 91.85949219 180.08642578 93.22851562 C180.4318454 102.48576138 179.60325018 109.3867109 173.19580078 116.39257812 C167.69299113 121.40170025 162.95783637 122.76542407 155.491745 122.79173279 C154.75399442 122.79696947 154.01624385 122.80220615 153.25613719 122.80760151 C150.78894841 122.82257947 148.32196742 122.82330617 145.85473633 122.82397461 C144.08374686 122.83159758 142.31276069 122.84002531 140.54177856 122.84919739 C135.73383319 122.87113564 130.92595142 122.87994039 126.11796165 122.88502383 C123.11290785 122.88866818 120.1078707 122.89490866 117.10282326 122.90202522 C106.61566054 122.92651734 96.12854727 122.93957111 85.64135742 122.94311523 C75.87160319 122.94675036 66.10216314 122.97664476 56.33250493 123.01851982 C47.93998092 123.05322888 39.547561 123.06866378 31.1549657 123.06936127 C26.14455259 123.07015387 21.13445956 123.07888478 16.12412071 123.10735893 C11.41013205 123.13355008 6.69672861 123.13573894 1.98270035 123.11970329 C0.25576945 123.11788964 -1.47119517 123.12457201 -3.19805336 123.140522 C-19.93528134 123.28564948 -19.93528134 123.28564948 -26.08935547 117.51757812 C-27.19923828 116.51404297 -27.19923828 116.51404297 -28.33154297 115.49023438 C-28.87037109 114.85988281 -29.40919922 114.22953125 -29.96435547 113.58007812 C-30.51865234 112.95230469 -31.07294922 112.32453125 -31.64404297 111.67773438 C-35.05916234 106.57351542 -35.38397526 101.32261121 -35.36401367 95.34423828 C-35.3691246 94.54666611 -35.37423553 93.74909393 -35.37950134 92.92735291 C-35.39334512 90.30370475 -35.3924444 87.68032086 -35.39013672 85.05664062 C-35.39402674 83.22349959 -35.39836205 81.39035944 -35.40312195 79.55722046 C-35.41057312 75.71910681 -35.41030105 71.88108516 -35.4050293 68.04296875 C-35.39923863 63.13827388 -35.41616129 58.23395712 -35.43937397 53.32932472 C-35.45414719 49.54421813 -35.45497809 45.75920182 -35.45186424 41.9740715 C-35.45237573 40.16646959 -35.45758095 38.3588624 -35.46767616 36.5512886 C-35.48009199 34.01718238 -35.4732183 31.48380271 -35.46166992 28.94970703 C-35.46931366 28.21178421 -35.4769574 27.47386139 -35.48483276 26.71357727 C-35.41566798 19.80429832 -33.57227832 13.54815123 -28.90185547 8.26757812 C-28.10714844 7.33171875 -28.10714844 7.33171875 -27.29638672 6.37695312 C-18.94774383 -0.65659381 -10.32150275 -0.05404349 0 0 Z " fill="#FCFBFB" transform="translate(792.08935546875,253.482421875)"/>
<path d="M0 0 C7.19554128 5.27802153 13.37492446 11.07976033 19 18 C19.54011719 18.63035156 20.08023438 19.26070312 20.63671875 19.91015625 C22.81832161 22.62968858 23.98739888 24.40774751 24.0625 27.9375 C22.93579432 31.18506342 21.5607319 34.14231223 19.9375 37.16796875 C13.79231076 49.17669272 19.55128773 64.70378548 23.22167969 76.59228516 C24.43741388 80.35312914 25.78128045 84.04974089 27.3359375 87.68359375 C29.11082542 93.87482044 27.58061617 99.34173211 25.6875 105.25 C25.21571546 106.75596877 24.74566114 108.26248068 24.27734375 109.76953125 C24.05159668 110.49479004 23.82584961 111.22004883 23.59326172 111.96728516 C22.82650138 114.59446483 22.30413935 117.25852287 21.75 119.9375 C20.01249978 126.41631439 15.67282014 130.40403545 11 135 C10.071875 136.03253906 10.071875 136.03253906 9.125 137.0859375 C1.08739465 145.85108471 -9.35847866 151.49606376 -20.0625 156.375 C-21.10446533 156.85743164 -21.10446533 156.85743164 -22.16748047 157.34960938 C-33.11321663 162.12464576 -44.26183515 163.58561265 -56.125 163.5625 C-57.38675049 163.56080811 -58.64850098 163.55911621 -59.94848633 163.55737305 C-70.82616689 163.34998757 -80.05631758 161.29896045 -90 157 C-90.97453125 156.60554687 -91.9490625 156.21109375 -92.953125 155.8046875 C-115.55836272 145.63943909 -129.74689442 125.02562346 -138.28515625 102.62890625 C-142.31184471 91.06841357 -142.22279233 80.0779654 -142 68 C-141.98324219 66.8965625 -141.96648438 65.793125 -141.94921875 64.65625 C-141.07029372 46.37460929 -132.18259767 28.37114379 -120 15 C-119.11570312 14.02289062 -118.23140625 13.04578125 -117.3203125 12.0390625 C-110.35153027 4.5915808 -102.86176423 -0.98488255 -94 -6 C-93.13246094 -6.49113281 -92.26492188 -6.98226562 -91.37109375 -7.48828125 C-62.30742681 -22.17930539 -26.55060456 -18.05736527 0 0 Z " fill="#FDFDFD" transform="translate(694,551)"/>
<path d="M0 0 C1.73863307 -0.00542548 3.47726153 -0.01255052 5.21588135 -0.02124023 C9.92265584 -0.03942865 14.62907841 -0.03242389 19.33585882 -0.01972389 C24.27193975 -0.00956974 29.20799132 -0.01899657 34.14407349 -0.02526855 C42.43431992 -0.03253929 50.72442368 -0.02297373 59.01464844 -0.00390625 C68.58275202 0.01784701 78.15051442 0.01082004 87.71860969 -0.01121187 C95.94818812 -0.02939937 104.17766419 -0.03190741 112.40725625 -0.0214572 C117.31589158 -0.01523881 122.2243669 -0.01434063 127.13299179 -0.02760315 C131.75097511 -0.03920935 136.36852142 -0.03104927 140.98645782 -0.00802612 C142.67544201 -0.00276379 144.36446335 -0.00421011 146.05343246 -0.01307678 C155.94760356 -0.06020555 165.31902007 -0.07042143 173.34814453 6.51757812 C174.12158203 7.50757813 174.12158203 7.50757813 174.91064453 8.51757812 C175.71501953 9.50757813 175.71501953 9.50757813 176.53564453 10.51757812 C176.98939453 11.17757813 177.44314453 11.83757812 177.91064453 12.51757812 C178.29994141 13.07960938 178.68923828 13.64164062 179.09033203 14.22070312 C180.38712 17.85170945 180.11801686 21.44676942 180.03564453 25.26757812 C180.02662109 26.06035156 180.01759766 26.853125 180.00830078 27.66992188 C179.98481465 29.61927094 179.9489459 31.56846387 179.91064453 33.51757812 C180.85166016 33.47117187 181.79267578 33.42476563 182.76220703 33.37695312 C194.20312064 33.04533244 194.20312064 33.04533244 197.66064453 35.33007812 C201.74568317 39.30164347 201.74568317 39.30164347 202.17134094 42.43917847 C202.17594833 43.1635611 202.18055573 43.88794373 202.18530273 44.63427734 C202.19483475 45.45878387 202.20436676 46.28329041 202.21418762 47.13278198 C202.21282051 48.46407639 202.21282051 48.46407639 202.21142578 49.82226562 C202.21571091 50.7383963 202.21999603 51.65452698 202.22441101 52.59841919 C202.23015452 54.53679579 202.23065442 56.47519395 202.22631836 58.41357422 C202.2231639 61.37439958 202.24659803 64.33422048 202.27197266 67.29492188 C202.27424624 69.1790352 202.27494887 71.06315121 202.27392578 72.94726562 C202.28313553 73.83074677 202.29234528 74.71422791 202.30183411 75.6244812 C202.26590622 80.41662836 202.03035052 83.63043011 198.91064453 87.51757812 C194.88537929 90.76739822 191.67600033 90.84744791 186.59814453 90.70507812 C185.34388672 90.67800781 184.08962891 90.6509375 182.79736328 90.62304688 C181.84474609 90.58824219 180.89212891 90.5534375 179.91064453 90.51757812 C179.99765625 91.85949219 179.99765625 91.85949219 180.08642578 93.22851562 C180.4318454 102.48576138 179.60325018 109.3867109 173.19580078 116.39257812 C167.69299113 121.40170025 162.95783637 122.76542407 155.491745 122.79173279 C154.75399442 122.79696947 154.01624385 122.80220615 153.25613719 122.80760151 C150.78894841 122.82257947 148.32196742 122.82330617 145.85473633 122.82397461 C144.08374686 122.83159758 142.31276069 122.84002531 140.54177856 122.84919739 C135.73383319 122.87113564 130.92595142 122.87994039 126.11796165 122.88502383 C123.11290785 122.88866818 120.1078707 122.89490866 117.10282326 122.90202522 C106.61566054 122.92651734 96.12854727 122.93957111 85.64135742 122.94311523 C75.87160319 122.94675036 66.10216314 122.97664476 56.33250493 123.01851982 C47.93998092 123.05322888 39.547561 123.06866378 31.1549657 123.06936127 C26.14455259 123.07015387 21.13445956 123.07888478 16.12412071 123.10735893 C11.41013205 123.13355008 6.69672861 123.13573894 1.98270035 123.11970329 C0.25576945 123.11788964 -1.47119517 123.12457201 -3.19805336 123.140522 C-19.93528134 123.28564948 -19.93528134 123.28564948 -26.08935547 117.51757812 C-27.19923828 116.51404297 -27.19923828 116.51404297 -28.33154297 115.49023438 C-28.87037109 114.85988281 -29.40919922 114.22953125 -29.96435547 113.58007812 C-30.51865234 112.95230469 -31.07294922 112.32453125 -31.64404297 111.67773438 C-35.05916234 106.57351542 -35.38397526 101.32261121 -35.36401367 95.34423828 C-35.3691246 94.54666611 -35.37423553 93.74909393 -35.37950134 92.92735291 C-35.39334512 90.30370475 -35.3924444 87.68032086 -35.39013672 85.05664062 C-35.39402674 83.22349959 -35.39836205 81.39035944 -35.40312195 79.55722046 C-35.41057312 75.71910681 -35.41030105 71.88108516 -35.4050293 68.04296875 C-35.39923863 63.13827388 -35.41616129 58.23395712 -35.43937397 53.32932472 C-35.45414719 49.54421813 -35.45497809 45.75920182 -35.45186424 41.9740715 C-35.45237573 40.16646959 -35.45758095 38.3588624 -35.46767616 36.5512886 C-35.48009199 34.01718238 -35.4732183 31.48380271 -35.46166992 28.94970703 C-35.46931366 28.21178421 -35.4769574 27.47386139 -35.48483276 26.71357727 C-35.41566798 19.80429832 -33.57227832 13.54815123 -28.90185547 8.26757812 C-28.10714844 7.33171875 -28.10714844 7.33171875 -27.29638672 6.37695312 C-18.94774383 -0.65659381 -10.32150275 -0.05404349 0 0 Z M-19.08935547 20.51757812 C-19.41935547 20.84757812 -19.74935547 21.17757813 -20.08935547 21.51757812 C-20.20561642 23.94992117 -20.25734025 26.35426967 -20.26635742 28.7878418 C-20.27292862 29.54888214 -20.27949982 30.30992249 -20.28627014 31.09402466 C-20.30605552 33.62453297 -20.31767941 36.15498169 -20.32763672 38.68554688 C-20.33171225 39.54871332 -20.33578777 40.41187977 -20.3399868 41.30120277 C-20.36087331 45.87275582 -20.37516186 50.44427865 -20.38452148 55.01586914 C-20.39557068 59.73600598 -20.42994574 64.45566939 -20.46969318 69.17563915 C-20.4958625 72.80539314 -20.50421376 76.43503463 -20.50780296 80.06487465 C-20.51267083 81.80437721 -20.52429057 83.54387468 -20.54284096 85.28328514 C-20.56723197 87.72268233 -20.56626749 90.16085957 -20.55932617 92.6003418 C-20.57213623 93.31590744 -20.58494629 94.03147308 -20.59814453 94.76872253 C-20.54619723 99.79243011 -19.24593045 102.64997566 -16.08935547 106.51757812 C-13.16363146 107.98044013 -10.5831677 107.65372872 -7.31474304 107.66474915 C-6.61010746 107.66842583 -5.90547188 107.67210252 -5.17948371 107.67589062 C-2.80657887 107.68694758 -0.43371779 107.69077468 1.93920898 107.69458008 C3.63580465 107.70084318 5.33239893 107.70748984 7.0289917 107.7144928 C11.64682553 107.73191598 16.264649 107.742458 20.88250756 107.75069833 C23.76607141 107.75584536 26.64963202 107.7619212 29.53319359 107.76820946 C38.55083906 107.78726463 47.56847633 107.80149546 56.58613807 107.80982143 C67.00370723 107.81959812 77.42106415 107.84592754 87.8385585 107.88632232 C95.88532135 107.91645625 103.93202328 107.93128768 111.97884148 107.93460244 C116.78740005 107.93695591 121.59573196 107.94595489 126.40423012 107.97106361 C130.9276786 107.99430199 135.45075052 107.99859472 139.97424316 107.98830223 C141.63470396 107.98780574 143.29518302 107.9941596 144.95558739 108.00785828 C147.22253875 108.02551497 149.48812955 108.01850315 151.75508118 108.00532532 C153.02363606 108.00771367 154.29219095 108.01010202 155.5991869 108.01256275 C159.49699578 107.42993248 161.13819565 106.26281536 163.91064453 103.51757812 C165.43489463 100.46907793 165.09309758 97.28103889 165.11938477 93.93432617 C165.12916855 93.15202637 165.13895233 92.36972656 165.14903259 91.5637207 C165.17900283 88.96893013 165.20037591 86.37419113 165.21923828 83.77929688 C165.22909602 82.4509529 165.22909602 82.4509529 165.23915291 81.0957737 C165.27175305 76.40867332 165.29620275 71.72159576 165.31567383 67.03442383 C165.3334939 63.15322859 165.3683236 59.27275896 165.41821289 55.3918457 C165.47835573 50.7080719 165.50914122 46.02497143 165.51884651 41.34082985 C165.52741229 39.55579612 165.54625816 37.77078091 165.57559013 35.98596764 C165.61446123 33.48618352 165.61554629 30.98902771 165.60766602 28.48901367 C165.62766663 27.75272232 165.64766724 27.01643097 165.66827393 26.25782776 C165.61176296 22.26119629 165.12284679 20.73773858 162.31860542 17.82833004 C158.84840136 15.13063462 156.06852206 14.88924358 151.65501404 14.88265991 C150.59293412 14.87095998 150.59293412 14.87095998 149.50939804 14.85902369 C147.14838785 14.83915721 144.78899924 14.85484529 142.42797852 14.87060547 C140.73078473 14.86382696 139.03359831 14.85492252 137.33642578 14.84405518 C132.73516856 14.82128454 128.13447263 14.83008838 123.53320575 14.8459506 C118.71621878 14.85861913 113.89927952 14.84686703 109.08229065 14.83901978 C100.99447 14.82992687 92.90687776 14.84190263 84.8190918 14.86572266 C75.4689872 14.89294245 66.11942759 14.88411217 56.76933616 14.85659063 C48.73943207 14.83390132 40.70969203 14.83069832 32.67976624 14.84378397 C27.8846859 14.85157829 23.08986177 14.85262045 18.2947979 14.83610153 C13.78756311 14.82165827 9.28103122 14.83167555 4.77387238 14.86057281 C3.11988301 14.86718405 1.46583449 14.86528525 -0.18813133 14.85425949 C-2.44645548 14.84059278 -4.70252799 14.85772874 -6.96070862 14.88265991 C-8.22406823 14.88454504 -9.48742785 14.88643017 -10.78907108 14.88837242 C-14.95013855 15.68168811 -16.4098377 17.32435011 -19.08935547 20.51757812 Z " fill="#925537" transform="translate(792.08935546875,253.482421875)"/>
<path d="M0 0 C0.66 0 1.32 0 2 0 C3.13818359 1.44262695 3.13818359 1.44262695 4.3984375 3.48828125 C4.87128174 4.24713623 5.34412598 5.00599121 5.83129883 5.7878418 C6.59543091 7.03754761 6.59543091 7.03754761 7.375 8.3125 C8.46985025 10.07564618 9.56490778 11.83866366 10.66015625 13.6015625 C11.49764404 14.95749512 11.49764404 14.95749512 12.35205078 16.34082031 C14.81045889 20.30778048 17.31264248 24.24658794 19.8125 28.1875 C25.00667983 36.40075397 30.15157484 44.64444172 35.29443359 52.88989258 C40.03015438 60.4727051 44.82243544 68.01773926 49.64868164 75.54321289 C52.8729871 80.59052423 56.02814271 85.67356791 59.1171875 90.8046875 C59.82290836 91.97157117 60.52871871 93.13840073 61.23461914 94.30517578 C62.5793095 96.52864386 63.90924498 98.75891871 65.23217773 100.99560547 C69.05671209 107.32631425 73.20270367 112.78014595 78.30151367 118.14550781 C80 120 80 120 80 121 C65.81 121 51.62 121 37 121 C37.33 118.69 37.66 116.38 38 114 C38.77359089 101.55913667 37.7752339 91.89267739 29.75390625 81.94140625 C19.36888286 70.44617991 7.85989315 65.33479961 -7.4375 63.9375 C-9.06127027 63.78069537 -10.68496923 63.62315041 -12.30859375 63.46484375 C-13.08831543 63.38991699 -13.86803711 63.31499023 -14.67138672 63.23779297 C-18.12262308 62.88536015 -21.559737 62.44632574 -25 62 C-23.00396754 54.77416682 -20.44740522 47.94946597 -17.5 41.0625 C-16.61472876 38.96923879 -15.7306639 36.87546707 -14.84765625 34.78125 C-14.38633301 33.688125 -13.92500977 32.595 -13.44970703 31.46875 C-11.92109319 27.81119772 -10.42142508 24.14302472 -8.93359375 20.46875 C-8.68223663 19.84834335 -8.43087952 19.22793671 -8.17190552 18.58872986 C-6.94208566 15.55076866 -5.71574154 12.51143771 -4.4921875 9.47094727 C-4.05003906 8.37838623 -3.60789062 7.2858252 -3.15234375 6.16015625 C-2.76038818 5.18699463 -2.36843262 4.21383301 -1.96459961 3.21118164 C-1 1 -1 1 0 0 Z " fill="#FBFAF9" transform="translate(670,823)"/>
<path d="M0 0 C3.7945724 0.69696228 5.3486111 1.84122328 8.0625 4.5625 C8.58374023 7.29711914 8.58374023 7.29711914 8.43359375 10.53515625 C8.38831543 11.78055176 8.34303711 13.02594727 8.29638672 14.30908203 C8.21844565 15.72688918 8.14048224 17.14469511 8.0625 18.5625 C7.99651368 20.14297016 7.93297251 21.72354387 7.87158203 23.30419922 C7.6956985 27.6415834 7.485532 31.97655039 7.26293945 36.31176758 C7.12540126 38.9921801 6.99292529 41.67280548 6.86132812 44.35351562 C6.36044095 54.43078073 5.77611335 64.49795852 5.0625 74.5625 C6.135 74.005625 7.2075 73.44875 8.3125 72.875 C25.5373903 64.33904193 25.5373903 64.33904193 32.0625 65.5625 C34.26171875 66.9921875 34.26171875 66.9921875 36.0625 69.5625 C36.4569126 72.81900402 36.14955929 75.9902168 35.875 79.25 C35.74598099 81.21475135 35.61843855 83.17960009 35.4921875 85.14453125 C35.41967773 86.1804541 35.34716797 87.21637695 35.27246094 88.28369141 C34.90660595 93.99698504 34.71184774 99.71678839 34.5 105.4375 C34.41581941 107.58074708 34.33122401 109.72397793 34.24609375 111.8671875 C34.18480718 113.4322882 34.12357264 114.99739094 34.0625 116.5625 C35.2690625 116.0571875 36.475625 115.551875 37.71875 115.03125 C39.33303747 114.37427254 40.9476377 113.71806322 42.5625 113.0625 C43.35398437 112.72863281 44.14546875 112.39476562 44.9609375 112.05078125 C50.26002922 109.92245753 54.34785428 109.05494923 60.0625 109.5625 C62.5625 111.125 62.5625 111.125 64.0625 113.5625 C64.35056469 118.76873237 63.69039648 123.69504922 62.78515625 128.8046875 C62.58894936 129.95639938 62.58894936 129.95639938 62.38877869 131.13137817 C61.9729573 133.56772313 61.54949174 136.00265208 61.125 138.4375 C60.70519073 140.86537679 60.28711451 143.29352594 59.87193298 145.72219849 C59.6144243 147.22650898 59.35418091 148.73035514 59.09059143 150.23361206 C58.32214315 154.69822532 57.75147539 159.14665332 57.32666016 163.65748596 C56.82853407 167.24976576 55.02672656 169.58447908 53.0625 172.5625 C50.2044611 172.80066991 47.86438855 172.98492213 45.0625 172.5625 C41.94833771 169.91546205 41.14871612 168.4419044 40.75 164.375 C41.0625 161.5625 41.0625 161.5625 42.0625 159.5625 C42.41028764 157.66629016 42.71592488 155.76226431 43 153.85546875 C43.17273438 152.71142578 43.34546875 151.56738281 43.5234375 150.38867188 C43.70132813 149.18791016 43.87921875 147.98714844 44.0625 146.75 C44.4156644 144.38917277 44.76979525 142.02848986 45.125 139.66796875 C45.28097656 138.61762451 45.43695312 137.56728027 45.59765625 136.48510742 C46.02045835 133.82682803 46.51350368 131.19725722 47.0625 128.5625 C45.25265625 129.30306641 45.25265625 129.30306641 43.40625 130.05859375 C41.7918654 130.70622478 40.17727076 131.3533324 38.5625 132 C37.77101563 132.32548828 36.97953125 132.65097656 36.1640625 132.98632812 C31.09177369 135.00277081 26.55581577 136.52141751 21.0625 136.5625 C18.5859375 135.08984375 18.5859375 135.08984375 17.0625 132.5625 C16.70128102 129.92070356 16.58974525 127.75402404 16.6875 125.125 C16.70111572 124.39144287 16.71473145 123.65788574 16.72875977 122.90209961 C16.96581267 114.26454064 17.86431365 105.6684899 18.79248047 97.08251953 C19.23939736 92.91156461 19.64955839 88.73693397 20.0625 84.5625 C19.48806152 84.80484375 18.91362305 85.0471875 18.32177734 85.296875 C15.6981501 86.39644072 13.06802924 87.47955611 10.4375 88.5625 C9.53386719 88.9440625 8.63023437 89.325625 7.69921875 89.71875 C-1.39406505 93.43571272 -1.39406505 93.43571272 -5.9375 92.5625 C-8.07958984 91.01220703 -8.07958984 91.01220703 -9.9375 88.5625 C-10.28555649 85.84648615 -10.3701413 83.57427661 -10.265625 80.8671875 C-10.24953186 80.05498749 -10.23343872 79.24278748 -10.21685791 78.40597534 C-10.14832714 75.45697938 -10.04364731 72.51037843 -9.9375 69.5625 C-9.90052002 68.37209106 -9.86354004 67.18168213 -9.82543945 65.9552002 C-9.5668854 57.65393697 -9.24164043 49.35722612 -8.87548828 41.06005859 C-8.74660116 38.12027932 -8.62909275 35.18036219 -8.52099609 32.23974609 C-8.38857999 28.63788739 -8.23777307 25.0372475 -8.07355499 21.43670273 C-7.98619706 19.42477605 -7.91694642 17.41208918 -7.8480835 15.39944458 C-7.78832336 14.17982025 -7.72856323 12.96019592 -7.66699219 11.70361328 C-7.62257996 10.63507111 -7.57816772 9.56652893 -7.53240967 8.46560669 C-6.59293916 3.88107351 -4.69770627 0.89956078 0 0 Z " fill="#925538" transform="translate(605.9375,329.4375)"/>
<path d="M0 0 C3.5625 0.4375 3.5625 0.4375 6 2 C8.17895694 5.39917283 8.00021544 7.44386768 7.5625 11.4375 C5.95706697 13.83679606 4.51312737 15.68440504 2.5625 17.75 C1.5445412 18.88840119 0.52762162 20.02773247 -0.48828125 21.16796875 C-0.99182129 21.72274902 -1.49536133 22.2775293 -2.01416016 22.84912109 C-8.36344762 29.93462097 -13.91181777 37.70742326 -19.4375 45.4375 C-18.84324219 45.60765625 -18.24898437 45.7778125 -17.63671875 45.953125 C-12.86941457 47.34698688 -8.13529028 48.82399211 -3.4375 50.4375 C-2.53 50.746875 -1.6225 51.05625 -0.6875 51.375 C1.5625 52.4375 1.5625 52.4375 3.5625 55.4375 C4.11283865 58.46436256 4.16345379 60.47641581 2.5 63.13671875 C-0.65466371 66.95146155 -4.29487698 70.17272792 -8.0546875 73.375 C-10.96867169 75.89726828 -13.79868055 78.50564791 -16.625 81.125 C-17.17494629 81.63385742 -17.72489258 82.14271484 -18.29150391 82.66699219 C-20.59532631 84.80003802 -22.89699599 86.93538917 -25.19726562 89.07226562 C-26.36119387 90.15333357 -27.52565736 91.23382557 -28.69067383 92.3137207 C-29.77769448 93.32133008 -30.86355607 94.330192 -31.94799805 95.34057617 C-33.43437135 96.71785786 -34.93272659 98.08036474 -36.4375 99.4375 C-37.21178345 100.14918335 -37.21178345 100.14918335 -38.00170898 100.87524414 C-42.80752409 105.12953511 -42.80752409 105.12953511 -46.625 105 C-50.4375 104.4375 -50.4375 104.4375 -52.4375 102.8125 C-53.75234227 99.68974961 -53.8635511 97.8172323 -53.4375 94.4375 C-51.65119805 92.17782804 -50.03474239 90.41747876 -47.9375 88.5 C-47.38578125 87.97277344 -46.8340625 87.44554687 -46.265625 86.90234375 C-42.80066848 83.61549247 -39.23196206 80.45559976 -35.5859375 77.37109375 C-32.05561909 74.19380718 -28.76502808 70.76945793 -25.47265625 67.34765625 C-24.16374181 66.00798403 -22.80428728 64.71807455 -21.4375 63.4375 C-20.7775 63.4375 -20.1175 63.4375 -19.4375 63.4375 C-19.4375 62.7775 -19.4375 62.1175 -19.4375 61.4375 C-19.97117187 61.26734375 -20.50484375 61.0971875 -21.0546875 60.921875 C-37.20673077 55.66826923 -37.20673077 55.66826923 -40.4375 52.4375 C-41.0389092 48.95196056 -41.08070082 46.51270914 -39.22998047 43.41894531 C-37.52046672 41.22225906 -35.72907272 39.13856708 -33.875 37.0625 C-32.5721914 35.54619576 -31.27009855 34.02927624 -29.96875 32.51171875 C-29.34742188 31.79806152 -28.72609375 31.0844043 -28.0859375 30.34912109 C-26.27204726 28.24563167 -24.55305501 26.08814908 -22.875 23.875 C-19.55247192 19.54460993 -16.12354548 15.30293627 -12.6875 11.0625 C-12.1195874 10.35923584 -11.5516748 9.65597168 -10.96655273 8.93139648 C-10.15553101 7.93281616 -10.15553101 7.93281616 -9.328125 6.9140625 C-8.84375977 6.31674316 -8.35939453 5.71942383 -7.86035156 5.10400391 C-3.92958987 0.50012962 -3.92958987 0.50012962 0 0 Z " fill="#925638" transform="translate(770.4375,408.5625)"/>
<path d="M0 0 C2.3984375 -0.37231445 2.3984375 -0.37231445 5.375 -0.36328125 C6.44234375 -0.36263672 7.5096875 -0.36199219 8.609375 -0.36132812 C9.72828125 -0.34521484 10.8471875 -0.32910156 12 -0.3125 C13.67835938 -0.31733398 13.67835938 -0.31733398 15.390625 -0.32226562 C23.7331497 -0.2668503 23.7331497 -0.2668503 26 2 C26.25396729 4.54284668 26.25396729 4.54284668 26.25878906 7.79492188 C26.26509338 9.0095813 26.27139771 10.22424072 26.27789307 11.47570801 C26.2738446 12.79341187 26.26979614 14.11111572 26.265625 15.46875 C26.26697176 16.82873606 26.26891239 18.18872165 26.27142334 19.54870605 C26.27437409 22.40019307 26.27007864 25.25155487 26.26074219 28.10302734 C26.24934754 31.76182777 26.25590729 35.4203348 26.26788712 39.07912445 C26.27510712 41.88777892 26.27281717 44.69636359 26.26763153 47.50502014 C26.26564461 49.51144602 26.27172863 51.5178746 26.27789307 53.52429199 C26.27158875 54.73895142 26.26528442 55.95361084 26.25878906 57.20507812 C26.25640228 58.81485535 26.25640228 58.81485535 26.25396729 60.45715332 C26 63 26 63 24 65 C21.6015625 65.25878906 21.6015625 65.25878906 18.625 65.265625 C17.55765625 65.26820313 16.4903125 65.27078125 15.390625 65.2734375 C13.71226562 65.26183594 13.71226562 65.26183594 12 65.25 C10.88109375 65.25773437 9.7621875 65.26546875 8.609375 65.2734375 C7.54203125 65.27085937 6.4746875 65.26828125 5.375 65.265625 C4.39273438 65.26336914 3.41046875 65.26111328 2.3984375 65.25878906 C0 65 0 65 -2 63 C-2.25396729 60.50184631 -2.25396729 60.50184631 -2.25878906 57.31274414 C-2.26509338 56.12133316 -2.27139771 54.92992218 -2.27789307 53.70240784 C-2.2738446 52.40971481 -2.26979614 51.11702179 -2.265625 49.78515625 C-2.26697193 48.44998606 -2.26891269 47.11481634 -2.27142334 45.77964783 C-2.27437434 42.97943458 -2.27007854 40.17934883 -2.26074219 37.37915039 C-2.24935854 33.7899486 -2.25590014 30.20104626 -2.26788712 26.61185551 C-2.27511586 23.85377244 -2.27281296 21.0957603 -2.26763153 18.33767509 C-2.26564816 16.37062765 -2.27172302 14.40357746 -2.27789307 12.4365387 C-2.27158875 11.24197556 -2.26528442 10.04741241 -2.25878906 8.81665039 C-2.25719788 7.76345108 -2.25560669 6.71025177 -2.25396729 5.62513733 C-2 3 -2 3 0 0 Z " fill="#915437" transform="translate(788,283)"/>
<path d="M0 0 C2.4375 1.625 2.4375 1.625 4 4 C4.5625 6.9375 4.5625 6.9375 4 10 C-0.22822077 15.08434812 -5.74336152 18.22917188 -11.3125 21.6875 C-12.29001221 22.30181885 -13.26752441 22.9161377 -14.2746582 23.54907227 C-17.17913802 25.37248373 -20.08895347 27.18709607 -23 29 C-25.23455795 30.39806823 -27.46834786 31.79735402 -29.7019043 33.19702148 C-31.01118336 34.01497881 -32.32250641 34.82967474 -33.63598633 35.64086914 C-36.52210203 37.42558028 -39.34922478 39.24076988 -42.14453125 41.16796875 C-49.81400286 46.42433712 -49.81400286 46.42433712 -54.5 46.6875 C-58 46 -58 46 -60 44.375 C-61.3181446 41.24440659 -61.55014903 39.3696628 -61 36 C-57.38800038 31.84381964 -53.29948229 29.02213691 -48.6875 26.125 C-47.96763916 25.66593262 -47.24777832 25.20686523 -46.50610352 24.73388672 C-44.00966533 23.14688208 -41.50576113 21.57224228 -39 20 C-38.00677734 19.37609375 -37.01355469 18.7521875 -35.99023438 18.109375 C-29.87589236 14.2723327 -23.75672978 10.44311068 -17.62158203 6.6394043 C-15.9520246 5.59534785 -14.29050958 4.53823668 -12.64013672 3.46411133 C-11.59043701 2.78384888 -11.59043701 2.78384888 -10.51953125 2.08984375 C-9.62584839 1.49997681 -9.62584839 1.49997681 -8.71411133 0.89819336 C-5.68664266 -0.6881985 -3.29331495 -0.56999682 0 0 Z " fill="#95583B" transform="translate(858,488)"/>
<path d="M0 0 C2.6450433 1.78637748 4.53951125 4.05033552 6.5625 6.5 C7.12549805 7.14420898 7.68849609 7.78841797 8.26855469 8.45214844 C9.86549424 10.2855348 11.43402969 12.14017778 13 14 C14.24743392 15.41892672 15.49681488 16.83615012 16.75 18.25 C17.27335938 18.85714844 17.79671875 19.46429688 18.3359375 20.08984375 C20.31540126 22.36204511 22.3458317 24.58459872 24.375 26.8125 C28.39615531 31.26596382 32.22360756 35.84936072 35.98046875 40.52734375 C37.61630633 42.53021645 39.30650835 44.4180076 41.0625 46.3125 C43 49 43 49 43.625 52.125 C43 55 43 55 40.875 57.375 C37.46418575 59.30285153 35.85187398 59.72222637 32 59 C30.26760448 57.40176306 28.61175206 55.71982873 27 54 C26.53368164 53.50491943 26.06736328 53.00983887 25.58691406 52.49975586 C24.09038026 50.90397242 22.60601036 49.2976958 21.125 47.6875 C20.59326172 47.10991943 20.06152344 46.53233887 19.51367188 45.93725586 C14.62041908 40.60859917 9.8649467 35.17554045 5.15625 29.68359375 C4.64094727 29.08297119 4.12564453 28.48234863 3.59472656 27.86352539 C2.53648332 26.62691016 1.48111183 25.38783129 0.42871094 24.14624023 C-2.36509736 20.85797221 -5.2409667 17.71965619 -8.25 14.625 C-10.5782084 11.98447096 -11.45869632 10.22465135 -11.625 6.6875 C-11 3 -11 3 -10 1 C-6.72475129 -0.63762435 -3.52060739 -0.72599867 0 0 Z " fill="#925538" transform="translate(509,425)"/>
<path d="M0 0 C3.68272664 1.60933246 7.06420614 3.67322234 10.5 5.75 C12.53688731 6.94641929 14.57602088 8.13902118 16.6171875 9.328125 C17.66358398 9.93849609 18.70998047 10.54886719 19.78808594 11.17773438 C25.9230948 14.65840526 32.2324816 17.81507186 38.54882812 20.95214844 C43.47590247 23.45431556 47.51123833 25.65891146 51 30 C51.67064058 33.65126535 51.48198314 35.23686002 49.5 38.375 C46.06914634 40.60505488 42.94400011 40.46644131 39 40 C35.60766602 38.68994141 35.60766602 38.68994141 32.25390625 36.8515625 C31.64460266 36.52322418 31.03529907 36.19488586 30.40753174 35.8565979 C28.4496889 34.79581155 26.50615593 33.71152802 24.5625 32.625 C23.21827449 31.88793419 21.87346314 31.15193583 20.52807617 30.41699219 C17.25739783 28.62343036 13.99937651 26.80839394 10.74731445 24.98132324 C9.16481808 24.0925648 7.57963217 23.20859947 5.99414062 22.32519531 C3.59150325 20.98139257 1.19871251 19.6227122 -1.1875 18.25 C-1.85644287 17.86924316 -2.52538574 17.48848633 -3.21459961 17.09619141 C-6.52076738 15.14224581 -9.13846756 13.41621888 -11 10 C-10.87988224 6.57664374 -10.60726153 4.04583931 -8.875 1.0625 C-5.91687332 -0.61377178 -3.25925129 -0.59498989 0 0 Z " fill="#935639" transform="translate(470,495)"/>
<path d="M0 0 C0.33 0.99 0.66 1.98 1 3 C0.0479279 4.00596297 -0.91187346 5.00461563 -1.875 6 C-2.40867187 6.556875 -2.94234375 7.11375 -3.4921875 7.6875 C-5 9 -5 9 -7 9 C-7 10.65 -7 12.3 -7 14 C-7.33 14 -7.66 14 -8 14 C-8.5 11.5 -8.5 11.5 -8 8 C-5.58622266 5.04629878 -2.86095001 2.51610335 0 0 Z " fill="#9D674E" transform="translate(725,495)"/>
<path d="M0 0 C0.33 0 0.66 0 1 0 C2.22818325 5.03555134 1.5498217 8.10582621 0 13 C-0.72478974 16.32235835 -1.36807109 19.65884397 -2 23 C-2.96804074 19.89484695 -2.98121797 17.6488104 -2.44140625 14.453125 C-2.30283203 13.60878906 -2.16425781 12.76445313 -2.02148438 11.89453125 C-1.87001953 11.02183594 -1.71855469 10.14914062 -1.5625 9.25 C-1.34110352 7.91775391 -1.34110352 7.91775391 -1.11523438 6.55859375 C-0.75064986 4.37108664 -0.37867934 2.18510358 0 0 Z " fill="#D1B6A9" transform="translate(346,909)"/>
<path d="M0 0 C0.88365234 0.00451172 1.76730469 0.00902344 2.67773438 0.01367188 C4.84768559 0.02540134 7.01760172 0.04333505 9.1875 0.0625 C9.1875 0.3925 9.1875 0.7225 9.1875 1.0625 C7.38152344 1.15337891 7.38152344 1.15337891 5.5390625 1.24609375 C3.96352923 1.33049732 2.38800904 1.41514541 0.8125 1.5 C0.0184375 1.53931641 -0.775625 1.57863281 -1.59375 1.61914062 C-5.83851221 1.75143404 -5.83851221 1.75143404 -9.8125 3.0625 C-11.48904729 2.78307545 -13.15858154 2.45421753 -14.8125 2.0625 C-14.8125 1.7325 -14.8125 1.4025 -14.8125 1.0625 C-9.89747242 -0.22985715 -5.03959898 -0.04885517 0 0 Z " fill="#D7BFB5" transform="translate(640.8125,534.9375)"/>
<path d="M0 0 C0.99 0.33 1.98 0.66 3 1 C0.69 3.64 -1.62 6.28 -4 9 C-4.66 8.34 -5.32 7.68 -6 7 C-4.02 4.69 -2.04 2.38 0 0 Z " fill="#9D6346" transform="translate(764,412)"/>
<path d="M0 0 C5.28 0.33 10.56 0.66 16 1 C16 1.33 16 1.66 16 2 C10.555 2.495 10.555 2.495 5 3 C5 2.34 5 1.68 5 1 C3.35 1 1.7 1 0 1 C0 0.67 0 0.34 0 0 Z " fill="#AA7B64" transform="translate(533,875)"/>
<path d="M0 0 C3.7910119 1.44950455 7.3874638 3.15172566 11 5 C10.01 5.66 9.02 6.32 8 7 C8 6.34 8 5.68 8 5 C7.05125 4.855625 6.1025 4.71125 5.125 4.5625 C2 4 2 4 0 3 C0 2.01 0 1.02 0 0 Z " fill="#9E6348" transform="translate(683,528)"/>
<path d="M0 0 C0.33 1.32 0.66 2.64 1 4 C0.01 4.33 -0.98 4.66 -2 5 C-3.20882096 7.00016466 -3.20882096 7.00016466 -4 9 C-4.99 9 -5.98 9 -7 9 C-4.69 6.03 -2.38 3.06 0 0 Z " fill="#975C3F" transform="translate(1028,1028)"/>
<path d="M0 0 C2.97 0 5.94 0 9 0 C8.67 0.66 8.34 1.32 8 2 C5.35139573 2.59355614 2.70802678 2.74209269 0 3 C0 2.01 0 1.02 0 0 Z " fill="#985C3E" transform="translate(627,463)"/>
<path d="M0 0 C0.66 0 1.32 0 2 0 C2.36923077 5.53846154 2.36923077 5.53846154 0.5 7.875 C-0.2425 8.431875 -0.2425 8.431875 -1 9 C-1.99 8.67 -2.98 8.34 -4 8 C-3.525625 7.608125 -3.05125 7.21625 -2.5625 6.8125 C-0.64820367 4.59191626 -0.38733012 2.86624291 0 0 Z " fill="#955F45" transform="translate(550,474)"/>
<path d="M0 0 C0.33 1.32 0.66 2.64 1 4 C1.66 4 2.32 4 3 4 C2.67 6.64 2.34 9.28 2 12 C-0.60018816 8.09971775 -0.15085514 4.52565431 0 0 Z " fill="#B18873" transform="translate(730,820)"/>
<path d="M0 0 C0 4.31618166 -2.13270348 5.92789659 -5 9 C-5.66 9 -6.32 9 -7 9 C-5.44499019 5.18315774 -2.96404505 2.80804268 0 0 Z " fill="#A0694E" transform="translate(223,161)"/>
<path d="M0 0 C0.99 0.33 1.98 0.66 3 1 C3 1.66 3 2.32 3 3 C0.5 4.625 0.5 4.625 -2 6 C-2 4.68 -2 3.36 -2 2 C-1.34 2 -0.68 2 0 2 C0 1.34 0 0.68 0 0 Z " fill="#F2EBE7" transform="translate(748,469)"/>
<path d="M0 0 C0.66 0.99 1.32 1.98 2 3 C0.68 4.32 -0.64 5.64 -2 7 C-2.99 6.67 -3.98 6.34 -5 6 C-3.35 4.02 -1.7 2.04 0 0 Z " fill="#955D41" transform="translate(956,355)"/>
</svg>
