<svg xmlns="http://www.w3.org/2000/svg" width="5225" height="5225"><path fill="#A64516" d="m2336 1278 2.768 1.355c28.042 13.866 56.055 31.318 76.232 55.645l2.441 2.746c30.14 34.095 54.109 83.213 54.875 129.277l.063 3.211q.066 3.362.124 6.723.09 5.059.19 10.117c.669 34.91.669 34.91-.443 47.613l-.267 3.058c-5.67 59.977-34.325 109.475-76.17 151.568l-1.98 1.994c-12.566 12.523-25.398 24.504-43.833 25.693l1 7 1.886.531c21.44 6.073 41.974 12.89 62.114 22.469l2.484 1.167c25.127 11.874 48.046 27.237 68.974 45.498 2.165 1.875 4.361 3.713 6.556 5.554 15.19 12.76 29.753 26.105 41.986 41.781q1.425 1.762 2.86 3.52c5.247 6.452 10.297 12.984 15.074 19.792 5.166 7.322 10.663 14.394 16.109 21.508 3.41 4.456 6.787 8.935 10.144 13.43 5.672 7.586 11.422 15.11 17.185 22.626q6.44 8.405 12.865 16.818l3.666 4.791c8.904 11.627 17.699 23.323 26.353 35.137 2.426 3.308 4.862 6.609 7.298 9.91A3005 3005 0 0 1 2663 2011c11.978-3.66 22.99-8.04 34-14l2.14-1.14a375 375 0 0 0 25.11-14.672c21.62-13.8 43.91-27.24 67.688-37 8.105-3.393 14.475-8.165 21.062-13.942 2.568-1.6 4.252-1.552 7.25-1.434l2.703.083 2.047.105.363-2.227c5.058-22.031 33.654-34.187 50.965-45.664a5939 5939 0 0 0 41.054-27.47l4.405-2.97c7.344-4.951 14.662-9.936 21.885-15.064l1.69-1.193c6.037-4.318 11.996-9.043 16.595-14.908 2.166-2.655 4.426-4.623 7.106-6.754 4.186-3.337 4.186-3.337 8.292-6.77 17.151-14.632 36.8-26.499 55.575-38.938q4.156-2.766 8.289-5.565c13.046-8.826 25.718-16.408 40.554-21.836 6.362-2.395 12.155-4.995 17.102-9.766l2.242-2.07c5.071-7.554 4.23-17.975 4.375-26.727q.047-2.023.097-4.046.209-8.487.365-16.974c.336-17.634 1.47-34.747 4.113-52.2 1.552-10.621 2.049-21.317 2.144-32.042q.039-2.756.08-5.512l.04-2.841c.867-56.488.867-56.488 7.669-75.463l2-1a163 163 0 0 0 3.25-7.375c12.564-29.351 33.196-51.833 62.75-64.625 26.907-10.197 56.064-10.036 82.438 1.371 27.132 12.406 51.405 32.57 62.116 60.996 1.25 3.515 2.37 7.062 3.446 10.633l1.148 3.75c5.643 20.366 6.282 41.827 7.074 62.822.27 7.028.582 14.054.907 21.08.033.722.067 1.444.1 2.188.731 15.619 1.835 31.199 3.084 46.785l.315 3.944c1.247 15.448 2.58 30.89 3.923 46.33l.197 2.268 1.572 18.074c3.148 36.18 6.036 72.435 6.68 108.759l.04 2c.7 34.734.7 34.734-3.04 50l-.488 2.019c-6.253 24.708-20.048 43.93-37.512 61.981l-1.922 2.043c-5.757 5.99-12.35 11.117-18.95 16.145-5.794 4.5-9.911 8.976-14.07 15-11.365 15.527-29.04 26.593-45.058 36.812-.8.565-1.598 1.13-2.422 1.71-3.539 1.77-6.644 1.957-10.578 2.29l1.158 2.041c18.038 31.843 34.307 61.836 25.103 99.723-2.233 7.964-5.204 15.733-8.073 23.486l-.758 2.05c-7.378 19.78-16.486 34.69-32.43 48.7l-2.055 1.863c-23.097 20.768-49.013 36.608-80.258 40.637-9.04 1.176-16.47 3.493-24.687 7.5l-3.297 1.605c-9.577 5.093-17.93 11.75-26.48 18.38-6.49 5.02-13.171 9.735-19.913 14.408-2.542 1.768-5.07 3.554-7.6 5.341-11.05 7.786-22.24 15.292-33.67 22.511a799 799 0 0 0-17.785 11.577c-5.59 3.74-11.2 7.448-16.818 11.147l-2.814 1.853q-5.757 3.792-11.517 7.583c-9.57 6.3-19.14 12.604-28.668 18.968a3965 3965 0 0 1-20.7 13.714q-2.24 1.476-4.477 2.957c-43.822 28.99-89.461 52.742-143.198 53.081l-2.095.015c-2.325-.008-4.644-.07-6.968-.14l-3.084-.036c-10.087-.367-18.597-3.122-27.979-6.526l-4.626-1.632c-10.169-3.596-20.295-7.32-30.34-11.252l-2.257-.883L2689 2406c-.989 15.036-1.405 30.086-1.819 45.146a14102 14102 0 0 1-.545 19.323l-.073 2.572-.3 10.579c-2.107 74.51-4.507 149.009-7.075 223.505l-.241 6.991q-1.464 42.443-2.947 84.884l1.686-.007c81.625-.307 163.233 1.212 244.84 2.747q12.334.232 24.667.455c89.997 1.634 89.997 1.634 133.537 2.875l2.175.062c60.805 1.731 119.382 5.117 178.386 21.036 40.738 10.985 81.885 20.134 123.213 28.603 80.603 16.524 160.821 35.025 240.994 53.5l10.224 2.352q8.057 1.854 16.112 3.717l5.88 1.356c10.409 2.396 20.777 4.888 31.088 7.682 5.609 1.511 11.18 2.652 16.948 3.372l2.395.34c16.75 2.256 33.584 2.092 50.45 2.16l8.348.044q8.952.05 17.904.09c9.45.045 18.898.099 28.347.154l12.182.071q13.794.08 27.587.156l2.543.014q20.404.111 40.809.207 21.01.102 42.021.234 12.926.082 25.852.132 8.866.035 17.734.1 5.1.035 10.201.05c17.698.044 34.358.745 51.252 6.56l2.635.897c33.473 11.894 57.935 35.803 73.365 67.416 9.227 19.59 12.278 40.144 11.678 61.666-.045 1.659-.062 3.319-.073 4.979-.724 17.898-12.519 36.685-20.98 51.98l2.149-.048c31.447-.604 55.264 5.908 79.863 25.665 1.841 1.469 3.714 2.9 5.633 4.266 18.39 13.38 28.721 37.617 32.605 59.43 1.515 9.893 1.916 19.786 1.953 29.78l.017 3.718q.014 3.878.02 7.755c.01 3.895.041 7.79.073 11.684.15 35.401-7.065 68.478-32.563 94.5-27.381 26.869-60.6 32.775-97.679 32.587-3.616-.015-7.233-.014-10.85-.015q-9.118-.006-18.237-.04a7349 7349 0 0 0-23.12-.044c-6.734-.004-13.468-.017-20.202-.03q-3.165-.007-6.33-.01c-18.799-.03-37.55-.429-56.332-1.198l.034 2.117c.804 50.597 1.111 101.195 1.282 151.797l.009 2.441c.084 24.957.155 49.914.223 74.87l.044 16.26a249317 249317 0 0 1 .358 144.685l.006 2.754a115886 115886 0 0 0 .111 45.498l.007 2.6a73183 73183 0 0 1 .215 111.712c.015 11.929.043 23.857.076 35.785q.049 17.807.053 35.614c.002 6.372.01 12.743.035 19.115q.034 8.696.018 17.393-.001 3.131.02 6.262c.145 23.263.145 23.263-6.675 33.316l-2.253 2.281-2.247 2.344L3956 4101l-2.223 2.156c-7.312 4.855-16.59 4.126-25.026 4.087l-3.946.006q-5.328.004-10.657-.013c-3.747-.01-7.494-.007-11.24-.007q-9.456-.002-18.911-.023a9577 9577 0 0 0-21.688-.02q-11.638-.001-23.278-.016l-6.608-.003c-13.347-.005-26.696-.027-40.036-.49l-2.658-.066c-8.45-.363-13.946-3.77-19.987-9.679-5.796-6.368-5.288-13.763-5.183-21.897a921 921 0 0 0-.071-5.12c-.051-3.682-.068-7.362-.059-11.044.016-5.896-.042-11.789-.11-17.684q-.122-11.106-.186-22.213c-.09-15.338-.354-30.67-.668-46.005l-.371-18.196q-.355-17.26-.67-34.52l-.114-6.137a1688 1688 0 0 1-.32-34.338L3762 3867h-1.943c-98.272.037-196.544.055-564.826-.26l-3.043-.005q-78.532-.132-157.063-.278a1219981 1219981 0 0 0-131.425-.236q-38.625-.067-77.249-.137l-3.543-.006q-55.273-.098-110.547-.2l-3.584-.006-57.495-.105a3067522 3067522 0 0 0-242.773-.435l-3.617-.007-39.71-.07-3.601-.006q-95.651-.168-191.302-.342l-27.575-.05-10.27-.018q-45.083-.082-90.165-.16-79.767-.14-159.534-.29l-2.984-.006c-91.418-.172-182.836-.375-458.751-1.383l.303 62.818c.18 38.329.18 38.329.431 76.657.081 10.825.114 21.65.125 32.475.008 4.761.042 9.522.091 14.284.062 6.075.08 12.15.068 18.225q.003 3.343.055 6.686c.279 18.737.279 18.737-5.137 24.488-2.482 1.879-2.482 1.879-4.936 3.367l-1.97 1.376c-5.477 3.337-11.305 3.28-17.561 3.357l-3.426.086c-3.68.083-7.361.136-11.043.181l-3.7.055c-9.266.132-18.533.186-27.8.218l-2.171.008q-10.18.039-20.36.06-12.87.023-25.74.107-9.148.056-18.295.063c-3.619.004-7.237.016-10.855.048-4.019.036-8.037.032-12.056.024l-3.564.05c-8.232-.062-15.15-1.633-21.335-7.374-1.536-1.674-2.838-3.388-4.124-5.259l-1.215-1.687c-4.43-6.812-3.935-15.075-3.912-22.929l-.005-2.5c-.004-2.763 0-5.526.003-8.289l-.006-6.05q-.005-8.377 0-16.754.003-7.316 0-14.63-.006-20.362.004-40.725.007-14.142.008-28.285c.012-97.423.203-194.845 1.123-561.151l-2.235.212-2.96.275-2.923.274c-4.267.354-8.527.472-12.808.555l-2.876.064q-4.755.1-9.51.182l-3.36.062c-21.044.369-42.091.541-63.138.607q-5.145.017-10.29.053c-39.92.264-76.194-4.201-108.9-29.284l-2.305-1.703c-20.85-16.58-30.364-47.435-33.61-72.67-5.325-47.545-.836-93.11 29.547-131.432 14.271-17.485 31.45-30.645 54.368-34.195a87 87 0 0 1 5 0v-5q22.72-.398 45.44-.782 10.56-.179 21.117-.364c33.149-.582 66.288-1.028 99.443-.854v-2q9.234-.86 18.47-1.709l6.279-.582q4.52-.42 9.04-.834l2.823-.265c4.48-.408 8.883-.714 13.388-.61v-4c7.547-2.156 15.23-3.05 23-4l-2.082-.652c-29.741-9.394-57.393-20.814-81.918-40.348l-1.641-1.286c-15.883-12.516-30.55-27.294-42.359-43.714l-1.45-1.97c-11.143-15.14-20.507-31.048-28.55-48.03l-.991-2.063c-8.235-17.253-15.485-35.903-18.009-54.937l-.303-2.251c-9.244-72.972 4.842-135.047 49.57-193.378 5.55-7.137 11.484-13.843 17.733-20.371l1.425-1.507c7.072-7.453 14.569-13.99 22.79-20.147a350 350 0 0 0 5.164-3.987c33.818-26.096 79.252-46.35 122.523-46.562l2.868-.022c39.815-.229 39.815-.229 57.23 3.225l3.1.602c23.305 4.66 45.563 11.924 66.9 22.398l2.236 1.097c20.886 10.382 40.943 23.688 57.764 39.903l1.534 1.472c7.371 7.106 14.203 14.41 20.466 22.528l1.337 1.696c28.136 35.716 47.553 77.972 49.226 123.804l.13 3.36q.159 4.07.307 8.14l2.36-2.098c23.6-20.742 50.063-38.857 77.64-53.902l2.604-1.442C1713.248 2777.757 1753.226 2758 1787 2758l.162-3.05c.604-11.015 1.478-21.993 2.461-32.98l.489-5.528a15752 15752 0 0 1 1.888-21.153q1.323-14.766 2.657-29.53c1.02-11.282 2.033-22.564 3.029-33.848 8.058-91.282 8.058-91.282 14.421-130.652 3.654-22.684 5.433-45.282 4.893-68.259l-.09-3.919c-.104-4.298-.223-8.596-.348-12.894l-.058-2.092A701 701 0 0 0 1816 2401l-.122-2.804c-.243-3.403-.55-5.736-2.558-8.544l-2.195-1.715-2.469-2a136 136 0 0 0-5.312-3.687c-25.794-17.196-41.571-56.845-47.657-86.062-3.867-20.222-4.032-40.677-3.687-61.188l.059-4.263c.296-20.9 1.096-41.77 2.175-62.643l.191-3.71c1.62-31.153 3.794-62.267 6.019-93.381q.581-8.154 1.147-16.307c6.464-93.002 16.242-183.51 74.745-260.137a129 129 0 0 0 4.789-6.758c3.146-4.7 6.986-8.712 10.875-12.801l1.998-2.101c15.83-16.521 15.83-16.521 24.389-21.352 3.124-1.85 5.906-4.04 8.738-6.297 47.32-37.152 100.507-48.14 158.875-54.25 0-3.414-2.997-5.559-5.187-8-18.178-20.779-32.127-44.59-44.813-69l-1.203-2.287c-9.181-17.617-15.33-37.07-19.14-56.53-.49-3.063-.49-3.063-1.657-5.183a214 214 0 0 1-.754-7.508l-.197-2.298q-.207-2.422-.406-4.847c-.2-2.414-.413-4.828-.625-7.242-1.345-15.732-1.119-31.283-.328-47.04.122-2.496.229-4.992.335-7.489.672-14.357 2.362-28.384 7.162-42.014l.915-2.657c16.22-46.077 45.405-89.613 83.898-119.905q1.64-1.325 3.277-2.652c8.252-6.647 16.799-12.643 25.723-18.348l2.093-1.36c11.486-7.437 23.235-13.482 35.907-18.64l2.608-1.066c14.763-5.934 29.782-9.921 45.392-12.934l2.78-.543c52.053-9.673 107.233 1.478 154.22 24.543m-244.383 89.629a130 130 0 0 1-4.478 3.908c-5.01 4.187-8.803 8.608-12.514 13.963l-1.683 2.384A973 973 0 0 0 2068 1395l-1.417 2.036a282 282 0 0 0-13.646 21.651l-1.159 2.036c-1.706 3.07-3.026 5.852-3.778 9.277l5 3c-2.18 7.644-4.77 15.099-7.5 22.563-2.594 7.117-5.143 14.237-7.5 21.437-1.875-3.561-2.953-7.112-4-11-2.373 3.862-2.872 8.101-3.562 12.5-.13.807-.26 1.615-.392 2.447-.989 6.34-1.764 12.638-2.046 19.053l-.16 3.152c-1.305 50.45 18.321 101.185 52.42 138.107 5.2 5.439 11.006 9.967 17.032 14.45 1.62 1.224 3.202 2.499 4.782 3.775 39.253 31.563 88.373 42.79 137.926 41.516l2.074-.026c43.085-.615 83.245-24.452 113.926-52.974l2.05-1.887c6.052-5.784 11.011-12.384 15.95-19.113l1.471-1.991c24.306-33.06 37.558-70.239 37.732-111.509l.017-3.258q.015-3.399.02-6.797c.01-3.408.041-6.815.073-10.222.085-17.2-1.287-33.004-7-49.348l-1.055-3.078A154 154 0 0 0 2394 1416l-1.05-1.899c-8.356-15.012-19.096-27.743-30.95-40.101l-2.371-2.496c-34.612-35.6-86.82-54.786-135.937-55.672-49.556-.419-95.632 18.444-132.075 51.797m1099.028 132.629c-9.508 10.16-15.943 20.704-16.353 34.716l-.12 2.96c-.126 3.207-.233 6.416-.34 9.625q-.127 3.348-.256 6.696c-.224 5.86-.432 11.72-.636 17.582-.212 5.986-.439 11.972-.665 17.958q-.658 17.602-1.275 35.205h-5c-3.18 12.286-4.512 24.5-5.16 37.14l-.12 2.326c-.24 4.783-.46 9.567-.674 14.351q-.429 9.645-.908 19.287a980 980 0 0 0-.29 6.619c-1.127 24.502-7.372 43.501-25.274 60.71-3.421 3.31-3.421 3.31-4.84 7.696.017 2.631.116 5.244.266 7.871l.031 2.387c1.063 11.48 12.874 20.852 20.739 28.355 1.81 1.832 3.453 3.681 5.117 5.64 5.677 6.545 11.957 12.529 18.113 18.618q3.722 3.683 7.438 7.375l1.68 1.655a153 153 0 0 1 8.172 8.753c4.32 4.992 8.969 9.638 13.632 14.307l2.85 2.86q2.974 2.982 5.95 5.958c2.515 2.514 5.021 5.034 7.527 7.557q2.938 2.952 5.884 5.897 2.05 2.054 4.092 4.115c10.887 10.848 22.46 20.635 36.775 26.523 22.73-16.9 36.774-34.137 41.224-62.948 2.142-16.292.688-32.231-1.625-48.418-3.157-22.502-3.922-45.243-4.895-67.922-1.727-40.16-3.978-80.289-6.367-120.414q-.465-7.821-.92-15.641-.562-9.66-1.148-19.32-.303-4.984-.592-9.968c-.717-12.307-1.535-24.559-3.163-36.783l-.357-2.71c-.913-6.361-2.394-11.576-6.157-16.876l-2.078-3.004c-10.234-14.185-23.569-25.658-40.922-29.996-18.09-2.92-35.794.259-49.355 13.258M1986 1754l-3.346.867a106 106 0 0 0-7.154 2.258l-2.58.89c-32.198 11.487-59.557 31.319-83.385 55.497-2.42 2.436-4.916 4.722-7.52 6.96-60.81 52.573-58.758 137.19-64.737 211.093l-.906 11.166q-2.295 28.23-4.56 56.463l-1.119 13.896c-3.409 42.27-6.805 84.495-7.693 126.91l-.07 3.265c-.583 30.756 1.496 59.992 23.07 83.735l2.324 2.648A418 418 0 0 0 1835 2337l1.664 1.828c26.303 27.728 65.459 38.082 101.274 46.797q4.008.986 8.016 1.978 6.852 1.693 13.707 3.376c13.602 3.34 27.197 6.713 40.79 10.093 59.161 14.73 59.161 14.73 118.373 29.256l2.485.604q10.706 2.602 21.413 5.197a8294 8294 0 0 1 65.309 16.138l8.235 2.067c12.288 3.082 24.574 6.166 36.857 9.267q8.616 2.174 17.237 4.338 3.558.894 7.114 1.796c45.302 12.435 45.302 12.435 89.526 3.265l2.922-1.57c11.806-6.904 23.686-17.157 28.265-30.242l.749-2.002c5.883-16.208 6.987-36.133.064-52.186-9.455-17.74-24.115-32.69-43.448-39.152a543 543 0 0 0-12.306-3.422l-4.725-1.287c-19.44-5.276-38.967-10.235-58.49-15.196q-5.985-1.524-11.968-3.054a19655 19655 0 0 0-17.275-4.406c-12.9-3.291-25.83-6.432-38.788-9.483v2l-2.535-.367-3.528-.508-3.87-.57a171 171 0 0 0-7.915-.922c-9.99-1.013-17.579-3.848-25.883-9.488-5.304-3.008-11.265-4.16-17.143-5.572a976 976 0 0 1-6.82-1.67q-4.957-1.225-9.918-2.44c-8.9-2.18-17.788-4.41-26.673-6.65l-2.792-.705c-20.755-5.244-41.394-10.888-62.004-16.672q-3.97-1.112-7.944-2.219c-55.267-15.409-55.267-15.409-70.975-27.217h-2l-.793-2.078c-1.364-3.303-2.94-6.466-4.52-9.672-3.912-8.136-6.375-16.546-8.687-25.25l-2 3h-4q.62-8.5 1.25-17l.196-2.648a2961 2961 0 0 1 2.644-33.274l.276-3.246q.671-7.868 1.363-15.734c.814-9.386 1.597-18.669 1.271-28.098h5l.304-2.31q1.825-13.848 3.696-27.69l.277-2.055q.91-6.724 1.848-13.445l.48-3.536c1.997-14.184 1.997-14.184 6.332-18.276l1.528-1.489c4.702-3.673 11.841-2.425 17.473-2.449l3.615-.062 3.474-.016 3.18-.028c3.186.406 4.523 1.116 6.793 3.356 1.266 3.798 1.182 7.377 1.203 11.336l.02 2.577c.018 2.82.024 5.641.027 8.462l.006 2.937c.01 17.94-.937 35.742-2.302 53.625-1.564 20.498-2.096 40.881-2.016 61.438q.008 3.463.013 6.926.017 8.35.049 16.699c11.64 6.406 23.188 10.571 36 14l2.93.791a2986 2986 0 0 0 19.816 5.241c24.603 6.451 49.085 13.28 73.527 20.318 42.587 12.257 85.313 23.86 128.286 34.691q3.02.762 6.037 1.529c14.063 3.56 28.146 6.9 42.365 9.77l3.6.73c16.596 3.27 16.596 3.27 33.439 3.93a2824 2824 0 0 0 4.375-11.437l1.25-3.24c2.038-5.375 3.786-10.58 4.91-16.216.818-3.703 2.116-7.232 3.403-10.794l.763-2.182c1.502-4.214 3.289-8.129 5.299-12.131v-2l4 1 1.836-3.008c10.563-17.184 21.7-34.26 37.414-47.18 11.813-9.742 17.171-19.642 18.75-34.812.212-3.084.342-6.17.473-9.258 1.205-25.298 3.36-50.388 6.259-75.541q.399-3.463.793-6.926.634-5.538 1.29-11.072.355-2.998.702-5.995c.806-6.65 1.759-13.26 2.924-19.856l.69-3.92c1.32-5.213 3.362-8.49 7.869-11.432 7.308-3.355 15.973-5.72 24-4 2.417 1.366 4.379 2.835 6.441 4.688 1.474 1.527 1.474 1.527 3.559 1.312 4.792 34.314-1.174 71.656-4 106q2.617 1.472 5.242 2.93l2.949 1.648c3.99 2.02 6.309 2.567 10.809 2.422 6.483-2.18 12.049-5.814 17.625-9.687 19.918-13.512 41.157-24.547 62.5-35.626 22.347-9.693 22.347-9.693 37.875-26.687 1.12-7.935-.203-13.616-5-20-2.096-2.391-4.26-4.71-6.43-7.035-3.593-4.144-6.656-8.594-9.78-13.096a656 656 0 0 0-11.665-16.244l-1.774-2.398q-1.786-2.413-3.573-4.824a2585 2585 0 0 1-5.25-7.126 2977 2977 0 0 0-19.924-26.798 1814 1814 0 0 1-12.541-16.917c-5.657-7.707-11.42-15.328-17.231-22.92a1135 1135 0 0 1-10.66-14.14 339 339 0 0 0-15.59-19.486c-2.415-2.82-4.755-5.686-7.082-8.579-8.417-10.3-17.444-19.724-27.5-28.437l-1.882-1.633c-69.94-60.17-161.903-81.69-252.337-83.57l-2.05-.047a560 560 0 0 0-9.578-.145c-6-.112-11.286-.564-17.109-2.048-15.505-3.783-31.438-3.144-47.285-3.094-4.309.01-8.618 0-12.927-.006q-10.845-.01-21.692.022c-8.302.021-16.603.014-24.904-.008q-10.784-.026-21.566-.01c-4.267.006-8.533.007-12.8-.006-17.623-.048-34.694.012-51.87 4.545m1068.188 65.375-4.977 3.719-2.575 1.933c-4.422 3.31-8.874 6.577-13.323 9.848l-4.825 3.555L3025 1841c4.282 19.462 15.589 29.745 29.33 43.406q3.335 3.316 6.663 6.638 7.063 7.043 14.132 14.081 8.211 8.174 16.413 16.357 3.264 3.253 6.532 6.5l4.036 4.026 1.808 1.792c3.651 3.652 7.097 7.43 10.455 11.354 1.644 1.86 3.359 3.609 5.131 5.346 2.989 2.943 5.747 6.024 8.484 9.2 2.93 3.343 5.949 6.602 8.964 9.868a277 277 0 0 1 7.677 8.682c8.521 9.69 17.332 15.914 30.375 17.75v-9h9v-3c3.356-4.618 7.115-7.96 11.75-11.25l1.872-1.354c3.434-2.383 6-3.86 10.253-4.208 3.491-.42 4.136-1.202 6.484-4 4.204-5.827 4.204-5.827 5.476-12.61-1.04-3.208-2.468-4.7-4.856-7.074l-2.626-2.637-2.902-2.855-3.04-3.037a2245 2245 0 0 0-8.282-8.22c-2.898-2.868-5.784-5.749-8.671-8.628a9308 9308 0 0 0-16.454-16.355 18061 18061 0 0 1-25.873-25.724l-3.534-3.52q-5.151-5.127-10.313-10.246-3.224-3.2-6.445-6.403-1.485-1.474-2.971-2.946c-5.523-5.465-10.826-11.021-15.868-16.933a1251 1251 0 0 0-4.375-4.812c-3.22-3.561-6.297-7.203-9.312-10.938l-2.278-2.754a87 87 0 0 1-3.476-4.523c-2.18-2.766-4.093-3.895-7.536-4.47-11.346-.43-18.073 4.233-26.836 10.872m-109.859 78.007c-3.392 2.356-6.825 4.648-10.267 6.93l-1.846 1.23a1024 1024 0 0 1-8.353 5.501c-15.858 9.542-15.858 9.542-25.863 23.957l-2 3c9.437 8.673 19.796 15.222 30.938 21.5l3.697 2.097c11.628 6.59 23.314 13.076 35.01 19.544q5.038 2.794 10.066 5.605a2208 2208 0 0 0 38.131 20.822c6.418 3.42 12.811 6.88 19.178 10.393 18.445 11.773 18.445 11.773 39 14.289 3.03-1.356 6.019-2.749 8.98-4.25l2.652-1.332c9.539-5.436 16.83-13.802 24.348-21.668-5.142-6.287-10.85-11.966-16.606-17.681a3372 3372 0 0 1-5.388-5.364q-6.686-6.663-13.38-13.318-5.666-5.637-11.325-11.28-2.636-2.625-5.276-5.245c-5.054-5.03-10.045-10.072-14.656-15.52-2.157-2.508-4.502-4.781-6.869-7.092-3.707-3.657-7.253-7.39-10.633-11.352-2.354-2.709-4.8-5.33-7.242-7.96a199 199 0 0 1-10.187-11.876c-4.34-5.37-9.072-9.972-14.438-14.312l-1.766-1.445c-15.38-10.677-33.829 6.38-45.905 14.827m-123.735 91.532c-4.194 5.488-4.264 9.326-3.594 16.086.926 3.768 2.288 7.285 3.75 10.875l1.236 3.162c3.428 8.704 7.05 17.33 10.667 25.958 5.06 12.117 9.821 24.35 14.6 36.581 13.856 35.464 28.296 70.625 43.747 105.424 6.855.464 6.855.464 13.063-2l2.937-2c.226-2.124.226-2.124-1.5-3.625L2904 2178l1.727-.819c2.345-1.218 4.464-2.587 6.644-4.08l2.49-1.703 2.577-1.773 2.564-1.75c3.412-2.34 6.687-4.599 9.783-7.352L2932 2159l2.388.562c2.582.69 2.582.69 4.638-.527l1.986-1.543c.748-.568 1.496-1.136 2.268-1.72l2.407-1.897q2.566-1.957 5.133-3.91l2.622-2.016c3.821-2.911 7.717-5.714 11.62-8.512l6.704-4.828c4.495-3.237 8.984-6.483 13.473-9.728q5.712-4.128 11.437-8.236A2156 2156 0 0 0 3010 2107l1.92-1.395c10.29-7.515 20.854-16.065 25.08-28.605-1.277-4.204-3.994-5.433-7.73-7.434l-1.752-.951c-1.897-1.028-3.801-2.04-5.706-3.052q-1.99-1.075-3.98-2.155a2930 2930 0 0 0-6.05-3.275c-5.847-3.155-11.635-6.407-17.407-9.695a4747 4747 0 0 0-24.239-13.667q-1.808-1.012-3.613-2.03-2.514-1.415-5.035-2.82l-2.92-1.637c-3.487-1.744-5.739-2.335-9.63-2.097-5.441-.259-9.927-2.162-14.938-4.187l-2.836-1.133L2929 2022v-8l-2.405-1.278q-5.61-2.984-11.22-5.972l-2.06-1.096c-8.8-4.688-17.574-9.418-26.315-14.216-21.42-11.706-47.311-25.454-66.406-2.524m-83.328 46.715a513 513 0 0 1-11.344 7.086l-3.051 1.879a567 567 0 0 1-5.925 3.597l-2.704 1.68-2.41 1.467c-2.403 2.18-2.658 3.444-2.832 6.662.484 2.825.484 2.825 1.45 5.777l1.05 3.444 1.188 3.716.613 1.942c4.767 15.026 10.605 29.592 16.699 44.121l1.02 2.435a8423 8423 0 0 0 15.488 36.69c4.029 9.495 8.042 18.997 12.055 28.5l1.176 2.785A15413 15413 0 0 1 2791 2262c13.297 1.072 22.14-7.041 32.212-14.662 2.499-1.87 5.052-3.662 7.6-5.463 11.98-8.305 11.98-8.305 18.188-20.875l.813-3.812c1.35-15.14-7.871-30.596-14.188-43.813-13.162-27.84-24.908-56.292-36.53-84.801-3.993-9.79-8.043-19.558-12.095-29.324l-1.047-2.526A5935 5935 0 0 0 2771 2021l-3.829-.056-2.154-.031c-9.29.4-20.146 9.808-27.751 14.716M3114 2064c-.779.645-1.557 1.29-2.36 1.953-12.601 10.836-22.19 23.827-30.64 38.047l-1.303 2.187c-9.185 15.662-13.566 31.767-9.572 50 2.546 8.774 5.74 17.498 13.668 22.637 16.327 8.698 33.985 7.485 51.34 2.227 3.572-1.249 3.572-1.249 6.867-3.051l.343-1.85c.91-2.979 2.442-3.881 4.927-5.724l2.677-2.01 2.865-2.104 2.897-2.167a1844 1844 0 0 1 12.107-8.95c5.498-4.058 10.568-8.14 15.184-13.195l3 1c12.903-15.475 15.407-33.57 15.033-53.03a213 213 0 0 1-.013-4.943c-.24-7.187-3.558-11.582-8.02-17.027l-1.668-2.16c-4.385-5.405-9.437-9.191-15.332-12.84l-2.676-1.77c-20.018-11.822-43.276-.81-59.324 12.77m-493.776 40.106c-5.388 3.166-10.807 6.278-16.224 9.394-18.46 10.635-36.842 21.4-55.218 32.18a6764 6764 0 0 1-19.982 11.68 7462 7462 0 0 0-11.725 6.844q-3.196 1.867-6.396 3.73c-30.025 17.218-30.025 17.218-56.679 39.066a341 341 0 0 1-4.125 3.5c-25.854 22.543-44.988 56.706-52.11 90.05-.765 3.45-.765 3.45-1.718 6.055-.81 2.658-1.032 3.776-.047 6.395 3.722 3.656 7.833 6.584 12.081 9.593 19.59 14.366 37.59 39.067 41.919 63.407 1.16 8.098 1.219 16.238 1.24 24.402.01 2.198.041 4.396.073 6.594.192 25.599-7.794 47.829-24.762 67.094a145 145 0 0 0-4.672 5.59c-19.069 23.548-51.711 33.01-80.3 37.409l-3.204.54-2.852.44c-3.48 1.284-4.573 2.785-6.523 5.931a86 86 0 0 0-2.379 8.164l-.628 2.508c-2.537 10.27-4.805 20.607-7.094 30.934-12.647 56.96-26.295 113.702-40.086 170.394l-.545 2.238a8665 8665 0 0 1-12.683 51.475c-11.995 48.029-22.321 95.69-29.898 144.639-.17 1.088-.342 2.177-.519 3.298l-.469 3.071-.411 2.663c-.318 2.89-.306 5.71-.288 8.616 22.96.816 45.902 1.204 68.874 1.355q6.948.048 13.897.102 11.99.09 23.983.174 17.412.122 34.824.254 28.365.212 56.729.417l3.414.025 54.675.395q28.251.206 56.502.417 15.788.12 31.576.23c75.806.532 75.806.532 102.9 1.082l2.658.05c17.703.341 35.501 1.489 52.968 4.499l-.168 1.758c-.023 2.73.188 4.681 1.168 7.242 2.468 1.906 5.004 3.09 7.824 4.418 19.922 9.924 33.453 29.233 40.723 49.781 4.043 12.227 5.845 23.842 5.828 36.738l-.005 3.855c-.139 10.802-1.6 20.793-4.37 31.208l-.582 2.228a437 437 0 0 1-2.684 9.803c-.894 3.106-.894 3.106-.734 6.969a4086707 4086707 0 0 0 333.606.427l3.611.005q51.215.065 102.428.132a839786 839786 0 0 0 413.96.456 309839 309839 0 0 0 180.744.124q26.495.013 52.989.039 26.277.024 52.553.026 15.534 0 31.068.021 10.365.014 20.728.007 5.893-.006 11.786.008 5.364.013 10.73 0c1.876-.001 3.752.007 5.628.015 17.48-.065 31.817-3.07 46.169-13.26l1.93-1.363c10.3-8.046 21.366-24.506 23.386-37.703 2.05-20.789 1.687-42.707-11.83-59.855-13.093-15.128-31.226-26.654-51.526-28.33-3.706-.17-7.411-.278-11.12-.359l-2.17-.055c-21.5-.55-43.013-.521-64.518-.565q-11.643-.026-23.286-.065-16.365-.053-32.73-.098l-2.081-.006q-14.62-.039-29.239-.073l-2.082-.005-2.08-.005q-17.316-.04-34.633-.101-9.654-.035-19.31-.05c-41.14-.065-80.841-.66-121.061-10.139-4.742-1.117-9.487-2.223-14.231-3.331l-3.043-.711a8958 8958 0 0 0-51.971-11.95 6124 6124 0 0 1-16.98-3.883 4650 4650 0 0 0-16.859-3.847q-3.15-.717-6.299-1.446c-11.851-2.745-23.099-4.677-35.267-5.06-3.507-.297-7.003-.668-10.5-1.062l-2.527-.276q-2.987-.327-5.973-.662l-1-5c-56.624-12.781-113.254-25.532-169.905-38.193q-6.732-1.505-13.462-3.013c-58.097-13.315-58.097-13.315-116.695-24.106l-3.064-.49c-24.847-3.965-49.67-6.893-74.749-8.885l-2.295-.186c-9.94-.789-19.88-1.282-29.846-1.633l-3.714-.13c-12.361-.423-24.722-.674-37.088-.889l-7.343-.134q-7.846-.143-15.693-.281-11.508-.205-23.016-.414-17.87-.325-35.74-.646a226290 226290 0 0 1-99.333-1.81c-47.887-.88-95.773-1.782-143.657-2.802q-7.474-.16-14.95-.316-9.743-.204-19.487-.418l-6.772-.145c-5.798-.123-11.596-.26-17.393-.429q-2.893-.082-5.785-.154c-2.973-.077-5.945-.174-8.917-.275l-2.679-.061c-7.065-.273-15.034-1.329-20.23-6.59-6.626-7.602-7.777-16.607-7.46-26.348l.053-3.256q.057-3.441.14-6.882c.08-3.478.124-6.956.157-10.435.072-7.506.18-15.011.298-22.517l.032-2.07c1.111-71.204 3.888-142.244 8.108-213.333 2.449-41.254 3.53-82.527 3.716-123.853q.019-3.572.053-7.145c.15-16.608-.422-32.459-5.972-48.286l-.779-2.248c-4.396-12.206-10.463-22.047-18.884-31.895-3.907-4.612-6.747-9.14-9.012-14.79-1.99-2.361-2.82-2.345-5.805-2.727L2592 2329c2.308-24.208 2.308-24.208 9.75-30.687L2605 2296l2.496 1.469c4.584 2.003 8.775 1.995 13.67 2.058 6.382.206 9.206 1.764 13.56 6.336q1.461 1.715 2.899 3.45l1.578 1.87c4.011 4.788 7.879 9.683 11.708 14.617 4.054 5.209 8.291 10.248 12.581 15.262A854 854 0 0 1 2671 2350c17.282-8.104 32.98-18.228 48.22-29.68 2.386-1.77 4.813-3.479 7.244-5.187 13.715-8.327 13.715-8.327 22.24-20.848 2.088-16.076-4.607-28.608-10.839-43.002-2.033-4.698-4.055-9.4-6.076-14.103l-1.239-2.882a2301 2301 0 0 1-10.988-26.11c-7.535-18.163-15.183-36.278-22.842-54.388q-4.46-10.55-8.907-21.105l-6.252-14.83c-4.77-11.326-9.6-22.622-14.561-33.865-16.32-2.25-33.425 12.225-46.776 20.106m367.659 77.388c-13.034 10.424-26.822 19.865-40.546 29.345-28.277 18.333-28.277 18.333-43.337 47.161l-3.625-.062c-7.528.878-13.367 5.784-19.375 10.062l-2.1 1.488c-4.55 3.236-9.066 6.518-13.572 9.814-4.579 3.34-9.184 6.644-13.784 9.956a736 736 0 0 0-10.446 7.652c-14.928 11.16-30.427 20.396-47.426 28.047-14.096 6.372-25.523 14.653-37.059 24.867-4.752 4.205-9.67 8.198-14.613 12.176 4.449 5.983 4.449 5.983 11 9 6.318.287 12.549-.231 18.828-.875l5.613-.547q4.35-.432 8.701-.869 4.248-.424 8.499-.834l2.76-.268c5.006-.46 9.884-.656 14.915-.513 5.581.086 9.466-1.006 14.372-3.594l2.354-1.176c11.725-6.033 22.844-13.249 33.958-20.324l2.522-1.602c3.841-2.443 7.669-4.905 11.478-7.398l-2-5c.71-.26 1.42-.52 2.152-.79 3.022-1.284 5.635-2.827 8.41-4.581l3.165-1.99 3.273-2.077q3.218-2.03 6.438-4.058l2.87-1.818A396 396 0 0 1 2909 2308v2c4.58-.55 7.457-2.372 11.242-4.945l1.807-1.217q1.92-1.296 3.833-2.602c2.702-1.845 5.416-3.672 8.13-5.5l4.121-2.783a1131 1131 0 0 1 17.617-11.64l2.765-1.798 5.58-3.626c5.309-3.453 10.606-6.922 15.905-10.389q10.96-7.174 21.941-14.319 7.036-4.58 14.059-9.181l2.923-1.913q4.293-2.817 8.577-5.65l2.59-1.696c10-6.412 10-6.412 16.785-15.866l1.18-2.508c.872-2.183 1.613-4.042 1.945-6.367-1.897-2.141-3.758-3.974-5.875-5.875-10.595-10.056-16.934-22.025-23.125-35.125-14.346-1.227-22.495 5.905-33.117 14.494M1871 2421c-2.967 25.922-5.25 51.912-7.615 77.895l-1.062 11.648q-1.772 19.42-3.538 38.843l-.191 2.099-.191 2.101a53571 53571 0 0 1-3.057 33.483q-1.592 17.394-3.173 34.789-.88 9.682-1.767 19.365c-2.456 26.772-4.767 53.547-6.725 80.36l-.264 3.593q-.366 5.013-.721 10.027l-.216 2.968-.194 2.782-.168 2.383c-.157 3.551-.118 7.109-.118 10.664h383c10.532-31.596 17.005-58.761 21-91l4-1q3.75-15.44 7.46-30.888a5635 5635 0 0 1 3.467-14.357c4.786-19.701 9.406-39.402 13.1-59.34l.428-2.282c2.109-11.328 3.467-22.663 4.545-34.133-20.574-6.068-41.354-11.341-62.125-16.687l-2.867-.739-22.844-5.88a3031 3031 0 0 1-32.703-8.58q-4.324-1.153-8.648-2.301a563 563 0 0 1-5.009-1.369c-9.543-2.656-18.097-3.87-28.02-3.491-6.499.081-12.538-1.297-18.784-2.953l-3.27-.863c-3.71-.997-7.408-2.029-11.105-3.075l-3.699-1.017-3.45-1.01-3.122-.894L2071 2471c-.647-2.071-.647-2.071-1-4a33989 33989 0 0 0-40.672-10.33q-9.455-2.395-18.905-4.802c-26.736-6.81-53.492-13.471-80.403-19.555l-3.293-.746c-27.59-7.273-27.59-7.273-55.727-10.567m-643 307c-1.25 1.121-1.25 1.121-2.523 2.266-38.01 35.95-54.152 90.372-55.625 141.105-.038 3.551.032 7.08.148 10.629l.02 3.8c.792 44.016 24.671 86.776 53.98 118.2l2.148 2.313c30.989 32.218 76.872 49.093 120.852 50.374l3.813.115c24.18.609 50.41.68 71.374-12.802a344 344 0 0 1 21-12.125l2.644-1.434c5.413-2.839 10.502-5.402 16.732-3.77 4.741.64 8.266-3.276 11.917-5.964 42.765-32.622 67.352-81.352 74.766-134.387 6.04-47.841-4.876-93.453-34.121-132.008-4.888-6.278-10.244-12.123-15.744-17.868a452 452 0 0 1-3.65-3.874c-5.858-6.107-12.37-11.262-19.112-16.348a394 394 0 0 1-4.072-3.124c-73.055-54.28-179.03-44.572-244.547 14.902m629.1 80.905-2.474.121c-65.062 3.308-129.152 17.784-183.626 54.974l-1.886 1.281c-32.849 22.455-57.617 54.99-68.114 93.719l-.977 3.45c-4.743 20.15-3.576 44.467.977 64.55l.488 2.169c9.053 38.317 35.855 67.543 68.512 87.831 22.392 13.715 48.66 21.518 74.313 26.313l2.379.446c19.175 3.3 38.329 3.531 57.724 3.477 3.86-.01 7.72-.006 11.579-.005q11.2-.001 22.402-.027 9.18-.02 18.36-.03 32.725-.044 65.45-.152 7.275-.023 14.552-.044c101.629-.29 203.25-2.64 304.857-4.557q26.274-.494 52.547-.983a393689 393689 0 0 0 93.901-1.754q18.038-.336 36.074-.68l14.842-.28c17.85-.332 35.698-.692 53.544-1.233 17.768-.538 35.538-.827 53.313-1.091a16498 16498 0 0 0 23.069-.361l2.994-.048q19.848-.316 39.696-.613 13.533-.203 27.066-.423a6113 6113 0 0 1 14.227-.219q6.665-.093 13.328-.209 2.424-.04 4.848-.07c19.07.12 19.07.12 36.935-5.457v-4l2.16-.332c10.28-1.702 16.071-3.9 22.567-12.324 8.698-12.382 16.655-29.887 14.273-45.344-1.95-8.721-5.214-16.47-10-24l-1.707-2.73c-4.455-6.35-8.533-8.557-15.828-10.915-5.2-2.034-9.315-5.163-13.785-8.464-2.592-2.022-2.592-2.022-5.68-2.891v-4c-12.536-3.569-24.942-3.553-37.892-3.67l-7.67-.1c-40.063-.494-80.136-.44-120.203-.495q-18.558-.027-37.118-.065a243139 243139 0 0 0-70.23-.124l-64.051-.105q-33.093-.054-66.186-.119-20.308-.039-40.615-.067-13.892-.018-27.784-.047-7.986-.016-15.972-.025c-47.837-.046-93.393-3.698-140.554-11.777-5.917-1.01-11.836-2.007-17.755-3.003l-3.633-.611-7.315-1.231-11.064-1.866a11743 11743 0 0 0-68.964-11.427 5445 5445 0 0 1-12.227-2.004c-21.706-3.581-43.422-6.862-65.251-9.6l-2.964-.374c-19.134-2.4-38.312-4.019-57.552-5.29-1.159-3.809-2.3-7.623-3.437-11.437l-.987-3.24c-4.594-15.487-4.594-15.487-2.888-20.242 1-1.831 1-1.831 3.312-5.081l1.875-2.875c3.669-3.669 8.574-3.257 13.573-3.316 19.322.03 38.545 1.622 57.693 4.132l2.37.31c25.05 3.308 49.94 7.71 74.846 11.953a17657 17657 0 0 0 20.304 3.444l10.06 1.702 2.005.339q6.962 1.177 13.924 2.358c24.822 4.206 24.822 4.206 49.649 8.384q3.412.573 6.826 1.15c17.894 3.022 35.803 5.707 53.875 7.419l3.221.31c10.712.903 21.414.802 32.154.753q2.867-.008 5.734-.014 6.945-.017 13.891-.049c2.126-8.915 3.99-17.852 5.68-26.86l.755-3.988q.805-4.245 1.606-8.49 2.143-11.34 4.307-22.674l.448-2.35a3959 3959 0 0 1 6.95-35.47l.458-2.286q2.194-10.939 4.411-21.873.616-3.042 1.23-6.085.749-3.705 1.505-7.41l.663-3.286.58-2.857c.491-2.463.491-2.463.407-5.371-35.31-1.018-70.61-1.164-105.931-1.167q-6.914 0-13.827-.006a74349 74349 0 0 0-46.044-.012h-4.959q-19.916-.002-39.831-.023-20.671-.023-41.343-.02-11.517.001-23.034-.014c-39.977-.097-39.977-.097-79.93 1.147M1038 3191c-12.213 15.633-15.316 32.888-15.3 52.43l-.014 3.737q-.008 3.885-.002 7.77c.003 3.921-.02 7.841-.045 11.762-.416 27.063-.416 27.063 10.673 51.113L1036 3320l1.602 1.563c15.845 15.103 33.595 18.044 54.553 17.936q3.232.006 6.463.016c5.932.015 11.863.004 17.795-.01 6.472-.012 12.945 0 19.418.009q17.087.018 34.175-.003a23355 23355 0 0 1 36.863-.012l2.362.001 11.937.007c29.063.015 58.126.01 87.188-.003q44.192-.022 88.383-.015h2.814l25.537.005 67.002.01c48.234.003 96.468-.008 144.702-.02l50.947-.013h3.199a603296 603296 0 0 1 156.302-.014h57.859q71.92.001 143.84-.001h3.308q106.052-.005 212.105-.024h3.421l217.166-.04 3.465-.001c108.567-.02 217.135-.021 325.702-.02h120.242q104.286.002 208.572-.006h3.307l179.16-.017h3.21l32.007-.004a1573853 1573853 0 0 1 175.416-.01q83.357.002 166.713-.013h2.96l92.244-.022q44.136-.011 88.272-.007a167732 167732 0 0 0 98.79-.02h2.353q18.375-.006 36.748.001 17.968.008 35.937-.009 9.57-.009 19.139 0 8.68.009 17.363-.008 3.114-.002 6.228.004c18.708.793 18.708.793 36.231-4.26v-2c.61-.15 1.22-.3 1.848-.456 2.786-.7 5.562-1.434 8.34-2.169l2.908-.715c6.243-1.685 9.414-3.14 12.904-8.66 1.323-2.5 1.323-2.5 2.188-5l.964-2.586c.982-2.795 1.956-5.589 2.848-8.414l2 6c4.886-7.33 4.356-18.489 4.625-27.125l.106-3.289c.115-4.195.198-8.39.269-12.586l.05-2.916q.167-10.09.235-20.182.027-3.445.074-6.89c.043-3.276.058-6.552.067-9.828l.053-2.965c-.034-10.855-4.075-19.389-11.479-27.219-17.283-16.165-36.679-22.363-60.035-22.247l-3.471-.007c-3.828-.005-7.655.003-11.482.012q-4.185-.001-8.368-.005-10.323-.006-20.646.01c-8.315.011-16.63.01-24.945.01-16.531-.002-33.063.01-49.594.025q-22.228.021-44.456.03c-113.051.048-226.102.215-606.096.989q-58.17.132-116.337.253a1020419 1020419 0 0 0-152.91.33l-3.672.009q-25.06.055-50.123.108c-53.28.11-106.56.241-159.84.428q-13.162.047-26.326.084l-2.527.007-4.994.014c-14.432.04-28.865.092-43.298.172-6.614.036-13.228.066-19.842.08q-8.853.019-17.706.087-3.14.02-6.28.02c-10.064-.001-18.863.228-28.409 3.656-6.686 2.365-13.844 2.117-20.861 2.232l-3.046.06q-5.045.096-10.09.184l-7.279.138q-8.903.169-17.807.329-7.325.132-14.649.27l-2.124.039-4.28.08q-25 .464-49.999.913-11.772.212-23.544.427c-118.385 2.154-118.385 2.154-174.612 2.965l-7.15.104c-57.588.837-115.182 1.325-172.775 1.717l-4.653.032c-76.599.526-153.196.6-229.795.574q-20.438-.006-40.874.001a93503 93503 0 0 1-56.43.003q-8.79 0-17.582.003-10.64.004-21.28-.003a6450 6450 0 0 0-10.75 0c-14.844.01-29.673-.133-44.51-.56l-3.996-.109c-18.61-.587-37.57-1.61-55.506-6.887-4.337-1.22-8.73-2.223-13.113-3.265l-2.673-.65-2.55-.611-2.246-.542c-6.536-1.348-12.997-1.765-19.645-2.009l-3.238-.123c-52.26-1.871-104.602-2.44-156.89-2.92l-3.307-.03c-71.9-.666-143.805-.684-215.708-.716l-12.8-.006-3.208-.002c-17.41-.008-34.82-.034-52.23-.066q-27.174-.049-54.349-.054c-10.079-.002-20.158-.01-30.237-.036q-12.75-.034-25.5-.02a2329 2329 0 0 1-12.956-.017q-5.937-.026-11.875-.001a423 423 0 0 1-4.262-.014c-17.51-.138-35.16 4.025-47.264 17.505m1104 219-3.11 1.645c-11.6 6.443-22.013 14.738-31.952 23.48-9.875 8.645-20.87 15.353-32.193 21.923-5.685 3.303-11.287 6.728-16.87 10.202A2389 2389 0 0 1 2035.5 3481q-12.224 7.425-24.375 14.965A6246 6246 0 0 1 1990 3509a10658 10658 0 0 0-31.456 19.423q-6.52 4.04-13.044 8.077l-5.25 3.25-10.5 6.5-2.624 1.624-5.262 3.258q-6.47 4.004-12.938 8.013c-12.85 7.961-25.72 15.889-38.595 23.807q-8.167 5.023-16.331 10.048l-6.5 4-3.25 2-13.001 8-6.488 3.993q-8.217 5.058-16.437 10.112c-12.605 7.753-25.2 15.522-37.78 23.318q-6.52 4.04-13.044 8.077l-5.25 3.25-13.124 8.125-5.258 3.254q-6.504 4.029-13.013 8.05a5615 5615 0 0 0-27.543 17.133 3980 3980 0 0 1-28.815 17.85 4094 4094 0 0 0-17.36 10.716c-20.466 12.708-41.066 25.165-61.908 37.247a5730 5730 0 0 0-16.633 9.697 4533 4533 0 0 1-5.54 3.23c-14.223 8.053-14.223 8.053-26.994 18.135l-1.463 1.379A446 446 0 0 0 1530 3795l-1.698 1.652a981 981 0 0 0-5.052 4.973l-1.594 1.579c-2.53 2.049-2.53 2.049-3.656 4.796h2123c-2.599-6.498-5.263-9.896-11.25-13.437l-1.667-.997c-2.021-1.2-4.051-2.384-6.083-3.566l-5.242-3.066a5239 5239 0 0 0-8.98-5.234c-7.823-4.55-15.62-9.144-23.403-13.762l-1.726-1.025-8.471-5.027a8383 8383 0 0 0-41.562-24.49 6541 6541 0 0 1-26.24-15.45 6138 6138 0 0 0-24.42-14.345c-8.9-5.21-17.778-10.456-26.644-15.726a2409 2409 0 0 0-29.886-17.437c-9.626-5.539-19.19-11.177-28.74-16.845-4.559-2.704-9.123-5.398-13.686-8.093l-5.52-3.262-10.804-6.383a32769 32769 0 0 1-45.415-26.886 29194 29194 0 0 0-41.964-24.84q-5.268-3.111-10.531-6.227a8006 8006 0 0 0-32.808-19.3c-8.901-5.21-17.78-10.457-26.646-15.727a2317 2317 0 0 0-29.543-17.231A1853 1853 0 0 1 3156.5 3516c-12.024-7.15-24.122-14.165-36.253-21.132q-4.928-2.836-9.849-5.684l-6.586-3.809-3.264-1.889q-9.175-5.293-18.43-10.446c-16.404-9.163-32.326-18.838-47.143-30.422-66.517-51.957-145.001-59.137-226.368-58.999-7.372.012-14.745.006-22.117 0-14.435-.012-28.87-.007-43.306.005q-18.942.015-37.884.013h-12.809c-31.976-.005-63.953.008-95.929.029a101135 101135 0 0 1-90.493.017h-2.729l-13.603-.003h-2.712a135684 135684 0 0 0-84.073.014q-17.679.007-35.358.003-22.785-.004-45.568.017-12.02.013-24.039.006c-6.011-.004-12.022.004-18.034.015q-3.615.004-7.23-.002c-45.31-.071-90.263 4.651-130.723 26.267m-863-18v662h92v-662zm146 0v404c8.332-.454 8.332-.454 14.938-3.312l2.777-1.637L1446 3789l2.036-1.264a1460 1460 0 0 0 14.482-9.153c3.882-2.477 7.776-4.937 11.67-7.396l2.344-1.481c9.442-5.96 18.916-11.87 28.387-17.783q7.542-4.71 15.081-9.423l6-3.75 3-1.875 105-65.625 3-1.875 6.004-3.752q7.466-4.665 14.926-9.338a4557 4557 0 0 1 34.359-21.304A2929 2929 0 0 0 1714 3621.5c11.529-7.222 23.111-14.356 34.705-21.475q4.956-3.046 9.908-6.1a7306 7306 0 0 1 39.56-24.207q8.601-5.23 17.198-10.466 7.222-4.398 14.45-8.787a3706 3706 0 0 0 30.05-18.428 4417 4417 0 0 1 17.89-11.034c9.412-5.78 18.802-11.587 28.13-17.502 9.316-5.908 18.679-11.74 28.037-17.582q4.513-2.82 9.021-5.646c21.475-13.453 43.028-26.748 64.852-39.627a1198 1198 0 0 0 21.115-12.748 806 806 0 0 1 8.963-5.425c14.465-8.662 28.1-17.547 40.121-29.473v-1zm1625 0c.443 4.947.443 4.947 3.303 6.906l3.076 1.809 1.68 1.006a495 495 0 0 0 5.503 3.216q1.925 1.137 3.846 2.278c3.246 1.921 6.503 3.823 9.764 5.72 2.687 1.566 5.365 3.148 8.043 4.73 5.91 3.478 11.843 6.913 17.785 10.335l3.327 1.917c12.687 7.302 25.417 14.513 38.235 21.583 11.31 6.246 22.44 12.762 33.532 19.387a1582 1582 0 0 0 14.312 8.445l1.87 1.09 3.736 2.179a1232 1232 0 0 1 31.582 19.04c6.29 3.922 12.629 7.767 18.968 11.609l8.981 5.442a6235 6235 0 0 1 12.695 7.714c13.324 8.113 26.69 16.148 40.14 24.051 3.504 2.062 7.004 4.134 10.503 6.206 19.298 11.422 38.657 22.742 58.032 34.035a11540 11540 0 0 1 30.646 17.939l1.857 1.09a9521 9521 0 0 0 12.994 7.605c12.426 7.265 24.816 14.583 37.147 22.009 11.524 6.93 23.135 13.712 34.745 20.497a20000 20000 0 0 1 20.141 11.79 4805 4805 0 0 1 26.244 15.497A2086 2086 0 0 0 3569 3702.5a2293 2293 0 0 1 29.686 17.381c5.815 3.457 11.636 6.9 17.478 10.31l1.81 1.058 1.817 1.06a2014 2014 0 0 1 33.746 20.118c10.115 6.171 20.286 12.241 30.486 18.268 7.266 4.294 14.514 8.612 21.7 13.04 26.253 17.22 26.253 17.22 56.277 24.265v-416zm767 0v662h95v-662z"/><path fill="#A44313" d="m731.063 2668.813 2.314.001c8.649.067 14.733 1.346 22.123 5.874l2.184 1.279c8.217 4.926 14.687 9.89 18.316 19.033.68 3.98.675 7.873.633 11.904l.023 3.586c.016 3.291.01 6.582-.006 9.874-.011 3.61.007 7.222.02 10.833q.03 9.597.013 19.195c-.014 9.727 0 19.454.02 29.18.035 16.898.046 33.795.044 50.693q0 25.987.033 51.976l.005 3.331.024 16.911.047 35.34.004 3.646q.035 28.617.056 57.234l.003 3.999.011 16.24q.06 81.671.177 163.341l.004 2.615a1229837 1229837 0 0 0 .176 118.799l.112 75.107a2935469 2935469 0 0 1 .3 204.631q.058 40.887.119 81.773l.02 13.359.007 5.311.004 2.65.004 2.643.004 2.64.011 7.89.004 2.62.02 13.032a710796 710796 0 0 1 .203 146.372 222294 222294 0 0 0 .235 144.405l.006 3.248q.046 25.264.07 50.529.026 24.545.084 49.088c.02 8.562.036 17.123.038 25.684-.211 56.231-.211 56.231 6.284 112.008l.784 4.496c2.255 12.742 5.004 25.33 8.404 37.817l.882 3.257c6.607 24.057 15.388 47.227 26.118 69.743l1.269 2.67c9.105 19.02 19.726 37.001 31.731 54.33l1.225 1.771c19.901 28.625 42.816 55.242 70.775 76.229l2.034 1.535c16.598 12.453 34.19 23.316 52.468 33.121a784 784 0 0 1 5.293 2.875c37.68 20.611 77.23 31.29 119.893 35.219l3.708.35c9.614.8 19.24 1.14 28.881 1.429l2.231.067c17.07.497 34.132.542 51.207.522q6.777-.005 13.553-.002 11.865.001 23.731-.007a59588 59588 0 0 1 35.497-.01q30.25-.003 60.497-.017a254282 254282 0 0 1 85.11-.024 1348319 1348319 0 0 0 110.285-.027l23.84-.008q73.721-.024 147.443-.035h2.147l142.093-.021q109.086-.017 218.171-.043h2.404c82.285-.019 164.57-.04 319.818-.083h2.625a9303973 9303973 0 0 0 345.19-.105q128.82-.041 257.637-.066l2.768-.001 173.836-.031 2.741-.001a1324101 1324101 0 0 0 172.52-.044 2720925 2720925 0 0 0 168.955-.058 472370 472370 0 0 1 159.71-.033 362065 362065 0 0 0 189.666-.057q34.816-.016 69.633-.01 35.235.006 70.47-.022 20.014-.018 40.029-.004 13.302.008 26.604-.014a4194 4194 0 0 1 15.057 0c26.554.05 53.014-.316 79.068-6.145l3.6-.78c65.48-14.566 126.903-48.842 173.9-96.818 1.704-1.669 3.482-3.185 5.312-4.715 11.094-9.64 20.214-21.153 28.9-32.94a494 494 0 0 1 3.987-5.31c57.833-78.003 77.723-169.316 77.723-278.99q-.013-11.222-.007-22.444.002-20.962-.017-41.923-.019-21.21-.021-42.418v-2.717q-.002-6.86-.003-13.72-.007-48-.035-96-.029-50.538-.04-101.076v-3.082l-.008-34.089-.013-63.035v-3.185a1000754 1000754 0 0 0-.052-159.856l-.083-213.043q-.029-74.95-.047-149.901v-3.182l-.02-96.967-.002-3.075q-.012-50.544-.04-101.086a223382 223382 0 0 1-.037-112.007q-.005-21.163-.024-42.327-.017-20.808-.013-41.617.004-12.199-.015-24.397-.01-9.058 0-18.115.002-3.64-.008-7.28c-.055-22.406.028-40.29 16.219-57.41 4.505-4.523 8.905-7.734 15.031-9.745l1.984-.723c12.366-3.618 26.798-2.376 38.016 3.723 3.932 2.396 7.472 5.046 11 8 .913.73 1.825 1.46 2.766 2.21 9.488 8.352 10.97 18.448 12.024 30.468.418 6.615.353 13.24.349 19.866l.008 5.018q.011 6.894.01 13.788.005 7.511.016 15.023.016 13.183.024 26.365.012 19.638.034 39.274.035 33.203.06 66.404a330867 330867 0 0 0 .076 87.82l.045 47.571a948198.296 948198.296 0 0 1 .093 110.287q.055 69.62.12 139.24l.01 10.958.005 4.38.002 2.19.023 24.046c.067 71.768.134 143.536.271 341.648l.002 2.112.025 39.957a609979 609979 0 0 0 .078 112.43 394983 394983 0 0 1 .098 168.413l.001 3.657q.012 28.658.04 57.315.024 28.263.026 56.526.001 16.558.023 33.117.013 11.03.007 22.06-.006 6.235.008 12.47c.215 93.926-20.71 183.45-96.244 298.387l-1.264 1.646a455 455 0 0 1-17.255 21.101c-3.465 4.007-6.75 8.12-9.981 12.315-8.271 10.644-17.635 20.164-27.115 29.727a2301 2301 0 0 0-4.205 4.258c-6.081 6.089-12.442 11.606-19.18 16.953q-1.83 1.502-3.652 3.012c-58.285 47.71-130.877 76.815-204.285 91.3l-3.508.698c-3.09.585-6.183 1.117-9.287 1.621q-2.25.366-4.496.749c-20.05 3.321-40.141 3.098-60.398 3.121-5.233.01-10.467.035-15.701.059-10.338.044-20.676.071-31.014.093q-12.918.029-25.836.074c-37.608.128-75.215.213-112.823.273l-2.03.003c-75.36.12-150.72.146-242.385.143a390174 390174 0 0 0-96.11.007l-59.981.008q-73.5.007-147 .006h-27.959q-63.497.001-126.994.005l-28.526.002h-2.86l-159.593.008h-2.94a4040405 4040405 0 0 1-290.783.003q-143.812-.002-287.625.01h-3.07l-192.621.021h-3.036q-94.11.01-188.219.012H1845.86q-64.956 0-129.913.008h-2.824l-44.948.006q-63.791.012-127.582.01h-2.617l-81.556-.008q-38.903-.003-77.804.009a131487 131487 0 0 1-87.218-.003l-2.084-.001q-17.13-.003-34.258.009-14.893.008-29.785-.004a7832 7832 0 0 0-16.84.003c-20.734.027-41.421-.116-62.133-1.163l-2.409-.121C1049.18 4667.08 956.764 4643.039 868 4578l-2.703-2.094c-11.015-8.67-21.516-17.97-31.782-27.509a509 509 0 0 0-4.73-4.295c-7.204-6.508-13.897-13.325-20.383-20.547a526 526 0 0 0-4.058-4.434A341 341 0 0 1 788 4500l-1.53-1.917c-14.485-18.186-27.555-37.12-39.47-57.083l-1.49-2.484c-36.865-61.82-63.441-134.361-63.712-206.94l-.028-4.667q-.04-6.427-.065-12.853-.028-5.59-.058-11.18c-.063-11.485-.115-22.97-.165-34.454q-.037-8.487-.077-16.973c-.378-81.829-.519-163.657-.64-406.22l-.013-51.591q-.029-93.413-.041-186.824l-.002-14.468-.005-37.763q-.012-94.228-.062-188.455a382733 382733 0 0 1-.06-225.6v-2.733q-.006-43.448-.037-86.894a84023 84023 0 0 1-.016-99.147v-2.38c.004-12.434-.006-24.868-.022-37.302q-.024-18.33-.003-36.658c.007-6.533.008-13.066-.01-19.6q-.022-8.91.006-17.822.005-3.202-.011-6.406c-.082-16.802 1.998-29.268 11.511-43.586l1.738-2.727c6.267-8.883 15.704-13.49 26.16-15.92 3.721-.625 7.4-.601 11.164-.54M2430.175 472.985c118.722-.036 237.444-.071 697.82-.153h3.604l68.354-.008a1824535 1824535 0 0 0 194.118-.029 1131048 1131048 0 0 1 297.738-.024q50.7 0 101.398-.014a222428 222428 0 0 1 114.325-.001h2.734q21.303.003 42.605-.01 20.912-.01 41.824.002 11.132.007 22.265-.003c34.533-.037 68.944-.005 103.29 4.068l2.21.254c57.442 6.64 114.036 21.093 165.533 47.892a748 748 0 0 0 6.472 3.303c18.465 9.43 35.811 20.503 52.535 32.738l3.156 2.293c25.152 18.56 50.516 39.525 70.848 63.367a469 469 0 0 0 4.96 5.711c7.013 7.977 13.726 16.079 20.036 24.629l1.531 2.075a541 541 0 0 1 39.255 61.705q1.17 2.139 2.354 4.272c11.33 20.395 20.019 42.008 27.86 63.948l.904 2.476c11.786 32.428 19.473 66.666 23.346 100.899l.253 2.221c2.366 21.152 2.65 42.27 2.654 63.536q.005 5.685.016 11.37.016 9.96.024 19.92.012 14.872.034 29.746.035 25.236.06 50.473.025 25.365.056 50.73l.004 3.223.017 12.984a620311 620311 0 0 1 .169 152.06q.038 37.521.08 75.043a1412643 1412643 0 0 1 .388 408.646c.073 88.956.14 177.913.166 273.935v2.346q.004 10.452.006 20.905.01 33.127.03 66.257.025 39.453.023 78.907c-.001 12.77 0 25.54.012 38.31q.014 15.635.004 31.27-.006 7.81.006 15.621.011 7.076-.002 14.152-.003 2.535.005 5.068c.078 25.192.078 25.192-6.255 34.902l-1.547 2.395c-7.796 10.845-19.085 17.529-32.101 20.011-13.725 2.107-26.746 2.105-38.57-5.91-11.052-8.82-15.883-19.611-17.566-33.319-.338-3.404-.366-6.803-.367-10.22l-.013-2.357q-.019-3.925-.025-7.85l-.026-5.758q-.034-8.042-.055-16.084-.023-7.101-.052-14.202a51849 51849 0 0 1-.137-40.403q-.045-14.546-.094-29.09c-.323-96.399-.529-192.797-.943-414.612l-.012-6.535a3564584 3564584 0 0 1-.625-361.22 1067382 1067382 0 0 0-.307-175.334l-.004-2.155q-.06-33.985-.114-67.972-.056-35.003-.12-70.005-.035-18.308-.062-36.614c-.032-58.712-.032-58.712-.7-117.418l-.054-3.274c-.289-16.477-1.125-32.747-3.506-49.074l-.5-3.51c-10.466-71.377-39.221-140.15-84.5-196.49l-1.506-1.896c-6.429-8.089-13.011-15.943-20.068-23.49a203 203 0 0 1-6.113-6.926c-3.457-3.97-7.29-7.307-11.313-10.688l-2.73-2.39c-69.092-60.208-158.102-82.797-247.836-86.708l-2.9-.128c-22.803-.988-45.592-1.058-68.412-1.029-6.117.006-12.235 0-18.352-.005q-16.074-.01-32.148-.001a41161 41161 0 0 1-48.125 0q-41.026-.014-82.053-.004-41.543.008-83.084.002h-2.653l-24.08-.004-60.362-.008h-2.793a736808 736808 0 0 0-145.03.003l-38.934.003h-3.006q-69.04.005-138.08.001h-15.075l-183.99-.006h-3.115q-99.837 0-199.674.006h-3.219l-106.718.008c-107.585.007-215.17.012-407.331 0l-106.743-.008h-3.219q-99.805-.007-199.611-.006h-3.114l-198.916.007q-69.042.003-138.086-.002h-3.006l-38.934-.003h-8.936a730901 730901 0 0 0-135.923-.003h-2.787l-84.225.012h-2.646q-41.494.007-82.99-.003a149240 149240 0 0 0-92.984.009h-2.218q-17.254.004-34.507-.005-16.918-.008-33.836.004-8.991.008-17.982-.001c-29.919-.035-59.66.263-89.387 4.072l-2.03.254c-83.728 10.547-157.77 44.233-220.08 101.015a114 114 0 0 1-5.327 4.48c-2.95 2.556-5.396 5.268-7.918 8.235-1.952 2.27-3.981 4.45-6.02 6.64-6.438 7.14-12.14 14.856-17.875 22.563l-1.38 1.845c-43.443 58.335-63.13 128.8-70.87 200.155l-.234 2.104c-3.77 34.519-3.813 69.154-3.783 103.83.003 6.134-.003 12.268-.01 18.402q-.016 19.005-.012 38.01.003 19.22-.007 38.443l-.001 2.465-.008 12.447q-.025 43.521-.03 87.042-.005 45.818-.03 91.635v2.795l-.017 30.921-.03 60.065a833654 833654 0 0 0-.058 144.95l-.064 193.151q-.022 67.967-.055 135.932l-.001 2.886-.046 87.953-.001 2.79q-.023 45.82-.028 91.643a184672 184672 0 0 1-.039 99.113l-.001 2.449q-.01 19.179-.006 38.358.004 18.87-.015 37.737c-.006 6.725-.01 13.45-.004 20.176q.007 9.184-.01 18.37-.005 3.293.003 6.588c.08 41.45.08 41.45-16.325 58.944-10.953 10.57-23.347 12.96-37.938 13.801l-3.242.25c-10.927.495-18.757-4.204-26.758-11.25l-1.906-1.656c-13.444-12.5-16.504-30.477-17.203-48.08-.174-7.57-.13-15.143-.1-22.715l.005-7.707q.005-8.367.03-16.735.033-12.513.044-25.027.025-21.293.073-42.585.048-21.501.08-43.002l.004-2.741.02-13.83q.075-49.862.172-99.724.095-49.206.178-98.41l.005-3.084.166-99.836q.077-46.223.16-92.445c.183-102.074.337-204.148.46-314.92a645426 645426 0 0 1 .16-134.143l.043-34.727q.05-42.11.09-84.22a162285 162285 0 0 1 .116-96.113l.004-2.305q.024-17.958.034-35.916.012-17.631.044-35.262c.01-6.263.02-12.526.019-18.79 0-48.372 0-48.372 2.302-71.027l.241-2.4c.426-4.15.929-8.28 1.509-12.412l.513-3.711c6.46-45.115 18.917-88.544 37.304-130.207a954 954 0 0 0 4.613-10.743l1.615-3.805q1.53-3.605 3.059-7.212c2.83-6.624 5.833-13.112 9.146-19.51h2l.88-1.579C755.413 697.792 767.827 677.925 782 659l1.653-2.215c6.357-8.493 12.893-16.781 19.816-24.82 2.32-2.717 4.555-5.483 6.781-8.277 13.005-15.94 27.883-31.857 44.074-44.57 2.425-1.919 4.766-3.91 7.097-5.939 26.333-22.8 56.6-40.528 87.579-56.179l2.46-1.247c62.778-31.527 131.749-42.275 201.264-42.155 4.992.006 9.983-.007 14.974-.017q13.148-.022 26.294-.016c13.161.005 26.322-.008 39.483-.024q33.843-.038 67.688-.043a113118 113118 0 0 0 91.589-.053l50.78-.04 2.357-.001c42.737-.03 85.475-.047 128.212-.063l28.175-.011 2.572-.001q57.85-.024 115.7-.06l25.986-.016 2.61-.002 20.967-.012c91.406-.055 182.813-.103 562.721-.226z"/><path fill="#F2E4DE" d="M1546 3016q2.514.428 5 1l.445 2.797c5.434 32.274 18.844 61.263 36.5 88.582 3.039 5.355 5.475 11.031 8.055 16.621h-538v-5q22.72-.398 45.44-.782 10.56-.179 21.117-.364c33.149-.582 66.288-1.028 99.443-.854v-2q9.234-.86 18.47-1.709l6.279-.582q4.52-.42 9.04-.834l2.823-.265c4.48-.408 8.883-.714 13.388-.61v-4c11.124-3.034 25.176-5.71 36.166-1.507 4.763 1.632 9.022 1.948 14.026 1.94l2.634.03c2.84.03 5.68.04 8.522.049q2.973.025 5.947.054c5.193.047 10.387.077 15.58.104 5.31.03 10.619.076 15.928.121q15.599.127 31.197.209v-5h-12c3.13-2.086 5.396-2.481 9.052-3.038 38.091-5.92 75.524-23.69 105.948-46.962l1.78-1.351c6.965-5.31 13.69-10.789 20.118-16.747 2.102-1.902 2.102-1.902 5.227-4.215 3.836-3.586 6.416-7.732 9.238-12.14C1545 3017 1545 3017 1546 3016"/><path fill="#B66A45" d="M3120 1512h2c1.691 1.828 1.691 1.828 3.563 4.25l1.878 2.39c2.927 4.43 2.73 8.879 2.762 14.06l.021 2.332c.018 2.552.024 5.103.026 7.656l.002 2.688c-.04 33.461-3.685 66.71-7.166 99.956l-.287 2.79-.274 2.576-.235 2.237c-.291 2.073-.745 4.045-1.29 6.065h-4l-.152 2.48c-1.06 17.197-2.25 34.363-3.848 51.52h-5q-.106-13.342-.155-26.684-.022-6.199-.071-12.397c-.14-17.17-.1-33.866 2.889-50.835 1.743-10.773 1.474-21.892 1.627-32.78.777-54.938.777-54.938 7.71-78.304"/><path fill="#9B3909" d="M2711 3130c2.022.954 4.028 1.945 6 3-5.79 8.106-13.01 11.909-22.7 13.585-6.33.796-12.675.682-19.042.63l-4.903-.02c-24.729-.14-49.454-.852-74.175-1.475q-10.5-.262-21-.515-20.687-.503-41.374-1.032-7.824-.199-15.65-.392-5.044-.126-10.087-.258-2.191-.056-4.382-.11c-8.263-.2-16.46-.621-24.687-1.413v-4c23.063-1.799 46.064-2.436 69.189-2.743 4.803-.066 9.605-.142 14.408-.217 14.198-.221 28.395-.426 42.593-.629q16.655-.237 33.31-.497 8.517-.134 17.035-.244 5.304-.074 10.609-.161 2.434-.038 4.867-.065c11.323-.132 30.385-6.49 39.989-3.444"/><path fill="#B4653F" d="M2001 1401c3.656 5.965 2.455 13.76.938 20.25-1.855 6.83-4.062 13.558-6.233 20.292-2.722 8.443-5.252 16.934-7.705 25.458h-9v83h-5q-.654-7.25-1.282-14.502-.214-2.456-.436-4.91c-1.498-16.585-1.426-32.902-.592-49.524.122-2.495.229-4.991.335-7.488.672-14.356 2.359-28.386 7.162-42.014l.909-2.622c.94-2.658 1.912-5.3 2.904-7.94l.99-2.638a305 305 0 0 1 3.01-7.487l.895-2.28c1.625-3.725 2.91-5.895 6.668-7.65C1998 1400 1998 1400 2001 1401"/><path fill="#F9F4F2" d="M1309.947 3106.489c5.873 2.01 11.586 1.988 17.744 2.023l3.594.054c3.76.054 7.518.088 11.278.122q3.84.05 7.681.103 9.378.126 18.756.209v2l3.563-.062c3.911-.007 7.582.42 11.437 1.062v5a7990 7990 0 0 1-17.153 1.217c-8.915.618-17.83 1.121-26.762 1.441-3.858-.213-3.858-.213-7.085 1.342a61 61 0 0 1-4.22.12l-2.758.004-3.05-.01h-3.192c-3.501 0-7.002-.009-10.503-.016l-7.26-.005q-9.575-.006-19.15-.024-9.763-.014-19.525-.02-19.17-.016-38.342-.049l-1-5q9.234-.86 18.47-1.709l6.279-.582q4.52-.42 9.04-.834l2.823-.265c4.48-.408 8.883-.714 13.388-.61v-4c10.965-2.99 25.163-5.818 35.947-1.511"/><path fill="#BF744E" d="M1949 2104h5q.47 3 .938 6l.527 3.375c1.024 6.936 1.706 13.63 1.773 20.637l.03 2.553q.035 4.062.044 8.122l.008 2.79c.006 16.902-1.124 32.602-7.57 48.414-.98 2.756-1.063 5.214-.75 8.109l-7 1c-1.371-4.87-.822-9.415-.38-14.38l.237-2.84c.258-3.09.527-6.179.795-9.268q.273-3.217.543-6.436c.475-5.64.96-11.281 1.445-16.921.494-5.758.98-11.516 1.467-17.274A26438 26438 0 0 1 1949 2104"/><path fill="#C17E5C" d="M3174 1527h1c.258 19.53-.446 38.966-1.332 58.47-.143 3.168-.277 6.338-.412 9.507q-.199 4.608-.405 9.216l-.19 4.37c-.086 2.015-.18 4.03-.272 6.046l-.155 3.459c-.195 2.45-.537 4.585-1.234 6.932h-5c-1.647-19.015-3.29-38.028-3.375-57.125l-.041-3.649c.062-12.38 2.812-23.775 7.416-35.226h4z"/><path fill="#B65F34" d="M1462 3026c2.875 1.563 2.875 1.563 5 3l-4 8h-9l.563 4.125c-.02 2.98-.096 4.355-2.11 6.598-2.406 1.647-4.846 2.968-7.453 4.277l-3.176 1.734c-10.374 5.315-10.374 5.315-16.687 4.02-5.323-1.878-9.967-3.999-13.137-8.754 10.353-6.387 20.778-12.554 31.563-18.187l2.719-1.422c9.468-4.891 9.468-4.891 15.718-3.391"/><path fill="#B96B47" d="M2817 2366c1.418 2.836.863 4.99.563 8.125l-.31 3.32L2817 2380c-3.79.68-7.582 1.342-11.375 2l-3.215.578c-10.654 1.83-19.688 2.804-29.41-2.578-2.33-1.776-4.567-3.639-6.816-5.516-3.385-2.3-6.146-2.41-10.184-2.484v-1c46.232-5.572 46.232-5.572 61-5"/><path fill="#B05629" d="m3183 2141 3 1 2-1-.75 1.75-.25 2.25c1.854 2.271 1.854 2.271 4 4-1.464 5.274-4.834 8.121-8.75 11.688l-2.016 1.857c-6.357 5.751-13.11 10.706-20.234 15.455l-2.512 1.758c-4.91 3.322-4.91 3.322-7.601 2.949-2.23-.836-3.254-2.003-4.887-3.707l-3-1-1-3c6.646-5.646 13.51-10.877 20.563-16 7.636-5.56 14.749-11.312 21.437-18"/><path fill="#C0744E" d="M1325 3096v8l2.463-.045q11.561-.207 23.122-.398 5.943-.097 11.884-.205 5.748-.104 11.496-.195 2.18-.036 4.358-.078c8.618-.165 17.098-.004 25.677.921v5q-17.096.141-34.19.207c-5.294.021-10.587.05-15.88.095q-7.673.063-15.347.078a788 788 0 0 0-5.832.043c-13.004.14-25.018-.075-35.751-8.423l1-2c8.906-2.806 17.728-3.416 27-3"/><path fill="#B4603A" d="M1132 2775h2c5.689 15.373 3.031 31.707.12 47.393a754 754 0 0 0-1.456 8.18 2929 2929 0 0 1-.937 5.212l-.433 2.465c-.364 1.93-.82 3.843-1.294 5.75l-2 1q-1.22-2.906-2.437-5.812l-1.372-3.27c-7.616-18.654-.276-41.035 6.891-58.742z"/><path fill="#B76840" d="m3248.563 2061.938 2.437.062c5.935 22.469 7.043 44.951-4 66l-2-1a64 64 0 0 1-1.125-7l-.253-2.32c-.79-8.482-.843-16.98-.872-25.492l-.016-2.128c-.053-9.129.28-18.11 2.266-27.06 1-1 1-1 3.563-1.062"/><path fill="#B45D34" d="M4221 589c2.886 1.186 5.65 2.58 8.426 4l2.388 1.2q2.486 1.25 4.965 2.51c2.539 1.293 5.083 2.574 7.63 3.852l4.83 2.438 2.313 1.168c5.33 2.714 5.33 2.714 6.448 3.832.141 2.67.042 5.324 0 8-6.122-.503-10.914-1.94-16.5-4.437-4.821-2.13-9.436-3.895-14.576-5.078-3.076-.776-5.978-1.944-8.924-3.11l-3.437-1.352L4212 601v-2l-3.437-.875L4205 597l-1-2a288 288 0 0 1 5.125-3.562l2.883-2.004c3.748-1.796 4.989-1.44 8.992-.434"/><path fill="#B15628" d="M2934.648 2158.656c2.983 1.705 4.547 3.428 6.352 6.344-.33 5.182-4.756 8.454-8.227 11.875-3.475 2.663-5.614 2.834-9.855 2.79-2.052.157-2.052.157-3.367 1.92-1.272 2.17-1.272 2.17-2.551 5.415l-10-4v-2l-3-1v-2c1.386-1.202 1.386-1.202 3.332-2.54l2.155-1.499 2.325-1.586q2.347-1.615 4.692-3.234l2.329-1.608a130 130 0 0 0 5.57-4.174l2.847-2.234 2.453-1.992c2.297-1.133 2.297-1.133 4.945-.477"/><path fill="#AD552C" d="M741 720c2.381 2.33 4.345 4.696 6.25 7.438l1.64 2.308c1.11 2.254 1.11 2.254.875 4.03-.994 2.889-2.39 5.387-3.89 8.048l-1.89 3.365-.987 1.739c-1 1.761-1.991 3.527-2.982 5.293-4.865 8.628-4.865 8.628-6.016 9.779-1.52.072-3.042.084-4.562.063l-2.504-.028L725 762c2.407-14.914 9.189-28.642 16-42"/><path fill="#B1562B" d="M2909 2308v2l2 1c.633 2.285.633 2.285 1.125 5.063l.508 2.785.367 2.152a1593 1593 0 0 1-5.312 3.438l-2.989 1.933c-4.147 2.503-7.124 2.743-11.887 2.691l-3.292-.027-2.52-.035-.375 2.313C2886 2334 2886 2334 2884 2337c-3.82-1.556-6.26-3.956-9-7v-2c2.292-1.632 2.292-1.632 5.477-3.555l1.705-1.039c1.81-1.1 3.626-2.19 5.443-3.281q2.69-1.628 5.379-3.26 2.461-1.49 4.928-2.974a157 157 0 0 0 6.335-4.13C2907 2308 2907 2308 2909 2308"/><path fill="#E4C1B3" d="M2045 1429c3.472.764 5.998 2.082 9 4-2.171 7.598-4.732 15.015-7.437 22.438l-1.159 3.197A85899.975 85899.975 0 0 0 2038 1479c-3.943-3.943-4.487-9.62-5-15 1.373-12.321 6.985-23.802 12-35"/><path fill="#B35E39" d="M2366 2233h5v2l2.875.438C2377 2236 2377 2236 2379 2237c-7.052 22.688-7.052 22.688-14.965 27.984-3.385 1.228-6.43 2.016-10.035 2.016 1.102-6.06 2.845-11.76 4.875-17.562l.74-2.145c1.774-4.978 3.948-9.603 6.385-14.293"/><path fill="#B76641" d="m2604 2295 11 4-3 1-.344 2.128c-.723 3.165-1.837 5.864-3.16 8.829l-1.494 3.37-1.564 3.485-1.577 3.545q-1.924 4.324-3.861 8.643h-8c-1.36-4.08-.505-7.548.188-11.687l.345-2.358c1.466-8.92 4.818-14.91 11.467-20.955"/><path fill="#AA5129" d="m2938.625 2013.188 2.66.345c8.443 1.236 15.096 3.794 20.715 10.467v2c-11.754 4.007-19.598 3.102-30.816-2.375-2.184-1.625-2.184-1.625-2.672-3.668L2929 2014l-2-1c3.601-1.8 7.748-.387 11.625.188"/><path fill="#B35A2F" d="M3212 1966c-1.086 9.147-6.219 15.901-13.25 21.625-2.668 2.03-4.56 3.312-7.75 4.375l-1.812-1.875c-2.196-2.262-2.196-2.262-5.188-4.125l-1-3c18.227-17.24 18.227-17.24 29-17"/><path fill="#AF613C" d="M4170 3304c2 1 2 1 3.063 4q.472 2 .937 4l.734 2.113c.691 2.628.864 4.22.266 6.887-2.753 3.407-5.956 6.057-9.405 8.742-1.571 1.24-3.088 2.547-4.603 3.856-8.446 7.26-8.446 7.26-12.992 7.402-2.64-1.145-2.64-1.145-5.25-2.812l-2.64-1.645C4138 3335 4138 3335 4137 3333l2.048-.563c3.073-.857 6.137-1.74 9.202-2.624l3.223-.885c6.076-1.736 6.076-1.736 11.129-5.362 1.338-2.456 2.529-4.826 3.523-7.441l.992-2.61A120 120 0 0 0 4170 3304"/><path fill="#C07A57" d="M2167 2300h37l1 8c1.533 1.558 1.533 1.558 3.563 2l3.437 1v2c-3.793-.252-7.584-.53-11.375-.812l-3.215-.213c-9.392-.72-17.597-2.286-25.535-7.6l-2.82-1.852L2167 2301z"/><path fill="#B46138" d="M2697 3013c11.437-.81 21.035 1.579 29.887 9.055 3.48 3.204 6.955 6.417 10.113 9.945v1l-2.937.375-3.063.625-1 2-1-3c-2.088-.41-4.176-.82-6.266-1.219-7.59-2.168-17.353-7.877-22.734-13.781v-4z"/><path fill="#B15E35" d="M2246 2662c2.69.176 5.329.618 8 1-.435 7.97-1.022 15.89-2 23.813l-.251 2.082c-.623 4.853-.623 4.853-1.749 7.105h-8l-1 2c.454-8.306 1.392-16.51 2.5-24.75l.396-2.997.385-2.8.346-2.526C2245 2663 2245 2663 2246 2662"/><path fill="#B76136" d="M3504 2933c11.057 1.036 22.049 2.121 33 4l1 9c-7.95-.434-15.848-1.019-23.75-2l-2.057-.251c-2.87-.37-5.438-.83-8.193-1.749-.859-3.434-.976-5.617 0-9"/><path fill="#BE7655" d="m2410 2182 2 1-20 20c0-4.387 2.753-6.36 5.625-9.375.522-.565 1.044-1.13 1.582-1.71 3.387-3.614 6.93-6.818 10.793-9.915"/></svg>