<svg xmlns="http://www.w3.org/2000/svg" width="1254" height="1254"><path fill="none" d="M0 0h1254v1254H0z"/><path fill="#935439" d="M598 250c4.119.158 6.416.544 9.697 3.106 2.882 3.622 2.923 5.487 2.897 10.074v2.09q-.008 2.191-.052 4.382c-.041 2.182-.041 4.361-.034 6.543-.099 22.2-6.764 40.97-22.051 57.399C579.681 342.189 568.874 347.56 558 353l-2.492 1.281c-12.27 5.92-26.295 8.456-39.446 11.719-23.545 5.449-23.545 5.449-46.062 14l-1.752.839c-24.3 11.817-39.468 30.67-54.793 52.341-5.677 8-11.963 15.47-18.318 22.931-2.93 3.444-5.8 6.93-8.637 10.452-3.156 3.886-6.457 7.595-9.875 11.25-4.921 5.28-9.392 10.829-13.797 16.542a357 357 0 0 1-5.906 7.446c-5.313 6.526-10.38 13.06-14.945 20.144a220 220 0 0 1-4.266 6.36C323.286 549.124 305.976 575.727 308 602c.704 3.758.704 3.758 2 7l1.188 3.75c8.272 21.19 29.04 36.484 46.663 49.64a751 751 0 0 1 6.126 4.645 472 472 0 0 0 20.699 14.942l2.474 1.688a5643 5643 0 0 0 26.407 17.854q7.063 4.758 14.123 9.52l2.755 1.858 9.622 6.49c10.831 7.308 21.61 14.609 31.943 22.613l2.398 1.781A178 178 0 0 1 481 749l2.273 1.871c4.963 4.48 8.178 9.22 11.164 15.129l1 1.976c4.893 10.28 5.457 21.616 6.662 32.79 2.32 21.309 8.824 36.836 23.901 52.234l2.215 2.367c5.853 6.126 12.38 11.265 19.118 16.368 1.457 1.106 2.901 2.229 4.343 3.355 11.957 9.093 30.866 23.207 46.324 23.91-.513-3.664-.891-6.018-3.715-8.52-2.388-1.567-4.824-3.028-7.285-4.48-13.272-8.509-25.914-17.714-37.39-28.54a192 192 0 0 0-6.86-6.148c-5-4.34-10.065-8.785-13.75-14.312-.125-3.187-.125-3.187 0-6 4.4-1.314 4.4-1.314 7 .047l2 1.703 2.387 1.984L543 837c19.377 16.726 39.772 31.552 62.313 43.75l2.37 1.306c4.283 2.25 7.348 3.481 12.317 2.944-.458-3.47-.891-6.674-2-10a98 98 0 0 0-5-2c-1.85-1.13-3.67-2.31-5.465-3.527-1.04-.705-2.08-1.409-3.153-2.134q-1.66-1.137-3.32-2.277l-1.701-1.162c-8.728-5.972-17.25-12.108-25.361-18.9l-1.702-1.415c-6.841-5.707-13.498-11.608-20.048-17.648l-1.809-1.661c-6.343-5.91-6.343-5.91-6.629-9.901C544 812 544 812 545 811c2.987-.346 4.54-.289 7.113 1.328l2.2 1.922c7.006 5.889 14.33 11.31 21.687 16.75l2.094 1.551c9.39 6.935 18.944 13.63 28.593 20.199l3.079 2.134c5.115 3.444 8.981 6.011 15.234 6.116 1.067-3.453 1.067-3.453.094-6.781-10.225-11.027-22.19-20.192-34.157-29.227C585.84 821.137 580.905 817.1 576 813l-3.348-2.75c-12.05-9.954-12.05-9.954-15.652-15.25.125-2.937.125-2.937 1-5 1.747-.65 1.747-.65 4-1 1.976.921 1.976.921 4.055 2.395l2.341 1.632 2.479 1.785 2.567 1.804c2.529 1.782 5.045 3.58 7.558 5.384l3.941 2.813q2.597 1.854 5.188 3.716c5.529 3.97 11.177 7.744 16.871 11.471l2.348 1.605c4.872 3.307 4.872 3.307 10.652 3.395 1.295-1.094 1.295-1.094 1.375-3.75-.491-4.256-2.275-5.62-5.375-8.25l-1.89-1.82c-7.724-7.318-16.388-13.353-24.968-19.612-11.834-8.664-19.547-17.093-26.501-29.97-9.073-16.727-21.942-26.263-39.953-32.035-9.329-3.35-16.86-12.352-23.982-19a184 184 0 0 0-3.56-3.175c-8.4-7.358-16.188-15.332-24.053-23.25q-4.003-4.03-8.014-8.05a24045 24045 0 0 1-22.764-22.87q-6.985-7.023-13.982-14.036a3406 3406 0 0 1-5.29-5.32c-10.663-10.747-21.25-20.836-33.582-29.67-2.536-2.069-2.536-3.642-3.086-6.942.046-2.807.233-3.86 2.246-5.863 2.402-1.589 4.857-2.997 7.379-4.387 13.57-8.175 25.605-18.014 37-29l2.096-2.014c13.654-13.186 24.941-26.692 35.403-42.503 2.853-4.274 5.59-8.123 9.501-11.483 3.895-.746 5.673-.157 9.25 1.563 4.826 4.277 4.973 10.532 5.84 16.657 1.798 12.463 4.733 24.502 7.973 36.655l.665 2.498c2.293 8.582 4.644 17.14 7.272 25.627l1.754 5.727q1.361 4.442 2.728 8.882l.897 2.93.799 2.6c1.034 3.598 1.93 7.226 2.822 10.861l.99 3.968c4.843 19.518 9.268 38.825 11.672 58.816.3 2.383.3 2.383 1.338 5.216.468 3.153.751 6.328 1.063 9.5l.27 2.72c.596 6.273.927 12.476.667 18.78l1.746.398c16.412 4.38 29.631 16.346 38.254 30.602a733 733 0 0 1 3.949 7.382c4.466 8.395 8.498 15.606 16.051 21.618l1.51 1.208a514 514 0 0 0 6.9 5.416c6.51 5.018 12.675 10.419 18.841 15.852 2.382 2.076 4.805 4.102 7.234 6.124 4.152 3.837 6.196 8.026 6.718 13.548.133 6.336-1.013 10.33-5.265 15.227C628 834 628 834 626 834l1.32 1.434c7.207 8.002 13.079 14.95 12.965 26.058-.53 4.663-3.004 7.378-6.41 10.383C632 873 632 873 630 873l1.473 2.129c2.547 4.79 2.165 9.58 1.527 14.871-1.754 3.845-3.221 5.444-6.625 7.875-4.493 1.498-8.676 1.564-13.375 1.125l-2-1-.687 3.688c-1.378 5.557-4.644 8.2-9.313 11.312-16.616 3.047-37.783-11.531-50.82-20.498-7.326-5.197-14.416-10.705-21.422-16.322-2.742-2.228-2.742-2.228-5.758-4.18l-.262 1.695c-1.644 9.385-4.979 18.176-8.676 26.93-9.14 22.742-14.311 48.133-15.292 72.613l-.11 2.714a290 290 0 0 0-.143 5.188c-.192 6.103-1.014 11.357-5.517 15.86-2.937.375-2.937.375-6 0-2.983-2.88-3.864-5.95-4.134-10.015l-.011-2.152-.02-2.459-.003-2.636-.01-2.743q-.007-2.873-.007-5.747c-.002-2.907-.02-5.815-.04-8.723l-.005-5.6-.022-2.604c.018-4.974.57-9.452 1.76-14.28.657-2.725 1.017-5.464 1.383-8.24 1.053-7.053 2.854-13.778 4.859-20.614l1.073-3.704c2.652-9.015 5.631-17.782 9.177-26.483l1.152-2.898c2.604-6.544 2.604-6.544 3.828-9.344 1.752-3.73 1.752-3.73 1.356-7.64-1.695-2.687-3.617-5.126-5.586-7.618-12.746-16.714-16.234-35.79-18.511-56.148-1.498-13.115-3.424-26.056-14.172-34.952-2.278-1.77-4.599-3.466-6.942-5.15l-2.297-1.687c-6.775-4.932-13.75-9.552-20.736-14.176-3.675-2.436-7.342-4.885-11.01-7.332l-4.611-3.075-9.352-6.234-2.316-1.544-4.529-3.02q-4.89-3.26-9.78-6.515c-25.282-16.827-50.694-34.038-73.158-54.554-2.098-1.897-4.237-3.726-6.399-5.55C309.8 646.426 303.39 638.365 298 629l-1.437-2.496c-7.773-14.459-9.523-33.126-5.125-49.005 1.042-3.231 2.26-6.365 3.562-9.499l.779-1.953c9.226-23.019 22.43-44.219 37.221-64.047l2.352-3.152c10.474-13.801 21.69-26.998 33.078-40.048 11.784-13.507 22.831-27.37 33.437-41.822 16.858-22.964 33.588-42.144 59.508-54.728l2.174-1.069c15.173-7.097 31.976-10.408 48.173-14.303 23.88-5.542 23.88-5.542 46.278-15.253.697-.38 1.393-.762 2.11-1.154 14.052-7.882 23.658-17.674 28.753-33.08 2.578-9.308 2.562-18.432 2.497-28.001a397 397 0 0 1 .038-6.324l-.01-3.751c.772-4.182 2.409-5.624 5.612-8.315z"/><path fill="#955539" d="m222.375 633.063 2.273.16c3.654 1.207 5.02 2.682 7.352 5.777.752 3.843.664 7.643.619 11.548l.019 3.582c.012 3.278.002 6.555-.017 9.832-.016 3.537-.002 7.074.008 10.61q.02 9.195-.007 18.39c-.023 8.88-.016 17.758 0 26.637q.034 21.642.018 43.283l-.002 2.617-.004 5.242-.002 2.625-.002 2.626q-.01 14.412-.009 28.822v2.605q.001 21.542.031 43.084.017 13.273-.006 26.546-.014 9.111-.003 18.221c.004 3.498.004 6.995-.01 10.493-.147 19.824-.147 19.824 3.367 39.237l.879 3.341c8.587 31.553 29.695 59.18 57.981 75.466 8.94 4.985 18.078 9.122 27.89 12.068l1.927.58c14.009 3.9 27.89 3.834 42.308 3.812l7.018.014q8.604.015 17.208.01c6.877-.002 13.753.007 20.63.017 14.257.02 28.514.025 42.77.026a66944 66944 0 0 1 44.96.018q33.292.02 66.583.02h2.534l12.713-.001h7.655q39.699-.002 79.398.04a81471 81471 0 0 0 98.82.046h2.371c12.556 0 25.113.013 37.669.03q18.95.026 37.9.006c6.837-.007 13.672-.007 20.508.01q9.405.024 18.81-.004 3.385-.005 6.769.012c17.625.082 35.638-1.027 52.011-8.198l2.46-1.034c12.69-5.474 23.868-12.076 34.228-21.279l2.355-1.957c22.59-19.09 35.625-48.175 39.645-77.043.256-4.126.257-8.235.231-12.368l.003-3.629q-.001-4.939-.02-9.878c-.01-3.563-.01-7.126-.01-10.69q-.003-9.246-.021-18.492c-.018-9.744-.014-19.487-.007-29.231l.007-10.014.002-2.527q.008-14.214.009-28.427v-2.623c0-14.047-.02-28.094-.044-42.14q-.036-21.654.004-43.306.023-13.347-.028-26.694a2452 2452 0 0 1 .005-18.276c.012-3.515.013-7.03-.016-10.544-.031-3.81-.009-7.618.019-11.428l-.054-3.367c.115-7.281.115-7.281 2.428-10.398 2.835-2.54 4.792-3.825 8.554-4.593 5.023 1.069 8.115 3.391 10.938 7.625.25 2.228.25 2.228.252 4.888l.015 3.072-.013 3.385.01 3.59q.008 4.94-.003 9.88c-.004 3.55.003 7.1.008 10.651.01 6.961.007 13.922.002 20.883q-.008 8.495-.003 16.989v2.441l.003 4.91q.006 23.049-.012 46.098a28634 28634 0 0 0 .002 39.49 41625 41625 0 0 1 .006 53.216q-.003 8.467.006 16.936.008 10.344-.007 20.689-.009 5.27 0 10.54c.058 40.797-9.42 73.517-35.891 105.154-.43.516-.862 1.03-1.306 1.562-21.816 25.61-55.601 43.846-89.069 47.626-7.923.525-15.872.41-23.809.388q-3.587.006-7.175.016-7.767.017-15.532.007c-7.7-.009-15.398 0-23.097.01-13.757.02-27.513.023-41.269.018a42010 42010 0 0 0-48.292.007c-22.657.01-45.314.016-67.972.008l-2.585-.001-20.786-.008q-40.526-.014-81.05.022a83434 83434 0 0 1-103.313.029q-18.04-.002-36.08.019-20.53.023-41.06-.002-11.472-.017-22.944.009c-5.728.012-11.455.002-17.183-.015q-3.456-.005-6.912.01c-40.552.17-75.767-14.413-104.941-42.517l-2.102-1.91c-23.97-22.442-39.885-58.196-40.993-90.905a698 698 0 0 1-.052-9.363l-.011-3.604q-.014-4.911-.017-9.823-.007-5.312-.022-10.623c-.02-8.532-.03-17.063-.039-25.594q-.007-6.033-.015-12.065a55085 55085 0 0 1-.044-50.494l-.002-2.607c-.008-13.964-.033-27.927-.066-41.891q-.049-21.519-.054-43.038a8324 8324 0 0 0-.036-24.153q-.034-10.274-.02-20.547c.004-3.494.002-6.988-.017-10.483-.018-3.786-.011-7.57.002-11.356l-.033-3.355c.063-7.42.063-7.42 2.364-11.285 3.31-2.922 5.138-4.254 9.532-3.841"/><path fill="#95573C" d="m366.6 180.74 7.072-.012q8.648-.014 17.294-.005c6.915.004 13.829-.003 20.743-.01 14.331-.016 28.662-.018 42.993-.015a59992 59992 0 0 0 45.189-.01q33.46-.013 66.92-.008h2.545l20.46.005q39.901.007 79.802-.021a108510 108510 0 0 1 99.34-.027h2.382q17.764.001 35.53-.015 20.211-.019 40.422-.002c6.87.006 13.74.008 20.61-.005q9.446-.014 18.891.007 3.405.004 6.81-.008c41.108-.135 76.71 13.785 106.397 42.386l2.137 1.945c25.011 23.44 39.713 60.79 40.958 94.63.038 2.596.048 5.19.045 7.788l.01 2.975q.01 4.886.011 9.77l.015 7.045q.019 9.53.024 19.059.005 5.955.012 11.908.019 16.505.026 33.01v4.26l.003 6.42q.007 17.226.045 34.451.035 17.708.037 35.417-.001 9.934.025 19.868.023 9.33.01 18.66-.002 3.427.013 6.853c.013 3.114.007 6.227-.004 9.34l.025 2.752c-.038 4.758-.254 8.005-3.392 11.849-3.715 1.857-7.956 1.585-12 1-2.824-2.19-4.415-3.83-6-7-.097-3.056-.133-6.09-.125-9.146l-.004-2.909c-.004-3.238 0-6.476.003-9.715q-.002-3.471-.006-6.943-.006-7.498-.006-14.996a12990 12990 0 0 0-.037-27.83l-.012-6.148q-.023-11.601-.041-23.202l-.003-2.143c-.018-11.4-.02-22.8-.02-34.199q.002-17.6-.05-35.2c-.019-6.575-.028-13.15-.016-19.725q.016-9.312-.03-18.623-.01-3.388.007-6.775c.168-36.995-10.44-71.833-36.723-98.637-14.242-13.943-31.702-24.074-50.625-30.184l-2.227-.724c-14.282-4.338-28.487-4.189-43.263-4.162l-7.08-.011q-8.68-.014-17.36-.005c-6.939.004-13.876-.003-20.814-.01-14.382-.016-28.763-.018-43.144-.015a60390 60390 0 0 1-45.335-.01q-33.56-.013-67.118-.008h-2.554l-12.815.003h-2.57l-5.147.002q-40.042.007-80.083-.021a109194 109194 0 0 0-102.026-.026q-17.827 0-35.655-.016-20.28-.019-40.561-.002-10.344.012-20.688-.005-9.476-.014-18.953.007-3.42.004-6.841-.008c-12.08-.04-23.346.312-35.078 3.386l-2.282.582c-30.581 8.423-56.894 29.114-72.604 56.448L249 266c-.34.601-.68 1.202-1.032 1.821-12.113 21.792-14.426 44.635-14.337 69.137q-.003 3.55-.011 7.101a4791 4791 0 0 0 0 15.187c.01 7.326.002 14.651-.013 21.977q-.035 17.848-.04 35.696l-.002 2.15a52487 52487 0 0 0 0 32.446v2.157q0 17.809-.042 35.618-.024 11.939.001 23.877c.006 4.94-.005 9.882-.02 14.823q-.006 3.438.01 6.876c.013 3.126.002 6.251-.015 9.378l.03 2.753c-.075 6.493-1.752 10.13-6.342 14.878-3.252 1.673-5.584 1.567-9.187 1.125-3.54-2.203-5.417-4.184-7-8-.252-1.999-.252-1.999-.254-4.15l-.018-2.498.011-2.727-.011-2.91c-.01-3.228-.007-6.456-.003-9.684l-.015-6.933c-.014-6.29-.014-12.58-.012-18.871.002-5.925-.005-11.85-.01-17.776q-.013-18.708-.003-37.417c.006-11.367-.006-22.733-.025-34.1q-.03-17.546-.024-35.091c.002-6.556 0-13.112-.014-19.668q-.018-9.274.002-18.55.004-3.38-.009-6.76C210.47 295.047 222.053 256.616 252 225l2.64-2.871C269.586 206.232 290.007 193.17 311 187c1.121-.345 2.243-.69 3.398-1.047 17.243-4.988 34.392-5.246 52.203-5.214"/><path fill="#94553A" d="m719.438 250.438 2.246-.067c3.522.956 5.01 2.85 7.316 5.629.628 3.207.628 3.207.637 6.813l.031 1.97c.03 2.073.027 4.144.02 6.217-.114 19.245-.114 19.245 5.937 37.25l1.08 2.05C745.929 327.225 762.613 335.3 780 342l3.33 1.298c9.925 3.826 19.98 7.069 30.144 10.196 41.392 12.784 80.873 29.397 102.617 69.52C939.69 468.262 931.957 524.306 926 573l-.352 2.895a2336 2336 0 0 1-7.222 53.991q-.828 5.704-1.65 11.407c-.7 4.863-1.419 9.723-2.148 14.582-2.214 15.063-3.35 29.907-3.628 45.125l-.116 5.09a642 642 0 0 0-.124 11.353 465 465 0 0 1-.041 4.418c-.2 14.32 2.458 27.205 6.085 41.06 3.83 14.701 6.543 29.408 8.634 44.454l.38 2.729q.535 3.896 1.053 7.794l.305 2.295c.292 2.267.561 4.536.824 6.807l.287 2.288c1.074 9.74.857 19.537.846 29.321q0 3.022.003 6.043.002 6.324-.006 12.648-.006 8.003.004 16.004.005 6.244 0 12.49 0 2.944.002 5.887c.01 10.6-.14 21.177-.582 31.77l-.117 2.886c-.227 4.954-.663 9.765-1.437 14.663a152 152 0 0 0-.246 5.363l-.1 2.94q-.09 2.992-.172 5.984c-.594 16.94-.594 16.94-4.343 20.46-3.236 1.896-5.463 1.769-9.139 1.253-2.937-1.687-2.937-1.687-5-5-.779-8.102.147-16.481.572-24.603 1.35-25.977 1.655-51.92 1.675-77.925q.005-4.125.018-8.25c.443-46.555.443-46.555-7.64-92.202-2.105-7.477-3.607-15.082-5.16-22.688-.524-2.564-1.058-5.126-1.592-7.687-3.162-15.298-5.242-30.178-5.123-45.832l.008-2.182c.049-10.777.515-21.403 1.917-32.095.37-2.887.697-5.777 1.02-8.669l.742-6.492.334-2.924c.712-5.95 1.62-11.844 2.64-17.748 1.895-11.063 3.232-22.189 4.589-33.328l.75-6.082q.748-6.064 1.492-12.13 1.183-9.63 2.38-19.257l.37-3.008c.616-4.939 1.284-9.858 2.07-14.773 2.552-18.031 3.138-36.068 3.188-54.25l.016-2.629c.156-33.204-6.941-64.048-30.453-88.871-22.406-21.436-53.549-30.238-82.392-39.3C767.435 358.995 734.694 347.307 718 316c-6.453-12.994-7.524-27.036-7.446-41.293.009-2.431-.02-4.86-.052-7.291q-.003-2.339.002-4.678l-.034-2.18c.048-3.444.29-5.248 2.425-8.006 2.393-1.764 3.595-2.12 6.543-2.114"/><path fill="#945539" d="M849 503.313c3.188.271 4.201.821 7 2.687 3.109 4.664 2.379 8.835 1.449 14.152a464 464 0 0 1-2.511 11.285l-.473 2.056c-2.855 12.432-6.148 24.72-9.723 36.965a797 797 0 0 0-1.894 6.6 841 841 0 0 1-4.024 13.856c-2.812 9.365-5.298 18.774-7.629 28.27-1.07 4.35-2.211 8.679-3.383 13.004-3.466 12.919-5.595 25.873-7.375 39.125l-.384 2.799c-5.239 39.91-4.354 81.667 8.947 119.888l1.066 3.112c5.048 14.67 10.506 29.162 16.267 43.564 2.135 5.346 4.198 10.68 5.967 16.158a375 375 0 0 0 2.348 6.97c12.932 37.812 20.186 77.387 20.852 117.384l.092 2.782c.003 4.271-.235 7.161-2.904 10.6C870 997 870 997 866.5 997.687c-4.477-.879-5.71-2.1-8.5-5.687-.812-2.963-.927-5.877-1.04-8.937l-.154-2.63a536 536 0 0 1-.292-5.556c-.187-3.873-.43-7.74-.676-11.61a891 891 0 0 1-.328-5.502c-1.634-28.22-8.23-57.101-17.51-83.765l-1.557-4.51c-3.804-10.976-7.798-21.866-11.925-32.723-13.145-34.639-25.642-69.088-25.686-106.61l-.01-3.057q-.007-3.187-.007-6.373c-.002-3.19-.02-6.38-.04-9.57-.033-12.212.593-24.06 2.225-36.157q.328-2.884.64-5.77c2.34-19.868 6.023-39.706 12.016-58.812 1.78-5.713 3.254-11.509 4.782-17.293 2.013-7.585 4.12-15.104 6.562-22.562 4.617-14.211 8.514-28.749 11.379-43.415l.644-3.296q.586-3.076 1.116-6.163c1.124-6 3.12-14.673 10.861-14.376"/><path fill="#FCFBFB" d="M476 535h2l.655 3.067c.82 3.832 1.653 7.661 2.488 11.49q.536 2.464 1.062 4.93c2.032 9.516 4.382 18.653 7.587 27.847 1.464 4.442 2.599 8.932 3.695 13.473a497 497 0 0 0 3.915 15.076l.623 2.272 1.266 4.611c3.093 11.287 6.167 22.573 8.772 33.984.19.83.382 1.66.58 2.516 1.002 4.538 1.646 9.014 2.109 13.636.353 2.989 1.03 5.865 1.748 8.785 1.542 6.316 2.635 12.166 2.563 18.688l-.028 3.21L515 701c-3.487-1.484-5.642-3.462-8.25-6.187a124 124 0 0 0-8.516-8.094c-4.424-3.836-8.593-7.894-12.734-12.032l-2.203-2.166-2.078-2.072-1.877-1.864C478 667 478 667 478 665h-2c-1.252-1.275-1.252-1.275-2.781-3.156-3.35-3.94-6.896-7.61-10.563-11.25l-1.746-1.737a4052 4052 0 0 0-5.41-5.357c-13.817-13.662-13.817-13.662-19.077-19.845-5.656-6.576-12.124-12.52-18.696-18.159-2.383-2.065-4.598-4.168-6.727-6.496v-2c1.83-1.355 3.717-2.632 5.625-3.875 10.134-6.786 19.306-14.769 27.781-23.531C446 568 446 568 448.562 566c2.78-2.28 4.955-4.797 7.282-7.527 2.668-3.06 5.444-6.01 8.219-8.973 3.402-3.64 6.637-7.267 9.562-11.312z"/><path fill="#94563B" d="M472 864c0 3.425-.475 3.998-2.492 6.625l-1.622 2.125-1.761 2.25-1.792 2.317a212 212 0 0 1-12.875 14.988c-2.218 2.432-4.245 4.922-6.27 7.515-5.815 7.15-12.306 13.599-18.837 20.09a1611 1611 0 0 0-6.331 6.344q-2.032 2.03-4.067 4.058l-1.89 1.904c-4.155 4.11-7.61 7.39-13.563 8.346-3.5-.562-3.5-.562-6.5-3.125-2-3.437-2-3.437-2.125-7 1.337-4.084 3.013-5.513 6.125-8.437l2.727-2.578c5.595-5.158 11.252-10.156 17.187-14.926a473 473 0 0 0 6.922-5.71C439.86 886.19 455.796 875.015 472 864"/><path fill="#95583D" d="M460 837c-2.541 2.541-4.752 3.095-8.16 4.242l-1.87.632q-3.014 1.01-6.033 2.001l-2.069.687c-8.887 2.943-17.744 5.648-26.915 7.57-3.67.785-7.279 1.738-10.898 2.735-7.43 2.013-14.902 3.775-22.419 5.425-2.099.464-4.194.94-6.29 1.415-13.17 2.938-13.17 2.938-19.346 2.293-3.436-2.434-4.745-3.888-5.687-8 .793-3.463 2.094-4.698 4.843-6.863 3.292-2.03 6.757-2.57 10.531-3.2l2.631-.476c2.89-.511 5.785-.988 8.682-1.461l3.007-.512c26.32-4.44 53.277-7.326 79.993-6.488"/><path fill="#95573C" d="M367 764.64c3.023.544 5.327 1.863 8 3.36q2.3.966 4.625 1.875c10.463 4.114 20.741 8.575 30.938 13.313l1.838.854C427.765 791.195 442.732 798.83 457 808c-3.329 1.098-5.524.881-8.91.066l-2.954-.703-3.199-.8c-1.113-.275-2.226-.55-3.374-.832-18.533-4.65-36.74-10.402-54.928-16.238q-2.493-.8-4.989-1.595-3.51-1.122-7.013-2.261l-2.115-.672c-9.078-2.976-9.078-2.976-11.83-6.778-.929-2.953-1.066-5.103-.688-8.187 2.45-4.696 4.696-5.71 10-5.36M665 750c3.336 2.058 4.826 3.74 7 7a30.7 30.7 0 0 1 0 10c-2.375 3-2.375 3-5 5l-2 2c-4.79.48-7.068.483-11.375-1.75-3.962-3.396-4.495-4.908-5-10.125.104-4.304 1.608-6.804 4.375-10.125 4.022-2.682 7.273-2.69 12-2"/><path fill="#93553B" d="M661.863 585.54c3.913.843 6.53 3.542 9.137 6.46 1.56 3.119 1.283 5.545 1 9-1.291 3.332-2.95 6.138-5.75 8.438-4.207 1.051-8.218 1.738-12.066-.489-2.978-2.432-5.003-4.273-5.422-8.156-.202-7.065-.202-7.065 2.05-10.793 3.62-3.31 6.076-4.553 11.051-4.46"/><path fill="#94563C" d="M664 641c3.752 2.015 5.636 3.455 8 7 .677 3.741.83 7.434-.98 10.852-3.212 4.012-5.885 5.87-10.895 6.523-3.997-.48-6.03-1.842-9.125-4.375-2.555-4.168-2.833-8.234-2-13 3.512-6.294 8.018-7.96 15-7"/><path fill="#925338" d="M662.59 695.43c3.902.923 5.697 2.649 8.41 5.57 1.598 3.196 1.368 6.523 1 10-1.76 4.17-3.815 6.271-8 8-4.009.808-7.398 1.05-10.914-1.254-3.028-3.093-4.501-5.911-4.836-10.246.34-4.306 1.75-7.165 4.773-10.238 3.159-2.016 5.89-2.087 9.567-1.832"/><path fill="#925339" d="M662.52 804.39c4.261 1.048 7.102 2.895 9.48 6.61 1.23 4.757.454 8.108-1.75 12.438-3.44 3.917-4.963 4.44-10.187 4.937-3.158-.082-4.11-.404-6.938-2.125-3.293-3.486-3.993-5.242-4.625-10.062.144-4.253 1.582-6.859 4.527-9.887 3.14-2.07 5.8-2.2 9.493-1.91"/><path fill="#915339" d="M659.75 531.625c3.963.034 4.96.158 8.25 2.625l2 2.75 1.375 1.813c1.003 3.511.702 6.753-.375 10.187-2.62 3.157-4.81 5.699-8.988 6.273-4.492.197-6.362.242-10.012-2.648-3.182-4.177-3.386-6.975-3.363-12.14.544-3.72 2.447-5.28 5.363-7.485 1.642-1.642 3.492-1.288 5.75-1.375"/><path fill="#96583D" d="M659.75 477.625c4.102.018 4.959.143 8.313 2.813L670 483l1 1c.544 4.815.725 8.757-1.75 13-3.342 2.97-5.15 3.857-9.625 4.438-4.81-.581-6.239-2.052-9.625-5.438-1.856-3.712-1.59-7.959-1-12 2.438-3.062 2.438-3.062 5-5 1.642-1.642 3.492-1.288 5.75-1.375"/><path fill="#94553A" d="M663 424c3.658 2.04 5.67 3.504 8 7 .427 5.299.513 8.734-3 13-4.162 2.503-8.258 2.998-13 2-3.518-2.699-5.729-6.333-6.437-10.687.615-4.658 3.078-7.155 6.437-10.313 2.866-1.433 4.813-1.306 8-1"/><path fill="#965C43" d="M472 864c0 3.606-.817 4.413-3 7.188l-1.687 2.167L466 875l-2.25-.562c-2.7-.43-4.196-.29-6.75.562 4.777-3.981 9.89-7.467 15-11"/><path fill="#9E6850" d="m715 251 2 1a159 159 0 0 1-3 5h-1l-1 34h-1q-.148-7.58-.22-15.161a609 609 0 0 0-.082-5.156 593 593 0 0 1-.089-7.417l-.062-2.324c-.002-3.676.135-5.547 2.477-8.459z"/><path fill="#9C6349" d="m442 547 3 1q-2.34 2.38-4.687 4.75l-2.637 2.672c-2.456 2.366-4.977 4.497-7.676 6.578 0-3 0-3 2.625-5.918a350 350 0 0 1 3.375-3.27l1.734-1.693c1.416-1.38 2.84-2.75 4.266-4.119"/><path fill="#AE836F" d="M910 547h1q.57 3.49 1 7l-1 1a81 81 0 0 0 .063 4.25c.053 3.714-.33 6.392-2.063 9.75h-1q.212-4.375.438-8.75l.119-2.5.127-2.422.11-2.222c.207-2.118.637-4.058 1.206-6.106"/><path fill="#9B644B" d="M565 330c-2.373 3.56-3.662 3.851-7.625 5.188l-3.04 1.042L552 337l-2-2a595 595 0 0 1 5.813-3.062l3.269-1.723C562 329 562 329 565 330"/><path fill="#DFCBC3" d="m513 900 2 3c-.625 2.563-.625 2.563-2 6l-1.031 2.613A835 835 0 0 1 509 919c-1.793-4.167-.012-7.747 1.438-11.75l.736-2.113A605 605 0 0 1 513 900"/><path fill="#9E654D" d="m308 541 2 3-1 2h-2l-.937 2.875C305 552 305 552 304 554h-2c1.413-4.827 3.43-8.716 6-13"/><path fill="#A6705A" d="M656 750c8.193-.63 8.193-.63 11.563 2l1.437 2c-2.576 1.288-3.714.847-6.5.25l-2.406-.484C658 753 658 753 656 750"/><path fill="#AE8470" d="M909 828c3 3 3 3 3.074 6.574a178 178 0 0 1-.386 4.114l-.186 2.126c-.153 1.73-.326 3.458-.502 5.186h-1z"/><path fill="#975C41" d="m440 375 2 2-10 7-2-1z"/><path fill="#A16F58" d="M912 521h1l1 12h-2v6h-1z"/><path fill="#9A5D43" d="M470 360v2l-9 3-1-2c3.73-2.034 5.67-3 10-3"/><path fill="#9B6046" d="M389 434h2c-1.306 3.918-2.831 6.326-6 9h-2c1.528-3.438 3.502-6.19 6-9"/><path fill="#A7725A" d="m357 849-5 10h-1c-.337-3.703-.477-5.395 1.875-8.375C355 849 355 849 357 849"/><path fill="#9A6045" d="m582 312 2 2c-3.5 4.875-3.5 4.875-8 6z"/><path fill="#9D6146" d="m428 896 2 1-5 6-3-2z"/><path fill="#9A634A" d="M472 864c0 3 0 3-2 5.188L468 871l-3-2z"/><path fill="#E7D6CF" d="m523 872 4 2-6 6z"/><path fill="#9E6349" d="m655 696 2 1a159 159 0 0 1-5 6h-2c1.293-2.884 2.66-4.872 5-7"/><path fill="#99624A" d="M500 689c3.367 1.393 4.986 2.979 7 6-3.243-.56-4.93-1.413-7-4z"/><path fill="#A36D58" d="m715 251 2 1c-1.804 3.265-2.834 4.89-6 7 .498-3.688 1.1-5.605 4-8"/></svg>