<?xml version="1.0" encoding="UTF-8"?>
<svg version="1.1" xmlns="http://www.w3.org/2000/svg" width="1254" height="1254">
<path d="M0 0 C413.82 0 827.64 0 1254 0 C1254 413.82 1254 827.64 1254 1254 C840.18 1254 426.36 1254 0 1254 C0 840.18 0 426.36 0 0 Z " fill="none" transform="translate(0,0)"/>
<path d="M0 0 C4.11879063 0.15841502 6.41596097 0.54399704 9.69726562 3.10595703 C12.57935331 6.72812279 12.61953976 8.5932126 12.59375 13.1796875 C12.59379028 13.86950714 12.59383057 14.55932678 12.59387207 15.27005005 C12.58852419 16.73090719 12.57097194 18.19176429 12.54199219 19.65234375 C12.50076927 21.83428221 12.50087841 24.01305689 12.5078125 26.1953125 C12.40905889 48.39518807 5.744036 67.165924 -9.54296875 83.59375 C-18.31918827 92.18858502 -29.12572496 97.55998111 -40 103 C-40.82242187 103.4228125 -41.64484375 103.845625 -42.4921875 104.28125 C-54.76116651 110.20091302 -68.78672126 112.73734369 -81.9375 116 C-105.48287337 121.44877962 -105.48287337 121.44877962 -128 130 C-128.57814453 130.27682617 -129.15628906 130.55365234 -129.75195312 130.83886719 C-154.05143659 142.65643932 -169.21954595 161.50970563 -184.54492188 183.18017578 C-190.22213334 191.17967236 -196.50818918 198.64963307 -202.86303711 206.11132812 C-205.79360339 209.55536321 -208.66306145 213.04043318 -211.5 216.5625 C-214.65604231 220.44858769 -217.9570038 224.15751793 -221.375 227.8125 C-226.29616084 233.09307629 -230.76652559 238.64158422 -235.171875 244.35546875 C-237.10730322 246.86568929 -239.07665555 249.34289139 -241.078125 251.80078125 C-246.39146482 258.32688527 -251.45766067 264.86178219 -256.0234375 271.9453125 C-257.41501679 274.09593504 -258.82497265 276.2053068 -260.2890625 278.3046875 C-274.71420288 299.12361122 -292.0236491 325.72745215 -290 352 C-289.29614601 355.75815858 -289.29614601 355.75815858 -288 359 C-287.608125 360.2375 -287.21625 361.475 -286.8125 362.75 C-278.53995381 383.94075872 -257.77182502 399.23389333 -240.14941406 412.39013672 C-238.09803777 413.92657189 -236.05897483 415.47782313 -234.0234375 417.03515625 C-227.24715058 422.20243043 -220.36998522 427.18289001 -213.32421875 431.9765625 C-212.50766312 432.53364899 -211.69110748 433.09073547 -210.84980774 433.66470337 C-202.06910683 439.64798935 -193.25772624 445.58583754 -184.44338989 451.51940918 C-179.73410105 454.69025906 -175.02725069 457.86472469 -170.3203125 461.0390625 C-169.41106522 461.65225342 -168.50181793 462.26544434 -167.5650177 462.8972168 C-165.0432521 464.59800665 -162.52159834 466.29896216 -160 468 C-159.32110718 468.45789917 -158.64221436 468.91579834 -157.94274902 469.38757324 C-147.11180652 476.69460671 -136.33300609 483.99602068 -126 492 C-125.20851563 492.5878125 -124.41703125 493.175625 -123.6015625 493.78125 C-121.35283024 495.46971791 -119.16664681 497.20759218 -117 499 C-116.24976563 499.61746094 -115.49953125 500.23492188 -114.7265625 500.87109375 C-109.76363063 505.3512831 -106.54874082 510.09006104 -103.5625 516 C-103.06737915 516.97827759 -103.06737915 516.97827759 -102.56225586 517.97631836 C-97.66959123 528.25692914 -97.10554671 539.59234175 -95.90087891 550.76635742 C-93.58110732 572.07454129 -87.076625 587.60168315 -72 603 C-71.26910156 603.78117188 -70.53820312 604.56234375 -69.78515625 605.3671875 C-63.93199291 611.49284448 -57.40477561 616.63200522 -50.66650391 621.73486328 C-49.2096305 622.84085771 -47.76577454 623.96395711 -46.32421875 625.08984375 C-34.36688376 634.18336912 -15.45845168 648.29734311 0 649 C-0.51296203 645.33598549 -0.89142261 642.98231573 -3.71484375 640.48046875 C-6.10349063 638.91251429 -8.53916345 637.45200165 -11 636 C-24.27195108 627.49135409 -36.91396345 618.28622096 -48.390625 607.4609375 C-50.63169359 605.34735485 -52.91112917 603.31595137 -55.25 601.3125 C-60.24914692 596.97223646 -65.3153816 592.5269276 -69 587 C-69.125 583.8125 -69.125 583.8125 -69 581 C-64.59978881 579.68604805 -64.59978881 579.68604805 -62 581.046875 C-61.01 581.88992188 -61.01 581.88992188 -60 582.75 C-59.21238281 583.40484375 -58.42476562 584.0596875 -57.61328125 584.734375 C-56.31970703 585.85585937 -56.31970703 585.85585937 -55 587 C-35.62294908 603.72602985 -15.22779234 618.55205842 7.3125 630.75 C8.0950415 631.18094971 8.87758301 631.61189941 9.68383789 632.0559082 C13.96574507 634.30667222 17.03120317 635.53716722 22 635 C21.54177532 631.53058454 21.10868317 628.32604951 20 625 C18.35419165 624.28338498 16.6825837 623.62540733 15 623 C13.1498183 621.86970407 11.32989919 620.68906038 9.53515625 619.47265625 C8.49464111 618.76842529 7.45412598 618.06419434 6.38208008 617.33862305 C5.27512908 616.58053456 4.16861054 615.82181426 3.0625 615.0625 C2.50098236 614.67873199 1.93946472 614.29496399 1.3609314 613.89956665 C-7.3666711 607.92824592 -15.88862362 601.79179823 -24 595 C-24.56154785 594.53319824 -25.1230957 594.06639648 -25.70166016 593.58544922 C-32.5434051 587.87796853 -39.20008314 581.97718783 -45.75 575.9375 C-46.34683594 575.38916504 -46.94367188 574.84083008 -47.55859375 574.27587891 C-53.90239592 568.36645713 -53.90239592 568.36645713 -54.1875 564.375 C-54 562 -54 562 -53 561 C-50.01349525 560.65403352 -48.45964725 560.71112742 -45.88671875 562.328125 C-45.16097656 562.96234375 -44.43523437 563.5965625 -43.6875 564.25 C-36.68126087 570.13855253 -29.35693863 575.56059678 -22 581 C-21.3090625 581.51191895 -20.618125 582.02383789 -19.90625 582.55126953 C-10.51655173 589.48624491 -0.96170245 596.18139044 8.6875 602.75 C9.70328125 603.45415039 10.7190625 604.15830078 11.765625 604.88378906 C16.88057924 608.32838042 20.74725174 610.89505877 27 611 C28.06709793 607.54699465 28.06709793 607.54699465 27.09375 604.21875 C16.86867977 593.19171347 4.90308089 584.02745006 -7.0625 574.9921875 C-12.16114513 571.13658037 -17.09623681 567.09951756 -22 563 C-23.11566749 562.08306811 -24.23156512 561.16641619 -25.34765625 560.25 C-37.39856618 550.29622621 -37.39856618 550.29622621 -41 545 C-40.875 542.0625 -40.875 542.0625 -40 540 C-38.25341797 539.3503418 -38.25341797 539.3503418 -36 539 C-34.02392578 539.92114258 -34.02392578 539.92114258 -31.9453125 541.39453125 C-31.1726001 541.93311768 -30.3998877 542.4717041 -29.60375977 543.02661133 C-28.78576904 543.61595459 -27.96777832 544.20529785 -27.125 544.8125 C-26.27800537 545.40764404 -25.43101074 546.00278809 -24.55834961 546.6159668 C-22.02931185 548.39758806 -19.5130977 550.19598577 -17 552 C-15.68636462 552.93773357 -14.37257891 553.87525662 -13.05859375 554.8125 C-11.32772924 556.04910233 -9.59790007 557.28703321 -7.87109375 558.52929688 C-2.34233842 562.49982989 3.3056393 566.27263182 9 570 C10.16208984 570.79470703 10.16208984 570.79470703 11.34765625 571.60546875 C16.22024515 574.91204237 16.22024515 574.91204237 22 575 C23.29524348 573.90645094 23.29524348 573.90645094 23.375 571.25 C22.88397683 566.99446585 21.09959438 565.63038972 18 563 C17.37609375 562.39929688 16.7521875 561.79859375 16.109375 561.1796875 C8.38633504 553.86170209 -0.27820509 547.82678837 -8.85791016 541.56835938 C-20.69224476 532.90369497 -28.40538973 524.47502571 -35.359375 511.59863281 C-44.4315267 494.87098079 -57.3014218 485.33481309 -75.3125 479.5625 C-84.64066296 476.21238556 -92.17108534 467.21100721 -99.29405212 460.5627594 C-100.46633008 459.48887642 -101.65384185 458.43146176 -102.85353088 457.38829041 C-111.2534261 450.03031882 -119.041764 442.05640884 -126.90714836 434.13745117 C-129.57556373 431.45146246 -132.24766368 428.76918892 -134.92079163 426.08789062 C-142.51426847 418.4701197 -150.10205605 410.84670395 -157.68530273 403.21875 C-162.3412667 398.53542606 -167.00264869 393.85753424 -171.66681099 389.18237305 C-173.43199299 387.41102303 -175.19528084 385.63778319 -176.95655632 383.86254883 C-187.61982624 373.1154929 -198.20614909 363.02579933 -210.5390625 354.19140625 C-213.07511747 352.12323308 -213.07497445 350.5501533 -213.625 347.25 C-213.57948552 344.44327366 -213.39181446 343.38992619 -211.37890625 341.38671875 C-208.9770172 339.79830371 -206.52201369 338.38968101 -204 337 C-190.43018222 328.824911 -178.39493955 318.98628033 -167 308 C-166.30825684 307.33548828 -165.61651367 306.67097656 -164.90380859 305.98632812 C-151.24953248 292.79964407 -139.96274644 279.29441274 -129.50073242 263.48266602 C-126.6482514 259.20909337 -123.91077209 255.35967857 -120 252 C-116.10461628 251.25407546 -114.32654264 251.84300835 -110.75 253.5625 C-105.92410261 257.83999996 -105.77723343 264.09479364 -104.90991211 270.22021484 C-103.11247088 282.68347322 -100.17713167 294.72214775 -96.9375 306.875 C-96.71803711 307.69928497 -96.49857422 308.52356995 -96.27246094 309.37283325 C-93.97865405 317.95484595 -91.62822338 326.51349443 -89 335 C-88.41516609 336.90879336 -87.83054164 338.81765091 -87.24609375 340.7265625 C-86.33835058 343.68804996 -85.43000168 346.64932577 -84.51757812 349.609375 C-84.22173828 350.57617188 -83.92589844 351.54296875 -83.62109375 352.5390625 C-83.3573999 353.39709473 -83.09370605 354.25512695 -82.82202148 355.13916016 C-81.78821886 358.7370512 -80.89207702 362.36510357 -80 366 C-79.67033391 367.32273468 -79.34041837 368.64540721 -79.01025391 369.96801758 C-74.16680697 389.48558921 -69.7420748 408.79270164 -67.33789062 428.78393555 C-67.03870436 431.16658454 -67.03870436 431.16658454 -66 434 C-65.53201043 437.15325757 -65.24894067 440.32781207 -64.9375 443.5 C-64.84807129 444.39750977 -64.75864258 445.29501953 -64.66650391 446.21972656 C-64.07133979 452.49332322 -63.7397536 458.69625389 -64 465 C-63.13568359 465.19722656 -63.13568359 465.19722656 -62.25390625 465.3984375 C-45.8416532 469.77883086 -32.62294384 481.74432672 -24 496 C-22.66504068 498.4509683 -21.35791597 500.91579624 -20.05102539 503.38183594 C-15.58501216 511.77711504 -11.55324071 518.98823699 -4 525 C-3.50161621 525.39880371 -3.00323242 525.79760742 -2.48974609 526.20849609 C-0.20355024 528.03157847 2.09269761 529.84017813 4.40966797 531.62402344 C10.92094776 536.64237102 17.08474063 542.0430098 23.25097656 547.47558594 C25.63310688 549.55180337 28.05643544 551.57835465 30.48510742 553.59985352 C34.63688258 557.43715095 36.68100614 561.62602652 37.203125 567.1484375 C37.33649855 573.48368094 36.19021068 577.47793922 31.9375 582.375 C30 584 30 584 28 584 C28.43570312 584.47308594 28.87140625 584.94617188 29.3203125 585.43359375 C36.52713036 593.43596943 42.39850845 600.38367223 42.28515625 611.4921875 C41.75493135 616.15526124 39.28081329 618.86987063 35.875 621.875 C34 623 34 623 32 623 C32.72896484 624.05380859 32.72896484 624.05380859 33.47265625 625.12890625 C36.02049952 629.9183303 35.63816472 634.70825209 35 640 C33.24622296 643.84481888 31.77861729 645.44384479 28.375 647.875 C23.88194236 649.37268588 19.69904942 649.43947944 15 649 C14.34 648.67 13.68 648.34 13 648 C12.773125 649.216875 12.54625 650.43375 12.3125 651.6875 C10.93547105 657.2447954 7.66929425 659.88713717 3 663 C-13.61555599 666.04725448 -34.78328329 651.46882783 -47.82080078 642.50170898 C-55.1457345 637.30497688 -62.23631689 631.79707387 -69.2421875 626.1796875 C-71.98398138 623.95235988 -71.98398138 623.95235988 -75 622 C-75.12955078 622.83917969 -75.12955078 622.83917969 -75.26171875 623.6953125 C-76.90627231 633.07982915 -80.24089248 641.87069097 -83.9375 650.625 C-93.07857739 673.36711594 -98.24949899 698.75842506 -99.23046875 723.23828125 C-99.26688477 724.13377686 -99.30330078 725.02927246 -99.34082031 725.9519043 C-99.40334889 727.68075628 -99.45183038 729.41019826 -99.48339844 731.13989258 C-99.6746853 737.24306125 -100.49658016 742.49658016 -105 747 C-107.9375 747.375 -107.9375 747.375 -111 747 C-113.98321562 744.11965388 -114.86393271 741.05041894 -115.13371277 736.98506165 C-115.13752457 736.27496445 -115.14133636 735.56486725 -115.14526367 734.83325195 C-115.15164352 734.02173172 -115.15802338 733.21021149 -115.16459656 732.37409973 C-115.16626579 731.06936958 -115.16626579 731.06936958 -115.16796875 729.73828125 C-115.17129715 728.83305222 -115.17462555 727.92782318 -115.17805481 726.99516296 C-115.18311373 725.07954414 -115.18546345 723.16391652 -115.18530273 721.24829102 C-115.18747904 718.34050641 -115.20561759 715.43310764 -115.22460938 712.52539062 C-115.22754568 710.65885545 -115.22952889 708.79231849 -115.23046875 706.92578125 C-115.23765427 706.06608231 -115.24483978 705.20638336 -115.25224304 704.32063293 C-115.23374573 699.34685321 -114.68286879 694.86865892 -113.49201965 690.04005432 C-112.835016 687.31592912 -112.47462961 684.57749443 -112.109375 681.80078125 C-111.05604687 674.74819615 -109.25536535 668.02259559 -107.25 661.1875 C-106.89583008 659.96498535 -106.54166016 658.7424707 -106.17675781 657.48291016 C-103.52531642 648.46824852 -100.54598083 639.70088429 -97 631 C-96.61972656 630.04351563 -96.23945313 629.08703125 -95.84765625 628.1015625 C-93.24381476 621.55756841 -93.24381476 621.55756841 -92.01953125 618.7578125 C-90.26790781 615.02801632 -90.26790781 615.02801632 -90.6640625 611.1171875 C-92.35886596 608.4312709 -94.28068495 605.99178639 -96.25 603.5 C-108.99581921 586.78580525 -112.48399298 567.70909547 -114.76123047 547.35229492 C-116.25857724 534.23746039 -118.18522326 521.29590919 -128.93261719 512.40039062 C-131.21135623 510.62996217 -133.53151798 508.9336667 -135.875 507.25 C-136.63296875 506.693125 -137.3909375 506.13625 -138.171875 505.5625 C-144.94676095 500.63127154 -151.9222818 496.01098904 -158.90783691 491.38671875 C-162.58317101 488.95064924 -166.2499715 486.50178373 -169.91796875 484.0546875 C-171.45504044 483.02989139 -172.99215006 482.00515217 -174.52929688 480.98046875 C-177.64648438 478.90234375 -180.76367187 476.82421875 -183.88085938 474.74609375 C-185.02751068 473.98167465 -185.02751068 473.98167465 -186.19732666 473.20181274 C-187.70676371 472.1955012 -189.21616377 471.18913415 -190.7255249 470.18270874 C-193.98509871 468.00934037 -197.24499859 465.83647397 -200.50683594 463.66650391 C-225.78842316 446.83985954 -251.19982944 429.62872438 -273.6640625 409.11328125 C-275.7617099 407.21557683 -277.90103782 405.3865007 -280.0625 403.5625 C-288.19983493 396.42592602 -294.60995473 388.36520366 -300 379 C-300.474375 378.17628906 -300.94875 377.35257813 -301.4375 376.50390625 C-309.2103494 362.04548102 -310.95959493 343.3779943 -306.56152344 327.49926758 C-305.52041979 324.26801749 -304.30272388 321.1336889 -303 318 C-302.61448975 317.03320312 -302.61448975 317.03320312 -302.22119141 316.046875 C-292.99450858 293.02831209 -279.79137692 271.82814765 -265 252 C-264.22398437 250.95972656 -263.44796875 249.91945313 -262.6484375 248.84765625 C-252.17403058 235.04668687 -240.95839124 221.84981364 -229.5703125 208.79980469 C-217.78596162 195.29323835 -206.73868571 181.43035065 -196.13256836 166.97802734 C-179.27488255 144.01369533 -162.54463194 124.83449359 -136.625 112.25 C-135.54883423 111.72092041 -135.54883423 111.72092041 -134.45092773 111.18115234 C-119.27845375 104.08367851 -102.47464328 100.77342003 -86.27783203 96.87768555 C-62.39707822 91.33601684 -62.39707822 91.33601684 -40 81.625 C-39.30342285 81.2441626 -38.6068457 80.8633252 -37.88916016 80.47094727 C-23.83764994 72.58922943 -14.23243384 62.79670504 -9.13720703 47.39135742 C-6.55886852 38.08347195 -6.57513071 28.95894639 -6.63964844 19.38989258 C-6.64822257 17.28136984 -6.62657972 15.17475962 -6.6015625 13.06640625 C-6.60494629 11.82834229 -6.60833008 10.59027832 -6.61181641 9.31469727 C-5.83993393 5.13279448 -4.20312618 3.69053927 -1 1 C-0.67 0.67 -0.34 0.34 0 0 Z " fill="#935439" transform="translate(598,250)"/>
<path d="M0 0 C1.12535156 0.07927734 1.12535156 0.07927734 2.2734375 0.16015625 C5.92707604 1.36792049 7.29236494 2.84273194 9.625 5.9375 C10.37702873 9.78049394 10.28890131 13.58013221 10.24404907 17.48532104 C10.25340754 19.25832461 10.25340754 19.25832461 10.26295507 21.06714642 C10.27529734 24.34508316 10.26527648 27.62207768 10.24589396 30.89995241 C10.23045913 34.43668512 10.24391661 37.97332003 10.25398254 41.51005554 C10.26760222 47.64000955 10.26328998 53.76974009 10.24715042 59.89968491 C10.22406357 68.77885519 10.23140099 77.65780205 10.24668162 86.53697981 C10.27096259 100.96445089 10.27515715 115.39185052 10.26464844 129.81933594 C10.26402461 130.68284267 10.26340079 131.54634941 10.26275806 132.43602301 C10.26148684 134.18344996 10.2602126 135.9308769 10.25893535 137.67830385 C10.25830297 138.54446663 10.25767059 139.41062941 10.25701904 140.30303955 C10.2563809 141.16984327 10.25574275 142.03664698 10.25508527 142.92971747 C10.24829182 152.53712896 10.24628849 162.14453942 10.24609375 171.75195312 C10.2460595 173.0410847 10.2460595 173.0410847 10.24602456 174.35625933 C10.24609395 188.71783102 10.25816458 203.07937566 10.27705324 217.4409343 C10.28798325 226.2894373 10.28724072 235.13779783 10.2711135 243.98629375 C10.26059706 250.06019839 10.26045222 256.134046 10.26823165 262.20795457 C10.27229424 265.70552603 10.27150523 269.20291534 10.25729942 272.70046425 C10.11080882 292.52446341 10.11080882 292.52446341 13.625 311.9375 C13.91498682 313.04002043 14.20497364 314.14254086 14.50374794 315.27847099 C23.09132866 346.83108949 44.19946399 374.45871885 72.48535156 390.74414062 C81.42432151 395.7297277 90.56339786 399.86667342 100.375 402.8125 C101.01107178 403.00368408 101.64714355 403.19486816 102.30249023 403.3918457 C116.31099084 407.2918491 130.19218735 407.22681091 144.61047363 407.20492554 C146.9496149 407.20866564 149.28875492 407.21326859 151.62789297 407.21865618 C157.36387884 407.22958075 163.09981458 407.23126244 168.83580916 407.22893447 C175.7125758 407.22665304 182.58931492 407.23596313 189.46607359 407.24549321 C203.72292849 407.26479985 217.97976896 407.2704602 232.23663539 407.27160732 C243.25111777 407.27252775 254.26559452 407.27665141 265.28007507 407.28300858 C268.45498068 407.28480378 271.6298863 407.2865834 274.80479193 407.28835833 C275.98886446 407.28902148 275.98886446 407.28902148 277.19685766 407.28969802 C299.39079245 407.30200067 321.58472529 407.30989974 343.77866364 407.30901146 C345.03292888 407.30896472 345.03292888 407.30896472 346.31253282 407.30891704 C350.55024486 407.30875084 354.78795689 407.30855276 359.02566892 407.30834763 C360.28801517 407.30828779 360.28801517 407.30828779 361.57586337 407.30822675 C363.27771092 407.30814587 364.97955847 407.30806228 366.68140601 407.30797596 C393.14732652 407.30675101 419.61319573 407.32175572 446.07910156 407.34912109 C475.84178579 407.37988291 505.60443631 407.3970511 535.36713743 407.39519465 C538.54455789 407.3950454 541.72197834 407.39494798 544.8993988 407.39488602 C546.07286243 407.39485105 546.07286243 407.39485105 547.27003239 407.39481538 C559.82630566 407.39475399 572.38253419 407.40749264 584.93879417 407.42475055 C597.57241076 407.44175485 610.20596232 407.44364349 622.83958405 407.4305319 C629.67558689 407.42381866 636.5114191 407.42383362 643.34740829 407.4412384 C649.61731957 407.4570371 655.88694287 407.45403613 662.15684742 407.43667014 C664.41321185 407.43361518 666.66959813 407.43717516 668.92593676 407.44839029 C686.55120053 407.53012564 704.56404921 406.42156776 720.9375 399.25 C721.74888428 398.9089624 722.56026855 398.5679248 723.39624023 398.21655273 C736.08620514 392.74286424 747.26531989 386.140597 757.625 376.9375 C758.40230469 376.29167969 759.17960938 375.64585937 759.98046875 374.98046875 C782.56908424 355.89095033 795.60504954 326.8055945 799.625 297.9375 C799.88115971 293.81156521 799.88157711 289.70244983 799.85636902 285.56962585 C799.85722246 284.37206329 799.8580759 283.17450072 799.8589552 281.94064838 C799.85945967 278.64776221 799.85112937 275.3550389 799.8390609 272.06217945 C799.82828903 268.49917479 799.82930825 264.93617186 799.82913208 261.37315369 C799.82753709 255.20897015 799.81947125 249.04482343 799.8076992 242.88065147 C799.78977109 233.13687197 799.79373637 223.3931566 799.80134583 213.64936829 C799.80370049 210.31134706 799.80594031 206.97332576 799.80816364 203.63530445 C799.80872818 202.80133222 799.80929271 201.96735999 799.80987435 201.10811588 C799.81605766 191.63254312 799.81841579 182.15697117 799.81860352 172.68139648 C799.81862695 171.81593135 799.81865039 170.95046622 799.81867454 170.05877487 C799.81842373 156.01173308 799.7992795 141.96476494 799.77500685 127.91774704 C799.75069865 113.48253582 799.75309739 99.04748926 799.77868825 84.61228019 C799.79348747 75.71406481 799.7864541 66.8164027 799.75138716 57.91824166 C799.72923264 51.82613797 799.73244008 45.73438248 799.75568654 39.64228406 C799.76830096 36.12727944 799.76946024 32.61323818 799.74010277 29.09831238 C799.70855367 25.28857581 799.73100335 21.48024719 799.75871277 17.67045593 C799.74084959 16.5592794 799.72298641 15.44810286 799.70458192 14.30325431 C799.81987069 7.02217169 799.81987069 7.02217169 802.13349974 3.90524638 C804.96780586 1.36479507 806.92542782 0.08026983 810.6875 -0.6875 C815.71004777 0.38112718 818.80236603 2.70354904 821.625 6.9375 C821.87569833 9.16514802 821.87569833 9.16514802 821.87668228 11.82501602 C821.88450552 13.34582728 821.88450552 13.34582728 821.89248681 14.89736199 C821.88579465 16.57314187 821.88579465 16.57314187 821.87896729 18.28277588 C821.88208727 19.46715296 821.88520725 20.65153003 821.88842177 21.87179732 C821.89503434 25.16539982 821.89263327 28.4587753 821.88644934 31.75236416 C821.88193531 35.30274181 821.88890378 38.85309923 821.89440918 42.4034729 C821.90331937 49.36445657 821.901373 56.3253972 821.8955839 63.28638259 C821.89106944 68.94932529 821.89045359 74.61225591 821.89263153 80.27519989 C821.892938 81.08086806 821.89324446 81.88653623 821.89356022 82.71661858 C821.89419968 84.35341202 821.8948481 85.99020545 821.8955054 87.62699887 C821.90121457 102.99296847 821.89464388 118.35891426 821.88390467 133.72487995 C821.87498899 146.88821321 821.87650364 160.05151115 821.88574219 173.21484375 C821.89646967 188.50675531 821.90064374 203.79864588 821.89451766 219.09056067 C821.89388059 220.72504409 821.89325185 222.35952751 821.89263153 223.99401093 C821.89232298 224.79813548 821.89201443 225.60226003 821.89169653 226.43075199 C821.88997548 232.07585163 821.89287235 237.7209379 821.89759064 243.36603546 C821.90322793 250.2624065 821.90162445 257.15873207 821.89102915 264.05509797 C821.88580735 267.56881483 821.88365505 271.08245619 821.89032745 274.59617233 C821.9490927 315.39212571 812.47059774 348.11296174 786 379.75 C785.56905029 380.2651416 785.13810059 380.7802832 784.6940918 381.31103516 C762.87823687 406.92113054 729.09275673 425.15789497 695.625 428.9375 C687.70165426 429.46224576 679.7527917 429.3478515 671.81646729 429.32518005 C669.42452551 429.32935867 667.03258571 429.33483907 664.64064956 429.34149987 C659.46345342 429.35290558 654.28633997 429.35510781 649.10913849 429.34894943 C641.40993228 429.33981582 633.71080919 429.34792439 626.01160932 429.35924067 C612.2554824 429.37886223 598.49939325 429.38126363 584.74325568 429.37604547 C572.70222219 429.37148043 560.66120361 429.37209726 548.62017059 429.37788582 C547.0022239 429.3786427 545.38427722 429.37939868 543.76633053 429.38015376 C541.3279332 429.38129901 538.88953588 429.3824489 536.45113857 429.38361301 C513.7938622 429.39431126 491.13659078 429.39905025 468.4793129 429.39114285 C467.62601457 429.39084567 466.77271624 429.3905485 465.89356039 429.39024232 C458.96510969 429.38779363 452.03665904 429.38518192 445.1082084 429.38255819 C418.09132105 429.3724585 391.07449587 429.38080862 364.05761719 429.40405273 C333.67012237 429.43015478 303.28266497 429.44296533 272.89515853 429.43586498 C269.65180318 429.43514898 266.40844783 429.43447458 263.16509247 429.43382454 C262.36655766 429.43365473 261.56802284 429.43348492 260.74529001 429.43330997 C248.71824317 429.43101195 236.69123121 429.43896019 224.6641922 429.45211601 C210.97754625 429.46706095 197.29098174 429.4678255 183.60433748 429.4500451 C175.95656581 429.44051743 168.30898436 429.44184415 160.66122559 429.45927979 C154.93331731 429.47108194 149.20559274 429.46170912 143.47770545 429.44445742 C141.17367166 429.44070972 138.8696146 429.44358347 136.56560162 429.45406907 C96.01449903 429.62537059 60.79868286 415.04176634 31.625 386.9375 C30.93148437 386.30714844 30.23796875 385.67679688 29.5234375 385.02734375 C5.5530975 362.58597605 -10.36174043 326.83173774 -11.47042525 294.12216508 C-11.51175221 291.00077669 -11.52269621 287.88074191 -11.52217102 284.75907898 C-11.52584771 283.56983238 -11.5295244 282.38058577 -11.5333125 281.15530139 C-11.54237082 277.88108521 -11.54703371 274.6068985 -11.54970181 271.332672 C-11.55363259 267.79147064 -11.56320787 264.25028342 -11.57191467 260.70909119 C-11.59158735 252.17776294 -11.60172738 243.64643366 -11.61064246 235.11508843 C-11.61503502 231.09360425 -11.62039879 227.07212136 -11.62563133 223.0506382 C-11.64262411 209.68087252 -11.65712229 196.31110762 -11.66438007 182.94133282 C-11.66628977 179.47968736 -11.66821015 176.01804191 -11.67016602 172.55639648 C-11.67064976 171.69608477 -11.6711335 170.83577305 -11.6716319 169.94939128 C-11.67994803 155.98566688 -11.70532024 142.02202769 -11.73774669 128.05834057 C-11.77078891 113.7124907 -11.78882571 99.36668425 -11.79202431 85.02079612 C-11.79419057 76.96958188 -11.80295771 68.91849243 -11.82848549 60.86731529 C-11.85015257 54.01838041 -11.85826216 47.16960073 -11.84851871 40.32063546 C-11.84396417 36.82624035 -11.84592709 33.33216578 -11.86528015 29.83781433 C-11.88286192 26.05193667 -11.87595996 22.2668797 -11.86274719 18.48100281 C-11.87371644 17.37401321 -11.88468568 16.26702361 -11.89598733 15.12648886 C-11.83320173 7.70734243 -11.83320173 7.70734243 -9.5320158 3.84103107 C-6.22174168 0.91976845 -4.39399034 -0.41240524 0 0 Z " fill="#955539" transform="translate(222.375,633.0625)"/>
<path d="M0 0 C2.35710571 -0.00302546 4.71421043 -0.00691691 7.07131344 -0.01159257 C12.83611133 -0.02076091 18.60085648 -0.0207391 24.36565902 -0.01668095 C31.27998351 -0.01233102 38.19428401 -0.0196343 45.10860401 -0.02717223 C59.43944028 -0.04236764 73.77025881 -0.04412197 88.10110145 -0.0416492 C99.16986145 -0.03981283 110.23861567 -0.04158335 121.30737495 -0.04587364 C122.90053751 -0.04647606 124.49370006 -0.04707725 126.08686261 -0.04767724 C128.4879133 -0.04858455 130.88896398 -0.04949322 133.29001467 -0.0504096 C155.59684648 -0.05883218 177.90367612 -0.06317955 200.2105093 -0.05900288 C201.47041481 -0.05876831 201.47041481 -0.05876831 202.75577295 -0.05852901 C207.01241522 -0.05772329 211.26905747 -0.05687752 215.52569973 -0.05601571 C216.37100695 -0.05584462 217.21631417 -0.05567353 218.08723676 -0.05549726 C219.79664971 -0.0551506 221.50606267 -0.05480207 223.21547562 -0.05445167 C249.81627603 -0.04909402 276.4170433 -0.05702899 303.01783752 -0.07548523 C332.93836757 -0.09622071 362.85887708 -0.10692514 392.77941471 -0.10290974 C395.97216578 -0.10251443 399.16491685 -0.10215287 402.35766792 -0.10181236 C403.53678013 -0.10167627 403.53678013 -0.10167627 404.73971278 -0.10153742 C416.58282579 -0.10037365 428.42591799 -0.10700278 440.2690258 -0.11762428 C453.74305876 -0.12969652 467.21704601 -0.13121182 480.69107967 -0.11883412 C487.56113589 -0.11280474 494.4311108 -0.11143484 501.30116081 -0.12383652 C507.59847063 -0.13471363 513.89561691 -0.13157005 520.19291914 -0.11757483 C522.46256811 -0.114933 524.73222998 -0.11727814 527.00186627 -0.1253107 C568.11005757 -0.26062103 603.71193216 13.65985727 633.39942932 42.26069641 C634.10454651 42.90264954 634.8096637 43.54460266 635.53614807 44.20600891 C660.54777147 67.64489331 675.24966954 104.99660821 676.49412012 138.83551383 C676.53231425 141.431862 676.54238655 144.02658914 676.53987122 146.62321472 C676.5443279 148.09597451 676.5443279 148.09597451 676.54887462 149.59848702 C676.5574771 152.85552795 676.55906256 156.11253178 676.56056213 159.36958313 C676.5651959 161.7177437 676.57022131 164.06590353 676.5756073 166.4140625 C676.58866994 172.76684973 676.59516293 179.11962643 676.59961796 185.47242498 C676.60255552 189.44200245 676.60666136 193.41157708 676.61112213 197.38115311 C676.62329652 208.38419122 676.63360419 219.38722744 676.63699722 230.39027214 C676.63721679 231.09238709 676.63743636 231.79450204 676.63766257 232.5178932 C676.63788085 233.22159937 676.63809913 233.92530555 676.63832402 234.65033615 C676.63876748 236.0761203 676.63921404 237.50190445 676.6396637 238.9276886 C676.63988513 239.63491346 676.64010656 240.34213832 676.6403347 241.07079424 C676.64429086 252.55453052 676.66177792 264.03820368 676.68502322 275.52191554 C676.70872673 287.32752999 676.72119836 299.1331127 676.72236514 310.93875134 C676.72328167 317.56134492 676.72934913 324.18386546 676.74718475 330.80643845 C676.76361369 337.02648682 676.76584618 343.24637792 676.75704575 349.4664402 C676.75627289 351.75095986 676.76065063 354.03548781 676.770504 356.31998634 C676.78314846 359.43354024 676.77738771 362.54653055 676.766922 365.66007996 C676.7749784 366.56794907 676.78303481 367.47581819 676.79133534 368.4111985 C676.75380929 373.17013327 676.53751949 376.41658956 673.39942932 380.26069641 C669.68489701 382.11796257 665.44363507 381.84570731 661.39942932 381.26069641 C658.57518644 379.07046724 656.98434329 377.43052434 655.39942932 374.26069641 C655.3019366 371.20468094 655.26666041 368.17133599 655.27485657 365.11505127 C655.27344642 364.15501255 655.27203627 363.19497383 655.27058339 362.20584303 C655.26691447 358.96752124 655.27027396 355.7292428 655.27345276 352.49092102 C655.27205858 350.17653875 655.27015965 347.86215674 655.26779175 345.54777527 C655.26328481 340.54902886 655.26143843 335.55029067 655.26132965 330.55154228 C655.26018961 322.62633188 655.24741127 314.70116354 655.23176575 306.77597046 C655.22915981 305.4243137 655.22656101 304.07265692 655.22396922 302.72100013 C655.22003029 300.67184318 655.21608378 298.62268623 655.212108 296.57352934 C655.19714978 288.8394525 655.18353629 281.10537391 655.17140198 273.37129211 C655.16973164 272.31068986 655.16973164 272.31068986 655.16802755 271.22866131 C655.15053894 259.82901699 655.14757734 248.42940828 655.14925238 237.02975278 C655.15053919 225.29658972 655.13259285 213.56355728 655.09823442 201.8304444 C655.07957534 195.25511685 655.07033528 188.67999603 655.08271027 182.10464287 C655.09427777 175.89683439 655.08214172 169.68949359 655.05307579 163.48174667 C655.04651764 161.22338641 655.04815721 158.96498217 655.05937386 156.70664024 C655.22761772 119.71176834 644.61894135 84.87395584 618.33692932 58.06929016 C604.09450822 44.12647761 586.63410897 33.9957464 567.71192932 27.88569641 C566.60929749 27.52749817 566.60929749 27.52749817 565.48439026 27.1620636 C551.20261158 22.8241695 536.9978458 22.97315656 522.22172546 23 C519.8618091 22.99697676 517.50189371 22.99308642 515.14198005 22.98840743 C509.3548023 22.97921515 503.56767701 22.97926899 497.78049459 22.98331905 C490.84275074 22.98765885 483.90503096 22.98037497 476.9672916 22.97282777 C462.58587378 22.95761223 448.20447362 22.95588016 433.82304944 22.9583508 C422.71602916 22.96018554 411.60901465 22.95842005 400.50199509 22.95412636 C398.90460679 22.95352395 397.30721849 22.95292275 395.70983019 22.95232276 C393.30254146 22.95141547 390.89525273 22.95050681 388.48796401 22.9495904 C366.11540472 22.94116463 343.7428476 22.93682262 321.37028694 22.94099712 C320.10599756 22.94123169 320.10599756 22.94123169 318.81616699 22.94147099 C314.54450098 22.94227674 310.27283498 22.94312251 306.00116898 22.94398429 C304.72868431 22.94424092 304.72868431 22.94424092 303.43049289 22.94450274 C301.71497937 22.9448494 299.99946586 22.94519793 298.28395235 22.94554833 C271.58984697 22.95090566 244.89577463 22.94297322 218.20167542 22.92451477 C188.19074356 22.90378696 158.17983216 22.89307348 128.16889274 22.89709026 C124.96742686 22.89748559 121.76596097 22.89784714 118.56449509 22.89818764 C117.77624886 22.89827837 116.98800264 22.8983691 116.17587016 22.89846258 C104.2906047 22.89962723 92.40535993 22.89299039 80.52009964 22.88237572 C66.99977076 22.87031288 53.47948741 22.86877732 39.95915784 22.88116588 C33.06317276 22.88720229 26.16726876 22.88854526 19.27128983 22.87616348 C12.95362282 22.86530891 6.63611909 22.86840325 0.31845973 22.88242517 C-1.96202251 22.88507321 -4.24251753 22.88270222 -6.52298723 22.8746893 C-18.60304973 22.83520318 -29.86851139 23.18628823 -41.60057068 26.26069641 C-42.35362736 26.45266198 -43.10668403 26.64462756 -43.88256061 26.84241027 C-74.46356243 35.26527377 -100.776621 55.95695903 -116.48680115 83.29096985 C-116.85434509 83.94097961 -117.22188904 84.59098938 -117.60057068 85.26069641 C-117.94104431 85.8617218 -118.28151794 86.46274719 -118.63230896 87.08198547 C-130.74512465 108.8741029 -133.05876433 131.71707504 -132.96946716 156.21846008 C-132.97194014 158.58558831 -132.97578357 160.95271544 -132.98088074 163.31983948 C-132.98916564 168.38224145 -132.98845699 173.44453072 -132.98069572 178.50693321 C-132.97003562 185.83251064 -132.97857408 193.15795962 -132.99325753 200.48351709 C-133.01693241 212.38230449 -133.03038074 224.28107603 -133.03440857 236.17988586 C-133.03477587 237.24421202 -133.03477587 237.24421202 -133.0351506 238.33003972 C-133.03770092 246.2604168 -133.03826052 254.19079266 -133.03721619 262.12117004 C-133.03688306 265.00597636 -133.03659771 267.89078267 -133.03636169 270.77558899 C-133.03629891 271.48759621 -133.03623612 272.19960342 -133.03617143 272.93318661 C-133.03556664 284.80569874 -133.05043796 296.67813744 -133.07719475 308.55061895 C-133.09438564 316.50967538 -133.09218971 324.46848747 -133.07637203 332.42754686 C-133.07058557 337.36851525 -133.08129485 342.30934617 -133.09661865 347.25028992 C-133.10035168 349.54245245 -133.09721729 351.83463789 -133.08674812 354.12677956 C-133.07341857 357.25295954 -133.08455171 360.37813334 -133.10177612 363.50427246 C-133.09196935 364.41291792 -133.08216257 365.32156337 -133.07205862 366.25774354 C-133.14615458 372.75025112 -134.8230864 376.38743681 -139.41307068 381.13569641 C-142.6657794 382.80851804 -144.99800426 382.70311685 -148.60057068 382.26069641 C-152.14059823 380.0580126 -154.01721915 378.0764672 -155.60057068 374.26069641 C-155.85241967 372.26200348 -155.85241967 372.26200348 -155.85504627 370.11023045 C-155.86087847 369.28616878 -155.86671066 368.46210712 -155.87271959 367.61307389 C-155.8670506 366.26296916 -155.8670506 366.26296916 -155.86126709 364.8855896 C-155.86509264 363.92510332 -155.86891818 362.96461704 -155.87285966 361.97502512 C-155.88320125 358.74735837 -155.87919507 355.51986914 -155.87522888 352.29219055 C-155.87957516 349.98087397 -155.88475802 347.66955884 -155.89071655 345.35824585 C-155.90413845 339.06800094 -155.90468083 332.77781601 -155.90215325 326.48755956 C-155.90094868 320.56226588 -155.90716244 314.6369823 -155.91258671 308.71169167 C-155.92347115 296.23932334 -155.92129763 283.76698202 -155.91520187 271.29461216 C-155.91005241 259.92793235 -155.92123413 248.56133876 -155.94030008 237.19467599 C-155.95976769 225.49768149 -155.96791765 213.80072756 -155.96417683 202.10371679 C-155.96237234 195.54757939 -155.96491475 188.99152062 -155.97889137 182.43539619 C-155.99157718 176.25231593 -155.98942507 170.06940575 -155.97648048 163.88632774 C-155.97413698 161.63272669 -155.97676809 159.37911328 -155.98510361 157.12552643 C-156.13188255 114.30771985 -144.5477953 75.87695426 -114.60057068 44.26069641 C-113.72916443 43.31323547 -112.85775818 42.36577454 -111.95994568 41.38960266 C-97.01539679 25.4923095 -76.59439958 12.43179309 -55.60057068 6.26069641 C-54.4790863 5.91522766 -53.35760193 5.56975891 -52.20213318 5.21382141 C-34.95942636 0.22536535 -17.810162 -0.03262392 0 0 Z " fill="#95573C" transform="translate(366.60057067871094,180.7393035888672)"/>
<path d="M0 0 C0.74121094 -0.02191406 1.48242188 -0.04382813 2.24609375 -0.06640625 C5.76830206 0.88987628 7.25650412 2.78331659 9.5625 5.5625 C10.19018555 8.76953125 10.19018555 8.76953125 10.19921875 12.375 C10.20959671 13.0251709 10.21997467 13.6753418 10.23066711 14.34521484 C10.2602141 16.41818332 10.25701529 18.48936097 10.25 20.5625 C10.13617403 39.80785662 10.13617403 39.80785662 16.1875 57.8125 C16.54376465 58.48869385 16.9000293 59.1648877 17.26708984 59.86157227 C26.4916544 76.78818069 43.17512708 84.86346887 60.5625 91.5625 C62.21064697 92.20505737 62.21064697 92.20505737 63.89208984 92.8605957 C73.81749757 96.68610177 83.87262302 99.92917413 94.03665161 103.05627441 C135.42889003 115.84043997 174.90924575 132.45331856 196.65380859 172.57617188 C220.25193224 217.82463753 212.51996558 273.86876138 206.5625 322.5625 C206.44650452 323.51793701 206.33050903 324.47337402 206.21099854 325.45776367 C204.01722287 343.48418548 201.60195987 361.47855659 198.98857117 379.44888306 C198.43570222 383.25064356 197.88714494 387.05300852 197.33911133 390.85546875 C196.63809803 395.71856029 195.91975709 400.57862071 195.19018555 405.4375 C192.97650062 420.50036964 191.84119075 435.34414156 191.5625 450.5625 C191.52371394 452.2591967 191.48489735 453.95589271 191.44604492 455.65258789 C191.36893138 459.43705166 191.33243407 463.22016764 191.32226562 467.00537109 C191.31567487 468.47807606 191.30183197 469.95076396 191.28125 471.42333984 C191.08187024 485.74441443 193.73960526 498.62842053 197.36694336 512.48388672 C201.19567738 527.18485785 203.90924441 541.89154735 206 556.9375 C206.12533112 557.83796051 206.25066223 558.73842102 206.37979126 559.66616821 C206.73745644 562.26361396 207.08808995 564.86184757 207.43359375 567.4609375 C207.53427155 568.2181459 207.63494934 568.97535431 207.73867798 569.75550842 C208.03040216 572.02278053 208.29978585 574.29169315 208.5625 576.5625 C208.65732666 577.31752808 208.75215332 578.07255615 208.84985352 578.85046387 C209.92394837 588.59029114 209.70695861 598.3872768 209.6953125 608.171875 C209.695988 610.186137 209.69696007 612.20039892 209.69821167 614.21466064 C209.69968111 618.43071267 209.6975611 622.64674343 209.69287109 626.86279297 C209.68721851 632.19732263 209.69042905 637.53180146 209.69644356 642.86632919 C209.70010761 647.02946332 209.69888346 651.19258599 209.69631577 655.35572052 C209.69566021 657.31838233 209.69642541 659.28104526 209.69879532 661.24370575 C209.70877586 671.84384037 209.55846072 682.42089174 209.11669922 693.01269531 C209.07797762 693.96533642 209.03925602 694.91797752 208.99936104 695.89948654 C208.7721919 700.85367211 208.33675114 705.66486349 207.5625 710.5625 C207.44964985 712.34857986 207.36599276 714.13682692 207.31640625 715.92578125 C207.26709961 717.38081055 207.26709961 717.38081055 207.21679688 718.86523438 C207.15595958 720.85992106 207.09862545 722.85471789 207.04492188 724.84960938 C206.45072943 741.78969952 206.45072943 741.78969952 202.70141602 745.30981445 C199.46541226 747.2050245 197.23864568 747.07845027 193.5625 746.5625 C190.625 744.875 190.625 744.875 188.5625 741.5625 C187.78392575 733.46018547 188.70950696 725.08152572 189.13432312 716.95910645 C190.48378297 690.98292295 190.7894566 665.03995822 190.80926514 639.03407669 C190.81246058 636.28392295 190.81955136 633.5338042 190.82763672 630.78366089 C191.27024164 584.22951631 191.27024164 584.22951631 183.1875 538.58203125 C181.08277001 531.10510226 179.58047006 523.50070077 178.02807617 515.89404297 C177.50364827 513.33033488 176.96993995 510.76867822 176.43554688 508.20703125 C173.27389234 492.90913493 171.19336171 478.02927061 171.3125 462.375 C171.31526947 461.65505859 171.31803894 460.93511719 171.32089233 460.19335938 C171.36927954 449.41656165 171.8357195 438.79072554 173.23730469 428.09863281 C173.60744547 425.21197933 173.93407663 422.32190629 174.2578125 419.4296875 C174.50437238 417.2655296 174.75175922 415.10146574 175 412.9375 C175.10997314 411.97263672 175.21994629 411.00777344 175.33325195 410.01367188 C176.04535785 404.06274932 176.95360004 398.16962728 177.97265625 392.265625 C179.86818749 381.20290423 181.20522124 370.07672917 182.5625 358.9375 C182.81214464 356.91011246 183.06214364 354.88276852 183.3125 352.85546875 C183.81132812 348.81250204 184.30874266 344.76936565 184.80493164 340.72607422 C185.59341335 334.3064166 186.38593145 327.88727348 187.18359375 321.46875 C187.30617554 320.47596039 187.42875732 319.48317078 187.55505371 318.46029663 C188.170146 313.52195234 188.83811036 308.60211606 189.625 303.6875 C192.17641206 285.65609205 192.76290707 267.61986821 192.8125 249.4375 C192.82026459 248.13623672 192.82026459 248.13623672 192.82818604 246.8086853 C192.98453891 213.60412733 185.8871795 182.76076758 162.375 157.9375 C139.96945621 136.50105412 108.82691267 127.6996626 79.9831543 118.63793945 C47.99717146 108.55743298 15.25656538 96.86978408 -1.4375 65.5625 C-7.89089435 52.5687969 -8.96128823 38.5261375 -8.88354492 24.26977539 C-8.87486989 21.83853695 -8.90420242 19.4095333 -8.93554688 16.97851562 C-8.93715547 15.41927153 -8.93658793 13.8600233 -8.93359375 12.30078125 C-8.94482773 11.58102615 -8.95606171 10.86127106 -8.96763611 10.1197052 C-8.9195691 6.67629608 -8.6776872 4.87288625 -6.54296875 2.11425781 C-4.14976171 0.35043314 -2.94735683 -0.00510807 0 0 Z " fill="#94553A" transform="translate(719.4375,250.4375)"/>
<path d="M0 0 C3.18845573 0.27174339 4.2010566 0.82153773 7 2.6875 C10.10901827 7.35102741 9.37863783 11.5226575 8.44873047 16.83935547 C7.66431381 20.61426278 6.81560581 24.37109626 5.9375 28.125 C5.70382217 29.1425386 5.70382217 29.1425386 5.46542358 30.18063354 C2.61017079 42.61241333 -0.68262188 54.90051002 -4.25830078 67.14501953 C-4.89943732 69.34277988 -5.53018085 71.54290511 -6.15234375 73.74609375 C-7.46054883 78.37472298 -8.78832769 82.996065 -10.17578125 87.6015625 C-12.98778233 96.96610849 -15.47355866 106.37571515 -17.8046875 115.87109375 C-18.87529645 120.22184791 -20.01611845 124.55045168 -21.1875 128.875 C-24.65402154 141.79440556 -26.78318578 154.74859247 -28.5625 168 C-28.68939209 168.92377441 -28.81628418 169.84754883 -28.94702148 170.79931641 C-34.18587867 210.70881273 -33.30146078 252.46667076 -20 290.6875 C-19.64808594 291.71456055 -19.29617188 292.74162109 -18.93359375 293.79980469 C-13.88558711 308.46896975 -8.42775681 322.96147606 -2.66723633 337.36328125 C-0.53239272 342.70967221 1.53056854 348.04287021 3.30004883 353.52172852 C4.05433619 355.85562569 4.84858889 358.17352784 5.6484375 360.4921875 C18.58041626 398.30392666 25.83366042 437.87813152 26.5 477.875 C26.54568115 479.252323 26.54568115 479.252323 26.59228516 480.6574707 C26.59471685 484.92874444 26.35671883 487.81850986 23.6875 491.2578125 C21 493.6875 21 493.6875 17.5 494.375 C13.02273709 493.49553764 11.79005933 492.27364078 9 488.6875 C8.18796394 485.72486573 8.07302123 482.81048822 7.9609375 479.75 C7.90985336 478.88198761 7.85876923 478.01397522 7.80613708 477.11965942 C7.6989467 475.26832049 7.60178823 473.4163779 7.51382446 471.56402588 C7.32693885 467.69164422 7.08310756 463.8236551 6.83792114 459.95458984 C6.72303181 458.12077865 6.61327791 456.28663527 6.50973511 454.45214844 C4.87623777 426.23339064 -1.72005694 397.35100336 -11 370.6875 C-11.51895844 369.18394627 -12.03783759 367.68036517 -12.55664062 366.17675781 C-16.3607657 355.20137622 -20.35533995 344.31178479 -24.48248291 333.45419312 C-37.62693043 298.81550347 -50.12363531 264.36628718 -50.16796875 226.84375 C-50.17129715 225.83517944 -50.17462555 224.82660889 -50.17805481 223.78747559 C-50.18308778 221.66300915 -50.18546427 219.5385349 -50.18530273 217.4140625 C-50.18747527 214.22381969 -50.20563194 211.03393123 -50.22460938 207.84375 C-50.25820986 195.63246569 -49.63196611 183.78525158 -48 171.6875 C-47.78211547 169.7648101 -47.5679441 167.84169146 -47.359375 165.91796875 C-45.01988811 146.04967402 -41.33690222 126.21174197 -35.34375 107.10546875 C-33.56399124 101.39271278 -32.0897274 95.59666148 -30.5625 89.8125 C-28.549053 82.22748545 -26.44210032 74.70815143 -24 67.25 C-19.3833893 53.03944681 -15.48555991 38.50183562 -12.62109375 23.8359375 C-12.408479 22.74821045 -12.19586426 21.6604834 -11.97680664 20.53979492 C-11.58676515 18.48863555 -11.21375903 16.43413407 -10.86108398 14.3762207 C-9.7367525 8.3771726 -7.74187477 -0.29656375 0 0 Z " fill="#945539" transform="translate(849,503.3125)"/>
<path d="M0 0 C0.66 0 1.32 0 2 0 C2.21615967 1.01199463 2.43231934 2.02398926 2.6550293 3.06665039 C3.47591375 6.89860206 4.30808227 10.72803634 5.14331055 14.55688477 C5.50013091 16.19979523 5.8540747 17.84333367 6.20483398 19.48754883 C8.23701334 29.00303241 10.5872224 38.13988419 13.79199219 47.33422852 C15.25573081 51.77603035 16.39088902 56.26551743 17.48727417 60.80683899 C18.70692694 65.85731402 20.02514229 70.87304012 21.40234375 75.8828125 C21.60796432 76.63260376 21.8135849 77.38239502 22.0254364 78.15490723 C22.4470883 79.69199504 22.86896053 81.22902243 23.29104614 82.76599121 C26.38395936 94.05250357 29.45800387 105.33876686 32.0625 116.75 C32.25384521 117.58031738 32.44519043 118.41063477 32.64233398 119.26611328 C33.64508843 123.80380172 34.28908169 128.27960977 34.75170898 132.90185547 C35.10542485 135.89087626 35.7815732 138.76709507 36.5 141.6875 C38.04225964 148.00305324 39.13496189 153.85342977 39.0625 160.375 C39.05347656 161.43460938 39.04445313 162.49421875 39.03515625 163.5859375 C39.02355469 164.38257813 39.01195312 165.17921875 39 166 C35.51345524 164.5158627 33.35808928 162.53785948 30.75 159.8125 C28.01881555 156.96668554 25.21896154 154.29317621 22.234375 151.71875 C17.80968985 147.88315935 13.64137504 143.82504043 9.5 139.6875 C8.77296875 138.97271484 8.0459375 138.25792969 7.296875 137.52148438 C6.61109375 136.83763672 5.9253125 136.15378906 5.21875 135.44921875 C4.59935547 134.83393311 3.97996094 134.21864746 3.34179688 133.5847168 C2 132 2 132 2 130 C1.34 130 0.68 130 0 130 C-1.25195312 128.72460938 -1.25195312 128.72460938 -2.78125 126.84375 C-6.13147086 122.90394576 -9.67711768 119.23475251 -13.34375 115.59375 C-13.92012207 115.02068115 -14.49649414 114.4476123 -15.09033203 113.85717773 C-16.89161296 112.06947927 -18.69536352 110.28431073 -20.5 108.5 C-34.31732363 94.8383019 -34.31732363 94.8383019 -39.57666016 88.65478516 C-45.23256132 82.07919372 -51.70122471 76.1352146 -58.2734375 70.49609375 C-60.6562393 68.43135825 -62.87147372 66.32807562 -65 64 C-65 63.34 -65 62.68 -65 62 C-63.17053168 60.64461317 -61.28265361 59.36793422 -59.375 58.125 C-49.24074349 51.33928306 -40.06890513 43.35619853 -31.59375 34.59375 C-30 33 -30 33 -27.4375 31 C-24.65877451 28.72002011 -22.48346479 26.20305079 -20.15625 23.47265625 C-17.48806847 20.41294808 -14.71198921 17.4630302 -11.9375 14.5 C-8.53452066 10.86014094 -5.29956832 7.23303308 -2.375 3.1875 C-1.59125 2.135625 -0.8075 1.08375 0 0 Z " fill="#FCFBFB" transform="translate(476,535)"/>
<path d="M0 0 C0 3.42495942 -0.47503219 3.99762987 -2.4921875 6.625 C-3.0274707 7.32608887 -3.56275391 8.02717773 -4.11425781 8.74951172 C-4.69530273 9.49217285 -5.27634766 10.23483398 -5.875 11 C-6.46635742 11.7645752 -7.05771484 12.52915039 -7.66699219 13.31689453 C-11.74570057 18.53689288 -15.99573193 23.48479375 -20.54150391 28.3046875 C-22.7604849 30.73741343 -24.78715331 33.22674355 -26.8125 35.8203125 C-32.62730691 42.96933058 -39.11816965 49.41872419 -45.64892578 55.90966797 C-47.76704183 58.0169547 -49.8741163 60.13486787 -51.98046875 62.25390625 C-53.33529584 63.60741343 -54.69074229 64.96030099 -56.046875 66.3125 C-56.98294586 67.25464355 -56.98294586 67.25464355 -57.93792725 68.21582031 C-62.09238727 72.32598006 -65.54739946 75.60583206 -71.5 76.5625 C-75 76 -75 76 -78 73.4375 C-80 70 -80 70 -80.125 66.4375 C-78.78837689 62.35337383 -77.11208545 60.92413647 -74 58 C-73.10023438 57.14921875 -72.20046875 56.2984375 -71.2734375 55.421875 C-65.67791336 50.26373685 -60.02057693 45.2659114 -54.0859375 40.49609375 C-51.75812556 38.61321802 -49.4554198 36.71149369 -47.1640625 34.78515625 C-32.1390899 22.18960343 -16.20329069 11.01558863 0 0 Z " fill="#94563B" transform="translate(472,864)"/>
<path d="M0 0 C-2.54112255 2.54112255 -4.75177825 3.09520449 -8.16015625 4.2421875 C-8.7774057 4.45065308 -9.39465515 4.65911865 -10.03060913 4.87390137 C-12.03880828 5.54848779 -14.05024437 6.21261949 -16.0625 6.875 C-16.74539093 7.10165344 -17.42828186 7.32830688 -18.13186646 7.56182861 C-27.0192392 10.50523208 -35.87637195 13.2096608 -45.046875 15.13134766 C-48.71737042 15.91684754 -52.3260278 16.86992954 -55.9453125 17.8671875 C-63.37450632 19.88022993 -70.84665702 21.64174267 -78.36401367 23.29248047 C-80.46274983 23.75557143 -82.55840938 24.23123441 -84.65429688 24.70703125 C-97.82483313 27.64527868 -97.82483313 27.64527868 -104 27 C-107.43645091 24.56584727 -108.74510973 23.11224846 -109.6875 19 C-108.89380783 15.53661599 -107.59285972 14.30234956 -104.84448242 12.13720703 C-101.55196408 10.10722021 -98.08652813 9.56618813 -94.3125 8.9375 C-93.44439697 8.78031494 -92.57629395 8.62312988 -91.68188477 8.46118164 C-88.79153655 7.94983769 -85.89687377 7.47288178 -83 7 C-81.51161621 6.74669922 -81.51161621 6.74669922 -79.99316406 6.48828125 C-53.67381874 2.04746561 -26.71644774 -0.83779801 0 0 Z " fill="#95583D" transform="translate(460,837)"/>
<path d="M0 0 C3.02315806 0.54322371 5.32721062 1.86261295 8 3.359375 C9.53327994 4.00467627 11.07606001 4.62762462 12.625 5.234375 C23.08836871 9.34874625 33.36633801 13.80952899 43.5625 18.546875 C44.16917511 18.8287265 44.77585022 19.110578 45.40090942 19.40097046 C60.76528334 26.55399798 75.73222279 34.18906218 90 43.359375 C86.67124987 44.45711855 84.47602853 44.24080244 81.08984375 43.42578125 C80.11499023 43.19358887 79.14013672 42.96139648 78.13574219 42.72216797 C77.08032227 42.45807129 76.02490234 42.19397461 74.9375 41.921875 C73.82407227 41.64746582 72.71064453 41.37305664 71.56347656 41.09033203 C53.02953519 36.43998822 34.82281994 30.68828935 16.63513184 24.85211182 C14.97266938 24.31880278 13.30967025 23.78716355 11.64611816 23.25726318 C9.30613238 22.51022464 6.96913637 21.75449632 4.6328125 20.99609375 C3.93501678 20.77448074 3.23722107 20.55286774 2.51828003 20.32453918 C-6.55961188 17.3484824 -6.55961188 17.3484824 -9.3125 13.546875 C-10.24084633 10.59304576 -10.37765935 8.443593 -10 5.359375 C-7.55015983 0.66384801 -5.30380008 -0.35098677 0 0 Z " fill="#95573C" transform="translate(367,764.640625)"/>
<path d="M0 0 C3.33600367 2.05838525 4.8262176 3.7393264 7 7 C7.54596881 10.39075363 7.54709295 13.60910706 7 17 C4.625 20 4.625 20 2 22 C1.34 22.66 0.68 23.32 0 24 C-4.79088431 24.47908843 -7.06814828 24.48318237 -11.375 22.25 C-15.33720871 18.8538211 -15.87010792 17.34221819 -16.375 12.125 C-16.27061479 7.82111747 -14.76709117 5.32050941 -12 2 C-7.97756025 -0.6816265 -4.72734998 -0.68957829 0 0 Z " fill="#95573C" transform="translate(665,750)"/>
<path d="M0 0 C3.91288936 0.84409679 6.52891077 3.5432161 9.13671875 6.4609375 C10.69616214 9.57982428 10.4198815 12.006352 10.13671875 15.4609375 C8.8453893 18.79296893 7.18664851 21.5984952 4.38671875 23.8984375 C0.17934801 24.95028019 -3.83127456 25.63644244 -7.6796875 23.41015625 C-10.65698147 20.97810166 -12.68235409 19.13673826 -13.1015625 15.25390625 C-13.30282704 8.18846157 -13.30282704 8.18846157 -11.05078125 4.4609375 C-7.43145261 1.15183703 -4.97494019 -0.09195823 0 0 Z " fill="#93553B" transform="translate(661.86328125,585.5390625)"/>
<path d="M0 0 C3.75212276 2.01502889 5.63644095 3.45466142 8 7 C8.67697143 10.7411579 8.82922523 14.43405275 7.01953125 17.8515625 C3.80790091 21.86362993 1.13508282 23.72151094 -3.875 24.375 C-7.87153796 23.89541545 -9.90459308 22.53260567 -13 20 C-15.55503235 15.83172198 -15.83282523 11.76606911 -15 7 C-11.48750012 0.70622698 -6.98225876 -0.96038503 0 0 Z " fill="#94563C" transform="translate(664,641)"/>
<path d="M0 0 C3.90209164 0.92334746 5.69749115 2.64898086 8.41015625 5.5703125 C10.00814658 8.76629315 9.7778918 12.09354006 9.41015625 15.5703125 C7.64965627 19.73991772 5.59546799 21.84159678 1.41015625 23.5703125 C-2.59879815 24.37803159 -5.9873518 24.62010825 -9.50390625 22.31640625 C-12.53220767 19.2235202 -14.00523768 16.40532006 -14.33984375 12.0703125 C-14.00005945 7.76391585 -12.58908368 4.90484788 -9.56640625 1.83203125 C-6.40797612 -0.18412079 -3.67725688 -0.25513396 0 0 Z " fill="#925338" transform="translate(662.58984375,695.4296875)"/>
<path d="M0 0 C4.26167162 1.04696185 7.10237597 2.89407989 9.48046875 6.609375 C10.71007429 11.36667642 9.93480151 14.71693565 7.73046875 19.046875 C4.29101407 22.96403172 2.76778357 23.48677359 -2.45703125 23.984375 C-5.61469723 23.90205224 -6.56642917 23.58082844 -9.39453125 21.859375 C-12.68724774 18.37296931 -13.38732128 16.61747601 -14.01953125 11.796875 C-13.87592823 7.54463015 -12.43709434 4.93860655 -9.4921875 1.91015625 C-6.35306108 -0.15980236 -3.69259592 -0.29049166 0 0 Z " fill="#925339" transform="translate(662.51953125,804.390625)"/>
<path d="M0 0 C3.96265154 0.03396558 4.96018215 0.15763661 8.25 2.625 C8.91 3.5325 9.57 4.44 10.25 5.375 C10.930625 6.2721875 10.930625 6.2721875 11.625 7.1875 C12.62832411 10.69913439 12.326644 13.94064191 11.25 17.375 C8.63010435 20.53231015 6.44075935 23.07371679 2.26171875 23.6484375 C-2.23027315 23.84472622 -4.09969305 23.88982633 -7.75 21 C-10.9323139 16.82321301 -11.1356743 14.02470472 -11.11328125 8.859375 C-10.56933598 5.1394912 -8.66576392 3.57960199 -5.75 1.375 C-4.10843264 -0.26656736 -2.25784199 0.08684008 0 0 Z " fill="#915339" transform="translate(659.75,531.625)"/>
<path d="M0 0 C4.101939 0.01760489 4.95892934 0.14333151 8.3125 2.8125 C8.951875 3.658125 9.59125 4.50375 10.25 5.375 C10.58 5.705 10.91 6.035 11.25 6.375 C11.79396172 11.19039887 11.97490311 15.13230895 9.5 19.375 C6.1579525 22.34570889 4.35093393 23.23228634 -0.125 23.8125 C-4.9353299 23.23194294 -6.36392593 21.76107407 -9.75 18.375 C-11.60598295 14.66303409 -11.34092637 10.41617386 -10.75 6.375 C-8.3125 3.3125 -8.3125 3.3125 -5.75 1.375 C-4.10843264 -0.26656736 -2.25784199 0.08684008 0 0 Z " fill="#96583D" transform="translate(659.75,477.625)"/>
<path d="M0 0 C3.6578218 2.03993908 5.66946174 3.50419262 8 7 C8.42733494 12.29895331 8.51322472 15.73394141 5 20 C0.83800802 22.5025197 -3.25751118 22.99752884 -8 22 C-11.51848066 19.30111836 -13.72859808 15.66718322 -14.4375 11.3125 C-13.82231999 6.6547085 -11.35850176 4.15838378 -8 1 C-5.13391871 -0.43304064 -3.18699217 -0.30644155 0 0 Z " fill="#94553A" transform="translate(663,424)"/>
<path d="M0 0 C0 3.60573896 -0.81707462 4.41336566 -3 7.1875 C-3.556875 7.90292969 -4.11375 8.61835937 -4.6875 9.35546875 C-5.120625 9.89816406 -5.55375 10.44085937 -6 11 C-6.7425 10.814375 -7.485 10.62875 -8.25 10.4375 C-10.94990963 10.00796892 -12.44631077 10.14877026 -15 11 C-10.22276042 7.01896702 -5.11066313 3.53280791 0 0 Z " fill="#965C43" transform="translate(472,864)"/>
<path d="M0 0 C0.66 0.33 1.32 0.66 2 1 C1.03114628 2.68496298 0.03013277 4.35178756 -1 6 C-1.33 6 -1.66 6 -2 6 C-2.33 17.22 -2.66 28.44 -3 40 C-3.33 40 -3.66 40 -4 40 C-4.09897181 34.94634708 -4.17151603 29.89325976 -4.21972656 24.83886719 C-4.23982628 23.12001721 -4.26711089 21.40123548 -4.30175781 19.68261719 C-4.35035034 17.21011511 -4.37298435 14.7385179 -4.390625 12.265625 C-4.41127014 11.49881409 -4.43191528 10.73200317 -4.45318604 9.94195557 C-4.45472777 6.2655396 -4.31786956 4.39515189 -1.97558594 1.48339844 C-1.32364258 0.99387695 -0.67169922 0.50435547 0 0 Z " fill="#9E6850" transform="translate(715,251)"/>
<path d="M0 0 C0.99 0.33 1.98 0.66 3 1 C1.44073252 2.58651682 -0.12256518 4.16907315 -1.6875 5.75 C-2.55761719 6.63171875 -3.42773438 7.5134375 -4.32421875 8.421875 C-6.78002468 10.78805298 -9.30141048 12.91892556 -12 15 C-12 12 -12 12 -9.375 9.08203125 C-8.25750594 7.98449244 -7.13214357 6.89492105 -6 5.8125 C-5.42765625 5.25369141 -4.8553125 4.69488281 -4.265625 4.11914062 C-2.85037212 2.73926907 -1.42602845 1.36873266 0 0 Z " fill="#9C6349" transform="translate(442,547)"/>
<path d="M0 0 C0.33 0 0.66 0 1 0 C1.38063221 2.3260857 1.71269945 4.66055264 2 7 C1.67 7.33 1.34 7.66 1 8 C0.97951095 9.41667169 1.00858732 10.83420627 1.0625 12.25 C1.11581524 15.96429539 0.73323063 18.64186566 -1 22 C-1.33 22 -1.66 22 -2 22 C-1.85895309 19.08302989 -1.71235186 16.1665198 -1.5625 13.25 C-1.50352539 12.0125 -1.50352539 12.0125 -1.44335938 10.75 C-1.40146484 9.95078125 -1.35957031 9.1515625 -1.31640625 8.328125 C-1.27974854 7.5949707 -1.24309082 6.86181641 -1.20532227 6.10644531 C-0.99885215 3.98822395 -0.56867914 2.0480544 0 0 Z " fill="#AE836F" transform="translate(910,547)"/>
<path d="M0 0 C-2.37338238 3.56007358 -3.66190568 3.85110773 -7.625 5.1875 C-8.62789062 5.53167969 -9.63078125 5.87585938 -10.6640625 6.23046875 C-11.43492187 6.48441406 -12.20578125 6.73835938 -13 7 C-13.66 6.34 -14.32 5.68 -15 5 C-13.06891037 3.96709159 -11.129882 2.94901328 -9.1875 1.9375 C-8.10855469 1.36902344 -7.02960937 0.80054688 -5.91796875 0.21484375 C-3 -1 -3 -1 0 0 Z " fill="#9B644B" transform="translate(565,330)"/>
<path d="M0 0 C0.66 0.99 1.32 1.98 2 3 C1.375 5.5625 1.375 5.5625 0 9 C-0.3403125 9.86238281 -0.680625 10.72476563 -1.03125 11.61328125 C-2.00845977 14.08073592 -2.99930946 16.54199315 -4 19 C-5.79341438 14.83326479 -4.01173384 11.25336659 -2.5625 7.25 C-2.19801758 6.20392578 -2.19801758 6.20392578 -1.82617188 5.13671875 C-1.22689752 3.42114902 -0.61470115 1.71010285 0 0 Z " fill="#DFCBC3" transform="translate(513,900)"/>
<path d="M0 0 C0.66 0.99 1.32 1.98 2 3 C1.67 3.66 1.34 4.32 1 5 C0.34 5 -0.32 5 -1 5 C-1.309375 5.94875 -1.61875 6.8975 -1.9375 7.875 C-3 11 -3 11 -4 13 C-4.66 13 -5.32 13 -6 13 C-4.58707905 8.1725201 -2.57025846 4.2837641 0 0 Z " fill="#9E654D" transform="translate(308,541)"/>
<path d="M0 0 C8.19256018 -0.63019694 8.19256018 -0.63019694 11.5625 2 C12.036875 2.66 12.51125 3.32 13 4 C10.42394633 5.28802683 9.28552023 4.84689719 6.5 4.25 C5.7059375 4.09015625 4.911875 3.9303125 4.09375 3.765625 C2 3 2 3 0 0 Z " fill="#A6705A" transform="translate(656,750)"/>
<path d="M0 0 C3 3 3 3 3.07421875 6.57421875 C2.96149977 7.94673808 2.83199844 9.31796172 2.6875 10.6875 C2.62626953 11.38939453 2.56503906 12.09128906 2.50195312 12.81445312 C2.34897376 14.5442967 2.17637398 16.27238497 2 18 C1.67 18 1.34 18 1 18 C0.67 12.06 0.34 6.12 0 0 Z " fill="#AE8470" transform="translate(909,828)"/>
<path d="M0 0 C0.66 0.66 1.32 1.32 2 2 C-1.3 4.31 -4.6 6.62 -8 9 C-8.66 8.67 -9.32 8.34 -10 8 C-6.7 5.36 -3.4 2.72 0 0 Z " fill="#975C41" transform="translate(440,375)"/>
<path d="M0 0 C0.33 0 0.66 0 1 0 C1.33 3.96 1.66 7.92 2 12 C1.34 12 0.68 12 0 12 C0 13.98 0 15.96 0 18 C-0.33 18 -0.66 18 -1 18 C-0.505 9.09 -0.505 9.09 0 0 Z " fill="#A16F58" transform="translate(912,521)"/>
<path d="M0 0 C0 0.66 0 1.32 0 2 C-4.455 3.485 -4.455 3.485 -9 5 C-9.33 4.34 -9.66 3.68 -10 3 C-6.27034861 0.96564469 -4.33094958 0 0 0 Z " fill="#9A5D43" transform="translate(470,360)"/>
<path d="M0 0 C0.66 0 1.32 0 2 0 C0.69386058 3.91841827 -0.83129848 6.32640809 -4 9 C-4.66 9 -5.32 9 -6 9 C-4.4722133 5.56247993 -2.49818944 2.81046312 0 0 Z " fill="#9B6046" transform="translate(389,434)"/>
<path d="M0 0 C-1.66666667 3.33333333 -3.33333333 6.66666667 -5 10 C-5.33 10 -5.66 10 -6 10 C-6.33663062 6.29706315 -6.47736015 4.60465619 -4.125 1.625 C-2 0 -2 0 0 0 Z " fill="#A7725A" transform="translate(357,849)"/>
<path d="M0 0 C0.66 0.66 1.32 1.32 2 2 C-1.5 6.875 -1.5 6.875 -6 8 C-4.02 5.36 -2.04 2.72 0 0 Z " fill="#9A6045" transform="translate(582,312)"/>
<path d="M0 0 C0.66 0.33 1.32 0.66 2 1 C0.35 2.98 -1.3 4.96 -3 7 C-3.99 6.34 -4.98 5.68 -6 5 C-4.02 3.35 -2.04 1.7 0 0 Z " fill="#9D6146" transform="translate(428,896)"/>
<path d="M0 0 C0 3 0 3 -2 5.1875 C-2.66 5.785625 -3.32 6.38375 -4 7 C-4.99 6.34 -5.98 5.68 -7 5 C-4.69 3.35 -2.38 1.7 0 0 Z " fill="#9A634A" transform="translate(472,864)"/>
<path d="M0 0 C1.32 0.66 2.64 1.32 4 2 C2 4 0 6 -2 8 C-1.34 5.36 -0.68 2.72 0 0 Z " fill="#E7D6CF" transform="translate(523,872)"/>
<path d="M0 0 C0.66 0.33 1.32 0.66 2 1 C0.38405168 3.04119788 -1.2856382 5.04072937 -3 7 C-3.66 7 -4.32 7 -5 7 C-3.70700306 4.11562221 -2.34058637 2.12780579 0 0 Z " fill="#9E6349" transform="translate(655,696)"/>
<path d="M0 0 C3.36720387 1.39332574 4.9859524 2.9789286 7 6 C3.75728494 5.4409112 2.06942576 4.5867822 0 2 C0 1.34 0 0.68 0 0 Z " fill="#99624A" transform="translate(500,689)"/>
<path d="M0 0 C0.66 0.33 1.32 0.66 2 1 C0.19587357 4.26460973 -0.83394693 5.88929795 -4 8 C-3.50168276 4.31245243 -2.89932357 2.39509338 0 0 Z " fill="#A36D58" transform="translate(715,251)"/>
</svg>
