<?xml version="1.0" standalone="no"?>
<!DOCTYPE svg PUBLIC "-//W3C//DTD SVG 20010904//EN"
 "http://www.w3.org/TR/2001/REC-SVG-20010904/DTD/svg10.dtd">
<svg version="1.0" xmlns="http://www.w3.org/2000/svg"
 width="1517.000000pt" height="1420.000000pt" viewBox="0 0 1517.000000 1420.000000"
 preserveAspectRatio="xMidYMid meet">

<g transform="translate(0.000000,1420.000000) scale(0.100000,-0.100000)"
fill=" #C38B62" stroke="none">
<path d="M10455 14166 c-444 -88 -793 -503 -910 -1081 -69 -341 -52 -677 50
-989 127 -386 385 -706 679 -841 125 -58 216 -79 346 -79 127 0 213 20 320 74
57 29 168 107 139 97 -128 -42 -164 -50 -259 -54 -75 -4 -124 -1 -171 11 -375
88 -664 506 -743 1075 -21 144 -21 424 -1 556 78 520 404 893 753 862 352 -31
703 -464 823 -1017 76 -348 63 -711 -35 -1000 l-16 -45 25 30 c13 16 45 66 70
110 l45 80 0 -133 c0 -164 18 -260 71 -369 44 -92 135 -219 202 -280 70 -65
279 -217 374 -274 109 -64 231 -118 458 -204 265 -99 383 -162 476 -255 99
-99 191 -251 216 -358 46 -198 -6 -786 -112 -1261 -57 -252 -109 -424 -247
-806 -71 -198 -175 -490 -230 -650 -103 -301 -222 -567 -304 -685 -22 -31 -73
-105 -114 -165 -131 -192 -249 -292 -401 -340 -77 -24 -401 -75 -480 -75 -22
0 -264 48 -538 106 -1599 340 -2514 496 -3351 569 -174 15 -484 35 -549 35
-32 0 -27 4 60 56 188 113 332 241 531 471 131 152 199 243 321 429 134 204
180 290 337 619 252 531 370 842 465 1225 74 295 156 554 213 670 102 207 294
350 772 572 33 16 33 17 9 17 -39 1 -240 -36 -369 -69 -302 -76 -516 -210
-650 -409 -92 -137 -247 -490 -309 -706 -116 -401 -228 -688 -441 -1135 -151
-318 -169 -351 -337 -623 -365 -594 -543 -819 -798 -1007 -152 -112 -135 -107
-340 -114 -216 -7 -431 -28 -655 -62 -1038 -160 -1797 -517 -2127 -1001 -73
-107 -102 -162 -141 -273 -125 -357 -37 -754 243 -1083 135 -160 369 -315 596
-395 174 -61 409 -101 409 -69 0 6 -48 37 -107 67 -182 93 -306 182 -434 309
-167 168 -262 323 -316 517 -23 83 -27 118 -27 219 0 144 23 224 100 355 70
119 235 284 379 379 340 224 828 394 1420 496 778 134 1777 83 3180 -161 524
-91 923 -171 2036 -409 1243 -266 1944 -404 2542 -500 125 -20 233 -35 241
-32 17 7 186 431 175 441 -2 2 -96 18 -209 36 -293 45 -950 166 -1415 260
-220 44 -404 82 -409 83 -5 2 31 11 80 21 181 35 312 112 479 280 315 317 432
516 601 1022 36 110 127 365 201 569 237 651 303 929 378 1595 40 358 32 612
-26 782 -28 84 -60 146 -136 261 -182 277 -380 402 -868 547 -250 75 -320 102
-498 191 -184 93 -268 147 -344 225 -117 120 -157 199 -213 430 l-31 131 36
103 c19 57 48 160 63 229 24 116 26 144 27 361 0 206 -3 249 -23 348 -64 317
-196 583 -388 782 -138 143 -306 245 -481 291 -101 27 -290 34 -388 15z"/>
<path d="M14227 11620 c-10 -40 26 -241 74 -409 28 -95 54 -192 59 -215 4 -22
49 -201 98 -396 206 -813 273 -1184 324 -1785 17 -203 17 -942 0 -1150 -59
-723 -180 -1315 -406 -1980 -280 -827 -734 -1657 -1281 -2340 -740 -923 -1630
-1644 -2680 -2168 -686 -342 -1437 -583 -2215 -711 -446 -74 -771 -99 -1275
-99 -698 0 -1222 63 -1882 224 -1229 300 -2377 902 -3332 1748 -58 51 -240
222 -404 380 -455 436 -836 839 -1200 1269 -48 57 -87 101 -87 99 0 -2 24 -57
54 -123 280 -624 667 -1189 1116 -1633 368 -362 863 -753 1335 -1053 686 -436
1477 -785 2255 -993 1165 -312 2355 -366 3565 -160 1906 324 3676 1353 4927
2865 862 1042 1456 2282 1723 3597 163 801 206 1659 124 2461 -93 920 -268
1560 -595 2184 -113 213 -130 241 -201 317 -24 25 -43 49 -43 52 0 4 -11 14
-24 22 -22 15 -24 15 -29 -3z"/>
<path d="M9480 9468 c0 -2 -20 -83 -44 -179 -86 -338 -119 -557 -136 -899 -22
-424 12 -793 100 -1095 71 -244 257 -699 315 -770 16 -20 16 -20 11 0 -16 56
-88 850 -96 1055 -23 548 -31 670 -59 955 -17 165 -42 442 -56 615 -14 173
-28 316 -31 319 -2 2 -4 2 -4 -1z"/>
<path d="M12157 8957 c-76 -273 -110 -434 -144 -692 -20 -154 -22 -604 -4
-860 14 -185 39 -397 49 -407 9 -9 103 384 137 569 39 211 55 401 55 655 0
307 -31 841 -49 860 -4 4 -23 -52 -44 -125z"/>
<path d="M12607 8630 c-3 -11 -1 -23 4 -26 5 -3 9 6 9 20 0 31 -6 34 -13 6z"/>
<path d="M13301 7528 c-82 -391 -89 -673 -27 -1068 40 -252 112 -571 149 -660
13 -29 15 -18 33 162 26 262 27 731 1 898 -56 372 -122 770 -128 770 -3 0 -16
-46 -28 -102z"/>
<path d="M1785 6083 c-117 -14 -244 -39 -325 -65 -374 -119 -651 -338 -786
-624 -67 -140 -79 -195 -79 -369 0 -129 3 -160 23 -225 134 -429 566 -711
1164 -761 218 -18 474 13 679 80 443 147 780 466 865 818 23 91 22 249 0 333
-23 83 -85 202 -137 260 l-40 45 21 -43 c12 -24 30 -78 41 -119 77 -303 -77
-597 -418 -799 -114 -67 -197 -103 -343 -147 -203 -61 -287 -72 -545 -71 -226
0 -232 1 -350 32 -387 102 -615 326 -615 602 0 155 65 286 219 441 185 187
428 316 741 394 172 42 237 50 440 49 188 -1 268 -10 420 -50 24 -6 24 -6 5 8
-124 89 -358 172 -578 203 -91 13 -323 18 -402 8z"/>
<path d="M9920 4823 c-221 -6 -603 -24 -710 -34 -484 -43 -970 -135 -1475
-280 -158 -46 -447 -140 -442 -145 1 -2 151 3 332 11 182 8 589 23 905 35 316
11 726 27 910 35 184 8 560 19 835 25 540 10 743 19 1185 51 415 29 999 87
1013 99 13 12 -498 90 -873 134 -567 66 -1058 87 -1680 69z"/>
<path d="M6080 4764 c78 -62 223 -212 269 -278 139 -203 203 -435 172 -623
-52 -307 -376 -561 -901 -708 -359 -100 -848 -149 -1266 -127 -381 20 -881 75
-1730 192 -242 33 -456 60 -475 59 -31 -1 -28 -4 46 -39 130 -63 515 -214 725
-284 404 -134 762 -217 1130 -262 209 -25 682 -30 900 -10 323 31 564 73 787
136 561 158 905 431 1025 810 20 65 23 94 22 220 -1 127 -4 156 -28 234 -70
233 -229 441 -441 578 -62 41 -201 110 -245 122 -22 7 -21 4 10 -20z"/>
</g>
</svg>
