<?xml version="1.0" standalone="no"?>
<!DOCTYPE svg PUBLIC "-//W3C//DTD SVG 20010904//EN"
 "http://www.w3.org/TR/2001/REC-SVG-20010904/DTD/svg10.dtd">
<svg version="1.0" xmlns="http://www.w3.org/2000/svg"
 width="920.000000pt" height="2675.000000pt" viewBox="0 0 920.000000 2675.000000"
 preserveAspectRatio="xMidYMid meet">

<g transform="translate(0.000000,2675.000000) scale(0.100000,-0.100000)"
fill="#C38B62" stroke="none">
<path d="M3620 26271 c-57 -60 -72 -65 -217 -69 -145 -5 -273 12 -376 50 -69
25 -114 20 -163 -17 -38 -29 -78 -100 -88 -156 -10 -59 -64 -96 -171 -119 -68
-14 -90 -24 -122 -53 -50 -45 -34 -141 28 -173 25 -12 48 -15 94 -11 l60 6 16
-55 16 -54 -28 -46 c-16 -25 -32 -61 -35 -80 -3 -19 -13 -52 -22 -72 -13 -30
-16 -76 -17 -237 -1 -214 -8 -255 -71 -435 -35 -102 -43 -231 -19 -320 10 -36
21 -105 25 -155 4 -49 13 -117 20 -150 18 -92 -8 -233 -71 -370 -38 -84 -49
-198 -26 -264 11 -30 13 -51 6 -68 -16 -43 -10 -98 17 -149 104 -193 96 -170
91 -269 -4 -70 -12 -108 -37 -170 -33 -83 -43 -183 -23 -220 6 -11 6 -30 0
-55 -9 -30 -6 -54 13 -124 12 -47 29 -91 36 -97 31 -25 36 -86 15 -167 -14
-56 -20 -119 -23 -234 -2 -117 -6 -158 -15 -158 -9 0 -6 -10 7 -32 17 -28 17
-34 4 -52 -26 -38 -17 -72 34 -129 37 -41 57 -75 81 -143 40 -109 47 -188 28
-319 -21 -143 -17 -247 11 -285 12 -16 22 -44 22 -62 1 -49 31 -105 98 -182
85 -96 97 -124 93 -221 -2 -44 -3 -98 -4 -120 0 -22 -5 -43 -10 -46 -22 -15
-18 -96 7 -190 14 -52 26 -110 26 -129 0 -20 15 -67 33 -105 47 -98 55 -127
61 -233 3 -51 9 -98 13 -105 4 -7 10 -37 14 -67 4 -39 27 -98 73 -194 62 -128
67 -146 76 -231 4 -51 15 -106 24 -123 14 -28 14 -31 -4 -47 -23 -21 -25 -62
-5 -89 8 -11 12 -29 9 -42 -8 -30 19 -77 61 -110 72 -55 98 -127 110 -309 4
-66 13 -104 30 -141 14 -28 25 -57 25 -64 0 -7 14 -39 31 -71 25 -46 30 -65
25 -93 -7 -35 -3 -46 67 -169 15 -27 17 -56 16 -187 0 -85 1 -200 3 -255 4
-109 14 -137 109 -303 66 -116 89 -197 100 -357 6 -77 14 -150 19 -162 6 -15
5 -25 -6 -33 -23 -20 -16 -76 17 -142 36 -72 52 -144 74 -334 16 -140 16 -141
-5 -182 -19 -37 -21 -51 -15 -119 5 -53 17 -100 38 -148 42 -96 43 -184 2
-270 -24 -50 -29 -74 -30 -148 -1 -48 -5 -90 -8 -94 -12 -11 -8 -163 4 -186 7
-12 25 -37 40 -55 83 -95 79 -372 -6 -518 -14 -23 -25 -54 -25 -69 0 -14 -9
-38 -21 -54 -24 -32 -37 -128 -21 -157 6 -13 5 -45 -4 -99 -13 -70 -13 -86 1
-127 28 -86 19 -203 -23 -283 -8 -16 -16 -51 -17 -76 -2 -25 -11 -61 -21 -80
-17 -30 -19 -59 -19 -244 l-1 -210 -42 -165 c-24 -91 -45 -193 -47 -227 -3
-44 -11 -73 -29 -102 -14 -22 -26 -46 -26 -53 0 -7 -7 -22 -15 -32 -11 -14
-15 -46 -15 -110 0 -119 -35 -247 -87 -325 -21 -30 -46 -62 -56 -71 -23 -20
-53 -110 -62 -185 -4 -33 -15 -68 -23 -78 -12 -13 -18 -51 -23 -135 -4 -64
-14 -136 -23 -160 -17 -47 -62 -117 -96 -147 -32 -29 -50 -69 -50 -110 0 -20
-7 -49 -15 -65 -8 -15 -17 -66 -21 -112 -3 -46 -8 -90 -11 -98 -14 -38 -19
-153 -11 -224 13 -104 2 -156 -79 -369 -35 -93 -63 -175 -63 -182 0 -8 -31
-47 -69 -88 -67 -72 -68 -75 -79 -149 -7 -42 -18 -96 -27 -121 -22 -67 -33
-132 -45 -272 -11 -138 -32 -196 -109 -300 -45 -60 -86 -131 -96 -164 -4 -14
-15 -33 -25 -43 -25 -27 -38 -87 -46 -208 -3 -58 -12 -117 -20 -132 -18 -34
-18 -75 0 -126 20 -57 26 -122 16 -189 -8 -57 -19 -84 -120 -298 -49 -104 -58
-142 -51 -210 1 -11 -5 -45 -14 -75 -12 -39 -15 -75 -10 -126 4 -48 1 -89 -10
-131 -14 -54 -14 -70 0 -159 35 -219 40 -305 22 -375 -37 -141 -44 -160 -68
-186 -52 -57 -61 -111 -30 -179 13 -29 16 -46 9 -58 -6 -11 -9 -85 -7 -179 l4
-162 45 -95 45 -94 -2 -151 c-2 -190 -17 -342 -36 -364 -51 -58 -62 -143 -23
-188 22 -26 23 -29 8 -51 -23 -36 -4 -128 49 -237 37 -76 50 -93 81 -108 30
-15 40 -27 49 -60 14 -54 28 -69 124 -132 135 -89 199 -155 258 -264 37 -67
43 -110 36 -246 -4 -71 -7 -178 -8 -237 -1 -104 1 -112 39 -205 35 -87 46
-105 102 -156 35 -32 96 -79 136 -105 41 -26 101 -67 133 -92 110 -83 120 -89
177 -100 128 -23 220 -99 306 -248 51 -87 165 -217 222 -252 22 -14 34 -29 34
-44 0 -12 15 -37 34 -55 19 -19 44 -56 56 -84 20 -46 22 -61 15 -164 l-7 -114
34 -52 c19 -29 41 -69 48 -91 17 -54 5 -220 -25 -316 -13 -41 -26 -95 -29
-120 -4 -30 -18 -60 -41 -88 -37 -47 -55 -111 -55 -196 0 -73 -33 -140 -106
-218 -66 -71 -87 -119 -105 -237 -18 -123 12 -181 94 -181 53 0 87 20 127 77
19 26 50 68 71 93 20 25 52 79 72 120 20 41 75 125 122 185 48 61 110 144 140
185 29 41 88 113 131 160 172 190 204 244 212 366 4 65 0 96 -17 153 -13 44
-19 81 -15 98 9 39 69 115 157 199 101 97 115 133 99 260 -7 56 -30 147 -58
231 -42 127 -45 143 -40 208 25 292 25 291 -73 400 -69 76 -77 110 -49 214 37
138 42 177 29 234 -18 80 -57 126 -150 176 -44 24 -89 54 -101 66 -28 30 -39
81 -40 176 0 81 -28 207 -61 271 -33 64 -88 111 -169 144 -57 23 -76 36 -81
55 -4 13 -7 88 -8 165 -1 155 -1 154 60 154 16 0 73 -12 126 -26 139 -36 284
-38 370 -5 96 36 135 84 162 200 23 102 28 239 10 320 -15 69 -53 118 -163
206 -52 41 -116 100 -143 131 -61 72 -231 214 -258 215 -11 1 -26 1 -32 0 -8
-1 -13 11 -13 34 0 29 5 37 25 45 38 15 97 -2 168 -48 60 -39 160 -72 215 -72
48 1 105 37 189 118 71 69 84 88 99 138 44 148 3 371 -88 484 -63 78 -88 90
-185 90 -90 0 -134 17 -213 79 -29 23 -63 44 -76 47 -22 6 -24 11 -24 68 0 41
-6 74 -19 99 -16 31 -17 45 -10 75 36 136 85 135 199 -2 69 -83 110 -106 190
-106 99 0 194 54 253 143 54 82 70 145 64 246 -13 227 -117 316 -382 330 -138
8 -142 10 -195 89 -27 41 -29 49 -23 105 6 54 52 166 84 201 4 5 17 -12 30
-38 39 -84 180 -189 292 -217 64 -16 94 -2 151 72 30 38 62 67 95 84 60 30 94
73 120 148 36 103 36 147 2 246 -17 49 -31 95 -31 103 0 8 -13 35 -29 60 -26
40 -43 53 -118 89 -48 22 -111 57 -140 75 -82 54 -248 117 -288 110 l-33 -6 5
47 c7 82 10 87 67 116 71 37 140 111 178 192 16 36 31 65 33 65 2 0 35 -42 74
-94 110 -146 198 -191 292 -148 77 34 108 90 109 197 0 33 12 110 26 170 55
235 58 228 -151 329 l-156 75 -20 48 c-11 26 -29 67 -40 90 -25 50 -21 61 59
148 88 96 116 130 128 150 17 30 53 12 140 -74 70 -69 87 -80 126 -86 81 -12
132 30 167 138 36 110 36 134 1 225 -56 145 -98 191 -280 301 -36 22 -83 58
-105 81 -38 39 -40 44 -40 106 l0 66 45 -7 c97 -14 121 -25 191 -91 38 -36 85
-72 104 -80 90 -37 179 2 219 97 11 27 15 75 15 180 1 175 -2 180 -131 234
-94 40 -165 93 -170 128 -2 12 6 51 18 87 13 36 26 83 30 106 l6 41 72 -29
c53 -22 81 -40 110 -74 45 -53 82 -74 131 -74 99 0 155 87 133 206 -11 59 -10
67 12 113 36 78 26 105 -76 197 -137 125 -212 267 -201 382 4 47 41 147 63
171 10 11 88 -78 106 -119 11 -25 27 -53 35 -62 8 -9 19 -36 24 -60 13 -56 32
-84 71 -104 95 -49 189 75 158 208 -7 29 -35 103 -62 164 -41 94 -48 121 -48
174 0 52 -4 69 -25 96 -28 36 -85 152 -85 171 0 7 -16 49 -36 93 -27 61 -33
85 -24 95 15 19 73 41 77 29 23 -68 100 -125 177 -132 51 -4 56 -2 96 34 55
50 80 104 80 174 0 85 -26 128 -164 269 -119 123 -125 131 -145 199 -12 39
-37 92 -56 119 -44 60 -61 97 -69 148 l-6 40 85 39 84 39 20 -24 c11 -13 51
-73 88 -133 37 -59 78 -115 91 -124 24 -15 26 -15 49 13 41 49 72 126 78 195
3 36 2 142 -3 236 -10 209 -15 220 -138 300 -116 77 -171 141 -243 283 -71
143 -76 158 -61 176 10 13 15 11 32 -10 11 -14 43 -32 74 -42 62 -19 178 -110
213 -167 50 -80 132 -128 194 -112 64 16 116 95 117 176 0 110 -47 226 -158
383 -130 185 -173 254 -196 320 -35 99 -123 205 -241 289 -27 20 -60 47 -73
60 l-22 25 47 -9 c27 -4 66 -11 88 -14 41 -6 74 -34 158 -137 45 -55 76 -66
123 -44 42 21 52 54 47 172 -4 109 -16 159 -58 245 -18 36 -37 88 -44 115 -20
81 -54 129 -120 169 -32 20 -67 48 -77 64 -10 15 -44 57 -75 94 -66 77 -72 86
-134 232 -43 102 -57 173 -37 202 39 58 137 23 352 -127 103 -71 143 -89 200
-89 71 0 86 33 89 203 2 103 -20 223 -50 272 -10 17 -36 67 -58 111 -48 98
-82 129 -158 145 -132 27 -180 42 -218 66 -49 32 -203 161 -213 179 -4 7 -49
58 -101 113 -86 92 -141 167 -141 194 0 6 7 18 16 28 14 16 19 16 47 4 18 -7
59 -20 92 -28 117 -28 342 -113 381 -144 48 -37 69 -45 100 -37 23 6 24 10 24
89 0 46 7 114 16 152 33 140 1 256 -95 346 -60 57 -117 89 -257 147 -82 35
-138 66 -194 110 -115 88 -186 118 -345 144 -74 13 -140 28 -148 35 -8 6 -17
30 -21 52 -4 23 -16 59 -27 81 -14 27 -19 54 -17 86 3 47 3 47 38 46 41 -1
221 -20 330 -35 89 -13 232 -59 315 -103 32 -17 92 -61 131 -98 82 -75 126
-92 169 -64 13 9 30 26 37 38 16 31 14 129 -4 164 -9 16 -29 54 -46 84 -28 51
-40 84 -86 243 -38 130 -138 183 -386 202 -47 4 -139 18 -205 31 -66 13 -145
29 -175 35 -30 6 -84 26 -120 44 -36 18 -109 47 -164 65 -54 18 -107 41 -117
51 -27 27 -23 66 13 126 l33 54 65 -2 c36 -1 119 -10 185 -21 119 -19 170 -19
376 -2 69 5 82 3 153 -25 94 -38 116 -38 155 -6 64 54 62 126 -6 278 -95 211
-167 270 -307 252 -33 -5 -88 -9 -121 -9 -54 -1 -67 3 -130 42 -38 24 -101 52
-140 63 -38 11 -110 32 -159 46 -84 25 -95 25 -210 17 -135 -10 -290 -4 -351
14 -64 19 -179 98 -187 129 -4 15 -6 28 -4 30 2 2 20 -4 42 -13 24 -10 89 -19
174 -24 74 -5 189 -12 255 -17 189 -12 248 -9 290 16 27 16 53 21 104 21 59 0
73 4 109 29 25 19 44 43 52 65 19 58 0 95 -80 159 -102 83 -107 85 -256 127
-118 33 -142 43 -164 69 -14 17 -46 40 -73 51 -59 26 -329 90 -380 90 -51 0
-92 -23 -109 -60 -21 -49 -67 -41 -178 30 -30 19 -65 45 -78 58 -12 12 -36 25
-52 29 -37 7 -38 20 -1 70 63 86 151 89 238 7 l48 -46 55 8 c68 9 79 9 270 -6
202 -16 197 -16 234 11 26 20 48 25 136 30 58 4 106 7 107 8 1 1 10 15 19 33
25 48 14 117 -33 207 -43 83 -78 115 -140 125 -21 4 -106 23 -189 42 -144 33
-155 38 -203 79 -95 81 -195 95 -281 40 -78 -51 -119 -51 -195 -1 -59 39 -131
76 -163 85 l-23 6 31 48 c41 65 89 86 196 87 44 0 103 -7 130 -15 116 -34 253
-66 362 -85 64 -11 155 -29 200 -39 172 -39 292 2 292 100 0 34 -7 48 -48 92
-26 29 -65 73 -86 100 -42 52 -77 73 -181 107 -87 28 -152 61 -232 116 -49 33
-84 47 -155 64 -51 12 -120 33 -153 46 -33 14 -105 41 -160 60 -55 19 -124 51
-153 70 -29 20 -67 40 -85 43 -32 7 -32 8 -35 70 -4 71 4 75 40 21 32 -48 61
-49 142 -4 81 44 98 43 228 -17 71 -33 109 -44 177 -51 66 -7 95 -15 123 -35
65 -44 144 -48 234 -12 16 6 75 15 130 19 133 11 177 33 188 95 5 26 -1 37
-53 85 -36 34 -68 76 -85 112 -39 83 -104 130 -236 173 -30 10 -94 37 -142 61
-48 24 -93 44 -99 44 -6 0 -47 16 -90 36 -114 51 -172 49 -242 -11 -21 -18
-46 -35 -55 -37 -35 -9 -80 13 -135 67 -30 30 -60 55 -65 55 -15 0 -2 191 14
218 8 12 32 34 54 48 35 23 47 26 109 22 52 -3 78 -9 100 -26 16 -12 49 -26
73 -32 54 -12 142 -48 189 -77 20 -13 79 -34 132 -48 54 -15 112 -32 130 -40
79 -33 196 35 227 131 17 49 6 196 -18 244 -22 44 -77 81 -267 176 -146 72
-242 105 -350 118 -124 14 -147 24 -226 91 -30 25 -64 48 -76 51 -28 7 -29 18
-3 59 33 54 106 61 160 16 50 -40 79 -53 224 -101 155 -50 194 -69 251 -121
51 -47 188 -109 239 -109 55 0 91 39 82 88 -20 112 -19 137 7 189 34 66 39 98
23 138 -19 44 -73 85 -184 140 -60 30 -118 69 -160 107 -123 112 -226 167
-360 194 -61 13 -86 24 -122 53 -25 21 -54 43 -65 48 -34 18 -240 83 -263 83
-18 0 -22 6 -22 30 0 17 -7 47 -15 67 -14 34 -14 38 5 58 12 13 37 25 55 28
35 6 150 -18 260 -53 33 -10 87 -26 120 -35 53 -15 68 -26 132 -92 67 -71 75
-76 120 -80 36 -3 56 1 80 16 50 31 65 64 73 151 6 64 12 88 36 121 69 100 -2
219 -160 268 -34 10 -88 31 -121 46 -33 15 -113 49 -178 76 -220 91 -220 92
-246 194 -25 96 -77 113 -141 46z m80 -63 c18 -70 42 -118 69 -137 14 -10 78
-39 141 -66 63 -26 158 -67 210 -91 53 -23 126 -52 163 -64 73 -24 119 -56
142 -100 15 -29 11 -40 -30 -103 -11 -18 -21 -57 -25 -109 -6 -72 -11 -85 -34
-105 -42 -36 -63 -29 -125 37 -71 79 -103 97 -225 132 -279 80 -315 86 -393
63 -21 -7 -22 -5 -16 31 9 59 69 222 98 266 l25 38 -26 12 c-24 11 -29 10 -50
-17 -51 -63 -113 -266 -114 -367 0 -39 -5 -50 -30 -71 -39 -33 -113 -48 -247
-50 -79 -1 -122 3 -158 16 -27 9 -82 21 -121 26 -70 9 -114 24 -114 40 0 4
-18 18 -41 30 -44 25 -69 69 -47 83 7 4 25 8 41 8 24 0 27 4 27 31 l0 32 -47
-6 c-33 -3 -54 0 -70 10 -18 12 -38 14 -83 9 -66 -8 -95 2 -103 34 -9 36 23
60 105 79 130 31 193 80 218 170 16 60 55 120 87 132 20 7 40 5 82 -10 56 -19
176 -44 278 -56 l51 -7 -27 -46 c-32 -54 -44 -60 -68 -33 -18 22 -73 29 -73
10 0 -17 22 -52 44 -71 27 -22 69 -23 102 -1 32 20 68 89 53 99 -8 4 -7 9 2
15 11 8 11 12 -4 23 -15 12 -4 14 85 18 114 4 167 24 207 79 12 16 24 29 26
29 2 0 9 -19 15 -42z m-944 -679 c31 -35 113 -66 249 -95 105 -22 146 -25 244
-23 114 4 120 5 199 45 l82 40 0 -36 c0 -64 -32 -92 -162 -136 -68 -23 -242
-49 -305 -46 -43 3 -137 41 -252 105 -114 63 -125 77 -104 130 18 43 23 45 49
16z m-71 -159 c4 -6 79 -47 167 -90 113 -57 172 -80 198 -80 46 0 243 27 292
41 61 16 168 67 208 99 21 17 46 30 57 30 10 0 72 -18 136 -39 89 -30 128 -49
165 -80 40 -34 64 -45 151 -66 146 -36 219 -77 337 -186 40 -38 93 -72 155
-102 112 -54 169 -99 169 -132 0 -13 -11 -47 -25 -77 -26 -56 -33 -136 -15
-182 5 -14 7 -33 4 -41 -7 -16 -44 -20 -60 -6 -5 4 -31 16 -57 26 -27 10 -79
44 -116 75 -63 53 -80 61 -235 113 -93 31 -178 63 -189 72 -88 65 -89 65 -146
65 -85 0 -119 -22 -162 -105 -21 -38 -47 -95 -59 -127 -35 -90 -53 -102 -169
-106 -96 -4 -98 -4 -132 25 -47 40 -82 53 -142 53 -81 -1 -264 -27 -341 -51
-143 -42 -202 -62 -248 -85 -27 -12 -50 -19 -52 -15 -13 21 -28 151 -22 200 3
31 22 106 41 166 38 116 65 238 65 293 0 32 1 31 108 -73 107 -107 237 -211
367 -297 39 -25 81 -57 94 -72 36 -38 79 -35 124 9 53 51 64 79 69 175 4 68
13 103 43 179 38 92 127 241 145 241 9 0 40 51 40 65 0 13 -50 3 -74 -16 -99
-78 -216 -331 -216 -467 0 -49 -5 -76 -20 -99 -26 -43 -54 -58 -71 -36 -8 8
-59 46 -114 83 -56 37 -135 95 -177 129 -79 63 -264 243 -285 277 -10 15 -14
16 -21 6 -6 -9 -11 13 -14 65 -7 121 4 180 27 143z m1085 -780 c5 0 32 -21 62
-46 74 -64 117 -83 211 -96 145 -18 252 -54 411 -136 193 -100 212 -117 221
-205 10 -91 0 -134 -39 -173 -43 -43 -77 -51 -135 -31 -25 9 -81 25 -124 37
-43 11 -89 27 -101 36 -32 20 -186 84 -205 84 -8 0 -33 11 -55 24 -80 46 -189
55 -258 20 -15 -8 -29 -14 -33 -14 -15 0 -2 65 19 98 48 73 42 114 -26 179
-37 35 -76 48 -69 23 2 -8 5 -22 5 -31 1 -10 17 -34 35 -54 32 -36 32 -37 14
-63 -29 -44 -53 -95 -53 -112 1 -8 7 -31 14 -50 10 -31 10 -40 -6 -65 -12 -21
-18 -50 -18 -95 0 -113 -17 -155 -103 -257 -122 -145 -193 -167 -237 -73 -33
70 -67 85 -184 77 -106 -8 -215 -36 -416 -107 -198 -71 -187 -70 -196 -25 -10
55 4 130 37 204 47 102 80 244 78 326 l-2 70 69 7 c38 3 116 23 174 43 58 20
157 50 220 66 106 28 259 96 298 134 10 9 37 11 96 8 70 -5 88 -2 123 15 51
26 96 80 113 135 18 57 20 59 37 53 8 -3 18 -6 23 -6z m-466 -131 c14 -11 26
-24 26 -29 0 -17 -180 -100 -249 -115 -39 -8 -132 -35 -207 -60 -145 -49 -253
-70 -259 -51 -24 72 -26 98 -8 118 26 29 80 55 164 77 41 11 94 27 119 36 73
27 178 43 286 44 88 1 105 -2 128 -20z m496 -854 c69 -36 132 -28 186 23 53
51 94 54 179 14 33 -16 78 -35 100 -42 22 -7 71 -28 108 -47 37 -18 106 -47
152 -64 117 -42 158 -75 193 -151 20 -44 43 -75 75 -101 26 -21 47 -42 47 -47
0 -19 -46 -32 -130 -36 -51 -2 -111 -12 -145 -24 -75 -26 -135 -26 -167 0 -38
29 -75 41 -163 50 -62 7 -100 18 -170 51 -77 37 -99 43 -155 44 -58 0 -72 -4
-115 -33 -45 -29 -51 -30 -60 -15 -40 68 -97 91 -135 53 -20 -20 -21 -30 -16
-183 2 -89 10 -188 17 -220 11 -52 10 -59 -6 -77 -15 -17 -31 -20 -96 -20
l-77 0 -26 44 c-37 63 -71 73 -149 44 -41 -15 -77 -38 -111 -71 -75 -72 -92
-77 -258 -75 -127 2 -149 0 -198 -20 -30 -12 -67 -33 -83 -47 -23 -22 -28 -24
-33 -10 -12 30 4 120 31 185 39 93 47 250 16 329 -11 30 -20 56 -18 57 1 1 48
16 104 32 123 37 176 60 245 106 30 19 103 55 163 81 61 25 119 54 129 65 19
18 19 18 46 -2 43 -31 107 -34 169 -8 42 19 63 37 106 94 29 39 67 86 85 105
l31 34 51 -52 c28 -29 63 -58 78 -66z m-590 -28 c0 -27 -35 -49 -151 -95 -43
-17 -115 -54 -160 -83 -62 -39 -114 -62 -199 -87 -171 -51 -155 -51 -175 2
-35 90 -3 121 202 190 210 72 300 93 411 95 69 1 72 0 72 -22z m512 -572 c28
-21 90 -49 161 -74 64 -22 129 -47 146 -55 16 -9 76 -28 133 -42 111 -29 126
-35 243 -106 43 -26 112 -59 154 -73 139 -49 151 -56 206 -125 29 -36 64 -76
79 -89 82 -76 -49 -118 -229 -73 -44 11 -114 26 -155 32 -67 11 -295 64 -377
89 -61 18 -159 23 -216 11 -160 -33 -237 -171 -237 -425 0 -121 -8 -148 -52
-176 -27 -16 -46 -19 -104 -17 -68 3 -74 5 -117 45 -25 23 -58 45 -72 49 -45
11 -127 -4 -185 -34 -30 -16 -102 -55 -160 -85 -58 -31 -114 -56 -125 -57 -11
0 -37 -11 -58 -25 -21 -15 -58 -28 -86 -32 -49 -5 -49 -5 -60 30 -7 20 -9 51
-6 69 3 18 7 87 9 153 2 82 9 137 21 173 12 36 16 68 12 100 -5 46 -5 48 21
50 15 1 54 15 87 31 33 16 103 50 155 76 52 25 119 59 148 76 29 17 81 39 115
48 34 10 103 39 154 64 l91 46 -34 -52 c-19 -29 -39 -70 -45 -92 -17 -60 -5
-162 25 -219 36 -69 32 -120 -12 -164 -19 -19 -19 -20 -1 -43 l18 -24 26 25
c62 58 70 154 21 246 -30 56 -33 116 -11 179 8 22 15 56 15 76 0 20 3 51 6 68
6 31 7 31 70 31 35 0 81 7 103 16 74 29 87 78 56 222 -15 72 -11 112 10 112 7
0 32 -16 57 -35z m-408 -210 c32 -15 71 -68 62 -83 -10 -16 -152 -81 -231
-106 -44 -14 -107 -42 -140 -62 -77 -47 -86 -52 -231 -119 -151 -70 -165 -69
-188 15 -21 75 -9 108 59 168 54 47 46 46 250 47 164 1 193 10 270 84 77 75
95 81 149 56z m459 -576 c23 -12 66 -37 95 -56 104 -66 167 -67 265 -2 45 30
48 30 102 19 40 -8 68 -22 102 -52 25 -22 58 -44 72 -50 34 -13 185 -52 286
-73 44 -9 90 -20 102 -25 29 -12 92 -126 99 -183 8 -54 7 -55 -121 -59 -66 -2
-86 -7 -114 -27 -32 -23 -36 -24 -115 -13 -98 14 -343 20 -372 9 -16 -6 -29 1
-57 28 -129 126 -297 82 -371 -95 -19 -46 -36 -158 -45 -290 -7 -114 -30 -174
-82 -212 -35 -26 -126 -34 -159 -14 -71 43 -112 57 -149 51 -59 -10 -295 -166
-416 -276 -79 -72 -138 -83 -153 -30 -10 38 -7 135 8 240 17 117 9 227 -23
314 l-25 67 68 0 c81 0 121 18 280 130 58 41 161 102 229 137 117 59 127 62
165 53 62 -14 133 -12 167 6 21 10 38 33 54 67 l23 52 7 -49 c6 -38 3 -67 -14
-123 -28 -95 -27 -103 7 -103 26 0 30 5 46 55 25 79 30 146 16 203 -14 61 -33
82 -49 55 -14 -24 -15 205 -1 241 12 32 19 32 73 5z m-483 -327 c18 -11 36
-24 38 -31 2 -6 -33 -28 -82 -51 -47 -22 -156 -88 -243 -147 l-158 -108 -81
-3 -81 -4 -45 48 c-49 52 -52 74 -9 74 45 0 181 45 256 85 39 21 108 58 155
83 145 77 189 86 250 54z m557 -360 c10 -11 50 -39 88 -64 124 -80 206 -94
243 -41 33 47 52 63 79 63 25 0 78 -12 263 -57 79 -19 131 -45 147 -72 19 -30
60 -48 190 -82 137 -36 138 -36 226 -108 77 -63 87 -94 41 -130 -21 -17 -41
-21 -97 -21 -54 0 -78 -5 -104 -21 -35 -22 -35 -22 -316 -9 -295 14 -326 18
-446 69 -80 34 -145 40 -189 17 -35 -19 -83 -70 -97 -103 -11 -26 -11 -25 -33
31 -12 32 -22 73 -22 92 0 31 -3 34 -30 34 -29 0 -30 -2 -30 -45 0 -45 45
-175 60 -175 5 0 12 5 15 10 18 29 22 -5 20 -153 -4 -181 -21 -251 -73 -299
-70 -65 -125 -77 -237 -48 -79 20 -148 25 -201 14 -16 -3 -83 -44 -149 -90
-124 -88 -214 -140 -217 -127 -1 5 -2 60 -3 123 -1 128 -9 155 -71 235 -30 40
-34 50 -22 59 8 6 41 32 73 57 33 25 92 62 130 82 76 40 276 182 339 242 37
34 43 36 112 38 97 3 145 35 191 127 29 57 33 75 33 144 0 106 28 226 52 226
9 0 25 -8 35 -18z m-463 -435 c24 -17 13 -39 -35 -68 -22 -13 -68 -46 -102
-73 -72 -56 -176 -125 -227 -149 -19 -9 -67 -41 -106 -70 l-71 -54 -31 38 -32
38 53 24 c28 14 95 61 147 106 91 79 197 147 304 197 58 27 75 29 100 11z
m723 -83 c35 -14 43 -22 43 -41 0 -20 -4 -24 -17 -18 -50 21 -120 26 -163 11
l-45 -15 42 39 c48 45 73 49 140 24z m11 -124 c28 -13 42 -25 42 -38 0 -11 7
-39 16 -63 19 -55 20 -114 3 -135 -12 -14 -28 -16 -106 -10 l-93 6 0 -28 c0
-26 4 -30 38 -36 65 -10 152 -7 181 9 25 13 36 30 55 88 6 17 -5 83 -20 121
-5 14 3 12 44 -11 50 -27 52 -29 51 -73 0 -76 -28 -131 -84 -167 -43 -29 -74
-63 -75 -85 -1 -20 54 -4 107 31 69 47 102 105 111 194 l5 57 31 -4 c96 -15
160 -16 274 -6 l127 11 150 -41 c113 -31 170 -52 230 -87 67 -39 90 -48 144
-51 35 -3 88 1 117 8 43 11 62 10 99 0 61 -17 97 -60 159 -190 54 -116 68
-190 42 -224 -15 -19 -18 -18 -95 12 -90 36 -149 40 -287 20 -64 -9 -101 -9
-166 0 -45 7 -130 17 -188 23 -165 16 -163 16 -186 52 -11 17 -26 48 -34 67
-19 51 -57 98 -91 116 -34 17 -174 44 -232 44 -26 0 -45 -7 -60 -22 -33 -33
-143 -235 -157 -287 l-11 -43 -28 26 c-29 28 -65 33 -106 14 -42 -19 -55 -57
-55 -157 0 -105 -7 -126 -55 -180 -43 -47 -80 -57 -240 -67 -191 -11 -342 -76
-513 -221 -104 -88 -160 -129 -167 -122 -2 3 -8 58 -13 124 -9 110 -13 127
-47 195 -22 44 -40 98 -46 135 -5 34 -11 69 -15 79 -4 11 -1 16 10 16 22 0 88
34 160 83 33 22 96 55 140 74 44 18 96 48 116 66 19 19 57 42 84 52 27 10 56
25 66 35 11 11 40 19 78 22 50 5 75 14 136 53 83 51 103 78 136 175 19 55 21
79 17 156 -7 106 4 155 40 184 33 26 103 26 161 0z m485 -471 c106 -27 111
-30 137 -86 12 -26 33 -65 47 -85 27 -40 25 -57 -8 -98 -20 -23 -22 -24 -34
-6 -12 16 -14 13 -17 -34 l-3 -53 -47 -12 c-26 -6 -64 -23 -85 -37 -61 -40
-181 -169 -208 -221 -22 -44 -24 -77 -5 -77 9 0 50 44 129 137 91 107 200 170
223 129 14 -26 89 -64 189 -97 52 -17 123 -46 159 -64 64 -32 120 -48 210 -60
25 -4 68 -13 95 -21 28 -8 100 -19 160 -25 197 -17 297 -43 337 -87 28 -30 36
-49 73 -177 15 -49 47 -127 71 -172 33 -61 44 -92 44 -125 0 -82 -26 -83 -110
-3 -72 70 -134 107 -244 150 -125 47 -199 64 -324 75 -59 5 -144 15 -188 22
l-82 12 -4 100 c-6 128 -29 186 -85 215 -61 31 -103 35 -169 16 -134 -39 -206
-98 -244 -202 -11 -32 -36 -76 -54 -97 l-33 -39 -24 44 c-42 77 -147 105 -206
55 -27 -24 -28 -27 -33 -154 -6 -146 -15 -171 -81 -205 -29 -15 -52 -17 -154
-13 -146 6 -206 -6 -338 -67 -106 -50 -188 -103 -264 -171 -42 -38 -106 -76
-127 -76 -20 0 -39 61 -46 143 -7 86 -12 103 -69 219 -34 69 -61 129 -61 132
0 3 13 6 29 6 17 0 32 4 36 9 3 5 36 19 73 32 77 25 134 52 177 84 17 13 68
42 115 65 114 57 165 93 201 143 29 40 34 42 142 69 62 16 123 36 137 46 14
10 42 52 63 95 34 68 39 89 44 173 6 97 14 119 32 85 6 -11 27 -25 46 -31 48
-16 78 4 99 67 17 47 94 207 128 264 22 35 41 36 151 8z m-1118 -69 c17 -7 13
-11 -30 -30 -27 -11 -70 -38 -95 -59 -25 -21 -68 -45 -96 -55 -28 -9 -75 -32
-105 -51 -107 -67 -176 -105 -191 -105 -10 0 -18 12 -21 33 -6 43 0 56 32 64
44 10 112 48 196 108 110 80 167 105 235 104 30 0 64 -4 75 -9z m235 -659
c-17 -33 -81 -80 -175 -127 -49 -26 -113 -62 -140 -80 -54 -36 -205 -98 -205
-84 0 14 174 164 211 181 238 116 263 126 302 128 14 1 16 -3 7 -18z m1272
-28 c10 -9 29 -38 43 -66 30 -60 34 -158 10 -246 -8 -30 -13 -59 -12 -64 1 -6
-23 -9 -61 -8 -86 3 -156 -20 -225 -74 -66 -53 -120 -122 -114 -147 3 -9 0
-19 -5 -20 -6 -2 -3 -10 6 -17 13 -11 19 -9 38 14 125 151 171 180 280 180 62
0 78 3 78 15 1 23 59 -112 60 -137 1 -71 38 -92 229 -123 142 -24 196 -48 313
-138 46 -35 110 -73 155 -92 230 -93 325 -165 359 -274 16 -52 17 -64 4 -129
-7 -40 -15 -105 -18 -144 -4 -75 -10 -85 -33 -56 -8 9 -36 26 -64 38 -67 30
-358 125 -382 125 -40 0 -44 12 -28 86 28 130 15 244 -36 313 -38 54 -74 70
-179 84 -147 18 -189 -6 -314 -176 -41 -56 -82 -111 -90 -122 -15 -20 -16 -19
-45 12 -21 22 -34 52 -45 105 -11 47 -29 91 -51 123 -87 128 -273 207 -332
143 -35 -38 -82 -143 -108 -239 -13 -51 -26 -92 -27 -93 -2 -1 -21 -14 -43
-28 -22 -15 -89 -50 -150 -79 -308 -145 -390 -186 -500 -254 -93 -57 -132 -75
-172 -81 l-51 -6 -11 38 c-6 22 -15 93 -20 159 -9 101 -16 130 -41 182 -19 38
-46 74 -71 93 -21 18 -44 40 -49 51 -9 16 -5 21 27 35 21 9 78 25 127 35 67
14 132 39 269 104 207 99 250 126 309 195 36 42 48 50 89 55 58 8 156 54 187
87 32 36 42 79 43 198 0 58 4 113 7 122 7 17 9 17 39 -1 32 -20 85 -90 97
-128 9 -29 14 -29 63 5 67 45 104 98 133 190 18 57 39 75 150 134 98 52 124
55 162 21z m-1013 -602 c12 -8 12 -13 -2 -34 -29 -45 -350 -193 -512 -237
l-69 -19 39 35 c157 136 242 184 425 240 84 26 99 28 119 15z m620 -254 c19
-23 43 -150 37 -195 -13 -99 -90 -185 -149 -166 -18 6 -19 13 -14 83 5 83 31
171 72 244 28 50 36 55 54 34z m172 -88 c19 -30 55 -98 79 -152 44 -99 78
-141 125 -153 43 -11 59 1 108 71 85 124 177 224 216 236 48 14 176 -3 210
-29 35 -26 62 -117 62 -212 1 -88 -15 -136 -60 -176 -17 -15 -33 -35 -36 -45
-5 -14 -13 -16 -39 -12 -66 11 -208 -76 -218 -132 -5 -31 48 -20 96 21 64 55
139 65 173 23 13 -17 33 -128 26 -147 -5 -12 15 -33 41 -43 5 -2 14 11 20 29
l12 34 82 -94 c99 -111 248 -240 317 -272 28 -13 95 -33 150 -45 71 -15 106
-27 121 -44 37 -38 122 -218 139 -295 13 -55 15 -99 11 -174 -3 -56 -8 -103
-10 -106 -15 -14 -88 17 -169 72 -140 96 -221 144 -264 155 l-39 11 -2 157
c-2 177 -7 219 -32 278 -43 100 -153 140 -315 115 -82 -12 -135 -34 -192 -78
-25 -18 -34 -21 -37 -11 -48 164 -126 255 -280 330 -87 42 -142 49 -199 25
-39 -17 -63 -42 -119 -127 l-44 -67 -24 36 c-70 102 -121 191 -130 223 -9 32
-13 35 -39 31 -28 -4 -30 -7 -24 -36 8 -43 33 -91 103 -195 33 -49 69 -92 80
-96 25 -8 16 -27 -43 -98 -46 -55 -80 -75 -198 -113 -100 -32 -249 -100 -339
-154 -90 -54 -305 -138 -373 -146 -31 -4 -58 -5 -59 -3 0 2 -4 87 -7 189 l-6
185 -41 67 c-42 69 -49 118 -17 118 37 0 209 68 335 131 142 72 233 141 244
185 3 13 12 24 19 24 18 0 180 96 234 139 35 27 53 35 91 36 56 2 94 26 134
84 36 52 55 106 56 157 0 40 -14 128 -26 168 -12 37 58 -17 97 -75z m-1411 27
c0 -12 -73 -47 -87 -42 -22 9 -7 22 37 34 42 12 50 13 50 8z m1050 -304 c0
-10 -10 -28 -22 -39 -33 -30 -204 -132 -235 -139 -15 -4 -31 -19 -39 -38 -28
-64 -71 -97 -225 -173 -173 -85 -294 -128 -326 -116 -7 3 -20 18 -28 33 -13
26 -13 27 23 44 20 10 74 42 120 72 109 71 239 136 368 183 99 37 275 129 325
170 30 25 39 26 39 3z m610 -462 c32 -17 42 -68 29 -150 -15 -98 -32 -135 -77
-165 -47 -31 -115 -55 -157 -55 -25 0 -40 8 -60 32 -25 29 -27 37 -21 86 4 30
16 76 27 102 24 55 103 137 145 150 40 12 92 12 114 0z m214 -184 c20 -30 42
-77 49 -105 23 -91 58 -102 127 -41 67 60 106 74 215 78 135 4 162 -9 188 -93
20 -66 45 -215 48 -285 4 -91 1 -98 -36 -116 -47 -22 -69 -65 -69 -135 1 -56
7 -74 99 -274 l32 -71 -56 19 c-37 13 -84 19 -138 20 -90 0 -110 -8 -164 -66
-29 -30 -30 -31 -22 -7 21 65 -6 193 -57 274 -17 27 -41 72 -52 100 -57 145
-153 182 -251 96 -43 -38 -89 -118 -102 -178 -9 -42 -19 -34 -45 36 -32 83
-51 191 -58 327 -7 120 -7 120 -32 120 -24 0 -25 -2 -28 -80 -6 -149 42 -383
93 -459 14 -20 25 -41 25 -45 0 -5 -31 -11 -68 -13 -51 -4 -85 -13 -128 -36
-122 -63 -181 -91 -239 -113 -144 -54 -421 -176 -543 -240 -73 -38 -136 -69
-141 -69 -4 0 -11 55 -15 123 -8 154 -26 228 -84 347 -25 52 -47 97 -49 100
-2 3 23 13 55 22 33 10 102 46 158 82 74 48 119 70 179 87 95 25 111 33 235
114 153 100 313 201 340 215 14 8 65 17 113 21 98 8 177 40 232 95 39 38 64
123 68 223 l2 73 41 -46 c23 -25 58 -70 78 -100z m-544 -177 c7 -11 10 -22 8
-23 -2 -1 -16 -8 -33 -15 -16 -7 -83 -47 -148 -89 -353 -228 -314 -207 -423
-237 -60 -16 -104 -37 -156 -73 -116 -78 -187 -109 -223 -96 -18 7 -39 44 -53
97 -15 52 -1 62 105 76 153 20 250 58 342 135 27 23 68 43 114 56 115 34 214
75 327 134 58 31 110 56 117 56 7 0 17 -9 23 -21z m598 -461 c11 -13 50 -81
86 -152 70 -139 96 -227 77 -258 -8 -13 -8 -24 -1 -38 5 -10 10 -21 10 -24 0
-20 -198 12 -228 36 -8 7 -24 35 -37 63 -13 29 -40 66 -65 87 -41 35 -42 38
-35 80 14 82 44 145 90 187 51 47 73 51 103 19z m-202 -343 c38 -16 52 -40 37
-64 -24 -38 -168 -90 -598 -217 -66 -19 -183 -55 -260 -80 -104 -34 -162 -47
-225 -51 -60 -4 -82 -2 -75 5 28 30 471 230 655 296 41 15 105 45 142 68 37
22 87 46 110 54 51 16 162 11 214 -11z m768 -115 c88 -33 150 -79 154 -114 4
-32 -13 -105 -35 -148 -13 -27 -153 -171 -180 -186 -7 -5 -17 -22 -22 -39 -7
-25 -5 -40 11 -70 36 -67 109 -153 161 -191 67 -49 197 -180 221 -223 l19 -34
-24 21 c-58 51 -85 57 -269 64 -114 4 -184 11 -202 20 -39 19 -92 102 -123
193 -64 191 -190 340 -254 300 -26 -16 -60 -84 -66 -133 -4 -25 -20 -85 -36
-135 -28 -84 -33 -92 -77 -122 -78 -52 -110 -57 -412 -57 l-275 -1 -53 -28
c-101 -53 -205 -88 -280 -94 -115 -9 -127 10 -152 247 -15 140 -34 218 -70
290 -16 33 -30 63 -30 68 0 4 48 9 106 10 58 2 127 7 153 12 89 17 237 51 321
75 47 13 121 31 165 41 101 22 468 158 517 191 l36 24 54 -27 c45 -24 68 -28
155 -32 123 -5 161 6 208 60 25 30 45 43 72 47 51 9 138 -4 207 -29z m329
-248 c10 -16 24 -55 32 -86 8 -31 28 -83 45 -115 38 -76 49 -127 51 -236 1
-61 -2 -90 -11 -95 -19 -12 -32 -4 -60 36 -79 114 -132 148 -242 159 -83 8
-118 35 -118 91 0 32 9 46 70 108 66 66 130 167 130 204 0 22 81 -30 103 -66z
m-779 -301 c38 -57 44 -107 17 -159 -12 -23 -26 -63 -31 -90 -6 -27 -22 -61
-38 -77 l-27 -30 -3 32 c-2 22 -15 43 -40 65 l-38 34 24 74 c13 41 28 100 34
130 5 30 14 63 20 73 8 16 12 17 31 4 12 -8 35 -33 51 -56z m126 -243 c42 -87
91 -145 145 -169 32 -15 66 -19 179 -19 217 0 276 -26 296 -130 17 -91 -3
-156 -82 -263 -27 -37 -61 -76 -76 -87 -24 -19 -26 -19 -44 -3 -24 22 -141 30
-191 14 -59 -20 -84 -45 -79 -80 2 -17 7 -31 10 -31 3 0 20 11 38 25 37 28
104 41 158 31 32 -6 35 -9 26 -26 -18 -33 -11 -77 23 -142 18 -35 39 -79 47
-98 21 -54 93 -161 137 -203 22 -21 75 -61 119 -90 112 -74 113 -77 116 -322
2 -189 1 -203 -21 -250 -26 -58 -20 -62 -99 65 -25 41 -56 88 -69 103 -20 25
-23 39 -23 120 0 120 -31 266 -67 326 -22 35 -43 52 -98 80 -64 32 -78 35
-170 37 -94 3 -101 4 -120 28 -11 14 -36 74 -55 132 -28 87 -43 117 -79 156
-76 85 -159 110 -227 67 -38 -23 -104 -117 -129 -183 -13 -35 -23 -46 -44 -49
-35 -7 -658 -1 -944 8 -215 7 -229 9 -242 29 -23 32 -18 81 21 184 31 84 36
105 32 167 -2 45 -11 86 -25 115 -12 25 -26 56 -31 70 l-10 25 157 3 c86 2
192 10 236 18 44 8 125 22 180 30 55 8 152 24 215 34 63 11 144 20 180 20 76
1 335 44 354 59 7 6 15 8 18 5 11 -10 64 24 100 64 20 22 41 57 47 78 23 75
43 124 50 124 4 0 22 -33 41 -72z m-300 -60 c28 -30 27 -76 -2 -88 -42 -18
-252 -50 -325 -50 -39 0 -118 -9 -175 -19 -57 -11 -128 -22 -158 -26 -30 -4
-111 -17 -180 -30 -85 -16 -172 -25 -271 -27 -157 -3 -179 2 -179 47 0 29 10
37 28 22 9 -7 57 -13 126 -15 134 -4 202 14 303 79 l66 43 301 0 c328 1 325 1
399 62 35 29 41 30 67 2z m1028 -315 c22 -38 77 -120 122 -183 100 -139 135
-212 152 -308 11 -68 11 -76 -7 -110 -40 -74 -108 -75 -161 -1 -16 22 -39 53
-52 69 -38 48 -144 126 -197 145 -27 10 -54 22 -59 26 -13 12 4 45 49 99 21
25 54 78 73 119 30 62 36 86 36 143 1 37 2 68 2 68 1 0 20 -30 42 -67z m-782
-450 c35 -24 64 -51 64 -60 0 -8 -37 -55 -82 -104 l-81 -90 -19 30 c-11 16
-41 44 -68 61 -47 30 -48 33 -37 58 18 43 86 140 105 151 24 14 44 6 118 -46z
m84 -177 c0 -21 79 -135 107 -153 18 -12 50 -16 122 -17 90 -1 101 -3 147 -31
61 -38 107 -111 128 -206 17 -71 21 -186 8 -205 -4 -6 -45 -30 -90 -53 -65
-33 -87 -40 -97 -31 -8 7 -19 9 -25 5 -5 -3 -10 -2 -10 3 0 23 -59 31 -117 16
-31 -8 -58 -16 -59 -17 -1 -1 -4 -14 -8 -29 -8 -33 6 -35 78 -16 39 10 49 9
80 -7 27 -15 36 -26 36 -45 0 -48 22 -105 66 -171 39 -59 69 -119 62 -124 -2
-1 -49 3 -104 8 -99 10 -102 10 -147 -15 -47 -27 -57 -26 -57 2 0 10 -14 44
-31 76 -26 49 -32 76 -39 160 -11 137 -41 193 -124 236 -66 34 -185 14 -242
-41 -18 -17 -20 -15 -36 68 -22 111 -22 161 -1 230 15 48 28 67 97 131 44 41
116 112 160 157 83 84 96 94 96 69z m-1265 -25 c68 -7 160 -7 285 0 133 8 205
8 255 0 142 -21 257 -24 305 -7 63 22 81 20 128 -14 56 -40 55 -66 0 -120
l-43 -41 -124 6 c-68 3 -149 11 -180 17 -31 7 -132 11 -226 10 -99 0 -226 6
-305 15 -98 11 -174 14 -277 9 -139 -7 -141 -7 -157 16 -9 13 -16 43 -16 70 0
40 3 47 23 52 29 6 205 -1 332 -13z m110 -198 c76 -9 164 -12 240 -9 66 3 152
1 190 -4 39 -5 130 -14 203 -21 115 -11 132 -14 126 -28 -27 -63 -33 -101 -36
-232 l-3 -145 28 -37 c41 -54 67 -123 67 -175 0 -76 -5 -78 -106 -42 -266 93
-324 102 -470 76 -153 -28 -490 -28 -639 0 -37 6 -44 43 -18 96 29 59 61 190
69 283 5 64 -9 172 -31 227 -6 14 1 17 37 21 87 8 226 4 343 -10z m1095 -481
c32 -32 39 -47 45 -96 29 -230 -77 -394 -189 -295 -19 17 -45 46 -57 65 -19
32 -21 44 -15 119 6 67 4 89 -10 119 -36 74 18 126 130 126 54 0 61 -3 96 -38z
m-620 -206 c58 -13 139 -37 180 -54 41 -16 95 -36 120 -43 44 -14 45 -15 51
-62 5 -45 3 -50 -20 -60 -51 -20 -152 -19 -226 3 -143 43 -214 58 -360 75 -82
9 -179 24 -215 32 -39 9 -147 17 -272 20 -229 6 -235 8 -224 67 6 32 8 34 44
30 20 -2 73 -6 117 -9 44 -3 121 -9 170 -15 97 -10 264 0 395 24 104 19 121
19 240 -8z m735 -221 c10 -55 22 -95 29 -95 6 0 32 17 58 38 73 60 96 67 183
52 47 -8 81 -20 91 -31 40 -45 51 -180 23 -295 -23 -97 -61 -125 -109 -79 -15
15 -43 30 -62 34 -67 16 -173 -35 -202 -96 -16 -34 -21 -84 -10 -96 9 -8 60
44 68 69 8 26 75 64 112 64 42 0 74 -35 67 -74 -3 -21 3 -50 20 -86 13 -31 32
-80 42 -110 22 -67 60 -145 90 -186 19 -25 23 -43 23 -95 0 -53 6 -77 37 -144
57 -124 75 -176 75 -223 0 -57 -24 -102 -54 -102 -30 0 -42 15 -56 72 -7 26
-23 62 -36 79 -13 18 -24 42 -24 52 0 11 -34 54 -76 97 l-75 78 6 108 c6 101
5 112 -17 153 -35 67 -67 86 -141 85 -44 -1 -73 -7 -100 -22 -21 -12 -39 -22
-41 -22 -2 0 -7 24 -11 53 -12 90 -41 211 -60 251 -20 41 -62 66 -113 66 -16
0 -65 -12 -108 -26 -94 -30 -137 -67 -160 -137 -23 -69 -57 -83 -168 -68 -83
11 -248 26 -441 41 -60 5 -162 16 -225 25 -63 8 -163 22 -221 29 -58 8 -115
19 -126 25 -35 18 -36 53 -4 133 39 98 48 177 27 257 -17 67 -19 104 -10 164
l7 37 166 0 c121 0 196 -5 272 -19 57 -10 172 -27 254 -36 101 -12 189 -29
270 -52 81 -24 148 -37 207 -41 77 -4 92 -2 143 22 l56 25 37 -19 c90 -49 200
-4 247 101 10 21 19 39 21 39 1 0 10 -43 19 -95z m642 -293 c57 -79 56 -156
-4 -223 -43 -48 -74 -50 -130 -10 -28 20 -47 45 -58 76 -17 44 -17 50 0 140
10 53 16 118 13 149 l-5 55 76 -71 c42 -40 91 -92 108 -116z m-858 -229 c27
-59 31 -155 8 -198 -8 -17 -29 -43 -47 -60 -27 -26 -38 -30 -88 -30 l-57 0 -5
40 c-7 45 -35 108 -56 126 -29 24 -12 90 31 122 27 20 115 45 161 46 27 1 33
-5 53 -46z m-1434 -74 c50 -5 119 -13 155 -18 36 -5 90 -13 120 -16 30 -3 97
-15 149 -26 58 -11 134 -19 197 -19 59 0 147 -8 206 -19 57 -11 119 -22 139
-25 32 -6 96 3 156 20 18 5 26 -1 42 -27 12 -19 21 -44 21 -56 0 -18 -7 -23
-47 -29 -55 -8 -299 2 -393 16 -36 5 -136 10 -223 10 -208 0 -287 16 -387 78
-72 46 -77 47 -165 50 -49 2 -93 7 -98 11 -4 4 -4 22 -1 40 5 24 11 31 23 25
9 -3 57 -10 106 -15z m57 -135 c17 -9 49 -29 70 -44 64 -47 187 -70 370 -70
86 0 220 -7 299 -16 98 -11 184 -14 269 -10 157 8 156 8 213 0 78 -10 114 2
167 55 44 44 49 47 54 27 3 -11 6 -47 6 -80 l0 -58 28 17 c15 10 39 32 54 48
44 48 79 67 125 67 64 0 92 -30 100 -104 l6 -58 -26 26 c-28 28 -77 36 -77 12
0 -8 5 -18 10 -21 18 -11 50 -83 50 -112 -1 -37 -21 -62 -60 -73 -39 -11 -93
10 -116 44 -9 14 -26 23 -48 24 -30 2 -34 0 -29 -18 8 -30 83 -99 119 -109 31
-9 99 -1 122 13 17 10 15 1 -8 -44 -11 -22 -20 -46 -20 -55 0 -19 -4 -19 -43
2 -48 26 -185 23 -257 -5 -30 -12 -68 -32 -83 -44 l-28 -23 21 -23 21 -22 27
20 c39 28 134 60 182 60 50 0 106 -22 130 -52 10 -12 21 -42 24 -66 3 -24 27
-85 53 -135 39 -77 64 -108 145 -188 54 -53 98 -99 98 -103 0 -4 -9 -25 -21
-48 -19 -37 -20 -51 -14 -132 6 -88 6 -92 -19 -119 -40 -43 -69 -36 -139 33
-40 39 -79 67 -112 79 -27 11 -81 35 -120 54 -44 22 -92 38 -130 42 -37 4 -74
16 -96 30 -35 23 -37 26 -57 137 -11 62 -23 148 -27 190 -11 141 -67 227 -150
228 -50 0 -129 -45 -196 -110 -88 -87 -148 -105 -309 -96 -63 4 -178 7 -255 6
l-139 -1 -71 35 c-92 46 -260 97 -310 95 -75 -3 -75 -3 -75 43 0 23 19 116 42
207 39 157 42 174 42 313 l1 148 78 0 c52 0 88 -5 109 -16z m1103 -690 c46
-18 74 -163 40 -211 -13 -18 -172 -90 -180 -81 -1 2 -19 35 -40 75 -36 69 -37
74 -22 97 22 33 96 92 138 110 40 18 42 18 64 10z m-1178 -100 c78 -18 121
-34 153 -57 44 -31 48 -32 190 -39 80 -3 172 -11 205 -17 98 -18 176 -13 265
14 44 15 84 24 89 21 5 -3 23 -33 40 -65 22 -43 28 -62 19 -67 -9 -6 -495 -28
-533 -24 -5 1 -113 2 -240 4 -126 2 -241 6 -255 11 -14 4 -45 21 -68 37 -24
17 -56 33 -70 37 -21 6 -28 15 -33 42 -3 19 -9 40 -13 47 -13 21 11 46 61 63
64 23 65 23 190 -7z m-192 -221 c17 -9 50 -28 75 -42 l45 -26 480 2 c264 2
503 7 530 12 116 23 154 33 218 58 37 15 70 30 73 35 14 22 22 1 28 -68 11
-124 40 -163 120 -164 l30 0 -34 -25 c-37 -27 -45 -25 -85 23 -53 63 -116 79
-153 39 -27 -28 -20 -37 28 -37 30 0 44 -8 85 -51 l49 -51 53 5 c50 5 53 4 53
-17 0 -13 10 -31 21 -42 27 -24 39 -56 32 -83 -7 -27 -82 -56 -124 -47 -46 9
-59 24 -59 66 0 46 -19 65 -45 46 -14 -10 -17 -23 -13 -68 l4 -56 -55 -12
c-31 -7 -68 -14 -82 -15 -39 -3 -53 -14 -37 -32 24 -29 53 -32 129 -12 114 29
211 22 296 -24 18 -9 37 -17 43 -17 6 0 25 -16 42 -36 21 -23 69 -53 144 -89
l112 -54 0 -123 c1 -142 -8 -178 -49 -213 -55 -45 -91 -34 -189 60 -73 70
-117 88 -245 104 -44 5 -100 18 -123 28 -46 19 -48 23 -120 203 -30 77 -57
121 -106 173 -51 54 -70 50 -166 -38 -76 -70 -85 -75 -126 -75 -61 0 -106 21
-139 64 l-27 35 -58 -40 -57 -41 -94 1 c-52 0 -121 7 -154 16 -70 17 -543 252
-558 277 -8 12 -5 24 17 52 15 20 34 52 42 72 24 57 54 185 54 231 l0 41 33
-14 c17 -8 46 -22 62 -31z m1743 -291 c17 -23 16 -36 -19 -144 -29 -88 -33
-96 -50 -85 -17 11 -17 11 1 24 28 20 41 71 30 118 -8 37 -36 70 -86 102 -16
11 -8 12 46 7 41 -4 70 -12 78 -22z m-1708 -266 c129 -64 264 -124 300 -133
39 -11 105 -17 166 -18 89 0 106 3 151 27 l51 26 23 -24 c12 -13 41 -31 64
-40 47 -18 72 -56 82 -129 5 -42 5 -43 -30 -54 -64 -21 -195 2 -412 74 -44 14
-128 37 -187 50 -105 24 -157 44 -228 91 -41 27 -111 52 -230 85 -47 13 -87
24 -89 25 -5 4 18 130 29 160 l10 25 32 -24 c18 -13 139 -76 268 -141z m1091
-41 c16 -15 15 -21 -12 -92 -45 -121 -91 -179 -149 -185 -22 -3 -25 2 -31 43
-4 26 -12 56 -18 67 -17 32 -14 40 20 47 18 4 58 33 97 71 37 35 69 63 71 64
3 0 12 -7 22 -15z m-1291 -85 c19 -5 69 -29 110 -53 100 -57 146 -74 258 -98
52 -10 158 -40 236 -65 189 -61 316 -82 399 -66 34 7 86 17 116 22 71 14 103
32 140 79 35 43 81 137 81 164 0 31 17 18 35 -25 9 -24 25 -76 35 -117 22 -86
45 -114 111 -136 26 -9 53 -22 59 -30 28 -34 -14 -230 -59 -277 -9 -10 -39
-22 -66 -27 -31 -6 -56 -18 -67 -31 -24 -30 -23 -91 3 -143 28 -56 124 -184
148 -196 26 -14 45 -69 30 -88 -15 -18 -30 -5 -82 72 -80 117 -178 195 -246
195 -21 0 -32 6 -36 19 -3 11 -22 34 -42 51 -33 29 -40 31 -94 28 -66 -3 -61
-11 -75 117 -6 64 13 135 37 135 6 0 8 7 5 17 -4 9 -2 20 5 23 6 4 9 17 7 29
-3 22 -3 22 -44 -7 -61 -45 -78 -94 -69 -206 4 -49 11 -99 15 -112 7 -19 4
-24 -20 -34 -40 -16 -93 -70 -114 -115 -17 -34 -20 -36 -54 -31 -20 3 -77 11
-127 16 -49 6 -121 19 -160 30 -38 11 -124 26 -190 34 -140 18 -177 29 -305
89 -52 25 -111 52 -130 60 -51 20 -164 120 -184 160 -24 53 -20 72 28 126 90
102 126 196 126 332 0 112 -1 111 78 88 37 -11 83 -24 102 -29z m1753 -627
c44 -22 158 -101 188 -130 38 -35 92 -158 97 -220 5 -65 -28 -164 -66 -194
-38 -30 -67 -18 -153 66 -80 78 -109 95 -164 95 -25 0 -37 6 -46 21 -6 12 -26
34 -44 50 -45 40 -115 149 -121 191 -6 34 -5 35 50 58 66 26 98 61 116 124
l12 46 51 -46 c28 -25 64 -52 80 -61z m-1948 -97 c51 -25 96 -46 99 -46 3 0
43 -18 90 -39 105 -50 170 -68 266 -76 41 -4 140 -22 220 -41 154 -35 278 -57
300 -52 8 2 14 -5 15 -16 0 -13 -9 -22 -27 -27 -59 -16 -217 -20 -313 -9 -55
6 -152 11 -215 11 -79 -1 -120 3 -135 13 -11 7 -52 25 -92 39 -121 44 -316
137 -345 164 -45 43 -61 87 -53 151 l6 57 45 -41 c25 -23 87 -63 139 -88z
m1322 -98 c18 -18 33 -40 33 -50 0 -28 -55 -132 -92 -174 -57 -64 -88 -64
-154 0 -17 17 -39 37 -48 44 -22 17 -20 43 5 97 31 67 107 114 184 115 31 0
46 -7 72 -32z m-1427 -78 c25 -13 128 -58 230 -102 183 -77 186 -78 271 -78
47 0 128 -6 180 -14 105 -16 403 -8 451 12 24 10 30 8 50 -17 28 -34 77 -61
114 -61 67 0 151 86 210 215 14 30 29 55 33 55 24 0 94 -67 135 -129 48 -71
82 -105 117 -116 28 -9 24 -22 -20 -63 -21 -20 -52 -56 -69 -80 -17 -23 -33
-39 -36 -34 -17 27 -90 64 -141 71 -55 8 -56 7 -71 -21 -8 -15 -13 -28 -12
-28 2 0 29 -4 60 -10 58 -9 148 -59 148 -82 0 -6 -13 -33 -30 -59 -16 -27 -40
-74 -54 -106 -13 -32 -35 -66 -48 -75 -21 -16 -28 -16 -88 -3 -88 20 -285 27
-330 12 -24 -8 -45 -27 -67 -62 -18 -27 -53 -68 -76 -90 -24 -22 -63 -66 -86
-97 -43 -60 -46 -62 -121 -59 -158 5 -315 43 -437 104 -28 15 -82 35 -121 46
-38 10 -107 36 -153 56 -97 43 -281 105 -311 105 -20 0 -20 1 -3 27 10 14 28
58 40 97 13 39 41 118 63 174 63 161 75 226 66 366 l-7 119 34 -25 c19 -14 54
-36 79 -48z m1730 -572 c23 -78 43 -96 206 -175 91 -45 156 -82 159 -93 3 -9
-8 -74 -25 -144 -19 -80 -30 -154 -30 -199 0 -85 -22 -131 -74 -152 -70 -29
-131 11 -241 160 -59 79 -88 96 -131 77 -13 -6 -30 -26 -38 -44 -8 -18 -15
-26 -15 -18 -2 25 -41 93 -75 129 -47 50 -166 131 -193 131 -19 0 -23 5 -23
30 0 17 -7 47 -15 66 -13 33 -13 35 3 30 265 -75 303 -66 379 92 49 102 79
152 92 152 4 0 14 -19 21 -42z m-1878 -237 c47 -16 120 -44 164 -63 43 -19
106 -42 139 -52 33 -10 107 -39 165 -66 58 -26 137 -58 177 -69 86 -26 225
-44 264 -36 l28 6 -20 -50 c-10 -28 -19 -60 -19 -70 0 -27 -17 -30 -70 -15
-25 7 -70 17 -100 23 -30 6 -80 18 -110 27 -30 8 -129 35 -220 58 -104 27
-204 60 -270 91 -58 26 -132 56 -165 67 -69 23 -205 104 -205 122 0 14 37 50
60 59 26 11 95 -1 182 -32z m1316 -5 c37 -53 30 -82 -33 -142 -34 -31 -67 -75
-85 -112 -51 -106 -116 -162 -187 -162 -51 0 -56 11 -35 66 29 75 124 215 180
265 27 24 61 63 75 86 31 49 51 49 85 -1z m-1503 -141 c32 -19 79 -42 104 -51
25 -8 78 -29 116 -46 202 -86 390 -143 702 -213 113 -25 280 -31 346 -12 60
17 122 79 162 162 20 40 43 79 52 86 9 8 24 32 34 54 10 22 19 34 19 28 0 -8
14 -13 36 -13 61 0 208 -116 234 -186 22 -56 12 -89 -41 -153 -39 -47 -60 -63
-92 -72 -67 -18 -172 -7 -246 26 -61 28 -64 28 -77 10 -8 -10 -14 -23 -14 -27
0 -5 29 -23 65 -39 49 -23 85 -32 145 -36 92 -7 88 0 70 -127 -11 -76 -45
-132 -122 -201 l-41 -38 -76 7 c-70 5 -211 33 -287 57 -17 5 -61 9 -98 9 -60
0 -68 -2 -75 -22 -7 -16 -5 -26 5 -34 12 -10 12 -13 -1 -24 -24 -20 -112 -203
-120 -249 -4 -24 -12 -41 -20 -41 -7 0 -64 22 -127 49 -129 57 -168 67 -293
76 -162 11 -238 26 -375 72 -167 57 -300 110 -319 129 -22 21 0 78 66 171 32
43 73 109 92 145 29 59 34 79 42 185 4 65 11 134 14 153 9 58 49 200 56 200 4
0 33 -16 64 -35z m1831 -705 c41 -17 101 -46 131 -66 31 -19 93 -53 138 -75
90 -42 105 -59 130 -140 9 -30 25 -78 36 -107 22 -63 14 -126 -29 -212 -22
-45 -37 -61 -85 -88 -36 -21 -74 -54 -100 -88 -50 -65 -72 -68 -162 -25 -78
37 -154 106 -185 166 -50 96 -100 98 -149 6 -17 -33 -36 -63 -40 -65 -9 -6
-99 61 -188 139 -28 25 -68 53 -90 63 l-38 17 -1 120 c0 76 -5 129 -13 143 -7
13 -11 26 -8 28 3 3 45 -2 93 -10 49 -9 105 -16 125 -16 76 0 136 43 252 183
58 68 72 71 183 27z m-749 -183 c18 -12 37 -33 44 -47 17 -36 24 -207 10 -267
-17 -82 -160 -283 -201 -283 -24 0 -99 81 -110 119 -5 19 -6 41 -1 50 5 9 11
44 15 78 15 138 84 304 148 358 33 28 44 27 95 -8z m-1324 -43 c67 -25 157
-59 199 -75 103 -39 181 -56 308 -68 129 -13 228 -40 333 -91 45 -22 93 -40
107 -40 48 0 70 -11 70 -35 0 -55 -96 -80 -278 -70 -408 22 -382 17 -569 108
-38 18 -97 43 -133 57 -102 37 -200 98 -200 124 0 40 23 136 32 136 5 0 64
-21 131 -46z m-101 -218 c35 -19 92 -46 128 -59 36 -14 108 -45 160 -70 53
-25 121 -52 150 -60 79 -22 505 -42 590 -28 36 6 68 11 71 11 4 0 10 -16 14
-36 4 -25 24 -54 64 -95 52 -53 61 -59 99 -59 32 0 49 7 78 32 34 30 135 172
169 238 19 36 27 34 121 -44 140 -116 167 -136 176 -136 7 0 9 -21 4 -62 -5
-54 -10 -65 -44 -97 -22 -20 -47 -48 -57 -63 -9 -16 -23 -28 -30 -28 -6 0 -29
18 -50 41 -50 54 -89 69 -179 69 -65 0 -79 -3 -103 -24 -15 -13 -24 -28 -20
-32 4 -5 48 -7 97 -6 101 3 114 -2 169 -59 l38 -39 -42 -58 c-26 -36 -56 -64
-76 -73 -39 -16 -155 -15 -208 2 -38 13 -96 8 -251 -19 -109 -19 -133 -28
-187 -69 -38 -28 -41 -43 -13 -61 17 -10 26 -8 61 18 23 16 48 30 56 30 22 0
17 -110 -9 -174 -20 -49 -26 -55 -58 -60 -47 -7 -281 9 -405 29 -192 30 -220
37 -320 77 -96 38 -241 88 -258 88 -4 0 -45 17 -91 39 -87 40 -103 60 -86 105
4 11 42 93 83 181 41 88 80 187 87 219 14 68 7 174 -16 238 -13 39 -9 82 13
121 6 10 6 10 75 -27z m1867 -551 c56 -78 76 -87 220 -96 153 -9 223 -32 275
-89 39 -44 54 -86 63 -182 12 -137 -72 -278 -188 -312 -101 -30 -140 -17 -208
69 -28 35 -66 75 -85 90 -63 48 -155 43 -190 -10 -9 -13 -23 -53 -32 -90 -9
-37 -22 -69 -29 -71 -7 -3 -37 20 -66 51 -66 70 -160 133 -209 141 l-37 6 -12
93 c-17 141 -22 130 58 131 117 0 241 74 300 177 39 68 89 137 99 137 5 0 23
-20 41 -45z m-579 -338 c0 -56 4 -116 9 -133 6 -21 5 -36 -5 -49 -8 -10 -14
-39 -15 -64 0 -54 -24 -116 -60 -158 -32 -38 -59 -53 -98 -53 -26 0 -33 6 -47
38 -9 20 -25 83 -36 139 l-21 101 24 49 c19 39 24 63 23 126 -1 76 -1 77 25
77 14 0 49 7 76 14 28 8 67 15 88 15 l37 1 0 -103z m-1474 -3 c33 -15 104 -41
159 -59 55 -18 150 -52 210 -75 111 -43 117 -44 528 -106 106 -15 195 -16 229
0 25 11 41 -35 32 -91 -5 -37 -13 -48 -45 -69 -103 -64 -242 -73 -544 -32
-110 14 -238 29 -285 33 -147 10 -221 38 -294 111 -46 47 -67 98 -69 172 -1
60 9 142 17 142 2 0 30 -12 62 -26z m1667 -258 c29 -19 70 -59 93 -88 50 -66
84 -84 130 -70 29 9 33 7 38 -12 25 -92 -35 -199 -140 -250 -31 -15 -68 -39
-82 -53 -19 -19 -31 -24 -54 -19 -31 6 -133 64 -181 103 -40 32 -67 30 -67 -4
0 -29 4 -32 144 -122 27 -17 57 -31 67 -31 28 0 29 -12 6 -77 -28 -76 -45 -95
-110 -123 -80 -35 -180 -16 -266 51 -27 21 -78 25 -115 7 -42 -19 -75 -104
-91 -239 l-6 -46 -234 -6 c-207 -5 -453 4 -477 19 -4 3 -61 5 -125 5 -154 -1
-279 15 -322 42 -38 23 -63 72 -54 108 3 13 21 41 40 62 18 20 33 47 33 60 0
12 9 47 21 77 32 84 35 208 10 369 -12 74 -21 151 -21 173 l0 39 33 -37 c39
-45 136 -110 186 -124 20 -6 137 -23 261 -40 124 -16 245 -33 270 -39 25 -6
75 -11 111 -11 127 0 361 51 390 86 10 12 15 10 30 -15 65 -108 232 -62 306
83 15 29 28 75 31 109 l5 59 44 -5 c29 -3 63 -17 96 -41z m407 -402 c74 -57
98 -66 212 -73 90 -7 100 -9 129 -37 46 -44 67 -84 96 -181 29 -101 33 -200 9
-276 -12 -39 -30 -63 -93 -123 -43 -40 -92 -78 -110 -84 -41 -14 -144 11 -192
48 -77 58 -194 87 -243 61 -17 -9 -25 -6 -52 19 -17 16 -49 35 -70 42 -58 19
-226 8 -296 -19 -30 -12 -56 -21 -57 -21 -9 0 1 36 23 84 19 43 24 66 20 92
-6 30 -4 34 14 34 89 0 166 53 194 135 54 153 77 183 184 241 30 15 72 50 94
76 46 55 44 55 138 -18z m-854 -363 c21 -15 57 -34 79 -41 43 -14 71 -34 87
-63 7 -14 3 -34 -17 -79 -22 -50 -26 -67 -20 -109 7 -49 6 -50 -37 -93 -44
-44 -147 -92 -175 -82 -10 4 -12 16 -7 45 4 24 0 65 -11 107 -27 106 -8 277
36 331 16 18 20 17 65 -16z m-1332 -241 c35 -17 53 -19 185 -13 109 4 176 1
266 -12 118 -16 336 -22 369 -9 9 3 90 3 180 -1 l164 -7 12 -64 c7 -36 10 -67
7 -71 -3 -3 -29 0 -58 7 -67 16 -161 7 -252 -24 -66 -22 -94 -25 -324 -31
l-251 -7 -64 30 c-49 24 -88 34 -173 44 l-110 13 -3 83 c-2 45 1 82 5 82 5 0
26 -9 47 -20z m1846 -56 c36 -8 107 -74 90 -84 -12 -8 -8 -33 20 -120 24 -73
12 -171 -30 -256 -29 -60 -56 -86 -130 -131 l-35 -21 0 51 c0 108 -66 149
-207 127 -86 -14 -135 -8 -169 19 -13 10 -36 21 -51 25 -23 5 -28 3 -28 -12 0
-31 37 -69 85 -88 37 -14 60 -15 123 -9 151 16 177 9 188 -50 15 -80 -101
-234 -200 -268 -65 -22 -98 -21 -201 5 -74 18 -89 19 -112 8 -16 -7 -51 -14
-79 -15 -29 -1 -63 -9 -77 -18 -25 -16 -26 -16 -38 20 -15 47 -6 262 15 358
16 69 16 70 -7 87 -29 22 -35 14 -48 -58 -6 -32 -15 -79 -19 -104 -15 -77 -12
-257 6 -316 19 -67 42 -76 114 -45 27 11 53 21 59 21 14 0 14 -115 1 -141 -14
-25 -185 -105 -279 -130 -63 -16 -109 -19 -284 -19 -115 0 -249 -5 -296 -11
-103 -14 -172 -6 -206 24 -13 12 -40 35 -59 50 -45 35 -46 59 -4 121 29 45 32
57 45 204 8 87 13 209 11 272 -3 112 -4 118 -44 200 -23 47 -45 101 -48 122
-6 31 -4 36 11 32 10 -2 55 -8 101 -13 60 -6 98 -17 135 -37 65 -34 154 -40
442 -26 168 8 210 13 265 33 107 38 249 29 297 -19 22 -21 30 -24 71 -18 77
10 167 62 229 132 51 59 90 83 158 97 33 7 150 8 185 1z m270 -270 c19 -15 80
-74 135 -130 55 -56 125 -120 155 -142 69 -50 116 -99 129 -135 22 -58 25
-190 6 -289 -23 -122 -36 -142 -115 -181 -59 -29 -71 -32 -155 -30 -58 2 -126
12 -190 28 -60 15 -122 25 -156 24 -54 -2 -57 -1 -94 40 -21 23 -55 51 -74 60
-43 22 -127 41 -181 41 -38 0 -40 2 -51 43 -6 23 -13 45 -15 48 -2 4 21 19 51
33 36 18 73 49 111 92 36 41 86 82 140 115 144 88 196 167 214 325 5 49 10 98
10 108 0 19 1 19 23 -1 12 -11 38 -33 57 -49z m-817 -608 c32 -9 79 -18 103
-19 43 -2 44 -3 60 -50 12 -37 13 -51 4 -62 -9 -11 -8 -18 5 -32 40 -39 -12
-199 -70 -216 -16 -5 -52 -18 -79 -29 -47 -19 -50 -19 -59 -2 -6 10 -9 42 -8
71 3 64 -27 138 -63 154 -20 9 -23 16 -17 33 5 11 11 45 15 74 9 68 23 105 39
99 6 -2 38 -12 70 -21z m376 -182 c33 -9 69 -30 93 -52 l39 -37 3 -170 c1
-106 7 -178 14 -192 9 -17 9 -22 -4 -27 -32 -12 -42 -5 -70 51 -36 71 -164
208 -210 225 -25 9 -33 16 -28 28 14 32 34 115 34 142 0 15 -8 31 -17 37 -30
17 86 13 146 -5z m-494 -84 c15 -29 21 -101 9 -113 -4 -4 -20 5 -37 19 -41 34
-77 29 -97 -14 -13 -28 -19 -32 -40 -27 -127 30 -308 7 -430 -53 -73 -36 -78
-37 -169 -34 -95 3 -130 -4 -181 -38 -14 -9 -47 -24 -75 -34 l-49 -16 -38 42
c-54 61 -85 116 -93 167 -6 38 -5 43 9 38 76 -30 146 -39 231 -31 50 4 196 8
325 9 185 1 250 5 303 19 96 24 217 64 247 81 40 23 68 19 85 -15z m11 -190
c15 0 24 -6 24 -15 0 -24 70 -18 136 11 34 15 79 26 110 27 48 2 56 -1 88 -32
20 -19 34 -37 31 -39 -3 -3 4 -20 15 -37 11 -18 34 -88 51 -156 44 -172 83
-246 153 -287 l35 -21 6 28 c5 22 -2 35 -38 72 -34 36 -49 64 -70 130 -34 106
-34 114 2 78 22 -22 39 -29 68 -29 22 0 44 5 50 11 12 12 121 -30 170 -67 62
-47 113 -197 113 -339 0 -148 28 -194 161 -265 123 -67 157 -135 124 -250 -8
-30 -23 -91 -31 -135 -22 -108 -12 -145 65 -228 32 -34 63 -72 70 -84 14 -27
14 -113 1 -184 -22 -116 -14 -184 43 -344 14 -39 33 -112 43 -163 25 -130 18
-146 -107 -272 -103 -103 -149 -175 -149 -233 0 -16 10 -60 21 -99 27 -89 23
-172 -14 -244 -14 -28 -62 -91 -106 -140 -158 -174 -413 -512 -463 -614 -24
-47 -56 -101 -73 -120 -17 -19 -44 -53 -59 -75 -37 -51 -54 -65 -83 -65 -38 0
-44 28 -27 131 16 103 31 133 99 199 62 60 108 157 106 226 -3 76 16 141 54
191 19 25 37 62 40 82 3 20 18 81 33 136 22 83 26 121 27 226 0 134 -3 146
-59 227 l-30 43 13 88 c9 69 10 99 1 132 -16 58 -53 129 -79 154 l-22 19 33
18 c18 9 62 31 98 48 36 17 76 41 88 53 56 52 86 163 70 259 -5 29 -13 132
-17 228 -8 172 -17 224 -57 301 -27 54 -108 141 -172 187 -37 26 -124 90 -195
142 -112 83 -131 102 -155 150 -26 54 -27 58 -27 255 0 222 -6 247 -66 306
-82 80 -189 93 -324 41 -60 -24 -92 -44 -125 -78 -25 -25 -93 -81 -151 -124
-109 -81 -148 -120 -150 -149 0 -13 -1 -14 -6 -1 -31 90 -110 208 -180 270
-27 23 -85 66 -130 96 -88 58 -103 76 -103 121 0 26 8 33 83 72 82 42 82 42
182 39 98 -2 102 -2 170 34 100 51 254 77 355 60 105 -18 118 -16 138 17 l16
29 29 -24 c16 -13 39 -24 53 -24z m54 -418 c49 -24 59 -61 59 -230 1 -160 11
-201 82 -345 66 -135 137 -204 327 -322 98 -61 158 -120 192 -189 17 -36 20
-62 20 -172 0 -83 6 -150 16 -189 29 -115 31 -131 19 -179 -14 -56 -44 -90
-108 -122 -26 -14 -59 -38 -74 -54 -17 -19 -36 -30 -53 -30 -26 0 -97 44 -130
79 -57 62 -111 135 -139 188 -72 135 -201 240 -324 262 -69 13 -80 18 -148 76
-29 24 -80 61 -113 81 -105 62 -213 155 -232 199 -9 22 -28 65 -41 95 -24 54
-24 58 -17 264 6 202 7 210 30 235 13 14 24 31 24 38 0 33 29 66 99 111 42 28
111 83 155 124 43 40 88 78 100 85 34 20 214 17 256 -5z"/>
<path d="M3330 24307 c-14 -6 -26 -12 -28 -13 -2 -1 -7 -59 -13 -130 -5 -71
-13 -154 -18 -184 -11 -63 -14 -201 -5 -223 4 -12 12 -13 32 -6 26 9 27 12 24
71 -2 34 3 112 12 173 14 100 31 326 24 324 -2 0 -14 -5 -28 -12z"/>
<path d="M3305 23386 c-3 -9 -7 -23 -10 -31 -2 -8 3 -19 13 -24 13 -7 17 -30
22 -103 6 -106 27 -152 84 -187 29 -18 86 -29 86 -17 0 20 -22 56 -35 56 -8 0
-28 19 -45 42 -27 36 -30 49 -30 112 0 78 -19 129 -57 154 -20 13 -23 12 -28
-2z"/>
<path d="M3673 22754 c-7 -3 -10 -21 -7 -50 7 -58 -22 -201 -47 -237 -17 -23
-18 -30 -7 -52 13 -24 15 -24 36 -9 35 24 49 61 67 174 16 96 16 108 2 143
-16 37 -21 40 -44 31z"/>
<path d="M3395 21703 c10 -63 10 -57 -9 -145 -10 -44 -31 -97 -48 -125 -44
-69 -36 -135 18 -149 35 -9 39 0 24 46 -11 34 -11 42 2 57 54 61 94 256 72
341 -5 16 -14 22 -36 22 l-30 0 7 -47z"/>
<path d="M3500 20900 c0 -10 18 -54 41 -97 41 -77 41 -77 30 -138 -6 -33 -17
-80 -23 -103 -9 -36 -9 -46 3 -53 21 -13 32 -11 26 5 -3 8 2 16 13 19 19 5 36
65 47 163 5 48 2 58 -37 127 -25 43 -53 80 -67 86 -32 15 -33 14 -33 -9z"/>
<path d="M3982 20289 c-53 -26 -75 -58 -83 -118 l-6 -46 -22 50 c-43 99 -56
120 -76 123 -41 5 -49 -12 -26 -54 65 -123 131 -289 131 -330 0 -23 5 -54 11
-68 11 -24 13 -24 40 -10 25 12 27 17 19 40 -6 14 -10 44 -10 67 0 23 -5 61
-10 83 -7 30 -6 60 4 108 16 75 24 89 65 106 24 9 35 9 59 -4 41 -21 75 -20
95 2 26 28 22 50 -8 44 -14 -2 -43 3 -65 12 -53 21 -66 20 -118 -5z"/>
<path d="M4481 20358 c-6 -17 -10 -32 -9 -33 2 -1 36 -15 77 -31 42 -16 80
-39 89 -51 13 -21 12 -25 -15 -51 -17 -17 -44 -32 -68 -36 -51 -9 -95 -26 -95
-37 0 -19 44 -31 96 -24 71 9 129 51 144 104 18 67 -11 108 -99 141 -31 12
-68 28 -83 36 -25 13 -26 13 -37 -18z"/>
<path d="M4038 19663 c-10 -2 -18 -10 -18 -16 0 -28 50 -116 89 -156 50 -52
61 -76 61 -138 0 -34 5 -49 22 -63 30 -24 38 -11 37 65 -1 81 -15 114 -74 178
-28 30 -57 73 -64 95 -14 41 -18 44 -53 35z"/>
<path d="M4857 19612 c-22 -24 -21 -29 6 -36 12 -3 32 -15 45 -26 19 -18 22
-31 22 -95 0 -88 -11 -100 -89 -89 -59 8 -72 -6 -37 -41 42 -42 148 -28 176
24 5 11 10 59 10 106 0 100 -15 136 -66 160 -41 19 -47 19 -67 -3z"/>
<path d="M4193 18956 c3 -23 35 -101 72 -173 61 -123 68 -133 94 -133 41 0 44
9 17 54 -49 84 -126 245 -126 264 0 14 -8 21 -31 24 l-31 5 5 -41z"/>
<path d="M5346 18594 c-18 -17 -17 -18 5 -27 13 -5 40 -13 59 -16 l35 -7 -1
-78 c0 -70 -3 -81 -24 -98 -13 -10 -33 -18 -45 -16 -41 5 -74 -42 -39 -56 52
-20 130 11 154 61 7 16 15 69 18 118 4 82 2 92 -17 109 -31 28 -121 34 -145
10z"/>
<path d="M5570 17662 c-63 -5 -90 -22 -115 -72 -23 -46 -23 -48 -6 -64 24 -22
27 -21 52 24 13 22 33 43 45 46 43 11 87 0 106 -27 18 -24 19 -32 9 -82 -13
-59 -30 -82 -74 -92 -28 -7 -87 10 -87 26 0 13 -27 11 -35 -2 -14 -21 5 -57
39 -73 66 -31 146 -12 187 45 27 38 43 141 29 184 -20 61 -76 94 -150 87z"/>
<path d="M5578 17158 l-57 -31 15 -28 14 -29 56 32 c54 30 57 31 84 15 43 -26
53 -22 46 16 -13 65 -68 74 -158 25z"/>
<path d="M5760 16611 c0 -25 4 -31 23 -31 29 0 43 -10 52 -38 7 -23 -16 -62
-36 -62 -4 0 -19 -4 -33 -9 -22 -9 -24 -13 -14 -39 l11 -29 44 17 c67 25 88
51 88 110 0 63 -32 99 -93 107 -42 6 -42 5 -42 -26z"/>
<path d="M5120 16555 c-25 -30 -40 -110 -40 -209 0 -150 41 -264 99 -278 24
-6 21 35 -6 97 -35 78 -44 223 -19 308 21 74 21 97 -3 97 -10 0 -24 -7 -31
-15z"/>
<path d="M5247 15597 c-32 -24 -47 -88 -61 -250 -15 -167 -24 -208 -56 -242
-18 -20 -18 -21 0 -45 16 -21 20 -22 35 -10 9 7 28 36 41 63 21 41 27 75 39
213 8 90 17 169 21 175 10 16 14 98 5 104 -5 2 -15 -1 -24 -8z"/>
<path d="M5903 14564 c-22 -9 6 -48 48 -68 26 -12 39 -24 37 -34 -5 -25 -64
-60 -114 -68 -41 -6 -44 -8 -44 -36 l0 -31 51 7 c98 13 169 68 169 131 0 37
-27 67 -82 90 -39 16 -45 17 -65 9z"/>
<path d="M5862 13701 c-9 -25 -7 -30 14 -40 30 -13 44 -48 44 -107 0 -39 -3
-46 -26 -54 -38 -15 -44 -13 -44 18 0 38 -8 44 -39 27 -23 -12 -27 -18 -23
-50 6 -48 38 -70 95 -62 65 9 97 50 97 126 0 74 -22 126 -63 151 -41 26 -43
25 -55 -9z"/>
<path d="M5099 13583 c-16 -27 -36 -70 -45 -98 -21 -71 -30 -225 -15 -254 12
-22 13 -22 32 -5 14 12 19 30 19 67 0 110 33 229 78 280 14 15 13 19 -3 37
-10 11 -22 20 -27 20 -5 0 -22 -21 -39 -47z"/>
<path d="M5007 12782 c-32 -37 -47 -85 -57 -175 -10 -103 -16 -123 -37 -149
-13 -15 -12 -18 15 -32 29 -15 31 -14 45 7 21 33 26 52 37 158 9 89 32 159 53
159 12 0 -11 37 -27 43 -8 3 -21 -2 -29 -11z"/>
<path d="M4760 11883 c-58 -59 -81 -134 -88 -286 l-5 -129 29 4 29 3 6 115 c7
121 30 205 69 250 11 13 20 27 20 31 0 4 9 11 21 14 16 5 18 10 8 21 -19 24
-50 16 -89 -23z"/>
<path d="M4287 10112 c-86 -88 -199 -378 -182 -469 3 -18 10 -33 14 -33 18 0
44 42 47 77 10 108 105 323 173 388 l42 41 -24 22 -23 22 -47 -48z"/>
<path d="M3868 8876 c-25 -19 -59 -56 -75 -83 -82 -130 -98 -306 -22 -237 10
9 15 22 12 30 -3 8 7 49 23 92 22 61 39 88 81 130 50 50 52 55 40 78 l-13 25
-46 -35z"/>
<path d="M3540 7873 c-70 -48 -105 -122 -98 -212 2 -33 10 -67 18 -75 12 -15
15 -15 37 6 16 15 20 25 13 32 -17 17 -11 94 10 136 17 33 31 47 78 76 2 1 0
13 -4 28 -7 30 -20 32 -54 9z"/>
<path d="M3376 6783 c-51 -105 -75 -221 -62 -305 10 -66 19 -75 50 -54 23 14
25 20 15 38 -8 14 -9 48 -4 102 5 65 15 100 51 180 42 93 44 100 28 117 -10
11 -20 19 -24 19 -4 0 -29 -43 -54 -97z"/>
<path d="M4465 5291 c-44 -9 -100 -28 -125 -43 -45 -26 -170 -148 -170 -166 0
-5 12 -14 26 -21 24 -10 28 -9 42 11 27 38 105 108 142 127 19 10 71 26 114
35 44 9 81 17 82 19 1 1 0 14 -3 30 -6 31 -2 30 -108 8z"/>
<path d="M3970 4295 c-9 -10 -13 -46 -13 -99 1 -99 15 -131 79 -171 23 -15 56
-44 73 -66 27 -33 38 -39 70 -39 73 0 130 91 84 133 -10 8 -44 25 -75 37 -41
15 -69 35 -98 67 -22 25 -40 49 -41 52 0 3 -1 23 -3 44 -4 54 -47 77 -76 42z
m101 -207 c12 -10 16 -18 10 -18 -16 0 -61 46 -61 62 1 8 7 5 15 -7 9 -11 25
-28 36 -37z m138 -90 c-14 -26 -37 -19 -66 19 l-25 32 51 -16 c44 -15 49 -19
40 -35z"/>
<path d="M4130 3850 c-23 -23 -26 -45 -7 -57 15 -10 69 -80 86 -111 7 -13 34
-48 61 -77 27 -30 59 -73 70 -95 21 -42 53 -53 78 -28 18 18 14 99 -6 133 -24
39 -221 239 -245 248 -11 4 -25 -1 -37 -13z"/>
<path d="M4424 3319 c-16 -27 -7 -96 19 -145 15 -27 33 -74 41 -105 17 -66 33
-96 57 -102 21 -6 33 2 48 30 22 43 9 113 -34 183 -12 19 -31 60 -42 90 -18
48 -24 55 -51 58 -17 2 -34 -2 -38 -9z"/>
<path d="M4514 2482 c-57 -48 -73 -150 -35 -222 l21 -41 -35 -46 c-34 -45 -45
-92 -27 -119 12 -19 50 -26 73 -14 31 17 102 174 107 235 2 28 6 80 9 116 5
63 4 67 -22 87 -33 26 -63 27 -91 4z m51 -94 c-4 -24 -8 -63 -8 -86 1 -39 -1
-42 -15 -29 -19 20 -28 108 -13 136 7 11 19 21 28 21 13 0 14 -7 8 -42z"/>
</g>
</svg>
